<svg xmlns="http://www.w3.org/2000/svg" width="24" height="24" fill="none">
    <g clip-path="url(#a)">
        <path fill="#5B12EB" fill-rule="evenodd" d="M19.378 10.473v-.233a6.268 6.268 0 0 0-1.812-4.413A6.159 6.159 0 0 0 13.192 4H6.536a.41.41 0 0 0-.292.121.418.418 0 0 0-.12.295V6.08a.41.41 0 0 0 .412.416H13.2a3.683 3.683 0 0 1 2.624 1.096 3.747 3.747 0 0 1 1.088 2.648v.233H14.23a.41.41 0 0 0-.371.236.42.42 0 0 0 .05.44l3.678 4.534a.413.413 0 0 0 .5.115.413.413 0 0 0 .143-.115l3.678-4.534a.418.418 0 0 0-.321-.676h-2.21ZM4.622 13.526v.233c0 1.655.652 3.242 1.812 4.413A6.158 6.158 0 0 0 10.808 20h6.656a.41.41 0 0 0 .412-.416v-1.665a.41.41 0 0 0-.412-.416H10.8a3.683 3.683 0 0 1-2.624-1.096 3.746 3.746 0 0 1-1.087-2.648v-.233h2.68a.409.409 0 0 0 .371-.236.42.42 0 0 0-.05-.44L6.413 8.316a.413.413 0 0 0-.5-.115.413.413 0 0 0-.143.115L2.09 12.85a.418.418 0 0 0 .322.676h2.21Z" clip-rule="evenodd"/>
    </g>
    <defs>
        <clipPath id="a">
            <path fill="#fff" d="M0 0h24v24H0z"/>
        </clipPath>
    </defs>
</svg>
