<svg xmlns="http://www.w3.org/2000/svg" width="46" height="46" fill="none">
    <g clip-path="url(#a)">
        <path fill="#003D7C" d="M8.3 0S0 0 0 8.3v29.4S0 46 8.3 46h29.4s8.3 0 8.3-8.3V8.3S46 0 37.7 0H8.3Z"/>
        <path fill="#fff" d="M24.1 17.3c.1-.9.4-1.7.9-2.2.5-.5 1.1-.8 1.9-.8.8 0 1.5.3 1.9.8.5.5.7 1.2.8 2.2 0 .2-.2.3-.3.3h-4.9c-.1.1-.3-.1-.3-.3Zm7.7 4c.1-.7-.3-.8-.5-.8h-.1c-.2 0-.5.1-.6.2-.2.1-.6.6-.8.8-.2.2-.5.3-.8.5-.3.2-.6.3-.9.4-.3.1-.6.1-1 .1-.5 0-1.1-.1-1.5-.4-.5-.3-.8-.7-1.1-1.2-.2-.5-.4-1-.4-1.7 0-.2.2-.3.3-.3h5.5c.7 0 1.3-.1 1.7-.3.3-.2.5-.6.5-1.3 0-.8-.2-1.5-.6-2.2-.4-.7-1-1.3-1.7-1.8-.8-.3-1.7-.6-2.8-.6-.8 0-1.6.1-2.3.4-.7.3-1.3.7-1.7 1.2-.5.5-.8 1.1-1.1 1.8-.2.7-.4 1.5-.4 2.3 0 1.8.5 3.2 1.5 4.2s2.4 1.5 4.2 1.5c.8 0 1.5-.1 2.1-.3 1-.4 2.3-1.4 2.5-2.5Z"/>
        <path fill="#fff" d="M22.5 9.8c-4.8 0-8.6 3.9-8.6 8.6 0 4.8 3.9 8.6 8.6 8.6 4.7 0 8.6-3.9 8.6-8.6 0-4.7-3.9-8.6-8.6-8.6Z"/>
        <path fill="#003D7C" d="M24.1 17.3c.1-.9.4-1.7.9-2.2.5-.5 1.1-.8 1.9-.8.8 0 1.5.3 1.9.8.5.5.7 1.2.8 2.2 0 .2-.2.3-.3.3h-4.9c-.1.1-.3-.1-.3-.3Zm6.8 3.2c-.1 0-.2.1-.3.2-.2.1-.6.6-.8.8-.2.2-.5.3-.8.5-.3.2-.6.3-.9.4-.3.1-.6.1-1 .1-.5 0-1-.1-1.5-.4-.5-.3-.8-.7-1.1-1.2-.2-.5-.4-1-.4-1.6 0-.2.2-.3.3-.3h5.5c.5 0 .9 0 1-.1 0 0 .2 0 .2-.1v-.4c0-2-.7-3.8-1.2-4.5 0 0-.6-.7-.9-.9-.3-.2-1.1-.3-2-.3-.8 0-1.6.1-2.3.4-.7.3-1.3.7-1.7 1.2-.5.5-.8 1.1-1.1 1.8-.2.7-.4 1.5-.4 1.9v1.3c0 .9.5 2.3 1.5 3.3s2.4 1.5 4.2 1.5c.7 0 1.4-.1 1.7-.2 0 0 .3-.1.7-.6.4-.4.9-1.5 1.3-2.8Z"/>
        <path fill="#fff" d="M8.9 33c0-.4-.1-.6-.2-.8-.1-.2-.4-.4-.7-.4-.3 0-.6.2-.7.4-.1.2-.2.4-.2.8v1.1H8c.3 0 .6-.1.7-.3.1-.2.2-.5.2-.8Zm.6 0c0 1.2-.5 1.8-1.5 1.8h-.9v1.4h-.6V33c0-1.2.5-1.8 1.5-1.8 1-.1 1.5.5 1.5 1.8Zm2.8 0c0-.4-.1-.6-.2-.8-.1-.2-.4-.3-.7-.3-.3 0-.6.1-.7.3-.1.2-.2.4-.2.8s.1.6.2.8c.1.2.4.3.7.3.3 0 .6-.1.7-.3.2-.2.2-.5.2-.8Zm.4-2.6-.3.4-1-.6-1 .6-.3-.4 1.3-.7 1.3.7ZM13 33c0 1.2-.5 1.8-1.5 1.8s-1.6-.6-1.6-1.8c0-1.2.5-1.8 1.5-1.8 1.1-.1 1.6.5 1.6 1.8Zm2.1 1.8c-1.1 0-1.6-.4-1.6-1.3v-3.8h.6v3.8c0 .2.1.3.2.4.2.1.4.2.8.2v.7Zm14.5 0H29V33c0-.4-.1-.6-.2-.8-.1-.2-.4-.3-.7-.3-.3 0-.6.1-.7.3-.1.2-.2.4-.2.8v1.8h-.6V33c0-.4-.1-.6-.2-.8-.1-.2-.4-.3-.7-.3-.3 0-.6.1-.7.3-.1.2-.2.4-.2.8v1.8h-.6V33c0-1.2.5-1.8 1.5-1.8.5 0 .9.2 1.2.6.3-.4.6-.6 1.2-.6 1 0 1.5.6 1.5 1.8v1.8Zm2.9-1.8c0-.4-.1-.6-.2-.8-.1-.2-.4-.3-.7-.3-.3 0-.6.1-.7.3-.1.2-.2.4-.2.8v1.1h.9c.3 0 .6-.1.7-.3.1-.2.2-.5.2-.8Zm.6 0c0 1.2-.5 1.8-1.5 1.8h-.9v1.4h-.6V33c0-1.2.5-1.8 1.5-1.8 1-.1 1.5.5 1.5 1.8Zm2.1 1.8c-1.1 0-1.6-.4-1.6-1.3v-3.8h.6v3.8c0 .2.1.3.2.4.2.1.4.2.8.2v.7Zm2.6-1.8c0-.4-.1-.6-.2-.8-.1-.2-.4-.3-.7-.3-.3 0-.6.1-.7.3-.1.1-.2.4-.2.8s.1.6.2.8c.1.2.4.3.7.3.3 0 .6-.1.7-.3.1-.2.2-.5.2-.8Zm.6 0c0 1.2-.5 1.8-1.5 1.8s-1.5-.6-1.5-1.8c0-1.2.5-1.8 1.5-1.8 1-.1 1.5.5 1.5 1.8Zm.5 1.8h1v-3.6h-1v3.6Zm0-4.4h1v-.7h-1v.7Zm-21.3 1.8c-.1-.3-.4-.5-.7-.5-.3 0-.6.2-.7.5-.1.2-.1.3-.1.5h1.6c0-.2-.1-.3-.1-.5Zm-1.5 1c0 .6.3 1 .9 1 .4 0 .6-.1.9-.4l.5.4c-.4.4-.7.6-1.3.6-.9 0-1.6-.5-1.6-1.8 0-1.2.6-1.8 1.5-1.8 1 0 1.5.7 1.5 1.7v.3h-2.4Zm6.7-1c-.1-.3-.4-.5-.7-.5-.3 0-.6.2-.7.5-.1.2-.1.3-.1.5h1.6c0-.2 0-.3-.1-.5Zm-1.5 1c0 .6.3 1 .9 1 .4 0 .6-.1.9-.4l.5.4c-.4.4-.7.6-1.3.6-.9 0-1.6-.5-1.6-1.8 0-1.2.6-1.8 1.5-1.8 1 0 1.5.7 1.5 1.7v.3h-2.4Z"/>
        <path fill="#fff" d="M17.6 32.2c-.1-.3-.4-.5-.7-.5-.3 0-.6.2-.7.5-.1.2-.1.3-.1.5h1.6c0-.2-.1-.3-.1-.5Zm-1.5 1c0 .6.3 1 .9 1 .4 0 .6-.1.9-.4l.5.4c-.4.4-.7.6-1.3.6-.9 0-1.6-.5-1.6-1.8 0-1.2.6-1.8 1.5-1.8 1 0 1.5.7 1.5 1.7v.3h-2.4Zm6.7-1c-.1-.3-.4-.5-.7-.5-.3 0-.6.2-.7.5-.1.2-.1.3-.1.5h1.6c0-.2 0-.3-.1-.5Zm-1.5 1c0 .6.3 1 .9 1 .4 0 .6-.1.9-.4l.5.4c-.4.4-.7.6-1.3.6-.9 0-1.6-.5-1.6-1.8 0-1.2.6-1.8 1.5-1.8 1 0 1.5.7 1.5 1.7v.3h-2.4Z"/>
    </g>
    <defs>
        <clipPath id="a">
            <path fill="#fff" d="M0 0h46v46H0z"/>
        </clipPath>
    </defs>
</svg>
