<svg xmlns="http://www.w3.org/2000/svg" width="55" height="60" fill="none">
    <path fill="#5B12EB" fill-rule="evenodd" d="M2.373 0h25.69C42.94 0 55 12.013 55 26.83v6.342C55 47.988 42.941 60 28.066 60H2.373A2.369 2.369 0 0 1 0 57.636V2.364A2.369 2.369 0 0 1 2.373 0Zm7.938 29.273c.994 11.707 15.061 18.011 15.395 18.159a.018.018 0 0 0 .013 0c.338-.15 15.453-6.92 15.453-19.466 0-8.46-6.801-15.298-15.269-15.4-9.081-.108-16.357 7.693-15.592 16.707Zm19.195 2.468c2.043-2.13 2.043-5.424 0-7.456-2.04-2.036-5.445-2.036-7.485 0-2.044 2.032-2.044 5.423 0 7.456 2.04 2.035 5.445 2.035 7.485 0Z" clip-rule="evenodd"/>
</svg>
