<svg xmlns="http://www.w3.org/2000/svg" width="78" height="41" fill="none">
    <path fill="#555" d="M77.63.773v9.439a.81.81 0 0 1-.045.35.412.412 0 0 0 0 .144c.008.296-.02.593-.08.883a8.78 8.78 0 0 1-.247 1.148 9.883 9.883 0 0 1-.792 1.945 9.145 9.145 0 0 1-.82 1.262 9.78 9.78 0 0 1-.993 1.148c-.218.2-.46.379-.683.574-.255.21-.526.402-.81.574a9.97 9.97 0 0 1-1.652.843c-.512.194-1.037.351-1.572.47-.22.045-.442.077-.666.098h-.074c-.47.075-.948.098-1.423.069h-.54a.901.901 0 0 1-.39-.046.274.274 0 0 0-.138 0 2.343 2.343 0 0 1-.63-.103 7.825 7.825 0 0 1-1.407-.396 8.036 8.036 0 0 1-1.451-.689c-.12-.074-.241-.149-.367-.218a8.458 8.458 0 0 1-1.016-.734 6.12 6.12 0 0 1-.608-.574 9.116 9.116 0 0 1-1.349-1.658c-.321-.518-.6-1.061-.832-1.624a10.424 10.424 0 0 1-.459-1.463c-.046-.184-.063-.373-.097-.574a2.975 2.975 0 0 1-.115-.752 3.898 3.898 0 0 1-.063-1.033.734.734 0 0 1 .04-.35.53.53 0 0 0 0-.143c.022-.51.097-1.015.224-1.51.123-.484.278-.959.464-1.422.301-.728.686-1.417 1.148-2.055a7.8 7.8 0 0 1 .528-.625c.103-.12.195-.247.298-.356a11.3 11.3 0 0 1 .89-.774 7.23 7.23 0 0 1 .809-.574 9.682 9.682 0 0 1 1.75-.895 8.89 8.89 0 0 1 1.262-.385l.626-.126c.304-.075.62 0 .918-.12a.706.706 0 0 1 .247 0h9.617c.143-.014.287-.014.43 0a.422.422 0 0 1 .069.252Zm-48.325 9.755a3.029 3.029 0 0 1-.643-.046.895.895 0 0 0-.39 0 2.377 2.377 0 0 1-.574.046 2.969 2.969 0 0 0-.321 0 6.889 6.889 0 0 0-1.314.327 4.906 4.906 0 0 0-1.63 1.015c-.316.31-.583.666-.792 1.056a6.513 6.513 0 0 0-.78 2.691.603.603 0 0 1 0 .144c-.05.196-.07.4-.057.602v2.261a.23.23 0 0 1-.07.218h-2.06a1.768 1.768 0 0 0-.493.029.331.331 0 0 0-.034.109v2.582s0 .046.034.063a.216.216 0 0 0 .167.04h2.192c.08 0 .166 0 .23.075.02.127.02.257 0 .384v10.57a.178.178 0 0 0 .074.166h3.397s.04 0 .074-.04a1.03 1.03 0 0 0 0-.379V21.843a.178.178 0 0 1 .075-.172h2.869a.308.308 0 0 0 .252-.063v-2.6a.16.16 0 0 0-.057-.143 1.262 1.262 0 0 0-.333 0H26.54c-.08 0-.172.029-.252-.063V17.2a10.34 10.34 0 0 1 .051-1.394 4.02 4.02 0 0 1 .356-1.228c.173-.3.407-.561.689-.764.092-.075.2-.13.315-.16.331-.1.676-.151 1.022-.15.235 0 .47.058.705.092.086 0 .167.035.247.04.08.006.15.081.241.047a.23.23 0 0 0 .092-.218 3.57 3.57 0 0 1 0-.609 4.51 4.51 0 0 0 .052-.677 1.15 1.15 0 0 1 0-.281 1.65 1.65 0 0 0 .051-.5v-.355c0-.115.035-.19.052-.293.017-.103-.063-.051-.086-.057a3.208 3.208 0 0 0-.77-.178v.012Zm-8.229 22.206a.162.162 0 0 1 0 .075.19.19 0 0 1-.091.04h-4.109c-.258-.511-.43-1.045-.66-1.555-.23-.511-.407-1.068-.637-1.59-.23-.522-.401-1.05-.636-1.52a.408.408 0 0 0-.242-.052c-2.048-.035-8.245 0-8.607 0a13.19 13.19 0 0 0-.648 1.543c-.195.528-.407 1.045-.614 1.567-.207.522-.419 1.039-.631 1.572-.253 0-3.627.04-4.017 0H.092a.086.086 0 0 1 0-.103c.305-.689.609-1.377.907-2.066.35-.797.689-1.6 1.033-2.398.218-.505.447-1.004.671-1.504.224-.499.35-.837.528-1.25.178-.414.396-.896.574-1.343.178-.448.413-.964.625-1.446l.316-.723c.207-.47.407-.941.608-1.412l.362-.82.654-1.51.574-1.342c.212-.482.413-.964.625-1.446l.574-1.343c.184-.425.361-.855.574-1.285.069-.16.149-.322.223-.482a.485.485 0 0 1 .064-.08h3.138c.104.045.12.137.15.212.177.401.35.809.522 1.216.172.408.35.81.522 1.217l.637 1.48c.172.402.355.803.528 1.21.172.408.361.862.574 1.286.212.425.384.872.573 1.314.19.442.373.872.574 1.314.2.442.35.81.522 1.217.172.407.373.878.574 1.314l.316.723.86 2.002.775 1.773.918 2.135c.275.677.574 1.371.89 2.06Zm-7.459-7.81a.332.332 0 0 0 0-.109c-.103-.287-.212-.573-.321-.872l-.631-1.67c-.178-.47-.356-.935-.528-1.405l-.683-1.808c-.253-.654-.5-1.314-.752-1.968-.046-.12-.103-.241-.16-.373l-.574 1.52-.362.93-.459 1.205-.574 1.47-.654 1.72-.465 1.206c0 .051-.046.108 0 .166.02.013.04.023.063.029h5.974a.861.861 0 0 0 .126-.04Zm32.707.092c.035.32.05.642.046.964.017.157 0 .315-.046.465a.538.538 0 0 0 0 .138 6.762 6.762 0 0 1-.316 1.756 6.634 6.634 0 0 1-.574 1.446c-.24.456-.538.878-.889 1.256-.097.104-.178.224-.281.322a12.17 12.17 0 0 1-.54.47c-.455.345-.95.634-1.474.86-.5.224-1.027.384-1.567.477a8.04 8.04 0 0 1-1.107.069h-.43a4.79 4.79 0 0 1-1.309-.172 5.577 5.577 0 0 1-2.18-1.108 3.217 3.217 0 0 1-.574-.62c-.069-.103-.155-.2-.258-.332v9.404a.16.16 0 0 1-.15.075h-3.27a.271.271 0 0 1-.098 0c-.074-.069-.051-.16-.051-.241V19.324a1.72 1.72 0 0 1 0-.448.909.909 0 0 1 .132 0h3.116a.317.317 0 0 1 .068 0c.063.058.046.133.046.201v1.44a.46.46 0 0 0 0 .247.475.475 0 0 0 .086-.063c.132-.166.259-.338.39-.51.201-.238.435-.444.695-.614a6.106 6.106 0 0 1 2.416-1.028c.218-.04.43-.028.637-.074.27-.044.546-.06.82-.046a.77.77 0 0 1 .321.034c.071.007.142.007.213 0 .558.04 1.107.162 1.63.362a6.08 6.08 0 0 1 1.273.648c.273.172.532.363.775.574a6.885 6.885 0 0 1 1.652 2.226c.263.538.455 1.107.574 1.693.103.367.155.694.224 1.05Zm-3.552.844a3.87 3.87 0 0 0-.046-.574c-.04-.207-.04-.419-.086-.631a5.363 5.363 0 0 0-.574-1.435c-.16-.28-.353-.54-.574-.774a3.696 3.696 0 0 0-1.239-.827 3.06 3.06 0 0 0-1.216-.252h-.465a3.15 3.15 0 0 0-1.572.407 4.957 4.957 0 0 0-1.377 1.182.612.612 0 0 1-.04.063 4.576 4.576 0 0 0-.626 1.2 5.283 5.283 0 0 0-.224.935 4.9 4.9 0 0 1-.069.643.281.281 0 0 0 0 .137c.036.127.051.259.046.39a2.918 2.918 0 0 0 0 .322c.062.315.15.624.264.924.208.562.526 1.077.935 1.514.374.39.823.698 1.32.907.39.182.815.278 1.245.281h.534a2.2 2.2 0 0 0 .671-.08c.441-.115.857-.31 1.228-.574.22-.174.426-.366.614-.574.329-.347.588-.754.763-1.199.158-.367.27-.753.333-1.147.073-.274.115-.555.126-.838h.03Zm17.386 6.57a1.14 1.14 0 0 1-.028.407h-3.214c-.063-.034-.063-.097-.063-.155v-1.29a.608.608 0 0 0 0-.288l-.046.035c-.23.35-.51.666-.832.935l-.166.132a5.44 5.44 0 0 1-2.129.884c-.19.032-.381.053-.574.063a2.197 2.197 0 0 0-.28.034 1.789 1.789 0 0 1-.678 0l-.247-.029a5.99 5.99 0 0 1-2.524-.705 4.27 4.27 0 0 1-1.005-.746 3.76 3.76 0 0 1-1.147-2.663v-.396c.009-.56.14-1.113.384-1.618.087-.183.199-.353.333-.505a5.166 5.166 0 0 1 1.148-.987 8.063 8.063 0 0 1 2.34-.946c.431-.11.861-.184 1.292-.264.292-.052.574-.063.89-.092.12.004.239-.01.355-.04a.529.529 0 0 1 .138 0c.384 0 .763 0 1.147-.063.385-.064.764 0 1.148 0h.339a.184.184 0 0 0 .068-.178v-.396a1.912 1.912 0 0 0-.361-1.148 2.01 2.01 0 0 0-.66-.602 3.927 3.927 0 0 0-1.337-.477 5.048 5.048 0 0 0-.78-.063 4.54 4.54 0 0 0-1.274.16 5.947 5.947 0 0 0-2.037 1.01c-.15.116-.293.248-.442.368h-.063a.226.226 0 0 1-.063-.034c-.574-.695-1.148-1.349-1.722-2.049 0-.115.115-.16.178-.224a2.24 2.24 0 0 1 .212-.195 8.613 8.613 0 0 1 1.349-.872 9.875 9.875 0 0 1 1.945-.711c.356-.098.723-.132 1.085-.207.095-.006.191-.006.286 0 .12.004.24-.01.356-.04a.517.517 0 0 1 .213 0 3.89 3.89 0 0 1 .998.051h.178c.98.03 1.938.303 2.789.792.427.23.814.526 1.147.878.378.416.684.89.907 1.406.19.474.325.97.401 1.475.059.316.091.636.098.958v2.582a243.49 243.49 0 0 0-.08 5.813h.028Zm-3.38-5.205v-.642a.408.408 0 0 0-.034-.11h-.23a14.27 14.27 0 0 0-1.64.052c-.327.052-.666.035-.999.075-.554.064-1.1.193-1.624.384a3.26 3.26 0 0 0-.952.574 1.313 1.313 0 0 0-.247.258c-.25.355-.35.794-.281 1.223.027.203.098.399.206.573.248.372.628.636 1.062.74.373.106.76.156 1.148.15.44.009.881-.044 1.308-.155.44-.114.85-.324 1.2-.614.395-.35.69-.8.854-1.303.143-.385.211-.794.201-1.205h.029Z"/>
</svg>
