<svg xmlns="http://www.w3.org/2000/svg" width="132" height="51" fill="none" viewBox="0 0 132 51">
    <g clip-path="url(#a)">
        <path fill="#4a5f74" d="M47.063 25.506v.39c0 .127-.01.264-.01.39 0 .085-.01.159-.01.243v.053c0 .042 0 .095-.011.137a16 16 0 0 1-.17 1.583c-.01.084-.02.18-.041.264v.02q-.064.428-.159.856c-.02.084-.031.168-.052.253 0 .021-.011.042-.011.053l-.063.253c-.021.105-.053.2-.074.306l-.064.253q-.11.427-.253.855c-.02.084-.053.158-.084.243a2 2 0 0 1-.085.232c-.01.042-.031.074-.042.116-.116.316-.232.633-.359.939-.042.084-.073.18-.116.264l-.126.285c-.042.084-.085.18-.127.264a1 1 0 0 1-.084.168l-.064.127c-.01.01-.01.032-.02.053-.032.053-.053.116-.085.169l-.127.253c-.084.169-.18.327-.274.496-.042.084-.095.158-.137.243-.053.084-.106.168-.159.263-.052.095-.105.17-.158.254-.063.095-.116.19-.18.285-.052.073-.094.147-.147.221-.042.074-.095.137-.148.211-.02.032-.042.053-.063.085l-.137.2-.18.243-.18.243q-.045.063-.094.126c-.053.074-.116.148-.169.222-.042.053-.084.105-.137.158a2 2 0 0 1-.211.243c-.053.063-.106.126-.169.19-.158.18-.316.358-.485.527-.043.043-.085.085-.127.138l-.148.147-.148.148-.115.116c-.296.285-.591.56-.908.834-.042.031-.084.063-.116.105a2 2 0 0 0-.158.137 3 3 0 0 1-.2.159 5 5 0 0 1-.244.19c-.074.052-.147.116-.221.168a7 7 0 0 1-.454.328 4 4 0 0 1-.232.158c-.074.053-.158.105-.232.158-.137.095-.285.19-.422.275a19.461 19.461 0 0 1-4.886 2.205c-.085.021-.169.053-.243.074-.042.01-.095.021-.137.042-.063.021-.127.032-.19.053-.158.042-.306.074-.464.116-.053.01-.116.021-.17.042-.062.01-.136.032-.2.042l-.823.159-.18.031c-.094.01-.19.032-.274.042-.052.011-.116.011-.168.022-.422.052-.855.095-1.288.126-.053 0-.116.01-.18.01-.136.011-.263.011-.4.022h-.116c-.18 0-.359.01-.538.01a19.202 19.202 0 0 1-14.552-6.659 19.17 19.17 0 0 1-4.685-12.588c0-2.1.337-4.116.96-6.015.148-.464.316-.908.506-1.35a19 19 0 0 1 3.134-5.119c.148-.169.285-.338.433-.496a19.2 19.2 0 0 1 13.201-6.247c.169-.01.338-.01.517-.02.17 0 .338-.011.507-.011 9.76 0 17.833 7.27 19.079 16.683.095.802.147 1.657.147 2.533"/>
        <path fill="#47d5ec" d="M26.855 7.492A11.782 11.782 0 0 1 10.014 18.14a19 19 0 0 1 3.134-5.118c.148-.169.285-.338.432-.496a19.2 19.2 0 0 1 13.202-6.247c.052.4.073.802.073 1.213"/>
        <path fill="#4498a6" d="M26.855 7.492c0 3.958-1.952 7.46-4.949 9.603a15.6 15.6 0 0 1-8.315-4.57A19.2 19.2 0 0 1 26.792 6.28q.063.598.063 1.213"/>
        <path fill="#ff7b91" d="M47.063 25.506c0 1.044-.084 2.078-.242 3.08-.992 6.153-4.897 11.324-10.247 14.067a19.2 19.2 0 0 1-8.758 2.1 19.255 19.255 0 0 1-14.562-6.659 25.06 25.06 0 0 1 10.72-13.57 24.83 24.83 0 0 1 12.99-3.651c3.525 0 6.891.728 9.93 2.058.117.844.17 1.699.17 2.575"/>
        <path fill="#ff395a" d="M26.803 35.847c0 3.081-.58 6.015-1.636 8.727a19.26 19.26 0 0 1-11.924-6.48 25.06 25.06 0 0 1 10.721-13.57 23.8 23.8 0 0 1 2.839 11.323"/>
        <path fill="#ffa800" d="M46.82 28.587c-.991 6.152-4.896 11.323-10.246 14.066a9 9 0 0 1-1.91-5.793c.116-4.738 3.926-8.61 8.664-8.811a9 9 0 0 1 3.493.538"/>
        <path fill="#fff" d="M39.613 36.037V21.495c0-4.337-2.5-6.532-5.666-6.532-2.586 0-4.053 1.161-5.15 2.501-1.003-1.646-2.712-2.5-4.664-2.5s-3.198.76-4.242 1.772v-1.16h-3.873v20.471h3.873V20.915c.58-.981 1.498-2.29 3.26-2.29 1.773 0 2.744 1.16 2.744 3.018v5.983H29.8v-6.13c0-.243 0-.454-.031-.676.612-1.034 1.53-2.195 3.197-2.195s2.744 1.16 2.744 3.018v14.394zm-8.431-3.873h-6.785v3.873h6.785z"/>
        <path fill="#000" d="M55.115 35.794h.37v-1.878h.727c.781 0 1.256-.433 1.256-1.098 0-.675-.475-1.108-1.256-1.108h-1.097zm1.097-3.757c.538 0 .855.296.855.77 0 .497-.316.782-.855.782h-.728v-1.552zm2.037 3.757h.348v-4.38h-.348zm2.28.085c.41 0 .801-.18 1.054-.507v.422h.338V33.78c0-.644-.443-1.045-1.118-1.045-.507 0-.908.211-1.161.56l.264.2c.2-.285.506-.454.886-.454.464 0 .791.253.791.728v.274l-1.055.18c-.622.105-.96.411-.96.855.01.495.39.802.96.802m-.602-.802c0-.296.21-.507.686-.591l.97-.159v.676c-.221.38-.59.58-1.012.58-.401 0-.644-.221-.644-.506m3.25-.212c0 .718.39.992.992.992.19 0 .338-.02.464-.073v-.317a1.2 1.2 0 0 1-.432.063c-.401 0-.676-.126-.676-.665v-1.709h1.108v-.306h-1.108v-.739h-.348v.739h-.56v.306h.56zm4.77.444-.264-.211c-.211.306-.56.496-.971.496-.728 0-1.235-.539-1.235-1.288v-.074h2.375c.02-.074.02-.158.02-.242 0-.697-.506-1.256-1.287-1.256-.886 0-1.466.675-1.466 1.583 0 .855.622 1.583 1.582 1.583.539.01.971-.222 1.246-.591m-1.372-2.27c.57 0 .928.413.95.919h-2.016c.106-.57.517-.918 1.066-.918m1.815-.189v.306h.56v2.638h.347v-2.638h1.108v-.306h-1.108v-.401c0-.464.264-.728.644-.728a.74.74 0 0 1 .464.148l.148-.296a1.2 1.2 0 0 0-.623-.169c-.58 0-.98.412-.98 1.045v.39h-.56zm3.778-.116c-.94 0-1.573.75-1.573 1.583s.633 1.583 1.573 1.583c.95 0 1.582-.75 1.582-1.583 0-.834-.633-1.583-1.582-1.583m0 2.85c-.718 0-1.225-.592-1.225-1.267 0-.676.507-1.267 1.225-1.267.696 0 1.213.58 1.213 1.267 0 .675-.517 1.266-1.213 1.266m2.458.21h.349v-2.11c.221-.37.485-.57.886-.57.105 0 .18.02.264.042v-.338a1 1 0 0 0-.243-.031c-.4 0-.675.18-.907.474v-.422h-.349zm2.28 0h.348v-2.11c.2-.37.506-.623.95-.623.475 0 .802.306.802.886v1.847h.348v-1.857c0-.084-.01-.158-.021-.243.242-.422.548-.633.96-.633.475 0 .802.306.802.886v1.847h.338v-1.857c0-.781-.454-1.192-1.098-1.192-.506 0-.844.242-1.087.633-.169-.412-.538-.633-.992-.633-.432 0-.749.2-.992.506v-.39h-.348v2.933zm8.157-.485-.264-.211c-.211.306-.56.496-.97.496-.73 0-1.236-.539-1.236-1.288v-.074h2.375c.02-.074.02-.158.02-.242 0-.697-.506-1.256-1.287-1.256-.886 0-1.466.675-1.466 1.583 0 .855.622 1.583 1.582 1.583.55.01.982-.222 1.246-.591m-1.362-2.27c.57 0 .929.413.95.919h-2.015c.105-.57.517-.918 1.065-.918m3.514 1.288c0 .855.602 1.583 1.52 1.583.464 0 .855-.19 1.13-.538v.422h.347v-4.38h-.348v1.858a1.39 1.39 0 0 0-1.13-.538c-.917 0-1.519.728-1.519 1.593m.36 0c0-.696.485-1.266 1.181-1.266.454 0 .855.211 1.097.612v1.298a1.25 1.25 0 0 1-1.097.612c-.686 0-1.182-.56-1.182-1.256m6.33.982-.263-.211c-.211.306-.56.496-.971.496-.728 0-1.235-.539-1.235-1.288v-.074h2.375c.02-.074.02-.158.02-.242 0-.697-.506-1.256-1.287-1.256-.886 0-1.466.675-1.466 1.583 0 .855.622 1.583 1.582 1.583.539.01.971-.222 1.246-.591m-1.371-2.27c.57 0 .928.413.95.919h-2.016c.106-.57.517-.918 1.066-.918m3.799 2.755h.348v-4.38h-.348zm1.604-2.585.559-1.499h-.401l-.475 1.499zm1.667-1.288a.26.26 0 0 0 .264-.263.26.26 0 0 0-.264-.254.26.26 0 0 0-.264.254c-.01.158.116.263.264.263m-.18 3.873h.349V32.85h-.348zm1.499 0h.348v-2.11c.232-.38.538-.623 1.003-.623.517 0 .854.338.854.94v1.793h.349V33.99c0-.813-.486-1.256-1.161-1.256-.464 0-.791.2-1.055.517v-.401h-.349v2.944zm4.96-.21c-.728 0-1.235-.57-1.235-1.267s.507-1.267 1.224-1.267c.412 0 .749.19.96.486l.275-.211a1.5 1.5 0 0 0-1.235-.602c-.95 0-1.583.729-1.583 1.583 0 .855.633 1.583 1.583 1.583.528 0 .96-.243 1.235-.601l-.275-.211a1.12 1.12 0 0 1-.949.506m1.994.21h.348v-4.38h-.348zm3.62-1.245c0 .665-.37 1.034-.918 1.034-.56 0-.919-.37-.919-1.034V32.86h-.348v1.688c0 .876.507 1.372 1.267 1.372.749 0 1.255-.496 1.255-1.372V32.86h-.337zm1.065.865c.254.327.623.507 1.056.507.538 0 .939-.349.939-.855 0-.992-1.509-.76-1.509-1.52 0-.263.2-.495.57-.495.263 0 .506.137.675.38l.253-.201a1.13 1.13 0 0 0-.939-.475c-.538 0-.907.37-.907.791 0 1.035 1.509.792 1.509 1.541 0 .306-.222.549-.612.549-.317 0-.57-.137-.792-.412zm3.061-3.493a.26.26 0 0 0 .263-.263.26.26 0 0 0-.263-.254.26.26 0 0 0-.264.254.26.26 0 0 0 .264.263m-.169 3.873h.348V32.85h-.348zm2.796-3.06c-.939 0-1.572.75-1.572 1.583s.633 1.583 1.572 1.583c.95 0 1.583-.75 1.583-1.583 0-.834-.633-1.583-1.583-1.583m.011 2.85c-.718 0-1.224-.592-1.224-1.267 0-.676.506-1.267 1.224-1.267.696 0 1.213.58 1.213 1.267-.01.675-.517 1.266-1.213 1.266m2.448.21h.348v-2.11c.232-.38.538-.623 1.003-.623.517 0 .854.338.854.94v1.793h.349V33.99c0-.813-.486-1.256-1.161-1.256-.465 0-.792.2-1.055.517v-.401h-.349v2.944zM55.115 15.47h2.353l2.28 3.915 2.279-3.915h2.353v9.318H62.49v-6.68l-2.079 3.483h-1.33l-2.078-3.483v6.68h-1.89zM73.518 21.443c0 2.005-1.488 3.62-3.672 3.62s-3.672-1.615-3.672-3.62 1.488-3.62 3.672-3.62c2.184-.01 3.672 1.604 3.672 3.62m-1.751 0c0-1.172-.813-2.026-1.89-2.026-1.118 0-1.94.854-1.94 2.026s.822 2.026 1.94 2.026c1.077-.01 1.89-.876 1.89-2.026M75.07 18.087h1.688v.528c.464-.454 1.087-.802 1.984-.802 1.445 0 2.606 1.003 2.606 2.986v3.99H79.65v-3.926c0-.897-.506-1.446-1.33-1.446-.854 0-1.308.57-1.561 1.002v4.38H75.07zM86.857 18.087h1.688v.665c.443-.454 1.013-.802 1.773-.802.221 0 .422.042.58.095v1.667a3 3 0 0 0-.749-.095c-.823 0-1.361.454-1.615.876v4.295h-1.688v-6.7zM95.225 25.062c-2.385 0-3.725-1.667-3.725-3.62 0-1.983 1.255-3.619 3.45-3.619 1.868 0 3.092 1.267 3.092 3.018 0 .37-.052.718-.105.95H93.24c.158 1.256.928 1.752 1.984 1.752.728 0 1.372-.317 1.73-.802l1.214.96c-.633.834-1.678 1.361-2.944 1.361m-1.942-4.506h3.092c-.032-.675-.517-1.36-1.467-1.36-.865.01-1.435.485-1.625 1.36m.97-3.535 1.383-2.205h1.836L95.88 17.02zM104.374 22.688l1.319 1.013c-.623.823-1.615 1.361-2.839 1.361-2.311 0-3.704-1.667-3.704-3.62 0-1.951 1.383-3.619 3.704-3.619 1.224 0 2.206.528 2.839 1.361l-1.319 1.014c-.317-.465-.855-.77-1.541-.77-1.108 0-1.921.854-1.921 2.025 0 1.182.813 2.026 1.942 2.026.665-.02 1.203-.327 1.52-.791M106.463 22.983c0-1.013.781-1.772 2.227-2.005l2.047-.348v-.169c0-.707-.528-1.16-1.309-1.16-.654 0-1.16.306-1.519.802l-1.235-.95c.602-.823 1.583-1.33 2.807-1.33 1.942 0 2.944 1.161 2.944 2.638v4.337h-1.688v-.654c-.422.517-1.224.855-2.005.855-1.351-.01-2.269-.781-2.269-2.016m2.607.665c.77 0 1.329-.359 1.667-.897v-.95l-1.594.264c-.707.116-1.002.412-1.002.823 0 .465.359.76.929.76M114.356 18.087h1.689v.549c.517-.517 1.171-.813 2.089-.813 2.132 0 3.409 1.668 3.409 3.62s-1.277 3.62-3.409 3.62c-.918 0-1.572-.296-2.089-.813v3.82h-1.689zm1.689 2.3v2.1c.453.644 1.076.971 1.846.971 1.14 0 1.889-.854 1.889-2.026s-.749-2.026-1.889-2.026c-.781.01-1.424.359-1.846.982"/>
    </g>
    <defs>
        <clipPath id="a">
            <path fill="#fff" d="M0 0h132v51H0z"/>
        </clipPath>
    </defs>
</svg>
