<svg xmlns="http://www.w3.org/2000/svg" width="24" height="23" fill="none" viewBox="0 0 24 23">
    <path fill="#fff" d="M6.22 4.74a9.271 9.271 0 0 1 17.17 6.397 9.6 9.6 0 0 1-.966 2.588 9.26 9.26 0 0 1-8.79 4.777 7.078 7.078 0 0 0-8.58-9.443 9.3 9.3 0 0 1 .207-1.743c.187-.902.511-1.77.96-2.575M.167 14.316A7.08 7.08 0 0 1 5.055 9.06a9.26 9.26 0 0 0 8.58 9.443A7.078 7.078 0 0 1 .167 14.314"/>
    <path fill="url(#a)" d="M6.22 4.74a9.271 9.271 0 0 1 17.17 6.397 9.6 9.6 0 0 1-.966 2.588 9.26 9.26 0 0 1-8.79 4.777 7.078 7.078 0 0 0-8.58-9.443 9.3 9.3 0 0 1 .207-1.743c.187-.902.511-1.77.96-2.575M.167 14.316A7.08 7.08 0 0 1 5.055 9.06a9.26 9.26 0 0 0 8.58 9.443A7.078 7.078 0 0 1 .167 14.314"/>
    <defs>
        <linearGradient id="a" x1="-.756" x2="16.593" y1="22.842" y2="-3.271" gradientUnits="userSpaceOnUse">
            <stop offset=".157" stop-color="#010639"/>
            <stop offset=".559" stop-color="#8b92d6"/>
            <stop offset="1" stop-color="#e57209"/>
        </linearGradient>
    </defs>
</svg>
