<svg width="132" height="51" viewBox="0 0 132 51" fill="none" xmlns="http://www.w3.org/2000/svg">
<g clip-path="url(#clip0_514_10357)">
<path d="M47.0633 25.5056C47.0633 25.6322 47.0633 25.7694 47.0633 25.896C47.0633 26.0226 47.0528 26.1598 47.0528 26.2864C47.0528 26.3709 47.0422 26.4447 47.0422 26.5292C47.0422 26.5503 47.0422 26.5608 47.0422 26.5819C47.0422 26.6241 47.0422 26.6769 47.0317 26.7191C47 27.2573 46.9472 27.7849 46.8628 28.302C46.8523 28.3864 46.8417 28.4814 46.8206 28.5658C46.8206 28.5763 46.8206 28.5763 46.8206 28.5869C46.7784 28.8718 46.7256 29.1567 46.6623 29.4416C46.6412 29.5261 46.6307 29.6105 46.6096 29.6949C46.6096 29.716 46.599 29.7371 46.599 29.7477C46.5779 29.8321 46.5568 29.9165 46.5357 30.0009C46.5146 30.1064 46.4829 30.2014 46.4618 30.3069C46.4407 30.3914 46.4196 30.4758 46.3985 30.5602C46.3246 30.8451 46.2402 31.13 46.1453 31.4149C46.1241 31.4994 46.0925 31.5732 46.0608 31.6576C46.0397 31.7315 46.0081 31.8159 45.9764 31.8898C45.9659 31.932 45.9448 31.9637 45.9342 32.0059C45.8181 32.3224 45.702 32.639 45.5754 32.945C45.5332 33.0295 45.5016 33.1244 45.4593 33.2089C45.4171 33.3038 45.3749 33.3988 45.3327 33.4938C45.2905 33.5782 45.2483 33.6732 45.2061 33.7576C45.185 33.8103 45.1533 33.8737 45.1217 33.9264C45.1006 33.9686 45.0795 34.0108 45.0583 34.0531C45.0478 34.0636 45.0478 34.0847 45.0372 34.1058C45.0056 34.1586 44.9845 34.2219 44.9528 34.2747C44.9106 34.3591 44.8684 34.4435 44.8262 34.5279C44.7418 34.6968 44.6468 34.855 44.5518 35.0239C44.5096 35.1083 44.4569 35.1822 44.4146 35.2666C44.3619 35.351 44.3091 35.4354 44.2564 35.5304C44.2036 35.6254 44.1508 35.6992 44.0981 35.7837C44.0348 35.8786 43.982 35.9736 43.9187 36.0686C43.8659 36.1424 43.8237 36.2163 43.771 36.2902C43.7287 36.364 43.676 36.4274 43.6232 36.5012C43.6021 36.5329 43.581 36.554 43.5599 36.5856C43.5177 36.649 43.4649 36.7228 43.4227 36.7861C43.3594 36.8706 43.3066 36.9444 43.2433 37.0288C43.18 37.1133 43.1273 37.1871 43.0639 37.2716C43.0323 37.3138 43.0006 37.356 42.969 37.3982C42.9162 37.472 42.8529 37.5459 42.8001 37.6198C42.7579 37.6725 42.7157 37.7253 42.6629 37.7781C42.5996 37.8625 42.5258 37.9469 42.4519 38.0208C42.3991 38.0841 42.3464 38.1474 42.2831 38.2107C42.1248 38.3901 41.9665 38.5695 41.7976 38.7383C41.7554 38.7806 41.7132 38.8228 41.671 38.8755C41.6182 38.9283 41.576 38.9705 41.5233 39.0233C41.4705 39.076 41.4283 39.1182 41.3755 39.171C41.3333 39.2132 41.3017 39.2449 41.2595 39.2871C40.964 39.572 40.6685 39.8464 40.352 40.1207C40.3097 40.1524 40.2675 40.184 40.2359 40.2262C40.1831 40.2684 40.1304 40.3107 40.0776 40.3634C40.0143 40.4162 39.951 40.4689 39.8771 40.5217C39.8032 40.585 39.7188 40.6483 39.6344 40.7116C39.5605 40.7644 39.4867 40.8277 39.4128 40.8805C39.2651 40.9966 39.1173 41.1021 38.959 41.2076C38.8852 41.2604 38.8113 41.3131 38.7269 41.3659C38.653 41.4187 38.5686 41.4714 38.4947 41.5242C38.3575 41.6192 38.2098 41.7141 38.0726 41.7986C37.5872 42.1046 37.0807 42.4 36.5531 42.6639C35.4873 43.2126 34.3582 43.6558 33.1868 44.004C33.1024 44.0251 33.018 44.0568 32.9441 44.0779C32.9019 44.0884 32.8492 44.099 32.807 44.1201C32.7436 44.1412 32.6803 44.1517 32.617 44.1729C32.4587 44.2151 32.311 44.2467 32.1527 44.2889C32.0999 44.2995 32.0366 44.31 31.9839 44.3311C31.9205 44.3417 31.8467 44.3628 31.7834 44.3734C31.509 44.4261 31.2346 44.4789 30.9603 44.5316C30.897 44.5422 30.8442 44.5527 30.7809 44.5633C30.6859 44.5738 30.5909 44.595 30.5065 44.6055C30.4538 44.6161 30.3904 44.6161 30.3377 44.6266C29.9156 44.6794 29.4829 44.7216 29.0503 44.7532C28.9975 44.7532 28.9342 44.7638 28.8709 44.7638C28.7337 44.7743 28.6071 44.7743 28.4699 44.7849C28.4277 44.7849 28.396 44.7849 28.3538 44.7849C28.1744 44.7849 27.995 44.7954 27.8156 44.7954C26.9187 44.7954 26.0323 44.7321 25.1775 44.6161C20.4395 43.9618 16.2396 41.5875 13.2638 38.1369C10.3408 34.7601 8.57852 30.3597 8.57852 25.5478C8.57852 23.4478 8.9162 21.4323 9.5388 19.5329C9.68653 19.0686 9.85537 18.6254 10.0453 18.1822C10.8156 16.3038 11.8814 14.5838 13.1794 13.0642C13.3271 12.8954 13.4643 12.7265 13.612 12.5683C16.915 8.94877 21.5897 6.59557 26.8132 6.32121C26.982 6.31066 27.1508 6.31066 27.3302 6.3001C27.4991 6.3001 27.6679 6.28955 27.8368 6.28955C37.5978 6.28955 45.6704 13.5602 46.9156 22.973C47.0106 23.775 47.0633 24.6297 47.0633 25.5056Z" fill="#4A5F74"/>
<path d="M26.8554 7.49234C26.8554 11.4495 24.9032 14.9529 21.9063 17.0951C19.9752 18.4669 17.622 19.2794 15.0683 19.2794C13.2638 19.2794 11.5438 18.8679 10.0137 18.1398C10.784 16.2614 11.8498 14.5414 13.1477 13.0218C13.2955 12.853 13.4327 12.6841 13.5804 12.5259C16.8833 8.90637 21.558 6.55317 26.7815 6.27881C26.8343 6.6798 26.8554 7.08079 26.8554 7.49234Z" fill="#47D5EC"/>
<path d="M26.8554 7.49234C26.8554 11.4495 24.9032 14.9529 21.9063 17.0951C18.6667 16.4619 15.7753 14.8263 13.5909 12.5259C16.8939 8.90637 21.5686 6.55317 26.7921 6.27881C26.8343 6.6798 26.8554 7.08079 26.8554 7.49234Z" fill="#4498A6"/>
<path d="M47.0633 25.5056C47.0633 26.5503 46.9789 27.5844 46.8206 28.5869C45.8287 34.739 41.9243 39.9097 36.5742 42.6533C33.9466 43.9935 30.9708 44.7532 27.8156 44.7532C26.9187 44.7532 26.0323 44.6899 25.1775 44.5739C20.4395 43.9196 16.2396 41.5453 13.2533 38.0946C15.1105 32.3963 18.9621 27.595 23.9746 24.5242C27.7523 22.2132 32.2055 20.873 36.9646 20.873C40.4891 20.873 43.8554 21.6012 46.8945 22.9308C47.0106 23.775 47.0633 24.6297 47.0633 25.5056Z" fill="#FF7B91"/>
<path d="M26.8026 35.8467C26.8026 38.928 26.2222 41.8616 25.167 44.5736C20.4289 43.9193 16.2291 41.545 13.2427 38.0944C15.0999 32.3961 18.9516 27.5947 23.964 24.5239C25.779 27.9007 26.8026 31.7524 26.8026 35.8467Z" fill="#FF395A"/>
<path d="M46.8206 28.5869C45.8287 34.7389 41.9243 39.9096 36.5742 42.6533C35.329 41.0599 34.6114 39.0443 34.6642 36.86C34.7803 32.1219 38.5897 28.2492 43.3278 28.0487C44.5518 27.9959 45.7337 28.1859 46.8206 28.5869Z" fill="#FFA800"/>
<path d="M39.6133 36.0366V21.4953C39.6133 17.1583 37.1124 14.9634 33.9466 14.9634C31.3613 14.9634 29.8945 16.1241 28.797 17.4643C27.7945 15.8181 26.085 14.9634 24.1328 14.9634C22.1806 14.9634 20.9354 15.7232 19.8908 16.7362V15.5754H16.018V36.0472H19.8908V20.915C20.4711 19.9336 21.3892 18.6251 23.1515 18.6251C24.9243 18.6251 25.8951 19.7858 25.8951 21.6431V27.6263H29.7995V21.4953C29.7995 21.2526 29.7995 21.0416 29.7678 20.82C30.3799 19.7858 31.298 18.6251 32.9652 18.6251C34.6325 18.6251 35.7089 19.7858 35.7089 21.6431V36.0366H39.6133ZM31.1819 32.1639H24.3967V36.0366H31.1819V32.1639Z" fill="white"/>
<path d="M55.1148 35.7941H55.4842V33.9158H56.2123C56.9932 33.9158 57.468 33.4831 57.468 32.8183C57.468 32.143 56.9932 31.7103 56.2123 31.7103H55.1148V35.7941ZM56.2123 32.0374C56.7505 32.0374 57.067 32.3329 57.067 32.8078C57.067 33.3037 56.7505 33.5887 56.2123 33.5887H55.4842V32.0374H56.2123ZM58.2489 35.7941H58.5971V31.4148H58.2489V35.7941ZM60.5282 35.8785C60.9398 35.8785 61.3302 35.6991 61.5835 35.372V35.7941H61.9212V33.7786C61.9212 33.1349 61.478 32.7339 60.8026 32.7339C60.2961 32.7339 59.8951 32.945 59.6418 33.2932L59.9056 33.4937C60.1061 33.2088 60.4122 33.0399 60.7921 33.0399C61.2564 33.0399 61.5835 33.2932 61.5835 33.768V34.0424L60.5282 34.2218C59.9056 34.3273 59.568 34.6333 59.568 35.0765C59.5785 35.5725 59.9584 35.8785 60.5282 35.8785ZM59.9268 35.0765C59.9268 34.7811 60.1378 34.57 60.6127 34.4856L61.5835 34.3273V35.0027C61.3619 35.3826 60.9926 35.5831 60.5705 35.5831C60.1695 35.5831 59.9268 35.3615 59.9268 35.0765ZM63.1769 34.8655C63.1769 35.5831 63.5674 35.8574 64.1688 35.8574C64.3588 35.8574 64.5065 35.8363 64.6332 35.7836V35.467C64.5171 35.5092 64.3904 35.5303 64.2005 35.5303C63.7995 35.5303 63.5251 35.4037 63.5251 34.8655V33.156H64.6332V32.85H63.5251V32.1113H63.1769V32.85H62.6176V33.156H63.1769V34.8655ZM67.9466 35.3087L67.6828 35.0977C67.4718 35.4037 67.1235 35.5936 66.712 35.5936C65.9839 35.5936 65.4773 35.0554 65.4773 34.3062C65.4773 34.2851 65.4773 34.264 65.4773 34.2324H67.8516C67.8728 34.1585 67.8727 34.0741 67.8727 33.9896C67.8727 33.2932 67.3662 32.7339 66.5854 32.7339C65.6989 32.7339 65.1186 33.4093 65.1186 34.3168C65.1186 35.1715 65.7412 35.8996 66.7014 35.8996C67.2396 35.9102 67.6723 35.678 67.9466 35.3087ZM66.5748 33.0399C67.1446 33.0399 67.5034 33.4515 67.5245 33.958H65.509C65.6145 33.3882 66.0261 33.0399 66.5748 33.0399ZM68.3898 32.85V33.156H68.9491V35.7941H69.2973V33.156H70.4053V32.85H69.2973V32.449C69.2973 31.9847 69.5611 31.7209 69.941 31.7209C70.131 31.7209 70.2787 31.7736 70.4053 31.8686L70.5531 31.5731C70.4159 31.4887 70.1943 31.4043 69.9305 31.4043C69.3501 31.4043 68.9491 31.8158 68.9491 32.449V32.8394H68.3898V32.85ZM72.1676 32.7339C71.2284 32.7339 70.5953 33.4831 70.5953 34.3168C70.5953 35.1504 71.2284 35.8996 72.1676 35.8996C73.1173 35.8996 73.7505 35.1504 73.7505 34.3168C73.7505 33.4831 73.1173 32.7339 72.1676 32.7339ZM72.1676 35.5831C71.45 35.5831 70.9435 34.9921 70.9435 34.3168C70.9435 33.6414 71.45 33.0505 72.1676 33.0505C72.8641 33.0505 73.3811 33.6309 73.3811 34.3168C73.3811 34.9921 72.8641 35.5831 72.1676 35.5831ZM74.6263 35.7941H74.9746V33.6836C75.1962 33.3143 75.46 33.1138 75.861 33.1138C75.9665 33.1138 76.0403 33.1349 76.1248 33.156V32.8183C76.0509 32.7972 75.9665 32.7867 75.8821 32.7867C75.4811 32.7867 75.2067 32.9661 74.9746 33.2615V32.8394H74.6263V35.7941ZM76.9057 35.7941H77.2539V33.6836C77.4544 33.3143 77.7604 33.061 78.2036 33.061C78.6785 33.061 79.0056 33.3671 79.0056 33.9474V35.7941H79.3538V33.9369C79.3538 33.8525 79.3433 33.7786 79.3327 33.6942C79.5754 33.2721 79.8814 33.061 80.293 33.061C80.7678 33.061 81.095 33.3671 81.095 33.9474V35.7941H81.4326V33.9369C81.4326 33.156 80.9789 32.7445 80.3352 32.7445C79.8287 32.7445 79.491 32.9872 79.2483 33.3776C79.0795 32.9661 78.7101 32.7445 78.2564 32.7445C77.8237 32.7445 77.5071 32.945 77.2644 33.251V32.8605H76.9162V35.7941H76.9057ZM85.0627 35.3087L84.7989 35.0977C84.5878 35.4037 84.2396 35.5936 83.8281 35.5936C83.0999 35.5936 82.5934 35.0554 82.5934 34.3062C82.5934 34.2851 82.5934 34.264 82.5934 34.2324H84.9677C84.9888 34.1585 84.9888 34.0741 84.9888 33.9896C84.9888 33.2932 84.4823 32.7339 83.7014 32.7339C82.815 32.7339 82.2346 33.4093 82.2346 34.3168C82.2346 35.1715 82.8572 35.8996 83.8175 35.8996C84.3662 35.9102 84.7989 35.678 85.0627 35.3087ZM83.7014 33.0399C84.2713 33.0399 84.63 33.4515 84.6511 33.958H82.6356C82.7412 33.3882 83.1527 33.0399 83.7014 33.0399ZM87.2154 34.3273C87.2154 35.1821 87.8169 35.9102 88.7349 35.9102C89.1993 35.9102 89.5897 35.7203 89.8641 35.372V35.7941H90.2123V31.4148H89.8641V33.2721C89.5897 32.9238 89.1993 32.7339 88.7349 32.7339C87.8169 32.7339 87.2154 33.462 87.2154 34.3273ZM87.5742 34.3273C87.5742 33.6309 88.0596 33.061 88.7561 33.061C89.2098 33.061 89.6108 33.2721 89.8535 33.6731V34.971C89.6108 35.372 89.2098 35.5831 88.7561 35.5831C88.0701 35.5831 87.5742 35.0238 87.5742 34.3273ZM93.9057 35.3087L93.6418 35.0977C93.4308 35.4037 93.0826 35.5936 92.671 35.5936C91.9429 35.5936 91.4364 35.0554 91.4364 34.3062C91.4364 34.2851 91.4364 34.264 91.4364 34.2324H93.8107C93.8318 34.1585 93.8318 34.0741 93.8318 33.9896C93.8318 33.2932 93.3253 32.7339 92.5444 32.7339C91.658 32.7339 91.0776 33.4093 91.0776 34.3168C91.0776 35.1715 91.7002 35.8996 92.6605 35.8996C93.1986 35.9102 93.6313 35.678 93.9057 35.3087ZM92.5338 33.0399C93.1037 33.0399 93.4624 33.4515 93.4836 33.958H91.468C91.5736 33.3882 91.9851 33.0399 92.5338 33.0399ZM96.3327 35.7941H96.6809V31.4148H96.3327V35.7941ZM97.9367 33.2088L98.496 31.7103H98.095L97.6201 33.2088H97.9367ZM99.604 31.9214C99.7517 31.9214 99.8678 31.8053 99.8678 31.6576C99.8678 31.5204 99.7517 31.4043 99.604 31.4043C99.4562 31.4043 99.3402 31.5204 99.3402 31.6576C99.3296 31.8158 99.4562 31.9214 99.604 31.9214ZM99.4246 35.7941H99.7728V32.85H99.4246V35.7941ZM100.923 35.7941H101.271V33.6836C101.503 33.3037 101.809 33.061 102.274 33.061C102.791 33.061 103.128 33.3987 103.128 34.0002V35.7941H103.477V33.9896C103.477 33.1771 102.991 32.7339 102.316 32.7339C101.852 32.7339 101.525 32.9344 101.261 33.251V32.85H100.912V35.7941H100.923ZM105.883 35.5831C105.155 35.5831 104.648 35.0132 104.648 34.3168C104.648 33.6203 105.155 33.0505 105.872 33.0505C106.284 33.0505 106.621 33.2404 106.832 33.5359L107.107 33.3248C106.843 32.9661 106.41 32.7234 105.872 32.7234C104.922 32.7234 104.289 33.4515 104.289 34.3062C104.289 35.161 104.922 35.8891 105.872 35.8891C106.4 35.8891 106.832 35.6464 107.107 35.2876L106.832 35.0765C106.621 35.3931 106.284 35.5831 105.883 35.5831ZM107.877 35.7941H108.225V31.4148H107.877V35.7941ZM111.497 34.5489C111.497 35.2137 111.127 35.5831 110.579 35.5831C110.019 35.5831 109.66 35.2137 109.66 34.5489V32.8605H109.312V34.5489C109.312 35.4248 109.819 35.9207 110.579 35.9207C111.328 35.9207 111.834 35.4248 111.834 34.5489V32.8605H111.497V34.5489ZM112.562 35.4142C112.816 35.7414 113.185 35.9207 113.618 35.9207C114.156 35.9207 114.557 35.5725 114.557 35.066C114.557 34.0741 113.048 34.3062 113.048 33.5464C113.048 33.2826 113.248 33.0505 113.618 33.0505C113.881 33.0505 114.124 33.1877 114.293 33.4304L114.546 33.2299C114.346 32.945 114.008 32.755 113.607 32.755C113.069 32.755 112.7 33.1243 112.7 33.5464C112.7 34.5806 114.209 34.3379 114.209 35.0871C114.209 35.3931 113.987 35.6358 113.597 35.6358C113.28 35.6358 113.027 35.4986 112.805 35.2243L112.562 35.4142ZM115.623 31.9214C115.77 31.9214 115.886 31.8053 115.886 31.6576C115.886 31.5204 115.77 31.4043 115.623 31.4043C115.475 31.4043 115.359 31.5204 115.359 31.6576C115.359 31.8158 115.485 31.9214 115.623 31.9214ZM115.454 35.7941H115.802V32.85H115.454V35.7941ZM118.25 32.7339C117.311 32.7339 116.678 33.4831 116.678 34.3168C116.678 35.1504 117.311 35.8996 118.25 35.8996C119.2 35.8996 119.833 35.1504 119.833 34.3168C119.833 33.4831 119.2 32.7339 118.25 32.7339ZM118.261 35.5831C117.543 35.5831 117.037 34.9921 117.037 34.3168C117.037 33.6414 117.543 33.0505 118.261 33.0505C118.957 33.0505 119.474 33.6309 119.474 34.3168C119.464 34.9921 118.957 35.5831 118.261 35.5831ZM120.709 35.7941H121.057V33.6836C121.289 33.3037 121.595 33.061 122.06 33.061C122.577 33.061 122.914 33.3987 122.914 34.0002V35.7941H123.263V33.9896C123.263 33.1771 122.777 32.7339 122.102 32.7339C121.637 32.7339 121.31 32.9344 121.047 33.251V32.85H120.698V35.7941H120.709Z" fill="black"/>
<path d="M55.1148 15.4702H57.468L59.7474 19.3852L62.0267 15.4702H64.3799V24.788H62.491V18.1083L60.4122 21.5906H59.0826L57.0037 18.1083V24.788H55.1148V15.4702Z" fill="black"/>
<path d="M73.5183 21.4428C73.5183 23.4478 72.0304 25.0623 69.846 25.0623C67.6617 25.0623 66.1738 23.4478 66.1738 21.4428C66.1738 19.4378 67.6617 17.8233 69.846 17.8233C72.0304 17.8127 73.5183 19.4273 73.5183 21.4428ZM71.7666 21.4428C71.7666 20.2715 70.9541 19.4167 69.8777 19.4167C68.7591 19.4167 67.9361 20.2715 67.9361 21.4428C67.9361 22.6141 68.7591 23.4689 69.8777 23.4689C70.9541 23.4583 71.7666 22.593 71.7666 21.4428Z" fill="black"/>
<path d="M75.0695 18.0874H76.7579V18.615C77.2222 18.1612 77.8448 17.813 78.7418 17.813C80.1875 17.813 81.3482 18.8155 81.3482 20.7993V24.7882H79.6493V20.8626C79.6493 19.9657 79.1428 19.417 78.3197 19.417C77.4649 19.417 77.0112 19.9868 76.7579 20.4194V24.7987H75.0695V18.0874Z" fill="black"/>
<path d="M86.8566 18.0874H88.545V18.7522C88.9882 18.2984 89.558 17.9502 90.3178 17.9502C90.5394 17.9502 90.7399 17.9924 90.8982 18.0452V19.7125C90.6872 19.6597 90.455 19.6175 90.149 19.6175C89.3259 19.6175 88.7877 20.0712 88.5345 20.4933V24.7882H86.8461V18.0874H86.8566Z" fill="black"/>
<path d="M95.2247 25.0623C92.8399 25.0623 91.4997 23.3951 91.4997 21.4429C91.4997 19.459 92.7554 17.8234 94.9503 17.8234C96.8181 17.8234 98.0422 19.0897 98.0422 20.8414C98.0422 21.2107 97.9895 21.5589 97.9367 21.7911H93.2408C93.3991 23.0468 94.1695 23.5428 95.2247 23.5428C95.9528 23.5428 96.5965 23.2262 96.9553 22.7408L98.1688 23.7011C97.5357 24.5347 96.491 25.0623 95.2247 25.0623ZM93.2831 20.5565H96.3749C96.3433 19.8811 95.8579 19.1952 94.9081 19.1952C94.0428 19.2057 93.473 19.6806 93.2831 20.5565ZM94.2539 17.0214L95.6363 14.8159H97.4724L95.879 17.0214H94.2539Z" fill="black"/>
<path d="M104.374 22.6879L105.693 23.701C105.07 24.5241 104.078 25.0622 102.854 25.0622C100.543 25.0622 99.1502 23.3949 99.1502 21.4427C99.1502 19.4905 100.533 17.8232 102.854 17.8232C104.078 17.8232 105.06 18.3509 105.693 19.1845L104.374 20.1975C104.057 19.7332 103.519 19.4272 102.833 19.4272C101.725 19.4272 100.912 20.282 100.912 21.4533C100.912 22.6352 101.725 23.4794 102.854 23.4794C103.519 23.4583 104.057 23.1522 104.374 22.6879Z" fill="black"/>
<path d="M106.463 22.9834C106.463 21.9704 107.244 21.2106 108.69 20.9784L110.737 20.6302V20.4614C110.737 19.7543 110.209 19.3006 109.428 19.3006C108.774 19.3006 108.268 19.6066 107.909 20.1026L106.674 19.1529C107.276 18.3298 108.257 17.8232 109.481 17.8232C111.423 17.8232 112.425 18.984 112.425 20.4614V24.7984H110.737V24.1442C110.315 24.6612 109.513 24.9989 108.732 24.9989C107.381 24.9884 106.463 24.218 106.463 22.9834ZM109.07 23.6482C109.84 23.6482 110.399 23.2894 110.737 22.7512V21.8015L109.143 22.0653C108.436 22.1814 108.141 22.4769 108.141 22.8884C108.141 23.3527 108.5 23.6482 109.07 23.6482Z" fill="black"/>
<path d="M114.356 18.0871H116.045V18.6358C116.562 18.1187 117.216 17.8232 118.134 17.8232C120.266 17.8232 121.543 19.4905 121.543 21.4427C121.543 23.3949 120.266 25.0622 118.134 25.0622C117.216 25.0622 116.562 24.7668 116.045 24.2497V28.0697H114.356V18.0871ZM116.045 20.3875V22.4874C116.498 23.1311 117.121 23.4583 117.891 23.4583C119.031 23.4583 119.78 22.6035 119.78 21.4322C119.78 20.2609 119.031 19.4061 117.891 19.4061C117.11 19.4167 116.467 19.7649 116.045 20.3875Z" fill="black"/>
</g>
<defs>
<clipPath id="clip0_514_10357">
<rect width="132" height="51" fill="white"/>
</clipPath>
</defs>
</svg>
