<svg xmlns="http://www.w3.org/2000/svg" width="127" height="51" fill="none" viewBox="0 0 127 51">
    <path fill="#5b12eb" d="M25.743 22.349c1.304 1.302 1.304 3.412 0 4.777-1.302 1.304-3.475 1.304-4.776 0-1.304-1.303-1.304-3.475 0-4.777 1.302-1.304 3.475-1.304 4.776 0"/>
    <path fill="#5b12eb" d="M24.834 6.79H8.421c-.83 0-1.505.674-1.505 1.505v35.429c0 .83.674 1.504 1.505 1.504h16.414c9.487 0 17.178-7.691 17.178-17.18v-4.08c0-9.488-7.69-17.179-17.178-17.179zm-1.512 30.39s-9.863-4.344-9.863-12.473a9.85 9.85 0 0 1 9.863-9.866 9.85 9.85 0 0 1 9.865 9.866c0 8.13-9.865 12.472-9.865 12.472"/>
    <path fill="#000" d="M51.746 36.334h.373v-1.88h.724c.776 0 1.256-.438 1.256-1.098s-.48-1.109-1.256-1.109h-1.098zm1.103-3.76c.537 0 .858.293.858.77 0 .479-.32.783-.858.783h-.73v-1.554zm2.036 3.76h.344v-4.379h-.344zm2.276.081c.408 0 .806-.175 1.056-.507v.426h.339V34.32c0-.648-.444-1.045-1.121-1.045-.508 0-.91.216-1.162.56l.263.205c.198-.28.508-.45.887-.45.462 0 .794.257.794.73v.275l-1.051.175c-.618.106-.957.409-.957.853 0 .484.38.793.952.793m-.602-.8c0-.292.217-.507.683-.59l.975-.163v.671c-.222.38-.59.584-1.016.584-.397 0-.643-.217-.643-.503zm3.25-.21c0 .72.384.987.986.987.186 0 .332-.023.467-.07v-.315a1.2 1.2 0 0 1-.431.064c-.397 0-.672-.128-.672-.665V33.7h1.104v-.309H60.16v-.735h-.35v.735h-.556v.31h.555zm4.764.444-.262-.21c-.217.304-.56.496-.975.496-.724 0-1.232-.544-1.232-1.29v-.07h2.377c.017-.07.023-.158.023-.245 0-.695-.503-1.256-1.29-1.256-.882 0-1.466.677-1.466 1.588 0 .858.624 1.588 1.588 1.588.537 0 .968-.233 1.237-.601m-1.366-2.271c.572 0 .928.408.945.922h-2.014c.11-.578.52-.922 1.068-.922m1.816-.187v.31h.555v2.632h.35V33.7h1.104v-.309h-1.104v-.397c0-.46.263-.724.643-.724.187 0 .332.053.46.146l.153-.292a1.2 1.2 0 0 0-.625-.169c-.583 0-.981.415-.981 1.045v.391zm3.774-.117c-.94 0-1.576.747-1.576 1.588s.636 1.588 1.576 1.588 1.582-.747 1.582-1.588c0-.84-.636-1.588-1.582-1.588m.007 2.849c-.719 0-1.227-.59-1.227-1.26 0-.672.508-1.262 1.227-1.262.718 0 1.208.584 1.208 1.261s-.514 1.261-1.209 1.261m2.449.21h.344v-2.107c.221-.368.484-.567.887-.567.106 0 .181.018.27.041v-.332a1 1 0 0 0-.246-.035c-.396 0-.67.175-.91.48v-.42h-.344v2.942zm2.28 0h.344V34.22c.198-.373.502-.618.945-.618.48 0 .8.31.8.881v1.851h.344v-1.862q0-.125-.018-.24c.245-.426.549-.63.957-.63.48 0 .806.308.806.88v1.85h.34V34.47c0-.776-.457-1.196-1.098-1.196-.508 0-.841.245-1.092.631-.17-.415-.538-.631-.993-.631-.456 0-.754.198-.993.508v-.392h-.344v2.943zm8.16-.484-.262-.21c-.216.304-.56.496-.975.496-.724 0-1.231-.544-1.231-1.29v-.07H81.6c.018-.07.023-.158.023-.245 0-.695-.502-1.256-1.29-1.256-.882 0-1.466.677-1.466 1.588 0 .858.625 1.588 1.588 1.588.537 0 .969-.233 1.238-.601m-1.366-2.271c.572 0 .929.408.946.922h-2.015c.111-.578.52-.922 1.068-.922zm3.518 1.284c0 .858.602 1.588 1.519 1.588.46 0 .852-.193 1.126-.537v.42h.345v-4.379h-.344v1.856a1.4 1.4 0 0 0-1.127-.537c-.917 0-1.519.73-1.519 1.588zm.362 0c0-.694.49-1.26 1.185-1.26.45 0 .853.21 1.097.612v1.296a1.25 1.25 0 0 1-1.097.613c-.694 0-1.185-.567-1.185-1.26m6.324.987-.263-.21c-.216.304-.56.496-.975.496-.724 0-1.231-.544-1.231-1.29v-.07h2.376c.018-.07.023-.158.023-.245 0-.695-.502-1.256-1.29-1.256-.881 0-1.466.677-1.466 1.588 0 .858.625 1.588 1.588 1.588.537 0 .969-.233 1.238-.601m-1.367-2.271c.572 0 .929.408.946.922h-2.015c.111-.578.52-.922 1.068-.922zm3.793 2.755h.344v-4.379h-.344zm1.604-2.593.554-1.494h-.396l-.473 1.494zm1.667-1.279c.145 0 .262-.11.262-.262a.26.26 0 0 0-.262-.257c-.146 0-.27.117-.27.257 0 .152.123.263.27.263m-.175 3.87h.344V33.39h-.345zm1.499 0h.344v-2.113c.228-.38.537-.618 1.004-.618.514 0 .858.332.858.94v1.793h.344v-1.804c0-.812-.484-1.256-1.155-1.256-.461 0-.794.198-1.051.52v-.404h-.344zm4.956-.21c-.724 0-1.231-.566-1.231-1.26s.507-1.26 1.226-1.26c.408 0 .747.192.957.49l.274-.217a1.5 1.5 0 0 0-1.231-.601c-.952 0-1.582.73-1.582 1.588s.631 1.588 1.582 1.588a1.5 1.5 0 0 0 1.231-.601l-.274-.217a1.14 1.14 0 0 1-.952.49m2 .21h.344v-4.378h-.344zm3.613-1.248c0 .665-.374 1.039-.917 1.039-.544 0-.923-.374-.923-1.04V33.39h-.344v1.687c0 .876.508 1.372 1.268 1.372.759 0 1.255-.496 1.255-1.372V33.39h-.338v1.693zm1.071.864a1.29 1.29 0 0 0 1.056.502c.537 0 .94-.35.94-.858 0-.993-1.512-.758-1.512-1.523 0-.27.205-.496.572-.496.269 0 .507.134.671.38l.256-.205a1.14 1.14 0 0 0-.933-.473c-.544 0-.906.368-.906.794 0 1.039 1.512.788 1.512 1.535 0 .304-.221.548-.606.548-.316 0-.572-.134-.794-.414zm3.062-3.486c.145 0 .262-.11.262-.262a.26.26 0 0 0-.262-.257.265.265 0 0 0-.268.257c0 .152.122.263.268.263m-.175 3.87h.344V33.39h-.344zm2.801-3.058c-.94 0-1.576.747-1.576 1.588s.636 1.588 1.576 1.588 1.582-.747 1.582-1.588-.636-1.588-1.582-1.588m.006 2.849c-.718 0-1.226-.59-1.226-1.261s.508-1.26 1.226-1.26c.719 0 1.209.583 1.209 1.26s-.514 1.26-1.209 1.26m2.449.21h.344v-2.114c.228-.38.538-.618 1.005-.618.514 0 .858.332.858.94v1.793h.344v-1.804c0-.812-.484-1.256-1.156-1.256-.461 0-.793.198-1.051.52v-.404h-.344zM51.746 15.909h3.66c2.954 0 4.95 2.143 4.95 4.659s-1.996 4.658-4.95 4.658h-3.66zm1.89 1.717v5.882h1.796c1.73 0 2.981-1.29 2.981-2.94s-1.251-2.941-2.98-2.941zm18.006 2.942c0 2.662-2.01 4.924-4.937 4.924s-4.951-2.262-4.951-4.924 2.01-4.925 4.95-4.925c2.942 0 4.938 2.262 4.938 4.925m-1.944 0c0-1.784-1.251-3.154-2.994-3.154s-3.007 1.37-3.007 3.154 1.25 3.153 3.007 3.153c1.756 0 2.994-1.37 2.994-3.153m3.888-4.659h2.847c2.05 0 3.315 1.05 3.315 2.781 0 1.131-.546 1.97-1.504 2.41l2.915 4.125h-2.223l-2.489-3.766h-.972v3.766h-1.89zm1.89 1.57v2.409h1.064c.799 0 1.264-.465 1.264-1.224 0-.706-.466-1.185-1.264-1.185zm9.768-1.57h2.476l3.526 9.316h-2.009l-.891-2.423h-3.727l-.892 2.423h-2.01zm2.516 5.283-1.278-3.5-1.278 3.5z"/>
</svg>
