<svg xmlns="http://www.w3.org/2000/svg" width="384" height="242" fill="none">
    <rect width="384" height="242" fill="#F5F0FD" rx="12"/>
    <path fill="#D7C6F9" d="M301.302 97.472c-75.347 16.825-97.03 69.002-99.434 118.528l99.434-.917V97.472Z"/>
    <path fill="#AF8EF3" d="M165.141 118.045 85.56 105.132l15.122 32.357h73.361l-8.902-19.444Z"/>
    <path fill="#000091" d="M81.155 128.634c0 3.11-1.148 5.745-5.351 5.745-2.947 0-5.35-2.635-5.35-5.745 0-3.109 2.388-5.646 5.35-5.646 2.947 0 5.35 2.52 5.35 5.646Z"/>
    <path fill="#2E2E2E" d="M241.325 172.661a.621.621 0 0 1-.48-.229.736.736 0 0 1-.155-.573l6.483-38.969c.046-.311.31-.557.605-.557l75.176-2.782c.186-.017.372.082.496.229a.697.697 0 0 1 .155.556l-4.978 37.104a.677.677 0 0 1-.605.589l-76.666 4.632h-.031Zm7.026-38.986-6.25 37.578 75.331-4.55 4.808-35.761-73.889 2.733Z"/>
    <path fill="#2E2E2E" d="M261.147 212.203h-.062c-.357-.033-.62-.36-.589-.737l3.334-40.949c.031-.377.326-.671.698-.622.357.033.621.36.59.736l-3.335 40.95c-.031.36-.31.622-.636.622Zm4.622-.066h-.062c-.356-.032-.605-.376-.574-.736l3.847-41.195a.643.643 0 0 1 .698-.606c.357.033.605.377.574.737l-3.847 41.195a.63.63 0 0 1-.636.605Zm31.469-.556h-.062c-.357-.033-.621-.36-.59-.736l3.506-42.521c.031-.377.356-.655.698-.622.356.032.62.36.589.736l-3.505 42.521a.646.646 0 0 1-.636.622Zm4.638-.065h-.062c-.357-.033-.605-.377-.574-.737l4.017-42.455a.651.651 0 0 1 .698-.606c.357.033.605.377.574.737l-4.017 42.455a.653.653 0 0 1-.636.606ZM128.49 111.875c-.062 0-.108 0-.17-.017a.653.653 0 0 1-.466-.589l-3.365-39.706a.725.725 0 0 1 .155-.507.614.614 0 0 1 .465-.23l60.799-1.243c.186 0 .356.082.496.23a.678.678 0 0 1 .155.54l-3.288 29.23a.666.666 0 0 1-.636.606l-46.39.736-7.243 10.672a.638.638 0 0 1-.512.278Zm-2.667-39.706 3.148 37.136 6.421-9.46a.616.616 0 0 1 .512-.278l46.142-.736 3.133-27.873-59.356 1.211Z"/>
    <path fill="#2E2E2E" d="M138.943 85.066a.653.653 0 0 1-.636-.655.665.665 0 0 1 .621-.703l28.957-1.113c.341-.033.651.278.666.654a.663.663 0 0 1-.62.704l-28.957 1.113h-.031Zm1.288 8.2a.653.653 0 0 1-.636-.655.665.665 0 0 1 .621-.704l26.816-.949c.31-.016.652.278.667.655a.663.663 0 0 1-.62.704l-26.848.949Zm-13.478-1.85a.654.654 0 0 1-.573-.36L120.317 79.6l-35.41 1.554a.653.653 0 0 1-.666-.638l-1.939-30.622a.689.689 0 0 1 .155-.491.676.676 0 0 1 .45-.23l54.486-3.485c.171 0 .357.049.481.18a.73.73 0 0 1 .202.49v23.896c0 .376-.295.671-.636.671-.342 0-.636-.31-.636-.67v-23.16L83.651 50.5l1.846 29.28 35.192-1.538c.264-.033.481.131.589.36l6.049 11.817a.697.697 0 0 1-.263.916.678.678 0 0 1-.311.082Z"/>
    <path fill="#2E2E2E" d="M126.071 58.126H94.539c-.356 0-.636-.31-.636-.67 0-.36.295-.672.636-.672h31.532c.356 0 .636.311.636.671 0 .36-.28.671-.636.671Zm-15.882 9.068H94.524c-.357 0-.636-.312-.636-.672 0-.376.294-.67.636-.67h15.665c.356 0 .635.31.635.67a.637.637 0 0 1-.635.671Zm113.935-1.13c-.419.933-1.21 2.079-2.326 1.8-.807-.196-1.179 1.097-.372 1.293 1.706.426 3.086-.834 3.799-2.373.342-.769-.744-1.505-1.101-.72Zm-8.205-2.684c-1.768 0-3.272-.573-4.048-1.538a2.633 2.633 0 0 1-.542-2.145c.372-2.373 4.203-2.88 4.637-2.93.341-.048.667.23.713.606.031.377-.217.704-.573.753-1.071.131-3.335.72-3.506 1.8-.062.41.016.737.264 1.048.512.638 1.722 1.064 3.071 1.064.357 0 .636.31.636.671 0 .36-.295.671-.652.671Zm5.041-12.21v1.359c0 1.751-2.574 1.751-2.574 0V51.17c0-1.75 2.574-1.75 2.574 0Zm-2.451-7.987c.76.23 1.474.606 2.249.77.807.18.698 1.538-.108 1.358-.884-.196-1.706-.59-2.575-.85-.791-.246-.357-1.523.434-1.278Z"/>
    <path fill="#2E2E2E" d="M237.99 84.542c-.156-.147-.373-.196-.574-.147-.093.016-9.679 2.324-14.983-.9-4.296-2.619-5.785-7.873-5.878-20.802 0-.377-.264-.655-.652-.671-.356 0-.635.31-.635.687.093 11.719 1.163 18.69 6.529 21.964 2.59 1.571 6.018 1.964 9.011 1.899l2.187 5.4a.688.688 0 0 0-.341.885c.109.261.341.425.59.425.077 0 .527.786.604.753 4.157-1.833 4.328-8.658 4.343-8.904a.676.676 0 0 0-.201-.589Zm21.993-36.743c-2.698-5.728-2.233-16.056-11.911-20.295-3.304-1.686-7.647-2.504-13.075-2.504-12.687 0-19.201 5.434-19.356 16.138a696.03 696.03 0 0 1-.124 6.923c-.063 3.306-.125 6.236-.14 9.378 0 .376.279.687.636.687s.636-.294.636-.67c.015-3.127.077-6.056.139-9.363.047-2.11.093-4.37.124-6.939.062-4.239 1.164-7.545 3.351-9.951 5.49 9.247 6.498 15.745 16.037 20.213a.563.563 0 0 0 .279.049c3.8-.213 6.53.41 7.894 1.768.652.654.993 1.473.993 2.438 0 .41-.077 1.08-.45 1.784-.667.917-1.69 1.637-2.823 2.112-.837.245-1.799.343-2.869.294-.186-.016-.341.066-.481.197a.728.728 0 0 0-.201.49v.197c-1.21 3.175-6.049 21.048 2.729 23.077 7.507 1.735 19.047-.524 22.769-8.412 4.079-8.593-.31-19.46-4.157-27.611Z"/>
    <path fill="#2E2E2E" d="M233.709 94.755c-.264 0-.496-.164-.605-.442l-2.993-8.183a.702.702 0 0 1 .372-.884c.326-.13.698.033.838.393l2.993 8.183a.702.702 0 0 1-.372.884.596.596 0 0 1-.233.05Z"/>
    <path fill="#2E2E2E" d="M289.033 131.318a.672.672 0 0 1-.636-.54c-2.869-14.844-20.007-42.57-20.178-42.831l-.093-.197c-.884-3.29-2.156-5.63-2.668-6.514-18.596 3.945-32.524 13.323-36.246 19.346-.202.311-.589.409-.884.196a.687.687 0 0 1-.186-.933c3.877-6.301 18.332-16.04 37.503-20.016a.643.643 0 0 1 .651.278c.078.115 1.861 2.848 3.055 7.168 1.257 1.948 17.449 28.413 20.318 43.241a.683.683 0 0 1-.496.802c-.047-.016-.093 0-.14 0Zm10.703 49.248c.108-.687.248-1.375.45-2.062.015-.066.062-.131.093-.18-.636-4.845-1.133-8.053-1.474-9.575a.652.652 0 0 0-.775-.507c-.341.082-.559.458-.481.818.372 1.62.915 5.303 1.644 10.917.031.311.264.54.543.589Z"/>
    <path fill="#2E2E2E" d="M192.562 213.169a.671.671 0 0 1-.496-.246.745.745 0 0 1-.14-.573c.14-.753 14.766-75.156 23.389-96.302 8.98-22.046 39.876-29.165 53.447-29.165.357 0 .636.31.636.67 0 .377-.295.672-.636.672-13.276 0-43.536 6.923-52.253 28.347-8.08 19.82-21.512 86.973-23.14 95.222l108.972-1.522-.326-3.045a.673.673 0 0 1 .559-.752c.356-.05.403-1.244.434-.884l.682 5.27a.7.7 0 0 1-.155.524.622.622 0 0 1-.481.229l-110.492 1.555c.016 0 .016 0 0 0Z"/>
    <path fill="#2E2E2E" d="M218.433 210.059c-4.684 0-9.352-.475-13.788-1.228a.662.662 0 0 1-.528-.769c.062-.376.388-.622.729-.556 19.698 3.289 44.514 1.391 50.857-26.4a.653.653 0 0 1 .776-.507c.341.082.558.458.481.818-5.134 22.488-21.823 28.642-38.527 28.642Zm-23.622-8.053a.885.885 0 0 1-.202-.032c-19.185-6.678-34.54-30.033-35.176-31.015-3.288-5.058-3.645-4.829-5.692-3.617-1.101.654-2.714 2.717-4.126 4.517-2.218 2.831-3.521 4.435-4.653 4.452-.853-.017-1.442-.279-1.752-.884-.543-1.048-.466-3.143 4.249-10.868 5.848-9.558 13.866-10.687 24.087-9.427 6.002.737 11.245 5.041 16.797 9.591 3.955 3.241 8.034 6.596 12.532 8.723.326.148.466.557.326.901a.635.635 0 0 1-.853.343c-4.653-2.193-8.794-5.597-12.811-8.887-5.398-4.435-10.5-8.609-16.161-9.313-9.756-1.194-17.372-.147-22.862 8.822-4.467 7.283-4.436 9.051-4.203 9.46.062.131.264.18.605.18.605-.016 2.466-2.389 3.691-3.961 1.567-1.996 3.18-4.059 4.482-4.844 3.118-1.866 4.188-.9 7.399 4.042.636.982 15.742 23.961 34.525 30.492a.667.667 0 0 1 .403.851.62.62 0 0 1-.605.474Z"/>
    <path fill="#2E2E2E" d="M185.241 197.227a.653.653 0 0 1-.605-.458c-1.442-4.386-1.442-12.291 1.381-18.282 1.954-4.157 4.948-6.956 8.887-8.314.341-.115.698.082.807.442a.683.683 0 0 1-.419.851c-3.599 1.244-6.344 3.797-8.143 7.627-2.668 5.663-2.668 13.11-1.318 17.234.108.36-.062.737-.404.868a.644.644 0 0 1-.186.032Zm-35.796-15.614c-.543 0-1.039-.212-1.458-.621-1.272-1.293-1.411-4.256-.372-8.331a.643.643 0 0 1 .791-.475c.341.098.543.475.45.835-1.039 4.108-.667 6.301.015 7.005.248.245.543.311.915.196.636-.212 1.365-3.748 1.691-5.253.248-1.195.465-2.226.698-2.897.837-2.341 3.334-5.483 6.095-4.779.341.081.559.458.481.818a.653.653 0 0 1-.775.507c-1.893-.474-3.924 2.03-4.591 3.945-.202.572-.419 1.62-.652 2.717-.729 3.518-1.303 5.859-2.559 6.268a5.666 5.666 0 0 1-.729.065Z"/>
    <path fill="#2E2E2E" d="M153.12 182.366h-.139c-1.101-.098-1.908-1.309-2.187-3.306-.047-.376.186-.72.543-.769a.643.643 0 0 1 .729.573c.201 1.44.667 2.127 1.023 2.16.466.066 1.691-.982 2.963-5.123 1.055-3.453 2.187-5.237 3.474-5.45.807-.131 1.411.409 1.644.753.202.311.14.737-.155.949a.624.624 0 0 1-.9-.163s-.17-.229-.403-.197c-.186.033-1.179.41-2.435 4.518-1.225 3.96-2.652 6.055-4.157 6.055Z"/>
    <path fill="#2E2E2E" d="M157.711 179.044c-.636 0-1.303-.262-1.97-.802a.723.723 0 0 1-.139-.949.638.638 0 0 1 .899-.148c.559.426 1.024.59 1.427.508.838-.18 1.551-1.473 2.234-2.734.387-.703.791-1.423 1.225-1.996.233-.279.636-.328.9-.082.263.245.31.671.077.949-.372.475-.729 1.113-1.101 1.8-.822 1.506-1.691 3.061-3.087 3.372-.155.049-.31.082-.465.082Zm25.204-17.087a.55.55 0 0 1-.372-.131c-.295-.213-.357-.638-.155-.949 7.212-10.704 13.773-12.832 22.675-7.333a.711.711 0 0 1 .233.933.635.635 0 0 1-.884.246c-6.917-4.272-13.121-4.714-20.985 6.939a.612.612 0 0 1-.512.295Z"/>
    <path fill="#2E2E2E" d="M189.724 167.391c-.015 0-.015 0 0 0-.372 0-.651-.311-.651-.688 0-.376.295-.671.636-.671.077 0 3.04-.016 4.312-1.685.558-.737.713-1.703.449-2.93-.341-1.571-.713-1.948-.915-2.03-.496-.212-1.659.606-2.9 1.49-1.194.834-2.668 1.882-4.482 2.749-.326.148-.698 0-.853-.343a.707.707 0 0 1 .325-.901c1.722-.818 3.149-1.833 4.296-2.651 1.722-1.211 2.963-2.095 4.095-1.62.791.327 1.318 1.26 1.691 2.995.356 1.637.108 3.011-.698 4.092-1.629 2.144-4.994 2.193-5.305 2.193Zm-77.642 2.831c-1.83 0-3.304-1.587-3.304-3.551 0-1.932 1.489-3.487 3.304-3.487 1.83 0 3.304 1.572 3.304 3.487 0 2.291-1.179 3.551-3.304 3.551Zm0-5.679c-1.117 0-2.016.949-2.016 2.128 0 1.178.93 2.193 2.016 2.193 1.411 0 2.016-.655 2.016-2.193 0-1.162-.899-2.128-2.016-2.128Zm15.059 5.679c-1.83 0-3.303-1.587-3.303-3.551 0-1.932 1.489-3.487 3.303-3.487 1.831 0 3.304 1.572 3.304 3.487 0 2.291-1.179 3.551-3.304 3.551Zm0-5.679c-1.116 0-2.016.949-2.016 2.128 0 1.178.931 2.193 2.016 2.193 1.412 0 2.017-.655 2.017-2.193 0-1.162-.915-2.128-2.017-2.128Zm3.817 18.396c-1.83 0-3.304-1.587-3.304-3.551 0-1.932 1.489-3.487 3.304-3.487 1.83 0 3.303 1.572 3.303 3.487.016 2.291-1.163 3.551-3.303 3.551Zm0-5.679c-1.117 0-2.016.949-2.016 2.128 0 1.178.93 2.193 2.016 2.193 1.411 0 2.016-.655 2.016-2.193.016-1.162-.899-2.128-2.016-2.128Zm17.277 2.93c-.186.965-.806 1.407-1.954 1.407-1.101 0-2.016-.998-2.016-2.193 0-1.178.899-2.128 2.016-2.128.667 0 1.272.344 1.629.884 0-.344.031-.687.077-1.015a6.125 6.125 0 0 1-.046-.753 3.195 3.195 0 0 0-1.66-.474c-1.83 0-3.303 1.571-3.303 3.486 0 1.948 1.488 3.552 3.303 3.552 1.365 0 2.342-.524 2.869-1.506-.418-.262-.713-.704-.915-1.26Zm27.732-28.217-86.172-.196a.653.653 0 0 1-.636-.606l-1.04-11.211a.714.714 0 0 1 .171-.524.623.623 0 0 1 .48-.229h85.926c.325 0 .604.262.635.606l1.303 11.391c.016.196-.031.393-.155.524-.155.163-.326.245-.512.245Zm-85.583-1.555 84.87.18-1.148-10.032H89.469l.915 9.852Z"/>
    <path fill="#2E2E2E" d="M113.928 199.093H87.452a.649.649 0 0 1-.636-.638l-2.947-47.12a.656.656 0 0 1 .636-.72H94.54c.357 0 .636.311.636.671v7.168l19.294 30.77a.799.799 0 0 1 .109.376v8.806c0 .376-.295.687-.651.687Zm-25.87-1.358h25.234v-7.922l-19.294-30.769a.812.812 0 0 1-.11-.377v-6.694h-8.7l2.87 45.762Z"/>
    <path fill="#2E2E2E" d="M85.11 158.716c-.356 0-.635-.294-.635-.671 0-.376.279-.687.636-.687l71.019-1.129c.388-.017.652.294.652.671 0 .376-.28.687-.636.687l-71.035 1.129Zm99.201-.491h-.031l-8.344-.474c-.357-.017-.621-.344-.605-.72a.657.657 0 0 1 .682-.639l7.678.426v-4.845h-7.709c-.357 0-.636-.311-.636-.671 0-.376.295-.671.636-.671h8.344c.357 0 .636.311.636.671v6.252c0 .18-.077.36-.201.491a.736.736 0 0 1-.45.18Zm-70.383 32.063c-.357 0-.636-.295-.636-.671 0-.377.279-.688.636-.688l62.039-.294c.357 0 .636.294.652.671 0 .376-.279.687-.636.687l-62.055.295Zm76.649 9.967-76.665-1.162c-.356 0-.636-.311-.636-.687 0-.377.249-.688.652-.671l76.649 1.162c.357 0 .636.311.636.687a.647.647 0 0 1-.636.671Z"/>
    <path fill="#2E2E2E" d="M132.71 156.72c2.001 4.599 6.359 8.019 11.694 6.972 4.39-.851 6.266-3.765 6.825-7.251l-18.519.279Zm35.191-16.138a.654.654 0 0 1-.574-.376l-8.747-19.133-78.03-12.652L95.129 139.6a.704.704 0 0 1-.295.917c-.325.163-.698.032-.868-.311l-15.122-32.357a.716.716 0 0 1 .062-.704.613.613 0 0 1 .62-.262l79.597 12.897c.217.033.387.18.48.376l8.903 19.444a.692.692 0 0 1-.295.9.617.617 0 0 1-.31.082Z"/>
    <path fill="#2E2E2E" d="m63.83 113.331 15.572-5.777 5.103 10.9-20.675-5.123Z"/>
    <path fill="#2E2E2E" d="M84.505 119.125c-.047 0-.093 0-.14-.016l-20.674-5.123a.67.67 0 0 1-.497-.622.667.667 0 0 1 .435-.671l15.572-5.777a.626.626 0 0 1 .79.343l5.103 10.901a.708.708 0 0 1-.077.72.65.65 0 0 1-.512.245Zm-18.38-5.925 17.201 4.256-4.234-9.067-12.966 4.811Zm75.844 20.524H99.395c-.357 0-.636-.311-.636-.671 0-.376.294-.671.636-.671h42.574c.357 0 .636.311.636.671 0 .377-.279.671-.636.671Zm5.599 1.326c-.311 0-.574-.229-.636-.556l-1.024-5.696c-.062-.376.155-.72.512-.802.357-.065.682.18.76.54l1.023 5.696c.062.376-.155.72-.511.802-.047.016-.078.016-.124.016Z"/>
    <path fill="#2E2E2E" d="M148.948 128.651h-4.761c-.357 0-.636-.311-.636-.671 0-.377.294-.671.636-.671h4.761c.357 0 .636.311.636.671 0 .36-.279.671-.636.671Zm1.272 6.399h-4.855c-.356 0-.636-.311-.636-.671 0-.376.295-.671.636-.671h4.855c.357 0 .636.311.636.671a.638.638 0 0 1-.636.671Z"/>
</svg>
