<svg width="384" height="242" viewBox="0 0 384 242" fill="none" xmlns="http://www.w3.org/2000/svg">
<rect y="-0.000488281" width="384" height="242" rx="12" fill="#F0F8FF"/>
<path d="M90.9018 113.441C90.1235 112.228 88.9758 111.331 88.0524 110.249C87.5248 109.629 86.6409 110.526 87.1554 111.146C88.0128 112.148 89.0946 112.966 89.8069 114.075C90.2554 114.747 91.3371 114.127 90.9018 113.441Z" fill="#D7C6F9"/>
<path d="M247.302 198.111L266.298 197.821L265.903 180.552C257.975 184.048 252.038 190.578 247.302 198.111Z" fill="#DBF0FF"/>
<path d="M241.366 21.2784C240.838 22.004 240.258 22.6768 239.625 23.2969C239.044 23.8642 239.941 24.7613 240.522 24.194C241.234 23.4948 241.867 22.7296 242.461 21.9249C242.936 21.2521 241.841 20.6188 241.366 21.2784Z" fill="#5B12EB"/>
<path d="M237.184 98.8504L244.176 95.671L242.962 102.32L237.184 98.8504Z" fill="#9C6FF4"/>
<path d="M245.324 184.074H92.9466L90.427 53.0855L242.804 49.3125L244.558 138.533L245.126 167.636L245.192 171.04L245.324 184.074Z" fill="#DBF0FF"/>
<path d="M98.8037 200.974C98.4607 200.974 98.1837 200.697 98.1705 200.354L94.3977 35.3681C94.3977 35.1966 94.4637 35.0383 94.5824 34.9196C94.7011 34.8008 94.8594 34.7349 95.0309 34.7349H262.526C262.868 34.7349 263.159 35.0119 263.159 35.3549L263.343 58.3099C263.343 58.6529 263.066 58.9431 262.723 58.9431C262.38 58.9431 262.09 58.6661 262.09 58.3231L261.919 35.9882H95.6641L99.4105 199.707L265.652 197.214L264.834 162.188C264.821 161.845 265.098 161.555 265.454 161.541C265.784 161.528 266.087 161.805 266.1 162.161L266.932 197.821C266.932 197.992 266.866 198.151 266.76 198.269C266.641 198.388 266.483 198.454 266.312 198.467L98.8037 200.974Z" fill="#2E2E2E"/>
<path d="M153.008 81.3968H115.201C113.961 81.3968 112.958 80.3942 112.958 79.1541V73.732C112.958 72.4919 113.961 71.4892 115.201 71.4892L153.008 72.294C154.248 72.294 155.251 73.2966 155.251 74.5367V79.1541C155.264 80.381 154.248 81.3968 153.008 81.3968Z" fill="white"/>
<path d="M117.919 56.0276C117.919 57.2677 117.43 58.3099 115.676 58.3099C114.436 58.3099 113.433 57.2677 113.433 56.0276C113.433 54.7875 114.436 53.7849 115.676 53.7849C116.916 53.7849 117.919 54.8007 117.919 56.0276Z" fill="#2E2E2E"/>
<path d="M115.689 58.9432C114.106 58.9432 112.826 57.6371 112.826 56.0276C112.826 54.4445 114.119 53.1649 115.689 53.1649C117.272 53.1649 118.552 54.4577 118.552 56.0276C118.552 57.9142 117.536 58.9432 115.689 58.9432ZM115.689 54.4181C114.805 54.4181 114.08 55.1437 114.08 56.0276C114.08 56.9247 114.818 57.6767 115.689 57.6767C116.837 57.6767 117.298 57.2018 117.298 56.0276C117.298 55.1437 116.573 54.4181 115.689 54.4181Z" fill="#2E2E2E"/>
<path d="M124.514 58.9432C122.931 58.9432 121.652 57.6371 121.652 56.0276C121.652 54.4445 122.945 53.1649 124.514 53.1649C126.097 53.1649 127.377 54.4577 127.377 56.0276C127.39 57.9142 126.374 58.9432 124.514 58.9432ZM124.514 54.4181C123.631 54.4181 122.905 55.1437 122.905 56.0276C122.905 56.9247 123.644 57.6767 124.514 57.6767C125.662 57.6767 126.124 57.2018 126.124 56.0276C126.124 55.1437 125.411 54.4181 124.514 54.4181Z" fill="#2E2E2E"/>
<path d="M117.694 195.842C113.961 195.842 110.94 192.755 110.94 188.955C110.94 185.222 113.974 182.201 117.694 182.201C121.427 182.201 124.448 185.235 124.448 188.955C124.448 193.467 122.113 195.842 117.694 195.842ZM117.694 183.467C114.66 183.467 112.193 185.934 112.193 188.968C112.193 192.016 114.713 194.589 117.694 194.589C121.441 194.589 123.195 192.808 123.195 188.968C123.195 185.934 120.728 183.467 117.694 183.467Z" fill="#2E2E2E"/>
<path d="M132.799 58.9432C131.216 58.9432 129.936 57.6371 129.936 56.0276C129.936 54.4445 131.229 53.1649 132.799 53.1649C134.368 53.1649 135.661 54.4577 135.661 56.0276C135.661 57.9142 134.645 58.9432 132.799 58.9432ZM132.799 54.4181C131.915 54.4181 131.189 55.1437 131.189 56.0276C131.189 56.9247 131.928 57.6767 132.799 57.6767C133.946 57.6767 134.408 57.2018 134.408 56.0276C134.408 55.1437 133.682 54.4181 132.799 54.4181Z" fill="#2E2E2E"/>
<path d="M131.203 93.1778H115.689C115.346 93.1778 115.056 92.9008 115.056 92.5446C115.056 92.1884 115.333 91.9113 115.689 91.9113H131.216C131.559 91.9113 131.849 92.1884 131.849 92.5446C131.849 92.9008 131.559 93.1778 131.203 93.1778Z" fill="#2E2E2E"/>
<path d="M125.596 101.568H115.676C115.333 101.568 115.043 101.291 115.043 100.935C115.043 100.579 115.32 100.302 115.676 100.302H125.596C125.939 100.302 126.229 100.579 126.229 100.935C126.229 101.291 125.952 101.568 125.596 101.568Z" fill="#2E2E2E"/>
<path d="M117.694 190.948C117.351 190.948 117.061 190.67 117.061 190.314V180.816C117.061 180.473 117.338 180.182 117.694 180.182C118.037 180.182 118.327 180.459 118.327 180.816V190.314C118.327 190.67 118.037 190.948 117.694 190.948Z" fill="#2E2E2E"/>
<path d="M184.312 212.979H176.133C175.79 212.979 175.5 212.702 175.5 212.346V199.18C175.5 198.837 175.777 198.546 176.133 198.546C176.489 198.546 176.766 198.823 176.766 199.18V211.712H183.652L182.835 199.1C182.808 198.757 183.072 198.454 183.428 198.428C183.784 198.401 184.075 198.665 184.101 199.021L184.958 212.293C184.972 212.464 184.906 212.636 184.787 212.768C184.655 212.9 184.497 212.979 184.312 212.979Z" fill="#2E2E2E"/>
<path d="M183.864 205.261L183.468 199.074L176.133 199.18V212.346H176.16C178.692 209.945 181.238 207.557 183.864 205.261Z" fill="#2E2E2E"/>
<path d="M205.577 221H155.304C155.066 221 154.842 220.855 154.736 220.644C154.631 220.42 154.67 220.169 154.816 219.971C158.562 215.433 172.281 210.842 184.352 211.712C196.317 212.57 205.564 219.575 205.96 219.865C206.171 220.024 206.263 220.314 206.171 220.565C206.092 220.828 205.854 221 205.577 221ZM156.834 219.747H203.546C200.38 217.715 192.979 213.612 184.273 212.979C173.693 212.201 161.451 215.868 156.834 219.747Z" fill="#2E2E2E"/>
<path d="M258.331 119.602C257.988 119.602 257.711 119.325 257.698 118.982L257.091 90.0643C257.078 89.7212 257.355 89.431 257.711 89.4178H257.724C258.067 89.4178 258.344 89.6949 258.357 90.0379L258.964 118.956C258.977 119.299 258.7 119.589 258.344 119.602H258.331Z" fill="#2E2E2E"/>
<path d="M220.404 178.256L106.982 178.929L106.771 131.752C106.771 131.752 140.093 103.019 172.558 106.515C172.558 105.816 172.307 87.9797 172.294 86.146C172.281 85.3412 170.553 85.4995 169.946 85.3412C169.946 85.3412 167.281 84.0615 166.147 82.7687C165.817 81.832 165.817 79.8399 165.804 78.8637C168.337 76.8452 168.759 76.8584 171.767 75.5524C172.703 75.1434 174.233 57.1224 181.093 55.381C181.331 55.3283 206.487 55.381 208.017 60.9219C207.885 61.1461 208.136 83.7845 208.387 92.9005C206.962 102.412 202.661 103.943 197.292 106.146C197.424 107.043 196.936 108.415 197.068 109.312C199.311 109.22 213.07 117.544 219.309 123.863C221.789 126.37 224.56 128.863 226.538 131.818C228.702 133.665 230.826 135.314 233.253 136.647C237.633 139.074 242.012 138.771 245.125 138.006V167.623C220.365 167.623 205.999 150.802 205.999 150.802L204.429 157.755C227.303 167.874 220.404 178.256 220.404 178.256Z" fill="white"/>
<path d="M171.753 105.856C167.189 105.513 147.085 104.827 127.245 117.32C117.456 123.481 105.742 131.225 105.505 133.045C105.478 133.23 105.544 133.468 105.676 133.613C105.795 133.745 105.966 133.811 106.138 133.811C106.296 133.811 106.441 133.758 106.573 133.639C106.692 133.534 106.758 133.388 106.771 133.243C107.048 132.795 109.344 130.09 127.931 118.389C149.987 104.497 172.347 107.175 172.571 107.201C172.729 107.214 172.888 107.175 173.02 107.083C172.598 106.647 172.175 106.251 171.753 105.856Z" fill="#2E2E2E"/>
<path d="M204.548 157.768C204.508 157.768 204.482 157.768 204.442 157.755C204.099 157.702 203.862 157.372 203.928 157.029C203.941 156.95 205.221 149.325 208.901 141.33C209.046 141.014 209.416 140.869 209.732 141.027C210.049 141.172 210.181 141.541 210.036 141.858C206.434 149.694 205.115 157.465 205.102 157.544C205.062 157.861 204.851 157.768 204.548 157.768Z" fill="#2E2E2E"/>
<path d="M244.176 189.654H237.184C236.841 189.654 236.551 189.377 236.551 189.021C236.551 188.678 236.828 188.388 237.184 188.388H244.176C244.519 188.388 244.809 188.665 244.809 189.021C244.809 189.377 244.519 189.654 244.176 189.654Z" fill="#2E2E2E"/>
<path d="M174.801 75.6842C170.672 75.4731 167.756 76.1459 166.147 77.6631C165.026 78.7317 164.788 79.9718 164.788 80.8293C164.788 82.109 165.316 83.3227 166.266 84.233C167.11 85.0377 168.68 85.9744 171.476 86.0008L171.978 105.869C171.648 105.842 171.199 105.816 170.659 105.776C170.936 106.225 171.226 106.66 171.529 107.096C172.162 107.148 172.519 107.188 172.545 107.188C172.73 107.214 172.914 107.148 173.046 107.03C173.178 106.911 173.257 106.726 173.257 106.541L172.717 85.3411C172.717 85.1696 172.637 85.0113 172.519 84.8926C172.4 84.7738 172.228 84.7211 172.057 84.7211C169.88 84.8134 168.179 84.3253 167.136 83.3227C166.187 82.4124 166.055 81.3702 166.055 80.8293C166.055 79.9454 166.385 79.1802 167.018 78.5734C168.35 77.3069 171.015 76.7396 174.735 76.9375C175.051 76.9507 175.381 76.6868 175.394 76.3438C175.421 76.0008 175.157 75.6974 174.801 75.6842Z" fill="#2E2E2E"/>
<path d="M197.24 84.8003C196.897 84.8003 196.606 84.5233 196.606 84.1671C196.606 83.8109 196.884 83.5338 197.24 83.5338C198.414 83.5338 199.39 83.2172 199.838 82.6895C200.089 82.3861 200.181 82.0299 200.102 81.5813C199.931 80.5919 197.728 80.0378 196.672 79.9191C196.356 79.8795 196.105 79.6157 196.105 79.299V73.5339C196.105 73.1909 196.382 72.9007 196.738 72.9007C197.081 72.9007 197.372 73.1777 197.372 73.5339V78.7581C198.546 78.9692 201.039 79.6157 201.342 81.3835C201.474 82.2014 201.29 82.927 200.801 83.5074C200.089 84.3386 198.836 84.8003 197.24 84.8003Z" fill="#2E2E2E"/>
<path d="M189.312 77.1223C189.18 77.1223 189.048 77.0828 188.929 76.9904C187.821 76.1461 185.117 75.4337 184.18 75.2358C183.837 75.1566 183.626 74.8268 183.692 74.4838C183.771 74.1408 184.101 73.9297 184.444 73.9957C184.589 74.0221 188.138 74.8004 189.694 75.9878C189.971 76.1989 190.024 76.5946 189.813 76.8717C189.694 77.0432 189.509 77.1223 189.312 77.1223Z" fill="#2E2E2E"/>
<path d="M201.422 74.9323V76.1856C201.422 77.8082 203.941 77.8082 203.941 76.1856V74.9323C203.941 73.3096 201.422 73.3096 201.422 74.9323Z" fill="#2E2E2E"/>
<path d="M186.739 68.8506C185.724 69.0748 184.747 69.3387 183.798 69.7477C183.059 70.0643 183.692 71.1593 184.431 70.8294C185.275 70.4601 186.172 70.249 187.069 70.0511C187.861 69.8928 187.531 68.6791 186.739 68.8506Z" fill="#2E2E2E"/>
<path d="M204.258 68.6263C203.611 68.1909 202.899 67.8743 202.292 67.3994C201.659 66.8981 200.762 67.782 201.395 68.2965C202.094 68.8505 202.886 69.2331 203.611 69.7213C204.297 70.1698 204.931 69.088 204.258 68.6263Z" fill="#2E2E2E"/>
<path d="M189.378 90.4995C188.441 90.3544 187.188 89.9191 187.122 88.7977C187.069 87.993 185.816 87.993 185.869 88.7977C185.974 90.5127 187.478 91.4626 189.048 91.7133C189.826 91.832 190.169 90.6183 189.378 90.4995Z" fill="#2E2E2E"/>
<path d="M187.583 123.494C177.558 123.494 169.893 116.423 169.326 106.608C169.3 106.265 169.577 105.961 169.92 105.948C170.263 105.935 170.566 106.199 170.579 106.542C171.12 115.908 178.204 122.386 187.834 122.241C192.741 122.175 195.683 120.196 197.293 118.534C199.113 116.647 200.182 114.14 200.129 111.832C200.116 111.489 200.393 111.199 200.749 111.185H200.762C201.105 111.185 201.382 111.462 201.395 111.805C201.448 114.483 200.287 117.254 198.203 119.404C196.435 121.238 193.203 123.428 187.86 123.494C187.755 123.494 187.676 123.494 187.583 123.494Z" fill="#2E2E2E"/>
<path d="M209.152 70.2753C209.112 68.3228 209.073 66.278 209.046 64.1672C208.888 54.2332 202.516 49.1937 190.103 49.1937C175.922 49.1937 169.326 54.6026 169.326 66.1988V76.2779C169.326 76.6209 169.603 76.9112 169.959 76.9112C170.25 76.9112 170.487 76.7133 170.566 76.4494C172.4 76.3043 173.191 76.7397 175.236 76.7265C176.014 76.1856 176.041 63.7318 179.352 60.8955C185.209 55.8691 202.727 57.5446 207.345 60.3414C207.622 61.5155 207.767 62.7952 207.793 64.1804C207.833 66.2912 207.872 68.336 207.899 70.2885C208.255 88.758 208.479 99.9189 202.384 103.428C197.161 106.449 187.715 105.869 187.623 105.869C187.399 105.856 187.201 105.948 187.082 106.119C186.95 106.291 186.924 106.515 187.003 106.713C188.612 110.987 196.29 112.65 196.62 112.729C196.659 112.742 196.712 112.742 196.752 112.742C196.897 112.742 197.029 112.689 197.147 112.597C197.293 112.478 197.385 112.293 197.385 112.109V106.542C197.385 106.528 197.385 106.502 197.385 106.489C199.39 106.093 201.382 105.473 203.031 104.523C209.745 100.645 209.521 89.2198 209.152 70.2753Z" fill="#2E2E2E"/>
<path d="M157.414 154.839C156.768 153.269 153.483 150.948 150.291 150.948C147.758 150.948 146.122 151.581 145.08 152.346V152.333C145.027 152.24 143.866 150.103 139.315 148.744C138.194 148.415 137.033 148.309 135.859 148.362L139.922 144.615C140.173 144.378 140.199 143.982 139.962 143.731C139.724 143.481 139.329 143.454 139.078 143.692L133.722 148.639C128.34 149.721 123.38 153.441 123.103 153.652C122.826 153.863 122.773 154.259 122.984 154.536C123.103 154.694 123.301 154.787 123.485 154.787C123.617 154.787 123.749 154.747 123.868 154.655C123.96 154.589 132.627 148.072 138.986 149.945C142.969 151.119 143.985 152.9 143.998 152.9C144.051 153.006 144.13 153.085 144.236 153.151C143.471 154.035 143.299 154.866 143.286 154.945C143.22 155.288 143.444 155.605 143.787 155.671C144.13 155.736 144.46 155.512 144.526 155.182C144.552 155.064 145.212 152.188 150.33 152.188C153.021 152.188 155.844 154.233 156.293 155.301C156.399 155.539 156.623 155.684 156.873 155.684C156.953 155.684 157.032 155.671 157.111 155.631C157.388 155.525 157.546 155.156 157.414 154.839Z" fill="#2E2E2E"/>
<path d="M152.375 178.929C152.125 178.929 151.874 178.771 151.782 178.52C148.18 168.903 152.626 160.05 154.077 157.557C154.882 156.185 156.689 153.837 158.404 153.797C158.892 153.797 159.525 153.942 160.04 154.721C160.528 155.473 159.934 156.607 158.866 158.678C157.903 160.525 156.715 162.834 156.095 165.288C154.802 170.42 155.634 176.119 156.794 177.953C156.979 178.243 156.9 178.639 156.597 178.823C156.306 179.008 155.911 178.929 155.726 178.625C154.275 176.33 153.562 170.169 154.868 164.984C155.528 162.385 156.808 159.905 157.744 158.098C158.298 157.029 158.997 155.684 158.945 155.341C158.773 155.09 158.575 155.05 158.43 155.064C157.533 155.09 156.042 156.713 155.172 158.203C153.787 160.565 149.552 168.995 152.969 178.085C153.088 178.414 152.929 178.771 152.599 178.889C152.52 178.916 152.441 178.929 152.375 178.929Z" fill="#2E2E2E"/>
<path d="M220.695 172.28C220.352 172.28 220.061 172.003 220.061 171.647C220.061 169.984 220.061 166.871 208.374 160.301C201.765 156.594 188.375 156.62 175.447 156.634C170.105 156.647 164.577 156.647 159.485 156.409C159.142 156.396 158.865 156.093 158.892 155.75C158.905 155.407 159.221 155.13 159.551 155.156C164.617 155.394 170.131 155.394 175.46 155.38C189.167 155.367 202.108 155.341 209.007 159.219C220.391 165.618 221.341 168.995 221.341 171.66C221.315 172.003 221.038 172.28 220.695 172.28Z" fill="#2E2E2E"/>
<path d="M220.879 177.425C220.761 177.425 220.642 177.385 220.536 177.319C220.246 177.122 220.167 176.739 220.365 176.449C220.827 175.763 220.919 174.918 220.642 173.929C220.18 172.293 217.938 167.913 206.909 162.729C206.593 162.583 206.461 162.201 206.606 161.884C206.751 161.568 207.134 161.436 207.45 161.581C215.669 165.446 220.787 169.707 221.855 173.573C222.225 174.905 222.067 176.132 221.407 177.122C221.275 177.319 221.077 177.425 220.879 177.425Z" fill="#2E2E2E"/>
<path d="M220.444 178.929C220.365 178.929 220.299 178.916 220.22 178.889C219.89 178.771 219.732 178.401 219.85 178.085C220.523 176.277 218.439 172.689 204.654 165.842C204.337 165.684 204.218 165.314 204.363 164.998C204.522 164.681 204.891 164.562 205.208 164.707C217.278 170.71 222.317 175.09 221.024 178.507C220.945 178.771 220.708 178.929 220.444 178.929Z" fill="#2E2E2E"/>
<path d="M216.262 178.929C216.21 178.929 216.144 178.916 216.078 178.903C215.748 178.81 215.55 178.454 215.655 178.124C216.341 175.776 211.197 174.087 207.055 172.715C205.524 172.214 204.086 171.739 202.899 171.238C202.583 171.106 202.424 170.736 202.569 170.407C202.701 170.09 203.071 169.945 203.4 170.077C204.535 170.552 205.946 171.027 207.45 171.515C212.344 173.124 217.898 174.958 216.869 178.48C216.777 178.757 216.526 178.929 216.262 178.929Z" fill="#2E2E2E"/>
<path d="M283.342 53.5209L212.608 70.8559C212.608 70.8559 210.695 75.2358 211.645 77.2015C212.582 79.1672 212.793 80.7635 212.793 80.7635L287.734 76.8057C287.734 76.8057 295.333 73.5471 295.095 64.1673C294.858 54.7874 291.23 52.6766 290.03 52.0697C288.816 51.4761 286.033 50.7373 283.342 53.5209Z" fill="white"/>
<path d="M290.504 54.5235C289.489 53.9562 288.341 53.7319 287.114 53.7319C283.183 53.7319 280.004 58.4021 280.004 64.1804C280.004 66.2516 280.426 68.1909 281.138 69.8136C284.067 64.6026 287.022 59.3915 290.504 54.5235Z" fill="#000091"/>
<path d="M283.038 72.7423C284.186 73.9297 285.597 74.6289 287.101 74.6289C291.032 74.6289 294.211 69.9587 294.211 64.1804C294.211 60.7635 293.644 58.3889 292.694 56.7662C289.106 61.8321 286.099 67.307 283.038 72.7423Z" fill="#000091"/>
<path d="M287.114 77.4784C282.009 77.4784 277.867 71.5154 277.867 64.1804C277.867 56.8453 282.022 50.8823 287.114 50.8823C293.248 50.8823 296.362 55.3546 296.362 64.1804C296.362 71.5154 292.206 77.4784 287.114 77.4784ZM287.114 52.1488C282.708 52.1488 279.12 57.5445 279.12 64.1804C279.12 70.8162 282.708 76.212 287.114 76.212C291.52 76.212 295.108 70.8162 295.108 64.1804C295.108 56.0802 292.483 52.1488 287.114 52.1488Z" fill="#2E2E2E"/>
<path d="M212.766 80.7766C212.555 80.7766 212.357 80.6711 212.239 80.4864C210.075 77.1487 210.088 73.9825 212.265 71.0933C212.344 70.9746 212.476 70.8954 212.608 70.869L283.025 52.3204C283.368 52.228 283.711 52.4391 283.79 52.7689C283.883 53.0987 283.685 53.4549 283.342 53.5341L213.149 72.03C211.487 74.3519 211.474 76.8057 213.109 79.5101L249.254 77.9138C249.584 77.9007 249.901 78.1645 249.914 78.5207C249.927 78.8637 249.663 79.1671 249.307 79.1803L212.793 80.7634C212.793 80.7766 212.779 80.7766 212.766 80.7766Z" fill="#2E2E2E"/>
<path d="M212.595 78.5471L211.078 75.8426L212.476 73.1381C212.595 72.9139 212.568 72.6632 212.41 72.4653C212.265 72.2674 212.014 72.1883 211.777 72.241L205.906 73.5867C205.695 73.6394 205.524 73.7846 205.458 73.9824C205.405 74.1144 204.323 77.1618 205.511 79.1671C205.629 79.365 205.827 79.4705 206.052 79.4705H212.041C212.265 79.4705 212.476 79.3518 212.581 79.1539C212.7 78.9824 212.7 78.7318 212.595 78.5471Z" fill="#2E2E2E"/>
<path d="M263.224 78.5339C262.894 78.5339 262.604 78.2701 262.591 77.927C262.578 77.584 262.842 77.2806 263.198 77.2674L287.075 76.212C287.391 76.1988 287.721 76.4627 287.734 76.8189C287.748 77.1619 287.484 77.4653 287.128 77.4785L263.251 78.5339C263.251 78.5339 263.237 78.5339 263.224 78.5339Z" fill="#2E2E2E"/>
<path d="M244.097 137.834C248.529 135.908 251.906 135.38 253.107 131.396C254.32 127.412 256.655 121.885 258.95 118.956C258.95 118.956 258.621 115.117 260.903 114.708C260.903 114.708 263.383 109.47 261.444 100.79C259.518 92.109 257.196 89.8003 253.146 85.5523C249.096 81.3043 248.318 77.0695 249.479 74.3651C250.64 71.6606 254.439 64.7741 256.391 64.9324C258.344 65.0907 260.085 67.03 258.739 69.154C257.394 71.278 255.283 72.1619 256.813 74.0353C258.344 75.9086 261.18 76.1065 263.291 78.2173C268.33 78.402 273.171 78.0326 273.171 78.0326C273.171 78.0326 283.223 93.0721 284.951 104.259C286.693 115.447 286.772 119.695 286.772 119.695C286.772 119.695 289.027 121.159 288.619 122.782C288.21 124.404 287.075 124.708 287.075 124.708C287.075 124.708 285.532 140.908 281.482 145.921C277.432 150.934 268.871 163.006 259.847 165.262C250.824 167.517 243.872 167.333 243.107 167.333C242.342 167.333 244.097 137.834 244.097 137.834Z" fill="white"/>
<path d="M240.324 139.14C235.628 139.14 230.325 136.462 222.304 128.098C211.54 116.871 205.287 112.452 196.567 109.919C196.237 109.827 196.039 109.47 196.145 109.141C196.237 108.811 196.58 108.613 196.923 108.718C205.894 111.331 212.278 115.829 223.227 127.228C234.572 139.061 239.968 138.626 244.519 137.161C251.286 134.985 253.093 131.436 253.12 131.396C253.278 131.08 253.647 130.948 253.964 131.106C254.281 131.251 254.413 131.634 254.254 131.937C254.175 132.096 252.249 135.987 244.915 138.349C243.398 138.837 241.894 139.14 240.324 139.14Z" fill="#2E2E2E"/>
<path d="M287.115 120.882C287.101 120.882 287.101 120.882 287.115 120.882C286.759 120.869 286.481 120.592 286.481 120.236C286.772 106.067 282.564 92.9798 272.815 77.7952C272.63 77.505 272.709 77.1092 273 76.9245C273.29 76.7398 273.686 76.8189 273.87 77.1092C283.751 92.518 288.038 105.829 287.735 120.249C287.735 120.605 287.458 120.882 287.115 120.882Z" fill="#2E2E2E"/>
<path d="M244.44 168.705C230.892 168.705 217.871 162.874 205.63 151.317C205.379 151.079 205.366 150.684 205.603 150.433C205.841 150.182 206.236 150.169 206.487 150.407C220.497 163.626 235.509 169.206 251.101 166.976C271.232 163.203 286.455 144.919 286.481 124.444C286.481 124.101 286.772 123.824 287.115 123.811C287.458 123.811 287.748 124.088 287.748 124.444C287.708 145.512 272.05 164.338 251.312 168.217C249.004 168.546 246.708 168.705 244.44 168.705Z" fill="#2E2E2E"/>
<path d="M254.637 139.153C254.334 139.153 254.056 138.929 254.017 138.613L253.872 137.729C253.12 133.124 251.722 124.549 258.924 117.386C259.175 117.135 259.571 117.135 259.808 117.386C260.059 117.636 260.059 118.032 259.808 118.27C253.067 124.972 254.399 133.138 255.112 137.518L255.257 138.401C255.31 138.744 255.072 139.061 254.729 139.114C254.703 139.153 254.676 139.153 254.637 139.153Z" fill="#2E2E2E"/>
<path d="M215.682 159.364C215.59 159.285 215.497 159.206 215.379 159.101C210.26 154.642 208.664 144.905 208.664 144.905C208.664 144.905 208.413 144.721 206.989 147.808C205.564 150.895 206.989 152.003 206.989 152.003C206.989 152.003 213.281 157.386 215.642 159.391L215.682 159.364Z" fill="#2E2E2E"/>
<path d="M261.721 114.932C261.681 114.932 261.628 114.932 261.589 114.919C261.246 114.853 261.035 114.51 261.101 114.167C262.116 109.352 260.718 94.0747 257.262 90.4731L257.117 90.328C252.645 85.6711 247.065 79.8664 248.569 74.7477C249.769 70.658 253.581 65.8823 256.404 64.9324C257.605 64.5235 258.41 64.8401 258.871 65.1831C260.481 66.3704 259.847 69.0221 256.972 73.0986C256.774 73.3756 256.721 73.7186 256.827 74.0353C256.932 74.3519 257.17 74.6025 257.499 74.7081C261.219 75.9746 267.908 78.8373 270.929 83.8373C271.113 84.1407 271.021 84.5233 270.717 84.708C270.427 84.8927 270.031 84.8004 269.847 84.4969C267.024 79.84 260.639 77.1223 257.077 75.9086C256.378 75.6711 255.837 75.1302 255.613 74.431C255.389 73.7318 255.507 72.9799 255.93 72.3862C258.159 69.2332 258.99 66.8717 258.106 66.2253C257.776 65.9878 257.341 65.9614 256.787 66.1461C254.333 66.9773 250.851 71.4231 249.756 75.1302C248.463 79.5365 253.977 85.2885 258.001 89.4837L258.146 89.6288C262.182 93.8372 263.304 109.747 262.301 114.457C262.275 114.734 262.011 114.932 261.721 114.932Z" fill="#2E2E2E"/>
<path d="M277.748 127.082C274.042 127.082 270.031 126.436 266.628 125.117C261.918 123.283 259.188 120.486 258.739 117.016C258.528 115.433 259.346 113.863 260.547 113.507C260.903 113.402 262.156 113.204 263.027 115.051C264.267 117.676 266.522 119.536 269.728 120.578C276.548 122.795 285.03 120.671 286.798 119.708C286.996 119.589 287.246 119.602 287.444 119.734C287.616 119.853 289.159 120.882 289.252 122.346C289.291 122.874 289.133 123.652 288.223 124.417C286.138 126.172 282.141 127.082 277.748 127.082ZM261.021 114.695C260.982 114.695 260.942 114.695 260.903 114.708C260.428 114.84 259.847 115.75 259.992 116.845C260.481 120.605 264.121 122.782 267.09 123.929C274.028 126.634 283.909 126.396 287.431 123.441C287.84 123.098 288.025 122.755 288.012 122.412C287.972 121.858 287.444 121.304 287.049 120.987C284.252 122.254 275.822 123.863 269.359 121.779C265.797 120.631 263.29 118.547 261.905 115.592C261.76 115.301 261.43 114.695 261.021 114.695Z" fill="#2E2E2E"/>
<path d="M259.08 178.4H107.638C107.297 178.4 107.022 178.124 107.009 177.782L104.505 47.3716C104.492 47.03 104.767 46.7411 105.121 46.7279L256.55 42.9711C256.72 42.9843 256.878 43.0368 256.996 43.1419C257.114 43.2601 257.179 43.4177 257.192 43.5885L257.494 59.7585C257.494 60.1 257.232 60.389 256.878 60.4021C256.55 60.4153 256.249 60.1263 256.235 59.7848L255.947 44.2453L105.777 47.9627L108.254 177.139H258.438L258.32 164.804C258.32 164.463 258.595 164.174 258.936 164.174C259.277 164.174 259.565 164.45 259.565 164.791L259.683 177.756C259.683 177.927 259.618 178.084 259.5 178.203C259.408 178.334 259.251 178.4 259.08 178.4Z" fill="#2E2E2E"/>
</svg>
