<svg xmlns="http://www.w3.org/2000/svg" width="384" height="242" fill="none">
    <rect width="384" height="242" fill="#F0F8FF" rx="12"/>
    <path fill="#DBF0FF" d="M287.291 197.152c-1.992-8.414-3.998-16.828-6.088-25.227-2.786-11.214-6.226-22.01-9.444-33.098 0 0-17.9 36.859-34.951 46.596-19.265 11.004-51.917 7.411-64.426-.989 1.407 7.898-4.555 18.053-9.918 19.209 1.337 4.165 2.006 9.779 3.12 14 .154.39.279.794.432 1.184l125.649-2.675zM144.397 71.197l25.004 13.206-2.828 40.912-57.893 3.287-2.939-41.65z"/>
    <path fill="#2E2E2E" d="M219.619 21.286a113 113 0 0 1-4.597 6.338c-.488.627.39 1.518.878.878a106 106 0 0 0 4.792-6.59c.459-.668-.627-1.295-1.073-.626M114.545 125.552a.636.636 0 0 1-.627-.585l-2.939-41.65a.65.65 0 0 1 .39-.628l38.656-15.768a.64.64 0 0 1 .529.027l25.004 13.234a.62.62 0 0 1 .335.599l-2.828 40.912a.65.65 0 0 1-.585.585l-57.907 3.288c-.014-.014-.028-.014-.028-.014m-2.285-41.86 2.856 40.578 56.737-3.218 2.758-39.95-24.391-12.9z"/>
    <path fill="#000091" d="m175.266 80.725-23.361 23.04-5.878-5.126-5.419 4.527-29.002-19.892z"/>
    <path fill="#2E2E2E" d="M151.905 104.392a.64.64 0 0 1-.404-.153l-5.474-4.778-5.015 4.179a.63.63 0 0 1-.752.042L111.244 83.79a.63.63 0 0 1-.251-.683.594.594 0 0 1 .571-.446l63.66-2.549c.279-.028.501.14.599.376a.62.62 0 0 1-.139.697l-23.333 23.026a.67.67 0 0 1-.446.181m-5.878-6.366a.6.6 0 0 1 .404.153l5.446 4.737 21.801-21.494-60.178 2.41 27.066 18.554 5.057-4.22a.65.65 0 0 1 .404-.14"/>
    <path fill="#2E2E2E" d="M114.531 125.552a.64.64 0 0 1-.585-.39.63.63 0 0 1 .181-.711l31.496-26.272a.614.614 0 0 1 .808.014l26.411 22.999a.61.61 0 0 1 .181.668.63.63 0 0 1-.557.418l-57.907 3.288c0-.014-.014-.014-.028-.014m31.496-26.091-29.643 24.726 54.494-3.093z"/>
    <path fill="#2E2E2E" d="M153.786 110.73c-.892-1.017-1.672-2.117-2.535-3.162-.516-.627-1.393.265-.878.878.864 1.045 1.644 2.145 2.535 3.162.516.613 1.407-.279.878-.878"/>
    <path fill="#fff" d="m106.424 94.056 38.753-1.24V63.884l-39.115-.46"/>
    <path fill="#2E2E2E" d="M106.424 94.669a.63.63 0 0 1-.627-.599.62.62 0 0 1 .599-.64l38.154-1.227V64.511l-38.502-.46a.61.61 0 0 1-.613-.627c0-.348.25-.655.626-.613l39.116.46c.348 0 .613.278.613.627v28.918a.63.63 0 0 1-.599.627l-38.753 1.226z"/>
    <path fill="#2E2E2E" d="M115.576 71.462h-5.294a.624.624 0 0 1-.626-.627c0-.348.278-.627.626-.627h5.294c.348 0 .627.279.627.627a.625.625 0 0 1-.627.627m21.173 0h-14.668a.625.625 0 0 1-.627-.627c0-.348.279-.627.627-.627h14.682c.348 0 .627.279.627.627a.646.646 0 0 1-.641.627m-23.82 15.42h-2.647a.624.624 0 0 1-.626-.627c0-.348.278-.626.626-.626h2.647c.348 0 .627.278.627.626a.625.625 0 0 1-.627.627m12.69 0h-9.082a.625.625 0 0 1-.627-.627c0-.348.279-.626.627-.626h9.082c.348 0 .627.278.627.626a.625.625 0 0 1-.627.627m7.522-8.232h-3.733a.625.625 0 0 1-.627-.627c0-.349.279-.627.627-.627h3.733c.349 0 .627.278.627.627a.624.624 0 0 1-.627.627m.962 9.848h-4.695a.625.625 0 0 1-.627-.627c0-.348.279-.627.627-.627h4.695c.348 0 .626.279.626.627a.624.624 0 0 1-.626.627"/>
    <path fill="#2E2E2E" d="M131.901 88.498a.634.634 0 0 1-.626-.585l-.627-9.194a.625.625 0 0 1 .585-.668c.348 0 .641.236.668.585l.627 9.193a.625.625 0 0 1-.585.669zm-3.51 132.488a.64.64 0 0 1-.613-.487l-16.785-75.557a.62.62 0 0 1 .111-.515.67.67 0 0 1 .46-.251l33.571-1.908a.61.61 0 0 1 .641.446l1.365 4.805a.61.61 0 0 1-.432.767.61.61 0 0 1-.766-.432l-1.226-4.319-32.345 1.839 16.521 74.344 37.109-1.309-4.611-16.201a.61.61 0 0 1 .432-.766.61.61 0 0 1 .766.432l4.82 16.967a.64.64 0 0 1-.097.543.61.61 0 0 1-.488.251L128.391 221c.014-.014.014-.014 0-.014"/>
    <path fill="#2E2E2E" d="M120.298 162.383a.62.62 0 0 1-.585-.418l-4.137-12.273a.63.63 0 0 1 .097-.585.61.61 0 0 1 .544-.236l7.132.487a.63.63 0 0 1 .557.446l3.343 10.949a.6.6 0 0 1-.07.515.64.64 0 0 1-.445.279l-6.338.836zm-3.246-12.203 3.678 10.893 5.098-.668-3.009-9.835zm6.464 21.717a.61.61 0 0 1-.585-.418l-1.379-3.984a.625.625 0 0 1 .432-.808l5.363-1.365a.66.66 0 0 1 .487.07.6.6 0 0 1 .279.404l1.072 5.056a.59.59 0 0 1-.111.502.67.67 0 0 1-.46.25l-5.056.307c-.014-.014-.028-.014-.042-.014m-.571-4.179 1.003 2.897 3.858-.237-.794-3.705zm30.548 43.754c-.947 0-2.465-.084-4.889-.32a.64.64 0 0 1-.516-.39l-5.237-13.192a.632.632 0 0 1 .487-.85l6.31-.919a.64.64 0 0 1 .683.404c5.098 13.902 5.098 14.334 5.098 14.473 0 .181-.097.39-.222.501-.126.126-.321.293-1.714.293m-4.388-1.518c1.895.181 3.984.306 4.931.278-.599-1.825-2.981-8.4-4.708-13.122l-5.029.738zm95.629-159.025c13.095 2.549 15.393 19.112 15.393 19.112s17.12 5.098 13.791 19.585c-2.717 11.813-16.02 13.387-24.225 13.192-3.593-.084-6.407-3.092-6.212-6.686l.849-15.254s8.163-.752 6.603-4.485-9.611-6.352-9.611-6.352zm-22.176 0c-.404.014-.822.07-1.226.097-4.931.377-8.428 4.876-9.681 7.76-.85 1.95-.752 4.095-1.449 6.017-.46 1.268.098 1.017-1.407 1.254-1.24.195-2.41.585-3.566 1.072-8.442 3.594-14.501 12.51-10.573 21.592 3.817 8.831 13.512 11.2 22.511 11.019-.195-.28-.404-.836-.655-1.087-2.117-2.09-1.281-11.743-2.396-15.281-.236-.752-1.239-1.212-1.629-1.282-1.644-.306-2.94-2.354-.418-3.037 2.925-.793 2.34-3.26 2.451-7.187.084-3.274-.292-9.375.349-12.593.78-3.873 4.192-6.687 7.689-8.344m1.254 34.017c-.404.85-1.184 1.908-2.257 1.657-.78-.18-1.142 1.004-.362 1.199 1.657.39 2.995-.767 3.677-2.187.349-.71-.71-1.393-1.058-.67"/>
    <path fill="#2E2E2E" d="M214.116 83.483c-1.713 0-3.176-.53-3.928-1.42a2.33 2.33 0 0 1-.529-1.965c.362-2.173 4.067-2.647 4.485-2.688a.61.61 0 0 1 .683.557.607.607 0 0 1-.557.683c-1.031.11-3.232.668-3.399 1.643a1.17 1.17 0 0 0 .25.961c.502.6 1.672.975 2.981.975.349 0 .627.28.627.627a.604.604 0 0 1-.613.627m6.631-12.23v1.24c0 1.601-2.493 1.615-2.493 0v-1.24c0-1.602 2.493-1.616 2.493 0m-2.382-7.341c.738.209 1.435.557 2.187.71.78.167.682 1.407-.112 1.24-.863-.181-1.657-.543-2.493-.78-.766-.21-.348-1.393.418-1.17"/>
    <path fill="#2E2E2E" d="M230.944 110.953a.6.6 0 0 1-.571-.39.624.624 0 0 1 .334-.822c2.493-1.045 3.385-4.067 3.677-5.558-2.549.474-9.904 1.519-14.542-1.156-5.21-3.009-6.241-9.417-6.339-20.185a.621.621 0 0 1 1.24-.013c.098 11.882 1.546 16.702 5.711 19.111 5.127 2.968 14.432.85 14.529.836a.59.59 0 0 1 .544.14c.153.125.237.32.209.529-.014.237-.53 5.767-4.569 7.452a.4.4 0 0 1-.223.056"/>
    <path fill="#2E2E2E" d="m228.311 104.169 2.633 6.157c2.66-1.142 3.872-4.207 4.179-6.923a34 34 0 0 1-6.812.766M214.214 78.65a.625.625 0 0 1-.627-.627c.014-2.898.07-5.6.139-8.637.042-1.936.084-4.012.126-6.352.153-9.849 6.477-14.835 18.777-14.835 14.056 0 20.603 5.349 20.603 16.855v9.988a.625.625 0 0 1-.627.626.625.625 0 0 1-.627-.626v-9.988c0-10.796-5.962-15.602-19.349-15.602-11.645 0-17.384 4.458-17.524 13.61-.042 2.354-.083 4.416-.125 6.352-.07 3.037-.125 5.725-.139 8.609a.625.625 0 0 1-.627.627"/>
    <path fill="#2E2E2E" d="m251.198 75.153 1.393-.111v-9.988c0-9.988-4.987-16.229-19.975-16.229-7.481 0-11.994 1.825-14.641 4.514 5.642 8.79 13.972 15.28 23.444 19.488 3.511-.53 7.355-.084 9.779 2.326"/>
    <path fill="#2E2E2E" d="M244.498 98.374a.62.62 0 0 1-.627-.613l-.153-16.869c0-.167.069-.334.195-.46a.6.6 0 0 1 .459-.18c2.159.097 3.845-.39 4.876-1.394a3.4 3.4 0 0 0 1.072-2.465c0-.878-.32-1.63-.961-2.243-1.323-1.254-3.956-1.81-7.647-1.616-.335 0-.641-.25-.655-.585a.623.623 0 0 1 .585-.655c4.095-.209 6.979.446 8.567 1.965a4.26 4.26 0 0 1 1.351 3.148c0 1.267-.515 2.465-1.463 3.37-.835.795-2.382 1.714-5.14 1.742l.154 16.228c.013.335-.265.613-.613.627m-11.089 18.736a.64.64 0 0 1-.585-.39l-4.931-12.314a.622.622 0 0 1 1.156-.46l4.931 12.314a.62.62 0 0 1-.571.85"/>
    <path fill="#2E2E2E" d="M232.532 111.092a8.6 8.6 0 0 1-1.7-.153.62.62 0 0 1-.501-.724.62.62 0 0 1 .724-.502c7.662 1.366 17.245-8.692 17.343-8.803a.62.62 0 0 1 .878-.028c.25.237.264.627.027.877-.39.418-8.887 9.333-16.771 9.333m-40.439 73.021c-.878 0-1.783-.027-2.716-.097-13.289-.933-23.528-6.422-31.747-10.838-4.276-2.298-7.982-4.276-11.158-5.07-8.037-2.02-11.575 1.63-12.481 2.8-.961 1.267-1.1 2.368-.891 2.744.181.32.348.501.501.515.432.056 1.212-.752 1.797-1.351.474-.473.947-.961 1.449-1.309 2.619-1.825 6.798.39 7.578 1.17.25.237-.293.07-.46.376a.633.633 0 0 1-.85.223c-.042-.028-3.58-2.09-5.544-.724-.404.278-.85.724-1.281 1.17-.934.947-1.825 1.838-2.842 1.699-.557-.07-1.045-.46-1.421-1.142-.543-.975-.153-2.633.989-4.109 1.017-1.324 4.987-5.447 13.763-3.246 3.329.836 7.09 2.855 11.436 5.182 8.122 4.346 18.221 9.765 31.245 10.684 20.826 1.477 29.574-14.807 34.881-29.141.571-1.547 1.142-3.135 1.727-4.737 5.517-15.183 11.771-32.387 21.606-33.028a.635.635 0 0 1 .668.585.625.625 0 0 1-.585.669c-9.012.585-15.128 17.385-20.519 32.206-.585 1.602-1.156 3.19-1.741 4.736-5.21 14.098-13.721 30.033-33.404 30.033"/>
    <path fill="#2E2E2E" d="M129.896 185.2a.61.61 0 0 1-.585-.432c-.766-2.284.167-4.861 2.619-7.285 3.231-3.204 9.263-5.948 12.745-4.75a.634.634 0 0 1 .391.794.635.635 0 0 1-.794.39c-2.703-.934-8.163 1.198-11.465 4.457-1.212 1.198-3.12 3.566-2.312 6.004a.634.634 0 0 1-.39.794 1 1 0 0 1-.209.028"/>
    <path fill="#2E2E2E" d="M132.403 189.797c-.125 0-2.006-.028-2.911-1.31-.571-.808-.613-1.894-.126-3.204 1.449-3.956 7.899-7.396 11.618-9.096.32-.139.683 0 .822.307.139.32 0 .682-.307.822-6.017 2.758-10.015 5.808-10.963 8.385-.334.906-.334 1.602-.013 2.062.445.641 1.518.78 1.894.794.348 0 .627.279.627.627a.644.644 0 0 1-.641.613"/>
    <path fill="#2E2E2E" d="M194.656 211.528h-.125c-19.892-.042-35.703-9.682-41.902-15.365l-.696-.641c-3.483-3.204-8.706-8.038-10.67-7.926-1.073.056-2.619 1.504-3.859 2.661-1.17 1.1-2.187 2.047-3.079 2.228-.947.376-1.908.251-2.479-.334-.46-.474-.85-1.435-.028-3.246 1.337-2.939 5.586-6.435 10.587-8.72a.63.63 0 0 1 .822.307c.139.32 0 .682-.307.821-5.446 2.494-8.985 5.949-9.974 8.108-.473 1.044-.432 1.643-.223 1.852s.697.223 1.171.028c.041-.014.097-.028.139-.041.543-.084 1.588-1.073 2.507-1.923 1.533-1.435 3.107-2.911 4.639-2.995 2.271-.125 6.422 3.497 11.59 8.247l.682.627c6.074 5.572 21.55 15.002 41.052 15.044h.125c28.167 0 51.694-20.491 61.418-53.491a.61.61 0 0 1 .78-.418.623.623 0 0 1 .418.78c-9.863 33.557-33.85 54.397-62.588 54.397m-4.917-49.87c-2.856 0-5.767-.654-8.734-1.992a952 952 0 0 1-6.923-3.148c-11.924-5.474-19.795-9.082-27.47-8.191-6.422.752-13.443 3.162-14.432 6.311a.61.61 0 0 1-.78.404.61.61 0 0 1-.404-.781c1.379-4.387 10.378-6.574 15.476-7.173 8.024-.948 16.02 2.73 28.139 8.288 2.159.989 4.458 2.048 6.909 3.148 14.975 6.714 25.701-5.976 32.053-17.816 1.63-3.037 3.037-6.325 4.402-9.515 3.329-7.773 6.464-15.114 12.607-19.348a.62.62 0 0 1 .863.153.624.624 0 0 1-.153.864c-5.85 4.025-8.915 11.213-12.175 18.805-1.379 3.218-2.8 6.533-4.457 9.612-7.216 13.498-15.713 20.379-24.921 20.379"/>
    <path fill="#2E2E2E" d="M132.306 160.335c-.363 0-1.059-.07-1.63-.557-.321-.279-.711-.794-.766-1.686-.112-2.256 3.663-5.934 10.907-8.316a.63.63 0 0 1 .39 1.198c-7.244 2.382-10.127 5.781-10.058 7.062.014.377.126.627.321.794.348.293.905.251.919.251a.615.615 0 0 1 .683.557.607.607 0 0 1-.557.683c0 .014-.084.014-.209.014"/>
    <path fill="#2E2E2E" d="M133.754 162.787c-.557 0-1.128-.098-1.574-.404-.432-.293-.668-.753-.696-1.31-.126-2.27 4.137-6.881 11.339-9.249a.63.63 0 0 1 .39 1.198c-7.077 2.326-10.559 6.658-10.49 7.996.014.222.084.306.168.362.445.32 1.643.153 2.354-.056a.623.623 0 0 1 .78.418.623.623 0 0 1-.418.78c-.125.028-.961.265-1.853.265"/>
    <path fill="#2E2E2E" d="M145.818 167.397a.67.67 0 0 1-.488-.222.62.62 0 0 1 .084-.878c1.086-.892 3.761-3.594 3.092-5.391-.209-.557-.46-.655-.543-.683-.655-.236-1.95.53-3.079 1.198-.543.321-1.086.655-1.602.892-.473.223-1.184.669-1.95 1.142-2.8 1.741-4.875 2.926-6.129 2.424-.292-.111-.683-.39-.836-.989-.724-2.8 1.672-4.806 9.751-9.807a.62.62 0 0 1 .864.209.62.62 0 0 1-.209.864c-8.33 5.168-9.654 6.7-9.208 8.428.028.111.07.125.098.139.78.32 3.538-1.407 5.015-2.326.821-.516 1.532-.948 2.061-1.212.488-.237.989-.544 1.505-.85 1.434-.85 2.911-1.741 4.137-1.31q.878.314 1.295 1.421c1.087 2.94-3.009 6.408-3.482 6.798a.48.48 0 0 1-.376.153m25.812 12.454a.7.7 0 0 1-.362-.112c-14.515-10.196-17.399-11.422-20.408-10.545a.61.61 0 0 1-.766-.431.61.61 0 0 1 .432-.767c3.51-1.016 6.408.14 21.466 10.727a.62.62 0 0 1 .153.863.65.65 0 0 1-.515.265"/>
    <path fill="#2E2E2E" d="M171.017 156.685c-.251-.919-.571-2.312-1.212-3.273a25 25 0 0 1-1.727-.446c-.084.251-.028.529.264.696.906.516 1.31 2.647 1.547 3.622.64 2.563.724 5.294.181 7.885-.683 3.315-2.563 7.591-6.157 8.483-.014 0-.014.014-.028.014q.396.543.836 1.045c3.928-1.282 5.976-5.976 6.644-9.751.488-2.745.404-5.586-.348-8.275"/>
    <path fill="#2E2E2E" d="M172.814 155.557c2.465 6.366 1.685 18.429-6.45 20.226a11 11 0 0 1 1.588.794c7.188-2.758 8.539-13.373 6.422-20.24a8.2 8.2 0 0 1-1.56-.78m-2.159 23.904a.6.6 0 0 0-.07.473c1.95 7.174.474 19.293-7.146 23.041.46.236.919.445 1.393.654 7.369-4.485 8.999-16.2 7.021-23.82a30 30 0 0 1-1.198-.348"/>
    <path fill="#2E2E2E" d="M175.015 180.868c.752 5.795 1.49 11.784-1.268 17.203-1.393 2.731-3.343 5.015-5.474 7.16.39.195.766.39 1.128.613 2.368-2.41 4.499-5.001 5.906-8.135 2.327-5.196 1.714-10.907 1.003-16.382-.418-.167-.863-.32-1.295-.459m50.022-36.149c-.041-.794-1.281-.807-1.253 0 .125 2.745.78 5.433.738 8.191-.014.808 1.24.808 1.254 0 .028-2.744-.613-5.432-.739-8.191m26.83 26.537a.61.61 0 0 0-.599-.585.65.65 0 0 0-.655.557c-.223 1.644-10.684 19.558-17.552 23.932a.61.61 0 0 0-.292.529v6.896c0 .195.097.39.25.501a.6.6 0 0 0 .362.125c.07 0 .126-.014.196-.027.208-.084 19.181-6.45 18.29-31.928m35.033 25.798a.61.61 0 0 1-.599-.473c-.083-.348-8.859-34.574-14.877-57.141-5.976-22.358-19.056-31.969-19.181-32.067a.67.67 0 0 1-.237-.32l-1.658-5.516a.624.624 0 0 1 .418-.781.623.623 0 0 1 .78.418l1.602 5.322c1.602 1.239 13.777 11.269 19.488 32.624 6.032 22.566 14.794 56.806 14.891 57.154a.634.634 0 0 1-.446.766c-.069 0-.125.014-.181.014m-172.355-16.2H92.619a.62.62 0 0 1-.571-.39.65.65 0 0 1 .125-.683l12.37-12.495-.195-2.953a.626.626 0 0 1 .585-.669.644.644 0 0 1 .669.585l.209 3.232a.6.6 0 0 1-.181.474l-11.52 11.631h20.435c.348 0 .627.279.627.627-.014.362-.293.641-.627.641"/>
    <path fill="#2E2E2E" d="M107.232 164.932a.8.8 0 0 1-.181-.028l-4.096-1.226a.63.63 0 0 1-.446-.571L98.414 40.509a.615.615 0 0 1 .432-.613l6.714-2.103a.66.66 0 0 1 .557.084.7.7 0 0 1 .265.501l1.463 125.927c0 .195-.084.39-.251.502a.55.55 0 0 1-.362.125m-3.483-2.313 2.842.85-1.435-124.241-5.46 1.713z"/>
</svg>
