<svg xmlns="http://www.w3.org/2000/svg" width="310" height="231" fill="none">
    <path fill="#E0E0E0" d="M309.355 215.436H160.728v-70.179l148.627-12.781z"/>
    <path fill="#CCC" d="M50.405 49.671 1.547 75.214l37.472 84.102 38.614-13.226z"/>
    <path fill="#E0E0E0" d="m207.863 21.825 3.292 8.443 5.325-1.782-2.324-6.662zm19.481-10.458-4.706-4.24c-.852-.775-2.13.483-1.258 1.258l4.705 4.241c.852.775 2.111-.484 1.259-1.259"/>
    <path fill="#CCC" d="M76.994 49.71c-1.743 2.808-3.486 5.635-5.229 8.443-.6.988.95 1.879 1.55.91 1.742-2.808 3.485-5.635 5.228-8.443.6-.987-.949-1.898-1.55-.91Zm5.054 9.586c-1.414.62-2.827 1.258-4.24 1.878-1.047.465-.136 2.014.91 1.55 1.413-.62 2.827-1.26 4.24-1.88 1.046-.464.136-2.013-.91-1.548"/>
    <path fill="#fff" d="M202.963 193.36c-2.478-4.163-4.938-8.327-7.416-12.49-.581-.988-2.131-.097-1.55.91 2.479 4.163 4.938 8.327 7.417 12.49.581.988 2.13.078 1.549-.91"/>
    <path fill="#777" d="m300.292 114.099-3.273 3.273c-.813.813.446 2.072 1.259 1.258l3.273-3.272c.832-.814-.446-2.092-1.259-1.259"/>
    <path fill="#2E2E2E" d="M51.8 167.915 28.155 64.408a.89.89 0 0 0-.562-.639.9.9 0 0 0-.852.136L1.005 83.54a.9.9 0 0 0-.329.949l11.038 40.395a.91.91 0 0 0 .988.659.9.9 0 0 0 .774-.891c0-1.181.794-1.704 1.569-1.704.736 0 1.491.445 2.072 1.239.542.755 1.2 2.227 1.2 4.822 0 .465.35.852.814.891a.905.905 0 0 0 .949-.736c.31-1.84 1.104-2.827 1.704-2.827.542 0 1.685.987 2.207 4.628.698 4.803.446 10.786.194 17.119-.194 4.609-.368 9.372-.194 13.846a.89.89 0 0 0 .678.832l26.046 6.236c.078.019.136.019.213.019a.9.9 0 0 0 .62-.251.93.93 0 0 0 .252-.852Z"/>
    <path fill="#2E2E2E" d="M47.636 162.783a.92.92 0 0 1-.852-.6.92.92 0 0 1 .562-1.143l37.8-12.955-26.704-94.54L26.645 70.16a.88.88 0 0 1-1.201-.388.875.875 0 0 1 .387-1.2l32.766-17.119a.903.903 0 0 1 1.278.562l27.227 96.399a.88.88 0 0 1-.561 1.084l-38.614 13.246c-.097.019-.194.039-.29.039Z"/>
    <path fill="#2E2E2E" d="M24.883 70.257a.89.89 0 0 1-.717-.35.917.917 0 0 1 .174-1.258l26.046-19.694a.88.88 0 0 1 .814-.136c.27.097.503.31.58.581l1.492 4.88a.91.91 0 0 1-.6 1.123.91.91 0 0 1-1.124-.6l-1.123-3.66-25.02 18.92a.73.73 0 0 1-.523.194Zm14.969 24.787c-.039 0-.097 0-.136-.02a.9.9 0 0 1-.755-1.026l2.692-17.855a.9.9 0 1 1 1.782.271L40.742 94.27c-.078.446-.465.775-.891.775Zm7.784 18.978a.915.915 0 0 1-.852-.601c-.174-.465.077-.968.542-1.142l17.06-6.062c.466-.174.97.078 1.143.543.175.464-.077.968-.542 1.142l-17.06 6.061a.8.8 0 0 1-.291.059m8.521 25.406a.87.87 0 0 1-.833-.58.91.91 0 0 1 .504-1.162l8.52-3.292a.9.9 0 0 1 1.162.522.91.91 0 0 1-.503 1.162l-8.52 3.292a.9.9 0 0 1-.33.058"/>
    <path fill="#2E2E2E" d="M67.911 143.224a1.1 1.1 0 0 1-.426-.097.895.895 0 0 1-.368-1.22l5.732-10.767-10.34-2.111a.904.904 0 0 1-.698-1.065.885.885 0 0 1 1.046-.697l11.522 2.343a.93.93 0 0 1 .64.504.88.88 0 0 1-.02.794l-6.294 11.832a.92.92 0 0 1-.794.484m76.86-90.551c-.581 1.22-1.685 2.75-3.234 2.382-1.123-.271-1.646 1.452-.523 1.704 2.382.562 4.299-1.085 5.268-3.137.484-1.007-1.027-1.975-1.511-.95Zm-13.904-2.111c-2.44 0-4.551-.755-5.635-2.033-.678-.794-.949-1.782-.775-2.828.523-3.117 5.829-3.776 6.429-3.853.485-.058.93.31.988.794s-.31.93-.794.987c-1.491.155-4.628.95-4.861 2.363-.096.523.039.988.368 1.375.717.852 2.402 1.394 4.261 1.394.503 0 .89.407.89.891a.854.854 0 0 1-.871.91m9.354-17.777.271 1.762c.348 2.285-3.176 2.828-3.544.542l-.271-1.762c-.349-2.265 3.195-2.827 3.544-.542m-5.81-10.264c1.046.31 2.053.794 3.137 1.027 1.123.232.969 2.014-.155 1.781-1.239-.251-2.382-.774-3.582-1.123-1.104-.31-.504-1.994.6-1.684Z"/>
    <path fill="#2E2E2E" d="M154.977 89.95a.93.93 0 0 1-.833-.542.87.87 0 0 1 .484-1.162c3.563-1.49 4.842-5.828 5.268-7.959-3.66.678-14.214 2.189-20.837-1.646-7.456-4.299-8.947-13.497-9.082-28.931 0-.484.387-.89.89-.91.543.02.891.387.911.89.135 17.042 2.207 23.955 8.191 27.402 7.339 4.241 20.701 1.22 20.817 1.2a1 1 0 0 1 .794.194.93.93 0 0 1 .31.756c-.019.329-.755 8.268-6.545 10.67-.136.02-.252.038-.368.038"/>
    <path fill="#2E2E2E" d="m151.2 80.23 3.776 8.83c3.815-1.646 5.558-6.042 6.004-9.934a49 49 0 0 1-9.78 1.103Zm-20.197-36.581a.89.89 0 0 1-.891-.891c.019-4.144.097-8.017.193-12.374.059-2.77.117-5.752.175-9.102C130.712 7.165 139.756.02 157.397.02c20.934 0 33.947 9.838 33.947 25.678a.89.89 0 0 1-.891.891.89.89 0 0 1-.89-.89c0-14.738-12.317-23.897-32.146-23.897-16.693 0-24.923 6.371-25.117 19.5-.058 3.37-.116 6.333-.174 9.121-.097 4.358-.174 8.211-.194 12.355-.039.465-.426.872-.929.872Z"/>
    <path fill="#2E2E2E" d="M190.628 31.565a13.6 13.6 0 0 1-2.053-1.317c-10.903-3.195-22.793-6.758-34.838-10.844.155.658.31 1.336.484 2.052 1.646 6.74 4.784 15.376 15.783 13.827 4.473-.678 9.315-.232 12.781 2.305 1.278 4.996-2.498 9.663-8.095 8.617-.639-.116-1.549.232-1.355.93 1.142 3.97 8.462 22.211 13.884 13.38 3.157-5.15 3.506-19.306 3.409-27.904z"/>
    <path fill="#2E2E2E" d="M174.923 47.754c-.252 0-.504 0-.775-.02a.9.9 0 0 1-.852-.929.89.89 0 0 1 .93-.852c3.117.136 5.519-.561 6.99-1.994 1.337-1.298 1.55-2.77 1.55-3.544 0-1.259-.465-2.343-1.375-3.215-1.879-1.8-5.674-2.595-10.961-2.324-.465.04-.91-.348-.949-.852a.89.89 0 0 1 .852-.93c5.868-.309 10.012.64 12.297 2.809 1.588 1.51 1.937 3.292 1.937 4.512 0 1.82-.736 3.544-2.092 4.841-1.22 1.162-3.505 2.498-7.552 2.498m-4.551 51.705a.8.8 0 0 1-.465-.136l-15.395-9.488a1 1 0 0 1-.368-.427l-3.544-8.83c-.174-.465.039-.988.504-1.162.464-.174.987.039 1.161.504l3.428 8.559 14.543 8.966 17.409-17.448-5.228-17.99c-.136-.484.503.174.987.039a.884.884 0 0 1 1.104.62l4.996 17.35c.097.31 0 .659-.232.872l-18.281 18.32a.9.9 0 0 1-.619.25Zm-31.565-56.372a7.3 7.3 0 0 1-3.447-.871c-2.827-1.51-4.435-4.59-4.435-8.482 0-.504.407-.89.891-.89a.9.9 0 0 1 .891.89c0 3.195 1.278 5.713 3.486 6.894 1.781.949 3.911.852 5.538-.232 2.072-1.395 3.002-4.048 2.653-7.475-.058-.484.31-.93.794-.988.465-.058.929.31.988.794.406 4.067-.833 7.398-3.447 9.14a6.8 6.8 0 0 1-3.912 1.22"/>
    <path fill="#2E2E2E" d="M145.294 36.406a.89.89 0 0 1-.891-.813.905.905 0 0 1 .814-.968l30.887-2.673a.893.893 0 0 1 .968.814.904.904 0 0 1-.813.968l-30.888 2.672zM157.397 0c-13.497 0-22.018 4.183-25.31 12.452a.92.92 0 0 0 .019.678.98.98 0 0 0 .485.484c7.145 2.827 14.407 5.441 21.63 7.862 12.491 4.221 24.807 7.881 35.981 11.135.077.02.174.039.251.039.059 0 .136 0 .194-.02a.74.74 0 0 0 .329-.155.89.89 0 0 0 .349-.716v-6.062C191.344 9.837 178.331 0 157.397 0m32.146 30.539c-11.154-3.273-23.412-6.933-35.806-11.135-6.545-2.227-13.129-4.59-19.636-7.146a15.6 15.6 0 0 1 2.963-4.318c4.067-4.144 10.786-6.178 20.333-6.178 19.83 0 32.146 9.16 32.146 23.897z"/>
    <path fill="#2E2E2E" d="M132.92 13.672c-.097 0-.194-.02-.291-.039l-22.928-7.727a.9.9 0 0 1-.562-1.142.9.9 0 0 1 1.143-.562l22.928 7.727a.9.9 0 0 1 .562 1.142.9.9 0 0 1-.852.6Zm89.079 76.278a.9.9 0 0 1-.601-.232l-1.336-1.239c-5.112-4.706-11.503-10.593-16.634-12.549-5.229-1.994-10.961-2.904-16.984-2.691-.484 0-.91-.368-.929-.872a.893.893 0 0 1 .871-.93c6.294-.212 12.239.717 17.7 2.809s11.987 8.075 17.215 12.897l1.337 1.22c.368.329.387.89.058 1.258a.94.94 0 0 1-.697.33Zm-85.342 13.169a.8.8 0 0 1-.368-.078c-.446-.213-.659-.735-.446-1.181 3.06-6.797 7.882-12.103 16.596-18.338a.876.876 0 0 1 1.24.212.9.9 0 0 1-.213 1.26c-8.444 6.041-13.091 11.134-16.015 17.621a.86.86 0 0 1-.794.504"/>
    <path fill="#2E2E2E" d="M226.453 87.627c-12.239-3.699-10.283.445-9.973 8.54.31 8.075 4.125 42.874 6.158 48.258 2.014 5.383 8.656 8.21 8.985 2.013.33-6.196-1.588-22.502-2.382-38.613-.794-16.093.039-19.327-2.788-20.198m-102.461 22.947c-8.946 6.255-5.887 7.127-6.39 23.316-.484 16.189 1.084 37.568 3.853 38.556s5.074 7.475 6.701-27.014c1.626-34.49 2.478-39.486-4.164-34.858m109.916 83.967a.9.9 0 0 1-.89-.89c0-.485.387-.891.89-.891.175 0 4.319-.078 7.146-4.164 3.195-4.609-1.685-33.25-3.776-45.488a.9.9 0 0 1 .736-1.027.897.897 0 0 1 1.026.736c5.093 29.939 6.081 43.068 3.486 46.806-3.389 4.86-8.405 4.918-8.618 4.918m-54.783-84.528a.89.89 0 0 1-.697-.329l-7.979-9.625-6.177 9.547a.89.89 0 0 1-.717.407c-.29.039-.561-.116-.736-.329l-12.316-15.55a.86.86 0 0 1-.155-.833l2.518-7.688a.915.915 0 0 1 1.123-.581.916.916 0 0 1 .581 1.123l-2.363 7.223 11.251 14.195 6.158-9.528a.91.91 0 0 1 .698-.406c.29-.02.561.096.735.329l8.037 9.702 17.293-23.2-8.075-3.427c-.465-.194-.659-.717-.484-1.181a.93.93 0 0 1 1.181-.485l9.14 3.873c.252.117.446.33.523.6a.86.86 0 0 1-.155.775l-18.648 25.039a.96.96 0 0 1-.698.368c-.019-.019-.019-.019-.038-.019"/>
    <path fill="#2E2E2E" d="M174.497 133.348h-5.655a.89.89 0 0 1-.891-.891v-31.546c0-.503.407-.89.891-.89.503 0 .891.406.891.89v30.636h3.853v-28.021c0-.504.407-.891.891-.891a.9.9 0 0 1 .891.891v28.912a.866.866 0 0 1-.871.91m-53.041 94.308h-.039c-.504-.02-.872-.426-.872-.93l1.937-55.868c.019-.484.445-.872.929-.872.504.02.872.426.872.93l-1.937 55.868c0 .504-.406.872-.89.872m107.282-36.542c.116-2.053 1.297-47.696 1.297-47.696-.116-1.492-.193-3.002-.174-4.512-.155-.039-.31-.059-.465-.097a.86.86 0 0 0-.716.174.83.83 0 0 0-.329.678l-1.433 54.822c-.02.484.368.91.871.91.484.059.91-.368.91-.871l.078-3.215c-.02-.019-.039-.096-.039-.193"/>
    <path fill="#2E2E2E" d="M241.229 230.638c-4.687 0-7.63-1.53-11.406-3.505-2.208-1.162-4.706-2.46-8.076-3.68-2.052-.736-3.911-1.394-5.596-1.994-8.772-3.099-12.394-4.396-12.975-6.546-.213-.813.039-1.665.775-2.517 3.35-3.912 16.363 1.123 18.939 2.188a.88.88 0 0 1 .484 1.162.88.88 0 0 1-1.162.484c-5.499-2.246-14.95-4.957-16.886-2.672-.329.387-.465.678-.407.891.329 1.239 5.151 2.962 11.832 5.325 1.685.6 3.563 1.259 5.616 1.995 3.486 1.258 6.042 2.594 8.308 3.776 7.087 3.698 10.999 5.732 31.816-2.208 30.113-11.503 42.913-36.329 37.065-71.767-6.352-38.13-68.707-63.227-101.86-66.577a.895.895 0 0 1-.794-.987.894.894 0 0 1 .988-.794c31.662 3.195 96.631 27.149 103.39 68.068 6.022 36.406-7.185 61.891-38.188 73.742-10.767 4.105-17.196 5.616-21.863 5.616"/>
    <path fill="#2E2E2E" d="M206.662 212.318a.84.84 0 0 1-.368-.077c-.135-.058-3.214-1.491-3.447-4.357-.077-.852.349-1.666 1.162-2.285 2.479-1.879 9.276-2.343 20.876 1.975a.889.889 0 1 1-.62 1.665c-11.696-4.357-17.564-3.447-19.171-2.227-.175.136-.484.426-.465.717.155 1.82 2.382 2.866 2.401 2.885a.91.91 0 0 1 .446 1.182.91.91 0 0 1-.814.522"/>
    <path fill="#2E2E2E" d="M206.662 205.986a.84.84 0 0 1-.368-.077c-.135-.059-3.214-1.492-3.447-4.358-.077-.852.349-1.665 1.162-2.285 2.305-1.743 8.289-2.285 18.378 1.085-1.917-2.711-5.519-6.991-9.102-6.681-3.06.213-5.035-.581-5.287-2.15-.271-1.684 1.646-3.331 4.88-4.183 6.352-1.665 12.743 1.627 17.139 8.85a.927.927 0 0 1-.291 1.24.887.887 0 0 1-1.22-.31c-3.95-6.507-9.605-9.508-15.143-8.037-2.692.717-3.641 1.821-3.583 2.15.039.232.91.852 3.389.658 6.313-.484 11.968 9.334 12.2 9.76a.88.88 0 0 1-.097 1.027.875.875 0 0 1-.988.251c-11.696-4.357-17.564-3.447-19.171-2.227-.174.136-.484.407-.465.717.155 1.801 2.382 2.866 2.402 2.885a.91.91 0 0 1 .445 1.182.96.96 0 0 1-.833.503"/>
    <path fill="#2E2E2E" d="M229.416 138.828a1 1 0 0 0-.581.078c.484.6.949 1.239 1.375 1.878 22.037 4.357 33.076 14.64 32.843 30.539-.232 16.015-18.881 23.528-24.148 24.206-2.343.31-3.331-.988-5.5-4.222-1.065-1.588-2.846-4.163-4.686-6.274-.562-.213-.639.271-1.22.116a83 83 0 0 1-.077 2.169c-.02.252-.155.407-.349.465l-.174 6.681c-.02.484.368.91.871.91.484.058.91-.368.91-.871l.175-6.449c1.258 1.569 2.246 3.021 3.059 4.241 1.937 2.885 3.389 5.054 6.333 5.054.29 0 .581-.019.89-.058 5.597-.736 25.446-8.772 25.698-25.968.252-17.119-11.658-28.08-35.419-32.495"/>
    <path fill="#2E2E2E" d="M252.596 149.537a.91.91 0 0 1-.891-.755c-1.665-9.954.678-20.295 6.274-27.654 3.931-5.17 9.179-8.327 14.815-8.908a.894.894 0 0 1 .987.794c.058.484-.31.93-.794.988-5.209.542-9.895 3.389-13.575 8.211-5.306 6.971-7.533 16.789-5.945 26.259a.895.895 0 0 1-.736 1.026c-.038.039-.096.039-.135.039M65.452 188.189c-7.204 0-17.1-3.834-23.742-21.785-.174-.465.058-.988.523-1.143a.88.88 0 0 1 1.143.523c5.035 13.594 12.839 20.721 22.289 20.605 14.02-.175 30.074-16.267 37.374-37.452 11.174-32.495 30.403-46.612 47.735-56.16a.916.916 0 0 1 1.22.35.915.915 0 0 1-.348 1.22c-17.022 9.372-35.923 23.237-46.903 55.17-7.533 21.864-24.303 38.498-39.04 38.672z"/>
    <path fill="#2E2E2E" d="M72.075 227.597a59 59 0 0 1-9.547-.794c-28.544-4.686-46.534-25.465-53.486-61.774-2.344-12.219-5.132-45.082.27-50.62a.906.906 0 0 1 1.26-.02c.348.349.367.91.019 1.259-4.164 4.26-2.847 33.153.213 49.032 6.797 35.477 24.303 55.791 52.014 60.342 37.22 6.119 58.638-26.356 58.851-26.685a.9.9 0 0 1 1.239-.271.9.9 0 0 1 .271 1.239c-.194.329-18.648 28.292-51.104 28.292"/>
    <path fill="#2E2E2E" d="M12.585 146.903c-.465 0-.871-.368-.89-.833 0-.096-.562-9.76 0-21.475.019-.485.464-.891.929-.852a.9.9 0 0 1 .852.929c-.562 11.619 0 21.185 0 21.282a.917.917 0 0 1-.833.949zm4.338 4.454c-.058 0-.116 0-.174-.019a.914.914 0 0 1-.717-1.046c.02-.077 1.375-7.223 2.266-21.34.039-.484.446-.891.949-.833.484.039.871.465.833.949-.891 14.253-2.285 21.495-2.305 21.573-.058.406-.445.716-.852.716m13.71 8.385c-.968-.639-1.859.91-.91 1.549 4.009 2.615 6.488 6.836 6.817 11.619.077 1.143 1.859 1.143 1.781 0-.348-5.441-3.117-10.186-7.688-13.168m91.791 34.799a.9.9 0 0 1-.891-.774c-2.053-14.912-11.677-24.459-26.395-26.201a.89.89 0 0 1-.774-.988c.058-.484.503-.852.987-.775 15.589 1.84 25.795 11.949 27.964 27.731a.88.88 0 0 1-.756 1.007z"/>
    <path fill="#2E2E2E" d="M123.063 180.676c-4.473 13.652-15.589 33.618-15.589 33.618l14.95-15.454z"/>
</svg>
