<svg width="384" height="242" viewBox="0 0 384 242" fill="none" xmlns="http://www.w3.org/2000/svg">
<rect y="-0.000488281" width="384" height="242" rx="12" fill="#F0F8FF"/>
<path d="M287.291 197.152C285.299 188.738 283.293 180.324 281.203 171.925C278.417 160.711 274.977 149.915 271.759 138.827C271.759 138.827 253.859 175.686 236.808 185.423C217.543 196.427 184.891 192.834 172.382 184.434C173.789 192.332 167.827 202.487 162.464 203.643C163.801 207.808 164.47 213.422 165.584 217.643C165.738 218.033 165.863 218.437 166.016 218.827L291.665 216.152L287.291 197.152Z" fill="#DBF0FF"/>
<path d="M144.397 71.197L169.401 84.4026L166.573 125.315L108.68 128.602L105.741 86.9518L144.397 71.197Z" fill="#DBF0FF"/>
<path d="M219.619 21.2859C218.156 23.445 216.638 25.5624 215.022 27.624C214.534 28.2508 215.412 29.1424 215.9 28.5016C217.585 26.3703 219.173 24.1694 220.692 21.9127C221.151 21.2441 220.065 20.6172 219.619 21.2859Z" fill="#2E2E2E"/>
<path d="M114.545 125.552C114.225 125.552 113.946 125.301 113.918 124.967L110.979 83.3161C110.965 83.0514 111.118 82.8007 111.369 82.6893L150.025 66.9205C150.192 66.8509 150.387 66.8648 150.554 66.9484L175.558 80.1819C175.781 80.2933 175.907 80.5301 175.893 80.7808L173.065 121.693C173.037 122 172.786 122.25 172.48 122.278L114.573 125.566C114.559 125.552 114.545 125.552 114.545 125.552ZM112.26 83.6922L115.116 124.27L171.853 121.052L174.611 81.1012L150.22 68.2021L112.26 83.6922Z" fill="#2E2E2E"/>
<path d="M175.266 80.7251L151.905 103.765L146.027 98.6391L140.608 103.166L111.606 83.2743L175.266 80.7251Z" fill="#000091"/>
<path d="M151.905 104.392C151.766 104.392 151.613 104.336 151.501 104.239L146.027 99.4609L141.012 103.64C140.803 103.821 140.483 103.835 140.26 103.682L111.244 83.7897C111.021 83.6365 110.923 83.3579 110.993 83.1071C111.063 82.8425 111.299 82.6614 111.564 82.6614L175.224 80.1122C175.503 80.0843 175.725 80.2515 175.823 80.4883C175.921 80.7251 175.879 81.0037 175.684 81.1848L152.351 104.211C152.226 104.323 152.072 104.392 151.905 104.392ZM146.027 98.0261C146.18 98.0261 146.319 98.0819 146.431 98.1794L151.877 102.916L173.678 81.4216L113.5 83.8315L140.566 102.386L145.623 98.1654C145.748 98.0679 145.887 98.0261 146.027 98.0261Z" fill="#2E2E2E"/>
<path d="M114.531 125.552C114.28 125.552 114.043 125.399 113.946 125.162C113.848 124.911 113.918 124.632 114.127 124.451L145.623 98.1794C145.86 97.9844 146.208 97.9844 146.431 98.1933L172.842 121.192C173.037 121.359 173.107 121.624 173.023 121.86C172.939 122.097 172.717 122.264 172.466 122.278L114.559 125.566C114.559 125.552 114.545 125.552 114.531 125.552ZM146.027 99.461L116.384 124.187L170.878 121.094L146.027 99.461Z" fill="#2E2E2E"/>
<path d="M153.786 110.73C152.894 109.713 152.114 108.613 151.251 107.568C150.735 106.941 149.858 107.833 150.373 108.446C151.237 109.491 152.017 110.591 152.908 111.608C153.424 112.221 154.315 111.329 153.786 110.73Z" fill="#2E2E2E"/>
<path d="M106.424 94.0561L145.177 92.8163V63.8837L106.062 63.424" fill="white"/>
<path d="M106.424 94.669C106.089 94.669 105.811 94.4043 105.797 94.07C105.783 93.7218 106.061 93.4432 106.396 93.4292L144.55 92.2034V64.5106L106.048 64.0509C105.699 64.0509 105.421 63.7584 105.435 63.4241C105.435 63.0758 105.685 62.7694 106.061 62.8111L145.177 63.2708C145.525 63.2708 145.79 63.5494 145.79 63.8977V92.8163C145.79 93.1506 145.525 93.4292 145.191 93.4432L106.438 94.669H106.424Z" fill="#2E2E2E"/>
<path d="M115.576 71.4617H110.282C109.934 71.4617 109.656 71.1831 109.656 70.8348C109.656 70.4866 109.934 70.208 110.282 70.208H115.576C115.924 70.208 116.203 70.4866 116.203 70.8348C116.203 71.1831 115.924 71.4617 115.576 71.4617Z" fill="#2E2E2E"/>
<path d="M136.749 71.4617H122.081C121.733 71.4617 121.454 71.1831 121.454 70.8348C121.454 70.4866 121.733 70.208 122.081 70.208H136.763C137.111 70.208 137.39 70.4866 137.39 70.8348C137.376 71.1831 137.097 71.4617 136.749 71.4617Z" fill="#2E2E2E"/>
<path d="M112.929 86.8822H110.282C109.934 86.8822 109.656 86.6036 109.656 86.2553C109.656 85.9071 109.934 85.6285 110.282 85.6285H112.929C113.277 85.6285 113.556 85.9071 113.556 86.2553C113.556 86.6036 113.277 86.8822 112.929 86.8822Z" fill="#2E2E2E"/>
<path d="M125.619 86.8822H116.537C116.189 86.8822 115.91 86.6036 115.91 86.2553C115.91 85.9071 116.189 85.6285 116.537 85.6285H125.619C125.967 85.6285 126.246 85.9071 126.246 86.2553C126.246 86.6036 125.967 86.8822 125.619 86.8822Z" fill="#2E2E2E"/>
<path d="M133.141 78.6495H129.408C129.06 78.6495 128.781 78.3709 128.781 78.0227C128.781 77.6744 129.06 77.3958 129.408 77.3958H133.141C133.49 77.3958 133.768 77.6744 133.768 78.0227C133.768 78.3709 133.49 78.6495 133.141 78.6495Z" fill="#2E2E2E"/>
<path d="M134.103 88.4981H129.408C129.06 88.4981 128.781 88.2195 128.781 87.8712C128.781 87.523 129.06 87.2444 129.408 87.2444H134.103C134.451 87.2444 134.729 87.523 134.729 87.8712C134.729 88.2195 134.451 88.4981 134.103 88.4981Z" fill="#2E2E2E"/>
<path d="M131.901 88.498C131.581 88.498 131.302 88.2473 131.275 87.913L130.648 78.7192C130.62 78.3709 130.885 78.0784 131.233 78.0505C131.581 78.0505 131.874 78.2873 131.901 78.6356L132.528 87.8294C132.556 88.1776 132.292 88.4702 131.943 88.498C131.929 88.498 131.915 88.498 131.901 88.498Z" fill="#2E2E2E"/>
<path d="M128.391 220.986C128.099 220.986 127.848 220.777 127.778 220.499L110.993 144.942C110.951 144.761 110.993 144.58 111.104 144.427C111.216 144.288 111.383 144.19 111.564 144.176L145.135 142.268C145.442 142.24 145.692 142.435 145.776 142.714L147.141 147.519C147.239 147.854 147.043 148.202 146.709 148.286C146.375 148.383 146.027 148.188 145.943 147.854L144.717 143.535L112.372 145.374L128.893 219.718L166.002 218.409L161.391 202.208C161.294 201.874 161.489 201.526 161.823 201.442C162.158 201.345 162.506 201.54 162.589 201.874L167.409 218.841C167.465 219.022 167.423 219.217 167.312 219.384C167.2 219.537 167.019 219.635 166.824 219.635L128.391 221C128.405 220.986 128.405 220.986 128.391 220.986Z" fill="#2E2E2E"/>
<path d="M120.298 162.383C120.033 162.383 119.797 162.215 119.713 161.965L115.576 149.692C115.506 149.497 115.548 149.275 115.673 149.107C115.799 148.94 115.994 148.857 116.217 148.871L123.349 149.358C123.613 149.372 123.822 149.553 123.906 149.804L127.249 160.753C127.305 160.934 127.277 161.115 127.179 161.268C127.082 161.421 126.915 161.519 126.734 161.547L120.396 162.383C120.354 162.383 120.326 162.383 120.298 162.383ZM117.052 150.18L120.73 161.073L125.828 160.405L122.819 150.57L117.052 150.18Z" fill="#2E2E2E"/>
<path d="M123.516 171.897C123.251 171.897 123.014 171.73 122.931 171.479L121.552 167.495C121.496 167.328 121.51 167.147 121.594 166.994C121.677 166.84 121.816 166.729 121.984 166.687L127.347 165.322C127.514 165.28 127.681 165.308 127.834 165.392C127.973 165.475 128.085 165.628 128.113 165.796L129.185 170.852C129.227 171.033 129.185 171.214 129.074 171.354C128.962 171.493 128.795 171.59 128.614 171.604L123.558 171.911C123.544 171.897 123.53 171.897 123.516 171.897ZM122.945 167.718L123.948 170.615L127.806 170.378L127.012 166.673L122.945 167.718Z" fill="#2E2E2E"/>
<path d="M153.493 211.472C152.546 211.472 151.028 211.388 148.604 211.152C148.367 211.124 148.172 210.97 148.088 210.762L142.851 197.57C142.781 197.389 142.795 197.194 142.892 197.027C142.99 196.859 143.157 196.748 143.338 196.72L149.648 195.801C149.941 195.759 150.22 195.926 150.331 196.205C155.429 210.107 155.429 210.539 155.429 210.678C155.429 210.859 155.332 211.068 155.207 211.179C155.081 211.305 154.886 211.472 153.493 211.472ZM149.105 209.954C151 210.135 153.089 210.26 154.036 210.232C153.437 208.407 151.055 201.832 149.328 197.11L144.299 197.848L149.105 209.954Z" fill="#2E2E2E"/>
<path d="M244.734 50.9288C257.829 53.478 260.127 70.0408 260.127 70.0408C260.127 70.0408 277.247 75.1391 273.918 89.6263C271.201 101.439 257.898 103.013 249.693 102.818C246.1 102.734 243.286 99.7256 243.481 96.1316L244.33 80.8783C244.33 80.8783 252.493 80.1261 250.933 76.3928C249.373 72.6596 241.322 70.0408 241.322 70.0408L244.734 50.9288Z" fill="#2E2E2E"/>
<path d="M222.558 50.9288C222.154 50.9428 221.736 50.9985 221.332 51.0263C216.401 51.4025 212.904 55.9018 211.651 58.7853C210.801 60.7355 210.899 62.8808 210.202 64.8031C209.742 66.0707 210.3 65.82 208.795 66.0568C207.555 66.2518 206.385 66.6419 205.229 67.1294C196.787 70.7233 190.728 79.6385 194.656 88.7209C198.473 97.5525 208.168 99.9206 217.167 99.7395C216.972 99.4609 216.763 98.9037 216.512 98.653C214.395 96.5635 215.231 86.91 214.116 83.3718C213.88 82.6195 212.877 82.1599 212.487 82.0902C210.843 81.7837 209.547 79.736 212.069 79.0535C214.994 78.2595 214.409 75.7938 214.52 71.8656C214.604 68.592 214.228 62.4907 214.869 59.2729C215.649 55.4004 219.061 52.5865 222.558 50.9288Z" fill="#2E2E2E"/>
<path d="M223.812 84.9459C223.408 85.7956 222.628 86.8543 221.555 86.6035C220.775 86.4224 220.413 87.6065 221.193 87.8015C222.85 88.1916 224.188 87.0354 224.87 85.6145C225.219 84.9041 224.16 84.2215 223.812 84.9459Z" fill="#2E2E2E"/>
<path d="M214.116 83.4832C212.403 83.4832 210.94 82.9539 210.188 82.0624C209.714 81.5052 209.533 80.8226 209.659 80.0982C210.021 77.9251 213.726 77.4515 214.144 77.4097C214.492 77.3679 214.799 77.6187 214.827 77.9669C214.869 78.3152 214.618 78.6216 214.27 78.6495C213.239 78.7609 211.038 79.3181 210.871 80.2932C210.815 80.6694 210.898 80.9758 211.121 81.2544C211.623 81.8534 212.793 82.2295 214.102 82.2295C214.451 82.2295 214.729 82.5081 214.729 82.8564C214.743 83.2046 214.465 83.4832 214.116 83.4832Z" fill="#2E2E2E"/>
<path d="M220.747 71.2527V72.4924C220.747 74.0944 218.254 74.1083 218.254 72.4924V71.2527C218.254 69.6507 220.747 69.6368 220.747 71.2527Z" fill="#2E2E2E"/>
<path d="M218.365 63.9116C219.103 64.1205 219.8 64.4688 220.552 64.622C221.332 64.7892 221.234 66.0289 220.44 65.8618C219.577 65.6807 218.783 65.3185 217.947 65.0817C217.181 64.8728 217.599 63.6887 218.365 63.9116Z" fill="#2E2E2E"/>
<path d="M230.944 110.953C230.693 110.953 230.47 110.814 230.373 110.563C230.233 110.243 230.387 109.881 230.707 109.741C233.2 108.696 234.092 105.674 234.384 104.183C231.835 104.657 224.48 105.702 219.842 103.027C214.632 100.018 213.601 93.6103 213.503 82.8424C213.503 82.4942 213.782 82.2156 214.116 82.2156C214.465 82.2156 214.743 82.4942 214.743 82.8285C214.841 94.7108 216.289 99.5306 220.454 101.94C225.581 104.908 234.886 102.79 234.983 102.776C235.178 102.734 235.387 102.776 235.527 102.916C235.68 103.041 235.764 103.236 235.736 103.445C235.722 103.682 235.206 109.212 231.167 110.897C231.097 110.939 231.027 110.953 230.944 110.953Z" fill="#2E2E2E"/>
<path d="M228.311 104.169L230.944 110.326C233.604 109.184 234.816 106.119 235.123 103.403C232.88 103.891 230.596 104.141 228.311 104.169Z" fill="#2E2E2E"/>
<path d="M214.214 78.6495C213.866 78.6495 213.587 78.3709 213.587 78.0227C213.601 75.1252 213.657 72.4228 213.726 69.3861C213.768 67.4498 213.81 65.3743 213.852 63.034C214.005 53.1855 220.329 48.1986 232.629 48.1986C246.685 48.1986 253.232 53.5477 253.232 65.0539V75.0417C253.232 75.3899 252.953 75.6685 252.605 75.6685C252.257 75.6685 251.978 75.3899 251.978 75.0417V65.0539C251.978 54.2581 246.016 49.4523 232.629 49.4523C220.984 49.4523 215.245 53.9099 215.105 63.0619C215.063 65.416 215.022 67.4777 214.98 69.4139C214.91 72.4507 214.855 75.1392 214.841 78.0227C214.841 78.3709 214.562 78.6495 214.214 78.6495Z" fill="#2E2E2E"/>
<path d="M251.198 75.1531L252.591 75.0416C252.591 75.0416 252.591 75.0416 252.591 65.0538C252.591 55.066 247.604 48.8254 232.616 48.8254C225.135 48.8254 220.622 50.6502 217.975 53.3387C223.617 62.1285 231.947 68.6199 241.419 72.8268C244.93 72.2974 248.774 72.7432 251.198 75.1531Z" fill="#2E2E2E"/>
<path d="M244.498 98.3743C244.149 98.3743 243.871 98.0957 243.871 97.7614L243.718 80.8922C243.718 80.725 243.787 80.5579 243.913 80.4325C244.038 80.3071 244.205 80.2375 244.372 80.2514C246.531 80.3489 248.217 79.8614 249.248 78.8584C250.181 77.9669 250.32 76.9222 250.32 76.3928C250.32 75.5152 250 74.763 249.359 74.1501C248.036 72.8964 245.403 72.3392 241.712 72.5342C241.377 72.5342 241.071 72.2835 241.057 71.9492C241.043 71.6009 241.308 71.3084 241.642 71.2944C245.737 71.0855 248.621 71.7402 250.209 73.2586C251.323 74.3172 251.56 75.557 251.56 76.4068C251.56 77.6744 251.045 78.8724 250.097 79.7778C249.262 80.5718 247.715 81.4912 244.957 81.519L245.111 97.7475C245.124 98.0818 244.846 98.3604 244.498 98.3743Z" fill="#2E2E2E"/>
<path d="M233.409 117.11C233.159 117.11 232.922 116.957 232.824 116.72L227.893 104.406C227.768 104.086 227.921 103.723 228.241 103.598C228.562 103.473 228.924 103.626 229.049 103.946L233.98 116.26C234.106 116.581 233.953 116.943 233.632 117.068C233.563 117.096 233.479 117.11 233.409 117.11Z" fill="#2E2E2E"/>
<path d="M232.532 111.092C231.961 111.092 231.389 111.051 230.832 110.939C230.498 110.883 230.261 110.549 230.331 110.215C230.387 109.881 230.721 109.644 231.055 109.713C238.717 111.079 248.3 101.021 248.398 100.91C248.635 100.659 249.025 100.645 249.276 100.882C249.526 101.119 249.54 101.509 249.303 101.759C248.913 102.177 240.416 111.092 232.532 111.092Z" fill="#2E2E2E"/>
<path d="M192.093 184.113C191.215 184.113 190.31 184.086 189.377 184.016C176.088 183.083 165.849 177.594 157.63 173.178C153.354 170.88 149.648 168.902 146.472 168.108C138.435 166.088 134.897 169.738 133.991 170.908C133.03 172.175 132.891 173.276 133.1 173.652C133.281 173.972 133.448 174.153 133.601 174.167C134.033 174.223 134.813 173.415 135.398 172.816C135.872 172.343 136.345 171.855 136.847 171.507C139.466 169.682 143.645 171.897 144.425 172.677C144.675 172.914 144.132 172.747 143.965 173.053C143.784 173.346 143.408 173.443 143.115 173.276C143.073 173.248 139.535 171.186 137.571 172.552C137.167 172.83 136.721 173.276 136.29 173.722C135.356 174.669 134.465 175.56 133.448 175.421C132.891 175.351 132.403 174.961 132.027 174.279C131.484 173.304 131.874 171.646 133.016 170.17C134.033 168.846 138.003 164.723 146.779 166.924C150.108 167.76 153.869 169.779 158.215 172.106C166.337 176.452 176.436 181.871 189.46 182.79C210.286 184.267 219.034 167.983 224.341 153.649C224.912 152.102 225.483 150.514 226.068 148.912C231.585 133.729 237.839 116.525 247.674 115.884C248.022 115.87 248.314 116.121 248.342 116.469C248.37 116.818 248.106 117.11 247.757 117.138C238.745 117.723 232.629 134.523 227.238 149.344C226.653 150.946 226.082 152.534 225.497 154.08C220.287 168.178 211.776 184.113 192.093 184.113Z" fill="#2E2E2E"/>
<path d="M129.896 185.2C129.631 185.2 129.394 185.033 129.311 184.768C128.545 182.484 129.478 179.907 131.93 177.483C135.161 174.279 141.193 171.535 144.675 172.733C144.996 172.844 145.177 173.206 145.066 173.527C144.954 173.847 144.592 174.028 144.272 173.917C141.569 172.983 136.109 175.115 132.807 178.374C131.595 179.572 129.687 181.94 130.495 184.378C130.606 184.698 130.425 185.061 130.105 185.172C130.035 185.186 129.965 185.2 129.896 185.2Z" fill="#2E2E2E"/>
<path d="M132.403 189.797C132.278 189.797 130.397 189.769 129.492 188.487C128.921 187.679 128.879 186.593 129.366 185.283C130.815 181.327 137.265 177.887 140.984 176.187C141.304 176.048 141.667 176.187 141.806 176.494C141.945 176.814 141.806 177.176 141.499 177.316C135.482 180.074 131.484 183.124 130.536 185.701C130.202 186.607 130.202 187.303 130.523 187.763C130.968 188.404 132.041 188.543 132.417 188.557C132.765 188.557 133.044 188.836 133.044 189.184C133.03 189.518 132.751 189.797 132.403 189.797Z" fill="#2E2E2E"/>
<path d="M194.656 211.528C194.614 211.528 194.573 211.528 194.531 211.528C174.639 211.486 158.828 201.846 152.629 196.163L151.933 195.522C148.45 192.318 143.227 187.484 141.263 187.596C140.19 187.652 138.644 189.1 137.404 190.257C136.234 191.357 135.217 192.304 134.325 192.485C133.378 192.861 132.417 192.736 131.846 192.151C131.386 191.677 130.996 190.716 131.818 188.905C133.155 185.966 137.404 182.47 142.405 180.185C142.711 180.046 143.087 180.185 143.227 180.492C143.366 180.812 143.227 181.174 142.92 181.313C137.474 183.807 133.935 187.262 132.946 189.421C132.473 190.465 132.514 191.064 132.723 191.273C132.932 191.482 133.42 191.496 133.894 191.301C133.935 191.287 133.991 191.273 134.033 191.26C134.576 191.176 135.621 190.187 136.54 189.337C138.073 187.902 139.647 186.426 141.179 186.342C143.45 186.217 147.601 189.839 152.769 194.589L153.451 195.216C159.525 200.788 175.001 210.218 194.503 210.26C194.545 210.26 194.586 210.26 194.628 210.26C222.795 210.26 246.322 189.769 256.046 156.769C256.143 156.435 256.491 156.24 256.826 156.351C257.16 156.448 257.341 156.797 257.244 157.131C247.381 190.688 223.394 211.528 194.656 211.528Z" fill="#2E2E2E"/>
<path d="M189.739 161.658C186.883 161.658 183.972 161.004 181.005 159.666C178.553 158.566 176.241 157.507 174.082 156.518C162.158 151.044 154.287 147.436 146.612 148.327C140.19 149.079 133.169 151.489 132.18 154.638C132.083 154.972 131.721 155.153 131.4 155.042C131.066 154.944 130.885 154.582 130.996 154.261C132.375 149.874 141.374 147.687 146.472 147.088C154.496 146.14 162.492 149.818 174.611 155.376C176.77 156.365 179.069 157.424 181.52 158.524C196.495 165.238 207.221 152.548 213.573 140.708C215.203 137.671 216.61 134.383 217.975 131.193C221.304 123.42 224.439 116.079 230.582 111.845C230.86 111.65 231.25 111.719 231.445 111.998C231.64 112.276 231.571 112.667 231.292 112.862C225.442 116.887 222.377 124.075 219.117 131.667C217.738 134.885 216.317 138.2 214.66 141.279C207.444 154.777 198.947 161.658 189.739 161.658Z" fill="#2E2E2E"/>
<path d="M132.306 160.335C131.943 160.335 131.247 160.265 130.676 159.778C130.355 159.499 129.965 158.984 129.91 158.092C129.798 155.836 133.573 152.158 140.817 149.776C141.151 149.665 141.499 149.846 141.611 150.18C141.722 150.5 141.541 150.863 141.207 150.974C133.963 153.356 131.08 156.755 131.149 158.036C131.163 158.413 131.275 158.663 131.47 158.83C131.818 159.123 132.375 159.081 132.389 159.081C132.723 159.039 133.044 159.29 133.072 159.638C133.114 159.987 132.863 160.293 132.515 160.321C132.515 160.335 132.431 160.335 132.306 160.335Z" fill="#2E2E2E"/>
<path d="M133.754 162.787C133.197 162.787 132.626 162.689 132.18 162.383C131.748 162.09 131.512 161.63 131.484 161.073C131.358 158.803 135.621 154.192 142.823 151.824C143.157 151.712 143.505 151.893 143.617 152.228C143.728 152.548 143.547 152.91 143.213 153.022C136.136 155.348 132.654 159.68 132.723 161.018C132.737 161.24 132.807 161.324 132.891 161.38C133.336 161.7 134.534 161.533 135.245 161.324C135.579 161.226 135.927 161.408 136.025 161.742C136.122 162.076 135.941 162.424 135.607 162.522C135.482 162.55 134.646 162.787 133.754 162.787Z" fill="#2E2E2E"/>
<path d="M145.818 167.397C145.637 167.397 145.456 167.314 145.33 167.175C145.107 166.91 145.149 166.52 145.414 166.297C146.5 165.405 149.175 162.703 148.506 160.906C148.297 160.349 148.046 160.251 147.963 160.223C147.308 159.987 146.013 160.753 144.884 161.421C144.341 161.742 143.798 162.076 143.282 162.313C142.809 162.536 142.098 162.982 141.332 163.455C138.532 165.196 136.457 166.381 135.203 165.879C134.911 165.768 134.52 165.489 134.367 164.89C133.643 162.09 136.039 160.084 144.118 155.083C144.411 154.902 144.801 154.986 144.982 155.292C145.163 155.585 145.079 155.975 144.773 156.156C136.443 161.324 135.119 162.856 135.565 164.584C135.593 164.695 135.635 164.709 135.663 164.723C136.443 165.043 139.201 163.316 140.678 162.397C141.499 161.881 142.21 161.449 142.739 161.185C143.227 160.948 143.728 160.641 144.244 160.335C145.678 159.485 147.155 158.594 148.381 159.025C148.966 159.234 149.398 159.708 149.676 160.446C150.763 163.386 146.667 166.854 146.194 167.244C146.096 167.356 145.957 167.397 145.818 167.397Z" fill="#2E2E2E"/>
<path d="M171.63 179.851C171.505 179.851 171.379 179.809 171.268 179.739C156.753 169.543 153.869 168.317 150.86 169.194C150.526 169.292 150.178 169.097 150.094 168.763C149.997 168.428 150.192 168.08 150.526 167.996C154.036 166.98 156.934 168.136 171.992 178.723C172.271 178.918 172.34 179.308 172.145 179.586C172.02 179.753 171.825 179.851 171.63 179.851Z" fill="#2E2E2E"/>
<path d="M171.017 156.685C170.766 155.766 170.446 154.373 169.805 153.412C169.22 153.286 168.649 153.133 168.078 152.966C167.994 153.217 168.05 153.495 168.342 153.662C169.248 154.178 169.652 156.309 169.889 157.284C170.529 159.847 170.613 162.578 170.07 165.169C169.387 168.484 167.507 172.76 163.913 173.652C163.899 173.652 163.899 173.666 163.885 173.666C164.149 174.028 164.428 174.376 164.721 174.711C168.649 173.429 170.697 168.735 171.365 164.96C171.853 162.215 171.769 159.374 171.017 156.685Z" fill="#2E2E2E"/>
<path d="M172.814 155.557C175.279 161.923 174.499 173.986 166.364 175.783C166.908 176.006 167.451 176.271 167.952 176.577C175.14 173.819 176.491 163.204 174.374 156.337C173.803 156.128 173.301 155.863 172.814 155.557Z" fill="#2E2E2E"/>
<path d="M170.655 179.461C170.571 179.586 170.543 179.753 170.585 179.934C172.535 187.108 171.059 199.227 163.439 202.975C163.899 203.211 164.358 203.42 164.832 203.629C172.201 199.144 173.831 187.429 171.853 179.809C171.449 179.698 171.045 179.586 170.655 179.461Z" fill="#2E2E2E"/>
<path d="M175.015 180.868C175.767 186.663 176.505 192.652 173.747 198.071C172.354 200.802 170.404 203.086 168.273 205.231C168.663 205.426 169.039 205.621 169.401 205.844C171.769 203.434 173.9 200.843 175.307 197.709C177.634 192.513 177.021 186.802 176.31 181.327C175.892 181.16 175.447 181.007 175.015 180.868Z" fill="#2E2E2E"/>
<path d="M225.037 144.719C224.996 143.925 223.756 143.912 223.784 144.719C223.909 147.464 224.564 150.152 224.522 152.91C224.508 153.718 225.762 153.718 225.776 152.91C225.804 150.166 225.163 147.478 225.037 144.719Z" fill="#2E2E2E"/>
<path d="M251.867 171.256C251.853 170.936 251.602 170.685 251.268 170.671C250.947 170.657 250.655 170.908 250.613 171.228C250.39 172.872 239.929 190.786 233.061 195.16C232.88 195.271 232.769 195.466 232.769 195.689V202.585C232.769 202.78 232.866 202.975 233.019 203.086C233.131 203.17 233.256 203.211 233.381 203.211C233.451 203.211 233.507 203.197 233.577 203.184C233.785 203.1 252.758 196.734 251.867 171.256Z" fill="#2E2E2E"/>
<path d="M286.9 197.054C286.622 197.054 286.371 196.873 286.301 196.581C286.218 196.233 277.442 162.007 271.424 139.44C265.448 117.082 252.368 107.471 252.243 107.373C252.131 107.29 252.048 107.178 252.006 107.053L250.348 101.537C250.251 101.202 250.432 100.854 250.766 100.756C251.1 100.659 251.449 100.84 251.546 101.174L253.148 106.496C254.75 107.735 266.925 117.765 272.636 139.12C278.668 161.686 287.43 195.926 287.527 196.274C287.611 196.609 287.416 196.943 287.081 197.04C287.012 197.04 286.956 197.054 286.9 197.054Z" fill="#2E2E2E"/>
<path d="M114.545 180.854H92.6191C92.3684 180.854 92.1455 180.701 92.048 180.464C91.9505 180.227 92.0062 179.962 92.1734 179.781L104.543 167.286L104.348 164.333C104.32 163.985 104.585 163.692 104.933 163.664C105.268 163.65 105.574 163.901 105.602 164.249L105.811 167.481C105.825 167.662 105.755 167.829 105.63 167.955L94.1096 179.586H114.545C114.893 179.586 115.172 179.865 115.172 180.213C115.158 180.575 114.879 180.854 114.545 180.854Z" fill="#2E2E2E"/>
<path d="M107.232 164.932C107.176 164.932 107.106 164.918 107.051 164.904L102.955 163.678C102.705 163.609 102.523 163.372 102.509 163.107L98.4141 40.5093C98.4002 40.2307 98.5812 39.9799 98.8459 39.8964L105.56 37.7929C105.741 37.7372 105.95 37.7651 106.117 37.8765C106.271 37.988 106.368 38.183 106.382 38.378L107.845 164.305C107.845 164.5 107.761 164.695 107.594 164.807C107.496 164.89 107.371 164.932 107.232 164.932ZM103.749 162.619L106.591 163.469L105.156 39.2277L99.6956 40.9411L103.749 162.619Z" fill="#2E2E2E"/>
</svg>
