<svg width="384" height="242" viewBox="0 0 384 242" fill="none" xmlns="http://www.w3.org/2000/svg">
<rect y="-0.000488281" width="384" height="242" rx="12" fill="#F0F8FF"/>
<path d="M320.261 222.033C320.261 222.033 230 223.733 230.178 222.033C230.194 221.914 230.21 221.795 230.21 221.676L297.19 221.421L296.123 199.687L234.01 201.677C251.971 137.872 316.106 134.828 316.106 134.828L320.261 222.033Z" fill="#DBF0FF"/>
<path d="M209.275 140.236C211.958 133.944 214.06 127.141 215.046 120.356C216.615 109.643 213.333 105.527 212.443 104.184C211.053 102.092 210.293 100.409 210.309 97.8918C209.598 95.273 209.921 92.8242 212.476 91.1066C213.446 90.4604 215.353 91.3447 214.949 92.6031C213.753 96.4294 216.679 100.154 219.104 98.0279C220.527 96.7865 220.899 92.331 220.899 90.4094C218.781 86.243 216.275 89.6271 214.513 90.1713C213.219 90.5794 212.088 87.8245 212.961 86.5831C216.986 80.8352 219.977 82.2297 222.79 85.7498C223.178 84.3554 222.936 87.0933 223.13 87.3824C223.162 83.318 223.065 79.2537 223.033 75.1893C223.017 73.5398 225.312 72.6215 226.379 73.4888C228.255 75.0193 227.576 77.4851 228.028 79.5258C228.093 77.3661 228.206 76.1417 228.19 73.9479C228.174 71.7202 231.715 72.5365 231.731 74.7642C231.731 75.6995 232.297 74.7812 232.297 75.7165C232.361 75.6825 232.426 75.6485 232.491 75.6145L231.973 64.7819C231.715 59.2551 227.414 54.8846 222.144 54.8166L126.176 53.4392C120.518 53.3711 115.926 58.2347 116.072 64.1867L116.266 72.9616L117.268 117.21L117.672 135.78C117.802 141.46 122.199 146.001 127.599 146.035L225.361 146.613C229.516 146.647 233.056 143.994 234.576 140.236H209.275ZM173.319 106.48C171.767 107.857 170.361 109.405 169.714 111.445C169.197 113.061 169.504 114.812 168.582 116.326C166.852 119.183 163.797 119.71 160.838 119.285C153.498 118.231 146.66 113.928 146.741 105.51C146.757 103.147 147.856 99.5074 147.145 97.1776C146.369 94.6438 143.944 93.7765 141.939 92.297C139.433 90.4264 137.04 88.2497 136.83 84.8145C136.588 80.9202 138.9 79.6788 141.486 77.6892C147.727 72.9106 147.872 65.8873 149.634 58.5919C149.634 58.0137 149.877 57.4355 150.411 57.1634C157.395 53.6602 167.79 52.946 174.71 56.7382C180.433 59.8843 179.818 67.7579 180.255 73.9479C180.853 82.6038 184.507 103.844 173.319 106.48Z" fill="#DBF0FF"/>
<path d="M278.355 67.5028C278.064 67.5028 277.789 67.2987 277.709 66.9926C277.676 66.8906 274.976 56.9933 270.304 55.888C270.029 55.82 269.835 55.5989 269.787 55.3098C269.738 55.0207 269.884 54.7486 270.11 54.5955C275.106 51.6026 277.983 42.7086 278.016 42.6066C278.113 42.3175 278.355 42.1304 278.646 42.1304C278.937 42.1304 279.196 42.3345 279.277 42.6236C279.309 42.7256 282.268 52.5549 286.487 54.5615C286.714 54.6636 286.859 54.9017 286.875 55.1737C286.891 55.4288 286.762 55.6839 286.536 55.82C286.471 55.854 280.78 59.3231 278.953 66.9756C278.937 67.2817 278.662 67.5028 278.355 67.5028ZM271.921 55.0377C275.17 56.7893 277.321 61.6869 278.339 64.5268C280.117 59.4421 283.383 56.4662 284.984 55.2588C281.896 53.014 279.665 47.6913 278.646 44.8683C277.595 47.4872 275.316 52.3338 271.921 55.0377Z" fill="#2E2E2E"/>
<path d="M88.6033 149.793C88.3446 149.793 88.1021 149.623 87.9889 149.368C86.1944 144.895 80.6653 133.229 76.5588 132.974C76.2355 132.957 75.9768 132.702 75.9283 132.362C75.896 132.022 76.09 131.716 76.3972 131.614C83.2843 129.403 86.7602 124.302 87.0512 120.526C87.0836 120.203 87.3099 119.948 87.6171 119.897C87.9243 119.846 88.2153 120.016 88.3284 120.322C88.3608 120.407 91.7235 128.689 97.4305 131.665C97.6245 131.767 97.77 131.971 97.7861 132.192C97.8185 132.413 97.7376 132.651 97.576 132.804C97.285 133.076 96.9455 133.383 96.5736 133.689C94.2779 135.661 90.4301 138.943 89.2338 149.181C89.2014 149.487 88.9589 149.742 88.6679 149.793C88.6679 149.793 88.6356 149.793 88.6033 149.793ZM78.6444 132.26C82.6215 134.641 86.5177 142.6 88.2961 146.63C89.8481 137.685 93.518 134.539 95.7653 132.6C95.8461 132.532 95.9108 132.464 95.9916 132.413C91.9983 129.93 89.2823 125.322 87.9889 122.72C86.9057 126.189 83.834 130.049 78.6444 132.26Z" fill="#2E2E2E"/>
<path d="M214.366 66.6015C213.865 65.4281 213.283 64.2887 212.798 63.0983C212.458 62.2651 211.31 62.9793 211.65 63.8126C212.135 65.003 212.717 66.1423 213.218 67.3157C213.574 68.132 214.722 67.4178 214.366 66.6015Z" fill="white"/>
<path d="M211.181 74.6281C209.629 73.4548 208.077 72.2984 206.606 71.0229C205.943 70.4618 205.005 71.4481 205.668 72.0093C207.236 73.3527 208.885 74.5941 210.518 75.8355C211.197 76.3627 211.876 75.1383 211.181 74.6281Z" fill="white"/>
<path d="M75.8798 146.732C73.3577 149.368 70.7386 151.902 68.2004 154.521C67.5861 155.15 68.5238 156.136 69.1381 155.507C71.6602 152.871 74.2954 150.354 76.8174 147.718C77.4318 147.089 76.4941 146.103 75.8798 146.732Z" fill="#000091"/>
<path d="M79.7111 117.72C78.9998 116.938 78.4339 116.054 77.9651 115.085C77.5771 114.285 76.4292 114.999 76.8172 115.799C77.3508 116.87 77.9813 117.856 78.7735 118.724C79.3555 119.353 80.2932 118.367 79.7111 117.72Z" fill="#000091"/>
<path d="M303.835 100.885C301.216 98.2149 298.5 95.6641 295.655 93.2663C294.992 92.7051 294.054 93.6914 294.717 94.2526C297.562 96.6504 300.278 99.2013 302.897 101.871C303.512 102.5 304.449 101.514 303.835 100.885Z" fill="#000091"/>
<path d="M244.89 58.983C242.837 56.8573 240.541 55.0376 238.245 53.2351C237.566 52.6909 236.887 53.9153 237.566 54.4425C239.781 56.177 241.98 57.9286 243.952 59.9863C244.567 60.5985 245.504 59.6122 244.89 58.983Z" fill="#2E2E2E"/>
<path d="M244.534 52.725C242.303 55.0717 240.056 57.4355 237.825 59.7823C237.227 60.4115 238.164 61.4148 238.762 60.7686L245.472 53.7113C246.07 53.0821 245.132 52.0958 244.534 52.725Z" fill="#2E2E2E"/>
<path d="M242.756 140.321C242.723 140.321 242.707 140.321 242.675 140.321L144.913 139.743C139.125 139.692 134.469 134.896 134.324 128.808L132.707 57.2314C132.642 54.1704 133.725 51.2795 135.779 49.1028C137.799 46.96 140.483 45.7697 143.361 45.7697H143.49L239.458 47.1471C245.052 47.2151 249.659 51.8917 249.934 57.7756L253.345 128.57C253.491 131.665 252.456 134.624 250.403 136.869C248.414 139.096 245.682 140.321 242.756 140.321ZM143.377 47.1641C140.855 47.1641 138.511 48.2015 136.749 50.0721C134.954 51.9767 134 54.5105 134.065 57.1974L135.682 128.774C135.811 134.097 139.869 138.314 144.945 138.348L242.707 138.926H242.772C245.326 138.926 247.719 137.855 249.481 135.899C251.276 133.927 252.181 131.359 252.052 128.638L248.641 57.8436C248.398 52.6909 244.356 48.6096 239.458 48.5416L143.49 47.1641C143.458 47.1641 143.409 47.1641 143.377 47.1641Z" fill="#2E2E2E"/>
<path d="M111.561 161.527C111.205 161.527 110.898 161.221 110.898 160.83L109.168 20.7033C109.168 20.5163 109.233 20.3292 109.362 20.2102C109.491 20.0741 109.637 19.9721 109.831 20.0061L241.641 20.4482C242.012 20.4482 242.303 20.7544 242.303 21.1455V48.1504C242.303 48.5415 242.012 48.8476 241.641 48.8476C241.269 48.8476 240.978 48.5415 240.978 48.1504V21.8257L110.51 21.3836L112.224 160.813C112.224 161.204 111.933 161.527 111.561 161.527Z" fill="#2E2E2E"/>
<path d="M240.978 139.675V158.721C240.978 159.112 241.269 159.418 241.64 159.418C242.012 159.418 242.303 159.112 242.303 158.721V139.607C241.867 139.624 241.414 139.624 240.978 139.675Z" fill="#2E2E2E"/>
<path d="M146.982 208.888H105.191L103.364 161.663L273.619 158.891V200.606C274.055 200.47 274.492 200.351 274.945 200.283V158.177C274.945 157.99 274.88 157.803 274.751 157.684C274.621 157.548 274.443 157.497 274.282 157.48L102.669 160.268C102.491 160.268 102.313 160.353 102.2 160.49C102.07 160.626 102.006 160.813 102.022 161L103.897 209.602C103.914 209.976 104.205 210.265 104.56 210.265H147.063C147.047 210.146 147.015 210.027 146.999 209.925C146.918 209.568 146.918 209.211 146.982 208.888Z" fill="#2E2E2E"/>
<path d="M119.499 183.855L169.681 182.495C169.924 182.495 170.15 182.614 170.279 182.818C170.344 182.92 170.376 183.022 170.393 183.141L171.072 188.974C171.088 189.178 171.039 189.365 170.942 189.501C170.813 189.671 170.603 189.79 170.376 189.79L119.531 189.246C119.434 189.246 119.337 189.229 119.256 189.178C119.014 189.059 118.836 188.804 118.836 188.498V184.569C118.836 184.416 118.884 184.28 118.949 184.161C119.046 183.991 119.256 183.872 119.499 183.855Z" fill="#000091"/>
<path d="M178.912 183.311L179.64 189.178C179.656 189.314 179.721 189.45 179.802 189.552C179.931 189.722 180.125 189.824 180.335 189.824H192.186C192.412 189.824 192.606 189.722 192.735 189.552C192.865 189.382 192.913 189.161 192.865 188.94L191.636 183.073C191.604 182.903 191.507 182.767 191.393 182.665C191.28 182.563 191.119 182.495 190.957 182.495H179.608C179.397 182.495 179.203 182.597 179.09 182.75C178.945 182.886 178.88 183.09 178.912 183.311Z" fill="#000091"/>
<path d="M254.946 189.314C250.371 189.314 246.652 185.335 246.652 180.437C246.652 175.624 250.371 171.713 254.946 171.713C259.521 171.713 263.24 175.624 263.24 180.437C263.24 186.338 260.443 189.314 254.946 189.314ZM254.946 173.108C251.098 173.108 247.978 176.39 247.978 180.437C247.978 184.484 251.163 187.92 254.946 187.92C259.699 187.92 261.914 185.539 261.914 180.437C261.898 176.39 258.778 173.108 254.946 173.108Z" fill="#2E2E2E"/>
<path d="M254.946 182.903C254.574 182.903 254.283 182.597 254.283 182.206V169.775C254.283 169.383 254.574 169.077 254.946 169.077C255.318 169.077 255.609 169.383 255.609 169.775V182.206C255.609 182.597 255.302 182.903 254.946 182.903Z" fill="#2E2E2E"/>
<path d="M127.113 153.449H114.503C114.131 153.449 113.84 153.143 113.84 152.752C113.84 152.361 114.131 152.055 114.503 152.055H127.113C127.485 152.055 127.776 152.361 127.776 152.752C127.776 153.126 127.485 153.449 127.113 153.449Z" fill="#2E2E2E"/>
<path d="M127.113 156.17H114.503C114.131 156.17 113.84 155.864 113.84 155.473C113.84 155.082 114.131 154.776 114.503 154.776H127.113C127.485 154.776 127.776 155.082 127.776 155.473C127.776 155.864 127.485 156.17 127.113 156.17Z" fill="#2E2E2E"/>
<path d="M168.371 86.4641C168.032 86.4641 167.725 86.175 167.709 85.8178C167.692 85.4267 167.967 85.1036 168.323 85.0696C169.471 84.9846 170.392 84.6104 170.797 84.0493C171.023 83.7432 171.071 83.369 170.974 82.9269C170.764 81.9406 168.517 81.5154 167.547 81.4644C167.207 81.4474 166.933 81.1583 166.916 80.8182L166.545 74.8492C166.528 74.4581 166.803 74.135 167.159 74.101C167.515 74.067 167.838 74.3731 167.87 74.7472L168.194 80.121C169.39 80.257 171.864 80.7842 172.268 82.6038C172.462 83.4541 172.316 84.2363 171.864 84.8825C171.217 85.8008 169.988 86.362 168.42 86.4811C168.404 86.4641 168.388 86.4641 168.371 86.4641Z" fill="#2E2E2E"/>
<path d="M171.152 73.4038L171.233 74.7132C171.33 76.3968 173.82 76.2267 173.707 74.5431L173.626 73.2337C173.529 71.5502 171.055 71.7202 171.152 73.4038Z" fill="#2E2E2E"/>
<path d="M156.229 74.4241L156.31 75.7335C156.407 77.4171 158.897 77.247 158.784 75.5635L158.703 74.254C158.606 72.5705 156.132 72.7405 156.229 74.4241Z" fill="#2E2E2E"/>
<path d="M156.311 68.081C155.325 68.3701 154.388 68.7272 153.466 69.2033C152.755 69.5774 153.45 70.6658 154.161 70.2917C154.97 69.8665 155.843 69.5774 156.716 69.3054C157.475 69.0843 157.071 67.8599 156.311 68.081Z" fill="#2E2E2E"/>
<path d="M173.545 66.6865C172.882 66.2784 172.155 66.0063 171.524 65.5471C170.878 65.071 170.053 66.0573 170.7 66.5335C171.427 67.0606 172.22 67.4007 172.979 67.8599C173.675 68.285 174.224 67.1117 173.545 66.6865Z" fill="#2E2E2E"/>
<path d="M161.031 92.8412C160.094 92.7561 158.833 92.382 158.703 91.2426C158.606 90.4094 157.362 90.4944 157.459 91.3277C157.669 93.0962 159.221 93.9805 160.773 94.1336C161.565 94.1846 161.824 92.9092 161.031 92.8412Z" fill="#2E2E2E"/>
<path d="M197.472 139.692C197.165 139.692 196.89 139.471 196.826 139.13C193.802 124.081 177.393 113.86 169.293 111.734C168.938 111.632 168.727 111.258 168.808 110.884C168.889 110.51 169.261 110.289 169.617 110.374C179.317 112.908 195.096 123.723 198.135 138.824C198.216 139.199 197.99 139.573 197.618 139.658C197.569 139.692 197.521 139.692 197.472 139.692Z" fill="#2E2E2E"/>
<path d="M162.698 120.441C157.767 120.441 151.623 116.938 146.741 111.122C140.791 112.551 135.602 115.255 135.537 115.289C135.214 115.459 134.809 115.323 134.648 114.983C134.486 114.642 134.615 114.217 134.939 114.047C135.165 113.928 140.549 111.105 146.838 109.677C147.08 109.626 147.323 109.711 147.484 109.898C152.949 116.547 160.337 120.254 165.074 118.69C167.693 117.822 169.278 115.408 169.649 111.717C169.682 111.326 170.021 111.054 170.377 111.088C170.749 111.122 171.007 111.479 170.975 111.853C170.425 117.278 167.677 119.285 165.478 120.016C164.605 120.305 163.668 120.441 162.698 120.441Z" fill="#2E2E2E"/>
<path d="M180.481 70.4958C180.319 68.4721 180.157 66.3634 179.979 64.1697C179.187 53.8643 172.559 49.0687 160.337 49.902C153.53 50.3611 148.567 52.0447 145.35 55.0206C145.237 55.0376 145.14 55.0887 145.043 55.1737C140.936 56.3301 137.622 60.1904 135.148 63.6595C134.599 64.4077 134.081 65.19 133.58 65.9893L134.582 110.238C136.539 110.442 138.543 110.34 140.37 110.102C142.472 109.83 144.412 109.116 146.077 107.993L146.304 110.425C146.336 110.782 146.627 111.054 146.966 111.054H147.031C147.403 111.02 147.662 110.68 147.629 110.289L147.322 107.041C148.906 105.629 150.151 103.759 150.879 101.463C152.124 97.5347 152.027 90.5114 147.71 88.5387C146.934 88.1816 146.11 88.0626 145.269 88.0285C144.509 87.9435 141.033 87.7735 139.95 86.8041C138.98 85.9369 138.77 84.8825 138.737 84.3213C138.689 83.42 138.948 82.6208 139.53 81.9575C140.742 80.5801 143.329 79.8148 146.999 79.7638C147.322 79.7638 147.597 79.4917 147.791 79.2026C151.59 73.0806 151.59 58.4388 151.59 58.4388C154.743 61.1257 173.884 62.3501 178.201 61.1767C178.427 62.146 178.589 63.2003 178.686 64.3227C178.848 66.5164 179.026 68.6251 179.187 70.6488C180.707 89.7291 181.645 101.259 175.889 105.289C170.958 108.758 161.63 108.792 161.533 108.792C161.307 108.792 161.096 108.911 160.967 109.116C160.838 109.32 160.822 109.575 160.919 109.779C162.778 114.098 169.131 115.323 169.39 115.374C169.422 115.374 169.471 115.391 169.503 115.391C169.81 115.391 170.101 115.153 170.15 114.812L171.185 109.047C171.201 108.979 171.201 108.911 171.201 108.843C173.141 108.299 175.049 107.517 176.601 106.429C183.003 101.922 182.049 90.1032 180.481 70.4958Z" fill="#2E2E2E"/>
<path d="M193.043 75.7165C189.179 72.3664 182.955 73.3868 179.705 69.2034C180.206 74.3731 181.112 79.3897 180.966 84.5424C181.241 87.7395 181.176 90.9025 180.449 93.9125C180.433 96.0893 180.368 98.249 180.255 100.426C184.652 100.46 188.807 100.188 192.461 97.2456C195.662 94.6778 197.262 90.7155 197.23 86.5321C197.23 82.5188 196.082 78.3524 193.043 75.7165Z" fill="#2E2E2E"/>
<path d="M210.568 138.943C210.487 138.943 210.406 138.926 210.342 138.892C210.002 138.756 209.323 139.675 209.452 139.317C214.788 124.302 216.566 111.887 213.462 107.534C211.748 105.136 206.462 96.9225 210.245 91.9568C211.053 90.8855 211.764 90.3583 212.346 90.1542C211.813 89.525 211.619 88.6407 211.861 87.7224C212.233 86.277 213.656 83.5051 215.887 82.2806C217.099 81.6004 218.344 81.4984 219.589 81.9575C223.469 83.369 224.294 86.447 224.326 86.5831C224.423 86.9572 224.213 87.3483 223.857 87.4333C223.502 87.5354 223.13 87.3143 223.049 86.9402C223.017 86.8382 222.354 84.4404 219.169 83.284C218.28 82.9609 217.39 83.0459 216.517 83.5221C214.788 84.4914 213.494 86.8211 213.155 88.0966C212.961 88.8278 213.3 89.287 213.656 89.474C214.092 89.6951 214.82 89.6271 215.467 88.6918C216.388 87.3993 217.892 86.8892 219.12 87.4333C219.993 87.8075 221.917 89.304 221.109 94.8308C220.672 97.8238 219.525 98.8611 218.635 99.2012C217.584 99.6094 216.323 99.2523 215.24 98.2659C214.27 97.3816 213.43 95.9021 213.704 94.5757C213.995 93.1642 213.64 91.7358 213.155 91.4807C212.864 91.3276 212.217 91.6167 211.279 92.8411C208.757 96.1572 211.295 102.177 214.513 106.701C217.94 111.513 216.76 122.805 211.198 138.501C211.101 138.756 210.843 138.943 210.568 138.943ZM214.48 90.9195C215.111 91.8888 215.273 93.5044 214.982 94.8478C214.852 95.477 215.337 96.4803 216.097 97.1946C216.792 97.8408 217.568 98.0959 218.15 97.8748C218.926 97.5687 219.508 96.4123 219.767 94.6097C220.301 90.8855 219.508 89.1169 218.571 88.7088C217.908 88.4027 217.035 88.7428 216.485 89.525C215.871 90.3923 215.159 90.8005 214.48 90.9195Z" fill="#2E2E2E"/>
<path d="M224.019 90.6304C223.679 90.6304 223.388 90.3584 223.356 89.9842C222.434 77.6722 222.354 74.135 223.534 72.7065C223.889 72.2814 224.358 72.0433 224.956 71.9923C227.543 71.8052 228.19 76.1076 228.61 78.6755L228.643 78.8626C228.707 79.2367 228.465 79.6108 228.093 79.6788C227.737 79.7469 227.381 79.4918 227.317 79.1006L227.284 78.9136C227.042 77.4001 226.379 73.3867 225.086 73.3867C225.07 73.3867 225.053 73.3867 225.037 73.3867C224.73 73.4038 224.617 73.5058 224.536 73.6078C223.631 74.7132 223.986 80.4951 224.682 89.8652C224.714 90.2563 224.439 90.5794 224.067 90.6134C224.067 90.6304 224.051 90.6304 224.019 90.6304Z" fill="#2E2E2E"/>
<path d="M228.675 90.2563C228.335 90.2563 228.044 89.9842 228.012 89.6101C227.091 77.298 227.01 73.7609 228.19 72.3324C228.546 71.9072 229.014 71.6692 229.613 71.6181C231.989 71.4821 232.571 75.0023 232.927 77.349L233.024 77.9953C233.089 78.3694 232.846 78.7435 232.474 78.8115C232.102 78.8795 231.763 78.6245 231.698 78.2333L231.601 77.5701C231.343 75.8525 230.906 73.0126 229.742 73.0126C229.726 73.0126 229.71 73.0126 229.694 73.0126C229.386 73.0296 229.273 73.1316 229.192 73.2337C228.287 74.339 228.643 80.121 229.338 89.4911C229.37 89.8822 229.095 90.2053 228.723 90.2393C228.723 90.2563 228.707 90.2563 228.675 90.2563Z" fill="#2E2E2E"/>
<path d="M233.121 90.6305C233.492 90.5965 233.767 90.2563 233.735 89.8822C233.04 80.5121 232.684 74.7472 233.589 73.6249C233.67 73.5228 233.8 73.4208 234.091 73.4038H234.107C234.382 73.4038 235.578 73.8119 236.37 80.4271C236.887 84.8486 239.07 122.295 232.636 139.454C232.587 139.573 232.587 139.709 232.603 139.828H232.668C233.088 139.794 233.509 139.794 233.929 139.828C240.509 122.091 238.245 84.9336 237.696 80.257C237.259 76.6348 236.402 71.8563 234.01 72.0263C233.412 72.0773 232.943 72.2984 232.587 72.7406C231.423 74.169 231.504 77.7062 232.409 90.0183C232.425 90.3754 232.765 90.6985 233.121 90.6305Z" fill="#2E2E2E"/>
<path d="M226.363 106.633C225.506 103.759 223.808 101.735 221.4 100.154C220.672 99.6774 220.009 100.885 220.721 101.361C222.822 102.738 224.31 104.49 225.07 107.007C225.344 107.857 226.622 107.483 226.363 106.633Z" fill="#2E2E2E"/>
<path d="M146.966 222.679C146.788 222.679 146.626 222.611 146.497 222.475C146.367 222.339 146.303 222.169 146.303 221.982V204.483C146.303 204.109 146.594 203.803 146.949 203.786L296.106 198.99C296.511 198.973 296.769 199.279 296.785 199.653L297.852 221.387C297.869 221.574 297.804 221.761 297.675 221.897C297.545 222.033 297.384 222.118 297.19 222.118L146.966 222.679ZM147.628 205.163V221.268L296.494 220.706L295.492 200.402L147.628 205.163Z" fill="#2E2E2E"/>
<path d="M202.468 216.846C202.29 216.846 202.112 216.761 201.983 216.625C201.854 216.472 201.789 216.285 201.805 216.081L202.339 209.959C202.371 209.602 202.646 209.33 202.969 209.33L238.957 207.952H238.989C239.329 207.952 239.604 208.207 239.652 208.564L240.444 215.248C240.461 215.452 240.412 215.639 240.283 215.792C240.153 215.945 239.976 216.03 239.798 216.03L202.468 216.846ZM203.6 210.707L203.196 215.435L239.022 214.635L238.391 209.364L203.6 210.707Z" fill="#2E2E2E"/>
<path d="M160.159 213.105H153.159C152.787 213.105 152.496 212.799 152.496 212.408V209.585C152.496 209.194 152.787 208.888 153.159 208.888H160.159C160.531 208.888 160.822 209.194 160.822 209.585V212.408C160.838 212.782 160.531 213.105 160.159 213.105ZM153.838 211.693H159.496V210.282H153.838V211.693Z" fill="#2E2E2E"/>
<path d="M288.443 216.846H264.629C264.274 216.846 263.983 216.557 263.967 216.183L263.627 209.381C263.611 209.194 263.692 208.99 263.821 208.854C263.95 208.717 264.128 208.649 264.322 208.649L271.662 208.973L271.63 204.194C271.63 204.007 271.694 203.82 271.824 203.701C271.953 203.565 272.115 203.497 272.293 203.497H281.023C281.346 203.497 281.621 203.735 281.669 204.058L282.623 209.313L288.912 208.888C289.106 208.871 289.3 208.956 289.43 209.092C289.559 209.245 289.64 209.432 289.624 209.636L289.09 216.2C289.09 216.574 288.799 216.846 288.443 216.846ZM265.276 215.452H287.845L288.266 210.333L282.154 210.741C281.831 210.775 281.524 210.52 281.459 210.18L280.505 204.891H273.004L273.036 209.704C273.036 209.891 272.972 210.078 272.826 210.214C272.697 210.35 272.519 210.401 272.341 210.418L265.017 210.112L265.276 215.452Z" fill="#2E2E2E"/>
<path d="M193.058 216.846H183.471C183.1 216.846 182.809 216.54 182.809 216.149V211.676C182.809 211.319 183.067 211.013 183.423 210.979L192.929 210.146C193.123 210.129 193.301 210.197 193.43 210.316C193.56 210.452 193.641 210.622 193.657 210.826L193.738 216.149C193.738 216.336 193.673 216.523 193.544 216.659C193.398 216.778 193.236 216.846 193.058 216.846ZM184.134 215.452H192.379L192.315 211.591L184.134 212.306V215.452Z" fill="#2E2E2E"/>
<path d="M179.753 216.846H171.718C171.346 216.846 171.055 216.54 171.055 216.149V212.391C171.055 212 171.346 211.693 171.718 211.693H179.688C180.044 211.693 180.351 212 180.351 212.374L180.415 216.132C180.415 216.319 180.351 216.506 180.221 216.642C180.108 216.778 179.93 216.846 179.753 216.846ZM172.38 215.452H179.074L179.041 213.105H172.38V215.452Z" fill="#2E2E2E"/>
<path d="M316.105 186.848H288.977C288.622 186.848 288.33 186.559 288.314 186.202L286.73 159.996C286.504 156.306 287.716 152.786 290.109 150.099C292.518 147.395 295.767 145.916 299.292 145.916H302.137C308.652 145.916 314.165 151.272 314.683 158.109L316.784 186.083C316.801 186.27 316.736 186.474 316.607 186.61C316.477 186.763 316.299 186.848 316.105 186.848ZM289.608 185.454H315.394L313.357 158.228C312.904 152.106 307.973 147.327 302.137 147.327H299.292C296.155 147.327 293.229 148.654 291.079 151.068C288.929 153.483 287.862 156.629 288.056 159.928L289.608 185.454Z" fill="#2E2E2E"/>
<path d="M314.214 161.527L287.377 160.643C287.005 160.626 286.714 160.302 286.73 159.928C286.746 159.537 287.037 159.265 287.409 159.248L314.23 160.132C314.602 160.149 314.893 160.473 314.877 160.847C314.861 161.238 314.57 161.527 314.214 161.527Z" fill="#2E2E2E"/>
<path d="M261.396 149.793H241.64C241.269 149.793 240.978 149.487 240.978 149.096C240.978 148.705 241.269 148.399 241.64 148.399H261.396C263.046 148.399 264.63 147.65 265.745 146.358C266.845 145.065 267.378 143.331 267.2 141.596C266.974 139.471 267.621 137.328 268.979 135.729C270.337 134.131 272.277 133.229 274.314 133.229H274.33L292.809 133.281C296.754 133.298 299.955 136.665 299.955 140.814V145.967C299.955 146.358 299.664 146.664 299.292 146.664C298.92 146.664 298.629 146.358 298.629 145.967V140.814C298.629 137.447 296.026 134.692 292.809 134.675L274.33 134.624H274.314C272.665 134.624 271.081 135.372 269.981 136.665C268.882 137.957 268.348 139.709 268.526 141.443C268.753 143.569 268.106 145.712 266.748 147.293C265.374 148.892 263.434 149.793 261.396 149.793Z" fill="#2E2E2E"/>
<path d="M304.885 161.085C304.578 161.085 304.303 160.864 304.239 160.524L301.49 146.749C301.409 146.375 301.652 146.001 302.008 145.916C302.363 145.831 302.719 146.086 302.8 146.46L305.548 160.234C305.629 160.609 305.386 160.983 305.031 161.068C304.966 161.085 304.934 161.085 304.885 161.085Z" fill="#2E2E2E"/>
</svg>
