<svg xmlns="http://www.w3.org/2000/svg" width="588" height="554" fill="none">
    <path fill="#D7C6F9" d="m332.988 383.008-74.761-1.496-3.02 52.076h84.847c-2.189-16.869-4.461-33.738-7.066-50.58"/>
    <path fill="#AF8EF3" d="M227.912 163.513H115.355l4.24 84.901 61.183 36.508 43.31-44.347z"/>
    <path fill="#2E2E2E" d="M155.146 308.883H81.521c-.61 0-1.108-.471-1.108-1.081l-6.429-176.061c0-.305.111-.609.305-.803a1.1 1.1 0 0 1 .804-.333l220.458-1.966c.277.027.582.11.804.332.221.222.332.499.332.803v30.83a1.11 1.11 0 0 1-1.108 1.108 1.11 1.11 0 0 1-1.108-1.108v-29.722l-218.187 1.939 6.318 173.818h72.544c.61 0 1.109.498 1.109 1.108.027.637-.472 1.136-1.109 1.136"/>
    <path fill="#2E2E2E" d="M192.941 280.13q-.29 0-.581-.166l-61.156-36.481a1.12 1.12 0 0 1-.554-.914l-4.24-84.901a1.05 1.05 0 0 1 .305-.831c.222-.221.499-.36.804-.36h112.557c.304 0 .609.139.803.36.222.222.333.527.305.831l-3.824 77.089a1.3 1.3 0 0 1-.305.721l-43.31 44.347a1.26 1.26 0 0 1-.804.305m-60.074-38.281 59.88 35.76 42.396-43.406 3.741-75.482H128.71z"/>
    <path fill="#2E2E2E" d="M193.773 257.638c-.167 0-.361-.056-.527-.139l-46.303-24.21c-.332-.194-.582-.526-.609-.914l-4.24-61.134a1.13 1.13 0 0 1 .277-.831 1.23 1.23 0 0 1 .776-.387l81.3-3.352c.305 0 .61.111.832.332s.332.527.332.831l-2.688 62.408c0 .305-.138.582-.36.776l-28.042 26.315a1.07 1.07 0 0 1-.748.305m-45.223-26.011 45.029 23.545 27.127-25.456 2.633-60.746-78.89 3.296z"/>
    <path fill="#2E2E2E" d="M131.786 243.621c-.36 0-.72-.166-.942-.498a1.117 1.117 0 0 1 .332-1.551l15.712-10.194a1.12 1.12 0 0 1 1.552.332 1.12 1.12 0 0 1-.333 1.552l-15.711 10.193a1.26 1.26 0 0 1-.61.166m61.156 36.509h-.056c-.609-.028-1.108-.554-1.08-1.163l.859-22.493c.027-.609.471-1.08 1.164-1.08.609.028 1.108.554 1.08 1.163l-.859 22.493a1.123 1.123 0 0 1-1.108 1.08m43.31-44.32c-.111 0-.222-.028-.333-.055l-14.437-4.488a1.155 1.155 0 0 1-.748-1.412 1.157 1.157 0 0 1 1.413-.748l14.437 4.487c.582.194.915.803.748 1.413a1.15 1.15 0 0 1-1.08.803m-69.855-7.063c-.25 0-.527-.084-.748-.277-.471-.416-.527-1.108-.111-1.579l45.084-51.744a1.107 1.107 0 0 1 1.579-.111c.471.416.526 1.108.111 1.579l-45.084 51.744a1.12 1.12 0 0 1-.831.388m18.952 4.819a1.2 1.2 0 0 1-.776-.304 1.103 1.103 0 0 1-.027-1.579l28.014-29.224a1.104 1.104 0 0 1 1.58-.027c.443.415.471 1.135.027 1.579l-28.014 29.195c-.222.25-.499.36-.804.36"/>
    <path fill="#D7C6F9" d="M96.373 120.91a1.2 1.2 0 0 1-.776-.304L80.745 106.7a1.13 1.13 0 0 1-.055-1.579 1.13 1.13 0 0 1 1.58-.055l14.852 13.905a1.13 1.13 0 0 1 .055 1.579 1.1 1.1 0 0 1-.804.36"/>
    <path fill="#D7C6F9" d="M81.521 120.91c-.305 0-.61-.11-.831-.36a1.13 1.13 0 0 1 .055-1.579l14.852-13.905a1.13 1.13 0 0 1 1.58.055 1.13 1.13 0 0 1-.055 1.579l-14.825 13.906a1.2 1.2 0 0 1-.776.304m40.264-2.409h-12.304a1.11 1.11 0 0 1-1.108-1.108v-11.496c0-.609.499-1.108 1.108-1.108h11.805c.609 0 1.08.471 1.108 1.08l.471 11.496c0 .305-.111.609-.305.831-.166.194-.471.305-.775.305m-11.167-2.244h10.003l-.388-9.252h-9.615zm36.88-3.49h-15.712a1.11 1.11 0 0 1-1.108-1.108c0-.61.499-1.108 1.108-1.108h15.712c.609 0 1.108.498 1.108 1.108 0 .609-.499 1.108-1.108 1.108"/>
    <path fill="#2E2E2E" d="M109.785 259.632c-2.744 3.795-5.515 7.617-8.258 11.412-.859 1.164 1.108 2.299 1.94 1.136 2.743-3.795 5.514-7.617 8.257-11.412.831-1.164-1.108-2.272-1.939-1.136"/>
    <path fill="#9C6FF4" d="M457.267 139.774c-26.962-.858-30.758 27.368-1.995 32.437l.859 44.708 15.24-.582v-11.523l-8.95.526-.527-6.288 5.348-1.828-.526-6.869-5.625-.277-.277-16.593c25.354 1.524 26.546-32.741-3.547-33.711m.221 27.534c-20.893-3.268-19.59-22.104 0-21.55 22.861.664 20.894 24.791 0 21.55"/>
    <path fill="#AF8EF3" d="M421.604 206.947c-2.217 1.828-4.433 3.656-6.678 5.484-1.108.914.471 2.493 1.58 1.579 2.216-1.828 4.433-3.656 6.678-5.484 1.136-.914-.471-2.493-1.58-1.579m81.633-65.428c-3.158 2.715-6.345 5.402-9.504 8.117-1.108.941.499 2.52 1.579 1.578 3.159-2.714 6.346-5.401 9.505-8.116 1.108-.914-.499-2.493-1.58-1.579m24.467 58.143c-7.593-4.044-15.185-8.089-22.75-12.133-1.275-.665-2.411 1.247-1.136 1.939 7.592 4.044 15.185 8.089 22.75 12.133 1.274.665 2.41-1.274 1.136-1.939"/>
    <path fill="#2E2E2E" d="M317.443 223.013c-.499 0-.942-.333-1.081-.831a1.13 1.13 0 0 1 .776-1.385c2.189-.61 3.824-1.69 4.406-2.909q.499-1.038-.083-2.244c-.832-1.772-5.238-1.717-7.233-1.385-.554.084-1.108-.249-1.247-.803l-2.909-10.609a1.13 1.13 0 0 1 .776-1.385 1.14 1.14 0 0 1 1.385.776l2.66 9.667c2.217-.222 7.177-.332 8.618 2.798.637 1.412.665 2.825.056 4.127-.859 1.856-2.938 3.324-5.847 4.127-.083.056-.194.056-.277.056m.693-24.46.637 2.327c.804 2.992 5.459 1.718 4.628-1.274l-.637-2.327c-.804-2.991-5.459-1.717-4.628 1.274m-27.931 7.618.637 2.327c.804 2.991 5.459 1.717 4.627-1.274l-.637-2.327c-.803-2.964-5.431-1.69-4.627 1.274m-2.19-11.413c-1.746.915-3.408 1.912-4.96 3.131-1.192.969.526 2.631 1.718 1.689 1.358-1.08 2.937-1.939 4.461-2.77 1.386-.72.167-2.77-1.219-2.05m32.143-9.251c-1.386-.471-2.882-.693-4.24-1.274-1.413-.61-2.605 1.495-1.192 2.077 1.552.665 3.215.97 4.822 1.496 1.469.526 2.078-1.801.61-2.299M306.137 237.5c-1.801.194-4.322.055-5.015-1.995-.499-1.468-2.827-.831-2.328.637 1.053 3.103 4.323 4.1 7.343 3.74 1.524-.166 1.524-2.576 0-2.382"/>
    <path fill="#2E2E2E" d="M329.967 190.991c-1.053-3.573-2.161-7.312-3.269-11.19-.721-2.493-1.608-4.737-2.633-6.759 2.023-2.743 2.023-6.731-.111-9.889-4.849-7.119-15.6-8.061-23.331-6.925-5.459.803-10.669 2.714-15.739 4.82-1.718.72-3.686 1.385-5.487 2.326-10.918 3.657-18.261 8.587-22.389 15.014-4.295 6.676-5.016 14.902-2.217 25.151l5.071 18.532c.166.609.776.942 1.385.775.499-.138.804-.581.831-1.052 2.411-.914 4.157-1.247 6.291-1.718.498.693 2.355.305 2.577-.526.055-.803-.665-7.396-.97-11.302.665-3.628 2.133-7.091 4.295-10.941 2.133-3.795 4.212-8.061 3.436-12.576l-.083-.332c13.854-.499 38.987-6.233 44.889-9.446q1.206 2.493 2.079 5.485c1.136 3.878 2.216 7.617 3.297 11.19 9.976 33.85 16.016 54.265 6.54 63.849-8.119 8.199-25.798 11.911-25.992 11.939-.36.083-.693.332-.831.692-.139.36-.084.748.138 1.053 4.96 6.842 12.469 8.891 12.774 8.975.083.027.194.027.277.027.25 0 .499-.083.693-.221.277-.222.443-.554.443-.887v-11.468c4.988-1.994 10.392-4.819 14.077-8.559 10.336-10.498 4.184-31.412-6.041-66.037"/>
    <path fill="#2E2E2E" d="m319.77 275.726-.138 8.531c-5.404 14.792-15.185 16.509-22.445 15.318-13.218-2.16-25.216-14.819-25.41-23.295l-1.247-38.891c0-.36-.194-.665-.471-.887a1.26 1.26 0 0 0-.998-.166c-3.99 1.274-7.37 1.219-9.837-.111-2.216-1.218-3.02-3.074-3.297-4.099-.443-1.662-.222-3.241.637-4.709 1.829-3.019 6.457-5.402 13.44-6.953.609-.138.997-.72.859-1.329-.139-.61-.749-.998-1.331-.859-7.675 1.69-12.691 4.376-14.88 7.977-1.524 2.521-1.33 4.903-.886 6.455a8.78 8.78 0 0 0 4.378 5.456c1.912 1.053 5.182 1.939 10.169.665l1.219 37.451c.25 10.443 14.022 23.295 27.295 25.456 6.65 1.08 18.731.305 24.966-16.952.055-.111.055-.25.055-.388v-4.626c-.692-1.191-1.302-2.881-2.078-4.044"/>
    <path fill="#2E2E2E" d="M198.373 456.219c-5.293 0-11.25-.194-17.928-.61-33.667-2.105-59.992-15.733-72.267-37.367-10.668-18.808-9.698-41.522 2.771-65.732 31.561-61.189 113.582-74.707 159.663-77.338.61-.056 1.136.443 1.192 1.052a1.156 1.156 0 0 1-1.053 1.191c-45.61 2.576-126.772 15.9-157.807 76.12-12.109 23.49-13.079 45.483-2.826 63.599 11.887 20.969 37.574 34.154 70.465 36.232 51.042 3.213 57.193-6.288 63.677-16.315 1.136-1.773 2.328-3.602 3.741-5.347 9.366-11.495 12.026-13.766 18.649-11.384 2.216.803 3.38.637 3.574.36.25-.36.111-2.299-3.519-6.51-1.607-1.883-3.464-2.797-5.653-2.825h-.083c-4.267 0-9.809 3.518-15.6 9.944a1.107 1.107 0 0 1-1.58.083 1.106 1.106 0 0 1-.083-1.579c4.406-4.875 11.001-10.692 17.263-10.692h.111c2.826.028 5.293 1.247 7.315 3.601 3.714 4.294 4.933 7.396 3.686 9.252-.665.997-2.3 1.884-6.179.499-5.182-1.856-6.845-.748-16.155 10.692-1.358 1.662-2.494 3.435-3.602 5.152-5.736 8.809-11.639 17.922-47.772 17.922"/>
    <path fill="#2E2E2E" d="M238.247 416.248c-.305 0-.61-.111-.832-.36-.415-.471-.388-1.164.083-1.579 16.986-15.512 21.808-17.784 28.569-13.518 3.769 2.382 5.847 4.986 6.179 7.784.278 2.327-.692 4.654-2.854 6.897a1.13 1.13 0 0 1-1.579.028 1.13 1.13 0 0 1-.028-1.579c1.69-1.717 2.439-3.435 2.245-5.069-.25-2.05-2.023-4.183-5.154-6.149-4.96-3.131-8.258-2.77-25.881 13.268a1.2 1.2 0 0 1-.748.277"/>
    <path fill="#2E2E2E" d="M232.178 410.597c-.305 0-.609-.111-.831-.36-.416-.471-.388-1.163.083-1.579 12.054-10.997 20.284-17.119 26.574-16.011 3.075.554 5.569 2.798 7.62 6.87a1.11 1.11 0 0 1-.499 1.496 1.11 1.11 0 0 1-1.496-.499c-1.718-3.407-3.713-5.263-6.041-5.678-5.348-.997-13.411 5.18-24.662 15.456-.221.194-.471.305-.748.305"/>
    <path fill="#2E2E2E" d="M255.289 391.678c-8.174-4.654-13.107-6.343-26.934 9.113-2.743 3.075-4.821 5.097-6.151 6.316l-.638-12.244c-.748.25-1.468.499-2.216.776l.72 13.878c.028.415.277.775.637.969a.9.9 0 0 0 .471.111c.25 0 .472-.083.665-.222.111-.083 2.965-2.271 8.147-8.06 13.273-14.848 17.125-12.659 24.163-8.67a1.13 1.13 0 0 0 1.524-.416 1.12 1.12 0 0 0-.388-1.551"/>
    <path fill="#2E2E2E" d="M218.463 374.365c.36.499 1.053.637 1.552.277 14.991-10.609 11.472-22.603 11.333-23.129-.138-.443-.554-.776-1.025-.776-38.683-1.302-61.903 10.886-67.03 35.456-1.136 5.485 0 10.249 3.409 14.183 9.088 10.526 32.697 12.243 40.622 12.243.776 0 1.413-.028 1.857-.055 2.881-.167 3.934-2.41 6.04-6.842 1.303-2.77 3.104-6.538 6.096-11.524.305-.526.139-1.218-.388-1.523-.526-.332-1.219-.139-1.524.388-3.048 5.069-4.849 8.919-6.179 11.717-1.967 4.155-2.66 5.484-4.156 5.568-.305.027-30.315.526-40.65-11.441-2.91-3.379-3.908-7.506-2.91-12.271 5.265-25.151 29.622-32.575 52.898-33.627 0 0 .942 19.39.36 19.805-.554.332-.665 1.053-.305 1.551"/>
    <path fill="#2E2E2E" d="M193.358 357.219c-.056 0-.139 0-.194-.028a1.127 1.127 0 0 1-.915-1.302c1.109-6.537 5.293-39.971-21.197-56.092a1.15 1.15 0 0 1-.388-1.551 1.15 1.15 0 0 1 1.551-.388c21.503 13.074 25.576 38.724 22.251 58.391-.111.582-.582.97-1.108.97M460.867 243.4c3.519-2.742 7.87-6.177 7.066-11.163-.083-.527-.36-2.161-1.801-2.715-2.438-.914-6.539 1.718-19.951 12.798-18.067 14.958-28.264 50.524-30.065 77.199-.305 4.654-.554 8.948-.803 12.853-1.247 21.08-1.885 31.634-7.925 32.188-5.819.581-13.162-15.346-20.228-30.692-1.829-4.016-3.714-8.116-5.653-12.133-10.89-22.575-25.77-43.766-60.684-45.843a1.04 1.04 0 0 0-.832.305 2 2 0 0 0-.221.277c.72 1.08 1.413 2.16 2.105 3.268v-1.523c32.92 2.41 47.162 22.797 57.609 44.486 1.94 4.016 3.824 8.116 5.653 12.105 8.202 17.839 14.714 31.993 21.946 31.993.166 0 .332 0 .499-.027 7.98-.693 8.59-11.219 9.975-34.265.222-3.906.499-8.172.804-12.825 1.773-26.232 11.665-61.079 29.233-75.621 5.542-4.599 15.85-13.158 17.735-12.438.11.028.277.305.388.97.581 3.684-2.882 6.399-6.235 9.03-2.716 2.133-5.293 4.155-5.487 6.703-.138 1.829.942 3.352 2.106 4.959 2.55 3.545 5.708 7.922-1.551 18.753-.333.526-.194 1.218.304 1.551.527.36 1.22.194 1.552-.305 8.119-12.105 4.129-17.645 1.496-21.301-.997-1.357-1.773-2.465-1.69-3.463.139-1.579 2.328-3.296 4.655-5.124"/>
    <path fill="#2E2E2E" d="M456.102 252.486c-.527 0-.998-.36-1.109-.914-.11-.61.278-1.192.887-1.302 6.844-1.358 13.107-3.103 18.621-4.682 10.391-2.936 17.928-5.041 21.614-2.105 1.662 1.33 2.41 3.546 2.244 6.759-.028.609-.609 1.108-1.191 1.053-.61-.028-1.081-.554-1.053-1.192.138-2.437-.333-4.044-1.386-4.902-2.798-2.244-10.225-.139-19.591 2.52-5.569 1.579-11.887 3.352-18.814 4.709-.056.056-.139.056-.222.056"/>
    <path fill="#2E2E2E" d="M470.483 259.604c-.444 0-.859-.277-1.053-.72a1.103 1.103 0 0 1 .637-1.44c21.004-8.172 29.455-10.028 32.282-7.036 1.274 1.357 1.219 3.435-.139 6.399-.249.554-.942.803-1.496.554-.554-.25-.804-.914-.554-1.496.886-1.939 1.08-3.352.526-3.933-2.798-2.937-21.724 4.432-29.843 7.589-.083.056-.222.083-.36.083"/>
    <path fill="#2E2E2E" d="M475.082 266.363c-.471 0-.914-.305-1.08-.803-.166-.582.166-1.219.748-1.385 6.235-1.884 11.333-3.629 15.434-5.042 9.532-3.296 13.883-4.819 16.072-1.911.942 1.274 1.33 2.576 1.108 3.85-.332 1.939-1.912 3.02-2.078 3.131a1.12 1.12 0 0 1-1.552-.333 1.12 1.12 0 0 1 .333-1.551s.942-.637 1.108-1.662c.111-.637-.138-1.357-.693-2.105-1.191-1.579-5.846.027-13.55 2.687-4.128 1.412-9.227 3.185-15.517 5.069-.111.055-.222.055-.333.055"/>
    <path fill="#2E2E2E" d="M412.182 432.868a59 59 0 0 1-9.31-.748c-20.173-3.185-37.824-16.121-47.218-34.569a1.11 1.11 0 0 1 .499-1.496 1.11 1.11 0 0 1 1.497.498c9.088 17.811 26.13 30.304 45.582 33.379 16.182 2.548 31.838-1.884 41.869-11.911 22.307-22.299 19.647-84.153 18.649-107.448-.72-17.119 6.761-21.662 14.714-26.509 1.025-.61 2.05-1.247 3.103-1.912 3.27-2.105 7.842-4.072 12.248-6.011 6.013-2.603 12.83-5.567 13.633-7.977.111-.333.083-.61-.111-.97-1.551-2.687-2.022-2.631-10.335.748-3.88 1.579-9.2 3.74-16.792 6.316a1.115 1.115 0 0 1-1.414-.693 1.114 1.114 0 0 1 .693-1.412c7.537-2.549 12.802-4.709 16.654-6.288 8.091-3.297 10.529-4.294 13.106.221.499.887.61 1.829.305 2.77-1.108 3.352-7.481 6.122-14.852 9.308-4.323 1.883-8.812 3.822-11.943 5.817-1.053.664-2.106 1.329-3.159 1.939-8.008 4.875-14.298 8.697-13.633 24.486.997 23.545 3.685 86.12-19.314 109.111-8.534 8.67-21.004 13.351-34.471 13.351"/>
    <path fill="#2E2E2E" d="M363.911 405.888c-.526 0-.97-.36-1.081-.886-3.02-13.989 4.517-25.54 9.283-31.191 7.87-9.307 19.064-15.484 27.266-15.179.61.028 1.109.554 1.081 1.163-.028.61-.554 1.108-1.164 1.081-7.564-.416-18.011 5.595-25.465 14.404-4.489 5.318-11.638 16.204-8.812 29.278.139.61-.249 1.192-.859 1.33z"/>
    <path fill="#2E2E2E" d="M376.547 418.824c-7.51-7.784-10.225-19.224-13.661-33.739-2.383-10.027-5.071-21.384-9.92-33.6a1.105 1.105 0 0 0-1.22-.692 1.12 1.12 0 0 0-.942 1.052l-.997 22.714c0 .139 0 .25.055.36 0 0 .333 1.081.914 2.826.111.36.472.665.859.748.361.083.721.166 1.081.221l.471.056c.554 0 1.164-.167 1.746-.333.166-.055.388-.111.61-.166.387 5.097.72 14.238.471 18.781 0 .194.027.387.11.554 4.046 8.06 11.749 18.697 19.065 22.908.166.11.36.138.554.138.332 0 .665-.138.887-.443.332-.36.304-.997-.083-1.385m-155.841-17.673c-.444 0-.887-.277-1.053-.72a1.117 1.117 0 0 1 .665-1.44c11.998-4.432 20.948-19.473 22.14-21.579 0-5.512-.277-85.039-6.955-96.922a1.12 1.12 0 0 1 .415-1.523 1.13 1.13 0 0 1 1.524.415c7.177 12.77 7.232 94.817 7.232 98.307 0 .194-.055.36-.138.527-.388.72-9.865 17.838-23.47 22.852a.76.76 0 0 1-.36.083m119.485-22.354h-85.457a1.1 1.1 0 0 1-.804-.332 1.1 1.1 0 0 1-.332-.803c.388-30.443-.416-90.275-6.152-98.779-.332-.526-.221-1.218.305-1.551a1.094 1.094 0 0 1 1.552.305c7.149 10.637 6.65 88.114 6.539 98.917h83.268c.333-9.695 2.605-81.383-2.632-96.286a1.113 1.113 0 0 1 .692-1.412 1.157 1.157 0 0 1 1.441.692c5.708 16.316 2.827 94.845 2.716 98.169a1.13 1.13 0 0 1-1.136 1.08"/>
    <path fill="#2E2E2E" d="M356.623 423.422c-.61 0-1.109-.471-1.109-1.08l-1.33-43.545h-3.436c-.304 0-.609-.138-.803-.36s-.333-.526-.305-.831c.055-.775 4.046-78.418-3.491-93.432a1.11 1.11 0 0 1 .498-1.496 1.11 1.11 0 0 1 1.497.499c7.343 14.709 4.267 83.128 3.768 93.377h3.353c.61 0 1.108.471 1.108 1.08l1.358 44.625c.028.609-.471 1.135-1.08 1.163zm-102.082-44.625h-11.14a1.11 1.11 0 0 1-1.108-1.108c0-.609.499-1.108 1.108-1.108h11.14c.609 0 1.108.499 1.108 1.108.028.61-.471 1.108-1.108 1.108"/>
    <path fill="#2E2E2E" d="M351.191 378.797h-11.139c-.61 0-1.109-.498-1.109-1.108 0-.609.499-1.108 1.109-1.108h11.139c.61 0 1.108.499 1.108 1.108a1.11 1.11 0 0 1-1.108 1.108m-74.04 49.805a1.14 1.14 0 0 1-.527-.139 1.105 1.105 0 0 1-.443-1.523l10.973-19.916c.305-.554.97-.748 1.524-.444.554.305.748.97.443 1.524l-10.973 19.916a1.14 1.14 0 0 1-.997.582m-55.586-33.711-2.189-43.046c-.028-.609-.582-1.163-1.164-1.052a1.113 1.113 0 0 0-1.053 1.163l2.245 43.711a25 25 0 0 1 2.161-.776"/>
</svg>
