<svg xmlns="http://www.w3.org/2000/svg" width="486" height="300" fill="none">
    <path fill="#fff" d="M0 0h486v300H0z"/>
    <path fill="#E0E0E0" d="M329.951 74.07 284.89 92.042c4.751 14.734 14.566 27.535 28.859 34.931a53.16 53.16 0 0 0 22.882 5.933z"/>
    <path fill="#CCC" d="m83.339 146.878 5.336-3.2 4.81 6.42-5.083 3.201zm64.399 83.874 27.048-84.713 24.615-3.571 10.983 89.162-12.346-.254-3.194-35.731-28.1.254L158 231.63zm121.242-56.397 2.473 6.088s14.021-3.981 17.409.195c2.882 3.571 3.369 9.718 3.369 9.718s-16.689 1.484-17.39 17.31 11.86 4.547 20.973.683l1.48 3.181 8.783-2.108s-3.856-15.475-6.329-26.735c-2.454-11.26-13.904-16.08-30.768-8.332m91.623-88.772c-2.61-3.552-5.239-7.123-7.848-10.674-.584-.8-1.947-.02-1.344.8 2.61 3.551 5.239 7.123 7.848 10.674.584.8 1.947.02 1.344-.8"/>
    <path fill="#CCC" d="m360.798 75.748-10.146 7.786c-.779.605-.02 1.971.798 1.347 3.389-2.596 6.758-5.191 10.146-7.787.779-.604 0-1.97-.798-1.346m-36.435-44.376-6.952 11.28c-.526.858.817 1.639 1.343.8 2.318-3.767 4.635-7.514 6.952-11.28.546-.878-.818-1.659-1.343-.8"/>
    <path fill="#2E2E2E" d="M104.234 97.702h-.078a.84.84 0 0 1-.545-.293l-16.202-20.9c-.137-.156-.175-.37-.156-.585a.8.8 0 0 1 .292-.527l37.039-28.862a.7.7 0 0 1 .584-.156.8.8 0 0 1 .526.292l15.033 19.378c.253.332.214.8-.117 1.073l-35.87 30.385a.82.82 0 0 1-.506.195M89.123 76.158l15.228 19.631 34.663-29.369-14.099-18.168z"/>
    <path fill="#2E2E2E" d="M147.115 44.603c-.156-.195-.429-.293-.682-.293l-21.46 2.069a.78.78 0 0 0-.642.468.8.8 0 0 0 .097.8l15.034 19.378c.155.195.37.312.623.312.039 0 .097 0 .136-.02a.76.76 0 0 0 .604-.546l6.445-21.427a.79.79 0 0 0-.155-.741m-7.342 20.256-13.242-17.056 9.25-.878 6.757 8.704z"/>
    <path fill="#2E2E2E" d="M100.846 93.33a.8.8 0 0 1-.585-.273.78.78 0 0 1 .078-1.112l34.449-30.052a.777.777 0 0 1 1.11.078.78.78 0 0 1-.078 1.112l-34.449 30.052a.8.8 0 0 1-.525.196Zm-7.361-9.484a.76.76 0 0 1-.623-.312c-.273-.332-.195-.839.136-1.093l37.038-28.862a.773.773 0 0 1 1.091.137c.273.332.195.84-.136 1.093L93.952 83.67a.73.73 0 0 1-.467.175Z"/>
    <path fill="#2E2E2E" d="M97.71 100.043q-.613 0-1.226-.058c-3-.332-5.667-1.795-7.537-4.176l-3.544-4.489a11.06 11.06 0 0 1-2.317-8.254c.35-2.986 1.85-5.64 4.225-7.474l.234-.176c.35-.273.837-.215 1.09.137.273.332.195.839-.136 1.093l-.233.175a9.56 9.56 0 0 0-3.622 6.42c-.312 2.557.409 5.074 2.005 7.104l3.545 4.488a9.53 9.53 0 0 0 6.465 3.59 9.52 9.52 0 0 0 7.088-2.107.78.78 0 0 1 1.11.117.777.777 0 0 1-.117 1.093c-2.025 1.64-4.479 2.517-7.03 2.517m144.747 168.938h-.097l-105.586-13.212a.77.77 0 0 1-.681-.722l-3.856-47.81a.783.783 0 0 1 .72-.839c.429-.039.468-2.147.507-1.718l4.148 49.606 104.027 13.016-6.952-146.436-109.052-14.656 5.2 64.301c.039.429-.292.8-.721.839a.8.8 0 0 1-.837-.722L124 105.352a.8.8 0 0 1 .233-.625.86.86 0 0 1 .643-.215l110.648 14.871c.37.058.662.37.682.741l7.03 148.018a.73.73 0 0 1-.253.605.7.7 0 0 1-.526.234"/>
    <path fill="#2E2E2E" d="M242.457 268.981a.775.775 0 0 1-.76-.644.77.77 0 0 1 .585-.898l102.937-25.154-10.867-95.758a.76.76 0 0 1 .682-.858c.448-.04.818.253.857.683l10.944 96.44a.81.81 0 0 1-.584.859l-10.107 2.478.234 11.787c0 .41-.293.741-.701.8L242.554 269c-.039-.019-.058-.019-.097-.019m92.129-22.501-80.211 19.613 80.445-8.88zM162.674 228.8h-.058l-10.263-.878a.8.8 0 0 1-.584-.351.77.77 0 0 1-.097-.683l27.068-84.713a.81.81 0 0 1 .623-.546l24.614-3.571c.215-.02.429.019.585.156a.73.73 0 0 1 .292.527l11.002 89.162a.8.8 0 0 1-.195.624.78.78 0 0 1-.603.254l-12.366-.254c-.389 0-.72-.312-.759-.722l-3.116-35.009-26.776.234-8.607 35.146c-.098.39-.409.624-.76.624m40.758-1.795 10.749.215-10.788-87.484-23.329 3.396-26.62 83.307 8.626.742 8.608-35.087c.078-.352.389-.586.759-.605l28.1-.254c.409 0 .74.312.779.722z"/>
    <path fill="#2E2E2E" d="M283.702 213.052c-.896 0-1.714-.195-2.434-.644-1.909-1.171-2.727-3.922-2.532-8.372.643-14.304 13.904-17.387 17.312-17.953-.234-1.698-.974-5.932-3.096-8.547-2.512-3.103-12.833-1.015-16.592.058a.765.765 0 0 1-.934-.468l-2.474-6.089a.8.8 0 0 1 .39-1.014c9.347-4.294 17.779-5.016 23.777-2.03 4.187 2.108 6.991 5.874 8.101 10.909 2.434 11.123 6.27 26.559 6.309 26.715.059.195.02.41-.097.605a.8.8 0 0 1-.487.351l-8.782 2.108a.8.8 0 0 1-.896-.429l-1.169-2.498c-1.772.8-3.68 1.873-5.53 2.888-4.031 2.264-7.887 4.41-10.866 4.41m3.466-38.736c2.921 0 5.628.546 6.991 2.224 2.999 3.708 3.505 9.894 3.525 10.148a.78.78 0 0 1-.701.839c-.662.059-16.008 1.62-16.67 16.568-.175 3.786.429 6.128 1.792 6.986 2.317 1.444 7.108-1.21 11.742-3.786 2.123-1.19 4.343-2.4 6.368-3.278.39-.156.838 0 1.013.39l1.227 2.615 7.4-1.776c-.818-3.259-4.012-16.275-6.134-25.993-.994-4.547-3.506-7.962-7.264-9.835-5.394-2.693-13.106-2.088-21.733 1.736l1.928 4.743c1.772-.488 6.368-1.581 10.516-1.581"/>
    <path fill="#CCC" d="M257.335 228.8a.76.76 0 0 1-.448-.136.75.75 0 0 1-.331-.566l-6.894-61.178a.784.784 0 0 1 .545-.839l13.807-4.411a.766.766 0 0 1 .974.508.77.77 0 0 1-.506.976l-13.184 4.215 6.718 59.636 13.457-3.708a.78.78 0 0 1 .954.547.785.785 0 0 1-.545.956l-14.333 3.961c-.078.039-.156.039-.214.039m65.314-20.88a.77.77 0 0 1-.76-.625.78.78 0 0 1 .604-.936l8.218-1.776-5.005-42.074a.79.79 0 0 1 .682-.878.787.787 0 0 1 .876.683l5.102 42.796c.039.409-.214.78-.604.858l-8.918 1.913c-.078.039-.137.039-.195.039m-54.175 29.701a.79.79 0 0 1-.76-.586.796.796 0 0 1 .565-.956l58.635-15.007c.428-.117.837.137.954.566a.8.8 0 0 1-.565.957l-58.635 15.006c-.058 0-.117.02-.194.02m-49.502 18.207a.73.73 0 0 1-.643-.352.81.81 0 0 1 .214-1.092l10.146-6.811-10.262-10.186a.78.78 0 0 1 0-1.113.775.775 0 0 1 1.11 0l10.944 10.85a.75.75 0 0 1 .233.625.74.74 0 0 1-.35.566l-10.944 7.337a.7.7 0 0 1-.448.176"/>
    <path fill="#2E2E2E" d="M232.486 119.656a.79.79 0 0 0-.681-.761l-14.936-2.01a.72.72 0 0 0-.623.195.75.75 0 0 0-.254.605l2.201 51.479a.81.81 0 0 0 .779.761.7.7 0 0 0 .565-.254l8.587-9.171 4.324 6.752a.8.8 0 0 0 .895.331.764.764 0 0 0 .546-.78zm54.877 86.332c-.779 0-1.48-.176-2.025-.605-.799-.625-1.149-1.464-1.052-2.439.37-3.474 6.894-8.079 13.184-11.104a.788.788 0 0 1 1.09.507l1.675 6.342a.79.79 0 0 1-.273.82c-1.538 1.229-8.393 6.479-12.599 6.479m9.951-12.314c-6.348 3.181-11.217 7.162-11.451 9.445-.038.429.098.742.468 1.034 1.791 1.386 8.12-2.302 12.288-5.542zm-123.852-6.927a.73.73 0 0 1-.603-.293.79.79 0 0 1-.156-.683l9.152-36.57a.8.8 0 0 1 .643-.586l14.664-2.303a.74.74 0 0 1 .623.176.82.82 0 0 1 .292.586l1.266 38.15c0 .215-.078.41-.215.566a.8.8 0 0 1-.545.254l-25.082.703zm9.796-36.668-8.783 35.067 23.271-.663-1.208-36.492zm52.188-29.116a.78.78 0 0 1-.72-.488.786.786 0 0 1 .428-1.015l92.519-36.882a.7.7 0 0 1 .682.059.72.72 0 0 1 .37.585l2.882 25.349a.76.76 0 0 1-.682.859c-.428.039-.818-.254-.857-.683l-2.765-24.335-91.564 36.512c-.098.02-.195.039-.293.039"/>
    <path fill="#CCC" d="M161.097 152.479a.9.9 0 0 1-.39-.097l-20.213-11.631a.79.79 0 0 1-.39-.722.8.8 0 0 1 .468-.683l20.213-8.626c.39-.175.857.02 1.032.41.175.391-.019.859-.409 1.035l-18.772 8 18.85 10.851c.37.214.506.702.292 1.073a.79.79 0 0 1-.681.39"/>
    <path fill="#2E2E2E" d="M236.303 115.421a.78.78 0 0 1-.779-.781c0-.429.351-.78.779-.78 2.181 0 3.934-.586 4.791-1.6.506-.586.681-1.327.525-2.206-.35-2.088-4.771-3.024-6.29-3.18a.785.785 0 0 1-.701-.781V95.965c0-.43.351-.78.779-.78a.78.78 0 0 1 .779.78v9.425c1.85.293 6.446 1.327 6.952 4.391.215 1.327-.078 2.537-.876 3.474-1.129 1.385-3.31 2.166-5.959 2.166m7.77-21.622v2.224c0 2.85 4.421 2.85 4.421 0v-2.205c0-2.849-4.421-2.868-4.421-.02Zm-29.522 0v2.224c0 2.85 4.421 2.85 4.421 0v-2.205c0-2.849-4.421-2.868-4.421-.02Zm2.396-10.265c-1.792.273-3.544.644-5.239 1.269-1.324.487-.331 2.459.993 1.97 1.519-.546 3.116-.838 4.713-1.073 1.402-.214.935-2.38-.467-2.166m32.501.449c-1.344-.176-2.726-.117-4.051-.39-1.382-.293-2.083 1.795-.701 2.088 1.519.312 3.058.293 4.596.507 1.422.195 1.558-2.03.156-2.205"/>
    <path fill="#2E2E2E" d="M287.11 90.403c-3.33-6.166-9.873-9.777-16.728-8.996-.078-7.689-1.402-17.173-10.341-21.72a25.7 25.7 0 0 0-4.362-5.386c-5.141-6.771-14.449-10.089-28.119-10.089-14.177 0-23.992 3.103-29.756 9.582-10.146 1.561-17.818 9.367-19.376 19.924-13.709-4.156-27.36 2.108-36.941 12.177-5.044 5.289-9.815 13.485-8.374 20.491l64.321 8.645c.02-.02.02-.04.02-.04 0-.058.019-.136.019-.195a.77.77 0 0 0 .331-.624c.02-3.864-1.012-6.928-1.071-7.064-.117-.332-.389-.547-.779-.527-3.895.156-6.971-.722-8.86-2.557-1.733-1.678-2.006-3.61-2.006-4.605 0-1.132.312-2.79 1.792-4.196 2.395-2.283 7.146-3.298 13.767-2.966.312.02.877-.273 1.441-.468 10.594-4.645 14.995-30.287 14.995-30.287 4.615 4.274 30.262 12.84 41.887 14.46.039 1.679.059 3.318.098 4.918.214 10.83.272 21.642.019 29.623-.019.429 1.052-.351 1.032-.215-.039.547 2.396-.956 5.395-2.146l23.855-9.504c-.156-2.81-.857-5.6-2.259-8.235"/>
    <path fill="#2E2E2E" d="M216.207 103.419c-1.5 0-3.019-.351-4.421-1.053-3.719-1.854-5.861-5.66-5.9-10.421 0-.43.35-.78.779-.78.428 0 .779.35.779.78.019 4.156 1.85 7.435 5.024 9.015 2.707 1.347 5.92 1.152 8.14-.526 2.551-1.913 3.505-5.367 2.745-9.719a.797.797 0 0 1 .624-.917c.428-.058.837.215.915.625 1.188 6.693-1.577 9.913-3.33 11.24-1.519 1.171-3.408 1.756-5.355 1.756m31.294-1.268a8.4 8.4 0 0 1-3.837-.937c-3.466-1.756-5.452-5.64-5.452-10.655 0-.43.35-.78.779-.78.428 0 .779.35.779.78 0 4.391 1.674 7.767 4.595 9.25 2.298 1.171 5.024.976 7.089-.546 2.512-1.835 3.583-5.27 2.921-9.387a.765.765 0 0 1 .642-.897.79.79 0 0 1 .896.644c.76 4.722-.545 8.703-3.544 10.908a8.02 8.02 0 0 1-4.868 1.62"/>
    <path fill="#2E2E2E" d="M224.424 95.692a.79.79 0 0 1-.681-.41.785.785 0 0 1 .311-1.073c.331-.176 8.179-4.41 15.307-1.015a.764.764 0 0 1 .37 1.034.78.78 0 0 1-1.052.37c-6.387-3.043-13.807.938-13.865.977a.64.64 0 0 1-.39.117m176.684 77.199c-9.056-52.787-27.906-62.856-46.912-65.861-25.686-4.079-44.341 6.517-55.422 31.516-5.881 13.269-5.316 16.314-3.972 17.563 1.324 1.248 3.524.312 5.063-.508 3.427-1.815 4.518-4.82 5.569-7.728.565-1.58 1.169-3.219 2.142-4.683 0-.059 0-.137.02-.215.214-.644.428-1.307.604-1.971 0-.019.019-.058.019-.078a.804.804 0 0 0-1.013.137c-1.713 1.932-2.512 4.137-3.271 6.264-1.032 2.869-1.928 5.327-4.83 6.869-2.336 1.249-3.057.937-3.252.742-.564-.527-1.265-3.123 4.343-15.788 10.749-24.256 28.84-34.56 53.747-30.598 18.441 2.927 36.727 12.782 45.626 64.593 4.265 24.9 1.227 44.063-9.035 57.002-13.768 17.348-38.032 20.646-55.11 21.622a.78.78 0 0 0-.74.819c.019.41.37.742.778.742h.039c17.371-.995 42.083-4.371 56.24-22.208 10.574-13.289 13.709-32.882 9.367-58.231"/>
    <path fill="#2E2E2E" d="M313.75 153.337c-.059 0-.117 0-.176-.019-4.284-.976-6.757-2.615-7.575-5.035-1.305-3.844 1.5-9.464 9.698-19.417a.775.775 0 0 1 1.11-.097c.331.273.37.761.097 1.112-7.692 9.328-10.515 14.694-9.425 17.914.623 1.854 2.746 3.162 6.446 4.02a.77.77 0 0 1 .584.937.81.81 0 0 1-.759.585"/>
    <path fill="#2E2E2E" d="M320.818 156.382h-.058c-4.537-.391-7.342-1.952-8.315-4.664-2.279-6.206 5.998-15.495 9.659-19.183a.775.775 0 0 1 1.11 0 .78.78 0 0 1 0 1.112c-7.089 7.162-10.652 13.875-9.309 17.544.76 2.068 3.116 3.298 6.991 3.63.429.039.74.409.721.839-.059.409-.39.722-.799.722"/>
    <path fill="#2E2E2E" d="M342.726 213.032h-.175a.78.78 0 0 1-.74-.819.795.795 0 0 1 .818-.742c.584.039 14.157.469 15.403-18.968 1.285-19.866-2.57-36.59-10.827-47.069a6.24 6.24 0 0 0-4.596-2.381 6.42 6.42 0 0 0-4.907 1.913c-3.233 3.298-5.531 5.347-6.855 6.069-.779.429-1.227.858-1.285 1.21-.078.527.623 1.307 1.266 2.01.564.605 1.129 1.249 1.46 1.951.526 1.132.02 2.517-1.227 3.474-1.791 1.346-5.199 1.795-8.919-1.386-6.036-5.171-2.142-11.396 4.304-21.68a.79.79 0 0 1 1.071-.254c.37.234.468.722.253 1.073-6.854 10.928-9.425 15.514-4.615 19.651 3.018 2.596 5.628 2.342 6.952 1.327.643-.488.954-1.132.76-1.561-.215-.488-.721-1.034-1.188-1.542-.877-.956-1.87-2.029-1.656-3.317.137-.878.818-1.639 2.065-2.342.818-.449 2.609-1.834 6.504-5.796a7.96 7.96 0 0 1 6.095-2.38 7.84 7.84 0 0 1 5.745 2.985c8.51 10.792 12.463 27.906 11.158 48.143-1.266 19.807-15.131 20.431-16.864 20.431m-46.795-78.311a5.83 5.83 0 0 1-3.349-1.054c-1.052-.722-1.188-1.62-1.13-2.264.546-5.815 22.375-15.533 24.848-16.626.39-.176 2.045-1.054 2.22-.644.176.39-1.187 1.912-1.596 2.088-13.359 5.854-23.661 12.45-23.914 15.338-.019.235.02.508.468.82 2.473 1.698 5.102.293 7.224-.839.662-.351 1.247-.664 1.772-.859a.784.784 0 0 1 .507 1.483c-.409.137-.935.43-1.558.761-1.461.742-3.408 1.796-5.492 1.796"/>
    <path fill="#2E2E2E" d="M369.152 162.841c-4.966 0-9.834-1.073-13.787-3.278a.79.79 0 0 1-.293-1.074.813.813 0 0 1 1.072-.312c8.393 4.703 21.81 3.864 29.891-1.873 3.33-2.362 7.089-6.499 6.018-12.802a.764.764 0 0 1 .642-.897c.429-.059.838.214.896.644.935 5.542-1.421 10.635-6.66 14.343-4.888 3.473-11.411 5.249-17.779 5.249m-233.371 83.873a.8.8 0 0 1-.409-.117c-12.249-7.318-19.941-17.407-22.881-30.033-3.915-16.723 1.752-33.603 8.334-43.829 1.013-1.581 1.85-3.493 2.668-5.328 1.5-3.415 2.921-6.634 5.394-8a.78.78 0 0 1 1.071.312.774.774 0 0 1-.311 1.054c-2.025 1.112-3.33 4.098-4.713 7.259-.837 1.912-1.694 3.883-2.784 5.562-6.407 9.952-11.918 26.383-8.121 42.619 2.843 12.197 10.302 21.954 22.161 29.038a.79.79 0 0 1-.409 1.463"/>
    <path fill="#2E2E2E" d="M133.522 214.184c-.292 0-.545-.156-.701-.43-2.415-4.625-1.402-8.118.35-9.835 1.753-1.717 4.382-2.01 6.68-.742 4.07 2.225 6.154 1.913 6.582 1.171.584-1.053-.935-4.527-7.264-8.098-2.707-1.542-5.199-1.854-7.419-.956-3.272 1.327-5.959 5.288-7.77 11.455a.79.79 0 0 1-.974.527c-.409-.118-.642-.566-.525-.976 1.947-6.655 4.946-10.967 8.685-12.47 2.687-1.093 5.628-.741 8.763 1.034 6.757 3.845 9.074 8.06 7.867 10.226-.857 1.561-3.603 2.244-8.685-.546-1.694-.937-3.603-.742-4.849.487-1.344 1.327-2.064 4.118-.058 8.001.194.391.058.859-.331 1.054a.8.8 0 0 1-.351.098"/>
    <path fill="#2E2E2E" d="M120.027 200.621a.803.803 0 0 1-.76-1.015c1.753-5.698 4.869-9.796 9.017-11.865 3.641-1.814 7.945-1.951 12.132-.409 6.523 2.4 9.892 4.664 10.262 6.947.117.741-.019 1.834-1.344 2.927-2.317 1.893-5.725 1.815-5.881 1.795-.428-.019-.778-.37-.759-.8.019-.429.37-.722.798-.761.02 0 2.999.059 4.849-1.444.916-.741.818-1.268.779-1.444-.117-.761-1.285-2.81-9.269-5.737-3.778-1.386-7.653-1.269-10.905.351-3.759 1.873-6.602 5.64-8.218 10.928-.059.312-.37.527-.701.527"/>
    <path fill="#2E2E2E" d="M117.632 194.825a.63.63 0 0 1-.331-.078.76.76 0 0 1-.37-1.034c7.614-16.236 13.573-15.319 19.356-14.441 5.472.839 13.593 3.474 13.807 7.377.156 3.044-2.551 4.41-3.992 4.703a.78.78 0 0 1-.915-.605.753.753 0 0 1 .603-.917c.117-.02 2.882-.644 2.746-3.084-.117-2.419-6.524-4.995-12.424-5.893-5.492-.839-10.633-1.62-17.76 13.543a.83.83 0 0 1-.72.429"/>
    <path fill="#2E2E2E" d="M116.249 184.229a.64.64 0 0 1-.331-.078.763.763 0 0 1-.37-1.034c6.855-14.617 13.573-13.309 18.967-12.256.623.117 1.227.235 1.811.332 5.414.82 13.554 3.474 13.749 7.377.155 3.044-2.552 4.41-3.993 4.703-.428.078-.837-.176-.915-.605a.755.755 0 0 1 .604-.918c.117-.019 2.882-.643 2.746-3.083-.117-2.42-6.524-4.996-12.424-5.893-.604-.098-1.227-.215-1.87-.332-5.121-.995-10.905-2.147-17.253 11.377a.87.87 0 0 1-.721.41"/>
</svg>
