<svg xmlns="http://www.w3.org/2000/svg" width="486" height="300" fill="none">
    <path fill="#fff" d="M0 0h486v300H0z"/>
    <path fill="#CCC" d="M375.584 123.56c-92.585 19.631-119.228 80.511-122.182 138.297l122.182-1.069V123.56Z"/>
    <path fill="#E0E0E0" d="m208.271 147.564-97.788-15.067 18.582 37.754h90.146l-10.94-22.687Z"/>
    <path fill="#F5F5F5" d="M105.071 159.919c0 3.629-1.411 6.703-6.575 6.703-3.622 0-6.576-3.074-6.576-6.703 0-3.628 2.935-6.588 6.576-6.588a6.583 6.583 0 0 1 6.575 6.588Z"/>
    <path fill="#D5D5D5" d="M101.068 82.922c0 3.628-1.41 6.703-6.575 6.703-3.62 0-6.575-3.075-6.575-6.703s2.935-6.588 6.575-6.588c3.64.019 6.575 2.96 6.575 6.588Z"/>
    <path fill="#2E2E2E" d="M301.886 211.289a.78.78 0 0 1-.591-.267.828.828 0 0 1-.191-.668l7.967-45.469a.774.774 0 0 1 .743-.65l92.376-3.246c.228-.019.457.095.61.267a.787.787 0 0 1 .19.65l-6.118 43.291a.812.812 0 0 1-.743.688l-94.205 5.404h-.038Zm8.633-45.488-7.68 43.846 92.566-5.309 5.908-41.726-90.794 3.189Z"/>
    <path fill="#2E2E2E" d="M326.242 257.427h-.076a.794.794 0 0 1-.724-.86l4.098-47.779c.038-.44.4-.783.857-.726.439.038.762.42.724.859l-4.097 47.78a.788.788 0 0 1-.782.726Zm5.68-.077h-.076a.789.789 0 0 1-.706-.859l4.727-48.066a.778.778 0 0 1 .857-.707.79.79 0 0 1 .706.86l-4.727 48.066c-.019.401-.362.706-.781.706Zm38.669-.649h-.076a.793.793 0 0 1-.724-.859l4.307-49.613a.803.803 0 0 1 .857-.726c.439.038.763.42.725.859l-4.308 49.613a.776.776 0 0 1-.781.726Zm5.698-.077h-.076a.789.789 0 0 1-.705-.859l4.936-49.536a.789.789 0 0 1 .858-.707.789.789 0 0 1 .705.859l-4.936 49.537a.785.785 0 0 1-.782.706ZM163.237 140.365c-.077 0-.134 0-.21-.019-.324-.096-.553-.363-.572-.688L158.32 93.33a.82.82 0 0 1 .19-.592.772.772 0 0 1 .572-.268l74.708-1.451c.229 0 .439.096.61.267a.762.762 0 0 1 .191.63l-4.04 34.107c-.039.401-.382.688-.782.707l-57.003.859-8.9 12.451a.796.796 0 0 1-.629.325Zm-3.278-46.329 3.868 43.33 7.891-11.037a.767.767 0 0 1 .628-.325l56.699-.859 3.85-32.522-72.936 1.413Z"/>
    <path fill="#2E2E2E" d="M176.082 109.084a.781.781 0 0 1-.781-.764.79.79 0 0 1 .762-.821l35.582-1.298c.419-.038.8.324.819.764a.79.79 0 0 1-.762.821l-35.582 1.298h-.038Zm1.582 9.568c-.42 0-.782-.344-.782-.764a.79.79 0 0 1 .763-.821l32.951-1.108c.382-.019.801.325.82.764a.79.79 0 0 1-.762.821l-32.971 1.108h-.019Zm-16.562-2.158a.809.809 0 0 1-.705-.42l-7.204-13.368-43.51 1.814a.785.785 0 0 1-.82-.744l-2.382-35.73a.775.775 0 0 1 .191-.573.846.846 0 0 1 .552-.267l66.952-4.068c.21 0 .438.058.591.21a.83.83 0 0 1 .248.573v27.881c0 .44-.362.783-.782.783a.798.798 0 0 1-.781-.783V64.78l-65.313 3.973 2.268 34.163 43.243-1.795c.324-.038.591.153.724.42l7.433 13.788a.792.792 0 0 1-.705 1.165Z"/>
    <path fill="#2E2E2E" d="M160.264 77.652h-38.746a.786.786 0 0 1-.781-.783c0-.42.362-.783.781-.783h38.746c.438 0 .781.362.781.783 0 .42-.343.783-.781.783Zm-19.516 10.579h-19.249a.786.786 0 0 1-.781-.783c0-.439.362-.783.781-.783h19.249c.438 0 .781.363.781.783.019.44-.343.783-.781.783Zm140.002-1.318c-.514 1.089-1.486 2.426-2.858 2.101-.991-.23-1.449 1.28-.458 1.509 2.097.496 3.793-.974 4.669-2.77.42-.897-.914-1.756-1.353-.84Zm-10.082-3.132c-2.172 0-4.021-.668-4.974-1.795-.591-.706-.838-1.566-.667-2.501.458-2.77 5.165-3.361 5.699-3.419.419-.057.819.268.876.707a.807.807 0 0 1-.705.878c-1.315.153-4.097.84-4.307 2.101-.076.477.019.86.324 1.222.629.745 2.115 1.242 3.773 1.242.439 0 .782.362.782.782 0 .42-.362.783-.801.783Zm6.194-14.246v1.585c0 2.044-3.163 2.044-3.163 0v-1.585c0-2.043 3.163-2.043 3.163 0Zm-3.011-9.319c.934.268 1.811.707 2.764.898.991.21.857 1.795-.134 1.585-1.086-.23-2.096-.688-3.163-.993-.972-.287-.439-1.776.533-1.49Z"/>
    <path fill="#2E2E2E" d="M297.788 108.473a.787.787 0 0 0-.705-.171c-.114.019-11.892 2.711-18.41-1.051-5.279-3.055-7.109-9.185-7.223-24.272 0-.439-.324-.763-.801-.782a.79.79 0 0 0-.781.802c.114 13.673 1.429 21.808 8.023 25.627 3.183 1.833 7.395 2.292 11.073 2.215l2.688 6.302a.787.787 0 0 0-.42 1.032c.134.305.42.496.724.496.096 0 .648.917.744.878 5.107-2.138 5.317-10.102 5.336-10.388a.766.766 0 0 0-.248-.688Zm27.025-42.871c-3.316-6.684-2.744-18.734-14.637-23.68C306.117 39.955 300.781 39 294.11 39c-15.589 0-23.594 6.34-23.785 18.83a756.596 756.596 0 0 1-.152 8.077c-.076 3.858-.152 7.276-.172 10.942 0 .44.344.802.782.802a.774.774 0 0 0 .781-.782c.019-3.648.096-7.066.172-10.924.057-2.463.114-5.098.152-8.097.076-4.946 1.43-8.803 4.117-11.61 6.746 10.79 7.985 18.37 19.706 23.584.114.038.229.076.343.057 4.669-.248 8.024.478 9.701 2.063.8.764 1.22 1.718 1.22 2.845 0 .477-.096 1.26-.553 2.081-.82 1.07-2.077 1.91-3.469 2.464-1.029.286-2.21.401-3.525.344-.229-.02-.42.076-.591.229a.827.827 0 0 0-.248.573v.229c-1.487 3.705-7.433 24.558 3.354 26.926 9.224 2.024 23.404-.611 27.978-9.816 5.012-10.025-.381-22.705-5.108-32.215Z"/>
    <path fill="#2E2E2E" d="M292.528 120.39a.797.797 0 0 1-.743-.516l-3.678-9.548a.805.805 0 0 1 .457-1.032.803.803 0 0 1 1.029.459l3.679 9.548a.804.804 0 0 1-.744 1.089Z"/>
    <path fill="#2E2E2E" d="M360.509 163.051a.813.813 0 0 1-.781-.63c-3.526-17.32-24.585-49.67-24.795-49.975l-.114-.23c-1.087-3.838-2.649-6.569-3.278-7.6-22.851 4.602-39.966 15.545-44.54 22.572-.247.363-.724.477-1.086.229a.778.778 0 0 1-.229-1.088c4.765-7.352 22.527-18.715 46.083-23.355a.809.809 0 0 1 .801.324c.095.134 2.287 3.323 3.754 8.365 1.544 2.272 21.441 33.151 24.967 50.453.095.42-.191.84-.61.935-.057-.019-.115 0-.172 0Zm13.151 57.462a18.3 18.3 0 0 1 .552-2.406c.019-.076.077-.153.115-.21-.782-5.653-1.392-9.396-1.811-11.172a.803.803 0 0 0-.953-.592.806.806 0 0 0-.591.955c.458 1.891 1.125 6.188 2.021 12.738a.79.79 0 0 0 .667.687Z"/>
    <path fill="#2E2E2E" d="M241.967 258.554a.84.84 0 0 1-.61-.287.834.834 0 0 1-.172-.668c.172-.879 18.144-87.692 28.74-112.365 11.035-25.723 48.999-34.03 65.675-34.03.438 0 .782.363.782.783 0 .44-.363.783-.782.783-16.314 0-53.497 8.078-64.207 33.076-9.93 23.126-26.434 101.479-28.435 111.103l133.903-1.775-.4-3.552a.793.793 0 0 1 .686-.879c.439-.057.496-1.451.534-1.031l.838 6.149a.787.787 0 0 1-.781.878l-135.771 1.815c.019 0 .019 0 0 0Z"/>
    <path fill="#2E2E2E" d="M273.756 254.925c-5.756 0-11.492-.554-16.943-1.432a.777.777 0 0 1-.648-.898.776.776 0 0 1 .896-.649c24.204 3.839 54.697 1.623 62.492-30.803a.804.804 0 0 1 .953-.592.806.806 0 0 1 .591.955c-6.309 26.239-26.815 33.419-47.341 33.419Zm-29.026-9.395c-.076 0-.171-.019-.248-.039-23.575-7.791-42.442-35.042-43.224-36.188-4.04-5.9-4.479-5.633-6.994-4.22-1.353.764-3.335 3.17-5.07 5.271-2.725 3.303-4.326 5.175-5.717 5.194-1.048-.019-1.773-.325-2.154-1.031-.667-1.222-.572-3.667 5.222-12.68 7.185-11.153 17.038-12.47 29.598-11 7.375.859 13.817 5.882 20.64 11.191 4.86 3.781 9.872 7.696 15.399 10.178.4.172.572.649.4 1.05-.171.401-.648.573-1.048.401-5.718-2.559-10.806-6.531-15.742-10.369-6.632-5.175-12.903-10.045-19.859-10.866-11.988-1.394-21.345-.172-28.092 10.293-5.489 8.498-5.451 10.56-5.165 11.038.077.153.324.21.744.21.743-.019 3.03-2.788 4.535-4.621 1.925-2.33 3.907-4.736 5.508-5.653 3.831-2.177 5.146-1.05 9.091 4.717.781 1.146 19.344 27.957 42.424 35.577a.768.768 0 0 1 .495.993.755.755 0 0 1-.743.554Z"/>
    <path fill="#2E2E2E" d="M232.971 239.953a.796.796 0 0 1-.743-.534c-1.773-5.118-1.773-14.342 1.696-21.331 2.401-4.851 6.08-8.116 10.92-9.701a.783.783 0 0 1 .991.515.786.786 0 0 1-.514.993c-4.422 1.452-7.795 4.431-10.006 8.899-3.278 6.608-3.278 15.297-1.62 20.109a.804.804 0 0 1-.495 1.012.824.824 0 0 1-.229.038Zm-43.986-18.218c-.667 0-1.277-.248-1.792-.725-1.563-1.509-1.734-4.966-.457-9.721a.792.792 0 0 1 .972-.553.793.793 0 0 1 .552.973c-1.277 4.794-.819 7.353.019 8.174.305.286.667.363 1.125.229.781-.248 1.677-4.373 2.077-6.13.305-1.394.572-2.597.858-3.38 1.029-2.731 4.097-6.397 7.49-5.576a.805.805 0 0 1 .591.955.803.803 0 0 1-.953.591c-2.325-.553-4.822 2.368-5.642 4.603-.247.668-.514 1.89-.8 3.17-.896 4.106-1.601 6.836-3.145 7.314-.305.038-.61.076-.895.076Z"/>
    <path fill="#2E2E2E" d="M193.502 222.614h-.172c-1.353-.115-2.344-1.528-2.687-3.858-.057-.439.228-.84.667-.897a.783.783 0 0 1 .896.668c.247 1.681.819 2.483 1.257 2.521.572.076 2.078-1.146 3.641-5.977 1.295-4.03 2.687-6.111 4.269-6.36.991-.152 1.734.478 2.02.879a.794.794 0 0 1-1.296.916s-.21-.267-.496-.229c-.228.039-1.448.478-2.992 5.271-1.505 4.621-3.259 7.066-5.107 7.066Z"/>
    <path fill="#2E2E2E" d="M199.143 218.737c-.782 0-1.601-.306-2.421-.936a.814.814 0 0 1-.171-1.107.81.81 0 0 1 1.105-.172c.686.496 1.258.687 1.753.592 1.03-.21 1.906-1.719 2.745-3.189.476-.821.972-1.662 1.505-2.33.286-.325.782-.382 1.106-.096.324.287.381.783.095 1.108-.457.554-.896 1.299-1.353 2.101-1.01 1.757-2.077 3.571-3.793 3.934-.19.057-.381.095-.571.095Zm30.969-19.937a.694.694 0 0 1-.457-.153.795.795 0 0 1-.191-1.107c8.862-12.489 16.924-14.972 27.864-8.555a.806.806 0 0 1 .286 1.088.804.804 0 0 1-1.087.287c-8.5-4.985-16.123-5.5-25.786 8.096a.758.758 0 0 1-.629.344Z"/>
    <path fill="#2E2E2E" d="M238.479 205.14h-.019a.79.79 0 0 1-.781-.802c0-.439.362-.783.781-.783.095 0 3.735-.019 5.298-1.967.686-.859.877-1.986.553-3.418-.419-1.833-.877-2.273-1.125-2.368-.609-.248-2.039.707-3.563 1.738-1.468.974-3.279 2.196-5.508 3.208a.803.803 0 0 1-1.049-.401.805.805 0 0 1 .401-1.05c2.115-.955 3.869-2.139 5.279-3.094 2.115-1.413 3.64-2.444 5.031-1.891.972.382 1.62 1.471 2.078 3.495.438 1.91.133 3.514-.858 4.774-2.001 2.502-6.137 2.559-6.518 2.559Zm-95.406 3.304c-2.249 0-4.059-1.852-4.059-4.144a4.067 4.067 0 0 1 4.059-4.068 4.068 4.068 0 0 1 4.06 4.068c0 2.674-1.449 4.144-4.06 4.144Zm0-6.627a2.475 2.475 0 0 0-2.477 2.483c0 1.375 1.143 2.559 2.477 2.559 1.734 0 2.478-.764 2.478-2.559a2.488 2.488 0 0 0-2.478-2.483Zm18.506 6.627c-2.249 0-4.06-1.852-4.06-4.144a4.068 4.068 0 0 1 4.06-4.068 4.067 4.067 0 0 1 4.059 4.068c0 2.674-1.448 4.144-4.059 4.144Zm0-6.627a2.476 2.476 0 0 0-2.478 2.483c0 1.375 1.144 2.559 2.478 2.559 1.734 0 2.477-.764 2.477-2.559 0-1.356-1.124-2.483-2.477-2.483Zm4.688 21.465c-2.249 0-4.059-1.853-4.059-4.144a4.066 4.066 0 0 1 4.059-4.068 4.067 4.067 0 0 1 4.059 4.068c.019 2.673-1.429 4.144-4.059 4.144Zm0-6.627a2.476 2.476 0 0 0-2.478 2.483c0 1.375 1.144 2.559 2.478 2.559 1.734 0 2.478-.764 2.478-2.559.019-1.356-1.106-2.483-2.478-2.483Zm21.231 3.419c-.229 1.127-.991 1.642-2.401 1.642-1.354 0-2.478-1.165-2.478-2.559a2.474 2.474 0 0 1 2.478-2.482c.819 0 1.562.401 2.001 1.031 0-.401.038-.802.095-1.184a6.827 6.827 0 0 1-.057-.879 4.08 4.08 0 0 0-2.039-.553 4.067 4.067 0 0 0-4.06 4.067c0 2.273 1.83 4.144 4.06 4.144 1.677 0 2.877-.611 3.525-1.757-.514-.305-.876-.821-1.124-1.47Zm34.076-32.923-105.888-.229a.785.785 0 0 1-.781-.707l-1.277-13.081a.802.802 0 0 1 .21-.611.779.779 0 0 1 .59-.267h105.583c.401 0 .744.305.782.706l1.601 13.292c.019.229-.038.458-.191.611-.19.191-.4.286-.629.286Zm-105.164-1.814 104.287.21-1.41-11.706H115.286l1.124 11.496Z"/>
    <path fill="#2E2E2E" d="M145.341 242.13h-32.533a.778.778 0 0 1-.781-.745l-3.621-54.979a.76.76 0 0 1 .21-.592.827.827 0 0 1 .571-.248h12.331c.438 0 .781.363.781.783v8.364l23.709 35.902a.911.911 0 0 1 .133.439v10.274a.806.806 0 0 1-.8.802Zm-31.789-1.585h31.008v-9.243l-23.709-35.901a.914.914 0 0 1-.133-.439v-7.811h-10.692l3.526 53.394Z"/>
    <path fill="#2E2E2E" d="M109.931 195.019a.774.774 0 0 1-.782-.783.79.79 0 0 1 .782-.802l87.268-1.318c.476-.019.8.344.8.783a.79.79 0 0 1-.781.802l-87.287 1.318Zm121.897-.573h-.039l-10.253-.554c-.438-.019-.762-.401-.743-.84a.792.792 0 0 1 .838-.745l9.434.497v-5.653h-9.472a.786.786 0 0 1-.781-.783c0-.439.362-.783.781-.783h10.254c.438 0 .781.363.781.783v7.295c0 .21-.095.42-.248.573a.934.934 0 0 1-.552.21Zm-86.487 37.41a.773.773 0 0 1-.781-.783.79.79 0 0 1 .781-.802l76.233-.344c.439 0 .782.344.801.783a.79.79 0 0 1-.782.803l-76.252.343Zm94.186 11.63-94.205-1.356a.79.79 0 0 1-.781-.802c0-.439.304-.802.8-.783l94.186 1.356a.79.79 0 0 1 .782.802c.019.42-.344.783-.782.783Z"/>
    <path fill="#2E2E2E" d="M168.421 192.689c2.458 5.366 7.814 9.357 14.37 8.135 5.393-.993 7.699-4.392 8.385-8.459l-22.755.324Zm43.243-18.829a.805.805 0 0 1-.705-.439l-10.749-22.324-95.882-14.762 17.914 36.379a.801.801 0 0 1-.362 1.07.798.798 0 0 1-1.067-.363l-18.582-37.754a.801.801 0 0 1 .076-.821.774.774 0 0 1 .763-.306l97.807 15.048a.79.79 0 0 1 .591.44l10.939 22.686a.79.79 0 0 1-.362 1.051.8.8 0 0 1-.381.095Z"/>
    <path fill="#555" d="m83.782 142.064 19.135-6.741 6.27 12.719-25.404-5.978Z"/>
    <path fill="#2E2E2E" d="M109.187 148.825c-.057 0-.114 0-.171-.019l-25.405-5.978a.791.791 0 0 1-.61-.725.778.778 0 0 1 .534-.783l19.134-6.741a.784.784 0 0 1 .972.401l6.271 12.718a.792.792 0 0 1-.096.84.813.813 0 0 1-.629.287Zm-22.584-6.913 21.136 4.965-5.203-10.58-15.933 5.615Zm93.195 23.947h-52.315a.786.786 0 0 1-.781-.783c0-.44.362-.783.781-.783h52.315c.439 0 .782.363.782.783a.774.774 0 0 1-.782.783Zm6.88 1.547a.796.796 0 0 1-.781-.65l-1.258-6.645a.8.8 0 0 1 .629-.936.815.815 0 0 1 .934.63l1.258 6.646a.8.8 0 0 1-.629.935c-.057.02-.095.02-.153.02Z"/>
    <path fill="#2E2E2E" d="M188.375 159.939h-5.851a.786.786 0 0 1-.782-.783c0-.439.363-.783.782-.783h5.851c.438 0 .781.363.781.783 0 .42-.343.783-.781.783Zm1.562 7.467h-5.965a.786.786 0 0 1-.781-.783c0-.44.362-.783.781-.783h5.965c.439 0 .782.362.782.783.019.439-.343.783-.782.783Z"/>
</svg>
