<svg width="212" height="58" viewBox="0 0 212 58" fill="none" xmlns="http://www.w3.org/2000/svg">
<g clip-path="url(#clip0_1520_1472)">
<path d="M211.5 0H0.5V58H211.5V0Z" fill="#000091"/>
<path d="M70.486 26.368L71.642 25.297C72.475 26.351 73.461 26.895 74.583 26.895C75.875 26.895 76.623 26.079 76.623 24.991C76.623 22.441 70.996 22.747 70.996 18.956C70.996 17.222 72.424 15.76 74.447 15.76C76.13 15.76 77.354 16.525 78.238 17.698L77.048 18.735C76.351 17.732 75.501 17.188 74.464 17.188C73.359 17.188 72.628 17.936 72.628 18.922C72.628 21.489 78.255 21.166 78.255 24.974C78.255 26.997 76.674 28.323 74.6 28.323C72.832 28.323 71.523 27.66 70.486 26.368ZM81.3029 20.656H79.9599L81.4049 16.1H83.0539L81.3029 20.656ZM86.1214 17.205C85.5604 17.205 85.1014 16.746 85.1014 16.185C85.1014 15.641 85.5604 15.182 86.1214 15.182C86.6824 15.182 87.1244 15.641 87.1244 16.185C87.1244 16.746 86.6824 17.205 86.1214 17.205ZM85.3904 28V19.432H86.8354V28H85.3904ZM89.1584 23.716C89.1584 21.217 90.8754 19.092 93.5614 19.092C94.8024 19.092 95.8224 19.551 96.6044 20.384V15.25H98.0494V28H96.6044V27.048C95.8224 27.881 94.8024 28.34 93.5614 28.34C90.8754 28.34 89.1584 26.215 89.1584 23.716ZM90.6884 23.716C90.6884 25.535 91.9124 26.98 93.7314 26.98C94.9214 26.98 95.9414 26.402 96.6044 25.382V22.05C95.9244 21.013 94.9044 20.452 93.7314 20.452C91.9124 20.452 90.6884 21.897 90.6884 23.716ZM108.711 26.589C107.912 27.66 106.637 28.34 105.039 28.34C102.149 28.34 100.364 26.215 100.364 23.716C100.364 21.115 102.03 19.092 104.682 19.092C107.011 19.092 108.524 20.673 108.524 22.815C108.524 23.155 108.473 23.495 108.422 23.733H101.86V23.767C101.86 25.654 103.152 27.031 105.073 27.031C106.161 27.031 107.079 26.521 107.64 25.756L108.711 26.589ZM104.699 20.333C103.305 20.333 102.319 21.115 101.979 22.594H107.062C107.011 21.353 106.11 20.333 104.699 20.333ZM110.973 28V19.432H112.418V20.401C113.115 19.636 113.999 19.092 115.274 19.092C117.195 19.092 118.623 20.384 118.623 22.815V28H117.161V22.866C117.161 21.336 116.311 20.452 114.985 20.452C113.744 20.452 112.962 21.166 112.418 22.067V28H110.973ZM122.025 25.127V20.758H120.41V19.432H122.025V17.29H123.487V19.432H126.462V20.758H123.487V25.127C123.487 26.47 124.167 26.844 125.204 26.844C125.765 26.844 126.156 26.776 126.479 26.64V27.932C126.071 28.102 125.612 28.17 125 28.17C123.096 28.17 122.025 27.218 122.025 25.127ZM129.402 17.205C128.841 17.205 128.382 16.746 128.382 16.185C128.382 15.641 128.841 15.182 129.402 15.182C129.963 15.182 130.405 15.641 130.405 16.185C130.405 16.746 129.963 17.205 129.402 17.205ZM128.671 28V19.432H130.116V28H128.671ZM132.048 19.432H133.663V18.378C133.663 16.542 134.87 15.25 136.706 15.25C137.658 15.25 138.406 15.59 138.916 16.083L138.015 17.137C137.709 16.797 137.318 16.559 136.723 16.559C135.788 16.559 135.125 17.239 135.125 18.344V19.432H138.1V20.758H135.125V28H133.663V20.758H132.048V19.432ZM140.591 17.205C140.03 17.205 139.571 16.746 139.571 16.185C139.571 15.641 140.03 15.182 140.591 15.182C141.152 15.182 141.594 15.641 141.594 16.185C141.594 16.746 141.152 17.205 140.591 17.205ZM139.86 28V19.432H141.305V28H139.86ZM151.975 26.589C151.176 27.66 149.901 28.34 148.303 28.34C145.413 28.34 143.628 26.215 143.628 23.716C143.628 21.115 145.294 19.092 147.946 19.092C150.275 19.092 151.788 20.673 151.788 22.815C151.788 23.155 151.737 23.495 151.686 23.733H145.124V23.767C145.124 25.654 146.416 27.031 148.337 27.031C149.425 27.031 150.343 26.521 150.904 25.756L151.975 26.589ZM147.963 20.333C146.569 20.333 145.583 21.115 145.243 22.594H150.326C150.275 21.353 149.374 20.333 147.963 20.333ZM154.237 28V19.432H155.682V20.503C156.311 19.755 157.093 19.262 158.181 19.262C158.453 19.262 158.708 19.296 158.912 19.364V20.86C158.657 20.792 158.402 20.741 158.062 20.741C156.94 20.741 156.209 21.319 155.682 22.186V28H154.237ZM167.922 28.34C166.239 28.34 165.1 27.388 165.1 25.892C165.1 24.566 166.086 23.614 167.922 23.325L170.795 22.849V22.254C170.795 21.064 169.945 20.384 168.738 20.384C167.735 20.384 166.902 20.826 166.409 21.574L165.321 20.741C166.069 19.721 167.276 19.092 168.772 19.092C170.948 19.092 172.24 20.367 172.24 22.254V28H170.795V26.912C170.149 27.813 169.078 28.34 167.922 28.34ZM166.545 25.841C166.545 26.572 167.174 27.133 168.16 27.133C169.299 27.133 170.2 26.538 170.795 25.552V23.92L168.262 24.362C167.072 24.549 166.545 25.093 166.545 25.841ZM173.797 19.432H175.361L178.098 26.487L180.835 19.432H182.399L179.05 28H177.146L173.797 19.432ZM191.653 26.589C190.854 27.66 189.579 28.34 187.981 28.34C185.091 28.34 183.306 26.215 183.306 23.716C183.306 21.115 184.972 19.092 187.624 19.092C189.953 19.092 191.466 20.673 191.466 22.815C191.466 23.155 191.415 23.495 191.364 23.733H184.802V23.767C184.802 25.654 186.094 27.031 188.015 27.031C189.103 27.031 190.021 26.521 190.582 25.756L191.653 26.589ZM187.641 20.333C186.247 20.333 185.261 21.115 184.921 22.594H190.004C189.953 21.353 189.052 20.333 187.641 20.333ZM197.826 26.98C198.88 26.98 199.73 26.47 200.257 25.705L201.413 26.589C200.614 27.66 199.373 28.34 197.809 28.34C194.97 28.34 193.151 26.215 193.151 23.716C193.151 21.217 194.97 19.092 197.809 19.092C199.356 19.092 200.614 19.789 201.413 20.843L200.257 21.727C199.73 20.962 198.863 20.452 197.809 20.452C195.973 20.452 194.664 21.897 194.664 23.716C194.664 25.552 195.973 26.98 197.826 26.98ZM71.354 45V32.4H75.512C78.284 32.4 79.976 33.822 79.976 36.162C79.976 38.484 78.284 39.906 75.512 39.906H73.91V45H71.354ZM75.62 34.578H73.91V37.728H75.62C76.7 37.728 77.348 37.152 77.348 36.126C77.348 35.172 76.7 34.578 75.62 34.578ZM81.7489 45V35.928H84.0349V36.828C84.6289 36.216 85.4029 35.748 86.4289 35.748C86.7349 35.748 87.0049 35.802 87.2209 35.874V38.268C86.9329 38.196 86.6269 38.142 86.2129 38.142C85.0969 38.142 84.3769 38.754 84.0349 39.312V45H81.7489ZM93.1353 35.568C96.0873 35.568 98.1033 37.746 98.1033 40.464C98.1033 43.182 96.0873 45.36 93.1353 45.36C90.1833 45.36 88.1673 43.182 88.1673 40.464C88.1673 37.746 90.1833 35.568 93.1353 35.568ZM93.1713 43.2C94.6293 43.2 95.7273 42.03 95.7273 40.464C95.7273 38.88 94.6293 37.728 93.1713 37.728C91.6593 37.728 90.5433 38.88 90.5433 40.464C90.5433 42.048 91.6593 43.2 93.1713 43.2ZM106.343 42.966C107.783 42.966 108.917 42.264 109.637 41.238L111.653 42.786C110.501 44.352 108.629 45.36 106.343 45.36C102.365 45.36 99.647 42.3 99.647 38.7C99.647 35.1 102.365 32.04 106.343 32.04C108.629 32.04 110.501 33.066 111.653 34.596L109.637 36.162C108.917 35.136 107.783 34.434 106.343 34.434C103.967 34.434 102.275 36.288 102.275 38.7C102.275 41.112 103.967 42.966 106.343 42.966ZM117.709 35.568C120.661 35.568 122.677 37.746 122.677 40.464C122.677 43.182 120.661 45.36 117.709 45.36C114.757 45.36 112.741 43.182 112.741 40.464C112.741 37.746 114.757 35.568 117.709 35.568ZM117.745 43.2C119.203 43.2 120.301 42.03 120.301 40.464C120.301 38.88 119.203 37.728 117.745 37.728C116.233 37.728 115.117 38.88 115.117 40.464C115.117 42.048 116.233 43.2 117.745 43.2ZM124.763 45V35.928H127.049V36.648C127.679 36.036 128.525 35.568 129.731 35.568C131.693 35.568 133.259 36.918 133.259 39.6V45H130.937V39.69C130.937 38.484 130.271 37.728 129.155 37.728C128.003 37.728 127.391 38.502 127.049 39.078V45H124.763ZM135.854 45V35.928H138.14V36.648C138.77 36.036 139.616 35.568 140.822 35.568C142.784 35.568 144.35 36.918 144.35 39.6V45H142.028V39.69C142.028 38.484 141.362 37.728 140.246 37.728C139.094 37.728 138.482 38.502 138.14 39.078V45H135.854ZM155.298 43.524C154.452 44.658 153.048 45.36 151.338 45.36C148.116 45.36 146.298 43.11 146.298 40.464C146.298 37.782 147.99 35.568 150.96 35.568C153.48 35.568 155.136 37.26 155.136 39.636C155.136 40.14 155.064 40.626 154.992 40.932H148.638C148.782 42.426 149.826 43.308 151.374 43.308C152.364 43.308 153.174 42.876 153.66 42.228L155.298 43.524ZM150.96 37.476C149.844 37.476 149.088 38.016 148.782 39.204H152.868C152.832 38.304 152.166 37.476 150.96 37.476ZM161.656 43.2C162.538 43.2 163.24 42.768 163.672 42.138L165.49 43.524C164.644 44.64 163.312 45.36 161.656 45.36C158.524 45.36 156.652 43.11 156.652 40.464C156.652 37.818 158.524 35.568 161.656 35.568C163.312 35.568 164.644 36.288 165.49 37.404L163.672 38.79C163.24 38.16 162.556 37.728 161.62 37.728C160.126 37.728 159.028 38.88 159.028 40.464C159.028 42.066 160.126 43.2 161.656 43.2ZM167.86 41.688V38.016H166.168V35.928H167.86V33.66H170.164V35.928H172.936V38.016H170.164V41.688C170.164 42.696 170.704 43.092 171.604 43.092C172.234 43.092 172.648 43.02 172.954 42.894V44.892C172.504 45.09 171.964 45.18 171.208 45.18C168.94 45.18 167.86 43.902 167.86 41.688Z" fill="white"/>
<path d="M47.492 19.0979L32.498 10.4209L17.504 19.1819C17.4114 19.2347 17.3344 19.3109 17.2807 19.4029C17.227 19.4949 17.1984 19.5994 17.198 19.7059V36.6539C17.2039 36.7593 17.2347 36.8617 17.2879 36.9528C17.3411 37.0439 17.4151 37.1211 17.504 37.1779L32.496 45.7779L47.49 37.0719C47.5789 37.0151 47.653 36.938 47.7063 36.8469C47.7595 36.7558 47.7902 36.6533 47.796 36.5479V19.6259C47.7966 19.5189 47.7687 19.4136 47.7153 19.3209C47.6619 19.2281 47.5849 19.1512 47.492 19.0979Z" fill="#000091"/>
<path d="M27.141 19.5979L22.112 28.2259L17.555 19.0509L22.945 15.9379L27.434 19.0979L27.141 19.5979ZM47.797 36.5779V19.6199C47.797 19.5134 47.7686 19.4089 47.7149 19.317C47.6611 19.2251 47.5838 19.1491 47.491 19.0969L32.498 10.4209" fill="#FCC63A"/>
<path d="M17.2 36.5779L32.5 10.4209V45.7829L17.504 37.1779C17.4151 37.1211 17.3411 37.0439 17.2879 36.9528C17.2347 36.8617 17.2039 36.7593 17.198 36.6539V19.7059L17.2 36.5779ZM41.869 15.8429L47.327 18.9979L42.838 28.1479L37.451 18.9119L41.869 15.8429Z" fill="#0063CB"/>
<path d="M52.106 16.3029L32.916 5.28293C32.7868 5.21856 32.6444 5.18506 32.5 5.18506C32.3556 5.18506 32.2132 5.21856 32.084 5.28293L12.894 16.3029C12.7785 16.3798 12.6827 16.4828 12.6142 16.6035C12.5458 16.7242 12.5067 16.8593 12.5 16.9979V38.9979C12.5059 39.1374 12.5446 39.2735 12.6131 39.3951C12.6816 39.5168 12.7778 39.6205 12.894 39.6979L32.083 50.7179C32.2122 50.7823 32.3546 50.8158 32.499 50.8158C32.6434 50.8158 32.7858 50.7823 32.915 50.7179L52.106 39.6979C52.2222 39.6205 52.3184 39.5168 52.3869 39.3951C52.4554 39.2735 52.4941 39.1374 52.5 38.9979V16.9979C52.4933 16.8593 52.4542 16.7242 52.3858 16.6035C52.3173 16.4828 52.2215 16.3798 52.106 16.3029ZM23.289 34.0589H23.368C23.326 34.0589 23.289 34.0659 23.289 34.1089C23.289 34.2089 23.44 34.1089 23.489 34.2089C23.2514 34.2154 23.0257 34.3145 22.86 34.4849C22.86 34.5359 22.96 34.5359 23.011 34.5359C22.936 34.6359 22.785 34.5859 22.734 34.6869C22.7611 34.714 22.7961 34.7315 22.834 34.7369C22.784 34.7369 22.734 34.7369 22.734 34.7879V34.9389C22.608 34.9389 22.558 35.0389 22.457 35.0899C22.657 35.2409 22.784 35.0899 22.985 35.0899C22.457 35.2899 22.029 35.5679 21.501 35.7189C21.401 35.7189 21.501 35.8699 21.401 35.8699C21.552 35.9699 21.628 35.8199 21.778 35.8199C21.124 36.1969 20.445 36.5199 19.741 36.9519C19.6868 37.0059 19.6516 37.0761 19.641 37.1519H19.441C19.341 37.2019 19.391 37.3279 19.29 37.4289C19.516 37.5799 19.79 37.2289 19.944 37.4289C19.994 37.4289 19.844 37.4789 19.744 37.4789C19.694 37.4789 19.694 37.5789 19.644 37.5789H19.49C19.39 37.6539 19.29 37.7049 19.29 37.8549C19.2466 37.8469 19.2019 37.8522 19.1615 37.87C19.1212 37.8879 19.0872 37.9175 19.064 37.9549C20.138 37.9507 21.2027 37.755 22.208 37.3769C22.9877 36.9799 23.6938 36.4527 24.296 35.8179C24.3231 35.8449 24.3406 35.8801 24.346 35.9179C24.1989 36.3544 23.9166 36.7327 23.54 36.9979C23.263 37.1489 23.062 37.3749 22.84 37.4759C22.6917 37.5589 22.5487 37.651 22.412 37.7519C21.7797 37.9486 21.1306 38.0866 20.473 38.1639L20.168 38.2079C19.943 38.2409 19.719 38.2769 19.497 38.3159L17.504 37.1779C17.4311 37.132 17.368 37.072 17.3186 37.0014C17.2691 36.9309 17.2343 36.8512 17.216 36.7669C17.2493 36.7491 17.2808 36.728 17.31 36.7039C17.279 36.671 17.2401 36.6466 17.197 36.6329V35.9829C18.2449 35.7966 19.2655 35.4802 20.235 35.0409C19.3177 34.4034 18.2868 33.9475 17.198 33.6979V32.1829C17.7531 32.2739 18.3008 32.4049 18.837 32.5749C19.2498 32.7266 19.6459 32.9203 20.019 33.1529C20.1656 33.2939 20.3257 33.4202 20.497 33.5299C20.6177 33.5988 20.7525 33.6391 20.8912 33.6478C21.0299 33.6564 21.1687 33.6332 21.297 33.5799H21.627C22.3434 33.4615 23.0135 33.1484 23.564 32.6749C23.564 32.7249 23.614 32.7249 23.664 32.7249C23.5857 33.1236 23.441 33.5062 23.236 33.8569C23.239 33.9079 23.188 34.0089 23.289 34.0589ZM26.106 37.6299C26.357 37.5299 26.506 37.3529 26.735 37.2529C26.685 37.3029 26.685 37.4039 26.635 37.4529C26.4474 37.5702 26.2707 37.704 26.107 37.8529C25.5413 38.3515 25.0116 38.8895 24.522 39.4629C24.27 39.7629 23.994 40.0409 23.722 40.3179C23.6256 40.408 23.5219 40.49 23.412 40.5629L20.885 39.1129C21.2444 39.1433 21.6063 39.1255 21.961 39.0599C22.2554 38.9774 22.5416 38.8679 22.816 38.7329V38.8329C23.516 38.5559 24.048 37.9269 24.753 37.7009C24.778 37.7009 24.879 37.8009 24.979 37.7509C25.1601 37.5265 25.3904 37.3466 25.652 37.2253C25.9136 37.1039 26.1997 37.0443 26.488 37.0509C26.488 37.1009 26.488 37.1509 26.538 37.1509H26.563C26.412 37.2769 26.236 37.4019 26.063 37.5279C26.006 37.5799 26.056 37.6299 26.106 37.6299ZM17.198 31.4659V31.2799C17.7161 31.1444 18.2505 31.0812 18.786 31.0919C18.9443 31.0667 19.1057 31.0667 19.264 31.0919C18.5584 31.0912 17.8585 31.2179 17.198 31.4659ZM47.798 36.5539C47.7922 36.6593 47.7615 36.7618 47.7083 36.8529C47.655 36.944 47.5809 37.0211 47.492 37.0779L37.413 42.9289C36.2558 42.5977 35.118 42.2021 34.005 41.7439C33.8437 41.393 33.756 41.0127 33.7474 40.6266C33.7388 40.2405 33.8095 39.8567 33.955 39.4989C34.0349 39.191 34.1531 38.8943 34.307 38.6159C34.332 38.5909 34.357 38.5659 34.357 38.5399C34.3636 38.5399 34.37 38.5373 34.3747 38.5326C34.3794 38.5279 34.382 38.5216 34.382 38.5149C34.4931 38.3204 34.6191 38.1349 34.759 37.9599L34.774 37.9449L34.794 37.9239L34.809 37.9089C34.809 37.8839 34.834 37.8589 34.859 37.8329C34.884 37.7819 34.934 37.7569 34.959 37.7069C35.1346 37.5211 35.3286 37.3535 35.538 37.2069C35.7507 37.1299 35.9695 37.0707 36.192 37.0299C37.003 37.0896 37.8095 37.1992 38.607 37.3579C38.705 37.3727 38.7992 37.4066 38.884 37.4579C39.1851 37.5166 39.4962 37.4994 39.789 37.4079C39.9799 37.373 40.1587 37.2898 40.3084 37.1662C40.4581 37.0426 40.5736 36.8828 40.644 36.7019C40.732 36.5407 40.7823 36.3616 40.7909 36.1782C40.7996 35.9947 40.7664 35.8117 40.694 35.6429C40.516 35.3669 40.681 35.2059 40.875 35.0529L40.943 34.9979C41.0294 34.9367 41.1071 34.8641 41.174 34.7819C41.3 34.5299 41.074 34.3819 41.023 34.1519C40.973 34.0519 40.797 34.1019 40.696 33.9519C41.048 33.8009 41.551 33.5229 41.325 33.0949C41.174 32.8679 40.948 32.4649 41.225 32.2379C41.577 32.0379 42.08 32.0869 42.231 31.7589C42.2804 31.5683 42.2794 31.3681 42.2282 31.1779C42.1771 30.9877 42.0774 30.8141 41.939 30.6739L41.864 30.5659C41.789 30.4589 41.715 30.3519 41.653 30.2459C41.4941 29.9821 41.3177 29.7292 41.125 29.4889C40.905 29.1775 40.7275 28.8382 40.597 28.4799C40.446 28.1019 40.647 27.7739 40.647 27.3959C40.6618 26.6678 40.5512 25.9425 40.32 25.2519C40.194 24.8989 40.144 24.5209 39.993 24.1929C39.974 23.9821 39.8956 23.781 39.767 23.6129C39.7421 23.5618 39.7292 23.5058 39.7292 23.4489C39.7292 23.3921 39.7421 23.336 39.767 23.2849C39.972 23.1404 40.1656 22.9803 40.346 22.8059C40.4017 22.6836 40.4122 22.5455 40.3756 22.4162C40.339 22.2869 40.2576 22.1748 40.146 22.0999C39.819 21.9489 39.846 22.4279 39.618 22.5289H39.467C39.417 22.4029 39.517 22.3519 39.618 22.2519C39.618 22.2019 39.618 22.1009 39.568 22.1009C39.368 22.1009 39.191 22.0499 39.14 21.9499C38.658 21.3493 38.0113 20.9024 37.279 20.6639C37.467 20.7217 37.6615 20.7553 37.858 20.7639C38.1956 20.8353 38.5471 20.8004 38.864 20.6639C39.091 20.5879 39.141 20.1849 39.241 19.9579C39.2613 19.848 39.2583 19.7351 39.2323 19.6264C39.2063 19.5178 39.1578 19.4157 39.09 19.3269C38.8629 18.9968 38.5495 18.7353 38.184 18.5709C38.008 18.4949 37.731 18.3439 37.505 18.2179C37.428 18.1638 37.3434 18.1213 37.254 18.0919C34.289 16.6069 28.185 17.8919 27.72 18.0919H27.711C27.2825 18.2162 26.8648 18.3751 26.462 18.5669C25.9074 18.7728 25.4066 19.1015 24.997 19.5284C24.5875 19.9553 24.2798 20.4693 24.097 21.0319C23.526 21.407 23.0658 21.928 22.764 22.5409C22.336 23.3409 21.708 24.0499 21.808 24.9549C21.908 25.7349 22.085 26.4389 22.236 27.2439C22.2789 27.516 22.3459 27.7837 22.436 28.0439C22.536 28.3199 22.436 28.6729 22.587 28.8989C22.662 29.0499 22.612 29.2259 22.814 29.3269V29.5269C22.864 29.5769 22.864 29.6269 22.965 29.6269V29.8269C23.3997 30.2504 23.7723 30.7332 24.072 31.2609C24.172 31.5369 23.594 31.4119 23.372 31.3109C22.9565 31.0404 22.5762 30.7193 22.24 30.3549C22.2125 30.3818 22.1946 30.4169 22.189 30.4549C22.389 30.8069 23.095 31.2349 22.717 31.4609C22.517 31.5609 22.289 31.3099 22.088 31.5119C22.038 31.5869 22.088 31.6879 22.088 31.7879C21.811 31.5879 21.51 31.6879 21.233 31.5879C21.033 31.5379 20.981 31.1609 20.755 31.1609C20.1585 31.0154 19.5537 30.9062 18.944 30.8339C18.3679 30.7475 17.7872 30.6944 17.205 30.6749V19.7059C17.2054 19.5994 17.234 19.4949 17.2877 19.4029C17.3414 19.3109 17.4184 19.2347 17.511 19.1819L32.498 10.4209L47.492 19.0979C47.5846 19.1506 47.6617 19.2268 47.7154 19.3188C47.7692 19.4108 47.7977 19.5154 47.798 19.6219V36.5539ZM39.844 28.2929C39.8138 28.3399 39.7719 28.3783 39.7225 28.4044C39.6731 28.4305 39.6178 28.4434 39.562 28.4419C39.4618 28.5263 39.3676 28.6175 39.28 28.7149C39.38 28.7149 39.28 28.8639 39.38 28.8639C39.175 29.0869 39.457 29.5579 39.175 29.6569C38.8059 29.7559 38.4171 29.7559 38.048 29.6569C38.1029 29.6451 38.1589 29.6398 38.215 29.6409H38.3C38.3627 29.6485 38.4263 29.6404 38.4851 29.6174C38.5439 29.5943 38.5961 29.5571 38.637 29.5089V29.3089C38.637 29.2589 38.586 29.2589 38.537 29.2589C38.5107 29.287 38.4752 29.3048 38.437 29.3089C38.4345 29.2639 38.4185 29.2207 38.391 29.185C38.3635 29.1493 38.3259 29.1228 38.283 29.1089C38.1501 29.1267 38.0148 29.111 37.8894 29.0633C37.7641 29.0157 37.6526 28.9375 37.565 28.8359C37.7006 28.7708 37.8542 28.7532 38.001 28.7859C38.129 28.7859 38.078 28.5629 38.232 28.4639H38.386C38.693 28.0919 39.257 27.9929 39.36 27.6209C39.36 27.5209 39.078 27.5209 38.873 27.4719C38.5989 27.4383 38.321 27.4553 38.053 27.5219C37.6932 27.5716 37.3405 27.6632 37.002 27.7949C37.2823 27.5892 37.594 27.4302 37.925 27.3239C38.1574 27.2344 38.3978 27.1674 38.643 27.1239L38.775 27.0979L38.908 27.0709C39.0894 27.0167 39.2826 27.0167 39.464 27.0709C39.695 27.1709 40.079 27.1709 40.13 27.3189C40.23 27.5919 39.976 27.8639 39.695 28.0629C39.638 28.1439 39.844 28.1979 39.844 28.2929Z" fill="white"/>
<path d="M65.06 5H39.5C38.3954 5 37.5 5.89543 37.5 7V16.302C37.5 17.4066 38.3954 18.302 39.5 18.302H65.06C66.1646 18.302 67.06 17.4066 67.06 16.302V7C67.06 5.89543 66.1646 5 65.06 5Z" fill="#FCC63A"/>
<path d="M40.062 16.1676V7.31589H42.983C43.9525 7.31589 44.7154 7.55194 45.2718 8.02403C45.8366 8.49612 46.1191 9.14104 46.1191 9.95877C46.1191 10.7681 45.8366 11.4088 45.2718 11.8809C44.7154 12.3529 43.9525 12.589 42.983 12.589H41.8576V16.1676H40.062ZM43.0589 8.84598H41.8576V11.0589H43.0589C43.4383 11.0589 43.7333 10.962 43.9441 10.7681C44.1632 10.5742 44.2728 10.296 44.2728 9.93348C44.2728 9.59627 44.1632 9.33071 43.9441 9.13682C43.7333 8.94293 43.4383 8.84598 43.0589 8.84598Z" fill="#161616"/>
<path d="M47.7306 16.1676V7.31589H50.4367C51.4062 7.31589 52.1734 7.55194 52.7382 8.02403C53.303 8.49612 53.5854 9.14104 53.5854 9.95877C53.5854 10.4899 53.459 10.9535 53.2061 11.3498C52.9616 11.7375 52.616 12.0368 52.1692 12.2476L54.9511 16.1676H52.8014L50.4494 12.589H49.5263V16.1676H47.7306ZM50.5379 8.84598H49.5263V11.0589H50.5379C50.9173 11.0589 51.2123 10.962 51.4231 10.7681C51.6338 10.5742 51.7392 10.296 51.7392 9.93348C51.7392 9.59627 51.6338 9.33071 51.4231 9.13682C51.2123 8.94293 50.9173 8.84598 50.5379 8.84598Z" fill="#161616"/>
<path d="M60.0486 7.06299C60.7398 7.06299 61.3721 7.18944 61.9454 7.44235C62.5271 7.69525 63.0244 8.03246 63.4375 8.45397C63.8506 8.87548 64.1709 9.37287 64.3986 9.94612C64.6262 10.5109 64.74 11.1095 64.74 11.7418C64.74 12.374 64.6262 12.9768 64.3986 13.55C64.1709 14.1149 63.8506 14.608 63.4375 15.0295C63.0244 15.451 62.5271 15.7883 61.9454 16.0412C61.3721 16.2941 60.7398 16.4205 60.0486 16.4205C59.3573 16.4205 58.7208 16.2941 58.1391 16.0412C57.5574 15.7883 57.0601 15.451 56.647 15.0295C56.2339 14.608 55.9135 14.1149 55.6859 13.55C55.4583 12.9768 55.3445 12.374 55.3445 11.7418C55.3445 11.1095 55.4583 10.5109 55.6859 9.94612C55.9135 9.37287 56.2339 8.87548 56.647 8.45397C57.0601 8.03246 57.5574 7.69525 58.1391 7.44235C58.7208 7.18944 59.3573 7.06299 60.0486 7.06299ZM60.0486 14.7387C60.4616 14.7387 60.841 14.6628 61.1866 14.5111C61.5407 14.3509 61.84 14.1402 62.0845 13.8788C62.3374 13.609 62.5355 13.2929 62.6788 12.9304C62.8221 12.5595 62.8938 12.1633 62.8938 11.7418C62.8938 11.3202 62.8221 10.9282 62.6788 10.5657C62.5355 10.1948 62.3374 9.87868 62.0845 9.61734C61.84 9.34758 61.5407 9.13682 61.1866 8.98508C60.841 8.8249 60.4616 8.74482 60.0486 8.74482C59.6355 8.74482 59.2519 8.8249 58.8978 8.98508C58.5438 9.13682 58.2403 9.34758 57.9874 9.61734C57.7429 9.87868 57.549 10.1948 57.4057 10.5657C57.2624 10.9282 57.1907 11.3202 57.1907 11.7418C57.1907 12.1633 57.2624 12.5595 57.4057 12.9304C57.549 13.2929 57.7429 13.609 57.9874 13.8788C58.2403 14.1402 58.5438 14.3509 58.8978 14.5111C59.2519 14.6628 59.6355 14.7387 60.0486 14.7387Z" fill="#161616"/>
</g>
<defs>
<clipPath id="clip0_1520_1472">
<rect width="211" height="58" fill="white" transform="translate(0.5)"/>
</clipPath>
</defs>
</svg>
