<svg xmlns="http://www.w3.org/2000/svg" width="40" height="46" fill="none">
    <path fill="#000091" d="M34.992 13.913 19.998 5.236l-14.994 8.76a.6.6 0 0 0-.306.525v16.948a.67.67 0 0 0 .306.524l14.992 8.6 14.994-8.706a.67.67 0 0 0 .306-.524V14.44a.6.6 0 0 0-.304-.528"/>
    <path fill="#fcc63a" d="M14.64 14.413 9.613 23.04l-4.557-9.175 5.39-3.113 4.489 3.16zm20.657 16.98V14.435a.6.6 0 0 0-.306-.523L19.998 5.236"/>
    <path fill="#0063cb" d="M4.7 31.393 20 5.236v35.362L5.004 31.993a.67.67 0 0 1-.306-.524V14.52zm24.67-20.735 5.457 3.155-4.489 9.15-5.387-9.236z"/>
    <path fill="#fff" d="M39.606 11.118 20.416.098a.93.93 0 0 0-.832 0L.394 11.118a.89.89 0 0 0-.394.695v22a.89.89 0 0 0 .394.7l19.189 11.02a.93.93 0 0 0 .832 0l19.191-11.02a.89.89 0 0 0 .394-.7v-22a.89.89 0 0 0-.394-.695M10.789 28.874h.079c-.042 0-.079.007-.079.05 0 .1.151 0 .2.1a.9.9 0 0 0-.629.276c0 .05.1.05.151.05-.075.1-.226.05-.277.152a.2.2 0 0 0 .1.05c-.05 0-.1 0-.1.05v.152c-.126 0-.176.1-.277.15.2.152.327 0 .528 0-.528.2-.956.479-1.484.63-.1 0 0 .15-.1.15.151.1.227-.05.377-.05-.654.378-1.333.7-2.037 1.133a.35.35 0 0 0-.1.2h-.2c-.1.05-.05.176-.151.277.226.15.5-.2.654 0 .05 0-.1.05-.2.05-.05 0-.05.1-.1.1H6.99c-.1.075-.2.126-.2.276a.22.22 0 0 0-.226.1 9 9 0 0 0 3.144-.578 7.7 7.7 0 0 0 2.088-1.56.2.2 0 0 1 .05.1c-.147.437-.43.816-.806 1.08-.277.152-.478.378-.7.479a4 4 0 0 0-.428.276c-.632.197-1.281.334-1.939.412l-.305.044q-.338.05-.671.108l-1.993-1.138a.65.65 0 0 1-.288-.411.6.6 0 0 0 .094-.063.3.3 0 0 0-.113-.071v-.65a12.8 12.8 0 0 0 3.038-.942 8.8 8.8 0 0 0-3.037-1.343v-1.515a12 12 0 0 1 1.639.392 6.4 6.4 0 0 1 1.182.578q.221.211.478.377a.91.91 0 0 0 .8.05h.33a3.96 3.96 0 0 0 1.937-.905c0 .05.05.05.1.05a3.6 3.6 0 0 1-.428 1.132c.003.05-.048.152.053.202m2.817 3.57c.251-.1.4-.276.629-.376-.05.05-.05.15-.1.2a3.7 3.7 0 0 0-.528.4 16 16 0 0 0-1.585 1.61c-.252.3-.528.578-.8.855q-.144.135-.31.245l-2.527-1.45q.542.045 1.076-.053.442-.124.855-.327v.1c.7-.277 1.232-.906 1.937-1.132.025 0 .126.1.226.05a1.88 1.88 0 0 1 1.509-.7c0 .05 0 .1.05.1h.025c-.151.126-.327.25-.5.377-.057.052-.007.102.043.102m-8.908-6.163v-.186a5.8 5.8 0 0 1 1.588-.188 1.5 1.5 0 0 1 .478 0 5.9 5.9 0 0 0-2.066.374m30.6 5.088a.67.67 0 0 1-.306.524l-10.079 5.85a32 32 0 0 1-3.408-1.184 2.83 2.83 0 0 1-.05-2.245q.12-.464.352-.883c.025-.025.05-.05.05-.076a.025.025 0 0 0 .025-.025 4 4 0 0 1 .377-.555l.015-.015.02-.021.015-.015c0-.025.025-.05.05-.076.025-.051.075-.076.1-.126q.265-.28.579-.5.32-.116.654-.177 1.217.09 2.415.328a.8.8 0 0 1 .277.1c.301.058.612.041.905-.05a1.14 1.14 0 0 0 .855-.706 1.21 1.21 0 0 0 .05-1.06c-.178-.275-.013-.436.181-.59l.068-.054q.13-.092.231-.216c.126-.252-.1-.4-.151-.63-.05-.1-.226-.05-.327-.2.352-.151.855-.43.629-.857-.151-.227-.377-.63-.1-.857.352-.2.855-.151 1.006-.48a1.14 1.14 0 0 0-.292-1.084l-.075-.108a5 5 0 0 1-.211-.32 7 7 0 0 0-.528-.757 4.3 4.3 0 0 1-.528-1.01c-.151-.377.05-.705.05-1.083a6.4 6.4 0 0 0-.327-2.144c-.126-.353-.176-.731-.327-1.06a1.1 1.1 0 0 0-.226-.58.37.37 0 0 1 0-.327q.308-.217.579-.48a.57.57 0 0 0-.2-.705c-.327-.151-.3.328-.528.429h-.151c-.05-.126.05-.177.151-.277 0-.05 0-.151-.05-.151-.2 0-.377-.051-.428-.151a3.96 3.96 0 0 0-1.861-1.286q.283.087.579.1c.338.071.69.036 1.006-.1.227-.076.277-.48.377-.706a.8.8 0 0 0-.151-.631 2.2 2.2 0 0 0-.906-.756 9 9 0 0 1-.679-.353 1 1 0 0 0-.251-.126c-2.965-1.485-9.069-.2-9.534 0h-.009a8 8 0 0 0-1.249.475 3.92 3.92 0 0 0-2.365 2.465 3.83 3.83 0 0 0-1.333 1.509c-.428.8-1.056 1.509-.956 2.414.1.78.277 1.484.428 2.289q.065.409.2.8c.1.276 0 .629.151.855.075.15.025.327.227.428v.2c.05.05.05.1.151.1v.2c.435.423.807.906 1.107 1.434.1.276-.478.15-.7.05a6 6 0 0 1-1.132-.956.2.2 0 0 0-.051.1c.2.352.906.78.528 1.006-.2.1-.428-.151-.629.05-.05.076 0 .177 0 .277-.277-.2-.578-.1-.855-.2-.2-.05-.252-.427-.478-.427a15 15 0 0 0-1.811-.327 15 15 0 0 0-1.739-.16V14.522a.6.6 0 0 1 .306-.524l14.987-8.761 14.994 8.677a.6.6 0 0 1 .306.524zm-7.954-8.261a.33.33 0 0 1-.282.149 3 3 0 0 0-.282.273c.1 0 0 .149.1.149-.205.223.077.694-.205.793-.37.099-.758.099-1.127 0a.7.7 0 0 1 .167-.016h.085a.38.38 0 0 0 .337-.132v-.2c0-.05-.051-.05-.1-.05a.16.16 0 0 1-.1.05.22.22 0 0 0-.154-.2.8.8 0 0 1-.718-.273.67.67 0 0 1 .436-.05c.128 0 .077-.223.231-.322h.154c.307-.372.871-.471.974-.843 0-.1-.282-.1-.487-.15a2.3 2.3 0 0 0-.82.05q-.542.076-1.051.274a3.2 3.2 0 0 1 .923-.471q.35-.135.718-.2l.132-.026.133-.027a.97.97 0 0 1 .556 0c.231.1.615.1.666.248.1.273-.154.545-.435.744-.057.08.149.135.149.23"/>
</svg>
