<svg xmlns="http://www.w3.org/2000/svg" width="101" height="28" fill="none">
    <g clip-path="url(#a)">
        <path fill="#ABB2EC" fill-rule="evenodd" d="M95.224 27.653c-.904-2.532-1.99-3.888-9.086-2.893-6.509.904-11.572.678-15.278-4.52-3.029-4.204-3.345-15.053 6.464-17.99C87.178-.69 98.794.937 99.97 10.113c1.175 9.628-4.746 17.539-4.746 17.539Z" clip-rule="evenodd"/>
        <path fill="#4550E5" fill-rule="evenodd" d="M72.69 27.031c.045-2.17.497-3.48 6.057-4.52 5.063-.95 8.814-2.396 10.26-7.323 1.176-3.978-1.31-12.385-9.356-12.16-8.091.227-16.318 4.43-14.871 11.753 1.491 7.685 7.91 12.25 7.91 12.25" clip-rule="evenodd"/>
        <path fill="#4550E5" d="M3.622 7.432c.678 0 1.22.181 1.537.498.316.316.542.768.678 1.31l-.226-.135.09-.226c.09-.18.271-.407.497-.633s.497-.407.814-.588c.316-.18.678-.226 1.04-.226.632 0 1.13.136 1.446.407q.474.407.678 1.085c.136.452.18.95.18 1.492v3.345c0 .226-.09.407-.225.587a.75.75 0 0 1-.543.226.75.75 0 0 1-.542-.226.86.86 0 0 1-.226-.587v-3.345c0-.271-.045-.543-.09-.769-.09-.226-.181-.406-.362-.542s-.452-.226-.769-.226c-.316 0-.632.09-.858.226a1.56 1.56 0 0 0-.543.542c-.135.226-.18.498-.18.769v3.345c0 .226-.091.407-.227.587a.75.75 0 0 1-.542.226.75.75 0 0 1-.543-.226.86.86 0 0 1-.226-.587v-3.345c0-.271-.045-.543-.09-.769-.09-.226-.18-.406-.362-.542-.18-.136-.452-.226-.768-.226s-.633.09-.859.226a1.56 1.56 0 0 0-.542.542c-.136.226-.181.498-.181.769v3.345c0 .226-.09.407-.226.587a.75.75 0 0 1-.542.226.75.75 0 0 1-.543-.226.86.86 0 0 1-.226-.587V8.337c0-.226.09-.407.226-.588.136-.18.317-.226.543-.226s.406.09.542.226a.86.86 0 0 1 .226.588v.542l-.18-.045c.09-.136.18-.317.316-.497.135-.181.316-.317.497-.498.18-.135.407-.27.678-.361.09 0 .361-.046.633-.046m15.233 3.662a3.7 3.7 0 0 1-.497 1.898c-.317.543-.769.995-1.266 1.266-.543.316-1.13.452-1.808.452s-1.266-.136-1.808-.452a3.4 3.4 0 0 1-1.266-1.266 3.7 3.7 0 0 1-.497-1.898c0-.723.18-1.356.497-1.899.316-.542.768-.994 1.266-1.265.542-.317 1.13-.452 1.808-.452s1.265.135 1.808.452c.542.316.949.723 1.266 1.265.361.543.497 1.176.497 1.899m-1.582 0c0-.452-.09-.814-.272-1.175-.18-.317-.406-.588-.723-.769a1.94 1.94 0 0 0-.994-.271c-.362 0-.724.09-.995.271-.316.181-.542.452-.723.769-.18.316-.271.723-.271 1.175s.09.814.271 1.13c.18.316.407.588.723.768.317.181.633.271.995.271.361 0 .723-.09.994-.27.317-.181.543-.453.723-.77.181-.316.272-.677.272-1.13Zm6.735-3.662q.95 0 1.491.407c.317.272.588.633.678 1.085s.181.95.181 1.492v3.345c0 .226-.09.407-.226.587a.75.75 0 0 1-.542.226.75.75 0 0 1-.543-.226.86.86 0 0 1-.226-.587v-3.345c0-.271-.045-.543-.09-.769a1.23 1.23 0 0 0-.407-.542c-.18-.136-.452-.226-.814-.226s-.632.09-.904.226a1.56 1.56 0 0 0-.542.542c-.136.226-.18.498-.18.769v3.345c0 .226-.091.407-.227.587a.75.75 0 0 1-.542.226.75.75 0 0 1-.543-.226.86.86 0 0 1-.226-.587V8.337c0-.226.09-.407.226-.588.136-.18.317-.226.543-.226s.407.09.542.226a.86.86 0 0 1 .226.588v.542l-.18-.045c.09-.136.18-.317.361-.497.136-.181.316-.317.542-.498.181-.135.407-.27.678-.361s.407-.046.724-.046m7.322 6.103a.76.76 0 0 1-.135-.452c0-.181.135-.362.361-.498a.53.53 0 0 1 .452-.09c.181.045.317.09.452.226.272.271.543.452.814.588s.633.226 1.04.226c.135 0 .27-.046.452-.046.135-.045.316-.09.407-.226.135-.09.18-.27.18-.497 0-.18-.045-.361-.18-.452a1.1 1.1 0 0 0-.498-.27c-.226-.091-.452-.136-.723-.227l-.814-.271a4 4 0 0 1-.768-.362c-.226-.135-.407-.361-.588-.633a2.1 2.1 0 0 1-.226-.949c0-.452.136-.813.362-1.13s.542-.542.95-.723a3 3 0 0 1 1.22-.271c.27 0 .542.045.858.09.317.045.588.18.86.317.27.135.497.316.677.587.09.136.136.271.181.452 0 .181-.045.362-.271.497a.76.76 0 0 1-.452.136c-.18 0-.317-.09-.452-.18a1.5 1.5 0 0 0-.588-.453c-.27-.135-.542-.18-.859-.18-.135 0-.27 0-.406.045s-.272.09-.407.18c-.136.09-.181.272-.181.498 0 .18.045.361.18.497q.204.203.543.271c.226.09.452.136.724.226.27.09.542.136.813.271.271.09.543.226.769.362s.406.361.542.633c.136.27.226.587.226.949 0 .452-.136.813-.407 1.13a2.7 2.7 0 0 1-.994.723c-.407.181-.814.226-1.22.226-.498 0-1.04-.09-1.538-.271-.587-.18-.994-.497-1.356-.95Zm11.98-5.967c.226 0 .407.09.542.226a.86.86 0 0 1 .226.588v3.345c0 .949-.27 1.672-.768 2.215-.497.542-1.266.813-2.215.813-.95 0-1.718-.271-2.215-.813-.497-.543-.768-1.266-.768-2.215V8.382c0-.226.09-.407.226-.588.135-.18.316-.226.542-.226s.407.09.543.226a.86.86 0 0 1 .226.588v3.345c0 .542.135.949.361 1.175q.34.407 1.085.407c.745 0 .859-.136 1.085-.407s.361-.633.361-1.175V8.382c0-.226.09-.407.226-.588.136-.18.317-.226.543-.226m3.164-.859c-.316 0-.497-.045-.633-.135-.135-.09-.18-.272-.18-.498v-.27c0-.272.045-.408.225-.498.136-.09.362-.136.633-.136.317 0 .543.046.633.136.136.09.18.271.18.497v.271c0 .272-.044.407-.18.498-.18.09-.362.135-.678.135m.814 7.097c0 .226-.09.407-.226.588a.75.75 0 0 1-.543.226.75.75 0 0 1-.542-.226.86.86 0 0 1-.226-.588V8.382c0-.226.09-.407.226-.588a.75.75 0 0 1 .542-.226c.226 0 .407.09.543.226a.86.86 0 0 1 .226.588zm1.943-6.238c.181 0 .317.045.452.136.136.09.226.226.317.361l1.943 4.43-.27.136 1.988-4.52c.136-.362.362-.498.678-.498.226 0 .407.09.542.226a.73.73 0 0 1 .226.498c0 .045 0 .135-.045.18-.045.046-.045.136-.09.181l-2.441 5.424c-.136.317-.362.498-.678.498-.18.045-.316 0-.497-.09a1.1 1.1 0 0 1-.362-.408l-2.44-5.424c0-.045-.046-.09-.046-.18 0-.091-.045-.136-.045-.272 0-.135.09-.316.226-.452a.68.68 0 0 1 .542-.226m7.73-.859c-.317 0-.497-.045-.633-.135s-.18-.272-.18-.498v-.27c0-.272.044-.408.225-.498.136-.09.362-.136.633-.136.316 0 .542.046.633.136.135.09.18.271.18.497v.271c0 .272-.045.407-.18.498-.181.09-.362.135-.678.135m.813 7.097c0 .226-.09.407-.226.588a.75.75 0 0 1-.542.226.75.75 0 0 1-.542-.226.86.86 0 0 1-.226-.588V8.382c0-.226.09-.407.226-.588a.75.75 0 0 1 .542-.226c.226 0 .407.09.542.226a.86.86 0 0 1 .226.588zM23.013 24.202a.76.76 0 0 1-.135-.452c0-.18.135-.361.361-.497a.53.53 0 0 1 .452-.09c.181.045.317.09.452.226.271.27.543.452.814.587.271.136.633.226 1.04.226.135 0 .27-.045.452-.045.135-.045.316-.09.406-.226.136-.09.181-.271.181-.497 0-.18-.045-.362-.18-.452a1.1 1.1 0 0 0-.498-.271c-.226-.09-.452-.136-.723-.226l-.814-.271a4 4 0 0 1-.768-.362c-.226-.136-.407-.362-.588-.633a2.1 2.1 0 0 1-.226-.95c0-.451.136-.813.362-1.13s.542-.542.95-.723a3 3 0 0 1 1.22-.27c.27 0 .542.044.858.09.317.045.588.18.86.316.27.136.496.317.677.588.09.135.136.271.181.452 0 .18-.045.361-.271.497a.76.76 0 0 1-.452.136c-.181 0-.317-.09-.452-.181a1.5 1.5 0 0 0-.588-.452c-.271-.136-.542-.181-.859-.181-.135 0-.27 0-.407.045-.135.045-.27.09-.406.181-.136.09-.181.271-.181.497 0 .181.045.362.18.497q.204.203.543.272c.226.09.452.135.723.226.272.09.543.135.814.27.271.091.542.227.768.363s.407.361.543.632c.135.272.226.588.226.95 0 .451-.136.813-.407 1.13a2.7 2.7 0 0 1-.994.723c-.407.18-.814.226-1.22.226-.498 0-1.04-.09-1.538-.271-.587-.181-.994-.498-1.356-.95m13.56-2.44c0 .723-.18 1.355-.496 1.898-.317.542-.769.994-1.266 1.266-.542.316-1.13.452-1.808.452s-1.266-.136-1.808-.452a3.4 3.4 0 0 1-1.266-1.266 3.7 3.7 0 0 1-.497-1.898c0-.724.18-1.357.497-1.899s.769-.994 1.266-1.266c.542-.316 1.13-.452 1.808-.452s1.266.136 1.808.452c.542.317.95.724 1.266 1.266s.497 1.175.497 1.899Zm-1.581 0c0-.453-.09-.814-.271-1.176-.181-.316-.407-.587-.724-.768a1.94 1.94 0 0 0-.994-.271c-.362 0-.723.09-.995.27-.316.182-.542.453-.723.77-.18.316-.271.722-.271 1.175 0 .451.09.813.271 1.13s.407.587.723.768c.317.18.633.271.995.271.361 0 .723-.09.994-.271.317-.18.543-.452.724-.768.18-.272.27-.678.27-1.13Zm6.102-3.617c.497 0 .95.046 1.31.136.362.09.679.271.86.452.226.18.316.407.316.678 0 .18-.045.362-.136.497a.56.56 0 0 1-.452.226c-.135 0-.27 0-.361-.045a1 1 0 0 1-.226-.136c-.09-.045-.136-.135-.271-.18a2 2 0 0 0-.407-.136c-.181-.045-.317-.045-.407-.045-.452 0-.814.09-1.13.271-.316.18-.542.452-.723.768-.181.317-.271.724-.271 1.13 0 .407.09.814.27 1.13.181.317.407.588.724.769.316.18.633.271 1.04.271.226 0 .406 0 .542-.045s.271-.045.407-.136c.135-.09.226-.135.316-.226.09-.09.226-.135.452-.135s.407.09.543.226c.135.135.18.316.18.542s-.135.407-.361.588c-.226.18-.588.316-.95.452-.406.09-.813.18-1.31.18-.678 0-1.311-.18-1.808-.497a3.3 3.3 0 0 1-1.176-1.31c-.27-.543-.406-1.176-.406-1.854 0-.723.135-1.356.452-1.898a3 3 0 0 1 1.22-1.266q.746-.407 1.763-.407m4.384-.723c-.316 0-.497-.045-.632-.136-.136-.09-.181-.27-.181-.497v-.27c0-.272.045-.408.226-.498.136-.09.361-.136.633-.136.316 0 .542.045.633.136.135.09.18.271.18.497v.271c0 .271-.045.407-.18.497a1.5 1.5 0 0 1-.678.136Zm.769 7.052c0 .226-.09.406-.226.587a.75.75 0 0 1-.543.226.75.75 0 0 1-.542-.226.86.86 0 0 1-.226-.587v-5.425c0-.226.09-.407.226-.587a.75.75 0 0 1 .542-.226c.227 0 .407.09.543.226a.86.86 0 0 1 .226.587zm7.413-6.329c.226 0 .407.09.543.226a.86.86 0 0 1 .225.588v5.56c0 .226-.09.407-.225.587a.75.75 0 0 1-.543.226.75.75 0 0 1-.542-.226.86.86 0 0 1-.226-.587v-.633l.27.136a.55.55 0 0 1-.18.406 2.6 2.6 0 0 1-.497.498c-.226.135-.452.27-.723.406-.272.09-.588.181-.904.181-.588 0-1.13-.135-1.628-.452-.497-.316-.859-.723-1.175-1.265q-.407-.814-.407-1.899t.407-1.898c.271-.543.678-.995 1.13-1.266a2.8 2.8 0 0 1 1.582-.452c.362 0 .723.045 1.04.18.316.136.587.272.813.453q.339.27.543.542c.136.181.18.317.18.452l-.451.181v-.95c0-.225.09-.406.226-.587.09-.361.27-.407.542-.407m-2.667 5.831c.407 0 .723-.09.995-.27.27-.182.497-.453.678-.77.18-.316.226-.723.226-1.13s-.09-.813-.226-1.13c-.181-.316-.407-.587-.678-.768-.272-.18-.633-.271-.995-.271-.361 0-.723.09-.994.271-.272.181-.498.452-.678.769-.181.316-.226.723-.226 1.13s.09.768.226 1.13c.18.316.407.587.678.768.27.181.587.271.994.271m6.87.498c0 .226-.09.406-.225.587a.86.86 0 0 1-.588.226.75.75 0 0 1-.542-.226.86.86 0 0 1-.226-.587v-8.137c0-.226.09-.407.226-.587a.86.86 0 0 1 .587-.226c.226 0 .407.09.543.226a.86.86 0 0 1 .226.587z"/>
    </g>
    <defs>
        <clipPath id="a">
            <path fill="#fff" d="M.132.91h100v26.746h-100z"/>
        </clipPath>
    </defs>
</svg>
