<svg width="32" height="35" viewBox="0 0 32 35" fill="none" xmlns="http://www.w3.org/2000/svg">
<path d="M15.3291 17.147C14.8613 17.1463 14.3961 17.2166 13.9494 17.3554C11.7154 18.0309 10.3156 20.2433 10.6618 22.5513C11.008 24.8593 12.9953 26.5637 15.3291 26.554C15.7991 26.5517 16.2663 26.4815 16.7161 26.3456C18.9305 25.6514 20.3085 23.4469 19.9625 21.1522C19.6165 18.8575 17.6498 17.1574 15.3291 17.147Z" fill="#80829B"/>
<path d="M14.0357 19.1734C14.4772 20.5644 14.0336 22.0843 12.9132 23.0193C11.7927 23.9544 10.218 24.1189 8.92847 23.4356C7.63895 22.7523 6.89079 21.3569 7.03532 19.9047C7.17985 18.4525 8.18836 17.232 9.58727 16.8163C11.4647 16.2583 13.4431 17.3067 14.0357 19.1734Z" fill="white"/>
<path d="M24.212 30.442C24.784 32.3002 23.7417 34.2704 21.8837 34.843C20.0257 35.4157 18.0552 34.3742 17.4818 32.5164C16.9084 30.6586 17.9492 28.6876 19.8067 28.1136C20.6997 27.8376 21.6657 27.9279 22.492 28.3647C23.3183 28.8014 23.9371 29.5487 24.212 30.442Z" fill="white"/>
<path d="M2.44421 25.2388C2.20066 25.2392 1.95851 25.2755 1.72556 25.3466C0.511124 25.721 -0.209449 26.9682 0.0727988 28.2073C0.355046 29.4464 1.5447 30.2584 2.80147 30.0699C4.05825 29.8814 4.95728 28.756 4.86355 27.4886C4.76983 26.2213 3.71504 25.2404 2.44421 25.2388" fill="white"/>
<path d="M24.8803 20.8912C24.7023 20.8893 24.5251 20.916 24.3556 20.9703C23.5059 21.231 22.9745 22.074 23.1058 22.9531C23.237 23.8322 23.9914 24.4832 24.8803 24.4844C25.0603 24.4828 25.2393 24.4562 25.412 24.4054C26.2631 24.1442 26.7946 23.2992 26.6614 22.419C26.5282 21.5388 25.7705 20.8889 24.8803 20.8912Z" fill="#CCCDD7"/>
<path d="M5.57813 6.97071C5.17844 6.97055 4.78104 7.03113 4.39955 7.15037C2.40277 7.77028 1.22151 9.82473 1.69032 11.8623C2.15913 13.8998 4.11946 15.2315 6.18638 14.9164C8.2533 14.6013 9.72783 12.7461 9.56824 10.6614C9.40866 8.57669 7.66892 6.96751 5.57813 6.97071Z" fill="#80829B"/>
<path d="M21.6168 0C20.8709 0.000153993 20.1294 0.114051 19.4178 0.337763C15.9058 1.43111 13.7132 4.91928 14.2507 8.55805C14.7882 12.1968 17.8956 14.9021 21.5737 14.9334C22.319 14.9322 23.0601 14.8208 23.7728 14.6028C27.2966 13.5181 29.5012 10.0236 28.9627 6.37605C28.4241 2.72853 25.3038 0.0201615 21.6168 0" fill="#CCCDD7"/>
<path d="M28.8982 4.20415C27.3037 4.20483 25.9728 5.42127 25.8291 7.00932C25.6854 8.59736 26.7764 10.0329 28.3449 10.3198C28.5297 10.3544 28.7174 10.3712 28.9054 10.3701C30.5 10.3694 31.8309 9.153 31.9746 7.56496C32.1182 5.97691 31.0273 4.54133 29.4588 4.25446C29.274 4.21989 29.0863 4.20304 28.8982 4.20415Z" fill="white"/>
</svg>
