<svg xmlns="http://www.w3.org/2000/svg" width="100" height="29" fill="none">
    <g clip-path="url(#a)">
        <path fill="#006ADC" d="M25.154 18.208a.775.775 0 0 1-.197-.548v-5.912a.769.769 0 0 1 .219-.592.722.722 0 0 1 .58-.213.764.764 0 0 1 .58.219c.145.157.222.369.212.586v5.32h2.617c.495 0 .745.225.745.674 0 .45-.25.663-.745.663h-3.463a.726.726 0 0 1-.548-.197Z"/>
        <path fill="#006ADC" fill-rule="evenodd" d="M35.01 17.468a.677.677 0 0 0-.127-.427.389.389 0 0 0-.32-.142.786.786 0 0 0-.233.043l-.277.116a7.566 7.566 0 0 1-.532.197c-.173.05-.352.075-.532.071a1.179 1.179 0 0 1-.845-.274 1.435 1.435 0 0 1-.367-.898h2.856a.383.383 0 0 0 .303-.127.52.52 0 0 0 .107-.35 2.938 2.938 0 0 0-.288-1.337 2.125 2.125 0 0 0-.798-.888 2.327 2.327 0 0 0-1.202-.307 2.449 2.449 0 0 0-1.276.34c-.372.23-.675.56-.878.954-.21.423-.318.893-.314 1.37-.013.495.099.986.325 1.424.215.4.54.724.936.931.44.226.928.337 1.42.324.288-.003.574-.044.851-.12.28-.069.549-.172.803-.308a.898.898 0 0 0 .288-.257.56.56 0 0 0 .1-.335Zm-3.233-2.13c.01-.309.12-.604.313-.84a.927.927 0 0 1 .708-.29.844.844 0 0 1 .675.285c.178.243.273.54.272.844h-1.968Z" clip-rule="evenodd"/>
        <path fill="#006ADC" d="M36.787 18.384a2.432 2.432 0 0 1-.803-.335.67.67 0 0 1-.24-.252.787.787 0 0 1-.08-.361.592.592 0 0 1 .134-.4.405.405 0 0 1 .324-.165c.09.001.18.016.266.044l.277.115c.183.085.371.156.564.214.222.058.451.084.68.077.184.005.367-.034.532-.116a.346.346 0 0 0 .197-.312.312.312 0 0 0-.085-.235.784.784 0 0 0-.324-.165 8.352 8.352 0 0 0-.745-.18 2.738 2.738 0 0 1-1.303-.548 1.268 1.268 0 0 1-.4-.998 1.391 1.391 0 0 1 .283-.849c.21-.264.485-.463.798-.575a2.71 2.71 0 0 1 1.1-.214c.293-.005.585.03.868.104.262.07.513.179.745.323.205.12.328.349.319.592a.698.698 0 0 1-.133.422.41.41 0 0 1-.33.164 1.164 1.164 0 0 1-.532-.186 2.98 2.98 0 0 0-.468-.208 1.644 1.644 0 0 0-.495-.066.893.893 0 0 0-.5.12.375.375 0 0 0-.18.33.368.368 0 0 0 .212.34c.264.111.541.188.825.23.365.066.722.176 1.063.328.22.108.405.28.532.493.125.227.186.485.176.745.012.476-.212.925-.596 1.19a2.6 2.6 0 0 1-1.596.438 4.874 4.874 0 0 1-1.085-.104Z"/>
        <path fill="#006ADC" fill-rule="evenodd" d="M48.271 17.468a.677.677 0 0 0-.127-.427.39.39 0 0 0-.309-.17.854.854 0 0 0-.24.044l-.27.115a7.585 7.585 0 0 1-.532.197c-.173.05-.353.075-.532.072a1.178 1.178 0 0 1-.846-.274 1.435 1.435 0 0 1-.367-.899h2.856a.393.393 0 0 0 .303-.126.52.52 0 0 0 .107-.35 2.937 2.937 0 0 0-.287-1.338 2.102 2.102 0 0 0-.804-.887 2.297 2.297 0 0 0-1.196-.307 2.422 2.422 0 0 0-1.277.34c-.372.229-.675.559-.878.953a3.281 3.281 0 0 0 0 2.822c.214.4.54.725.937.931.44.226.928.337 1.42.324a3.23 3.23 0 0 0 .846-.12c.28-.068.552-.17.808-.308a.896.896 0 0 0 .287-.257.559.559 0 0 0 .101-.335Zm-3.234-2.13c.01-.309.12-.604.314-.84a.916.916 0 0 1 .708-.29.844.844 0 0 1 .675.285c.178.243.273.54.271.844h-1.968Z" clip-rule="evenodd"/>
        <path fill="#006ADC" d="M56.66 13.628c.33.477.487 1.059.441 1.643v2.455a.723.723 0 0 1-.213.548.814.814 0 0 1-.532.192.84.84 0 0 1-.532-.192.689.689 0 0 1-.223-.548v-2.455a1.122 1.122 0 0 0-.17-.707.623.623 0 0 0-.532-.208.85.85 0 0 0-.686.307 1.285 1.285 0 0 0-.277.871v2.192a.701.701 0 0 1-.213.548.814.814 0 0 1-.532.192.84.84 0 0 1-.531-.192.689.689 0 0 1-.224-.548v-2.455a1.122 1.122 0 0 0-.165-.707.64.64 0 0 0-.532-.208.85.85 0 0 0-.686.307 1.287 1.287 0 0 0-.255.85v2.191a.706.706 0 0 1-.218.548.878.878 0 0 1-1.112.022.678.678 0 0 1-.229-.548v-3.835a.672.672 0 0 1 .23-.548.85.85 0 0 1 .531-.187.73.73 0 0 1 .532.181.65.65 0 0 1 .202.51v.104c.158-.257.378-.466.638-.608.278-.141.584-.212.894-.209.321-.016.64.056.925.209.265.17.467.427.575.728.158-.29.39-.53.67-.695.3-.174.64-.263.984-.258.466-.025.919.161 1.24.51Z"/>
        <path fill="#006ADC" fill-rule="evenodd" d="M63.298 14.438a2.277 2.277 0 0 0-.782-.98 2.02 2.02 0 0 0-1.149-.34 1.958 1.958 0 0 0-.936.225 1.613 1.613 0 0 0-.681.63v-.082a.73.73 0 0 0-.208-.548.732.732 0 0 0-.531-.203.758.758 0 0 0-.532.203.73.73 0 0 0-.208.548v5.714a.678.678 0 0 0 .218.548.835.835 0 0 0 .575.198c.194.009.385-.06.532-.192a.645.645 0 0 0 .207-.504V17.67c.15.26.37.469.633.603.288.145.605.218.926.214a2.044 2.044 0 0 0 1.936-1.255c.192-.433.288-.905.282-1.38a3.374 3.374 0 0 0-.282-1.415Zm-1.245 1.376c.028.39-.077.777-.298 1.096v-.006c-.215.241-.52.379-.838.379-.318 0-.622-.138-.837-.379a2.186 2.186 0 0 1 0-2.191.998.998 0 0 1 .84-.39.989.989 0 0 1 .835.395c.213.322.317.707.298 1.096Z" clip-rule="evenodd"/>
        <path fill="#006ADC" d="M64.74 18.274a.706.706 0 0 1-.219-.548v-6.027a.706.706 0 0 1 .218-.548.834.834 0 0 1 .532-.186.814.814 0 0 1 .532.186c.148.14.228.34.218.548v6.027a.706.706 0 0 1-.218.548.835.835 0 0 1-1.064 0Z"/>
        <path fill="#006ADC" fill-rule="evenodd" d="M67.33 17.222c.212.4.534.725.925.937a3.14 3.14 0 0 0 2.798 0c.394-.21.718-.536.931-.937a3.293 3.293 0 0 0 0-2.85 2.277 2.277 0 0 0-.93-.93 3.19 3.19 0 0 0-2.799 0c-.39.21-.711.534-.925.93a3.24 3.24 0 0 0 0 2.85Zm3.16-2.52c.21.322.312.707.287 1.095 0 .992-.378 1.502-1.123 1.502-.744 0-1.122-.499-1.122-1.485 0-.986.378-1.485 1.122-1.485.32-.018.63.12.835.372ZM73.17 11.496a.746.746 0 0 0 .234.586v-.022c.385.286.903.286 1.288 0a.762.762 0 0 0 .234-.586.727.727 0 0 0-.24-.548.898.898 0 0 0-.638-.219.919.919 0 0 0-.644.214.712.712 0 0 0-.234.575Zm.08 6.23c-.01.207.07.408.218.548a.825.825 0 0 0 .537.192.793.793 0 0 0 .532-.192.689.689 0 0 0 .224-.548v-3.835a.69.69 0 0 0-.224-.548.788.788 0 0 0-.532-.187.83.83 0 0 0-.532.187.69.69 0 0 0-.223.548v3.835Z" clip-rule="evenodd"/>
        <path fill="#006ADC" d="M76.793 18.384a2.459 2.459 0 0 1-.809-.335.655.655 0 0 1-.234-.252.787.787 0 0 1-.08-.361.592.592 0 0 1 .133-.4.4.4 0 0 1 .325-.165c.09.001.18.016.266.044l.276.115c.181.085.368.156.559.214.224.057.455.083.686.077.184.006.366-.034.532-.116a.35.35 0 0 0 .202-.312.311.311 0 0 0-.09-.235.79.79 0 0 0-.32-.165 8.37 8.37 0 0 0-.744-.18 2.759 2.759 0 0 1-1.309-.548 1.268 1.268 0 0 1-.399-.998 1.39 1.39 0 0 1 .282-.849c.21-.262.483-.46.793-.575.35-.147.724-.22 1.1-.214.292 0 .581.038.862.115.262.07.513.18.745.323.203.123.323.35.314.592a.665.665 0 0 1-.133.422.4.4 0 0 1-.325.164 1.162 1.162 0 0 1-.563-.186 3.189 3.189 0 0 0-.463-.208 1.643 1.643 0 0 0-.495-.066.882.882 0 0 0-.5.12.38.38 0 0 0-.186.33c.001.147.087.28.218.34.264.113.541.19.825.23.366.065.723.175 1.064.328.23.105.425.276.563.493.348.664.167 1.49-.425 1.934a2.602 2.602 0 0 1-1.596.439 4.796 4.796 0 0 1-1.074-.115Z"/>
        <path fill="#000638" fill-rule="evenodd" d="M28.277 22.367a.34.34 0 0 0-.085-.23h.026a.37.37 0 0 0-.479 0 .317.317 0 0 0-.08.23v2.192a1.301 1.301 0 0 0-.531-.587 1.492 1.492 0 0 0-.793-.202 1.593 1.593 0 0 0-1.505.975c-.15.344-.223.719-.213 1.096-.008.377.064.75.213 1.096.131.298.341.552.606.734.268.178.58.27.9.263.277.006.55-.066.792-.208.232-.132.418-.335.532-.581v.444a.34.34 0 0 0 .117.373.317.317 0 0 0 .382 0 .34.34 0 0 0 .118-.373v-5.222Zm-.617 3.49c.016.404-.1.802-.33 1.129l.021-.022c-.224.254-.542.4-.875.4-.333 0-.651-.146-.875-.4a1.786 1.786 0 0 1-.32-1.134 1.679 1.679 0 0 1 .32-1.096 1.05 1.05 0 0 1 .878-.395 1.05 1.05 0 0 1 .872.395c.224.327.333.723.309 1.123ZM32.697 27.233a.285.285 0 0 0-.064-.192.195.195 0 0 0-.154-.077.717.717 0 0 0-.277.12c-.154.09-.314.17-.479.236-.17.06-.35.09-.531.088-.82 0-1.256-.471-1.304-1.414h2.559a.261.261 0 0 0 .207-.071.37.37 0 0 0 .064-.241c.027-.5-.133-.992-.447-1.375a1.52 1.52 0 0 0-1.202-.51 1.742 1.742 0 0 0-.952.263 1.72 1.72 0 0 0-.649.734c-.162.34-.242.717-.234 1.096a2.125 2.125 0 0 0 .532 1.518c.38.378.897.576 1.426.548a2.47 2.47 0 0 0 1.223-.346c.186-.114.282-.24.282-.377Zm-2.793-1.66c.017-.343.146-.67.367-.927v-.022c.214-.222.51-.34.814-.323a.986.986 0 0 1 .782.34c.201.265.305.595.293.931h-2.256Z" clip-rule="evenodd"/>
        <path fill="#000638" d="M36.734 27.747a.706.706 0 0 1-.218-.547v-6.027a.707.707 0 0 1 .218-.548.836.836 0 0 1 .532-.187.815.815 0 0 1 .532.187c.148.14.228.34.218.547V27.2a.707.707 0 0 1-.218.547.836.836 0 0 1-1.064 0ZM40.601 20.707c.173.248.26.55.245.854a2.715 2.715 0 0 1-.766 1.913.42.42 0 0 1-.32.148.455.455 0 0 1-.303-.12.382.382 0 0 1-.133-.291.4.4 0 0 1 .112-.274c.211-.216.368-.48.458-.773a.847.847 0 0 1-.532-.263.825.825 0 0 1-.213-.586.904.904 0 0 1 .213-.647.766.766 0 0 1 .595-.257.81.81 0 0 1 .644.296Z"/>
        <path fill="#000638" fill-rule="evenodd" d="M41.787 20.975a.763.763 0 0 0 .234.586c.386.288.907.288 1.293 0a.746.746 0 0 0 .229-.58.728.728 0 0 0-.24-.548.897.897 0 0 0-.638-.22.929.929 0 0 0-.644.214.733.733 0 0 0-.234.548Zm.101 6.236a.69.69 0 0 0 .224.548.889.889 0 0 0 1.1 0 .707.707 0 0 0 .219-.548v-3.836a.707.707 0 0 0-.218-.548.899.899 0 0 0-1.096 0 .678.678 0 0 0-.229.548v3.836Z" clip-rule="evenodd"/>
        <path fill="#000638" d="M49.101 23.128c.33.478.486 1.06.442 1.644V27.2a.702.702 0 0 1-.213.547.884.884 0 0 1-1.128 0A.736.736 0 0 1 48 27.2v-2.351a1.25 1.25 0 0 0-.191-.767.697.697 0 0 0-.586-.241.996.996 0 0 0-.77.318c-.2.23-.303.53-.288.838v2.192a.718.718 0 0 1-.208.548.773.773 0 0 1-.558.202.8.8 0 0 1-.57-.202.719.719 0 0 1-.207-.548v-3.836a.679.679 0 0 1 .218-.548.82.82 0 0 1 .57-.197.673.673 0 0 1 .734.69v.148c.163-.27.392-.491.665-.64.297-.15.626-.226.957-.22.502-.04.994.16 1.335.543ZM51.654 27.632a2.205 2.205 0 0 1-.893-.926 3.023 3.023 0 0 1-.309-1.408 2.925 2.925 0 0 1 .33-1.424c.213-.405.537-.736.93-.954a2.81 2.81 0 0 1 1.39-.334c.278 0 .555.04.824.115.26.07.509.18.739.323a.662.662 0 0 1 .319.592.761.761 0 0 1-.122.444.38.38 0 0 1-.33.175.636.636 0 0 1-.25-.049c-.08 0-.18-.077-.309-.137a2.834 2.834 0 0 0-.383-.18 1.036 1.036 0 0 0-.383-.067 1.05 1.05 0 0 0-.872.378 1.68 1.68 0 0 0-.303 1.096c-.025.39.082.778.303 1.096.218.26.54.4.872.378.129.002.256-.019.378-.06.135-.051.267-.112.394-.18l.308-.143a.591.591 0 0 1 .245-.05c.13 0 .253.069.324.181.089.132.134.29.128.45a.628.628 0 0 1-.32.58 2.73 2.73 0 0 1-.754.324 3.46 3.46 0 0 1-.9.115 2.71 2.71 0 0 1-1.356-.335ZM55.957 27.747a.69.69 0 0 1-.223-.547v-6.028a.69.69 0 0 1 .223-.547.91.91 0 0 1 1.102 0c.15.138.23.34.218.547V27.2a.69.69 0 0 1-.218.547.889.889 0 0 1-1.102 0ZM63.08 22.805a.73.73 0 0 1 .213.548v3.836a.667.667 0 0 1-.224.548.81.81 0 0 1-.564.202.716.716 0 0 1-.532-.192.684.684 0 0 1-.196-.504v-.104a1.585 1.585 0 0 1-.607.608c-.754.37-1.65.241-2.276-.328a2.48 2.48 0 0 1-.463-1.644v-2.422a.724.724 0 0 1 .207-.548.804.804 0 0 1 .57-.197.757.757 0 0 1 .558.197.724.724 0 0 1 .207.548v2.46c-.016.242.05.483.187.68a.722.722 0 0 0 .58.219.918.918 0 0 0 .728-.318c.194-.228.295-.524.282-.827v-2.192a.724.724 0 0 1 .202-.548.783.783 0 0 1 .564-.197.787.787 0 0 1 .564.175ZM65.293 27.852a2.459 2.459 0 0 1-.809-.335.655.655 0 0 1-.234-.252.786.786 0 0 1-.08-.361.592.592 0 0 1 .133-.4.4.4 0 0 1 .325-.165c.09 0 .18.018.266.05.094.03.186.067.276.11.173.083.35.154.532.213.224.057.455.083.686.077.184.006.367-.033.532-.115.12-.055.2-.177.202-.313a.312.312 0 0 0-.09-.235.752.752 0 0 0-.32-.165 8.37 8.37 0 0 0-.744-.18 2.759 2.759 0 0 1-1.308-.548 1.269 1.269 0 0 1-.4-.998 1.39 1.39 0 0 1 .283-.849c.202-.265.467-.47.77-.597.35-.147.725-.22 1.102-.214.29 0 .58.039.862.115.261.071.512.18.744.323.202.124.322.35.314.592a.654.654 0 0 1-.133.422.4.4 0 0 1-.324.165 1.163 1.163 0 0 1-.564-.187 3.187 3.187 0 0 0-.463-.208 1.648 1.648 0 0 0-.495-.066.883.883 0 0 0-.5.12.38.38 0 0 0-.186.33c.001.147.087.28.218.34.264.113.541.19.825.23.366.066.723.176 1.064.328.227.107.42.278.558.493.348.664.166 1.49-.425 1.934a2.6 2.6 0 0 1-1.596.439 4.798 4.798 0 0 1-1.021-.093Z"/>
        <path fill="#000638" fill-rule="evenodd" d="M69.346 20.975a.746.746 0 0 0 .234.586c.383.285.899.285 1.282 0a.75.75 0 0 0 .24-.586.716.716 0 0 0-.246-.548 1.04 1.04 0 0 0-1.276 0 .711.711 0 0 0-.234.548Zm.117 6.225a.69.69 0 0 0 .218.547h-.032a.889.889 0 0 0 1.101 0 .69.69 0 0 0 .218-.547v-3.836a.69.69 0 0 0-.218-.548.804.804 0 0 0-.532-.186.825.825 0 0 0-.532.186.69.69 0 0 0-.223.548V27.2ZM72.25 26.69c.214.4.538.726.93.937a3.14 3.14 0 0 0 2.799 0c.393-.211.716-.537.93-.937a3.292 3.292 0 0 0 0-2.85 2.309 2.309 0 0 0-.93-.93 3.19 3.19 0 0 0-2.798 0c-.392.21-.715.534-.931.93a3.292 3.292 0 0 0 0 2.85Zm3.16-2.52c.215.32.318.706.292 1.095 0 .992-.372 1.502-1.122 1.502-.75 0-1.123-.499-1.123-1.485 0-.986.373-1.48 1.123-1.48a.987.987 0 0 1 .83.368Z" clip-rule="evenodd"/>
        <path fill="#000638" d="M82.654 23.128a2.56 2.56 0 0 1 .436 1.644V27.2a.718.718 0 0 1-.207.547.799.799 0 0 1-.57.203.778.778 0 0 1-.558-.203.713.713 0 0 1-.202-.547v-2.351a1.25 1.25 0 0 0-.191-.767.702.702 0 0 0-.585-.241.985.985 0 0 0-.772.318c-.203.227-.308.53-.292.838v2.192a.735.735 0 0 1-.202.548.884.884 0 0 1-1.128 0 .701.701 0 0 1-.213-.548v-3.836a.667.667 0 0 1 .224-.548.81.81 0 0 1 .563-.197.716.716 0 0 1 .532.192c.132.13.204.31.197.498v.148c.172-.272.41-.493.692-.64.296-.15.622-.226.952-.22a1.62 1.62 0 0 1 1.324.543Z"/>
        <path fill="#CCE1F8" d="M11.835 13.595c-.346.002-.69.055-1.021.159-1.651.514-2.685 2.199-2.429 3.956.256 1.757 1.725 3.054 3.45 3.046.346 0 .69-.053 1.021-.159 1.636-.528 2.654-2.205 2.4-3.951-.255-1.746-1.707-3.041-3.42-3.051Z"/>
        <path fill="#006ADC" d="M10.878 15.14c.423 1.429-.358 2.94-1.745 3.378-1.387.437-2.855-.366-3.28-1.794-.426-1.428.352-2.941 1.737-3.381a2.554 2.554 0 0 1 2.007.194 2.685 2.685 0 0 1 1.28 1.603Z"/>
        <path fill="#CCE1F8" d="M16.49.549c-2.383-.01-4.502 1.557-5.255 3.885-.753 2.328.03 4.89 1.94 6.355a5.386 5.386 0 0 0 6.468.088c1.948-1.413 2.795-3.954 2.102-6.301C21.028 2.2 18.905.572 16.489.549Z"/>
        <path fill="#006ADC" d="M21.862 3.743c-1.17.015-2.14.938-2.245 2.138-.105 1.2.687 2.288 1.835 2.52.137.026.276.039.415.038 1.177-.003 2.157-.93 2.262-2.136.105-1.207-.7-2.298-1.858-2.516a2.125 2.125 0 0 0-.41-.044M18.399 23.72a2.734 2.734 0 0 1-.833 2.857c-.813.692-1.95.81-2.882.3-.93-.508-1.472-1.545-1.372-2.626.1-1.081.824-1.994 1.832-2.312.66-.21 1.375-.14 1.986.194.611.335 1.068.906 1.269 1.587ZM2.314 19.753c-.774 0-1.461.512-1.703 1.269-.243.757.014 1.589.637 2.063a1.75 1.75 0 0 0 2.101.022c.632-.461.905-1.287.678-2.05a1.816 1.816 0 0 0-1.713-1.304Z"/>
        <path fill="#CCE1F8" d="M18.894 16.444a1.362 1.362 0 0 0-.389.06c-.635.191-1.036.837-.938 1.512.098.674.664 1.17 1.327 1.162.131.002.263-.019.388-.06.636-.191 1.037-.837.939-1.512-.098-.675-.665-1.17-1.327-1.162ZM4.628 5.853c-1.637 0-2.963 1.366-2.963 3.051 0 1.686 1.326 3.052 2.963 3.052.293 0 .585-.045.867-.131 1.406-.44 2.287-1.875 2.07-3.372-.218-1.497-1.468-2.604-2.937-2.6Z"/>
    </g>
    <defs>
        <clipPath id="a">
            <path fill="#fff" d="M0 .193h100v27.944H0z"/>
        </clipPath>
    </defs>
</svg>
