<svg xmlns="http://www.w3.org/2000/svg" width="32" height="35" fill="none">
    <path fill="#80829B" d="M15.33 17.147c-.469 0-.934.07-1.38.208a4.7 4.7 0 0 0 1.38 9.199c.47-.002.936-.072 1.386-.208a4.707 4.707 0 0 0-1.387-9.199Z"/>
    <path fill="#fff" d="M14.036 19.173a3.593 3.593 0 1 1-6.85 2.175 3.593 3.593 0 0 1 6.85-2.175ZM24.212 30.442a3.521 3.521 0 1 1-6.73 2.072 3.521 3.521 0 0 1 6.73-2.072ZM2.444 25.239a2.429 2.429 0 1 0-.006 4.858 2.429 2.429 0 0 0 .006-4.858"/>
    <path fill="#CCCDD7" d="M24.88 20.891a1.797 1.797 0 1 0 .532 3.514 1.797 1.797 0 0 0-.532-3.514Z"/>
    <path fill="#80829B" d="M5.578 6.97a3.996 3.996 0 1 0 .012 7.991 3.996 3.996 0 0 0-.012-7.99Z"/>
    <path fill="#CCCDD7" d="M21.617 0a7.467 7.467 0 0 0-.043 14.933A7.467 7.467 0 0 0 21.617 0"/>
    <path fill="#fff" d="M28.898 4.204a3.083 3.083 0 1 0 .007 6.166 3.083 3.083 0 1 0-.007-6.166Z"/>
</svg>
