<svg xmlns="http://www.w3.org/2000/svg" width="100" height="29" fill="none">
    <g clip-path="url(#a)">
        <path fill="#006ADC" d="M25.154 18.208a.78.78 0 0 1-.197-.548v-5.912a.77.77 0 0 1 .219-.592.72.72 0 0 1 .58-.213.76.76 0 0 1 .58.219.8.8 0 0 1 .212.586v5.32h2.617q.744 0 .745.674c0 .45-.25.663-.745.663h-3.463a.73.73 0 0 1-.548-.197"/>
        <path fill="#006ADC" fill-rule="evenodd" d="M35.01 17.468a.68.68 0 0 0-.127-.427.39.39 0 0 0-.32-.142.8.8 0 0 0-.233.043l-.277.116a8 8 0 0 1-.532.197q-.26.076-.532.071a1.18 1.18 0 0 1-.845-.274 1.44 1.44 0 0 1-.367-.898h2.856a.38.38 0 0 0 .303-.127.52.52 0 0 0 .107-.35 2.94 2.94 0 0 0-.288-1.337 2.13 2.13 0 0 0-.798-.888 2.33 2.33 0 0 0-1.202-.307 2.45 2.45 0 0 0-1.276.34c-.372.23-.675.56-.878.954-.21.423-.318.893-.314 1.37a2.94 2.94 0 0 0 .325 1.424c.215.4.54.724.936.931.44.226.928.337 1.42.324q.434-.005.851-.12.421-.104.803-.308a.9.9 0 0 0 .288-.257.56.56 0 0 0 .1-.335m-3.233-2.13c.01-.309.12-.604.313-.84a.93.93 0 0 1 .708-.29.84.84 0 0 1 .675.285c.178.243.273.54.272.844z" clip-rule="evenodd"/>
        <path fill="#006ADC" d="M36.787 18.384a2.4 2.4 0 0 1-.803-.335.67.67 0 0 1-.24-.252.8.8 0 0 1-.08-.361.6.6 0 0 1 .134-.4.4.4 0 0 1 .324-.165q.136.002.266.044l.277.115q.274.127.564.214a2.4 2.4 0 0 0 .68.077c.184.005.367-.034.532-.116a.35.35 0 0 0 .197-.312.3.3 0 0 0-.085-.235.8.8 0 0 0-.324-.165 8 8 0 0 0-.745-.18 2.74 2.74 0 0 1-1.303-.548 1.27 1.27 0 0 1-.4-.998 1.4 1.4 0 0 1 .283-.849c.21-.264.485-.463.798-.575a2.7 2.7 0 0 1 1.1-.214c.293-.005.585.03.868.104q.395.106.745.323c.205.12.328.349.319.592a.7.7 0 0 1-.133.422.41.41 0 0 1-.33.164 1.16 1.16 0 0 1-.532-.186 3 3 0 0 0-.468-.208 1.6 1.6 0 0 0-.495-.066.9.9 0 0 0-.5.12.38.38 0 0 0-.18.33.37.37 0 0 0 .212.34q.397.167.825.23.55.1 1.063.328c.22.108.405.28.532.493.125.227.186.485.176.745a1.4 1.4 0 0 1-.596 1.19 2.6 2.6 0 0 1-1.596.438 5 5 0 0 1-1.085-.104"/>
        <path fill="#006ADC" fill-rule="evenodd" d="M48.271 17.468a.68.68 0 0 0-.127-.427.39.39 0 0 0-.309-.17 1 1 0 0 0-.24.044l-.27.115a8 8 0 0 1-.532.197q-.262.076-.532.072a1.18 1.18 0 0 1-.846-.274 1.44 1.44 0 0 1-.367-.899h2.856a.4.4 0 0 0 .303-.126.52.52 0 0 0 .107-.35 2.94 2.94 0 0 0-.287-1.338 2.1 2.1 0 0 0-.804-.887 2.3 2.3 0 0 0-1.196-.307 2.4 2.4 0 0 0-1.277.34 2.4 2.4 0 0 0-.878.953 3.28 3.28 0 0 0 0 2.822c.214.4.54.725.937.931.44.226.928.337 1.42.324a3.2 3.2 0 0 0 .846-.12q.422-.102.808-.308a.9.9 0 0 0 .287-.257.56.56 0 0 0 .101-.335m-3.234-2.13c.01-.309.12-.604.314-.84a.92.92 0 0 1 .708-.29.84.84 0 0 1 .675.285c.178.243.273.54.271.844z" clip-rule="evenodd"/>
        <path fill="#006ADC" d="M56.66 13.628c.33.477.487 1.059.441 1.643v2.455a.72.72 0 0 1-.213.548.8.8 0 0 1-.532.192.84.84 0 0 1-.532-.192.69.69 0 0 1-.223-.548v-2.455a1.12 1.12 0 0 0-.17-.707.62.62 0 0 0-.532-.208.85.85 0 0 0-.686.307 1.3 1.3 0 0 0-.277.871v2.192a.7.7 0 0 1-.213.548.8.8 0 0 1-.532.192.84.84 0 0 1-.531-.192.69.69 0 0 1-.224-.548v-2.455a1.12 1.12 0 0 0-.165-.707.64.64 0 0 0-.532-.208.85.85 0 0 0-.686.307 1.3 1.3 0 0 0-.255.85v2.191a.7.7 0 0 1-.218.548.88.88 0 0 1-1.112.022.68.68 0 0 1-.229-.548v-3.835a.67.67 0 0 1 .23-.548.85.85 0 0 1 .531-.187.73.73 0 0 1 .532.181.65.65 0 0 1 .202.51v.104c.158-.257.378-.466.638-.608.278-.141.584-.212.894-.209.321-.016.64.056.925.209.265.17.467.427.575.728.158-.29.39-.53.67-.695.3-.174.64-.263.984-.258a1.57 1.57 0 0 1 1.24.51"/>
        <path fill="#006ADC" fill-rule="evenodd" d="M63.298 14.438a2.3 2.3 0 0 0-.782-.98 2 2 0 0 0-1.149-.34 1.96 1.96 0 0 0-.936.225 1.6 1.6 0 0 0-.681.63v-.082a.73.73 0 0 0-.208-.548.73.73 0 0 0-.531-.203.76.76 0 0 0-.532.203.73.73 0 0 0-.208.548v5.714a.68.68 0 0 0 .218.548.84.84 0 0 0 .575.198.75.75 0 0 0 .532-.192.65.65 0 0 0 .207-.504V17.67c.15.26.37.469.633.603.288.145.605.218.926.214a2.04 2.04 0 0 0 1.936-1.255c.192-.433.288-.905.282-1.38a3.4 3.4 0 0 0-.282-1.415Zm-1.245 1.376a1.7 1.7 0 0 1-.298 1.096v-.006c-.215.241-.52.379-.838.379s-.622-.138-.837-.379a2.19 2.19 0 0 1 0-2.191 1 1 0 0 1 .84-.39.99.99 0 0 1 .835.395c.213.322.317.707.298 1.096" clip-rule="evenodd"/>
        <path fill="#006ADC" d="M64.74 18.274a.7.7 0 0 1-.219-.548v-6.027a.7.7 0 0 1 .218-.548.83.83 0 0 1 .532-.186.8.8 0 0 1 .532.186c.148.14.228.34.218.548v6.027a.7.7 0 0 1-.218.548.835.835 0 0 1-1.064 0Z"/>
        <path fill="#006ADC" fill-rule="evenodd" d="M67.33 17.222c.212.4.534.725.925.937a3.14 3.14 0 0 0 2.798 0 2.26 2.26 0 0 0 .931-.937 3.3 3.3 0 0 0 0-2.85 2.3 2.3 0 0 0-.93-.93 3.19 3.19 0 0 0-2.799 0c-.39.21-.711.534-.925.93a3.24 3.24 0 0 0 0 2.85m3.16-2.52c.21.322.312.707.287 1.095 0 .992-.378 1.502-1.123 1.502-.744 0-1.122-.499-1.122-1.485s.378-1.485 1.122-1.485c.32-.018.63.12.835.372Zm2.68-3.206a.75.75 0 0 0 .234.586v-.022c.385.286.903.286 1.288 0a.76.76 0 0 0 .234-.586.73.73 0 0 0-.24-.548.9.9 0 0 0-.638-.219.92.92 0 0 0-.644.214.71.71 0 0 0-.234.575m.08 6.23c-.01.207.07.408.218.548a.83.83 0 0 0 .537.192.8.8 0 0 0 .532-.192.69.69 0 0 0 .224-.548v-3.835a.69.69 0 0 0-.224-.548.8.8 0 0 0-.532-.187.83.83 0 0 0-.532.187.69.69 0 0 0-.223.548z" clip-rule="evenodd"/>
        <path fill="#006ADC" d="M76.793 18.384a2.5 2.5 0 0 1-.809-.335.66.66 0 0 1-.234-.252.8.8 0 0 1-.08-.361.6.6 0 0 1 .133-.4.4.4 0 0 1 .325-.165q.136.002.266.044l.276.115q.272.127.559.214.338.086.686.077c.184.006.366-.034.532-.116a.35.35 0 0 0 .202-.312.3.3 0 0 0-.09-.235.8.8 0 0 0-.32-.165 8 8 0 0 0-.744-.18 2.76 2.76 0 0 1-1.309-.548 1.27 1.27 0 0 1-.399-.998 1.4 1.4 0 0 1 .282-.849c.21-.262.483-.46.793-.575.35-.147.724-.22 1.1-.214q.44 0 .862.115c.262.07.513.18.745.323.203.123.323.35.314.592a.67.67 0 0 1-.133.422.4.4 0 0 1-.325.164 1.16 1.16 0 0 1-.563-.186 3 3 0 0 0-.463-.208 1.6 1.6 0 0 0-.495-.066.9.9 0 0 0-.5.12.38.38 0 0 0-.186.33c.001.147.087.28.218.34q.398.17.825.23.55.098 1.064.328c.23.105.425.276.563.493.348.664.167 1.49-.425 1.934a2.6 2.6 0 0 1-1.596.439 4.8 4.8 0 0 1-1.074-.115"/>
        <path fill="#000638" fill-rule="evenodd" d="M28.277 22.367a.34.34 0 0 0-.085-.23h.026a.37.37 0 0 0-.479 0 .32.32 0 0 0-.08.23v2.192a1.3 1.3 0 0 0-.531-.587 1.5 1.5 0 0 0-.793-.202 1.59 1.59 0 0 0-1.505.975c-.15.344-.223.719-.213 1.096-.008.377.064.75.213 1.096.131.298.341.552.606.734.268.178.58.27.9.263.277.006.55-.066.792-.208.232-.132.418-.335.532-.581v.444a.34.34 0 0 0 .117.373.32.32 0 0 0 .382 0 .34.34 0 0 0 .118-.373zm-.617 3.49c.016.404-.1.802-.33 1.129l.021-.022c-.224.254-.542.4-.875.4s-.651-.146-.875-.4a1.8 1.8 0 0 1-.32-1.134 1.68 1.68 0 0 1 .32-1.096 1.05 1.05 0 0 1 .878-.395 1.05 1.05 0 0 1 .872.395c.224.327.333.723.309 1.123m5.037 1.376a.3.3 0 0 0-.064-.192.2.2 0 0 0-.154-.077.7.7 0 0 0-.277.12q-.231.136-.479.236c-.17.06-.35.09-.531.088q-1.231 0-1.304-1.414h2.559a.26.26 0 0 0 .207-.071.37.37 0 0 0 .064-.241 2 2 0 0 0-.447-1.375 1.52 1.52 0 0 0-1.202-.51 1.74 1.74 0 0 0-.952.263 1.7 1.7 0 0 0-.649.734c-.162.34-.242.717-.234 1.096a2.13 2.13 0 0 0 .532 1.518c.38.378.897.576 1.426.548a2.47 2.47 0 0 0 1.223-.346q.28-.171.282-.377m-2.793-1.66c.017-.343.146-.67.367-.927v-.022c.214-.222.51-.34.814-.323a.99.99 0 0 1 .782.34c.201.265.305.595.293.931z" clip-rule="evenodd"/>
        <path fill="#000638" d="M36.734 27.747a.7.7 0 0 1-.218-.547v-6.027a.7.7 0 0 1 .218-.548.84.84 0 0 1 .532-.187.82.82 0 0 1 .532.187c.148.14.228.34.218.547V27.2a.7.7 0 0 1-.218.547.836.836 0 0 1-1.064 0m3.867-7.04c.173.248.26.55.245.854a2.72 2.72 0 0 1-.766 1.913.42.42 0 0 1-.32.148.46.46 0 0 1-.303-.12.38.38 0 0 1-.133-.291.4.4 0 0 1 .112-.274c.211-.216.368-.48.458-.773a.85.85 0 0 1-.532-.263.83.83 0 0 1-.213-.586.9.9 0 0 1 .213-.647.77.77 0 0 1 .595-.257.81.81 0 0 1 .644.296"/>
        <path fill="#000638" fill-rule="evenodd" d="M41.787 20.975a.76.76 0 0 0 .234.586c.386.288.907.288 1.293 0a.75.75 0 0 0 .229-.58.73.73 0 0 0-.24-.548.9.9 0 0 0-.638-.22.93.93 0 0 0-.644.214.73.73 0 0 0-.234.548m.101 6.236a.69.69 0 0 0 .224.548.89.89 0 0 0 1.1 0 .7.7 0 0 0 .219-.548v-3.836a.7.7 0 0 0-.218-.548.9.9 0 0 0-1.096 0 .68.68 0 0 0-.229.548z" clip-rule="evenodd"/>
        <path fill="#000638" d="M49.101 23.128c.33.478.486 1.06.442 1.644V27.2a.7.7 0 0 1-.213.547.884.884 0 0 1-1.128 0A.74.74 0 0 1 48 27.2v-2.351a1.25 1.25 0 0 0-.191-.767.7.7 0 0 0-.586-.241 1 1 0 0 0-.77.318c-.2.23-.303.53-.288.838v2.192a.72.72 0 0 1-.208.548.77.77 0 0 1-.558.202.8.8 0 0 1-.57-.202.72.72 0 0 1-.207-.548v-3.836a.68.68 0 0 1 .218-.548.82.82 0 0 1 .57-.197.673.673 0 0 1 .734.69v.148c.163-.27.392-.491.665-.64.297-.15.626-.226.957-.22.502-.04.994.16 1.335.543Zm2.553 4.504a2.2 2.2 0 0 1-.893-.926 3 3 0 0 1-.309-1.408 2.9 2.9 0 0 1 .33-1.424 2.33 2.33 0 0 1 .93-.954 2.8 2.8 0 0 1 1.39-.334q.419.001.824.115.392.107.739.323a.66.66 0 0 1 .319.592.76.76 0 0 1-.122.444.38.38 0 0 1-.33.175.6.6 0 0 1-.25-.049c-.08 0-.18-.077-.309-.137a3 3 0 0 0-.383-.18 1 1 0 0 0-.383-.067 1.05 1.05 0 0 0-.872.378 1.68 1.68 0 0 0-.303 1.096c-.025.39.082.778.303 1.096.218.26.54.4.872.378q.194.002.378-.06.203-.077.394-.18l.308-.143a.6.6 0 0 1 .245-.05c.13 0 .253.069.324.181.089.132.134.29.128.45a.63.63 0 0 1-.32.58 2.7 2.7 0 0 1-.754.324 3.5 3.5 0 0 1-.9.115 2.7 2.7 0 0 1-1.356-.335m4.303.115a.69.69 0 0 1-.223-.547v-6.028a.69.69 0 0 1 .223-.547.91.91 0 0 1 1.102 0c.15.138.23.34.218.547V27.2a.69.69 0 0 1-.218.547.89.89 0 0 1-1.102 0m7.123-4.942a.73.73 0 0 1 .213.548v3.836a.67.67 0 0 1-.224.548.8.8 0 0 1-.564.202.72.72 0 0 1-.532-.192.68.68 0 0 1-.196-.504v-.104a1.6 1.6 0 0 1-.607.608c-.754.37-1.65.241-2.276-.328a2.48 2.48 0 0 1-.463-1.644v-2.422a.72.72 0 0 1 .207-.548.8.8 0 0 1 .57-.197.76.76 0 0 1 .558.197.72.72 0 0 1 .207.548v2.46c-.016.242.05.483.187.68a.72.72 0 0 0 .58.219.92.92 0 0 0 .728-.318c.194-.228.295-.524.282-.827v-2.192a.72.72 0 0 1 .202-.548.78.78 0 0 1 .564-.197.8.8 0 0 1 .564.175m2.213 5.047a2.5 2.5 0 0 1-.809-.335.66.66 0 0 1-.234-.252.8.8 0 0 1-.08-.361.6.6 0 0 1 .133-.4.4.4 0 0 1 .325-.165q.136.001.266.05.141.045.276.11.26.124.532.213.338.086.686.077c.184.006.367-.033.532-.115a.35.35 0 0 0 .202-.313.3.3 0 0 0-.09-.235.75.75 0 0 0-.32-.165 8 8 0 0 0-.744-.18 2.76 2.76 0 0 1-1.308-.548 1.27 1.27 0 0 1-.4-.998 1.4 1.4 0 0 1 .283-.849c.202-.265.467-.47.77-.597.35-.147.725-.22 1.102-.214q.437 0 .862.115c.261.071.512.18.744.323.202.124.322.35.314.592a.65.65 0 0 1-.133.422.4.4 0 0 1-.324.165 1.16 1.16 0 0 1-.564-.187 3 3 0 0 0-.463-.208 1.7 1.7 0 0 0-.495-.066.9.9 0 0 0-.5.12.38.38 0 0 0-.186.33c.001.147.087.28.218.34q.398.17.825.23.55.1 1.064.328c.227.107.42.278.558.493.348.664.166 1.49-.425 1.934a2.6 2.6 0 0 1-1.596.439 4.8 4.8 0 0 1-1.021-.093"/>
        <path fill="#000638" fill-rule="evenodd" d="M69.346 20.975a.75.75 0 0 0 .234.586c.383.285.899.285 1.282 0a.75.75 0 0 0 .24-.586.72.72 0 0 0-.246-.548 1.04 1.04 0 0 0-1.276 0 .71.71 0 0 0-.234.548m.117 6.225a.69.69 0 0 0 .218.547h-.032a.89.89 0 0 0 1.101 0 .69.69 0 0 0 .218-.547v-3.836a.69.69 0 0 0-.218-.548.8.8 0 0 0-.532-.186.83.83 0 0 0-.532.186.69.69 0 0 0-.223.548zm2.787-.51c.214.4.538.726.93.937a3.14 3.14 0 0 0 2.799 0c.393-.211.716-.537.93-.937a3.3 3.3 0 0 0 0-2.85 2.3 2.3 0 0 0-.93-.93 3.19 3.19 0 0 0-2.798 0c-.392.21-.715.534-.931.93a3.3 3.3 0 0 0 0 2.85m3.16-2.52c.215.32.318.706.292 1.095 0 .992-.372 1.502-1.122 1.502s-1.123-.499-1.123-1.485q-.001-1.48 1.123-1.48a.99.99 0 0 1 .83.368" clip-rule="evenodd"/>
        <path fill="#000638" d="M82.654 23.128a2.56 2.56 0 0 1 .436 1.644V27.2a.72.72 0 0 1-.207.547.8.8 0 0 1-.57.203.78.78 0 0 1-.558-.203.7.7 0 0 1-.202-.547v-2.351a1.25 1.25 0 0 0-.191-.767.7.7 0 0 0-.585-.241.99.99 0 0 0-.772.318c-.203.227-.308.53-.292.838v2.192a.74.74 0 0 1-.202.548.884.884 0 0 1-1.128 0 .7.7 0 0 1-.213-.548v-3.836a.67.67 0 0 1 .224-.548.8.8 0 0 1 .563-.197.72.72 0 0 1 .532.192c.132.13.204.31.197.498v.148a1.8 1.8 0 0 1 .692-.64c.296-.15.622-.226.952-.22a1.62 1.62 0 0 1 1.324.543Z"/>
        <path fill="#CCE1F8" d="M11.835 13.595c-.346.002-.69.055-1.021.159-1.651.514-2.685 2.199-2.429 3.956s1.725 3.054 3.45 3.046c.346 0 .69-.053 1.021-.159 1.636-.528 2.654-2.205 2.4-3.951-.255-1.746-1.707-3.041-3.42-3.051Z"/>
        <path fill="#006ADC" d="M10.878 15.14c.423 1.429-.358 2.94-1.745 3.378-1.387.437-2.855-.366-3.28-1.794-.426-1.428.352-2.941 1.737-3.381a2.55 2.55 0 0 1 2.007.194 2.7 2.7 0 0 1 1.28 1.603Z"/>
        <path fill="#CCE1F8" d="M16.49.549c-2.383-.01-4.502 1.557-5.255 3.885s.03 4.89 1.94 6.355a5.386 5.386 0 0 0 6.468.088c1.948-1.413 2.795-3.954 2.102-6.301C21.028 2.2 18.905.572 16.489.549Z"/>
        <path fill="#006ADC" d="M21.862 3.743c-1.17.015-2.14.938-2.245 2.138s.687 2.288 1.835 2.52q.206.04.415.038c1.177-.003 2.157-.93 2.262-2.136.105-1.207-.7-2.298-1.858-2.516a2 2 0 0 0-.41-.044M18.399 23.72a2.73 2.73 0 0 1-.833 2.857c-.813.692-1.95.81-2.882.3-.93-.508-1.472-1.545-1.372-2.626s.824-1.994 1.832-2.312c.66-.21 1.375-.14 1.986.194a2.67 2.67 0 0 1 1.269 1.587M2.314 19.753c-.774 0-1.461.512-1.703 1.269a1.88 1.88 0 0 0 .637 2.063 1.75 1.75 0 0 0 2.101.022 1.88 1.88 0 0 0 .678-2.05 1.82 1.82 0 0 0-1.713-1.304"/>
        <path fill="#CCE1F8" d="M18.894 16.444a1.4 1.4 0 0 0-.389.06c-.635.191-1.036.837-.938 1.512.098.674.664 1.17 1.327 1.162.131.002.263-.019.388-.06.636-.191 1.037-.837.939-1.512a1.34 1.34 0 0 0-1.327-1.162M4.628 5.853c-1.637 0-2.963 1.366-2.963 3.051s1.326 3.052 2.963 3.052c.293 0 .585-.045.867-.131 1.406-.44 2.287-1.875 2.07-3.372s-1.468-2.604-2.937-2.6"/>
    </g>
    <defs>
        <clipPath id="a">
            <path fill="#fff" d="M0 .193h100v27.944H0z"/>
        </clipPath>
    </defs>
</svg>
