<svg xmlns="http://www.w3.org/2000/svg" width="24" height="24" fill="none">
    <g clip-path="url(#a)">
        <path fill="#5B12EB" fill-rule="evenodd" d="M19.378 10.473v-.233a6.27 6.27 0 0 0-1.812-4.413A6.16 6.16 0 0 0 13.192 4H6.536a.4.4 0 0 0-.292.121.42.42 0 0 0-.12.295V6.08a.41.41 0 0 0 .412.416H13.2a3.68 3.68 0 0 1 2.624 1.096 3.75 3.75 0 0 1 1.088 2.648v.233H14.23a.41.41 0 0 0-.371.236.42.42 0 0 0 .05.44l3.678 4.534a.41.41 0 0 0 .5.115.4.4 0 0 0 .143-.115l3.678-4.534a.418.418 0 0 0-.321-.676h-2.21ZM4.622 13.526v.233c0 1.655.652 3.242 1.812 4.413A6.16 6.16 0 0 0 10.808 20h6.656a.41.41 0 0 0 .412-.416v-1.665a.41.41 0 0 0-.412-.416H10.8a3.68 3.68 0 0 1-2.624-1.096 3.75 3.75 0 0 1-1.087-2.648v-.233h2.68a.41.41 0 0 0 .371-.236.42.42 0 0 0-.05-.44L6.413 8.316a.41.41 0 0 0-.5-.115.4.4 0 0 0-.143.115L2.09 12.85a.418.418 0 0 0 .322.676z" clip-rule="evenodd"/>
    </g>
    <defs>
        <clipPath id="a">
            <path fill="#fff" d="M0 0h24v24H0z"/>
        </clipPath>
    </defs>
</svg>
