<svg xmlns="http://www.w3.org/2000/svg" width="48" height="48" fill="none">
    <path fill="#fff" d="M22.357 5H6.087a1.5 1.5 0 0 0-1.504 1.497v35.006A1.5 1.5 0 0 0 6.086 43h16.272c9.421 0 17.059-7.607 17.059-16.991v-4.016C39.417 12.608 31.779 5 22.357 5Z"/>
    <path fill="#5B12EB" fill-rule="evenodd" d="M1.899 0H22.45C34.352 0 44 9.61 44 21.465v5.073C44 38.39 34.353 48 22.453 48H1.899A1.895 1.895 0 0 1 0 46.109V1.89C0 .847.85 0 1.899 0Zm6.35 23.419c.795 9.365 12.049 14.409 12.316 14.527a.013.013 0 0 0 .01 0c.27-.12 12.363-5.536 12.363-15.573 0-6.767-5.442-12.238-12.215-12.32-7.266-.086-13.086 6.154-12.474 13.366Zm15.355 1.974c1.635-1.704 1.635-4.339 0-5.965-1.631-1.628-4.355-1.628-5.987 0-1.635 1.626-1.635 4.339 0 5.965 1.631 1.628 4.355 1.628 5.987 0Z" clip-rule="evenodd"/>
</svg>
