<svg xmlns="http://www.w3.org/2000/svg" width="486" height="300" fill="none">
    <path fill="#fff" d="M0 0h486v300H0z"/>
    <path fill="#CCC" d="M108.218 139.871c-1.041-1.626-2.576-2.828-3.81-4.278-.706-.83-1.888.372-1.2 1.203 1.147 1.343 2.593 2.439 3.546 3.924.6.902 2.046.071 1.464-.849"/>
    <path fill="#2E2E2E" d="m317.388 253.329 25.405-.389-.53-23.141c-10.603 4.685-18.542 13.436-24.875 23.53"/>
    <path fill="#CCC" d="M309.448 16.373a21.4 21.4 0 0 1-2.328 2.705c-.777.76.423 1.962 1.199 1.202.953-.937 1.8-1.962 2.594-3.04.635-.902-.829-1.75-1.465-.867"/>
    <path fill="#2E2E2E" d="m303.856 120.32 9.35-4.261-1.623 8.91z"/>
    <path fill="#E0E0E0" d="M314.741 234.519H110.953l-3.37-175.524 203.788-5.056 2.347 119.556.759 38.998.088 4.56z"/>
    <path fill="#2E2E2E" d="M118.786 257.165a.856.856 0 0 1-.847-.831l-5.045-221.08a.84.84 0 0 1 .846-.85h224.007c.459 0 .847.372.847.831l.247 30.76c0 .46-.371.849-.829.849a.844.844 0 0 1-.847-.831l-.23-29.93H114.587l5.011 219.385 222.33-3.341-1.094-46.936a.85.85 0 0 1 .83-.866c.441-.017.847.354.864.831l1.112 47.784c0 .23-.089.442-.23.601a.94.94 0 0 1-.6.265z"/>
    <path fill="#fff" d="M191.279 96.931h-50.563a3 3 0 0 1-2.999-3.005V86.66a3 3 0 0 1 2.999-3.005l50.563 1.079a3 3 0 0 1 2.999 3.005v6.187c.018 1.644-1.34 3.005-2.999 3.005"/>
    <path fill="#2E2E2E" d="M144.35 62.937c0 1.662-.653 3.058-2.999 3.058-1.658 0-2.999-1.396-2.999-3.058a3 3 0 0 1 2.999-3.005 3.01 3.01 0 0 1 2.999 3.005"/>
    <path fill="#2E2E2E" d="M141.369 66.844c-2.118 0-3.829-1.75-3.829-3.907a3.84 3.84 0 0 1 3.829-3.836c2.117 0 3.828 1.732 3.828 3.836 0 2.528-1.359 3.907-3.828 3.907m0-6.064a2.163 2.163 0 0 0-2.153 2.157c0 1.202.988 2.21 2.153 2.21 1.534 0 2.152-.637 2.152-2.21 0-1.185-.97-2.157-2.152-2.157m11.802 6.064c-2.117 0-3.828-1.75-3.828-3.907a3.84 3.84 0 0 1 3.828-3.836A3.84 3.84 0 0 1 157 62.937c.017 2.528-1.341 3.907-3.829 3.907m0-6.064a2.163 2.163 0 0 0-2.152 2.157c0 1.202.988 2.21 2.152 2.21 1.535 0 2.153-.637 2.153-2.21a2.15 2.15 0 0 0-2.153-2.157m-9.121 189.508c-4.993 0-9.033-4.137-9.033-9.228 0-5.003 4.058-9.051 9.033-9.051 4.993 0 9.033 4.066 9.033 9.051 0 6.046-3.123 9.228-9.033 9.228m0-16.582c-4.058 0-7.357 3.306-7.357 7.372 0 4.083 3.37 7.531 7.357 7.531 5.011 0 7.357-2.387 7.357-7.531 0-4.066-3.299-7.372-7.357-7.372m20.201-166.862c-2.117 0-3.829-1.75-3.829-3.907a3.84 3.84 0 0 1 3.829-3.836c2.099 0 3.828 1.732 3.828 3.836 0 2.528-1.358 3.907-3.828 3.907m0-6.064a2.164 2.164 0 0 0-2.153 2.157c0 1.202.988 2.21 2.153 2.21 1.535 0 2.152-.637 2.152-2.21 0-1.185-.97-2.157-2.152-2.157m-2.135 51.938h-20.747a.85.85 0 0 1-.847-.848c0-.478.37-.849.847-.849h20.765c.458 0 .847.371.847.849a.85.85 0 0 1-.865.848m-7.498 11.243h-13.267a.85.85 0 0 1-.847-.848c0-.478.371-.849.847-.849h13.267c.459 0 .847.371.847.849a.837.837 0 0 1-.847.848"/>
    <path fill="#2E2E2E" d="M144.05 243.729a.85.85 0 0 1-.847-.848v-12.728a.848.848 0 1 1 1.694 0v12.728a.85.85 0 0 1-.847.848m89.095 29.523h-10.939a.85.85 0 0 1-.846-.849v-17.642c0-.46.37-.849.846-.849.477 0 .847.371.847.849v16.794h9.21l-1.094-16.901a.85.85 0 0 1 .794-.901c.476-.035.864.318.899.795l1.147 17.784c.018.23-.07.46-.229.637a.88.88 0 0 1-.635.283"/>
    <path fill="#2E2E2E" d="m232.545 262.91-.529-8.291-9.81.142v17.642h.036c3.387-3.217 6.792-6.417 10.303-9.493"/>
    <path fill="#2E2E2E" d="M261.584 284h-67.235a.87.87 0 0 1-.759-.477.88.88 0 0 1 .106-.902c5.011-6.081 23.359-12.233 39.502-11.066 16.001 1.149 28.369 10.536 28.898 10.925.282.212.406.601.282.937a.816.816 0 0 1-.794.583m-65.189-1.679h62.472c-4.234-2.723-14.131-8.221-25.775-9.069-14.149-1.043-30.522 3.871-36.697 9.069m135.742-134.194a.856.856 0 0 1-.847-.831l-.812-38.75a.847.847 0 0 1 .83-.866h.017c.459 0 .829.371.847.831l.812 38.75a.85.85 0 0 1-.83.866z"/>
    <path fill="#fff" d="m281.415 226.724-151.691.901-.282-63.216s44.565-38.503 87.983-33.818c0-.937-.335-24.838-.353-27.295-.017-1.078-2.328-.866-3.14-1.078 0 0-3.564-1.715-5.081-3.448-.441-1.255-.441-3.924-.459-5.232 3.388-2.705 3.952-2.687 7.975-4.438 1.252-.547 3.299-24.696 12.473-27.03.318-.07 33.962 0 36.008 7.426-.176.3.159 30.636.494 42.851-1.905 12.746-7.657 14.797-14.837 17.749.176 1.202-.476 3.04-.3 4.242 2.999-.123 21.4 11.032 29.745 19.499 3.317 3.359 7.022 6.7 9.668 10.66 2.894 2.475 5.734 4.685 8.98 6.47 5.858 3.253 11.715 2.846 15.879 1.821v39.687c-33.115 0-52.328-22.539-52.328-22.539l-2.099 9.316c30.592 13.559 21.365 27.472 21.365 27.472"/>
    <path fill="#2E2E2E" d="M216.349 129.707c-6.104-.46-32.991-1.379-59.526 15.362-13.09 8.256-28.757 18.633-29.074 21.072a1 1 0 0 0 .229.76.83.83 0 0 0 .617.266.84.84 0 0 0 .583-.23.8.8 0 0 0 .264-.531c.371-.601 3.44-4.225 28.299-19.905 29.498-18.615 59.402-15.026 59.702-14.991a.9.9 0 0 0 .6-.159 49 49 0 0 0-1.694-1.644m43.859 69.563c-.053 0-.088 0-.141-.018a.83.83 0 0 1-.688-.972c.018-.106 1.729-10.324 6.651-21.037a.82.82 0 0 1 1.112-.407c.423.195.6.69.406 1.114-4.817 10.501-6.581 20.913-6.599 21.019-.053.424-.335.301-.741.301m52.998 42.727h-9.35a.848.848 0 0 1 0-1.697h9.35a.848.848 0 0 1 0 1.697"/>
    <path fill="#2E2E2E" d="M220.424 89.277c-5.522-.283-9.421.619-11.573 2.652-1.5 1.432-1.817 3.093-1.817 4.242 0 1.715.706 3.342 1.976 4.561 1.129 1.079 3.228 2.334 6.969 2.369l.67 26.623c-.441-.035-1.041-.07-1.764-.123.37.601.758 1.184 1.164 1.767.847.071 1.323.124 1.359.124a.84.84 0 0 0 .67-.212.9.9 0 0 0 .282-.654l-.723-28.409a.86.86 0 0 0-.265-.601c-.158-.159-.388-.23-.617-.23-2.911.124-5.187-.53-6.581-1.873a4.58 4.58 0 0 1-1.447-3.342c0-1.184.442-2.21 1.288-3.022 1.782-1.698 5.346-2.458 10.321-2.192.424.017.865-.336.882-.796a.82.82 0 0 0-.794-.884m30.01 12.216a.85.85 0 0 1-.846-.849c0-.477.37-.848.846-.848 1.571 0 2.876-.425 3.476-1.132.335-.406.459-.884.353-1.485-.23-1.326-3.176-2.068-4.587-2.227-.424-.053-.759-.407-.759-.831v-7.725a.848.848 0 1 1 1.694 0v7c1.57.283 4.904 1.15 5.31 3.518.177 1.096-.07 2.068-.723 2.846-.953 1.114-2.629 1.733-4.764 1.733m-10.603-10.289a.8.8 0 0 1-.511-.177c-1.482-1.131-5.099-2.086-6.352-2.35a.86.86 0 0 1-.652-1.009.857.857 0 0 1 1.005-.654c.194.036 4.94 1.079 7.022 2.67.37.283.441.813.159 1.184a.79.79 0 0 1-.671.336m16.196-2.934v1.679c0 2.174 3.37 2.174 3.37 0v-1.68c0-2.174-3.37-2.174-3.37 0Zm-19.636-8.15c-1.359.3-2.664.654-3.934 1.202-.988.424-.142 1.892.846 1.45 1.13-.495 2.329-.778 3.529-1.043 1.059-.212.617-1.839-.441-1.609m23.429-.3c-.864-.584-1.817-1.008-2.629-1.644-.846-.672-2.046.512-1.199 1.202.935.742 1.993 1.255 2.964 1.909.917.6 1.764-.849.864-1.468Zm-19.901 29.31c-1.252-.195-2.928-.778-3.016-2.281-.071-1.078-1.747-1.078-1.676 0 .141 2.298 2.152 3.571 4.251 3.907 1.041.159 1.5-1.467.441-1.626"/>
    <path fill="#2E2E2E" d="M237.52 153.342c-13.408 0-23.659-9.475-24.417-22.628a.835.835 0 0 1 .794-.884c.458-.017.864.336.882.796.723 12.551 10.197 21.231 23.076 21.037 6.563-.089 10.498-2.74 12.65-4.968 2.435-2.528 3.864-5.887 3.793-8.98a.847.847 0 0 1 .829-.866h.018c.459 0 .829.371.847.83.07 3.589-1.482 7.301-4.27 10.183-2.364 2.457-6.686 5.392-13.831 5.48z"/>
    <path fill="#2E2E2E" d="M266.365 82.03c-.052-2.617-.105-5.357-.141-8.186-.211-13.311-8.733-20.064-25.334-20.064-18.966 0-27.787 7.248-27.787 22.787v13.506c0 .46.37.848.847.848a.85.85 0 0 0 .811-.619c2.453-.194 3.511.39 6.246.372 1.041-.725 1.076-17.413 5.504-21.214 7.833-6.735 31.263-4.49 37.437-.742.371 1.573.565 3.288.6 5.144.053 2.828.106 5.569.141 8.185.477 24.749.777 39.705-7.374 44.407-6.987 4.048-19.619 3.27-19.742 3.27a.8.8 0 0 0-.723.336.81.81 0 0 0-.106.796c2.152 5.727 12.42 7.955 12.861 8.061a.85.85 0 0 0 .706-.177.87.87 0 0 0 .317-.654v-7.531c2.682-.53 5.346-1.361 7.551-2.634 8.98-5.197 8.68-20.506 8.186-45.892Zm-69.193 113.315c-.865-2.104-5.258-5.215-9.527-5.215-3.388 0-5.575.849-6.969 1.874v-.018c-.071-.124-1.623-2.987-7.71-4.808-1.499-.442-3.052-.584-4.622-.513l5.434-5.02c.335-.319.37-.849.053-1.185-.318-.336-.847-.371-1.182-.053l-7.163 6.629c-7.198 1.45-13.832 6.435-14.202 6.718a.846.846 0 0 0-.159 1.184.86.86 0 0 0 .67.336.82.82 0 0 0 .512-.176c.123-.089 11.714-8.822 20.218-6.311 5.328 1.573 6.687 3.959 6.704 3.959a.83.83 0 0 0 .318.336c-1.023 1.185-1.253 2.298-1.27 2.404a.827.827 0 0 0 .67.973c.459.088.9-.212.988-.654.035-.159.917-4.013 7.763-4.013 3.599 0 7.374 2.74 7.974 4.172a.84.84 0 0 0 .776.512.7.7 0 0 0 .318-.07c.37-.142.582-.637.406-1.061"/>
    <path fill="#2E2E2E" d="M190.432 227.625a.86.86 0 0 1-.794-.548c-4.816-12.887 1.129-24.749 3.07-28.09 1.076-1.839 3.493-4.985 5.787-5.039.653 0 1.5.195 2.188 1.238.652 1.008-.142 2.528-1.571 5.303-1.288 2.475-2.875 5.569-3.705 8.857-1.729 6.877-.617 14.514.936 16.971a.84.84 0 0 1-.265 1.167.837.837 0 0 1-1.165-.266c-1.94-3.076-2.893-11.331-1.146-18.279.882-3.482 2.593-6.806 3.846-9.227.741-1.432 1.676-3.236 1.605-3.695-.229-.336-.494-.389-.688-.371-1.2.035-3.193 2.209-4.358 4.207-1.852 3.164-7.515 14.461-2.946 26.641a.83.83 0 0 1-.494 1.078 1 1 0 0 1-.3.053"/>
    <path fill="#2E2E2E" d="M281.803 218.715a.85.85 0 0 1-.847-.848c0-2.228 0-6.4-15.631-15.203-8.839-4.968-26.746-4.932-44.036-4.915-7.145.018-14.537.018-21.347-.3a.834.834 0 0 1-.794-.884c.017-.46.441-.831.882-.796 6.774.319 14.149.319 21.277.301 18.33-.018 35.637-.053 44.864 5.144 15.226 8.574 16.496 13.1 16.496 16.671-.035.459-.406.83-.864.83"/>
    <path fill="#2E2E2E" d="M282.05 225.61a.87.87 0 0 1-.459-.142.833.833 0 0 1-.229-1.166c.617-.92.741-2.051.37-3.377-.617-2.192-3.617-8.061-18.366-15.008a.855.855 0 0 1-.405-1.132.85.85 0 0 1 1.129-.406c10.991 5.179 17.836 10.889 19.265 16.069.494 1.785.283 3.429-.6 4.755-.176.265-.441.407-.705.407"/>
    <path fill="#2E2E2E" d="M281.468 227.625a.838.838 0 0 1-.794-1.131c.899-2.422-1.888-7.231-20.325-16.405a.854.854 0 0 1-.388-1.132.85.85 0 0 1 1.129-.389c16.143 8.044 22.883 13.913 21.154 18.491a.794.794 0 0 1-.776.566"/>
    <path fill="#2E2E2E" d="M275.875 227.625c-.071 0-.159-.018-.247-.035a.83.83 0 0 1-.565-1.043c.918-3.147-5.963-5.41-11.503-7.248-2.046-.672-3.969-1.308-5.557-1.98a.84.84 0 0 1-.441-1.114c.176-.424.67-.619 1.111-.442 1.518.637 3.405 1.273 5.417 1.927 6.545 2.157 13.973 4.614 12.596 9.334a.86.86 0 0 1-.811.601"/>
    <path fill="#fff" d="m365.587 59.578-94.599 23.229s-2.558 5.869-1.288 8.503c1.253 2.634 1.535 4.773 1.535 4.773l100.227-5.303s10.162-4.367 9.844-16.936c-.317-12.569-5.169-15.397-6.774-16.21-1.624-.796-5.346-1.786-8.945 1.944"/>
    <path fill="#2E2E2E" d="M375.167 60.922c-1.359-.76-2.894-1.061-4.534-1.061-5.258 0-9.51 6.258-9.51 14 0 2.776.565 5.375 1.518 7.55 3.916-6.984 7.868-13.966 12.526-20.49Zm-9.986 24.413c1.535 1.59 3.423 2.528 5.434 2.528 5.257 0 9.509-6.258 9.509-14.001 0-4.579-.758-7.76-2.029-9.935-4.798 6.788-8.821 14.125-12.914 21.408"/>
    <path fill="#2E2E2E" d="M370.633 91.681c-6.828 0-12.368-7.99-12.368-17.82 0-9.828 5.558-17.819 12.368-17.819 8.203 0 12.367 5.993 12.367 17.82 0 9.829-5.557 17.82-12.367 17.82Zm0-33.941c-5.893 0-10.692 7.23-10.692 16.122s4.799 16.122 10.692 16.122 10.691-7.23 10.691-16.122c0-10.854-3.511-16.122-10.691-16.122"/>
    <path fill="#2E2E2E" d="M271.2 96.1a.84.84 0 0 1-.706-.388c-2.893-4.473-2.876-8.715.035-12.587a.73.73 0 0 1 .459-.3l94.175-24.856a.83.83 0 0 1 1.024.601.826.826 0 0 1-.6 1.026L271.711 84.38c-2.223 3.112-2.24 6.4-.053 10.024l48.341-2.14a.86.86 0 0 1 .882.814.85.85 0 0 1-.812.884l-48.834 2.121c0 .018-.018.018-.035.018Z"/>
    <path fill="#2E2E2E" d="m270.97 93.113-2.029-3.624 1.87-3.624a.8.8 0 0 0-.088-.901.82.82 0 0 0-.847-.3l-7.851 1.802a.83.83 0 0 0-.599.53c-.071.178-1.518 4.261.07 6.948a.82.82 0 0 0 .723.407h8.01c.3 0 .582-.16.724-.424.158-.23.158-.566.017-.814m67.712-.017a.849.849 0 0 1-.035-1.697l31.933-1.415c.423-.017.864.336.882.814a.85.85 0 0 1-.812.883l-31.933 1.415z"/>
    <path fill="#fff" d="M313.1 172.558c5.928-2.581 10.445-3.288 12.05-8.627 1.623-5.338 4.746-12.745 7.816-16.67 0 0-.441-5.144 2.611-5.692 0 0 3.317-7.018.723-18.65-2.575-11.633-5.681-14.726-11.097-20.419s-6.457-11.367-4.904-14.99c1.552-3.624 6.633-12.852 9.244-12.64s4.94 2.81 3.141 5.657-4.623 4.03-2.576 6.54c2.046 2.51 5.839 2.776 8.662 5.605 6.74.247 13.215-.248 13.215-.248s13.443 20.153 15.754 35.144c2.329 14.991 2.435 20.683 2.435 20.683s3.017 1.962 2.47 4.137-2.064 2.581-2.064 2.581-2.064 21.708-7.481 28.426-16.866 22.893-28.933 25.916-21.365 2.775-22.389 2.775c-1.023 0 1.323-39.528 1.323-39.528"/>
    <path fill="#2E2E2E" d="M308.055 174.308c-6.281 0-13.373-3.588-24.1-14.796-14.396-15.044-22.759-20.966-34.42-24.36a.83.83 0 0 1-.565-1.043.82.82 0 0 1 1.041-.566c11.997 3.5 20.536 9.528 35.179 24.802 15.173 15.857 22.388 15.274 28.475 13.312 9.051-2.917 11.468-7.673 11.503-7.726a.835.835 0 0 1 1.129-.389c.423.195.6.707.388 1.114-.106.212-2.681 5.427-12.491 8.592-2.029.654-4.04 1.06-6.139 1.06m62.578-24.466q-.027 0 0 0a.863.863 0 0 1-.847-.866c.388-18.986-5.24-36.523-18.278-56.87a.85.85 0 0 1 .247-1.167.85.85 0 0 1 1.165.248c13.214 20.647 18.948 38.484 18.542 57.807a.833.833 0 0 1-.829.848"/>
    <path fill="#2E2E2E" d="M313.559 213.925c-18.119 0-35.532-7.814-51.904-23.3a.838.838 0 0 1 1.147-1.22c18.736 17.714 38.813 25.192 59.667 22.204 26.922-5.056 47.281-29.558 47.317-56.994 0-.459.388-.831.847-.848.458 0 .846.371.846.848-.052 28.232-20.994 53.458-48.728 58.656a65 65 0 0 1-9.192.654"/>
    <path fill="#2E2E2E" d="M327.197 174.326a.836.836 0 0 1-.829-.725l-.194-1.184c-1.006-6.17-2.876-17.66 6.757-27.26a.82.82 0 0 1 1.182 0 .824.824 0 0 1 0 1.185c-9.016 8.98-7.234 19.923-6.281 25.792l.194 1.184a.84.84 0 0 1-.706.955c-.035.053-.07.053-.123.053m-52.098 27.083a23 23 0 0 1-.406-.354c-6.846-5.975-8.98-19.021-8.98-19.021s-.335-.248-2.241 3.889c-1.905 4.136 0 5.621 0 5.621s8.416 7.213 11.574 9.9zm61.572-59.54c-.053 0-.124 0-.177-.017-.458-.089-.741-.548-.652-1.008 1.358-6.453-.512-26.924-5.134-31.75l-.194-.194c-5.981-6.24-13.444-14.019-11.433-20.878 1.606-5.48 6.704-11.88 10.48-13.152 1.605-.548 2.682-.124 3.299.336 2.152 1.59 1.306 5.144-2.541 10.606a1.4 1.4 0 0 0-.194 1.255c.142.425.459.76.9.902 4.975 1.697 13.92 5.533 17.96 12.233a.84.84 0 0 1-.282 1.167.84.84 0 0 1-1.164-.283c-3.776-6.24-12.315-9.882-17.078-11.508a3.088 3.088 0 0 1-1.535-4.72c2.981-4.225 4.093-7.39 2.911-8.256-.441-.318-1.024-.353-1.764-.106-3.282 1.114-7.94 7.071-9.404 12.039-1.729 5.904 5.646 13.612 11.027 19.233l.194.195c5.398 5.639 6.898 26.959 5.557 33.27-.035.371-.388.636-.776.636"/>
    <path fill="#2E2E2E" d="M358.106 158.151c-4.957 0-10.32-.867-14.872-2.634-6.299-2.458-9.951-6.205-10.55-10.855-.283-2.121.811-4.225 2.417-4.702.476-.141 2.152-.407 3.316 2.068 1.659 3.518 4.676 6.011 8.963 7.407 9.121 2.97 20.465.124 22.829-1.166a.81.81 0 0 1 .865.035c.229.159 2.293 1.538 2.417 3.5.053.707-.159 1.75-1.376 2.776-2.788 2.351-8.134 3.571-14.009 3.571m-22.37-16.6c-.053 0-.106 0-.159.018-.635.176-1.411 1.396-1.217 2.864.652 5.038 5.522 7.955 9.491 9.493 9.28 3.624 22.494 3.305 27.205-.654.547-.46.794-.92.776-1.379-.053-.743-.758-1.485-1.288-1.91-3.74 1.698-15.013 3.854-23.658 1.061-4.764-1.538-8.116-4.331-9.968-8.291-.194-.389-.635-1.202-1.182-1.202"/>
    <path fill="#2E2E2E" d="M333.531 227.625H129.724a.855.855 0 0 1-.846-.831l-3.37-175.507a.847.847 0 0 1 .829-.866l203.788-5.056a1 1 0 0 1 .6.23.94.94 0 0 1 .265.6l.406 21.762a.86.86 0 0 1-.829.867c-.442.017-.847-.372-.865-.831l-.388-20.913-202.095 5.003 3.335 173.845h202.112l-.159-16.6c0-.459.371-.848.829-.848.459 0 .847.371.847.831l.159 17.448c0 .23-.088.442-.247.601-.123.177-.335.265-.564.265"/>
</svg>
