<svg xmlns="http://www.w3.org/2000/svg" width="286" height="235" fill="none" viewBox="0 0 286 235">
    <path fill="#af8ef3" d="M202.42 190.138c-1.425-1.588.858-4.006 2.283-2.4.67.758 1.408 1.371 2.198 1.877l-.206-10.143a139 139 0 0 0-5.906 1.768c-2.009.65-2.85-2.653-.858-3.284l.154-.054a16 16 0 0 1 6.541-2.04l-1.425-68.493L0 127.186l4.017 83.455 165.253-.902a39 39 0 0 1-1.768-2.96c-1.134-1.119-2.301-2.202-3.314-3.448-.549-.324-1.098-.631-1.631-.956a55 55 0 0 0-2.266-1.245c-.601-.307-1.304-.65-1.665-1.264-.584-.974.052-1.823 1.013-1.985-.103-.289-.189-.596-.292-.884-.652-.163-1.253-.434-1.562-1.065-.447-.903.069-1.823.841-2.31.12-.163.258-.325.429-.452.12-.108.241-.198.361-.288-1.065-.885-.756-3.087.944-3.051 1.013.055 1.493.055 1.906.145.995.108 1.991.307 2.952.559-.309-.992.498-2.202 1.545-2.238 1.803-.072 3.485.506 4.927 1.516a.36.36 0 0 1 .292.055 30.4 30.4 0 0 1 7.743 5.847c.017.018.034.018.051.036-.549-2.563-1.116-5.125-1.991-7.616-.653-1.841 2.111-2.978 2.953-1.318 1.424 2.798 1.63 4.133 3.485 6.642 2.523 3.393 7.347 7.256 11.33 8.14 3.725.83 7.657.361 11.433.866.052 0 .086.018.138.018l-.189-8.988a14.4 14.4 0 0 1-4.515-3.357"/>
    <path fill="#fff" d="m193.51 166.116-3.588-36.169-52.223 13.627 4.12 41.059z"/>
    <path fill="#d7c6f9" d="M184.136 46.799c-11.931 1.245-24.343-2.4-34.472-12.544-3.966-3.988-7.365-8.627-10.266-13.716h23.536c9.133 7.273 16.429 16.225 21.202 26.26"/>
    <path fill="#000091" d="M110.987 180.176c-1.511 2.743-3.022 5.468-4.515 8.212-.429.758.704 1.461 1.133.685 1.51-2.743 3.021-5.468 4.515-8.212.412-.758-.704-1.443-1.133-.685m94.025-147.545c-1.51-1.732-3.021-3.447-4.515-5.18-.566-.65-1.493.325-.927.975 1.511 1.733 3.022 3.447 4.515 5.18.567.65 1.494-.325.927-.975"/>
    <path fill="#d7c6f9" d="m32 162.452 2.918 6.461 8.103-1.967-5.51-5.739z"/>
    <path fill="#000091" d="M107.141 196.13c-1.665.722-3.313 1.462-4.978 2.184-.773.343-.43 1.66.343 1.318 1.665-.722 3.313-1.462 4.978-2.184.773-.325.43-1.661-.343-1.318"/>
    <path fill="#2e2e2e" d="M284.102 234.031a.7.7 0 0 1-.36-.108l-33.116-22.307c-11.073 6.19-24.155 10.034-38.867 11.424-.532.036-1.047.018-1.545-.018l-.258-.018c-10.403-.199-20.36-2.076-29.562-5.595-29.304-11.208-46.798-36.981-46.798-68.98 0-1.336.035-2.689.103-4.007a.666.666 0 0 1 .687-.65c.36.018.635.343.618.722a75 75 0 0 0-.103 3.935c0 31.386 17.167 56.689 45.94 67.681 9.064 3.465 18.867 5.324 29.15 5.504l.274.018c.464.018.91.054 1.374.018 14.695-1.371 27.725-5.234 38.712-11.46a.62.62 0 0 1 .755.108l.052.054 32.292 21.766c.309-8.464 1.905-59.757-2.438-89.952l-.189-1.354c-.515-3.375-1.116-6.425-1.751-9.006-.223-.902-.446-1.877-.704-2.942-2.317-9.89-5.837-24.798-16.824-36.385-.034-.018-.051-.054-.086-.072a46.5 46.5 0 0 0-8.909-7.364c-1.837-1.173-3.932-2.274-6.181-3.248-3.862-1.679-8.412-3.087-13.905-4.332l-1.099-.235h-.051c-6.249-1.317-12.859-1.985-19.64-1.985a80.8 80.8 0 0 0-20.017 2.509c-.343.09-.704-.145-.79-.505-.085-.362.138-.74.481-.83 6.592-1.697 13.442-2.546 20.326-2.546 6.867 0 13.562.686 19.897 2.022l1.167.252c5.58 1.264 10.198 2.708 14.129 4.404 2.318 1.011 4.464 2.13 6.369 3.34a48.3 48.3 0 0 1 9.082 7.507c.034.018.051.036.086.073 11.296 11.857 15.021 27.667 17.236 37.107.24 1.046.48 2.021.703 2.923.653 2.635 1.254 5.722 1.786 9.151l.189 1.372c4.721 32.956 2.42 90.836 2.403 91.414-.017.253-.137.469-.343.577-.069-.018-.172.018-.275.018"/>
    <path fill="#2e2e2e" d="M213.613 185.933a1 1 0 0 1-.12.054l-5.116 2.96a.77.77 0 0 0-.275.307c.635.126 1.288.198 1.923.325l4.103-2.383c.017 0 .017-.018.034-.018-.188-.433-.377-.83-.549-1.245m15.021-7.237a.64.64 0 0 1-.566-.361c-.172-.325-.052-.758.257-.939l5.374-3.104-28.738-6.371a.66.66 0 0 1-.515-.578l-6.387-49.723-28.841 8.032c-.343.09-.704-.127-.807-.488-.086-.36.12-.74.464-.848l29.562-8.248a.63.63 0 0 1 .532.09.75.75 0 0 1 .292.488l6.421 50.011 30.008 6.66c.275.054.464.289.515.578a.68.68 0 0 1-.326.704l-6.901 4.006c-.138.054-.241.091-.344.091"/>
    <path fill="#2e2e2e" d="M145.682 189.561a.65.65 0 0 1-.618-.47c-.12-.361.069-.758.412-.866l59.399-21.64a.634.634 0 0 1 .824.433c.12.361-.069.758-.412.867l-59.399 21.64c-.068.036-.137.036-.206.036m-.154-9.476a.6.6 0 0 1-.343-.108.67.67 0 0 1-.292-.505l-3.777-37.577c-.034-.379.224-.722.584-.758a.676.676 0 0 1 .721.614l3.691 36.71 50.438-18.066-3.451-34.851-34.833 9.096c-.343.09-.703-.127-.789-.506-.086-.36.12-.739.48-.83l35.571-9.277a.57.57 0 0 1 .532.109.67.67 0 0 1 .275.487l3.588 36.169a.69.69 0 0 1-.446.722l-51.691 18.517a1 1 0 0 1-.258.054"/>
    <path fill="#2e2e2e" d="M151.553 149.205a.665.665 0 0 1-.635-.542c-.086-.379.137-.74.498-.812l17.476-4.079a.64.64 0 0 1 .772.524c.086.379-.137.74-.497.812l-17.477 4.079c-.034.018-.086.018-.137.018m1.717 12.074a.65.65 0 0 1-.635-.523c-.086-.361.12-.74.481-.831l12.497-3.32c.344-.091.704.126.79.505.086.361-.12.74-.481.83l-12.497 3.321c-.035.018-.086.018-.155.018m51.57 30.52a.654.654 0 0 0-.893-.289l-12.789 7.219a.7.7 0 0 0-.206.181c.343.324.703.613 1.064.884l12.532-7.075a.68.68 0 0 0 .292-.92"/>
    <path fill="#2e2e2e" d="M145.528 180.085a.6.6 0 0 1-.343-.108.67.67 0 0 1-.292-.505l-3.777-37.577c-.034-.379.224-.722.584-.758a.676.676 0 0 1 .721.614l3.691 36.71 50.438-18.066-3.451-34.851-34.833 9.096c-.343.09-.703-.127-.789-.506-.086-.36.12-.739.48-.83l35.571-9.277a.57.57 0 0 1 .532.109.67.67 0 0 1 .275.487l3.588 36.169a.69.69 0 0 1-.446.722l-51.691 18.517a1 1 0 0 1-.258.054m58.866 22.795c-10.575 0-16.824-4.927-18.97-7.002-2.18-2.094-3.056-4.152-3.777-5.812-.498-1.137-.927-2.13-1.648-2.888-.79-.812-1.339-.92-1.528-.794-.275.199-.532 1.354.412 3.646 1.631 3.952 1.064 5.432.927 5.703a.67.67 0 0 1-.463.361.62.62 0 0 1-.55-.18c-2.232-2.22-8.755-7.851-12.154-7.364-.687.09-1.202.451-1.562 1.083-.189.325-.584.433-.893.234a.7.7 0 0 1-.223-.938c.566-.993 1.407-1.57 2.506-1.733 3.777-.541 9.82 4.567 12.223 6.768-.086-.722-.343-1.804-.978-3.375-1.048-2.562-1.03-4.548.051-5.324.395-.289 1.494-.776 3.176.939.91.938 1.408 2.075 1.923 3.303.704 1.624 1.493 3.447 3.468 5.36 3.038 2.942 14.609 11.785 35.742 2.545 16.687-7.31 19.142-24.005 21.322-38.75 1.614-10.937 3.004-20.376 9.734-24.455a.645.645 0 0 1 .892.252c.172.325.069.758-.24.939-6.197 3.736-7.536 12.886-9.099 23.463-2.214 15.088-4.738 32.216-22.111 39.814-7.09 3.086-13.133 4.205-18.18 4.205"/>
    <path fill="#2e2e2e" d="M176.395 197.953a.6.6 0 0 1-.344-.108c-2.043-1.354-3.553-2.581-4.875-3.646-2.884-2.328-4.618-3.736-8.773-3.971-1.442-.09-2.85.849-2.97 1.462-.068.325.601.596.807.668.343.127.515.524.412.867a.655.655 0 0 1-.824.433c-1.751-.632-1.751-1.769-1.665-2.238.257-1.426 2.352-2.69 4.326-2.581 4.566.234 6.627 1.931 9.494 4.259 1.304 1.065 2.781 2.256 4.772 3.574.309.198.395.631.206.956a.66.66 0 0 1-.566.325"/>
    <path fill="#2e2e2e" d="M174.197 199.271c-8.807-6.335-13.254-8.7-16.275-5.866-.858.794-.91 1.552-.79 2.057.258 1.173 1.683 1.986 2.799 2.455.669.072 1.321.162 1.991.271a.8.8 0 0 0 .154-.289c.086-.361-.12-.74-.463-.848-1.236-.343-3.039-1.21-3.21-1.914-.052-.198.086-.433.377-.703 2.369-2.202 6.627.162 14.678 5.974.121.072.241.126.361.126a.62.62 0 0 0 .532-.307.713.713 0 0 0-.154-.956"/>
    <path fill="#2e2e2e" d="M171.434 212.734a.63.63 0 0 1-.378-.126c-2.163-1.57-3.399-3.465-4.498-5.126-1.133-1.732-2.111-3.23-3.897-4.078-3.725-1.805-5.15-2.924-5.253-4.133-.034-.434.086-1.047.859-1.625 2.146-1.57 4.171-1.191 11.347 4.043.292.217.378.65.172.957a.656.656 0 0 1-.91.18c-7.33-5.36-8.515-5.035-9.854-4.061-.189.145-.309.289-.309.379.034.397.841 1.246 4.498 3.014 2.111 1.011 3.227 2.744 4.429 4.566 1.081 1.643 2.18 3.339 4.154 4.783.292.217.378.65.172.957a.68.68 0 0 1-.532.27m9.75-15.467a.74.74 0 0 1-.326-.09l-1.958-1.155c-.309-.181-.429-.596-.257-.939a.65.65 0 0 1 .893-.27l1.957 1.155c.309.18.429.595.257.938a.62.62 0 0 1-.566.361m87.983-24.293a.673.673 0 0 0-.687.632c-.841 10.739-9.15 28.661-16.068 38.046a.66.66 0 0 0-.121.559.72.72 0 0 0 .344.469l10.317 5.704a.65.65 0 0 0 .309.072c.224 0 .43-.108.55-.325 4.652-7.905 5.94-42.955 5.991-44.435 0-.397-.275-.704-.635-.722m-84.498 45.897a.685.685 0 0 1-.635-.487c-.876-3.087.223-9.458 3.176-13.645 2.094-2.96 4.841-4.53 7.966-4.548.36 0 .652.307.652.686s-.292.686-.652.686c-2.73.018-5.065 1.353-6.919 3.988-2.867 4.061-3.674 9.981-2.97 12.436a.693.693 0 0 1-.446.848.4.4 0 0 1-.172.036m49.648-37.739c-4.069 0-7.399-2.057-10.009-3.682-.515-.325-1.013-.613-1.476-.902-5.167-3.014-12.206-4.512-15.056-1.39-.257.271-.669.289-.927.018-.257-.271-.275-.704-.017-.974 3.33-3.664 10.884-2.202 16.618 1.137.481.288.979.595 1.511.92 3.433 2.13 7.725 4.783 13.236 2.779a.634.634 0 0 1 .824.434c.12.361-.069.758-.412.866a12.2 12.2 0 0 1-4.292.794"/>
    <path fill="#2e2e2e" d="M222.283 198.729a1 1 0 0 1-.223-.036c-2.627-1.029-5.494-1.733-8.24-2.418-5.494-1.372-10.249-2.545-11.794-5.776-.859-1.787-.876-3.032-.086-3.7 1.287-1.047 3.966.325 5.373 1.607 1.185 1.064 4.395-.199 5.94-.975-.36-1.444-1.562-5.541-3.983-7.039-.961-.595-1.974-.704-3.124-.325-4.961 1.607-6.575 1.841-7.502 1.119-.618-.469-.687-1.245-.687-1.768 0-.704.532-1.462 1.579-2.202 2.747-1.968 8.67-3.79 12.687-2.112a.68.68 0 0 1 .361.884c-.138.361-.515.524-.842.379-3.467-1.443-8.927.217-11.382 1.913-.875.614-1.081 1.029-1.081 1.119 0 .253.034.578.154.668.653.506 4.361-.686 6.352-1.317 1.494-.488 2.902-.325 4.172.469 3.433 2.13 4.652 8.194 4.704 8.465.051.306-.069.595-.326.74-.567.306-5.631 3.032-7.846 1.046-1.459-1.299-3.313-1.877-3.708-1.552-.103.09-.223.596.446 2.004 1.271 2.671 5.957 3.826 10.919 5.053 2.798.686 5.699 1.408 8.395 2.455.343.126.515.523.395.884-.138.253-.395.415-.653.415M216 175.375a.6.6 0 0 1-.412-.163c-1.133-.992-3.828-1.245-4.463-1.227a.9.9 0 0 1-.309 0 .71.71 0 0 1-.498-.596.69.69 0 0 1 .343-.685c.412-.235 4.155.054 5.751 1.443.275.235.309.668.086.975a.58.58 0 0 1-.498.253m11.776 20.124a.664.664 0 0 1-.635-.506c-1.202-4.855-.121-11.749 6.918-15.16.326-.163.721 0 .876.343a.715.715 0 0 1-.327.92c-6.317 3.068-7.296 9.223-6.214 13.572.086.361-.12.74-.464.831zm18.25-84.051c-.138 1.029-.567 2.4-1.734 2.491-.841.072-.824 1.443.017 1.371 1.785-.144 2.747-1.787 2.987-3.519.12-.866-1.15-1.227-1.27-.343m-12.345 2.039c-.841 0-1.597-.18-2.163-.559-.653-.433-1.047-1.083-1.15-1.895-.327-2.401 3.227-4.115 3.639-4.314a.63.63 0 0 1 .858.343c.138.343 0 .758-.326.903-.996.469-3.021 1.768-2.867 2.851.052.415.241.704.55.921.686.451 1.974.469 3.279.036.343-.127.703.09.824.451a.71.71 0 0 1-.43.866 6.7 6.7 0 0 1-2.214.397m2.661-14.402.395 1.299c.515 1.679-1.991 2.527-2.489.83l-.395-1.299c-.498-1.697 1.992-2.527 2.489-.83m-4.685-6.913c.806-.018 1.613.109 2.403.018.824-.09 1.116 1.246.292 1.336-.91.09-1.82-.018-2.747.018-.841.018-.79-1.354.052-1.372"/>
    <path fill="#2e2e2e" d="M256.737 129.334c-2.746.992-5.974 1.714-8.686 1.083-4.927-1.137-7.88-5.722-11.743-18.157-.12-.361-.48-.559-.824-.433a.69.69 0 0 0-.412.866c3.502 11.28 6.558 17.651 12.704 19.077 2.919.668 6.266-.018 9.116-1.01-.052-.488-.103-.957-.155-1.426m-22.489-21.279a.644.644 0 0 1-.618-.488c-.927-3.122-1.734-6.028-2.678-9.385-.55-1.967-1.133-4.06-1.803-6.425-1.82-6.407-.824-11.479 3.039-15.485a.63.63 0 0 1 .927 0 .71.71 0 0 1 0 .974c-3.485 3.628-4.361 8.248-2.695 14.114.669 2.364 1.253 4.476 1.802 6.443.927 3.357 1.734 6.245 2.661 9.349a.714.714 0 0 1-.429.867c-.069.018-.137.036-.206.036"/>
    <path fill="#2e2e2e" d="M261.973 91.902a19 19 0 0 0-2.197.956c-10.764-1.263-21.133-5.306-29.562-12.652a13.7 13.7 0 0 1 2.437-3.447c4.927 1.12 9.683 2.49 14.009 4.368 2.197.956 4.309 2.04 6.283 3.303a47 47 0 0 1 9.03 7.472m.327 31.331a.65.65 0 0 1-.618-.469l-5.493-17.633a.73.73 0 0 1 .051-.541.68.68 0 0 1 .395-.343c2.18-.632 3.708-1.697 4.429-3.087.652-1.263.464-2.4.292-2.96-.275-.92-.841-1.606-1.665-2.039-1.717-.866-4.532-.578-8.155.83a.65.65 0 0 1-.841-.397c-.12-.36.052-.758.378-.884 4.017-1.588 7.107-1.841 9.184-.794 1.442.74 2.077 1.967 2.335 2.851a5.44 5.44 0 0 1-.395 4.043c-.584 1.119-1.837 2.599-4.584 3.538l5.288 16.965a.69.69 0 0 1-.412.866c-.052.054-.12.054-.189.054"/>
    <path fill="#2e2e2e" d="M281.716 142.058c-5.974 5.017-14.077 7.454-21.528 5.27-3.708-1.083-7.33-3.465-8.961-7.238-1.94-4.457-.515-9.421 1.27-13.644 1.288-3.068 2.867-6.028 3.64-9.313.669-2.797-.704-9.692.703-12.2.756-1.318 6.576-2.419 4.67-7.112-2.163-5.342-10.163-.703-10.163-.703-9.288-3.863-13.957-10.757-21.116-16.912 4.429-.541 10.386-.018 16.446.92 2.198.957 4.309 2.04 6.284 3.304 20.085 12.796 24.068 36.06 26.815 47.178.669 2.689 1.253 5.757 1.768 9.078.035.451.103.902.172 1.372"/>
    <path fill="#2e2e2e" d="M241.563 79.232c-2.438-1.462-6.095-1.895-8.807-2.707a1 1 0 0 0-.223-.019.6.6 0 0 0-.326-.144c-2.97-.36-8.172-.108-8.069 4.35.086 3.844 5.288 4.855 8.034 5.198 3.022.379 9.391-.235 10.541-4.151.326-1.192-.172-1.932-1.15-2.527"/>
    <path fill="#fff" d="m120.446 135.723-1.803.65-2.008 1.245-2.198.956 3.073 2.581 6.335-2.581zm30.318-5.234-5.168 2.238-3.244 1.209-6.61 2.924 4.584 2.057 12.961-6.696z"/>
    <path fill="#2e2e2e" d="M103.88 149.205c-18.643 0-36.429-4.964-51.433-14.331l-24.36 14.259a.63.63 0 0 1-.687-.037.68.68 0 0 1-.275-.649l4.069-32.577c-9.528-12.237-14.558-26.513-14.558-41.259 0-14.438 4.103-28.137 11.845-39.634a63 63 0 0 1 6.782-8.536l3.124-3.195C54.387 8.031 77.031 0 103.88 0c7.88 0 15.708.902 23.262 2.69 6.455 1.533 12.652 3.681 18.421 6.388 17.682 8.23 31.587 21.514 39.141 37.432 2.592 5.45 4.429 11.172 5.442 16.984.635 3.663.961 7.4.961 11.135 0 32-19.553 57.791-52.291 68.999-10.283 3.519-21.391 5.396-33.03 5.595-.618-.018-1.271-.018-1.906-.018m-51.416-15.81c.12 0 .24.036.343.09 14.885 9.385 32.55 14.348 51.09 14.348.636-.054 1.254 0 1.889-.018 11.502-.198 22.489-2.039 32.652-5.523 32.189-11.009 51.399-36.313 51.399-67.699 0-3.645-.309-7.31-.944-10.883a64.4 64.4 0 0 0-5.322-16.604c-7.434-15.63-21.099-28.697-38.506-36.782-5.683-2.672-11.794-4.801-18.163-6.3a101 101 0 0 0-22.987-2.652c-26.524 0-48.876 7.923-64.618 22.903l-.137.126-2.988 3.014a61.6 61.6 0 0 0-6.626 8.357c-7.588 11.262-11.605 24.69-11.605 38.84 0 14.528 4.995 28.57 14.437 40.608.12.144.172.343.138.523l-3.932 31.513 23.554-13.789a.7.7 0 0 1 .326-.072"/>
    <path fill="#2e2e2e" d="M120.515 122.566c-.343 0-.618-.271-.652-.632L112 20.593a.72.72 0 0 1 .172-.523.61.61 0 0 1 .48-.217h50.283c.361 0 .653.307.653.686s-.292.686-.653.686h-49.579l7.76 99.915 54.214-3.682c.344-.018.67.271.687.65s-.258.704-.618.722l-54.85 3.718c0 .018-.017.018-.034.018"/>
    <path fill="#2e2e2e" d="M175.965 117.873a.65.65 0 0 0-.635-.415l-13.785.938a.66.66 0 0 0-.498.307.73.73 0 0 0-.086.596l2.901 9.511a.68.68 0 0 0 .447.452c.051.018.12.018.171.018a.62.62 0 0 0 .447-.181l10.867-10.45a.67.67 0 0 0 .171-.776m-50.283 4.332c-.326 0-.618-.271-.652-.614l-9.803-100.98c-.034-.379.224-.722.584-.758.378-.018.687.235.721.614l9.803 100.98c.034.379-.224.721-.584.758zM60.72 37.72c.739-7.29.876-12.994 4.172-15.773 6.25-5.27 25.185-2.256 27.897 1.028-.84-5.992-4.703-11.514-17.098-11.948-14.661-.523-19.76 5.74-20.086 16.01l-.326 10.269.12.216c2.146-.18 3.159.127 5.322.199"/>
    <path fill="#2e2e2e" d="M79.536 93.02a.65.65 0 0 1-.446-.18L59.656 74.36c-1.974-1.877-3.107-4.548-3.124-7.328l-.137-19.709c-2.696-.126-4.206-1.137-4.996-1.985a4.96 4.96 0 0 1-1.322-3.555c.035-.885.292-2.166 1.442-3.213 1.614-1.516 4.48-2.094 8.48-1.733.361.037.619.361.602.74a.677.677 0 0 1-.704.632c-3.588-.325-6.18.163-7.502 1.39-.636.595-.962 1.335-.996 2.238a3.56 3.56 0 0 0 .961 2.545c.979 1.046 2.593 1.588 4.704 1.588.36 0 .653.307.653.686l.137 20.376c.017 2.4.996 4.71 2.695 6.317l18.404 17.489.515-16.081c.017-.38.36-.704.67-.668.36.018.634.325.634.704l-.566 17.56a.7.7 0 0 1-.395.614.8.8 0 0 1-.275.055m6.317-56.023-.034 1.281c-.052 1.66 2.386 1.751 2.438.09l.034-1.28c.069-1.643-2.386-1.734-2.438-.091m-14.712-.505-.034 1.281c-.052 1.66 2.386 1.75 2.438.09l.034-1.281c.069-1.66-2.386-1.75-2.438-.09m.67-6.191c-.995.18-1.957.433-2.884.812-.738.307-.137 1.426.584 1.137.824-.343 1.717-.523 2.592-.704.756-.144.48-1.407-.292-1.245m16.995.379c-.6-.47-1.287-.812-1.871-1.317-.6-.524-1.493.343-.893.884.653.578 1.408.993 2.112 1.534.635.47 1.288-.632.652-1.1m-15.14 21.783c-.91-.18-2.112-.668-2.146-1.805-.017-.83-1.236-.866-1.219-.036.052 1.75 1.476 2.78 3.004 3.087.756.126 1.133-1.083.36-1.246"/>
    <path fill="#2e2e2e" d="M80.103 75.478c-.051 0-.103 0-.154-.018-.31-.09-7.743-2.058-9.168-6.48a.73.73 0 0 1 .103-.65c.138-.18.36-.27.584-.252.086 0 9.219.92 14.369-1.967C91.845 62.736 92 51.365 92.24 32.54c.035-2.003.052-4.079.086-6.227.155-9.403-5.287-14.167-16.67-14.565-13.08-.45-19.055 4.278-19.416 15.341l-.326 10.27c-.017.379-.326.722-.67.668-.36-.018-.635-.325-.635-.704l.327-10.27c.377-11.857 6.97-17.182 20.755-16.676 12.069.433 18.094 5.793 17.923 15.954-.035 2.166-.069 4.242-.086 6.227-.258 19.348-.412 31.025-7.107 34.779-1.631.902-3.571 1.48-5.511 1.805v.018l-.189 5.667a.7.7 0 0 1-.258.523.6.6 0 0 1-.36.127m-7.605-5.956c1.528 2.382 5.339 3.826 6.987 4.367l.154-4.584c-2.918.361-5.648.289-7.141.217"/>
    <path fill="#2e2e2e" d="M71.399 68.746c1.322 4.133 8.704 6.046 8.704 6.046l.189-5.685zm46.488 69.684c-.978 0-1.802-.975-2.832-2.184-1.906-2.256-4.532-5.342-9.459-3.7-.344.127-.704-.09-.824-.451a.71.71 0 0 1 .429-.866c5.734-1.913 8.807 1.696 10.832 4.097.721.848 1.563 1.823 1.94 1.714.532-.162.601-.469.601-.758.034-2.021-4.378-7.309-12.91-10.215-.48-.163-.961-.343-1.476-.505-8.378-2.942-19.863-6.985-45.923 11.189-.309.217-.703.127-.91-.198a.7.7 0 0 1 .19-.957c26.609-18.535 38.42-14.384 47.055-11.352.498.181.978.343 1.459.505 8.326 2.834 13.854 8.248 13.803 11.533-.017 1.011-.584 1.751-1.545 2.058a.9.9 0 0 1-.43.09"/>
    <path fill="#2e2e2e" d="M111.519 146.624a.68.68 0 0 1-.515-.253.716.716 0 0 1 .103-.974c1.03-.867 1.493-2.04 1.39-3.484-.24-3.14-3.227-6.93-7.416-9.421a.7.7 0 0 1-.24-.938c.171-.325.583-.452.892-.253 4.618 2.761 7.794 6.876 8.069 10.522.137 1.895-.498 3.501-1.871 4.656a.58.58 0 0 1-.412.145"/>
    <path fill="#2e2e2e" d="M107.846 148.014c-.344 0-.636-.289-.653-.65-.017-.379.258-.704.618-.722 1.013-.072 2.284-.325 2.558-1.137.841-2.473-5.648-8.916-8.429-11.659a.73.73 0 0 1-.034-.975.645.645 0 0 1 .927-.036c5.013 4.963 9.802 10.071 8.755 13.121-.412 1.209-1.665 1.895-3.708 2.04-.017.018-.017.018-.034.018"/>
    <path fill="#2e2e2e" d="M106.713 148.754c-1.391 0-3.382-1.444-5.889-4.242-5.51-6.208-17.27 1.931-17.39 2.022-.31.216-.704.126-.91-.199a.703.703 0 0 1 .189-.956c.515-.361 12.807-8.862 19.073-1.805 3.296 3.7 4.858 3.952 5.15 3.754.154-.108.24-.776-.241-1.877-1.356-3.05-5.785-6.877-7.914-8.718a.71.71 0 0 1-.086-.974.63.63 0 0 1 .928-.09c2.214 1.913 6.798 5.883 8.274 9.204.721 1.625.635 2.996-.206 3.592-.309.18-.618.289-.978.289m-54.249-13.988a.67.67 0 0 1-.6-.397c-4.396-9.872-1.872-20.936-1.77-21.405.087-.361.447-.596.79-.505s.567.469.481.83c-.017.108-2.506 11.081 1.683 20.503.154.343.017.758-.31.92a.8.8 0 0 1-.274.054m14.111-39.562h-.051a.66.66 0 0 1-.481-.288L50.129 71.435a.71.71 0 0 1 .051-.866l6.524-7.22c.258-.27.67-.288.927-.018.258.271.275.704.017.975l-6.146 6.786 15.159 22.344 5.871-6.426c.258-.27.67-.288.927-.017.258.27.275.703.017.974l-6.403 7.02a.73.73 0 0 1-.498.217m46.077 27.362c-.292 0-.549-.199-.635-.524-9.871-40.5-19.914-47.575-28.876-52.646l2.97 18.427a.76.76 0 0 1-.223.65.64.64 0 0 1-.635.126l-5.717-2.166c-.343-.126-.515-.523-.395-.884a.65.65 0 0 1 .842-.415l4.652 1.75L81.63 68.24a.74.74 0 0 1 .257-.667.6.6 0 0 1 .687-.054c9.03 5.053 20.257 11.334 30.712 54.18.086.361-.12.74-.463.831-.069.018-.121.036-.172.036"/>
    <path fill="#2e2e2e" d="M24.36 104.572a.7.7 0 0 1-.257-.055.71.71 0 0 1-.36-.902C31.244 84.575 45.956 73.42 50.3 70.46a.657.657 0 0 1 .91.199c.189.325.12.74-.189.956-4.257 2.906-18.712 13.862-26.043 32.541a.7.7 0 0 1-.618.416m59.158 19.492c-.326 0-.6-.253-.652-.596l-3.983-31.025a.685.685 0 0 1 .567-.776c.36-.054.686.217.738.596l3.983 31.025a.686.686 0 0 1-.567.776c-.017-.018-.051 0-.086 0m22.37 2.057a.64.64 0 0 1-.583-.379c-.155-.343-.035-.758.292-.92 9.922-5.162 14.557-5.487 14.746-5.487a.666.666 0 0 1 .687.65c.017.379-.258.703-.618.722-.052 0-4.618.324-14.232 5.342-.103.036-.206.072-.292.072m38.129 10.522c-.858 0-1.802-.722-2.781-2.148-4.051-5.865-9.459-9.006-12.309-7.165-.463.289-.48.542-.498.632-.085.794 1.219 2.166 2.249 3.249 1.339 1.389 2.49 2.599 2.215 3.772-.086.397-.395 1.119-1.459 1.335-2.387.506-7.966-2.039-11.605-7.309-.206-.307-.155-.74.137-.957a.633.633 0 0 1 .91.145c3.244 4.692 8.326 7.183 10.283 6.768.395-.091.429-.253.446-.307.103-.433-1.133-1.715-1.871-2.491-1.373-1.444-2.798-2.924-2.627-4.386.069-.649.447-1.209 1.116-1.642 3.485-2.256 9.528.975 14.043 7.526.91 1.318 1.528 1.625 1.768 1.588.121-.018.206-.198.241-.306.343-.939.017-3.393-1.82-5.686-2.077-2.581-5.047-5.107-5.064-5.125a.73.73 0 0 1-.103-.975.65.65 0 0 1 .927-.108c.12.108 3.09 2.635 5.253 5.324 2.094 2.599 2.609 5.523 2.043 7.057-.258.686-.704 1.101-1.305 1.173a.6.6 0 0 1-.189.036"/>
    <path fill="#2e2e2e" d="M145.099 132.582a.65.65 0 0 1-.447-.18.696.696 0 0 1-.034-.975c.052-.054 1.133-1.353.893-3.248-.241-1.841-1.614-3.61-4.103-5.289-.309-.198-.395-.631-.206-.956a.644.644 0 0 1 .91-.217c2.832 1.913 4.412 4.025 4.704 6.281.309 2.545-1.168 4.259-1.219 4.332a.6.6 0 0 1-.498.252"/>
    <path fill="#2e2e2e" d="M146.197 128.522a.67.67 0 0 1-.394-.145.695.695 0 0 1-.121-.956c.121-.163 2.885-4.007-.412-6.714a.694.694 0 0 1-.103-.957.616.616 0 0 1 .91-.108c3.451 2.851 1.923 6.894.635 8.645a.67.67 0 0 1-.515.235m-29.459 4.096a.66.66 0 0 1-.618-.451c-.12-.361.034-.758.378-.884l4.738-1.895a.625.625 0 0 1 .841.397c.12.361-.034.758-.378.884l-4.738 1.895a.45.45 0 0 1-.223.054m-7.45 2.87a.67.67 0 0 1-.618-.451c-.121-.361.051-.758.394-.884l3.915-1.462a.647.647 0 0 1 .841.415c.12.361-.052.758-.395.884l-3.914 1.462c-.069.036-.138.036-.223.036"/>
</svg>
