<svg xmlns="http://www.w3.org/2000/svg" width="384" height="242" fill="none">
    <rect width="384" height="242" fill="#F0F8FF" rx="12"/>
    <path fill="#DBF0FF" d="M320.261 222.033s-90.261 1.7-90.083 0a3 3 0 0 0 .032-.357l66.98-.255-1.067-21.734-62.113 1.99c17.961-63.805 82.096-66.849 82.096-66.849zm-110.986-81.797c2.683-6.292 4.785-13.095 5.771-19.88 1.569-10.713-1.713-14.829-2.603-16.172-1.39-2.092-2.15-3.775-2.134-6.292-.711-2.619-.388-5.068 2.167-6.785.97-.647 2.877.238 2.473 1.496-1.196 3.826 1.73 7.551 4.155 5.425 1.423-1.242 1.795-5.697 1.795-7.619-2.118-4.166-4.624-.782-6.386-.238-1.294.408-2.425-2.347-1.552-3.588 4.025-5.748 7.016-4.353 9.829-.833.388-1.395.146 1.343.34 1.632.032-4.064-.065-8.128-.097-12.193-.016-1.65 2.279-2.567 3.346-1.7 1.876 1.53 1.197 3.996 1.649 6.037.065-2.16.178-3.384.162-5.578-.016-2.228 3.525-1.411 3.541.816 0 .936.566.017.566.953q.096-.052.194-.102l-.518-10.833c-.258-5.527-4.559-9.897-9.829-9.965l-95.968-1.378c-5.658-.068-10.25 4.796-10.104 10.748l.194 8.775 1.002 44.248.404 18.57c.13 5.68 4.527 10.221 9.927 10.255l97.762.578c4.155.034 7.695-2.619 9.215-6.377zm-35.956-33.756c-1.552 1.377-2.958 2.925-3.605 4.965-.517 1.616-.21 3.367-1.132 4.881-1.73 2.857-4.785 3.384-7.744 2.959-7.34-1.054-14.178-5.357-14.097-13.775.016-2.363 1.115-6.003.404-8.332-.776-2.534-3.201-3.401-5.206-4.881-2.506-1.87-4.899-4.047-5.109-7.483-.242-3.894 2.07-5.135 4.656-7.125 6.241-4.778 6.386-11.802 8.148-19.097 0-.578.243-1.157.777-1.429 6.984-3.503 17.379-4.217 24.299-.425 5.723 3.146 5.108 11.02 5.545 17.21.598 8.656 4.252 29.896-6.936 32.532"/>
    <path fill="#2E2E2E" d="M278.355 67.503a.68.68 0 0 1-.646-.51c-.033-.102-2.733-10-7.405-11.105a.69.69 0 0 1-.517-.578.73.73 0 0 1 .323-.715c4.996-2.992 7.873-11.886 7.906-11.988.097-.29.339-.477.63-.477s.55.204.631.494c.032.102 2.991 9.93 7.21 11.938.227.102.372.34.388.612a.71.71 0 0 1-.339.646c-.065.034-5.756 3.503-7.583 11.156-.016.306-.291.527-.598.527m-6.434-12.465c3.249 1.751 5.4 6.649 6.418 9.489 1.778-5.085 5.044-8.06 6.645-9.268-3.088-2.245-5.319-7.568-6.338-10.39-1.051 2.618-3.33 7.465-6.725 10.169M88.603 149.793a.69.69 0 0 1-.614-.425c-1.795-4.473-7.324-16.139-11.43-16.394-.323-.017-.582-.272-.63-.612a.705.705 0 0 1 .468-.748c6.887-2.211 10.363-7.312 10.654-11.088a.69.69 0 0 1 .566-.629.64.64 0 0 1 .711.425c.033.085 3.395 8.367 9.102 11.343a.67.67 0 0 1 .356.527.72.72 0 0 1-.21.612c-.291.272-.63.579-1.002.885-2.296 1.972-6.144 5.254-7.34 15.492a.71.71 0 0 1-.566.612zm-9.959-17.533c3.977 2.381 7.874 10.34 9.652 14.37 1.552-8.945 5.222-12.091 7.47-14.03.08-.068.145-.136.226-.187-3.994-2.483-6.71-7.091-8.003-9.693-1.083 3.469-4.155 7.329-9.345 9.54"/>
    <path fill="#fff" d="M214.366 66.602c-.501-1.174-1.083-2.313-1.568-3.504-.34-.833-1.488-.119-1.148.715.485 1.19 1.067 2.33 1.568 3.503.356.816 1.504.102 1.148-.715m-3.185 8.027c-1.552-1.173-3.104-2.33-4.575-3.605-.663-.561-1.601.425-.938.986 1.568 1.344 3.217 2.585 4.85 3.826.679.528 1.358-.697.663-1.207"/>
    <path fill="#000091" d="M75.88 146.732c-2.522 2.636-5.141 5.17-7.68 7.789-.614.629.324 1.615.938.986 2.522-2.636 5.157-5.153 7.68-7.789.614-.629-.324-1.615-.938-.986m3.831-29.012c-.711-.782-1.277-1.666-1.746-2.635-.388-.8-1.536-.086-1.148.714.534 1.071 1.164 2.057 1.957 2.925.582.629 1.52-.357.937-1.004m224.124-16.835a118 118 0 0 0-8.18-7.619c-.663-.56-1.601.425-.938.987a118 118 0 0 1 8.18 7.618c.615.629 1.552-.357.938-.986"/>
    <path fill="#2E2E2E" d="M244.89 58.983c-2.053-2.126-4.349-3.945-6.645-5.748-.679-.544-1.358.68-.679 1.208 2.215 1.734 4.414 3.486 6.386 5.543.615.613 1.552-.374.938-1.003"/>
    <path fill="#2E2E2E" d="m244.534 52.725-6.709 7.057c-.598.63.339 1.633.937.987l6.71-7.058c.598-.629-.34-1.615-.938-.986"/>
    <path fill="#2E2E2E" d="M242.756 140.321h-.081l-97.762-.578c-5.788-.051-10.444-4.847-10.589-10.935l-1.617-71.577c-.065-3.06 1.018-5.952 3.072-8.128 2.02-2.143 4.704-3.333 7.582-3.333h.129l95.968 1.377c5.594.068 10.201 4.745 10.476 10.629l3.411 70.794c.146 3.095-.889 6.054-2.942 8.299-1.989 2.227-4.721 3.452-7.647 3.452m-99.379-93.157c-2.522 0-4.866 1.038-6.628 2.908-1.795 1.905-2.749 4.438-2.684 7.125l1.617 71.577c.129 5.323 4.187 9.54 9.263 9.574l97.762.578h.065c2.554 0 4.947-1.071 6.709-3.027 1.795-1.972 2.7-4.54 2.571-7.261l-3.411-70.794c-.243-5.153-4.285-9.234-9.183-9.302l-95.968-1.378z"/>
    <path fill="#2E2E2E" d="M111.561 161.527c-.356 0-.663-.306-.663-.697l-1.73-140.127c0-.187.065-.374.194-.493.129-.136.275-.238.469-.204l131.81.442c.371 0 .662.306.662.697V48.15c0 .392-.291.698-.662.698s-.663-.306-.663-.698V21.826l-130.468-.442 1.714 139.429c0 .391-.291.714-.663.714m129.417-21.852v19.046c0 .391.291.697.662.697s.663-.306.663-.697v-19.114c-.436.017-.889.017-1.325.068"/>
    <path fill="#2E2E2E" d="M146.982 208.888h-41.791l-1.827-47.225 170.255-2.772v41.715a9 9 0 0 1 1.326-.323v-42.106a.67.67 0 0 0-.194-.493.74.74 0 0 0-.469-.204l-171.613 2.788a.62.62 0 0 0-.469.222.66.66 0 0 0-.178.51l1.875 48.602c.017.374.308.663.663.663h42.503c-.016-.119-.048-.238-.064-.34a2.5 2.5 0 0 1-.017-1.037"/>
    <path fill="#000091" d="m119.499 183.855 50.182-1.36c.243 0 .469.119.598.323a.8.8 0 0 1 .114.323l.679 5.833a.8.8 0 0 1-.13.527.72.72 0 0 1-.566.289l-50.845-.544a.5.5 0 0 1-.275-.068.76.76 0 0 1-.42-.68v-3.929c0-.153.048-.289.113-.408.097-.17.307-.289.55-.306m59.413-.544.728 5.867a.77.77 0 0 0 .162.374.67.67 0 0 0 .533.272h11.851c.226 0 .42-.102.549-.272s.178-.391.13-.612l-1.229-5.867a.73.73 0 0 0-.243-.408.67.67 0 0 0-.436-.17h-11.349a.65.65 0 0 0-.518.255.63.63 0 0 0-.178.561"/>
    <path fill="#2E2E2E" d="M254.946 189.314c-4.575 0-8.294-3.979-8.294-8.877 0-4.813 3.719-8.724 8.294-8.724s8.294 3.911 8.294 8.724c0 5.901-2.797 8.877-8.294 8.877m0-16.206c-3.848 0-6.968 3.282-6.968 7.329s3.185 7.483 6.968 7.483c4.753 0 6.968-2.381 6.968-7.483-.016-4.047-3.136-7.329-6.968-7.329"/>
    <path fill="#2E2E2E" d="M254.946 182.903c-.372 0-.663-.306-.663-.697v-12.431c0-.392.291-.698.663-.698s.663.306.663.698v12.431c0 .391-.307.697-.663.697m-127.833-29.454h-12.61c-.372 0-.663-.306-.663-.697s.291-.697.663-.697h12.61c.372 0 .663.306.663.697 0 .374-.291.697-.663.697m0 2.721h-12.61c-.372 0-.663-.306-.663-.697s.291-.697.663-.697h12.61c.372 0 .663.306.663.697s-.291.697-.663.697m41.258-69.706a.683.683 0 0 1-.662-.646c-.017-.391.258-.714.614-.748 1.148-.085 2.069-.46 2.474-1.02.226-.307.274-.681.177-1.123-.21-.986-2.457-1.412-3.427-1.463a.68.68 0 0 1-.631-.646l-.371-5.969c-.017-.39.258-.714.614-.748s.679.272.711.646l.324 5.374c1.196.136 3.67.663 4.074 2.483.194.85.048 1.632-.404 2.278-.647.919-1.876 1.48-3.444 1.6-.016-.018-.032-.018-.049-.018m2.781-13.06.081 1.31c.097 1.683 2.587 1.513 2.474-.17l-.081-1.31c-.097-1.684-2.571-1.514-2.474.17m-14.923 1.02.081 1.31c.097 1.683 2.587 1.513 2.474-.17l-.081-1.31c-.097-1.684-2.571-1.514-2.474.17m.082-6.343c-.986.29-1.923.646-2.845 1.122-.711.374-.016 1.463.695 1.089.809-.425 1.682-.715 2.555-.987.759-.22.355-1.445-.405-1.224m17.234-1.394c-.663-.409-1.39-.68-2.021-1.14-.646-.476-1.471.51-.824.987.727.527 1.52.867 2.279 1.326.696.425 1.245-.748.566-1.174m-12.514 26.155c-.937-.085-2.198-.459-2.328-1.598-.097-.834-1.341-.749-1.244.085.21 1.768 1.762 2.653 3.314 2.806.792.05 1.051-1.225.258-1.293m36.441 46.851a.664.664 0 0 1-.646-.562c-3.024-15.049-19.433-25.27-27.533-27.396-.355-.102-.566-.476-.485-.85a.67.67 0 0 1 .809-.51c9.7 2.534 25.479 13.349 28.518 28.45a.7.7 0 0 1-.517.834c-.049.034-.097.034-.146.034"/>
    <path fill="#2E2E2E" d="M162.698 120.441c-4.931 0-11.075-3.503-15.957-9.319-5.95 1.429-11.139 4.133-11.204 4.167a.65.65 0 0 1-.889-.306c-.162-.341-.033-.766.291-.936.226-.119 5.61-2.942 11.899-4.37a.67.67 0 0 1 .646.221c5.465 6.649 12.853 10.356 17.59 8.792 2.619-.868 4.204-3.282 4.575-6.973a.68.68 0 0 1 .728-.629c.372.034.63.391.598.765-.55 5.425-3.298 7.432-5.497 8.163a8.8 8.8 0 0 1-2.78.425"/>
    <path fill="#2E2E2E" d="M180.481 70.496c-.162-2.024-.324-4.133-.502-6.326-.792-10.306-7.42-15.101-19.642-14.268-6.807.46-11.77 2.143-14.987 5.119a.6.6 0 0 0-.307.153c-4.107 1.156-7.421 5.016-9.895 8.486a39 39 0 0 0-1.568 2.33l1.002 44.248c1.957.204 3.961.102 5.788-.136 2.102-.272 4.042-.986 5.707-2.109l.227 2.432a.68.68 0 0 0 .662.629h.065c.372-.034.631-.374.598-.765l-.307-3.248c1.584-1.412 2.829-3.282 3.557-5.578 1.245-3.928 1.148-10.952-3.169-12.924-.776-.357-1.6-.476-2.441-.51-.76-.085-4.236-.255-5.319-1.225a3.6 3.6 0 0 1-1.213-2.483c-.048-.901.211-1.7.793-2.364 1.212-1.377 3.799-2.142 7.469-2.193.323 0 .598-.272.792-.561 3.799-6.122 3.799-20.764 3.799-20.764 3.153 2.687 22.294 3.911 26.611 2.738.226.969.388 2.023.485 3.146.162 2.193.34 4.302.501 6.326 1.52 19.08 2.458 30.61-3.298 34.64-4.931 3.469-14.259 3.503-14.356 3.503a.67.67 0 0 0-.566.324.7.7 0 0 0-.048.663c1.859 4.319 8.212 5.544 8.471 5.595.032 0 .081.017.113.017a.67.67 0 0 0 .647-.579l1.035-5.765c.016-.068.016-.136.016-.204 1.94-.544 3.848-1.326 5.4-2.414 6.402-4.507 5.448-16.326 3.88-35.933"/>
    <path fill="#2E2E2E" d="M193.043 75.717c-3.864-3.35-10.088-2.33-13.338-6.514.501 5.17 1.407 10.187 1.261 15.34.275 3.197.21 6.36-.517 9.37a146 146 0 0 1-.194 6.513c4.397.034 8.552-.238 12.206-3.18 3.201-2.568 4.801-6.53 4.769-10.714 0-4.013-1.148-8.18-4.187-10.815m17.525 63.226a.5.5 0 0 1-.226-.051c-.34-.136-1.019.783-.89.425 5.336-15.015 7.114-27.43 4.01-31.783-1.714-2.398-7-10.612-3.217-15.577.808-1.072 1.519-1.599 2.101-1.803-.533-.629-.727-1.513-.485-2.432.372-1.445 1.795-4.217 4.026-5.441 1.212-.68 2.457-.783 3.702-.324 3.88 1.412 4.705 4.49 4.737 4.626.097.374-.113.765-.469.85a.647.647 0 0 1-.808-.493c-.032-.102-.695-2.5-3.88-3.656-.889-.323-1.779-.238-2.652.238-1.729.97-3.023 3.3-3.362 4.575-.194.73.145 1.19.501 1.377.436.221 1.164.153 1.811-.782.921-1.293 2.425-1.803 3.653-1.259.873.374 2.797 1.871 1.989 7.398-.437 2.993-1.584 4.03-2.474 4.37-1.051.408-2.312.051-3.395-.935-.97-.884-1.81-2.364-1.536-3.69.291-1.412-.064-2.84-.549-3.095-.291-.153-.938.136-1.876 1.36-2.522 3.316.016 9.336 3.234 13.86 3.427 4.812 2.247 16.104-3.315 31.8a.69.69 0 0 1-.63.442m3.912-48.024c.631.97.793 2.585.502 3.929-.13.629.355 1.632 1.115 2.347.695.646 1.471.9 2.053.68.776-.306 1.358-1.463 1.617-3.265.534-3.725-.259-5.493-1.196-5.901-.663-.306-1.536.034-2.086.816-.614.867-1.326 1.275-2.005 1.394"/>
    <path fill="#2E2E2E" d="M224.019 90.63c-.34 0-.631-.272-.663-.646-.922-12.312-1.002-15.849.178-17.277.355-.426.824-.664 1.422-.715 2.587-.187 3.234 4.116 3.654 6.683l.033.188c.064.374-.178.748-.55.816-.356.068-.712-.187-.776-.578l-.033-.187c-.242-1.514-.905-5.527-2.198-5.527h-.049c-.307.017-.42.119-.501.22-.905 1.106-.55 6.888.146 16.258a.68.68 0 0 1-.615.748c0 .017-.016.017-.048.017"/>
    <path fill="#2E2E2E" d="M228.675 90.256c-.34 0-.631-.272-.663-.646-.921-12.312-1.002-15.85.178-17.278.356-.425.824-.663 1.423-.714 2.376-.136 2.958 3.384 3.314 5.731l.097.646c.065.374-.178.748-.55.816s-.711-.187-.776-.578l-.097-.663c-.258-1.717-.695-4.557-1.859-4.557h-.048c-.308.017-.421.119-.502.22-.905 1.106-.549 6.888.146 16.258a.68.68 0 0 1-.615.748c0 .017-.016.017-.048.017"/>
    <path fill="#2E2E2E" d="M233.121 90.63a.69.69 0 0 0 .614-.748c-.695-9.37-1.051-15.135-.146-16.257.081-.102.211-.204.502-.221h.016c.275 0 1.471.408 2.263 7.023.517 4.422 2.7 41.868-3.734 59.027a.74.74 0 0 0-.033.374h.065q.63-.051 1.261 0c6.58-17.737 4.316-54.894 3.767-59.571-.437-3.622-1.294-8.4-3.686-8.23-.598.05-1.067.271-1.423.714-1.164 1.428-1.083 4.965-.178 17.277.016.357.356.68.712.612m-6.758 16.003c-.857-2.874-2.555-4.898-4.963-6.479-.728-.477-1.391.731-.679 1.207 2.101 1.377 3.589 3.129 4.349 5.646.274.85 1.552.476 1.293-.374m-79.397 116.046a.63.63 0 0 1-.469-.204.7.7 0 0 1-.194-.493v-17.499c0-.374.291-.68.646-.697l149.157-4.796c.405-.017.663.289.679.663l1.067 21.734a.66.66 0 0 1-.177.51.66.66 0 0 1-.485.221zm.662-17.516v16.105l148.866-.562-1.002-20.304z"/>
    <path fill="#2E2E2E" d="M202.468 216.846a.68.68 0 0 1-.485-.221.74.74 0 0 1-.178-.544l.534-6.122c.032-.357.307-.629.63-.629l35.988-1.378h.032c.34 0 .615.255.663.612l.792 6.684a.72.72 0 0 1-.161.544.64.64 0 0 1-.485.238zm1.132-6.139-.404 4.728 35.826-.8-.631-5.271zm-43.441 2.398h-7c-.372 0-.663-.306-.663-.697v-2.823c0-.391.291-.697.663-.697h7c.372 0 .663.306.663.697v2.823a.673.673 0 0 1-.663.697m-6.321-1.412h5.658v-1.411h-5.658zm134.605 5.153h-23.814a.675.675 0 0 1-.662-.663l-.34-6.802a.7.7 0 0 1 .194-.527.67.67 0 0 1 .501-.205l7.34.324-.032-4.779c0-.187.064-.374.194-.493a.63.63 0 0 1 .469-.204h8.73c.323 0 .598.238.646.561l.954 5.255 6.289-.425a.65.65 0 0 1 .518.204c.129.153.21.34.194.544l-.534 6.564a.637.637 0 0 1-.647.646m-23.167-1.394h22.569l.421-5.119-6.112.408c-.323.034-.63-.221-.695-.561l-.954-5.289h-7.501l.032 4.813a.7.7 0 0 1-.21.51c-.129.136-.307.187-.485.204l-7.324-.306zm-72.218 1.394h-9.587c-.371 0-.662-.306-.662-.697v-4.473c0-.357.258-.663.614-.697l9.506-.833a.65.65 0 0 1 .501.17c.13.136.211.306.227.51l.081 5.323a.74.74 0 0 1-.194.51.76.76 0 0 1-.486.187m-8.924-1.394h8.245l-.064-3.861-8.181.715zm-4.381 1.394h-8.035c-.372 0-.663-.306-.663-.697v-3.758c0-.391.291-.698.663-.698h7.97a.68.68 0 0 1 .663.681l.064 3.758a.74.74 0 0 1-.194.51.6.6 0 0 1-.468.204m-7.373-1.394h6.694l-.033-2.347h-6.661zm143.725-28.604h-27.128a.673.673 0 0 1-.663-.646l-1.584-26.206c-.226-3.69.986-7.21 3.379-9.897 2.409-2.704 5.658-4.183 9.183-4.183h2.845c6.515 0 12.028 5.356 12.546 12.193l2.101 27.974a.7.7 0 0 1-.177.527.65.65 0 0 1-.502.238m-26.497-1.394h25.786l-2.037-27.226c-.453-6.122-5.384-10.901-11.22-10.901h-2.845c-3.137 0-6.063 1.327-8.213 3.741s-3.217 5.561-3.023 8.86z"/>
    <path fill="#2E2E2E" d="m314.214 161.527-26.837-.884a.687.687 0 0 1-.647-.715.693.693 0 0 1 .679-.68l26.821.884a.687.687 0 0 1 .647.715c-.016.391-.307.68-.663.68m-52.818-11.734H241.64c-.371 0-.662-.306-.662-.697s.291-.697.662-.697h19.756c1.65 0 3.234-.749 4.349-2.041 1.1-1.293 1.633-3.027 1.455-4.762-.226-2.125.421-4.268 1.779-5.867 1.358-1.598 3.298-2.5 5.335-2.5h.016l18.479.052c3.945.017 7.146 3.384 7.146 7.533v5.153c0 .391-.291.697-.663.697s-.663-.306-.663-.697v-5.153c0-3.367-2.603-6.122-5.82-6.139l-18.479-.051h-.016c-1.649 0-3.233.748-4.333 2.041-1.099 1.292-1.633 3.044-1.455 4.778.227 2.126-.42 4.269-1.778 5.85-1.374 1.599-3.314 2.5-5.352 2.5"/>
    <path fill="#2E2E2E" d="M304.885 161.085a.664.664 0 0 1-.646-.561l-2.749-13.775a.71.71 0 0 1 .518-.833c.355-.085.711.17.792.544l2.748 13.774a.71.71 0 0 1-.517.834.5.5 0 0 1-.146.017"/>
</svg>
