<svg xmlns="http://www.w3.org/2000/svg" width="384" height="242" fill="none">
    <rect width="384" height="242" fill="#F0F8FF" rx="12"/>
    <path fill="#D7C6F9" d="M90.902 113.441c-.778-1.213-1.926-2.11-2.85-3.192-.527-.62-1.411.277-.897.897.858 1.002 1.94 1.82 2.652 2.929.448.672 1.53.052 1.095-.634"/>
    <path fill="#DBF0FF" d="m247.302 198.111 18.996-.29-.395-17.269c-7.928 3.496-13.865 10.026-18.601 17.559"/>
    <path fill="#5B12EB" d="M241.366 21.278a16 16 0 0 1-1.741 2.019c-.581.567.316 1.464.897.897.712-.7 1.345-1.464 1.939-2.27.475-.672-.62-1.305-1.095-.646"/>
    <path fill="#9C6FF4" d="m237.184 98.85 6.992-3.179-1.214 6.649z"/>
    <path fill="#DBF0FF" d="M245.324 184.074H92.947l-2.52-130.989 152.377-3.773 1.754 89.221.568 29.103.066 3.404z"/>
    <path fill="#2E2E2E" d="M98.804 200.974a.64.64 0 0 1-.633-.62L94.398 35.368a.63.63 0 0 1 .633-.633h167.495c.342 0 .633.277.633.62l.184 22.955a.63.63 0 0 1-.62.633.63.63 0 0 1-.633-.62l-.171-22.335H95.664l3.746 163.719 166.242-2.493-.818-35.026a.634.634 0 0 1 .62-.647.64.64 0 0 1 .646.62l.832 35.66c0 .171-.066.33-.172.448a.7.7 0 0 1-.448.198z"/>
    <path fill="#fff" d="M153.008 81.397h-37.807a2.24 2.24 0 0 1-2.243-2.243v-5.422a2.24 2.24 0 0 1 2.243-2.243l37.807.805a2.24 2.24 0 0 1 2.243 2.243v4.617c.013 1.227-1.003 2.243-2.243 2.243"/>
    <path fill="#2E2E2E" d="M117.919 56.028c0 1.24-.489 2.282-2.243 2.282-1.24 0-2.243-1.042-2.243-2.282a2.24 2.24 0 0 1 2.243-2.243 2.25 2.25 0 0 1 2.243 2.243"/>
    <path fill="#2E2E2E" d="M115.689 58.943c-1.583 0-2.863-1.306-2.863-2.915a2.87 2.87 0 0 1 2.863-2.863 2.87 2.87 0 0 1 2.863 2.863c0 1.886-1.016 2.915-2.863 2.915m0-4.525c-.884 0-1.609.726-1.609 1.61 0 .897.738 1.649 1.609 1.649 1.148 0 1.609-.475 1.609-1.65 0-.883-.725-1.609-1.609-1.609m8.825 4.525c-1.583 0-2.862-1.306-2.862-2.915a2.87 2.87 0 0 1 2.862-2.863 2.87 2.87 0 0 1 2.863 2.863c.013 1.886-1.003 2.915-2.863 2.915m0-4.525c-.883 0-1.609.726-1.609 1.61 0 .897.739 1.649 1.609 1.649 1.148 0 1.61-.475 1.61-1.65 0-.883-.713-1.609-1.61-1.609m-6.82 141.424c-3.733 0-6.754-3.087-6.754-6.887a6.76 6.76 0 0 1 6.754-6.754 6.76 6.76 0 0 1 6.754 6.754c0 4.512-2.335 6.887-6.754 6.887m0-12.375a5.506 5.506 0 0 0-5.501 5.501c0 3.048 2.52 5.621 5.501 5.621 3.747 0 5.501-1.781 5.501-5.621a5.506 5.506 0 0 0-5.501-5.501m15.105-124.524c-1.583 0-2.863-1.306-2.863-2.915a2.87 2.87 0 0 1 2.863-2.863 2.877 2.877 0 0 1 2.862 2.863c0 1.886-1.016 2.915-2.862 2.915m0-4.525c-.884 0-1.61.726-1.61 1.61 0 .897.739 1.649 1.61 1.649 1.147 0 1.609-.475 1.609-1.65 0-.883-.726-1.609-1.609-1.609m-1.596 38.76h-15.514a.633.633 0 0 1-.633-.633c0-.357.277-.634.633-.634h15.527a.633.633 0 1 1-.013 1.267m-5.607 8.39h-9.92a.633.633 0 0 1-.633-.633c0-.356.277-.633.633-.633h9.92c.343 0 .633.277.633.633a.625.625 0 0 1-.633.633"/>
    <path fill="#2E2E2E" d="M117.694 190.948a.634.634 0 0 1-.633-.634v-9.498a.634.634 0 1 1 1.266 0v9.498c0 .356-.29.634-.633.634m66.618 22.031h-8.179a.633.633 0 0 1-.633-.633V199.18a.634.634 0 1 1 1.266 0v12.532h6.886l-.817-12.612a.63.63 0 0 1 .593-.672.625.625 0 0 1 .673.593l.857 13.272a.64.64 0 0 1-.171.475.66.66 0 0 1-.475.211"/>
    <path fill="#2E2E2E" d="m183.864 205.261-.396-6.187-7.335.106v13.166h.027c2.532-2.401 5.078-4.789 7.704-7.085"/>
    <path fill="#2E2E2E" d="M205.577 221h-50.273a.65.65 0 0 1-.568-.356.65.65 0 0 1 .08-.673c3.746-4.538 17.465-9.129 29.536-8.259 11.965.858 21.212 7.863 21.608 8.153.211.159.303.449.211.7a.61.61 0 0 1-.594.435m-48.743-1.253h46.712c-3.166-2.032-10.567-6.135-19.273-6.768-10.58-.778-22.822 2.889-27.439 6.768m101.497-100.145a.64.64 0 0 1-.633-.62l-.607-28.918a.633.633 0 0 1 .62-.646h.013a.64.64 0 0 1 .633.62l.607 28.918a.633.633 0 0 1-.62.646z"/>
    <path fill="#fff" d="m220.404 178.256-113.422.673-.211-47.177s33.322-28.733 65.787-25.237c0-.699-.251-18.535-.264-20.369-.013-.805-1.741-.647-2.348-.805 0 0-2.665-1.28-3.799-2.572-.33-.937-.33-2.93-.343-3.905 2.533-2.019 2.955-2.006 5.963-3.312.936-.409 2.466-18.43 9.326-20.171.238-.053 25.394 0 26.924 5.54-.132.225.119 22.863.37 31.98-1.425 9.511-5.726 11.042-11.095 13.245.132.897-.356 2.269-.224 3.166 2.243-.092 16.002 8.232 22.241 14.551 2.48 2.507 5.251 5 7.229 7.955 2.164 1.847 4.288 3.496 6.715 4.829 4.38 2.427 8.759 2.124 11.872 1.359v29.617c-24.76 0-39.126-16.821-39.126-16.821l-1.57 6.953c22.874 10.119 15.975 20.501 15.975 20.501"/>
    <path fill="#2E2E2E" d="M171.753 105.856c-4.564-.343-24.668-1.029-44.508 11.464-9.789 6.161-21.503 13.905-21.74 15.725a.75.75 0 0 0 .171.568c.119.132.29.198.462.198a.63.63 0 0 0 .435-.172.6.6 0 0 0 .198-.396c.277-.448 2.573-3.153 21.16-14.854 22.056-13.892 44.416-11.214 44.64-11.188a.7.7 0 0 0 .449-.118 35 35 0 0 0-1.267-1.227m32.795 51.912c-.04 0-.066 0-.106-.013a.62.62 0 0 1-.514-.726c.013-.079 1.293-7.704 4.973-15.699a.61.61 0 0 1 .831-.303.62.62 0 0 1 .304.831c-3.602 7.836-4.921 15.607-4.934 15.686-.04.317-.251.224-.554.224m39.628 31.886h-6.992a.633.633 0 0 1 0-1.266h6.992a.633.633 0 0 1 0 1.266"/>
    <path fill="#2E2E2E" d="M174.801 75.684c-4.129-.21-7.045.462-8.654 1.98a4.28 4.28 0 0 0-1.359 3.165c0 1.28.528 2.494 1.478 3.404.844.805 2.414 1.741 5.21 1.768l.502 19.868c-.33-.027-.779-.053-1.319-.093.277.449.567.884.87 1.32.633.052.99.092 1.016.092a.63.63 0 0 0 .501-.158.67.67 0 0 0 .211-.489l-.54-21.2c0-.171-.08-.33-.198-.448a.65.65 0 0 0-.462-.172c-2.177.092-3.878-.396-4.921-1.398a3.42 3.42 0 0 1-1.081-2.494c0-.884.33-1.649.963-2.256 1.332-1.266 3.997-1.833 7.717-1.635.316.013.646-.251.659-.594a.614.614 0 0 0-.593-.66M197.24 84.8a.634.634 0 1 1 0-1.266c1.174 0 2.15-.317 2.598-.845.251-.303.343-.66.264-1.108-.171-.99-2.374-1.543-3.43-1.662a.64.64 0 0 1-.567-.62v-5.765a.633.633 0 0 1 1.267 0v5.224c1.174.211 3.667.858 3.97 2.626.132.817-.052 1.543-.541 2.123-.712.832-1.965 1.293-3.561 1.293m-7.928-7.678a.6.6 0 0 1-.383-.132c-1.108-.844-3.812-1.556-4.749-1.754a.64.64 0 0 1-.488-.752.64.64 0 0 1 .752-.488c.145.026 3.694.804 5.25 1.992a.63.63 0 0 1 .119.884.59.59 0 0 1-.501.25m12.11-2.19v1.254c0 1.622 2.519 1.622 2.519 0v-1.254c0-1.622-2.519-1.622-2.519 0m-14.683-6.082c-1.015.225-1.992.489-2.941.898-.739.316-.106 1.411.633 1.081.844-.369 1.741-.58 2.638-.778.792-.158.462-1.372-.33-1.2m17.519-.225c-.647-.435-1.359-.752-1.966-1.227-.633-.5-1.53.383-.897.897.699.554 1.491.937 2.216 1.425.686.449 1.32-.633.647-1.095M189.378 90.5c-.937-.146-2.19-.58-2.256-1.702-.053-.805-1.306-.805-1.253 0 .105 1.715 1.609 2.665 3.179 2.915.778.119 1.121-1.095.33-1.213"/>
    <path fill="#2E2E2E" d="M187.583 123.494c-10.025 0-17.69-7.071-18.257-16.886a.624.624 0 0 1 .594-.66.63.63 0 0 1 .659.594c.541 9.366 7.625 15.844 17.255 15.699 4.907-.066 7.849-2.045 9.459-3.707 1.82-1.887 2.889-4.394 2.836-6.702a.634.634 0 0 1 .62-.647h.013a.64.64 0 0 1 .633.62c.053 2.678-1.108 5.449-3.192 7.599-1.768 1.834-5 4.024-10.343 4.09z"/>
    <path fill="#2E2E2E" d="M209.152 70.275c-.04-1.952-.079-3.997-.106-6.108-.158-9.934-6.53-14.973-18.943-14.973-14.181 0-20.777 5.409-20.777 17.005v10.079c0 .343.277.633.633.633a.64.64 0 0 0 .607-.462c1.834-.145 2.625.29 4.67.278.778-.541.805-12.995 4.116-15.832 5.857-5.026 23.375-3.35 27.993-.554.277 1.175.422 2.454.448 3.84.04 2.11.079 4.155.106 6.108.356 18.469.58 29.63-5.515 33.139-5.223 3.021-14.669 2.441-14.761 2.441a.6.6 0 0 0-.541.25.6.6 0 0 0-.079.594c1.609 4.274 9.287 5.937 9.617 6.016a.64.64 0 0 0 .527-.132.65.65 0 0 0 .238-.488v-5.62c2.005-.396 3.997-1.016 5.646-1.966 6.714-3.878 6.49-15.303 6.121-34.248m-51.738 84.564c-.646-1.57-3.931-3.891-7.123-3.891-2.533 0-4.169.633-5.211 1.398v-.013c-.053-.093-1.214-2.23-5.765-3.589-1.121-.329-2.282-.435-3.456-.382l4.063-3.747a.626.626 0 0 0 .04-.884.626.626 0 0 0-.884-.039l-5.356 4.947c-5.382 1.082-10.342 4.802-10.619 5.013a.63.63 0 0 0-.119.884.65.65 0 0 0 .501.251c.132 0 .264-.04.383-.132.092-.066 8.759-6.583 15.118-4.71 3.983 1.174 4.999 2.955 5.012 2.955a.6.6 0 0 0 .238.251c-.765.884-.937 1.715-.95 1.794a.62.62 0 0 0 .501.726.633.633 0 0 0 .739-.489c.026-.118.686-2.994 5.804-2.994 2.691 0 5.514 2.045 5.963 3.113.106.238.33.383.58.383.08 0 .159-.013.238-.053.277-.106.435-.475.303-.792"/>
    <path fill="#2E2E2E" d="M152.375 178.929a.64.64 0 0 1-.593-.409c-3.602-9.617.844-18.47 2.295-20.963.805-1.372 2.612-3.72 4.327-3.76.488 0 1.121.145 1.636.924.488.752-.106 1.886-1.174 3.957-.963 1.847-2.151 4.156-2.771 6.61-1.293 5.132-.461 10.831.699 12.665a.625.625 0 0 1-.197.87.625.625 0 0 1-.871-.198c-1.451-2.295-2.164-8.456-.858-13.641.66-2.599 1.94-5.079 2.876-6.886.554-1.069 1.253-2.414 1.201-2.757-.172-.251-.37-.291-.515-.277-.897.026-2.388 1.649-3.258 3.139-1.385 2.362-5.62 10.792-2.203 19.882a.62.62 0 0 1-.37.804.7.7 0 0 1-.224.04"/>
    <path fill="#2E2E2E" d="M220.695 172.28a.634.634 0 0 1-.634-.633c0-1.663 0-4.776-11.687-11.346-6.609-3.707-19.999-3.681-32.927-3.667-5.342.013-10.87.013-15.962-.225a.62.62 0 0 1-.593-.659.63.63 0 0 1 .659-.594c5.066.238 10.58.238 15.909.224 13.707-.013 26.648-.039 33.547 3.839 11.384 6.399 12.334 9.776 12.334 12.441a.66.66 0 0 1-.646.62"/>
    <path fill="#2E2E2E" d="M220.879 177.425a.66.66 0 0 1-.343-.106.62.62 0 0 1-.171-.87c.462-.686.554-1.531.277-2.52-.462-1.636-2.704-6.016-13.733-11.2a.64.64 0 0 1-.303-.845.637.637 0 0 1 .844-.303c8.219 3.865 13.337 8.126 14.405 11.992.37 1.332.212 2.559-.448 3.549a.64.64 0 0 1-.528.303"/>
    <path fill="#2E2E2E" d="M220.444 178.929a.625.625 0 0 1-.594-.844c.673-1.808-1.411-5.396-15.196-12.243a.636.636 0 0 1-.291-.844.637.637 0 0 1 .845-.291c12.07 6.003 17.109 10.383 15.816 13.8a.59.59 0 0 1-.58.422"/>
    <path fill="#2E2E2E" d="M216.262 178.929c-.052 0-.118-.013-.184-.026a.62.62 0 0 1-.423-.779c.686-2.348-4.458-4.037-8.6-5.409-1.531-.501-2.969-.976-4.156-1.477a.626.626 0 0 1-.33-.831.636.636 0 0 1 .831-.33c1.135.475 2.546.95 4.05 1.438 4.894 1.609 10.448 3.443 9.419 6.965a.645.645 0 0 1-.607.449"/>
    <path fill="#fff" d="m283.342 53.52-70.734 17.336s-1.913 4.38-.963 6.346c.937 1.965 1.148 3.561 1.148 3.561l74.941-3.957s7.599-3.259 7.361-12.639c-.237-9.38-3.865-11.49-5.065-12.097-1.214-.594-3.997-1.333-6.688 1.45"/>
    <path fill="#000091" d="M290.504 54.524c-1.015-.568-2.163-.792-3.39-.792-3.931 0-7.11 4.67-7.11 10.448 0 2.072.422 4.01 1.134 5.634 2.929-5.211 5.884-10.422 9.366-15.29m-7.466 18.218c1.148 1.188 2.559 1.887 4.063 1.887 3.931 0 7.11-4.67 7.11-10.449 0-3.417-.567-5.791-1.517-7.414-3.588 5.066-6.595 10.541-9.656 15.976"/>
    <path fill="#2E2E2E" d="M287.114 77.478c-5.105 0-9.247-5.963-9.247-13.298s4.155-13.298 9.247-13.298c6.134 0 9.248 4.473 9.248 13.298 0 7.335-4.156 13.298-9.248 13.298m0-25.33c-4.406 0-7.994 5.396-7.994 12.032s3.588 12.032 7.994 12.032 7.994-5.396 7.994-12.032c0-8.1-2.625-12.031-7.994-12.031"/>
    <path fill="#2E2E2E" d="M212.766 80.777a.62.62 0 0 1-.527-.29c-2.164-3.338-2.151-6.504.026-9.394a.55.55 0 0 1 .343-.224l70.417-18.549a.62.62 0 0 1 .765.449.615.615 0 0 1-.448.765L213.149 72.03c-1.662 2.322-1.675 4.776-.04 7.48l36.145-1.596c.33-.013.647.25.66.607a.634.634 0 0 1-.607.66l-36.514 1.582c0 .014-.014.014-.027.014"/>
    <path fill="#2E2E2E" d="m212.595 78.547-1.517-2.704 1.398-2.705a.6.6 0 0 0-.066-.673.61.61 0 0 0-.633-.224l-5.871 1.346a.62.62 0 0 0-.448.395c-.053.132-1.135 3.18.053 5.185a.61.61 0 0 0 .541.303h5.989a.61.61 0 0 0 .54-.316.59.59 0 0 0 .014-.607m50.629-.013a.634.634 0 0 1-.026-1.267l23.877-1.055c.316-.013.646.25.659.607a.633.633 0 0 1-.606.66l-23.877 1.055z"/>
    <path fill="#fff" d="M244.097 137.834c4.432-1.926 7.809-2.454 9.01-6.438 1.213-3.984 3.548-9.511 5.843-12.44 0 0-.329-3.839 1.953-4.248 0 0 2.48-5.238.541-13.918-1.926-8.681-4.248-10.99-8.298-15.238s-4.828-8.483-3.667-11.187 4.96-9.59 6.912-9.433c1.953.159 3.694 2.098 2.348 4.222-1.345 2.124-3.456 3.008-1.926 4.881s4.367 2.072 6.478 4.182c5.039.185 9.88-.184 9.88-.184s10.052 15.04 11.78 26.226c1.742 11.188 1.821 15.436 1.821 15.436s2.255 1.464 1.847 3.087c-.409 1.622-1.544 1.926-1.544 1.926s-1.543 16.2-5.593 21.213-12.611 17.085-21.635 19.341c-9.023 2.255-15.975 2.071-16.74 2.071s.99-29.499.99-29.499"/>
    <path fill="#2E2E2E" d="M240.324 139.14c-4.696 0-9.999-2.678-18.02-11.042-10.764-11.227-17.017-15.646-25.737-18.179a.62.62 0 0 1-.422-.778.615.615 0 0 1 .778-.423c8.971 2.613 15.355 7.111 26.304 18.51 11.345 11.833 16.741 11.398 21.292 9.933 6.767-2.176 8.574-5.725 8.601-5.765a.625.625 0 0 1 .844-.29.61.61 0 0 1 .29.831c-.079.159-2.005 4.05-9.339 6.412-1.517.488-3.021.791-4.591.791m46.791-18.258q-.021 0 0 0a.645.645 0 0 1-.634-.646c.291-14.169-3.917-27.256-13.666-42.44a.633.633 0 0 1 .185-.872.633.633 0 0 1 .87.185c9.881 15.409 14.168 28.72 13.865 43.14a.62.62 0 0 1-.62.633"/>
    <path fill="#2E2E2E" d="M244.44 168.705c-13.548 0-26.569-5.831-38.81-17.388a.626.626 0 1 1 .857-.91c14.01 13.219 29.022 18.799 44.614 16.569 20.131-3.773 35.354-22.057 35.38-42.532 0-.343.291-.62.634-.633.343 0 .633.277.633.633-.04 21.068-15.698 39.894-36.436 43.773a49 49 0 0 1-6.872.488"/>
    <path fill="#2E2E2E" d="M254.637 139.153a.625.625 0 0 1-.62-.54l-.145-.884c-.752-4.605-2.15-13.18 5.052-20.343a.613.613 0 0 1 .884 0 .613.613 0 0 1 0 .884c-6.741 6.702-5.409 14.868-4.696 19.248l.145.883a.627.627 0 0 1-.528.713c-.026.039-.053.039-.092.039m-38.955 20.211c-.092-.079-.185-.158-.303-.263-5.119-4.459-6.715-14.196-6.715-14.196s-.251-.184-1.675 2.903c-1.425 3.087 0 4.195 0 4.195s6.292 5.383 8.653 7.388zm46.039-44.432c-.04 0-.093 0-.132-.013-.343-.066-.554-.409-.488-.752 1.015-4.815-.383-20.092-3.839-23.694l-.145-.145c-4.472-4.657-10.052-10.462-8.548-15.58 1.2-4.09 5.012-8.866 7.835-9.816 1.201-.409 2.006-.092 2.467.251 1.61 1.187.976 3.84-1.899 7.916-.198.277-.251.62-.145.936.105.317.343.568.672.673 3.72 1.267 10.409 4.13 13.43 9.13a.627.627 0 0 1-.212.87.63.63 0 0 1-.87-.211c-2.823-4.657-9.208-7.375-12.77-8.588a2.3 2.3 0 0 1-1.147-3.523c2.229-3.153 3.06-5.514 2.176-6.16-.33-.238-.765-.265-1.319-.08-2.454.831-5.936 5.277-7.031 8.984-1.293 4.407 4.221 10.159 8.245 14.354l.145.145c4.036 4.208 5.158 20.118 4.155 24.828-.026.277-.29.475-.58.475"/>
    <path fill="#2E2E2E" d="M277.748 127.082c-3.706 0-7.717-.646-11.12-1.965-4.71-1.834-7.44-4.631-7.889-8.101-.211-1.583.607-3.153 1.808-3.509.356-.105 1.609-.303 2.48 1.544 1.24 2.625 3.495 4.485 6.701 5.527 6.82 2.217 15.302.093 17.07-.87a.6.6 0 0 1 .646.026c.172.119 1.715 1.148 1.808 2.612.039.528-.119 1.306-1.029 2.071-2.085 1.755-6.082 2.665-10.475 2.665m-16.727-12.387c-.039 0-.079 0-.118.013-.475.132-1.056 1.042-.911 2.137.489 3.76 4.129 5.937 7.098 7.084 6.938 2.705 16.819 2.467 20.341-.488.409-.343.594-.686.581-1.029-.04-.554-.568-1.108-.963-1.425-2.797 1.267-11.227 2.876-17.69.792-3.562-1.148-6.069-3.232-7.454-6.187-.145-.291-.475-.897-.884-.897M259.08 178.4H107.638a.636.636 0 0 1-.629-.618l-2.504-130.41a.63.63 0 0 1 .616-.644L256.55 42.97c.17.013.328.066.446.17a.7.7 0 0 1 .196.448l.302 16.17c0 .341-.262.63-.616.643-.328.013-.629-.276-.643-.617l-.288-15.54-150.17 3.718 2.477 129.176h150.184l-.118-12.335c0-.341.275-.63.616-.63s.629.276.629.617l.118 12.965a.63.63 0 0 1-.183.447.5.5 0 0 1-.42.197"/>
</svg>
