<svg width="286" height="235" viewBox="0 0 286 235" fill="none" xmlns="http://www.w3.org/2000/svg">
<path d="M202.42 190.138C200.995 188.55 203.278 186.132 204.703 187.738C205.373 188.496 206.111 189.109 206.901 189.615L206.695 179.472C204.72 180.013 202.746 180.609 200.789 181.24C198.78 181.89 197.939 178.587 199.931 177.956C199.982 177.938 200.034 177.92 200.085 177.902C202.162 176.728 204.343 176.061 206.626 175.862L205.201 107.369L0 127.186L4.01715 210.641L169.27 209.739C168.635 208.782 168.051 207.789 167.502 206.779C166.368 205.66 165.201 204.577 164.188 203.331C163.639 203.007 163.09 202.7 162.557 202.375C161.802 201.942 161.064 201.527 160.291 201.13C159.69 200.823 158.987 200.48 158.626 199.866C158.042 198.892 158.678 198.043 159.639 197.881C159.536 197.592 159.45 197.285 159.347 196.997C158.695 196.834 158.094 196.563 157.785 195.932C157.338 195.029 157.854 194.109 158.626 193.622C158.746 193.459 158.884 193.297 159.055 193.17C159.175 193.062 159.296 192.972 159.416 192.882C158.351 191.997 158.66 189.795 160.36 189.831C161.373 189.886 161.853 189.886 162.266 189.976C163.261 190.084 164.257 190.283 165.218 190.535C164.909 189.543 165.716 188.333 166.763 188.297C168.566 188.225 170.248 188.803 171.69 189.813C171.776 189.795 171.879 189.795 171.982 189.868C174.866 191.402 177.441 193.333 179.725 195.715C179.742 195.733 179.759 195.733 179.776 195.751C179.227 193.188 178.66 190.626 177.785 188.135C177.132 186.294 179.896 185.157 180.738 186.817C182.162 189.615 182.368 190.95 184.223 193.459C186.746 196.852 191.57 200.715 195.553 201.599C199.278 202.429 203.21 201.96 206.986 202.465C207.038 202.465 207.072 202.483 207.124 202.483L206.935 193.495C205.304 192.719 203.759 191.618 202.42 190.138Z" fill="#AF8EF3"/>
<path d="M193.51 166.116L189.922 129.947L137.699 143.574L141.819 184.633L193.51 166.116Z" fill="white"/>
<path d="M184.136 46.799C172.205 48.0443 159.793 44.3986 149.664 34.2555C145.698 30.2668 142.299 25.6284 139.398 20.5388H162.934C172.067 27.8123 179.363 36.7642 184.136 46.799Z" fill="#D7C6F9"/>
<path d="M110.987 180.176C109.476 182.919 107.965 185.644 106.472 188.388C106.043 189.146 107.176 189.849 107.605 189.073C109.115 186.33 110.626 183.605 112.12 180.861C112.532 180.103 111.416 179.418 110.987 180.176Z" fill="#000091"/>
<path d="M205.012 32.6312C203.502 30.8986 201.991 29.184 200.497 27.4514C199.931 26.8017 199.004 27.7763 199.57 28.426C201.081 30.1586 202.592 31.8732 204.085 33.6058C204.652 34.2556 205.579 33.281 205.012 32.6312Z" fill="#000091"/>
<path d="M31.9997 162.452L34.9181 168.913L43.0211 166.946L37.5104 161.207L31.9997 162.452Z" fill="#D7C6F9"/>
<path d="M107.141 196.13C105.476 196.852 103.828 197.592 102.163 198.314C101.39 198.657 101.733 199.974 102.506 199.632C104.171 198.91 105.819 198.17 107.484 197.448C108.257 197.123 107.914 195.787 107.141 196.13Z" fill="#000091"/>
<path d="M284.102 234.031C283.982 234.031 283.862 233.995 283.742 233.923L250.626 211.616C239.553 217.806 226.471 221.65 211.759 223.04C211.227 223.076 210.712 223.058 210.214 223.022L209.956 223.004C199.553 222.805 189.596 220.928 180.394 217.409C151.09 206.201 133.596 180.428 133.596 148.429C133.596 147.093 133.631 145.74 133.699 144.422C133.716 144.043 134.025 143.754 134.386 143.772C134.746 143.79 135.021 144.115 135.004 144.494C134.935 145.794 134.901 147.129 134.901 148.429C134.901 179.815 152.068 205.118 180.841 216.11C189.905 219.575 199.708 221.434 209.991 221.614L210.265 221.632C210.729 221.65 211.175 221.686 211.639 221.65C226.334 220.279 239.364 216.416 250.351 210.19C250.609 210.045 250.918 210.099 251.106 210.298L251.158 210.352L283.45 232.118C283.759 223.654 285.355 172.361 281.012 142.166L280.823 140.812C280.308 137.437 279.707 134.387 279.072 131.806C278.849 130.904 278.626 129.929 278.368 128.864C276.051 118.974 272.531 104.066 261.544 92.4792C261.51 92.4611 261.493 92.425 261.458 92.407C258.815 89.6095 255.827 87.1189 252.549 85.0433C250.712 83.8702 248.617 82.7692 246.368 81.7946C242.506 80.1162 237.956 78.7084 232.463 77.4631L231.364 77.2284C231.347 77.2284 231.33 77.2284 231.313 77.2284C225.064 75.9109 218.454 75.2431 211.673 75.2431C204.875 75.2431 198.145 76.0914 191.656 77.7518C191.313 77.8421 190.952 77.6074 190.866 77.2465C190.781 76.8855 191.004 76.5065 191.347 76.4163C197.939 74.7197 204.789 73.8715 211.673 73.8715C218.54 73.8715 225.235 74.5573 231.57 75.8929L232.737 76.1455C238.317 77.4089 242.935 78.8528 246.866 80.5493C249.184 81.56 251.33 82.679 253.235 83.8882C256.566 86.0179 259.621 88.5447 262.317 91.3963C262.351 91.4143 262.368 91.4324 262.403 91.4685C273.699 103.326 277.424 119.136 279.639 128.576C279.879 129.622 280.119 130.597 280.342 131.499C280.995 134.134 281.596 137.221 282.128 140.65L282.317 142.022C287.038 174.978 284.737 232.858 284.72 233.436C284.703 233.689 284.583 233.905 284.377 234.013C284.308 233.995 284.205 234.031 284.102 234.031Z" fill="#2E2E2E"/>
<path d="M213.613 185.933C213.579 185.951 213.544 185.969 213.493 185.987L208.377 188.947C208.257 189.019 208.171 189.127 208.102 189.254C208.737 189.38 209.39 189.452 210.025 189.579L214.128 187.196C214.145 187.196 214.145 187.178 214.162 187.178C213.974 186.745 213.785 186.348 213.613 185.933Z" fill="#2E2E2E"/>
<path d="M228.634 178.696C228.411 178.696 228.188 178.569 228.068 178.335C227.896 178.01 228.016 177.577 228.325 177.396L233.699 174.292L204.961 167.921C204.686 167.867 204.48 167.632 204.446 167.343L198.059 117.62L169.218 125.652C168.875 125.742 168.514 125.525 168.411 125.164C168.325 124.804 168.531 124.424 168.875 124.316L198.437 116.068C198.609 116.014 198.815 116.05 198.969 116.158C199.124 116.267 199.227 116.447 199.261 116.646L205.682 166.657L235.69 173.317C235.965 173.371 236.154 173.606 236.205 173.895C236.257 174.184 236.119 174.454 235.879 174.599L228.978 178.605C228.84 178.659 228.737 178.696 228.634 178.696Z" fill="#2E2E2E"/>
<path d="M145.682 189.561C145.408 189.561 145.15 189.38 145.064 189.091C144.944 188.73 145.133 188.333 145.476 188.225L204.875 166.585C205.218 166.459 205.596 166.657 205.699 167.018C205.819 167.379 205.63 167.776 205.287 167.885L145.888 189.525C145.82 189.561 145.751 189.561 145.682 189.561Z" fill="#2E2E2E"/>
<path d="M145.528 180.085C145.408 180.085 145.288 180.049 145.185 179.977C145.013 179.869 144.91 179.67 144.893 179.472L141.116 141.895C141.082 141.516 141.34 141.173 141.7 141.137C142.043 141.101 142.387 141.372 142.421 141.751L146.112 178.461L196.55 160.395L193.099 125.544L158.266 134.64C157.923 134.73 157.563 134.513 157.477 134.134C157.391 133.774 157.597 133.395 157.957 133.304L193.528 124.027C193.717 123.973 193.906 124.009 194.06 124.136C194.215 124.244 194.318 124.425 194.335 124.623L197.923 160.792C197.957 161.117 197.768 161.405 197.477 161.514L145.786 180.031C145.666 180.067 145.597 180.085 145.528 180.085Z" fill="#2E2E2E"/>
<path d="M151.553 149.205C151.261 149.205 150.986 148.988 150.918 148.663C150.832 148.284 151.055 147.923 151.416 147.851L168.892 143.772C169.252 143.7 169.596 143.917 169.664 144.296C169.75 144.675 169.527 145.036 169.167 145.108L151.69 149.187C151.656 149.205 151.604 149.205 151.553 149.205Z" fill="#2E2E2E"/>
<path d="M153.27 161.279C152.978 161.279 152.704 161.081 152.635 160.756C152.549 160.395 152.755 160.016 153.116 159.925L165.613 156.605C165.957 156.514 166.317 156.731 166.403 157.11C166.489 157.471 166.283 157.85 165.922 157.94L153.425 161.261C153.39 161.279 153.339 161.279 153.27 161.279Z" fill="#2E2E2E"/>
<path d="M204.84 191.799C204.668 191.456 204.273 191.347 203.947 191.51L191.158 198.729C191.072 198.783 191.003 198.837 190.952 198.91C191.295 199.234 191.655 199.523 192.016 199.794L204.548 192.719C204.891 192.539 205.011 192.124 204.84 191.799Z" fill="#2E2E2E"/>
<path d="M145.528 180.085C145.408 180.085 145.288 180.049 145.185 179.977C145.013 179.869 144.91 179.67 144.893 179.472L141.116 141.895C141.082 141.516 141.34 141.173 141.7 141.137C142.043 141.101 142.387 141.372 142.421 141.751L146.112 178.461L196.55 160.395L193.099 125.544L158.266 134.64C157.923 134.73 157.563 134.513 157.477 134.134C157.391 133.774 157.597 133.395 157.957 133.304L193.528 124.027C193.717 123.973 193.906 124.009 194.06 124.136C194.215 124.244 194.318 124.425 194.335 124.623L197.923 160.792C197.957 161.117 197.768 161.405 197.477 161.514L145.786 180.031C145.666 180.067 145.597 180.085 145.528 180.085Z" fill="#2E2E2E"/>
<path d="M204.394 202.88C193.819 202.88 187.57 197.953 185.424 195.878C183.244 193.784 182.368 191.726 181.647 190.066C181.149 188.929 180.72 187.936 179.999 187.178C179.209 186.366 178.66 186.258 178.471 186.384C178.196 186.583 177.939 187.738 178.883 190.03C180.514 193.982 179.947 195.462 179.81 195.733C179.707 195.932 179.535 196.058 179.347 196.094C179.141 196.13 178.935 196.058 178.797 195.914C176.565 193.694 170.042 188.063 166.643 188.55C165.956 188.64 165.441 189.001 165.081 189.633C164.892 189.958 164.497 190.066 164.188 189.867C163.879 189.669 163.776 189.254 163.965 188.929C164.531 187.936 165.372 187.359 166.471 187.196C170.248 186.655 176.291 191.763 178.694 193.964C178.608 193.242 178.351 192.16 177.716 190.589C176.668 188.027 176.686 186.041 177.767 185.265C178.162 184.976 179.261 184.489 180.943 186.204C181.853 187.142 182.351 188.279 182.866 189.507C183.57 191.131 184.359 192.954 186.334 194.867C189.372 197.809 200.943 206.652 222.076 197.412C238.763 190.102 241.218 173.407 243.398 158.662C245.012 147.725 246.402 138.286 253.132 134.207C253.441 134.026 253.853 134.135 254.024 134.459C254.196 134.784 254.093 135.217 253.784 135.398C247.587 139.134 246.248 148.284 244.685 158.861C242.471 173.949 239.947 191.077 222.574 198.675C215.484 201.761 209.441 202.88 204.394 202.88Z" fill="#2E2E2E"/>
<path d="M176.395 197.953C176.274 197.953 176.154 197.917 176.051 197.845C174.008 196.491 172.498 195.264 171.176 194.199C168.292 191.871 166.558 190.463 162.403 190.228C160.961 190.138 159.553 191.077 159.433 191.69C159.365 192.015 160.034 192.286 160.24 192.358C160.583 192.485 160.755 192.882 160.652 193.225C160.532 193.585 160.171 193.766 159.828 193.658C158.077 193.026 158.077 191.889 158.163 191.42C158.42 189.994 160.515 188.73 162.489 188.839C167.055 189.073 169.116 190.77 171.983 193.098C173.287 194.163 174.764 195.354 176.755 196.672C177.064 196.87 177.15 197.303 176.961 197.628C176.824 197.845 176.618 197.953 176.395 197.953Z" fill="#2E2E2E"/>
<path d="M174.197 199.271C165.39 192.936 160.943 190.571 157.922 193.405C157.064 194.199 157.012 194.957 157.132 195.462C157.39 196.635 158.815 197.448 159.931 197.917C160.6 197.989 161.252 198.079 161.922 198.188C161.991 198.115 162.042 198.007 162.076 197.899C162.162 197.538 161.956 197.159 161.613 197.051C160.377 196.708 158.574 195.841 158.403 195.137C158.351 194.939 158.489 194.704 158.78 194.434C161.149 192.232 165.407 194.596 173.458 200.408C173.579 200.48 173.699 200.534 173.819 200.534C174.025 200.534 174.231 200.426 174.351 200.227C174.557 199.92 174.488 199.487 174.197 199.271Z" fill="#2E2E2E"/>
<path d="M171.434 212.734C171.314 212.734 171.176 212.698 171.056 212.608C168.893 211.038 167.657 209.143 166.558 207.482C165.425 205.75 164.447 204.252 162.661 203.404C158.936 201.599 157.511 200.48 157.408 199.271C157.374 198.837 157.494 198.224 158.267 197.646C160.413 196.076 162.438 196.455 169.614 201.689C169.906 201.906 169.992 202.339 169.786 202.646C169.58 202.952 169.168 203.025 168.876 202.826C161.546 197.466 160.361 197.791 159.022 198.765C158.833 198.91 158.713 199.054 158.713 199.144C158.747 199.541 159.554 200.39 163.211 202.158C165.322 203.169 166.438 204.902 167.64 206.724C168.721 208.367 169.82 210.063 171.794 211.507C172.086 211.724 172.172 212.157 171.966 212.464C171.846 212.626 171.64 212.734 171.434 212.734Z" fill="#2E2E2E"/>
<path d="M181.184 197.267C181.081 197.267 180.961 197.231 180.858 197.177L178.9 196.022C178.591 195.841 178.471 195.426 178.643 195.083C178.815 194.759 179.209 194.632 179.536 194.813L181.493 195.968C181.802 196.148 181.922 196.563 181.75 196.906C181.63 197.141 181.424 197.267 181.184 197.267Z" fill="#2E2E2E"/>
<path d="M269.167 172.974C268.841 172.956 268.497 173.227 268.48 173.606C267.639 184.345 259.33 202.267 252.412 211.652C252.292 211.814 252.24 212.013 252.291 212.211C252.326 212.41 252.463 212.572 252.635 212.68L262.952 218.384C263.055 218.438 263.158 218.456 263.261 218.456C263.485 218.456 263.691 218.348 263.811 218.131C268.463 210.226 269.751 175.176 269.802 173.696C269.802 173.299 269.527 172.992 269.167 172.974Z" fill="#2E2E2E"/>
<path d="M184.669 218.871C184.394 218.871 184.12 218.672 184.034 218.384C183.158 215.297 184.257 208.926 187.21 204.739C189.304 201.779 192.051 200.209 195.176 200.191C195.536 200.191 195.828 200.498 195.828 200.877C195.828 201.256 195.536 201.563 195.176 201.563C192.446 201.581 190.111 202.916 188.257 205.551C185.39 209.612 184.583 215.532 185.287 217.987C185.39 218.348 185.184 218.727 184.841 218.835C184.807 218.853 184.738 218.871 184.669 218.871Z" fill="#2E2E2E"/>
<path d="M234.317 181.132C230.248 181.132 226.918 179.075 224.308 177.45C223.793 177.125 223.295 176.837 222.832 176.548C217.665 173.534 210.626 172.036 207.776 175.158C207.519 175.429 207.107 175.447 206.849 175.176C206.592 174.905 206.574 174.472 206.832 174.202C210.162 170.538 217.716 172 223.45 175.339C223.931 175.627 224.429 175.934 224.961 176.259C228.394 178.389 232.686 181.042 238.197 179.038C238.54 178.912 238.918 179.111 239.021 179.472C239.141 179.833 238.952 180.23 238.609 180.338C237.115 180.897 235.673 181.132 234.317 181.132Z" fill="#2E2E2E"/>
<path d="M222.283 198.729C222.215 198.729 222.129 198.711 222.06 198.693C219.433 197.664 216.566 196.96 213.82 196.275C208.326 194.903 203.571 193.73 202.026 190.499C201.167 188.712 201.15 187.467 201.94 186.799C203.227 185.752 205.906 187.124 207.313 188.406C208.498 189.47 211.708 188.207 213.253 187.431C212.893 185.987 211.691 181.89 209.27 180.392C208.309 179.797 207.296 179.688 206.146 180.067C201.185 181.674 199.571 181.908 198.644 181.186C198.026 180.717 197.957 179.941 197.957 179.418C197.957 178.714 198.489 177.956 199.536 177.216C202.283 175.248 208.206 173.426 212.223 175.104C212.566 175.248 212.721 175.645 212.584 175.988C212.446 176.349 212.069 176.512 211.742 176.367C208.275 174.924 202.815 176.584 200.36 178.28C199.485 178.894 199.279 179.309 199.279 179.399C199.279 179.652 199.313 179.977 199.433 180.067C200.086 180.573 203.794 179.381 205.785 178.75C207.279 178.262 208.687 178.425 209.957 179.219C213.39 181.349 214.609 187.413 214.661 187.684C214.712 187.99 214.592 188.279 214.335 188.424C213.768 188.73 208.704 191.456 206.489 189.47C205.03 188.171 203.176 187.593 202.781 187.918C202.678 188.008 202.558 188.514 203.227 189.922C204.498 192.593 209.184 193.748 214.146 194.975C216.944 195.661 219.845 196.383 222.541 197.43C222.884 197.556 223.056 197.953 222.936 198.314C222.798 198.567 222.541 198.729 222.283 198.729Z" fill="#2E2E2E"/>
<path d="M216 175.375C215.846 175.375 215.709 175.321 215.588 175.212C214.455 174.22 211.76 173.967 211.125 173.985C211.022 174.003 210.919 174.003 210.816 173.985C210.558 173.913 210.352 173.678 210.318 173.389C210.284 173.119 210.421 172.83 210.661 172.704C211.073 172.469 214.816 172.758 216.412 174.147C216.687 174.382 216.721 174.815 216.498 175.122C216.378 175.303 216.189 175.375 216 175.375Z" fill="#2E2E2E"/>
<path d="M227.776 195.499C227.484 195.499 227.226 195.3 227.141 194.993C225.939 190.138 227.02 183.244 234.059 179.833C234.385 179.67 234.78 179.833 234.935 180.176C235.089 180.519 234.935 180.934 234.608 181.096C228.291 184.164 227.312 190.319 228.394 194.668C228.48 195.029 228.274 195.408 227.93 195.499C227.896 195.499 227.827 195.499 227.776 195.499Z" fill="#2E2E2E"/>
<path d="M246.026 111.448C245.888 112.477 245.459 113.848 244.292 113.939C243.451 114.011 243.468 115.382 244.309 115.31C246.094 115.166 247.056 113.523 247.296 111.791C247.416 110.925 246.146 110.564 246.026 111.448Z" fill="#2E2E2E"/>
<path d="M233.681 113.487C232.84 113.487 232.084 113.307 231.518 112.928C230.865 112.495 230.471 111.845 230.368 111.033C230.041 108.632 233.595 106.918 234.007 106.719C234.333 106.557 234.728 106.719 234.865 107.062C235.003 107.405 234.865 107.82 234.539 107.965C233.543 108.434 231.518 109.733 231.672 110.816C231.724 111.231 231.913 111.52 232.222 111.737C232.908 112.188 234.196 112.206 235.501 111.773C235.844 111.646 236.204 111.863 236.325 112.224C236.428 112.585 236.239 112.964 235.895 113.09C235.123 113.361 234.368 113.487 233.681 113.487Z" fill="#2E2E2E"/>
<path d="M236.342 99.0847L236.737 100.384C237.252 102.063 234.746 102.911 234.248 101.214L233.853 99.915C233.355 98.2184 235.845 97.3882 236.342 99.0847Z" fill="#2E2E2E"/>
<path d="M231.657 92.1723C232.463 92.1543 233.27 92.2806 234.06 92.1904C234.884 92.1001 235.176 93.4357 234.352 93.526C233.442 93.6162 232.532 93.5079 231.605 93.544C230.764 93.5621 230.815 92.1904 231.657 92.1723Z" fill="#2E2E2E"/>
<path d="M256.737 129.334C253.991 130.326 250.763 131.048 248.051 130.417C243.124 129.28 240.171 124.695 236.308 112.26C236.188 111.899 235.828 111.701 235.484 111.827C235.141 111.953 234.952 112.332 235.072 112.693C238.574 123.973 241.63 130.344 247.776 131.77C250.695 132.438 254.042 131.752 256.892 130.76C256.84 130.272 256.789 129.803 256.737 129.334Z" fill="#2E2E2E"/>
<path d="M234.248 108.055C233.973 108.055 233.716 107.874 233.63 107.567C232.703 104.445 231.896 101.539 230.952 98.1824C230.402 96.2151 229.819 94.1215 229.149 91.7572C227.329 85.3501 228.325 80.2785 232.188 76.2718C232.445 76.0011 232.857 76.0011 233.115 76.2718C233.372 76.5425 233.372 76.9757 233.115 77.2464C229.63 80.8741 228.754 85.4944 230.42 91.3601C231.089 93.7244 231.673 95.8361 232.222 97.8033C233.149 101.16 233.956 104.048 234.883 107.152C234.986 107.513 234.797 107.892 234.454 108.019C234.385 108.037 234.317 108.055 234.248 108.055Z" fill="#2E2E2E"/>
<path d="M261.973 91.9016C261.218 92.1724 260.48 92.4972 259.776 92.8582C249.012 91.5948 238.643 87.552 230.214 80.2064C230.797 79.0333 231.587 77.8601 232.651 76.7592C237.578 77.8782 242.334 79.2498 246.66 81.1269C248.857 82.0834 250.969 83.1663 252.943 84.4297C256.394 86.6316 259.381 89.1403 261.973 91.9016Z" fill="#2E2E2E"/>
<path d="M262.3 123.233C262.025 123.233 261.768 123.053 261.682 122.764L256.189 105.131C256.137 104.95 256.154 104.752 256.24 104.59C256.326 104.427 256.463 104.301 256.635 104.247C258.815 103.615 260.343 102.55 261.064 101.16C261.716 99.897 261.528 98.7599 261.356 98.2004C261.081 97.28 260.515 96.5941 259.691 96.161C257.974 95.2947 255.159 95.5834 251.536 96.9912C251.193 97.1175 250.815 96.9371 250.695 96.5941C250.575 96.2332 250.747 95.8361 251.073 95.7098C255.09 94.1215 258.18 93.8689 260.257 94.9157C261.699 95.6556 262.334 96.8829 262.592 97.7673C262.987 99.1028 262.849 100.547 262.197 101.81C261.613 102.929 260.36 104.409 257.613 105.348L262.901 122.313C263.021 122.674 262.832 123.053 262.489 123.179C262.437 123.233 262.369 123.233 262.3 123.233Z" fill="#2E2E2E"/>
<path d="M281.716 142.058C275.742 147.075 267.639 149.512 260.188 147.328C256.48 146.245 252.858 143.863 251.227 140.09C249.287 135.633 250.712 130.669 252.497 126.446C253.785 123.378 255.364 120.418 256.137 117.133C256.806 114.336 255.433 107.441 256.84 104.933C257.596 103.615 263.416 102.514 261.51 97.8215C259.347 92.4792 251.347 97.1176 251.347 97.1176C242.059 93.2553 237.39 86.3609 230.231 80.2064C234.66 79.665 240.617 80.1884 246.677 81.1269C248.875 82.0834 250.986 83.1663 252.961 84.4297C273.046 97.2259 277.029 120.49 279.776 131.608C280.445 134.297 281.029 137.365 281.544 140.686C281.579 141.137 281.647 141.588 281.716 142.058Z" fill="#2E2E2E"/>
<path d="M241.563 79.2317C239.125 77.7698 235.468 77.3367 232.756 76.5245C232.67 76.5065 232.602 76.5064 232.533 76.5064C232.447 76.4343 232.344 76.3801 232.207 76.3621C229.237 76.0011 224.035 76.2538 224.138 80.7117C224.224 84.556 229.426 85.5667 232.172 85.9096C235.194 86.2886 241.563 85.675 242.713 81.7585C243.039 80.5673 242.541 79.8273 241.563 79.2317Z" fill="#2E2E2E"/>
<path d="M120.446 135.723L118.643 136.373L116.635 137.618L114.437 138.574L117.51 141.155L123.845 138.574L120.446 135.723Z" fill="white"/>
<path d="M150.764 130.489L145.596 132.727L142.352 133.936L135.742 136.86L140.326 138.917L153.287 132.221L150.764 130.489Z" fill="white"/>
<path d="M103.88 149.205C85.2366 149.205 67.4512 144.241 52.447 134.874L28.0866 149.133C27.8634 149.259 27.6059 149.241 27.3999 149.096C27.1939 148.952 27.0909 148.699 27.1252 148.447L31.1939 115.87C21.666 103.633 16.636 89.3568 16.636 74.6114C16.636 60.1728 20.739 46.4742 28.4814 34.9775C30.4557 31.9815 32.7389 29.1118 35.2625 26.4407L38.387 23.2461C54.3869 8.03146 77.0306 0 103.88 0C111.76 0 119.588 0.902412 127.142 2.68919C133.597 4.22329 139.794 6.37103 145.563 9.07826C163.245 17.3083 177.15 30.5918 184.704 46.5103C187.296 51.9609 189.133 57.6822 190.146 63.4937C190.781 67.1575 191.107 70.8935 191.107 74.6294C191.107 106.629 171.554 132.42 138.816 143.628C128.533 147.147 117.425 149.024 105.786 149.223C105.168 149.205 104.515 149.205 103.88 149.205ZM52.4642 133.395C52.5843 133.395 52.7045 133.431 52.8075 133.485C67.6916 142.87 85.3567 147.833 103.897 147.833C104.533 147.779 105.151 147.833 105.786 147.815C117.288 147.617 128.275 145.776 138.438 142.292C170.627 131.283 189.837 105.979 189.837 74.5934C189.837 70.9476 189.528 67.2838 188.893 63.7103C187.897 58.0251 186.112 52.4301 183.571 47.1059C176.137 31.4761 162.472 18.4092 145.065 10.3236C139.382 7.65245 133.271 5.52276 126.902 4.02476C119.434 2.27408 111.691 1.37167 103.915 1.37167C77.3911 1.37167 55.0393 9.29484 39.2968 24.2749L39.1595 24.4012L36.1724 27.4153C33.7175 30.0142 31.4857 32.8297 29.5458 35.7716C21.9579 47.0337 17.9407 60.4616 17.9407 74.6114C17.9407 89.1402 22.9364 103.182 32.3784 115.22C32.4986 115.364 32.5501 115.563 32.5157 115.743L28.5844 147.256L52.138 133.467C52.241 133.413 52.344 133.395 52.4642 133.395Z" fill="#2E2E2E"/>
<path d="M120.515 122.566C120.172 122.566 119.897 122.295 119.863 121.934L112 20.593C111.983 20.3945 112.052 20.214 112.172 20.0696C112.292 19.9253 112.464 19.8531 112.652 19.8531H162.935C163.296 19.8531 163.588 20.1599 163.588 20.5389C163.588 20.9179 163.296 21.2247 162.935 21.2247H113.356L121.116 121.14L175.33 117.458C175.674 117.44 176 117.729 176.017 118.108C176.034 118.487 175.759 118.812 175.399 118.83L120.549 122.548C120.549 122.566 120.532 122.566 120.515 122.566Z" fill="#2E2E2E"/>
<path d="M175.965 117.873C175.862 117.602 175.588 117.44 175.33 117.458L161.545 118.396C161.339 118.415 161.167 118.523 161.047 118.703C160.927 118.884 160.909 119.1 160.961 119.299L163.862 128.81C163.931 129.027 164.103 129.207 164.309 129.262C164.36 129.28 164.429 129.28 164.48 129.28C164.635 129.28 164.806 129.225 164.927 129.099L175.794 118.649C176.017 118.451 176.085 118.144 175.965 117.873Z" fill="#2E2E2E"/>
<path d="M125.682 122.205C125.356 122.205 125.064 121.934 125.03 121.591L115.227 20.611C115.193 20.232 115.451 19.8891 115.811 19.853C116.189 19.835 116.498 20.0876 116.532 20.4667L126.335 121.447C126.369 121.826 126.111 122.168 125.751 122.205C125.734 122.205 125.699 122.205 125.682 122.205Z" fill="#2E2E2E"/>
<path d="M60.7209 37.7208C61.459 30.4293 61.5964 24.7261 64.8925 21.9466C71.1414 16.6765 90.077 19.6906 92.7894 22.9754C91.9482 16.9834 88.0856 11.4606 75.6908 11.0274C61.0299 10.504 55.9312 16.7668 55.605 27.0362C55.2788 37.3057 55.2788 37.3057 55.2788 37.3057L55.399 37.5222C57.5449 37.3418 58.5578 37.6486 60.7209 37.7208Z" fill="#2E2E2E"/>
<path d="M79.5362 93.0206C79.3817 93.0206 79.2272 92.9664 79.0899 92.8401L59.6565 74.3587C57.6822 72.4817 56.5492 69.8105 56.532 67.0311L56.3947 47.3224C53.6994 47.1961 52.1887 46.1854 51.399 45.3371C50.5063 44.3625 50.0256 43.0992 50.0771 41.7816C50.1115 40.8973 50.369 39.6159 51.5192 38.5691C53.1329 37.053 55.9998 36.4755 59.9998 36.8364C60.3603 36.8725 60.6178 37.1974 60.6007 37.5764C60.5663 37.9554 60.2573 38.2261 59.8968 38.2081C56.3088 37.8832 53.7166 38.3705 52.3947 39.5978C51.7595 40.1934 51.4333 40.9334 51.399 41.8358C51.3818 42.3772 51.4848 43.4421 52.3604 44.3806C53.3389 45.4274 54.9526 45.9688 57.0642 45.9688C57.4247 45.9688 57.7166 46.2756 57.7166 46.6547L57.8539 67.0311C57.8711 69.4315 58.8496 71.7417 60.5492 73.348L78.9525 90.8367L79.4676 74.7558C79.4847 74.3767 79.8281 74.0519 80.1371 74.088C80.4976 74.106 80.7723 74.4128 80.7723 74.7919L80.2058 92.3528C80.2058 92.6235 80.0341 92.8581 79.8109 92.9664C79.7079 93.0025 79.6221 93.0206 79.5362 93.0206Z" fill="#2E2E2E"/>
<path d="M85.8531 36.9989L85.8188 38.2803C85.7673 39.9408 88.205 40.031 88.2566 38.3706L88.2909 37.0892C88.3596 35.4468 85.9046 35.3565 85.8531 36.9989Z" fill="#2E2E2E"/>
<path d="M71.1413 36.4936L71.1069 37.775C71.0554 39.4354 73.4932 39.5257 73.5447 37.8652L73.579 36.5838C73.6477 34.9234 71.1928 34.8331 71.1413 36.4936Z" fill="#2E2E2E"/>
<path d="M71.8113 30.303C70.8156 30.4835 69.8543 30.7362 68.9272 31.1152C68.1891 31.422 68.7899 32.541 69.5109 32.2522C70.335 31.9093 71.2276 31.7288 72.1032 31.5484C72.8585 31.404 72.5839 30.1406 71.8113 30.303Z" fill="#2E2E2E"/>
<path d="M88.8063 30.6821C88.2054 30.2128 87.5187 29.8699 86.935 29.3646C86.3342 28.8412 85.4415 29.7075 86.0424 30.2489C86.6947 30.8265 87.4501 31.2416 88.1539 31.783C88.7891 32.2523 89.4415 31.1513 88.8063 30.6821Z" fill="#2E2E2E"/>
<path d="M73.6658 52.4662C72.756 52.2857 71.5542 51.7984 71.5199 50.6614C71.5027 49.8311 70.2839 49.795 70.301 50.6253C70.3525 52.3759 71.7774 53.4047 73.3053 53.7115C74.0607 53.8379 74.4384 52.6286 73.6658 52.4662Z" fill="#2E2E2E"/>
<path d="M80.103 75.4778C80.0515 75.4778 80 75.4778 79.9485 75.4597C79.6395 75.3695 72.206 73.4022 70.7811 68.9804C70.7124 68.7638 70.7468 68.5111 70.8841 68.3307C71.0215 68.1502 71.2446 68.0599 71.4678 68.078C71.5536 68.078 80.6867 68.9984 85.8369 66.1107C91.8454 62.7357 91.9999 51.3653 92.2403 32.541C92.2746 30.5377 92.2918 28.4621 92.3261 26.3144C92.4806 16.9112 87.0386 12.1465 75.6566 11.7494C62.5751 11.2982 56.6009 16.0269 56.2404 27.0904L55.9142 37.3599C55.897 37.7389 55.588 38.0818 55.2447 38.0277C54.8842 38.0096 54.6095 37.7028 54.6095 37.3238L54.9357 27.0543C55.3134 15.1966 61.9056 9.87242 75.691 10.3778C87.7596 10.8109 93.7853 16.1713 93.6137 26.3324C93.5793 28.4982 93.545 30.5737 93.5278 32.5591C93.2703 51.9068 93.1158 63.584 86.4206 67.338C84.7897 68.2404 82.8497 68.818 80.9098 69.1428V69.1609L80.721 74.828C80.721 75.0266 80.618 75.2251 80.4635 75.3514C80.3777 75.4236 80.2403 75.4778 80.103 75.4778ZM72.4978 69.5219C74.0257 71.9042 77.8369 73.3481 79.485 73.8895L79.6395 69.3053C76.721 69.6662 73.9914 69.594 72.4978 69.5219Z" fill="#2E2E2E"/>
<path d="M71.3989 68.7458C72.7208 72.8788 80.1028 74.7919 80.1028 74.7919L80.2916 69.1067L71.3989 68.7458Z" fill="#2E2E2E"/>
<path d="M117.887 138.43C116.909 138.43 116.085 137.455 115.055 136.246C113.149 133.99 110.523 130.904 105.596 132.546C105.252 132.673 104.892 132.456 104.772 132.095C104.669 131.734 104.857 131.355 105.201 131.229C110.935 129.316 114.008 132.925 116.033 135.326C116.754 136.174 117.596 137.149 117.973 137.04C118.505 136.878 118.574 136.571 118.574 136.282C118.608 134.261 114.196 128.973 105.664 126.067C105.184 125.904 104.703 125.724 104.188 125.562C95.8103 122.62 84.3254 118.577 58.2654 136.751C57.9564 136.968 57.5615 136.878 57.3555 136.553C57.1495 136.228 57.2353 135.813 57.5444 135.596C84.1537 117.061 95.9648 121.212 104.6 124.244C105.098 124.425 105.578 124.587 106.059 124.749C114.385 127.583 119.913 132.997 119.862 136.282C119.845 137.293 119.278 138.033 118.317 138.34C118.179 138.412 118.042 138.43 117.887 138.43Z" fill="#2E2E2E"/>
<path d="M111.519 146.624C111.33 146.624 111.141 146.534 111.004 146.371C110.781 146.082 110.815 145.649 111.107 145.397C112.137 144.53 112.6 143.357 112.497 141.913C112.257 138.773 109.27 134.983 105.081 132.492C104.772 132.312 104.652 131.878 104.841 131.554C105.012 131.229 105.424 131.102 105.733 131.301C110.351 134.062 113.527 138.177 113.802 141.823C113.939 143.718 113.304 145.324 111.931 146.479C111.811 146.588 111.673 146.624 111.519 146.624Z" fill="#2E2E2E"/>
<path d="M107.846 148.014C107.502 148.014 107.21 147.725 107.193 147.364C107.176 146.985 107.451 146.66 107.811 146.642C108.824 146.57 110.095 146.317 110.369 145.505C111.21 143.032 104.721 136.589 101.94 133.846C101.683 133.593 101.665 133.142 101.906 132.871C102.146 132.6 102.575 132.582 102.833 132.835C107.846 137.798 112.635 142.906 111.588 145.956C111.176 147.165 109.923 147.851 107.88 147.996C107.863 148.014 107.863 148.014 107.846 148.014Z" fill="#2E2E2E"/>
<path d="M106.713 148.754C105.322 148.754 103.331 147.31 100.824 144.512C95.3135 138.304 83.5539 146.443 83.4337 146.534C83.1247 146.75 82.7299 146.66 82.5238 146.335C82.3178 146.028 82.4037 145.595 82.7127 145.379C83.2277 145.018 95.5195 136.517 101.786 143.574C105.082 147.274 106.644 147.526 106.936 147.328C107.09 147.22 107.176 146.552 106.695 145.451C105.339 142.401 100.91 138.574 98.7813 136.733C98.5066 136.499 98.4551 136.066 98.6954 135.759C98.9186 135.47 99.3306 135.416 99.6225 135.669C101.837 137.582 106.421 141.552 107.897 144.873C108.618 146.498 108.532 147.869 107.691 148.465C107.382 148.645 107.073 148.754 106.713 148.754Z" fill="#2E2E2E"/>
<path d="M52.464 134.766C52.2237 134.766 51.9833 134.622 51.8632 134.369C47.4683 124.497 49.9919 113.433 50.0949 112.964C50.1808 112.603 50.5413 112.368 50.8846 112.459C51.228 112.549 51.4511 112.928 51.3653 113.289C51.3481 113.397 48.8589 124.37 53.0477 133.792C53.2022 134.135 53.0649 134.55 52.7387 134.712C52.6529 134.748 52.5498 134.766 52.464 134.766Z" fill="#2E2E2E"/>
<path d="M66.5752 95.2044C66.558 95.2044 66.5408 95.2044 66.5237 95.2044C66.3348 95.1864 66.146 95.0781 66.043 94.9157L50.1289 71.4349C49.94 71.1642 49.9744 70.8032 50.1804 70.5686L56.704 63.3493C56.9615 63.0786 57.3735 63.0605 57.631 63.3312C57.8885 63.602 57.9057 64.0351 57.6482 64.3058L51.5023 71.092L66.661 93.4357L72.5322 87.0105C72.7897 86.7398 73.2018 86.7218 73.4593 86.9925C73.7168 87.2632 73.734 87.6964 73.4764 87.9671L67.073 94.9879C66.9185 95.1322 66.7469 95.2044 66.5752 95.2044Z" fill="#2E2E2E"/>
<path d="M112.652 122.566C112.36 122.566 112.103 122.367 112.017 122.042C102.146 81.542 92.1027 74.4671 83.1414 69.3955L86.1113 87.8228C86.1456 88.0574 86.0598 88.3101 85.8881 88.4725C85.7165 88.6349 85.459 88.671 85.2529 88.5988L79.5362 86.433C79.1929 86.3067 79.0212 85.9096 79.1414 85.5487C79.2616 85.1877 79.6392 85.0072 79.9826 85.1336L84.6349 86.8842L81.6306 68.2404C81.5963 67.9877 81.6993 67.717 81.8882 67.5726C82.0942 67.4102 82.3517 67.3921 82.5748 67.5185C91.6049 72.572 102.832 78.8528 113.287 121.699C113.373 122.06 113.167 122.439 112.824 122.53C112.755 122.548 112.703 122.566 112.652 122.566Z" fill="#2E2E2E"/>
<path d="M24.3604 104.572C24.2746 104.572 24.1887 104.553 24.1029 104.517C23.7767 104.373 23.6051 103.976 23.7424 103.615C31.2445 84.5741 45.9569 73.4203 50.3002 70.4604C50.6092 70.2618 51.0041 70.3521 51.2101 70.6589C51.3989 70.9838 51.3303 71.3989 51.0213 71.6155C46.7638 74.5212 32.3089 85.4765 24.9784 104.156C24.8583 104.409 24.6179 104.572 24.3604 104.572Z" fill="#2E2E2E"/>
<path d="M83.5184 124.064C83.1923 124.064 82.9176 123.811 82.8661 123.468L78.8833 92.4431C78.8318 92.0641 79.0893 91.7212 79.4498 91.667C79.8103 91.6129 80.1365 91.8836 80.188 92.2626L84.1708 123.288C84.2223 123.667 83.9648 124.009 83.6043 124.064C83.5871 124.046 83.5528 124.064 83.5184 124.064Z" fill="#2E2E2E"/>
<path d="M105.888 126.121C105.648 126.121 105.408 125.977 105.305 125.742C105.15 125.399 105.27 124.984 105.597 124.822C115.519 119.66 120.154 119.335 120.343 119.335C120.704 119.317 121.013 119.606 121.03 119.985C121.047 120.364 120.772 120.688 120.412 120.707C120.36 120.707 115.794 121.031 106.18 126.049C106.077 126.085 105.974 126.121 105.888 126.121Z" fill="#2E2E2E"/>
<path d="M144.017 136.643C143.159 136.643 142.215 135.921 141.236 134.495C137.185 128.63 131.777 125.489 128.927 127.33C128.464 127.619 128.447 127.872 128.429 127.962C128.344 128.756 129.648 130.128 130.678 131.211C132.017 132.6 133.168 133.81 132.893 134.983C132.807 135.38 132.498 136.102 131.434 136.318C129.047 136.824 123.468 134.279 119.829 129.009C119.623 128.702 119.674 128.269 119.966 128.052C120.258 127.836 120.67 127.89 120.876 128.197C124.12 132.889 129.202 135.38 131.159 134.965C131.554 134.874 131.588 134.712 131.605 134.658C131.708 134.225 130.472 132.943 129.734 132.167C128.361 130.723 126.936 129.243 127.107 127.781C127.176 127.132 127.554 126.572 128.223 126.139C131.708 123.883 137.751 127.114 142.266 133.665C143.176 134.983 143.794 135.29 144.034 135.253C144.155 135.235 144.24 135.055 144.275 134.947C144.618 134.008 144.292 131.554 142.455 129.261C140.378 126.68 137.408 124.154 137.391 124.136C137.116 123.901 137.065 123.468 137.288 123.161C137.511 122.872 137.923 122.818 138.215 123.053C138.335 123.161 141.305 125.688 143.468 128.377C145.562 130.976 146.077 133.9 145.511 135.434C145.253 136.12 144.807 136.535 144.206 136.607C144.155 136.625 144.086 136.643 144.017 136.643Z" fill="#2E2E2E"/>
<path d="M145.099 132.582C144.944 132.582 144.79 132.528 144.652 132.402C144.378 132.149 144.361 131.716 144.618 131.427C144.67 131.373 145.751 130.074 145.511 128.179C145.27 126.338 143.897 124.569 141.408 122.89C141.099 122.692 141.013 122.259 141.202 121.934C141.391 121.609 141.803 121.519 142.112 121.717C144.944 123.63 146.524 125.742 146.816 127.998C147.125 130.543 145.648 132.257 145.597 132.33C145.459 132.51 145.288 132.582 145.099 132.582Z" fill="#2E2E2E"/>
<path d="M146.197 128.522C146.06 128.522 145.923 128.467 145.803 128.377C145.511 128.143 145.459 127.709 145.682 127.421C145.803 127.258 148.567 123.414 145.27 120.707C144.979 120.472 144.944 120.039 145.167 119.75C145.391 119.443 145.803 119.407 146.077 119.642C149.528 122.493 148 126.536 146.712 128.287C146.592 128.431 146.403 128.522 146.197 128.522Z" fill="#2E2E2E"/>
<path d="M116.738 132.618C116.481 132.618 116.223 132.456 116.12 132.167C116 131.806 116.154 131.409 116.498 131.283L121.236 129.388C121.579 129.243 121.957 129.424 122.077 129.785C122.197 130.146 122.043 130.543 121.699 130.669L116.961 132.564C116.893 132.6 116.824 132.618 116.738 132.618Z" fill="#2E2E2E"/>
<path d="M109.288 135.488C109.013 135.488 108.773 135.308 108.67 135.037C108.549 134.676 108.721 134.279 109.064 134.153L112.979 132.691C113.322 132.564 113.7 132.745 113.82 133.106C113.94 133.467 113.768 133.864 113.425 133.99L109.511 135.452C109.442 135.488 109.373 135.488 109.288 135.488Z" fill="#2E2E2E"/>
</svg>
