<svg xmlns="http://www.w3.org/2000/svg" width="236" height="226" fill="none">
    <path fill="#D7C6F9" d="M4.88 104.496c-.874-1.365-2.162-2.375-3.199-3.592-.592-.697-1.584.312-1.007 1.01.963 1.128 2.177 2.048 2.977 3.294.503.757 1.717.06 1.229-.712"/>
    <path fill="#C3AAF6" d="m180.434 199.749 21.322-.326-.444-19.428c-8.899 3.933-15.563 11.28-20.878 19.754"/>
    <path fill="#D7C6F9" d="M173.771.813a18 18 0 0 1-1.955 2.27c-.651.639.356 1.648 1.007 1.01.8-.787 1.511-1.648 2.177-2.553.533-.757-.696-1.47-1.229-.727"/>
    <path fill="#C3AAF6" d="m169.074 88.081 7.848-3.577-1.362 7.48z"/>
    <path fill="#AF8EF3" d="M178.212 183.958H7.176L4.348 36.596l171.036-4.245 1.97 100.374.636 32.74.074 3.829z"/>
    <path fill="#2E2E2E" d="M13.75 202.97a.72.72 0 0 1-.71-.698L8.805 16.664a.707.707 0 0 1 .71-.713h188.006a.71.71 0 0 1 .711.698l.207 25.824a.71.71 0 0 1-.696.712.71.71 0 0 1-.711-.697l-.192-25.127H10.226l4.205 184.184 186.599-2.805-.918-39.404a.71.71 0 0 1 .696-.727c.37-.015.711.296.726.697l.933 40.117a.76.76 0 0 1-.193.504.8.8 0 0 1-.503.223z"/>
    <path fill="#F5F0FD" d="M74.591 68.446H32.154a2.52 2.52 0 0 1-2.517-2.523v-6.1a2.52 2.52 0 0 1 2.517-2.523l42.437.905a2.52 2.52 0 0 1 2.517 2.523v5.195c.015 1.38-1.125 2.523-2.517 2.523"/>
    <path fill="#2E2E2E" d="M35.206 39.905c0 1.395-.548 2.568-2.517 2.568-1.392 0-2.517-1.172-2.517-2.568a2.52 2.52 0 0 1 2.517-2.523 2.53 2.53 0 0 1 2.517 2.523"/>
    <path fill="#2E2E2E" d="M32.701 43.185c-1.776 0-3.213-1.469-3.213-3.28a3.223 3.223 0 0 1 3.213-3.22 3.224 3.224 0 0 1 3.214 3.22c0 2.123-1.14 3.28-3.214 3.28m0-5.09c-.992 0-1.806.816-1.806 1.81 0 1.01.83 1.856 1.806 1.856 1.289 0 1.807-.535 1.807-1.856 0-.994-.815-1.81-1.807-1.81m9.907 5.09c-1.777 0-3.213-1.469-3.213-3.28a3.223 3.223 0 0 1 3.213-3.22 3.223 3.223 0 0 1 3.213 3.22c.015 2.123-1.125 3.28-3.213 3.28m0-5.09c-.992 0-1.807.816-1.807 1.81 0 1.01.83 1.856 1.807 1.856 1.288 0 1.806-.535 1.806-1.856 0-.994-.8-1.81-1.806-1.81m-7.656 159.102c-4.19 0-7.58-3.473-7.58-7.748 0-4.2 3.405-7.599 7.58-7.599 4.19 0 7.581 3.414 7.581 7.599 0 5.076-2.62 7.748-7.58 7.748Zm0-13.922c-3.405 0-6.174 2.775-6.174 6.189 0 3.428 2.828 6.323 6.174 6.323 4.206 0 6.175-2.004 6.175-6.323 0-3.414-2.77-6.189-6.175-6.189m16.956-140.09c-1.776 0-3.213-1.469-3.213-3.28a3.223 3.223 0 0 1 3.213-3.22c1.762 0 3.214 1.454 3.214 3.22 0 2.123-1.14 3.28-3.214 3.28m0-5.09c-.992 0-1.806.816-1.806 1.81 0 1.01.83 1.856 1.806 1.856 1.289 0 1.807-.535 1.807-1.856 0-.994-.815-1.81-1.807-1.81M50.116 81.7H32.703a.71.71 0 0 1-.71-.713c0-.4.31-.712.71-.712H50.13a.712.712 0 1 1-.015 1.424Zm-6.294 9.439H32.687a.71.71 0 0 1-.71-.713c0-.4.31-.712.71-.712h11.135c.385 0 .711.311.711.712a.703.703 0 0 1-.71.713Z"/>
    <path fill="#2E2E2E" d="M34.953 191.69a.71.71 0 0 1-.71-.712v-10.686a.711.711 0 1 1 1.42 0v10.686a.71.71 0 0 1-.71.712m74.778 24.786h-9.18a.71.71 0 0 1-.711-.713v-14.811c0-.386.311-.713.711-.713s.71.312.71.713v14.099h7.73l-.918-14.189a.71.71 0 0 1 .666-.756c.4-.03.725.267.755.667l.963 14.931a.74.74 0 0 1-.726.772"/>
    <path fill="#2E2E2E" d="m109.228 207.793-.444-6.96-8.233.118v14.812h.029c2.843-2.701 5.701-5.387 8.648-7.97"/>
    <path fill="#2E2E2E" d="M133.598 225.5h-56.43a.73.73 0 0 1-.636-.401.74.74 0 0 1 .089-.757c4.205-5.106 19.604-10.27 33.153-9.291 13.43.965 23.809 8.846 24.254 9.172a.7.7 0 0 1 .237.787.685.685 0 0 1-.667.49m-54.712-1.41h52.432c-3.554-2.286-11.86-6.902-21.633-7.614-11.875-.876-25.616 3.25-30.799 7.614m113.928-112.663a.72.72 0 0 1-.71-.698l-.682-32.532a.713.713 0 0 1 .696-.728h.015a.72.72 0 0 1 .711.698l.681 32.533a.71.71 0 0 1-.696.727z"/>
    <path fill="#F5F0FD" d="m150.244 177.413-127.312.757-.237-53.074s37.403-32.325 73.843-28.392c0-.786-.281-20.852-.296-22.915-.015-.906-1.954-.727-2.636-.906 0 0-2.99-1.44-4.264-2.894-.37-1.053-.37-3.294-.385-4.393 2.843-2.27 3.317-2.256 6.693-3.725 1.051-.46 2.769-20.734 10.468-22.693.267-.06 28.504 0 30.222 6.234-.148.252.133 25.72.414 35.976-1.599 10.7-6.426 12.422-12.452 14.9.148 1.01-.4 2.553-.252 3.563 2.517-.104 17.961 9.261 24.965 16.37 2.783 2.82 5.893 5.625 8.114 8.949 2.428 2.078 4.812 3.933 7.537 5.432 4.916 2.731 9.832 2.39 13.326 1.529v33.32c-27.793 0-43.918-18.923-43.918-18.923l-1.762 7.821c25.676 11.384 17.932 23.064 17.932 23.064"/>
    <path fill="#2E2E2E" d="M95.633 95.962c-5.123-.386-27.689-1.157-49.959 12.898-10.987 6.931-24.135 15.643-24.402 17.691a.84.84 0 0 0 .193.638.7.7 0 0 0 .518.222c.177 0 .34-.059.488-.192a.68.68 0 0 0 .223-.446c.31-.504 2.887-3.547 23.75-16.711C71.202 94.433 96.3 97.446 96.551 97.476a.76.76 0 0 0 .504-.134 41 41 0 0 0-1.422-1.38m36.81 58.402c-.045 0-.074 0-.119-.015a.696.696 0 0 1-.577-.816c.015-.089 1.451-8.668 5.582-17.662a.686.686 0 0 1 .933-.341.7.7 0 0 1 .34.935c-4.042 8.816-5.523 17.557-5.537 17.647-.045.356-.282.252-.622.252m44.483 35.872h-7.848a.712.712 0 0 1 0-1.425h7.848a.711.711 0 0 1 0 1.425"/>
    <path fill="#2E2E2E" d="M99.055 62.02c-4.635-.238-7.907.519-9.714 2.226a4.82 4.82 0 0 0-1.525 3.562c0 1.44.593 2.805 1.659 3.829.947.905 2.71 1.959 5.849 1.989l.562 22.351c-.37-.03-.873-.06-1.48-.104.31.505.636.995.977 1.484.71.06 1.11.104 1.14.104a.7.7 0 0 0 .563-.178.75.75 0 0 0 .237-.55l-.607-23.85a.72.72 0 0 0-.223-.504.73.73 0 0 0-.518-.193c-2.443.104-4.353-.445-5.523-1.573a3.84 3.84 0 0 1-1.214-2.805c0-.995.37-1.856 1.08-2.538 1.496-1.425 4.487-2.063 8.663-1.84.355.014.726-.283.74-.669a.69.69 0 0 0-.666-.742Zm25.187 10.255a.71.71 0 0 1-.711-.712c0-.401.311-.713.711-.713 1.318 0 2.414-.356 2.917-.95.281-.341.385-.742.296-1.246-.192-1.113-2.665-1.737-3.85-1.87a.72.72 0 0 1-.636-.698V59.6a.712.712 0 1 1 1.421 0v5.878c1.318.237 4.117.964 4.457 2.953.148.92-.059 1.737-.607 2.39-.8.935-2.206 1.454-3.998 1.454m-8.901-8.638a.7.7 0 0 1-.43-.148c-1.243-.95-4.279-1.752-5.33-1.974a.72.72 0 0 1-.548-.846.72.72 0 0 1 .844-.55c.163.03 4.146.906 5.893 2.242.311.237.37.683.134.994a.66.66 0 0 1-.563.282m13.597-2.463v1.41c0 1.825 2.828 1.825 2.828 0v-1.41c0-1.826-2.828-1.826-2.828 0m-16.481-6.842c-1.14.252-2.236.549-3.302 1.009-.829.356-.119 1.588.711 1.217.947-.416 1.954-.653 2.961-.876.888-.178.518-1.543-.37-1.35m19.663-.252c-.726-.49-1.525-.847-2.206-1.381-.711-.564-1.718.43-1.007 1.01.785.622 1.673 1.053 2.487 1.602.77.505 1.481-.712.726-1.232Zm-16.703 24.607c-1.051-.164-2.458-.653-2.532-1.915-.059-.905-1.466-.905-1.407 0 .119 1.93 1.807 2.998 3.569 3.28.874.134 1.258-1.232.37-1.365"/>
    <path fill="#2E2E2E" d="M113.401 115.805c-11.253 0-19.856-7.955-20.493-18.997a.7.7 0 0 1 .666-.742.71.71 0 0 1 .74.668c.608 10.537 8.559 17.825 19.369 17.661 5.508-.074 8.81-2.3 10.616-4.17 2.044-2.123 3.243-4.942 3.184-7.54a.71.71 0 0 1 .696-.727h.014a.72.72 0 0 1 .711.698c.059 3.012-1.244 6.129-3.583 8.548-1.984 2.063-5.612 4.527-11.609 4.601z"/>
    <path fill="#2E2E2E" d="M137.613 55.934a870 870 0 0 1-.119-6.871c-.177-11.176-7.329-16.846-21.263-16.846-15.917 0-23.32 6.086-23.32 19.131v11.34c0 .385.31.712.71.712a.715.715 0 0 0 .681-.52c2.058-.163 2.947.327 5.242.312.873-.609.903-14.619 4.62-17.81 6.574-5.655 26.238-3.77 31.42-.623.311 1.32.474 2.76.504 4.319.044 2.374.088 4.675.118 6.871.4 20.778.652 33.334-6.189 37.282-5.864 3.399-16.466 2.746-16.569 2.746a.67.67 0 0 0-.607.282.68.68 0 0 0-.089.668c1.806 4.809 10.424 6.679 10.794 6.768a.71.71 0 0 0 .592-.149.73.73 0 0 0 .267-.549v-6.323c2.251-.445 4.486-1.142 6.337-2.21 7.537-4.364 7.285-17.217 6.871-38.53m-58.075 95.135c-.726-1.766-4.413-4.378-7.996-4.378-2.843 0-4.68.712-5.849 1.573v-.015c-.06-.104-1.362-2.508-6.47-4.037-1.26-.371-2.562-.49-3.88-.43l4.56-4.215c.282-.267.312-.713.045-.995a.7.7 0 0 0-.992-.044l-6.012 5.565c-6.041 1.217-11.609 5.403-11.92 5.64a.711.711 0 0 0 .43 1.277.7.7 0 0 0 .43-.149c.103-.074 9.831-7.406 16.968-5.298 4.472 1.321 5.612 3.324 5.627 3.324a.7.7 0 0 0 .266.282c-.858.995-1.05 1.93-1.066 2.019a.694.694 0 0 0 .563.816.71.71 0 0 0 .83-.549c.029-.134.77-3.369 6.514-3.369 3.021 0 6.19 2.3 6.693 3.502.119.268.37.431.652.431a.6.6 0 0 0 .266-.06c.311-.118.489-.534.34-.89Z"/>
    <path fill="#2E2E2E" d="M73.882 178.17a.72.72 0 0 1-.667-.46c-4.042-10.82.948-20.779 2.577-23.584.903-1.543 2.932-4.185 4.856-4.23.548 0 1.26.164 1.837 1.039.547.846-.119 2.123-1.318 4.453-1.081 2.078-2.414 4.675-3.11 7.436-1.45 5.773-.518 12.184.785 14.247a.706.706 0 0 1-.222.98.7.7 0 0 1-.977-.223c-1.63-2.582-2.429-9.513-.963-15.346.74-2.924 2.177-5.714 3.228-7.747.622-1.202 1.407-2.716 1.348-3.102-.193-.282-.415-.327-.578-.312-1.007.03-2.68 1.855-3.657 3.533-1.555 2.656-6.308 12.14-2.473 22.366a.7.7 0 0 1-.415.905.8.8 0 0 1-.251.045"/>
    <path fill="#2E2E2E" d="M150.568 170.69a.71.71 0 0 1-.71-.713c0-1.87 0-5.372-13.119-12.763-7.419-4.171-22.448-4.141-36.959-4.126-5.997.014-12.2.014-17.916-.253a.7.7 0 0 1-.667-.742.71.71 0 0 1 .74-.668c5.687.267 11.876.267 17.858.253 15.385-.015 29.91-.045 37.654 4.318 12.779 7.199 13.845 10.998 13.845 13.996-.03.386-.341.698-.726.698"/>
    <path fill="#2E2E2E" d="M150.775 176.478a.73.73 0 0 1-.385-.119.7.7 0 0 1-.193-.979c.519-.772.622-1.722.311-2.835-.518-1.841-3.035-6.768-15.414-12.601a.72.72 0 0 1-.341-.95.715.715 0 0 1 .948-.341c9.225 4.349 14.97 9.142 16.169 13.491.415 1.499.237 2.879-.503 3.992a.72.72 0 0 1-.592.342"/>
    <path fill="#2E2E2E" d="M150.287 178.17a.704.704 0 0 1-.667-.95c.755-2.033-1.584-6.07-17.057-13.773a.716.716 0 0 1-.326-.95.71.71 0 0 1 .947-.326c13.549 6.752 19.205 11.68 17.754 15.524a.666.666 0 0 1-.651.475"/>
    <path fill="#2E2E2E" d="M145.591 178.17c-.059 0-.133-.015-.208-.03a.697.697 0 0 1-.473-.876c.77-2.641-5.005-4.541-9.655-6.085-1.717-.564-3.331-1.098-4.664-1.662a.704.704 0 0 1-.37-.935.714.714 0 0 1 .933-.371c1.273.534 2.858 1.069 4.546 1.618 5.493 1.81 11.727 3.873 10.572 7.836a.72.72 0 0 1-.681.505"/>
    <path fill="#F5F0FD" d="m220.887 37.086-79.396 19.501s-2.147 4.928-1.081 7.14c1.052 2.21 1.288 4.006 1.288 4.006l84.12-4.452s8.528-3.666 8.262-14.218c-.267-10.553-4.339-12.927-5.686-13.61-1.362-.668-4.487-1.5-7.507 1.633"/>
    <path fill="#2E2E2E" d="M228.927 38.214c-1.14-.639-2.428-.891-3.805-.891-4.413 0-7.981 5.254-7.981 11.755 0 2.33.473 4.511 1.273 6.337 3.287-5.862 6.604-11.725 10.513-17.201m-8.38 20.496c1.288 1.335 2.872 2.122 4.56 2.122 4.413 0 7.981-5.254 7.981-11.755 0-3.843-.636-6.515-1.702-8.34-4.028 5.699-7.404 11.858-10.839 17.973"/>
    <path fill="#2E2E2E" d="M225.122 64.038c-5.73 0-10.38-6.709-10.38-14.96s4.664-14.96 10.38-14.96c6.885 0 10.38 5.03 10.38 14.96 0 8.251-4.665 14.96-10.38 14.96m0-28.496c-4.946 0-8.973 6.07-8.973 13.535 0 7.466 4.027 13.536 8.973 13.536s8.973-6.07 8.973-13.535c0-9.113-2.947-13.536-8.973-13.536"/>
    <path fill="#2E2E2E" d="M141.67 67.748a.7.7 0 0 1-.592-.326c-2.429-3.755-2.414-7.317.029-10.567a.62.62 0 0 1 .385-.253l79.041-20.867a.696.696 0 0 1 .858.505.693.693 0 0 1-.503.86l-78.789 20.808c-1.865 2.612-1.88 5.373-.044 8.415l40.571-1.795a.72.72 0 0 1 .741.682.71.71 0 0 1-.681.742L141.7 67.733c0 .015-.015.015-.03.015"/>
    <path fill="#2E2E2E" d="m141.476 65.24-1.703-3.043 1.57-3.042a.68.68 0 0 0-.075-.757.69.69 0 0 0-.71-.252l-6.589 1.514a.7.7 0 0 0-.504.445c-.059.148-1.273 3.577.059 5.832a.69.69 0 0 0 .607.342h6.723a.68.68 0 0 0 .607-.356.67.67 0 0 0 .015-.683m56.829-.015a.713.713 0 0 1-.03-1.425l26.801-1.187c.356-.015.726.282.741.683a.713.713 0 0 1-.682.742l-26.8 1.187z"/>
    <path fill="#F5F0FD" d="M176.835 131.938c4.975-2.167 8.766-2.76 10.113-7.243 1.363-4.482 3.984-10.7 6.56-13.995 0 0-.37-4.319 2.191-4.779 0 0 2.784-5.892.608-15.658-2.162-9.766-4.768-12.363-9.314-17.142-4.546-4.78-5.42-9.543-4.117-12.586 1.304-3.042 5.568-10.79 7.759-10.612s4.146 2.36 2.636 4.75-3.879 3.384-2.162 5.491c1.718 2.108 4.901 2.33 7.27 4.705 5.657.208 11.091-.208 11.091-.208s11.283 16.92 13.223 29.505c1.954 12.586 2.043 17.365 2.043 17.365s2.532 1.647 2.073 3.473-1.732 2.167-1.732 2.167-1.733 18.225-6.279 23.865-14.155 19.22-24.283 21.758-17.932 2.33-18.79 2.33 1.11-33.186 1.11-33.186"/>
    <path fill="#2E2E2E" d="M172.601 133.407c-5.271 0-11.223-3.012-20.226-12.422-12.083-12.63-19.101-17.602-28.889-20.452a.7.7 0 0 1-.474-.875.69.69 0 0 1 .874-.475c10.069 2.938 17.236 7.999 29.525 20.822 12.735 13.313 18.791 12.824 23.899 11.176 7.596-2.449 9.625-6.441 9.654-6.486a.7.7 0 0 1 .948-.326.69.69 0 0 1 .326.935c-.089.178-2.251 4.556-10.484 7.213-1.703.549-3.391.89-5.153.89m52.522-20.54q-.021 0 0 0a.725.725 0 0 1-.71-.728c.325-15.94-4.398-30.662-15.341-47.745a.715.715 0 0 1 .208-.98.71.71 0 0 1 .977.208c11.091 17.335 15.903 32.31 15.562 48.532a.7.7 0 0 1-.696.713"/>
    <path fill="#2E2E2E" d="M177.221 166.667c-15.207 0-29.822-6.56-43.563-19.561a.702.702 0 1 1 .963-1.024c15.725 14.871 32.575 21.149 50.077 18.641 22.596-4.245 39.683-24.815 39.713-47.849 0-.386.325-.698.71-.713.385 0 .711.312.711.713-.044 23.702-17.62 44.881-40.897 49.244a54.4 54.4 0 0 1-7.714.549"/>
    <path fill="#2E2E2E" d="M188.666 133.422a.7.7 0 0 1-.696-.608l-.163-.995c-.844-5.179-2.413-14.826 5.671-22.885a.687.687 0 0 1 .992 0 .69.69 0 0 1 0 .994c-7.566 7.54-6.071 16.727-5.271 21.654l.163.994a.705.705 0 0 1-.592.802c-.03.044-.06.044-.104.044m-43.725 22.738c-.103-.089-.207-.178-.34-.297-5.745-5.017-7.537-15.97-7.537-15.97s-.281-.208-1.881 3.265c-1.599 3.473 0 4.72 0 4.72s7.063 6.055 9.714 8.311zm51.677-49.987c-.045 0-.104 0-.148-.015-.385-.074-.622-.46-.548-.846 1.14-5.417-.43-22.603-4.309-26.655l-.163-.163c-5.019-5.24-11.283-11.77-9.595-17.528 1.348-4.601 5.627-9.974 8.796-11.043 1.347-.46 2.25-.103 2.768.282 1.807 1.336 1.096 4.32-2.132 8.905a1.17 1.17 0 0 0-.163 1.054c.119.356.385.638.756.757 4.175 1.425 11.682 4.646 15.073 10.27a.706.706 0 0 1-.237.98.705.705 0 0 1-.977-.238c-3.169-5.239-10.335-8.296-14.333-9.661a2.596 2.596 0 0 1-1.289-3.963c2.503-3.547 3.436-6.204 2.444-6.931-.371-.267-.859-.297-1.481-.09-2.754.936-6.663 5.938-7.892 10.108-1.451 4.957 4.738 11.428 9.254 16.148l.163.163c4.531 4.734 5.79 22.633 4.664 27.932-.029.311-.325.534-.651.534"/>
    <path fill="#2E2E2E" d="M214.609 119.842c-4.161 0-8.662-.727-12.483-2.211-5.286-2.063-8.351-5.21-8.854-9.113-.237-1.781.681-3.547 2.028-3.948.4-.119 1.807-.341 2.784 1.737 1.392 2.953 3.924 5.046 7.522 6.218 7.655 2.494 17.176.104 19.16-.979a.68.68 0 0 1 .726.029c.192.134 1.925 1.292 2.028 2.939.045.594-.133 1.469-1.155 2.33-2.339 1.974-6.826 2.998-11.756 2.998m-18.776-13.936c-.044 0-.089 0-.133.015-.533.148-1.185 1.172-1.022 2.404.548 4.23 4.635 6.679 7.967 7.97 7.788 3.042 18.879 2.775 22.832-.549.459-.386.666-.772.652-1.158-.045-.623-.637-1.247-1.081-1.603-3.139 1.425-12.601 3.236-19.857.891-3.998-1.291-6.811-3.636-8.366-6.961-.163-.326-.533-1.009-.992-1.009"/>
    <path fill="#2E2E2E" d="M193.982 178.17H22.93a.72.72 0 0 1-.71-.698L19.39 30.125a.71.71 0 0 1 .696-.727l171.037-4.245a.84.84 0 0 1 .503.193.8.8 0 0 1 .222.504l.341 18.27a.72.72 0 0 1-.696.728c-.37.014-.711-.312-.726-.698l-.325-17.557-169.616 4.2 2.799 145.952h169.63l-.133-13.936a.71.71 0 0 1 .696-.713c.385 0 .71.312.71.698l.134 14.648a.7.7 0 0 1-.208.505.56.56 0 0 1-.473.223Z"/>
</svg>
