<svg xmlns="http://www.w3.org/2000/svg" width="486" height="300" fill="none">
    <path fill="#fff" d="M0 0h486v300H0z"/>
    <path fill="#2E2E2E" d="m370.658 129.756-7.386-4.898a.92.92 0 0 0-.928-.04.88.88 0 0 0-.474.79v10.941a.87.87 0 0 0 .513.81.9.9 0 0 0 .395.079c.198 0 .415-.079.573-.197l7.386-6.044a.96.96 0 0 0 .336-.75.92.92 0 0 0-.415-.691m-231.894 1.659a.91.91 0 0 1-.83-.534.875.875 0 0 1 .158-.987l38.551-42.046a.906.906 0 0 1 1.283-.06.907.907 0 0 1 .06 1.285l-37.109 40.465 37.267-1.165c.473.02.908.375.928.869a.9.9 0 0 1-.869.928l-39.4 1.225c-.019.02-.019.02-.039.02M290.457 47.5a1 1 0 0 1-.593-.217L248.49 12.15l-30.947 33.77a.907.907 0 0 1-1.284.06.907.907 0 0 1-.059-1.284l31.54-34.403c.335-.355.888-.395 1.244-.079l42.046 35.707a.885.885 0 0 1 .098 1.264.87.87 0 0 1-.671.316Z"/>
    <path fill="#CCC" d="M250.524 252.812h-30.71a.905.905 0 0 1-.908-.908c0-.494.395-.909.908-.909h30.71c.494 0 .909.395.909.909a.906.906 0 0 1-.909.908m8.117 13.845h-38.827a.906.906 0 0 1-.908-.909c0-.494.395-.908.908-.908h38.827c.494 0 .908.395.908.908a.894.894 0 0 1-.908.909"/>
    <path fill="#D5D5D5" d="m183.713 172.295 1.896-109.864-10.033-1.126 2.923 105.54zm164.056-19.117 3.713-90.392-154.261-1.48-2.37 121.358 47.773 44.435 19.098-12.402 15.207 10.131z"/>
    <path fill="#D5D5D5" d="M242.624 227.988a.92.92 0 0 1-.612-.237l-47.773-44.416a.9.9 0 0 1-.296-.671l2.37-121.359c0-.493.414-.889.908-.889l154.261 1.482a.91.91 0 0 1 .908.928l-3.713 90.372a.86.86 0 0 1-.257.592l-70.84 71.69a.9.9 0 0 1-1.145.118l-14.713-9.795-18.624 12.066a1 1 0 0 1-.474.119m-46.864-45.7 46.943 43.666 18.525-12.008a.9.9 0 0 1 .988 0l14.574 9.717 70.07-70.88 3.674-89.108-152.424-1.461z"/>
    <path fill="#2E2E2E" d="M183.713 173.204q-.03 0 0 0a.91.91 0 0 1-.909-.929l2.193-127.54a.85.85 0 0 1 .276-.631 1.12 1.12 0 0 1 .652-.257l182.521 3.2c.257 0 .474.118.652.296a.94.94 0 0 1 .237.671l-6.695 91.083a.916.916 0 0 1-.968.829.903.903 0 0 1-.829-.967l6.635-90.135-180.664-3.16-2.193 126.631c-.019.514-.414.909-.908.909"/>
    <path fill="#fff" d="M331.101 103.035c-.514-4.147-3.081-6.043-7.327-4.819-2.508.711-4.582 7.485-5.629 9.519.099-4.562.672-16.332-.099-20.657-.592-3.22-2.448-6.656-5.885-7.288-5.747-1.046-8.729 12.304-10.309 16.728-.118-4.088-1.007-16.372-1.442-20.4-.375-3.556-1.56-6.42-5.905-6.103-5.174.355-6.892 4.937-7.879 8.985-1.719 7.031-2.765 16.274-4.464 23.304-2.014-8.709-7.248-19.472-17.932-17.22-9.223 1.935-19.887 10.743-19.413 20.854-6.34-3.831-12.758 1.047-18.683 4.345-7.9 4.404-15.404 17.063-17.182 26.286-1.994 10.25-.73 14.061-.592 24.45l.533 38.056c.02 1.047 1.481 1.146 1.758.277 9.894 9.736 19.769 19.472 29.663 29.209.355.355.908.335 1.284 0 4.562-4.247 10.21-6.577 15.582-10.547 6.221-4.581 12.185 5.056 19.808 6.834.513.118 21.902-19.552 31.204-29.506 10.881-11.632 14.002-25.12 16.589-40.189l4.68-26.247c.81-4.68.909-9.42 1.719-14.1.474-3.022.296-8.69-.079-11.771m-68.016 14.358c-.751 12.086-1.896 28.201-13.529 34.659-8.906 4.957-19.808 1.008-21.506-9.479-.83-5.036-.711-10.388 2.982-13.884 6.635-6.28 15.7-7.82 15.74-18.603 0-2.035 2.231-2.627 3.535-1.798 5.747-.572 8.946-7.05 11.849-3.554 1.679 2.014 1.126 9.282.929 12.659"/>
    <path fill="#2E2E2E" d="M336.117 55.756H329.6a.906.906 0 0 1-.909-.909c0-.513.395-.908.909-.908h6.517c.494 0 .908.395.908.908a.905.905 0 0 1-.908.909m12.185 3.081h-6.695a.905.905 0 0 1-.908-.909v-6.517c0-.494.395-.909.908-.909h6.695c.494 0 .909.395.909.909v6.517a.906.906 0 0 1-.909.909m-5.806-1.798h4.898v-4.72h-4.898zm17.478 1.798a.93.93 0 0 1-.652-.277l-6.359-6.517c-.356-.356-.336-.928.02-1.284.355-.355.928-.336 1.283.02l6.359 6.517c.356.356.336.928-.019 1.284a.9.9 0 0 1-.632.257"/>
    <path fill="#2E2E2E" d="M353.615 58.837a.9.9 0 0 1-.672-.297.91.91 0 0 1 .079-1.283l7.386-6.518a.908.908 0 1 1 1.205 1.363l-7.386 6.517a1 1 0 0 1-.612.218M273.65 85.794c-3.574-2.251-7.761-2.784-12.106-1.52-7.781 2.27-14.14 9.4-16.984 15.463-.849 1.797-1.126 3.219-1.066 4.345-5.668-1.165-15.484 2.765-24.252 10.013-14.22 11.731-14.753 39.36-11.02 80.161a.9.9 0 0 0 .888.83h.079c.494-.04 1.225 1.303 1.185.809-3.574-39.083-3.535-69.2 10.013-80.398 8.749-7.209 19.097-11.237 23.719-9.361.276.454.632.829 1.007 1.106.276.217.573.395.889.553.533 1.046.632 2.449.276 4.246-.928 4.641-5.095 7.662-9.519 10.862-5.984 4.325-12.758 9.242-10.348 19.018 1.915 7.722 8.393 12.877 16.135 12.798 6.971-.06 15.483-4.819 18.485-17.952 3.93-17.202 4.068-30.849.335-33.159-.572-.356-1.757-.77-3.278.454-2.409 1.975-7.524 3.199-10.487 2.39-.77-.277-2.073-.652-2.271-2.39-.079-.928.217-2.133.889-3.555 3.18-6.734 9.697-12.699 15.858-14.496 3.891-1.125 7.466-.69 10.625 1.304 9.638 6.102 8.374 18.169 8.354 18.287a.91.91 0 0 0 .79 1.008.91.91 0 0 0 1.008-.79c.039-.534 1.402-13.311-9.204-20.026m-25.535 22.613c3.713.553 8.689-.968 11.099-2.943.731-.592 1.066-.395 1.185-.335 2.113 1.303 3.219 12.145-1.146 31.223-2.765 12.106-10.447 16.49-16.727 16.55h-.138c-6.814 0-12.521-4.582-14.22-11.435-2.133-8.591 3.595-12.719 9.638-17.103 4.503-3.258 9.163-6.636 10.23-11.968.336-1.619.316-2.923.079-3.989"/>
    <path fill="#2E2E2E" d="M273.176 151.44c-.079 0-.158-.02-.237-.039-.474-.139-.77-.632-.632-1.106 5.392-19.71 7.939-38.175 9.796-51.664 1.54-11.198 2.646-19.275 4.601-23.087 2.41-4.7 5.807-7.05 9.105-6.3 3.436.79 5.766 4.68 5.924 9.934.277 9.638 0 21.744 0 21.862-.019.494-.355.869-.928.889-.493-.02-.888 2.311-.888 1.797 0-.118.276-14.91 0-24.489-.119-4.344-1.936-7.642-4.503-8.215-2.449-.553-5.096 1.461-7.09 5.371-1.817 3.555-2.963 11.91-4.424 22.514-1.856 13.529-4.404 32.073-9.835 51.901a.96.96 0 0 1-.889.632"/>
    <path fill="#2E2E2E" d="M318.066 110.856h.02c.276-.751.513-1.521.671-2.311.04-.178.138-.296.257-.336.059-3.732.178-12.64-.04-20.085-.138-5.253-2.468-9.143-5.924-9.933-3.298-.75-6.695 1.62-9.105 6.3-1.955 3.811-3.061 11.908-4.601 23.086-1.857 13.489-4.404 31.954-9.796 51.664-.138.474.158.968.632 1.106a1 1 0 0 0 .237.04.9.9 0 0 0 .869-.672c5.431-19.828 7.979-38.353 9.835-51.901 1.462-10.605 2.607-18.978 4.424-22.514 1.995-3.91 4.641-5.905 7.09-5.371 2.567.592 4.384 3.89 4.503 8.215.276 9.598 0 21.645 0 21.764.039.513.434.928.928.948"/>
    <path fill="#2E2E2E" d="M316.723 184.757a.9.9 0 0 1-.375-.079c-.454-.198-.652-.751-.454-1.205 3.021-6.635 9.677-32.685 12.185-52.236.039-.198 2.646-14.634 2.389-24.153-.138-4.602-1.915-8.354-4.147-8.73-2.074-.355-4.424 2.41-6.221 7.367-1.363 3.713-2.014 8.295-2.923 14.634-1.422 9.835-3.357 23.304-9.203 44.633a.92.92 0 0 1-1.106.632c-.474-.138-.77-.632-.632-1.106 5.806-21.23 7.742-34.62 9.144-44.416.928-6.458 1.6-11.118 3.022-15.009 2.962-8.097 6.418-8.808 8.215-8.532 3.18.514 5.51 4.819 5.668 10.467.277 9.717-2.291 23.877-2.409 24.489-2.528 19.651-9.262 45.976-12.343 52.711a.88.88 0 0 1-.81.533m-52.77 22.988h-.118a.91.91 0 0 1-.79-1.007c.02-.218 2.587-22.751-19.038-40.762a.905.905 0 0 1-.119-1.264.904.904 0 0 1 1.264-.119c22.415 18.683 19.71 42.145 19.67 42.382-.019.434-.414.77-.869.77"/>
    <path fill="#D5D5D5" d="M228.188 90.534c-3.061-2.726-6.103-5.47-9.164-8.196-.869-.77-2.152.494-1.284 1.284 3.062 2.725 6.103 5.47 9.164 8.196.869.77 2.153-.494 1.284-1.284m11.909-2.548c-2.114-5.609-4.227-11.237-6.36-16.846-.414-1.086-2.152-.612-1.737.474 2.113 5.609 4.226 11.237 6.359 16.846.395 1.086 2.133.613 1.738-.474"/>
    <path fill="#2E2E2E" d="M373.324 290H146.96a.923.923 0 0 1-.909-.849l-8.196-158.586a.895.895 0 0 1 .514-.869.87.87 0 0 1 .987.158l103.861 96.574a.905.905 0 0 1 .039 1.283.89.89 0 0 1-1.283.04l-102.182-95.072 8.038 155.504h224.587l-3.101-155.544-91.103 92.169a.904.904 0 0 1-1.283 0 .905.905 0 0 1 0-1.284l92.603-93.689a.89.89 0 0 1 .968-.198.93.93 0 0 1 .573.83l3.16 158.585a.9.9 0 0 1-.257.652.85.85 0 0 1-.652.296"/>
    <path fill="#2E2E2E" d="M146.96 290a.85.85 0 0 1-.751-.415c-.276-.414-.158-.987.257-1.244l114.762-74.395a.9.9 0 0 1 .988 0l111.602 74.395c.415.277.533.83.257 1.244a.897.897 0 0 1-1.245.257l-111.108-74.079-114.269 74.079a.77.77 0 0 1-.493.158"/>
    <path fill="#CCC" d="M208.715 216.079h-46.233l3.16 59.998h43.073z"/>
    <path fill="#2E2E2E" d="M204.291 280.777h-43.092a.923.923 0 0 1-.909-.849l-3.16-59.998a.85.85 0 0 1 .257-.671.93.93 0 0 1 .652-.277h46.233c.493 0 .908.395.908.909v59.997c.02.474-.395.889-.889.889m-42.223-1.817h41.335v-58.2h-44.396z"/>
    <path fill="#2E2E2E" d="M198.268 248.487h-34.206a.906.906 0 0 1-.908-.908c0-.514.395-.909.908-.909h34.206c.493 0 .908.395.908.909a.906.906 0 0 1-.908.908"/>
    <path fill="#2E2E2E" d="M182.133 265.906a.91.91 0 0 1-.909-.869l-.967-34.521a.903.903 0 0 1 .869-.929c.493 0 .908.376.928.869l.967 34.522a.9.9 0 0 1-.869.928zm-3.417.02a.9.9 0 0 1-.572-.198c-5.333-4.305-7.999-11.533-7.327-19.828.592-7.267 3.653-13.864 7.445-16.016a.88.88 0 0 1 1.224.335.883.883 0 0 1-.335 1.225c-3.259 1.856-6.004 7.998-6.537 14.595-.632 7.702 1.797 14.357 6.655 18.267a.89.89 0 0 1 .138 1.264.86.86 0 0 1-.691.356m6.794-.336a.86.86 0 0 1-.494-.158.895.895 0 0 1-.257-1.244c8.414-12.561 5.925-27.372-1.579-32.803a.91.91 0 0 1-.198-1.264.91.91 0 0 1 1.264-.198c8.156 5.905 11 21.843 2.014 35.252a.87.87 0 0 1-.75.415"/>
    <path fill="#2E2E2E" d="M181.165 265.926c-9.934 0-18.011-8.235-18.011-18.347 0-9.934 8.077-18.011 18.011-18.011s18.011 8.077 18.011 18.011c0 12.165-6.063 18.347-18.011 18.347m0-34.561c-8.927 0-16.194 7.268-16.194 16.194 0 8.966 7.425 16.53 16.194 16.53 10.902 0 16.194-5.411 16.194-16.53 0-8.907-7.267-16.194-16.194-16.194"/>
    <path fill="#D5D5D5" d="M344.945 209.799v8.373l8.669-4.186z"/>
    <path fill="#CCC" d="M349.586 193.111c-.376 3.002-.751 6.004-1.146 9.005-.138 1.146 1.659 1.146 1.797 0 .376-3.001.751-6.003 1.146-9.005.158-1.165-1.659-1.146-1.797 0m-224.291-58.517c-3.91-3.318-7.801-6.636-11.711-9.953-.889-.751-2.173.513-1.284 1.283 3.91 3.318 7.801 6.636 11.711 9.954.889.731 2.173-.533 1.284-1.284"/>
</svg>
