<svg width="280" height="268" viewBox="0 0 280 268" fill="none" xmlns="http://www.w3.org/2000/svg">
<path d="M5.21828 123.871C4.17737 122.245 2.64248 121.043 1.4075 119.593C0.701802 118.763 -0.480245 119.965 0.207812 120.796C1.35457 122.139 2.80126 123.235 3.75395 124.72C4.3538 125.622 5.80048 124.791 5.21828 123.871Z" fill="#CCCCCC"/>
<path d="M214.388 237.329L239.793 236.94L239.263 213.799C228.66 218.484 220.721 227.235 214.388 237.329Z" fill="#2E2E2E"/>
<path d="M206.448 0.373106C205.743 1.34539 204.966 2.24697 204.119 3.07783C203.343 3.83799 204.543 5.04009 205.319 4.27994C206.272 3.34301 207.119 2.31768 207.913 1.23933C208.548 0.337749 207.083 -0.510793 206.448 0.373106Z" fill="#CCCCCC"/>
<path d="M200.856 104.32L210.206 100.059L208.583 108.969L200.856 104.32Z" fill="#2E2E2E"/>
<path d="M211.741 218.519H7.95284L4.58313 42.9947L208.371 37.9388L210.718 157.495L211.477 196.493L211.565 201.054L211.741 218.519Z" fill="#E0E0E0"/>
<path d="M15.7861 241.165C15.3274 241.165 14.9569 240.794 14.9393 240.334L9.89355 19.2532C9.89355 19.0234 9.98177 18.8113 10.1406 18.6522C10.2993 18.4931 10.511 18.4047 10.7404 18.4047H234.747C235.206 18.4047 235.594 18.7759 235.594 19.2355L235.841 49.9952C235.841 50.4548 235.47 50.8437 235.012 50.8437C234.553 50.8437 234.165 50.4725 234.165 50.0129L233.935 20.0841H11.5872L16.5977 239.468L238.928 236.127L237.834 189.192C237.817 188.732 238.187 188.343 238.664 188.325C239.105 188.308 239.511 188.679 239.528 189.156L240.64 236.94C240.64 237.17 240.551 237.382 240.41 237.541C240.251 237.7 240.04 237.788 239.81 237.806L15.7861 241.165Z" fill="#2E2E2E"/>
<path d="M88.2791 80.9317H37.7158C36.0574 80.9317 34.7166 79.5881 34.7166 77.9264V70.6608C34.7166 68.999 36.0574 67.6555 37.7158 67.6555L88.2791 68.7339C89.9375 68.7339 91.2784 70.0774 91.2784 71.7391V77.9264C91.296 79.5705 89.9375 80.9317 88.2791 80.9317Z" fill="white"/>
<path d="M41.3501 46.9369C41.3501 48.5986 40.6974 49.9952 38.3509 49.9952C36.6925 49.9952 35.3517 48.5986 35.3517 46.9369C35.3517 45.2752 36.6925 43.9316 38.3509 43.9316C40.0093 43.9316 41.3501 45.2928 41.3501 46.9369Z" fill="#2E2E2E"/>
<path d="M38.3685 50.8438C36.2514 50.8438 34.5401 49.0937 34.5401 46.937C34.5401 44.8156 36.2691 43.1008 38.3685 43.1008C40.4856 43.1008 42.1969 44.8333 42.1969 46.937C42.1969 49.4649 40.8385 50.8438 38.3685 50.8438ZM38.3685 44.7802C37.1865 44.7802 36.2161 45.7525 36.2161 46.937C36.2161 48.1391 37.2041 49.1467 38.3685 49.1467C39.9034 49.1467 40.5209 48.5103 40.5209 46.937C40.5209 45.7525 39.5506 44.7802 38.3685 44.7802Z" fill="#2E2E2E"/>
<path d="M50.1714 50.8438C48.0543 50.8438 46.343 49.0937 46.343 46.937C46.343 44.8156 48.0719 43.1008 50.1714 43.1008C52.2885 43.1008 53.9998 44.8333 53.9998 46.937C54.0174 49.4649 52.659 50.8438 50.1714 50.8438ZM50.1714 44.7802C48.9893 44.7802 48.019 45.7525 48.019 46.937C48.019 48.1391 49.007 49.1467 50.1714 49.1467C51.7063 49.1467 52.3238 48.5103 52.3238 46.937C52.3238 45.7525 51.3711 44.7802 50.1714 44.7802Z" fill="#2E2E2E"/>
<path d="M41.0502 234.288C36.0573 234.288 32.0172 230.152 32.0172 225.06C32.0172 220.057 36.075 216.009 41.0502 216.009C46.043 216.009 50.0831 220.075 50.0831 225.06C50.0831 231.106 46.9604 234.288 41.0502 234.288ZM41.0502 217.706C36.9924 217.706 33.6932 221.012 33.6932 225.078C33.6932 229.162 37.063 232.609 41.0502 232.609C46.0606 232.609 48.4071 230.222 48.4071 225.078C48.4071 221.012 45.1079 217.706 41.0502 217.706Z" fill="#2E2E2E"/>
<path d="M61.2508 50.8438C59.1337 50.8438 57.4224 49.0937 57.4224 46.937C57.4224 44.8156 59.1514 43.1008 61.2508 43.1008C63.3503 43.1008 65.0793 44.8333 65.0793 46.937C65.0793 49.4649 63.7208 50.8438 61.2508 50.8438ZM61.2508 44.7802C60.0688 44.7802 59.0985 45.7525 59.0985 46.937C59.0985 48.1391 60.0864 49.1467 61.2508 49.1467C62.7857 49.1467 63.4032 48.5103 63.4032 46.937C63.4032 45.7525 62.4329 44.7802 61.2508 44.7802Z" fill="#2E2E2E"/>
<path d="M59.1161 96.7181H38.3685C37.9098 96.7181 37.5217 96.3468 37.5217 95.8695C37.5217 95.3922 37.8922 95.021 38.3685 95.021H59.1337C59.5924 95.021 59.9806 95.3922 59.9806 95.8695C59.9806 96.3468 59.5924 96.7181 59.1161 96.7181Z" fill="#2E2E2E"/>
<path d="M51.618 107.961H38.3509C37.8922 107.961 37.504 107.59 37.504 107.113C37.504 106.635 37.8745 106.264 38.3509 106.264H51.618C52.0767 106.264 52.4649 106.635 52.4649 107.113C52.4649 107.59 52.0944 107.961 51.618 107.961Z" fill="#2E2E2E"/>
<path d="M41.0502 227.73C40.5915 227.73 40.2034 227.358 40.2034 226.881V214.153C40.2034 213.693 40.5739 213.304 41.0502 213.304C41.5089 213.304 41.897 213.676 41.897 214.153V226.881C41.897 227.358 41.5089 227.73 41.0502 227.73Z" fill="#2E2E2E"/>
<path d="M130.145 257.252H119.206C118.748 257.252 118.36 256.881 118.36 256.403V238.761C118.36 238.301 118.73 237.912 119.206 237.912C119.683 237.912 120.053 238.283 120.053 238.761V255.555H129.263L128.169 238.655C128.134 238.195 128.486 237.788 128.963 237.753C129.439 237.718 129.827 238.071 129.862 238.549L131.009 256.333C131.027 256.562 130.939 256.792 130.78 256.969C130.603 257.146 130.392 257.252 130.145 257.252Z" fill="#2E2E2E"/>
<path d="M129.545 246.91L129.016 238.619L119.206 238.761V256.403H119.242C122.629 253.186 126.034 249.986 129.545 246.91Z" fill="#2E2E2E"/>
<path d="M158.584 268H91.3489C91.0314 268 90.7314 267.806 90.5903 267.523C90.4492 267.222 90.5021 266.886 90.6962 266.621C95.7066 260.54 114.055 254.388 130.198 255.555C146.199 256.704 158.567 266.091 159.096 266.48C159.378 266.692 159.502 267.081 159.378 267.417C159.272 267.77 158.955 268 158.584 268ZM93.3955 266.321H155.867C151.633 263.598 141.736 258.1 130.092 257.252C115.943 256.209 99.5703 261.123 93.3955 266.321Z" fill="#2E2E2E"/>
<path d="M229.137 132.127C228.678 132.127 228.308 131.756 228.29 131.296L227.478 92.5462C227.461 92.0865 227.831 91.6976 228.308 91.6799H228.325C228.784 91.6799 229.154 92.0512 229.172 92.5108L229.984 131.261C230.001 131.721 229.631 132.109 229.154 132.127H229.137Z" fill="#2E2E2E"/>
<path d="M178.415 210.723L26.7245 211.625L26.4422 148.408C26.4422 148.408 71.0071 109.906 114.425 114.59C114.425 113.654 114.09 89.7529 114.072 87.2957C114.055 86.2173 111.744 86.4295 110.932 86.2173C110.932 86.2173 107.368 84.5026 105.851 82.7701C105.41 81.515 105.41 78.8456 105.392 77.5374C108.78 74.8327 109.344 74.8504 113.367 73.1003C114.619 72.5522 116.666 48.4041 125.84 46.0706C126.158 45.9999 159.802 46.0706 161.848 53.4954C161.672 53.7959 162.007 84.1313 162.342 96.3468C160.437 109.093 154.685 111.143 147.505 114.095C147.681 115.298 147.029 117.136 147.205 118.338C150.204 118.214 168.605 129.369 176.95 137.837C180.267 141.196 183.972 144.537 186.618 148.497C189.512 150.972 192.352 153.181 195.598 154.967C201.456 158.22 207.313 157.813 211.477 156.788V196.475C178.362 196.475 159.149 173.935 159.149 173.935L157.05 183.252C187.642 196.811 178.415 210.723 178.415 210.723Z" fill="white"/>
<path d="M113.349 113.707C107.245 113.247 80.3576 112.328 53.8233 129.069C40.7326 137.324 25.0661 147.701 24.7485 150.141C24.7132 150.388 24.8014 150.707 24.9779 150.901C25.1366 151.078 25.366 151.166 25.5953 151.166C25.8071 151.166 26.0011 151.096 26.1776 150.936C26.3363 150.795 26.4245 150.601 26.4422 150.406C26.8127 149.805 29.8825 146.181 54.7407 130.501C84.239 111.886 114.143 115.474 114.443 115.51C114.655 115.527 114.866 115.474 115.043 115.351C114.478 114.767 113.914 114.237 113.349 113.707Z" fill="#2E2E2E"/>
<path d="M157.208 183.269C157.155 183.269 157.12 183.269 157.067 183.252C156.608 183.181 156.291 182.739 156.379 182.279C156.397 182.173 158.108 171.956 163.03 161.243C163.224 160.818 163.718 160.624 164.142 160.836C164.565 161.031 164.742 161.526 164.547 161.95C159.731 172.451 157.967 182.863 157.949 182.969C157.896 183.393 157.614 183.269 157.208 183.269Z" fill="#2E2E2E"/>
<path d="M210.206 225.997H200.856C200.397 225.997 200.009 225.626 200.009 225.149C200.009 224.689 200.379 224.3 200.856 224.3H210.206C210.665 224.3 211.053 224.671 211.053 225.149C211.053 225.626 210.665 225.997 210.206 225.997Z" fill="#2E2E2E"/>
<path d="M117.424 73.2771C111.902 72.9942 108.003 73.8958 105.851 75.9288C104.351 77.3607 104.034 79.0224 104.034 80.1715C104.034 81.8862 104.74 83.5126 106.01 84.7324C107.139 85.8108 109.238 87.0659 112.979 87.1012L113.649 113.724C113.208 113.689 112.608 113.654 111.885 113.601C112.255 114.202 112.643 114.785 113.049 115.368C113.896 115.439 114.372 115.492 114.408 115.492C114.655 115.527 114.902 115.439 115.078 115.28C115.254 115.121 115.36 114.873 115.36 114.626L114.637 86.2174C114.637 85.9875 114.531 85.7754 114.372 85.6163C114.214 85.4572 113.984 85.3865 113.755 85.3865C110.844 85.5102 108.568 84.8561 107.174 83.5126C105.904 82.2928 105.727 80.8963 105.727 80.1715C105.727 78.9871 106.169 77.9617 107.015 77.1486C108.797 75.4515 112.361 74.6913 117.336 74.9565C117.76 74.9742 118.201 74.6206 118.218 74.161C118.254 73.7013 117.901 73.2947 117.424 73.2771Z" fill="#2E2E2E"/>
<path d="M147.434 85.4925C146.976 85.4925 146.588 85.1213 146.588 84.644C146.588 84.1667 146.958 83.7954 147.434 83.7954C149.005 83.7954 150.31 83.3712 150.91 82.664C151.245 82.2575 151.369 81.7802 151.263 81.1791C151.033 79.8533 148.087 79.1108 146.676 78.9517C146.252 78.8986 145.917 78.5451 145.917 78.1208V70.3955C145.917 69.9359 146.288 69.547 146.764 69.547C147.223 69.547 147.611 69.9182 147.611 70.3955V77.396C149.181 77.6789 152.515 78.5451 152.921 80.9139C153.098 82.01 152.851 82.9823 152.198 83.7601C151.245 84.8738 149.569 85.4925 147.434 85.4925Z" fill="#2E2E2E"/>
<path d="M136.831 75.204C136.655 75.204 136.478 75.1509 136.32 75.0272C134.838 73.8958 131.221 72.9412 129.968 72.676C129.51 72.57 129.227 72.128 129.316 71.6684C129.421 71.2088 129.862 70.9259 130.321 71.0143C130.515 71.0497 135.261 72.0926 137.343 73.6837C137.713 73.9665 137.784 74.4969 137.502 74.8681C137.343 75.0979 137.096 75.204 136.831 75.204Z" fill="#2E2E2E"/>
<path d="M153.027 72.2693V73.9488C153.027 76.1231 156.397 76.1231 156.397 73.9488V72.2693C156.397 70.095 153.027 70.095 153.027 72.2693Z" fill="#2E2E2E"/>
<path d="M133.391 64.1198C132.032 64.4204 130.727 64.7739 129.457 65.3219C128.469 65.7462 129.315 67.2135 130.303 66.7715C131.433 66.2766 132.632 65.9937 133.832 65.7285C134.891 65.5164 134.449 63.89 133.391 64.1198Z" fill="#2E2E2E"/>
<path d="M156.82 63.8193C155.956 63.2359 155.003 62.8117 154.191 62.1753C153.345 61.5035 152.145 62.6879 152.992 63.3774C153.927 64.1198 154.985 64.6325 155.956 65.2866C156.873 65.8876 157.72 64.438 156.82 63.8193Z" fill="#2E2E2E"/>
<path d="M136.919 93.1294C135.667 92.9349 133.991 92.3516 133.903 90.8489C133.832 89.7706 132.156 89.7706 132.227 90.8489C132.368 93.1471 134.379 94.4199 136.478 94.7558C137.519 94.9149 137.978 93.2885 136.919 93.1294Z" fill="#2E2E2E"/>
<path d="M134.52 137.342C121.112 137.342 110.861 127.867 110.103 114.714C110.068 114.255 110.438 113.848 110.897 113.83C111.355 113.813 111.761 114.166 111.779 114.626C112.502 127.177 121.976 135.857 134.855 135.663C141.418 135.574 145.353 132.923 147.505 130.695C149.94 128.167 151.369 124.808 151.298 121.715C151.28 121.255 151.651 120.866 152.127 120.848H152.145C152.604 120.848 152.974 121.22 152.992 121.679C153.062 125.268 151.51 128.98 148.722 131.862C146.358 134.319 142.036 137.254 134.891 137.342C134.749 137.342 134.644 137.342 134.52 137.342Z" fill="#2E2E2E"/>
<path d="M163.365 66.0291C163.313 63.4127 163.26 60.6726 163.224 57.8442C163.013 44.5326 154.491 37.7797 137.89 37.7797C118.924 37.7797 110.103 45.0276 110.103 60.5666V74.0725C110.103 74.5322 110.473 74.9211 110.95 74.9211C111.338 74.9211 111.655 74.6559 111.761 74.3024C114.214 74.1079 115.272 74.6913 118.007 74.6736C119.048 73.9488 119.083 57.2608 123.511 53.46C131.344 46.7247 154.774 48.9698 160.948 52.7176C161.319 54.2909 161.513 56.0057 161.548 57.8618C161.601 60.6903 161.654 63.4304 161.689 66.0467C162.166 90.7959 162.466 105.751 154.315 110.454C147.328 114.502 134.696 113.724 134.573 113.724C134.273 113.707 134.008 113.83 133.85 114.06C133.673 114.29 133.638 114.59 133.744 114.856C135.896 120.583 146.164 122.811 146.605 122.917C146.658 122.934 146.729 122.934 146.782 122.934C146.976 122.934 147.152 122.864 147.311 122.74C147.505 122.581 147.628 122.333 147.628 122.086V114.626C147.628 114.608 147.628 114.573 147.628 114.555C150.31 114.025 152.974 113.194 155.179 111.921C164.159 106.724 163.859 91.4146 163.365 66.0291Z" fill="#2E2E2E"/>
<path d="M94.1717 179.345C93.3072 177.241 88.9142 174.13 84.6448 174.13C81.2574 174.13 79.0697 174.978 77.676 176.004V175.986C77.6054 175.862 76.0529 172.999 69.9662 171.178C68.4666 170.736 66.9141 170.594 65.3439 170.665L70.7778 165.644C71.113 165.326 71.1483 164.796 70.8307 164.46C70.5131 164.124 69.9839 164.089 69.6487 164.407L62.4858 171.036C55.2877 172.486 48.6541 177.471 48.2836 177.754C47.9131 178.037 47.8425 178.567 48.1248 178.938C48.2836 179.15 48.5482 179.274 48.7952 179.274C48.9717 179.274 49.1481 179.221 49.3069 179.097C49.4304 179.009 61.0215 170.276 69.5252 172.786C74.8532 174.36 76.2117 176.746 76.2293 176.746C76.2999 176.888 76.4057 176.994 76.5469 177.082C75.5236 178.267 75.2943 179.38 75.2766 179.486C75.1884 179.946 75.4883 180.37 75.947 180.459C76.4057 180.547 76.8468 180.246 76.935 179.805C76.9703 179.645 77.8524 175.792 84.6977 175.792C88.2968 175.792 92.0723 178.532 92.6721 179.964C92.8132 180.282 93.1132 180.476 93.4484 180.476C93.5542 180.476 93.6601 180.459 93.7659 180.406C94.1364 180.264 94.3481 179.769 94.1717 179.345Z" fill="#2E2E2E"/>
<path d="M87.4323 211.625C87.0971 211.625 86.7619 211.413 86.6384 211.077C81.822 198.19 87.7675 186.328 89.7082 182.987C90.7843 181.148 93.2014 178.001 95.4949 177.948C96.1477 177.948 96.9945 178.143 97.6826 179.186C98.3353 180.193 97.5414 181.714 96.1124 184.489C94.8245 186.964 93.2367 190.058 92.4075 193.346C90.6785 200.223 91.79 207.859 93.3425 210.317C93.5895 210.706 93.4836 211.236 93.0779 211.484C92.6897 211.731 92.1605 211.625 91.9135 211.218C89.9728 208.142 89.0201 199.887 90.7667 192.939C91.6488 189.457 93.3601 186.133 94.6128 183.711C95.3537 182.279 96.2888 180.476 96.2182 180.017C95.9889 179.681 95.7242 179.628 95.5302 179.645C94.3305 179.681 92.3369 181.855 91.1725 183.853C89.32 187.017 83.6568 198.313 88.2262 210.494C88.385 210.935 88.1733 211.413 87.7322 211.572C87.6263 211.607 87.5205 211.625 87.4323 211.625Z" fill="#2E2E2E"/>
<path d="M178.803 202.715C178.344 202.715 177.956 202.344 177.956 201.867C177.956 199.639 177.956 195.467 162.325 186.664C153.486 181.696 135.579 181.731 118.289 181.749C111.144 181.767 103.752 181.767 96.9416 181.449C96.4829 181.431 96.1124 181.024 96.1477 180.565C96.1653 180.105 96.5887 179.734 97.0298 179.769C103.804 180.087 111.179 180.087 118.307 180.07C136.637 180.052 153.944 180.017 163.171 185.214C178.397 193.788 179.667 198.313 179.667 201.884C179.632 202.344 179.261 202.715 178.803 202.715Z" fill="#2E2E2E"/>
<path d="M179.05 209.61C178.891 209.61 178.732 209.557 178.591 209.468C178.203 209.203 178.097 208.69 178.362 208.301C178.979 207.382 179.103 206.251 178.732 204.925C178.115 202.733 175.115 196.864 160.366 189.916C159.943 189.722 159.767 189.209 159.961 188.785C160.155 188.361 160.666 188.184 161.09 188.378C172.081 193.558 178.926 199.268 180.355 204.448C180.849 206.233 180.638 207.877 179.755 209.203C179.579 209.468 179.314 209.61 179.05 209.61Z" fill="#2E2E2E"/>
<path d="M178.467 211.625C178.362 211.625 178.273 211.607 178.168 211.572C177.726 211.413 177.515 210.918 177.674 210.493C178.573 208.072 175.786 203.263 157.349 194.088C156.926 193.876 156.767 193.381 156.961 192.957C157.173 192.533 157.667 192.374 158.09 192.568C174.233 200.611 180.973 206.481 179.244 211.059C179.138 211.413 178.82 211.625 178.467 211.625Z" fill="#2E2E2E"/>
<path d="M172.875 211.625C172.804 211.625 172.716 211.607 172.628 211.59C172.187 211.466 171.922 210.988 172.063 210.547C172.981 207.4 166.1 205.137 160.56 203.299C158.514 202.627 156.591 201.99 155.003 201.319C154.58 201.142 154.368 200.647 154.562 200.205C154.738 199.781 155.232 199.586 155.673 199.763C157.191 200.399 159.078 201.036 161.09 201.69C167.635 203.847 175.062 206.304 173.686 211.024C173.563 211.395 173.228 211.625 172.875 211.625Z" fill="#2E2E2E"/>
<path d="M262.587 43.5781L167.988 66.8069C167.988 66.8069 165.43 72.676 166.7 75.3101C167.953 77.9441 168.235 80.0831 168.235 80.0831L268.462 74.7797C268.462 74.7797 278.624 70.4133 278.306 57.8442C277.989 45.2752 273.137 42.4467 271.532 41.6335C269.908 40.838 266.186 39.848 262.587 43.5781Z" fill="white"/>
<path d="M272.167 44.9216C270.808 44.1615 269.273 43.861 267.633 43.861C262.375 43.861 258.123 50.119 258.123 57.8619C258.123 60.6374 258.688 63.236 259.641 65.4104C263.557 58.4276 267.509 51.4448 272.167 44.9216Z" fill="#2E2E2E"/>
<path d="M262.181 69.3349C263.716 70.9259 265.604 71.8629 267.615 71.8629C272.872 71.8629 277.124 65.6049 277.124 57.8619C277.124 53.2833 276.366 50.1013 275.095 47.9269C270.297 54.7152 266.274 62.0516 262.181 69.3349Z" fill="#2E2E2E"/>
<path d="M267.633 75.6813C260.805 75.6813 255.265 67.6908 255.265 57.8619C255.265 48.0329 260.823 40.0425 267.633 40.0425C275.836 40.0425 280 46.0353 280 57.8619C280 67.6908 274.443 75.6813 267.633 75.6813ZM267.633 41.7396C261.74 41.7396 256.941 48.9699 256.941 57.8619C256.941 66.7539 261.74 73.9842 267.633 73.9842C273.525 73.9842 278.324 66.7539 278.324 57.8619C278.324 47.0076 274.813 41.7396 267.633 41.7396Z" fill="#2E2E2E"/>
<path d="M168.2 80.1008C167.917 80.1008 167.653 79.9594 167.494 79.7119C164.601 75.2393 164.618 70.9966 167.529 67.1251C167.635 66.966 167.811 66.86 167.988 66.8246L262.163 41.9694C262.622 41.8456 263.081 42.1285 263.187 42.5704C263.31 43.0124 263.046 43.4897 262.587 43.5957L168.711 68.3803C166.488 71.4916 166.471 74.7797 168.658 78.4037L216.999 76.2647C217.44 76.247 217.863 76.6005 217.881 77.0778C217.898 77.5375 217.546 77.9441 217.069 77.9617L168.235 80.0831C168.235 80.1008 168.217 80.1008 168.2 80.1008Z" fill="#2E2E2E"/>
<path d="M167.97 77.1132L165.941 73.4892L167.811 69.8652C167.97 69.5647 167.935 69.2288 167.723 68.9636C167.529 68.6984 167.194 68.5924 166.876 68.6631L159.025 70.4662C158.743 70.5369 158.514 70.7314 158.426 70.9966C158.355 71.1733 156.908 75.257 158.496 77.944C158.655 78.2092 158.92 78.3506 159.219 78.3506H167.229C167.529 78.3506 167.811 78.1915 167.953 77.9263C168.111 77.6965 168.111 77.3606 167.97 77.1132Z" fill="#2E2E2E"/>
<path d="M235.682 77.0955C235.241 77.0955 234.853 76.7419 234.835 76.2823C234.818 75.8227 235.17 75.4161 235.647 75.3984L267.58 73.9842C268.003 73.9665 268.444 74.32 268.462 74.7973C268.479 75.257 268.127 75.6636 267.65 75.6812L235.717 77.0955C235.717 77.0955 235.7 77.0955 235.682 77.0955Z" fill="#2E2E2E"/>
<path d="M210.1 156.558C216.028 153.977 220.545 153.27 222.15 147.931C223.773 142.592 226.896 135.185 229.966 131.261C229.966 131.261 229.525 126.116 232.577 125.568C232.577 125.568 235.894 118.55 233.3 106.918C230.725 95.2861 227.619 92.1924 222.203 86.5001C216.787 80.8078 215.746 75.1332 217.299 71.5092C218.851 67.8852 223.932 58.6573 226.543 58.8694C229.154 59.0816 231.483 61.6802 229.684 64.5264C227.884 67.3725 225.061 68.557 227.108 71.0672C229.154 73.5775 232.947 73.8427 235.77 76.6712C242.51 76.9187 248.985 76.4237 248.985 76.4237C248.985 76.4237 262.428 96.5766 264.739 111.567C267.068 126.558 267.174 132.251 267.174 132.251C267.174 132.251 270.191 134.213 269.644 136.387C269.097 138.562 267.58 138.968 267.58 138.968C267.58 138.968 265.516 160.677 260.099 167.395C254.683 174.112 243.233 190.288 231.166 193.31C219.098 196.333 209.801 196.086 208.777 196.086C207.754 196.086 210.1 156.558 210.1 156.558Z" fill="white"/>
<path d="M205.055 158.308C198.774 158.308 191.682 154.72 180.955 143.512C166.559 128.468 158.196 122.546 146.535 119.151C146.094 119.028 145.829 118.55 145.97 118.108C146.094 117.666 146.552 117.401 147.011 117.543C159.008 121.043 167.547 127.071 182.19 142.345C197.363 158.202 204.578 157.619 210.665 155.656C219.716 152.74 222.133 147.984 222.168 147.931C222.38 147.507 222.874 147.33 223.297 147.542C223.72 147.737 223.897 148.249 223.685 148.656C223.579 148.868 221.004 154.083 211.194 157.247C209.165 157.902 207.154 158.308 205.055 158.308Z" fill="#2E2E2E"/>
<path d="M267.633 133.842C267.615 133.842 267.615 133.842 267.633 133.842C267.156 133.824 266.786 133.453 266.786 132.976C267.174 113.989 261.546 96.4529 248.508 76.1055C248.261 75.7166 248.367 75.1863 248.755 74.9388C249.143 74.6913 249.673 74.7974 249.92 75.1863C263.134 95.8342 268.868 113.671 268.462 132.993C268.462 133.471 268.091 133.842 267.633 133.842Z" fill="#2E2E2E"/>
<path d="M210.559 197.925C192.44 197.925 175.027 190.111 158.655 174.625C158.32 174.307 158.302 173.776 158.62 173.441C158.937 173.105 159.466 173.087 159.802 173.405C178.538 191.118 198.615 198.596 219.469 195.609C246.391 190.553 266.75 166.051 266.786 138.615C266.786 138.155 267.174 137.784 267.633 137.766C268.091 137.766 268.479 138.138 268.479 138.615C268.426 166.847 247.485 192.073 219.751 197.27C216.663 197.712 213.594 197.925 210.559 197.925Z" fill="#2E2E2E"/>
<path d="M224.197 158.326C223.791 158.326 223.421 158.025 223.368 157.601L223.174 156.417C222.168 150.247 220.298 138.756 229.931 129.157C230.266 128.821 230.795 128.821 231.113 129.157C231.448 129.493 231.448 130.023 231.113 130.342C222.097 139.322 223.879 150.265 224.832 156.134L225.026 157.318C225.097 157.778 224.779 158.202 224.32 158.273C224.285 158.326 224.25 158.326 224.197 158.326Z" fill="#2E2E2E"/>
<path d="M172.098 185.408C171.975 185.302 171.851 185.196 171.693 185.055C164.847 179.08 162.713 166.033 162.713 166.033C162.713 166.033 162.377 165.786 160.472 169.922C158.567 174.059 160.472 175.544 160.472 175.544C160.472 175.544 168.888 182.757 172.046 185.444L172.098 185.408Z" fill="#2E2E2E"/>
<path d="M233.671 125.869C233.618 125.869 233.547 125.869 233.494 125.851C233.036 125.763 232.753 125.303 232.842 124.844C234.2 118.391 232.33 97.9201 227.708 93.094L227.514 92.8996C221.533 86.6593 214.07 78.881 216.081 72.0219C217.687 66.5417 222.785 60.1423 226.561 58.8695C228.166 58.3215 229.243 58.7457 229.86 59.2054C232.012 60.7964 231.166 64.3497 227.32 69.8122C227.055 70.1834 226.984 70.643 227.125 71.0673C227.267 71.4916 227.584 71.8274 228.025 71.9689C233 73.6659 241.945 77.5021 245.985 84.202C246.232 84.6086 246.109 85.1213 245.703 85.3688C245.315 85.6163 244.786 85.4925 244.539 85.0859C240.763 78.8456 232.224 75.2039 227.461 73.5776C226.526 73.2594 225.802 72.5346 225.502 71.5976C225.202 70.6607 225.361 69.653 225.926 68.8575C228.907 64.6325 230.019 61.4681 228.837 60.6019C228.396 60.2837 227.814 60.2484 227.073 60.4959C223.791 61.6096 219.133 67.567 217.669 72.5346C215.94 78.439 223.315 86.1466 228.696 91.7682L228.89 91.9627C234.288 97.6019 235.788 118.922 234.447 125.233C234.412 125.604 234.059 125.869 233.671 125.869Z" fill="#2E2E2E"/>
<path d="M255.106 142.15C250.149 142.15 244.786 141.284 240.234 139.516C233.935 137.059 230.283 133.311 229.684 128.662C229.401 126.541 230.495 124.437 232.101 123.96C232.577 123.818 234.253 123.553 235.417 126.028C237.076 129.546 240.093 132.039 244.38 133.435C253.501 136.405 264.845 133.559 267.209 132.268C267.474 132.109 267.809 132.127 268.074 132.304C268.303 132.463 270.367 133.842 270.491 135.804C270.544 136.511 270.332 137.554 269.115 138.579C266.327 140.931 260.981 142.15 255.106 142.15ZM232.736 125.551C232.683 125.551 232.63 125.551 232.577 125.568C231.942 125.745 231.166 126.965 231.36 128.432C232.012 133.471 236.882 136.387 240.851 137.925C250.131 141.549 263.345 141.231 268.056 137.271C268.603 136.812 268.85 136.352 268.832 135.892C268.779 135.15 268.074 134.407 267.544 133.983C263.804 135.68 252.531 137.837 243.886 135.044C239.122 133.506 235.77 130.713 233.918 126.753C233.724 126.364 233.283 125.551 232.736 125.551Z" fill="#2E2E2E"/>
<path d="M230.531 211.625H26.7245C26.2658 211.625 25.8953 211.254 25.8776 210.794L22.5079 35.2871C22.4903 34.8275 22.8608 34.4386 23.3371 34.4209L227.125 29.365C227.355 29.3827 227.567 29.4534 227.725 29.5948C227.884 29.7539 227.972 29.966 227.99 30.1959L228.396 51.9575C228.396 52.4171 228.043 52.806 227.567 52.8237C227.125 52.8413 226.72 52.4524 226.702 51.9928L226.314 31.0798L24.2193 36.0826L27.5537 209.928H229.666L229.507 193.328C229.507 192.869 229.878 192.48 230.336 192.48C230.795 192.48 231.183 192.851 231.183 193.311L231.342 210.759C231.342 210.989 231.254 211.201 231.095 211.36C230.972 211.537 230.76 211.625 230.531 211.625Z" fill="#2E2E2E"/>
</svg>
