<svg viewBox="0 0 140 65" xmlns="http://www.w3.org/2000/svg"><path d="m48.23 0a16.51 16.51 0 1 0 16.5 16.51 16.51 16.51 0 0 0 -16.5-16.51zm2.14 21.23-4.18 1.14-4.19 1.14a.63.63 0 0 1 -.78-.77l1.1-4.2 1.1-4.2a.64.64 0 0 1 1.06-.29l3.09 3.06 3.08 3.05a.64.64 0 0 1 -.28 1.07zm4.86-11-1.1 4.2-1.13 4.24a.64.64 0 0 1 -1 .33l-3.12-3.1-3.08-3.05a.63.63 0 0 1 .28-1.06l4.19-1.15 4.18-1.14a.63.63 0 0 1 .78.77z" fill="#9c6ff4"/><path d="m0 5.09h16c8.75 0 13.63 4 13.63 11.27s-4.86 11.26-13.63 11.26h-16zm14.89 17c4.34 0 6.79-2 6.79-5.69s-2.45-5.73-6.79-5.73h-6.89v11.38zm94.24-17h9.53l11 22.53h-8.53l-1.76-3.93h-11.25l-1.73 3.93h-8.5zm8.65 14-4-8.9h-.06l-4 8.9zm-32.22 5.35-1.41-2.36a4.57 4.57 0 0 0 -3.81-1.95h-4.82v7.49h-8.21v-22.53h18.94c6 0 9.51 2.61 9.51 7.14 0 3.37-2.39 5.73-6.52 6.52a4.22 4.22 0 0 1 2 1.7l1.6 2.42a2.09 2.09 0 0 0 1.83 1 2.43 2.43 0 0 0 1.66-.73l1.39 3.31a9.74 9.74 0 0 1 -5.72 1.8c-3.45 0-5.15-1.95-6.44-3.81zm-1.76-8.93c2.36 0 3.74-1 3.74-2.77s-1.38-2.8-3.74-2.8h-8.28v5.57z" fill="#7b40f0"/><path d="m0 40.6h3.05a4 4 0 1 1 0 7.95h-3.05zm1.07 1v6h2a3 3 0 1 0 0-6zm10.47 7.19a3 3 0 0 1 -3.12-3.08 2.86 2.86 0 0 1 2.88-3.11 2.44 2.44 0 0 1 2.57 2.5 3.3 3.3 0 0 1 -.07.6h-4.4a2.07 2.07 0 0 0 2.14 2.2 2.14 2.14 0 0 0 1.74-.85l.71.56a3 3 0 0 1 -2.45 1.16zm-2.07-3.79h3.43a1.54 1.54 0 0 0 -1.62-1.54 1.76 1.76 0 0 0 -1.81 1.54zm1.4-3 1.18-2h1.09l-1.33 1.88zm8.87 5 .76.58a2.91 2.91 0 0 1 -2.4 1.16 3.09 3.09 0 1 1 0-6.17 3 3 0 0 1 2.4 1.17l-.76.58a2 2 0 0 0 -1.64-.84 2.18 2.18 0 0 0 0 4.36 2 2 0 0 0 1.64-.84zm7.57-1.34a3.1 3.1 0 1 1 -3.1-3.09 3 3 0 0 1 3.1 3.12zm-1 0a2.09 2.09 0 1 0 -2.07 2.18 2.11 2.11 0 0 0 2.05-2.15zm6.55-2.86h1v3.23a2.54 2.54 0 1 1 -5.07 0v-3.2h1v3.27c0 1.12.6 1.77 1.58 1.77s1.56-.65 1.56-1.77zm3.1 0 1.83 4.71 1.82-4.71h1l-2.21 5.75h-1.27l-2.24-5.72zm5.87 0h1v.71a2.08 2.08 0 0 1 1.67-.82 1.83 1.83 0 0 1 .49.06v.94a2.37 2.37 0 0 0 -.57-.06 1.77 1.77 0 0 0 -1.59 1v3.93h-1zm4.32-2.17a.68.68 0 1 1 .68.68.68.68 0 0 1 -.7-.65zm.19 2.17h1v5.72h-1zm3 0h1v.71a2.08 2.08 0 0 1 1.66-.79 1.83 1.83 0 0 1 .49.06v.94a2.37 2.37 0 0 0 -.57-.06 1.77 1.77 0 0 0 -1.59 1v3.93h-1zm2.86 7.54 1-3h1.1l-1.17 3zm14.55-5.79a4.17 4.17 0 1 1 -4.17-4.2 4.1 4.1 0 0 1 4.15 4.23zm-1.1 0a3.07 3.07 0 1 0 -3.07 3.2 3.08 3.08 0 0 0 3.05-3.17zm2.69-1.75h1v.71a2.08 2.08 0 0 1 1.66-.79 1.83 1.83 0 0 1 .49.06v.94a2.37 2.37 0 0 0 -.57-.06 1.77 1.77 0 0 0 -1.59 1v3.93h-1zm4.32-2.17a.68.68 0 1 1 .68.68.68.68 0 0 1 -.7-.65zm.19 2.17h1v5.72h-1zm5.64 5.94a3 3 0 0 1 -3.12-3.08 2.86 2.86 0 0 1 2.88-3.09 2.44 2.44 0 0 1 2.57 2.5 3.3 3.3 0 0 1 -.07.6h-4.4a2.07 2.07 0 0 0 2.14 2.2 2.14 2.14 0 0 0 1.74-.85l.71.56a3 3 0 0 1 -2.47 1.19zm-2.09-3.74h3.43a1.54 1.54 0 0 0 -1.62-1.54 1.76 1.76 0 0 0 -1.81 1.54zm6-2.13h1v.64a2.47 2.47 0 0 1 1.91-.87 2.2 2.2 0 0 1 2.23 2.49v3.46h-1v-3.47a1.43 1.43 0 0 0 -1.47-1.61 1.94 1.94 0 0 0 -1.71 1.08v4h-1zm7.38.87h-1.06v-.87h1.08v-1.47h1v1.43h2v.87h-2v2.93c0 .9.45 1.15 1.14 1.15a2.11 2.11 0 0 0 .85-.14v.86a2.34 2.34 0 0 1 -1 .16 1.78 1.78 0 0 1 -2-2zm7 5.07a3 3 0 0 1 -3.12-3.08 2.87 2.87 0 0 1 2.89-3.09 2.43 2.43 0 0 1 2.56 2.5 2.6 2.6 0 0 1 -.07.6h-4.42a2.07 2.07 0 0 0 2.13 2.2 2.13 2.13 0 0 0 1.74-.85l.72.56a3 3 0 0 1 -2.46 1.12zm-2.09-3.81h3.43a1.54 1.54 0 0 0 -1.63-1.54 1.75 1.75 0 0 0 -1.8 1.54zm6-2.13h1v.71a2.07 2.07 0 0 1 1.66-.82 1.73 1.73 0 0 1 .49.06v.94a2.34 2.34 0 0 0 -.56-.06 1.77 1.77 0 0 0 -1.59 1v3.93h-1zm2.86 7.54 1-3h1.1l-1.17 3zm-103.55 3.81h2.11c1.6 0 2.59.87 2.59 2.23a2 2 0 0 1 -1.34 2l2.57 3.7h-1.26l-2.31-3.48h-1.29v3.48h-1.07zm1.07.9v2.65h1.09a1.33 1.33 0 1 0 0-2.65zm8.53 7.27a3 3 0 0 1 -3.12-3.09 2.86 2.86 0 0 1 2.88-3.09 2.43 2.43 0 0 1 2.57 2.5 3.19 3.19 0 0 1 -.07.6h-4.39a2.06 2.06 0 0 0 2.13 2.21 2.15 2.15 0 0 0 1.74-.86l.71.56a2.94 2.94 0 0 1 -2.45 1.17zm-2.07-3.81h3.47a1.54 1.54 0 0 0 -1.66-1.58 1.77 1.77 0 0 0 -1.81 1.58zm6-2.14h1v.65a2.48 2.48 0 0 1 1.91-.88 2.2 2.2 0 0 1 2.23 2.49v3.46h-1v-3.43a1.43 1.43 0 0 0 -1.47-1.61 2 2 0 0 0 -1.71 1.08v4h-1zm7.11 4.36a1.82 1.82 0 0 0 1.45.78.89.89 0 0 0 1-.88c0-1.29-2.86-.83-2.86-2.85a1.72 1.72 0 0 1 1.86-1.64 2.35 2.35 0 0 1 1.92.95l-.67.56a1.53 1.53 0 0 0 -1.24-.7.83.83 0 0 0 -.94.81c0 1.28 2.87.87 2.87 2.82a1.78 1.78 0 0 1 -1.93 1.74 2.61 2.61 0 0 1 -2.14-1zm7.52 1.59a3 3 0 0 1 -3.12-3.09 2.86 2.86 0 0 1 2.96-3.09 2.43 2.43 0 0 1 2.57 2.5 3.19 3.19 0 0 1 -.07.6h-4.44a2.07 2.07 0 0 0 2.13 2.21 2.15 2.15 0 0 0 1.74-.86l.71.56a2.94 2.94 0 0 1 -2.45 1.17zm-2.06-3.81h3.42a1.54 1.54 0 0 0 -1.59-1.58 1.76 1.76 0 0 0 -1.8 1.58zm5.9-4.31a.68.68 0 1 1 .68.69.68.68 0 0 1 -.68-.69zm.19 2.17h1v5.72h-1zm3.2 5.31a1 1 0 0 1 -.4-.81 1.32 1.32 0 0 1 .68-1.12 2 2 0 0 1 -.79-1.58 2.07 2.07 0 0 1 2.22-2 2.48 2.48 0 0 1 1.1.24h2.13v.84h-1.28a1.93 1.93 0 0 1 .24 1 2.06 2.06 0 0 1 -2.23 2 2.84 2.84 0 0 1 -.79-.12.77.77 0 0 0 -.38.59c0 .24.13.41.48.41h1.63c1.51 0 2.22.74 2.22 1.76 0 1.2-1.21 2.1-2.92 2.1s-2.8-.66-2.8-1.8a1.72 1.72 0 0 1 .85-1.51zm1.94 2.44c1.2 0 2-.47 2-1.22 0-.55-.3-1-1.33-1h-1.93a1.36 1.36 0 0 0 -.63 1.09c0 .71.71 1.13 1.85 1.13zm1.09-5.95a1.31 1.31 0 0 0 -2.62 0 1.21 1.21 0 0 0 1.31 1.26 1.23 1.23 0 0 0 1.27-1.26zm3.08-1.8h1v.65a2.44 2.44 0 0 1 1.9-.88 2.21 2.21 0 0 1 2.24 2.49v3.46h-1v-3.43a1.42 1.42 0 0 0 -1.46-1.61 1.94 1.94 0 0 0 -1.71 1.08v4h-1zm9.68 6a3 3 0 0 1 -3.18-3.14 2.86 2.86 0 0 1 2.88-3.09 2.43 2.43 0 0 1 2.57 2.5 3.19 3.19 0 0 1 -.07.6h-4.38a2.07 2.07 0 0 0 2.13 2.21 2.15 2.15 0 0 0 1.74-.86l.71.56a2.94 2.94 0 0 1 -2.44 1.17zm-2.06-3.81h3.38a1.54 1.54 0 0 0 -1.62-1.63 1.76 1.76 0 0 0 -1.8 1.58zm6-2.14h1v.72a2.09 2.09 0 0 1 1.67-.83 1.49 1.49 0 0 1 .49.07v.94a1.93 1.93 0 0 0 -.57-.07 1.78 1.78 0 0 0 -1.59 1v3.92h-1zm2.88 7.51 1-3h1l-1.17 3zm9.1-9.76h1.43l3.16 7.94h-1.17l-.92-2.34h-3.66l-.94 2.32h-1.11zm2.19 4.69-1.48-3.76-1.51 3.74zm8 1.73.76.58a2.89 2.89 0 0 1 -2.41 1.17 3.09 3.09 0 1 1 0-6.18 3 3 0 0 1 2.36 1.15l-.76.58a2 2 0 0 0 -1.65-.84 2.18 2.18 0 0 0 0 4.36 2 2 0 0 0 1.62-.84zm6.13 0 .76.58a2.92 2.92 0 0 1 -2.41 1.17 3.09 3.09 0 1 1 2.41-5l-.76.58a2 2 0 0 0 -1.65-.84 2.18 2.18 0 0 0 0 4.36 2 2 0 0 0 1.57-.87zm7.48-1.36a3.1 3.1 0 1 1 -3.09-3.09 3 3 0 0 1 3.09 3.09zm-1 0a2.08 2.08 0 1 0 -2.06 2.18 2.1 2.1 0 0 0 2.04-2.18zm2.57-2.86h1v.63a2.28 2.28 0 0 1 1.79-.86 2 2 0 0 1 1.86 1.11 2.39 2.39 0 0 1 2.05-1.11 2.1 2.1 0 0 1 2.12 2.38v3.57h-1v-3.54a1.32 1.32 0 0 0 -1.35-1.5 1.82 1.82 0 0 0 -1.61 1.08v.39 3.57h-1v-3.54a1.32 1.32 0 0 0 -1.33-1.5 1.82 1.82 0 0 0 -1.6 1.08v4h-1zm10.72 0h1v.68a2.59 2.59 0 0 1 2-.91 3.09 3.09 0 0 1 0 6.18 2.59 2.59 0 0 1 -2-.91v3.52h-1zm1 1.75v2.23a2.22 2.22 0 0 0 1.92 1.06 2.18 2.18 0 0 0 0-4.36 2.23 2.23 0 0 0 -1.97 1.07zm6.09 2.53c0-.86.66-1.47 1.87-1.68l1.93-.32v-.39a1.23 1.23 0 0 0 -1.38-1.25 1.87 1.87 0 0 0 -1.55.79l-.72-.55a2.74 2.74 0 0 1 2.3-1.11 2.07 2.07 0 0 1 2.27 2.12v3.83h-1v-.72a2.48 2.48 0 0 1 -1.92.88c-1.08 0-1.85-.62-1.85-1.6zm2 .81a2 2 0 0 0 1.76-1v-1.1l-1.69.28c-.78.14-1.13.49-1.13 1s.38.82 1.05.82zm4.86.22a1 1 0 0 1 -.4-.81 1.32 1.32 0 0 1 .68-1.12 2 2 0 0 1 -.79-1.58 2.07 2.07 0 0 1 2.22-2 2.48 2.48 0 0 1 1.1.24h2.13v.84h-1.24a1.93 1.93 0 0 1 .24 1 2.06 2.06 0 0 1 -2.23 2 2.84 2.84 0 0 1 -.79-.12.77.77 0 0 0 -.38.59c0 .24.13.41.48.41h1.64c1.5 0 2.21.74 2.21 1.76 0 1.2-1.21 2.1-2.92 2.1s-2.8-.66-2.8-1.8a1.72 1.72 0 0 1 .84-1.51zm1.94 2.44c1.2 0 2-.47 2-1.22 0-.55-.3-1-1.33-1h-1.85a1.36 1.36 0 0 0 -.63 1.09c-.05.71.67 1.13 1.8 1.13zm1.09-5.95a1.31 1.31 0 0 0 -2.62 0 1.21 1.21 0 0 0 1.31 1.26 1.23 1.23 0 0 0 1.3-1.26zm3.08-1.8h1v.65a2.44 2.44 0 0 1 1.9-.88 2.21 2.21 0 0 1 2.24 2.49v3.46h-1v-3.43a1.42 1.42 0 0 0 -1.46-1.61 1.94 1.94 0 0 0 -1.71 1.08v4h-1zm9.68 6a3 3 0 0 1 -3.12-3.09 2.86 2.86 0 0 1 2.88-3.09 2.43 2.43 0 0 1 2.57 2.5 3.19 3.19 0 0 1 -.07.6h-4.39a2.06 2.06 0 0 0 2.13 2.21 2.15 2.15 0 0 0 1.74-.86l.71.56a2.94 2.94 0 0 1 -2.46 1.12zm-2.07-3.81h3.43a1.54 1.54 0 0 0 -1.63-1.63 1.77 1.77 0 0 0 -1.81 1.58zm6-2.14h1v.72a2.09 2.09 0 0 1 1.67-.83 1.49 1.49 0 0 1 .49.07v.94a1.93 1.93 0 0 0 -.57-.07 1.78 1.78 0 0 0 -1.59 1v3.92h-1z" fill="#555"/></svg>