<svg viewBox="0 0 800 800" xmlns="http://www.w3.org/2000/svg">
    <path d="m133.52 630.83 2.23 38.05-4.57-4.35 506.24-8.29-4.91 5.34c-.26-4.01-.43-8.04-.52-12.06-.11-4.02-.15-8.05-.19-12.08-.06-4.03-.09-8.06-.09-12.09-.03-4.03.02-8.07.04-12.1a2.51 2.51 0 0 1 2.52-2.49c1.26.01 2.3.94 2.47 2.16.56 3.99 1.16 7.99 1.67 11.98.54 4 1.05 7.99 1.54 11.99.5 4 1 8 1.43 12 .45 4 .82 8.01 1.11 12.02a4.976 4.976 0 0 1-4.62 5.32c-.09.01-.18.01-.26.01h-.03l-506.26 7.29h-.12c-2.42.03-4.41-1.9-4.45-4.32v-.04l-.23-38.12a3.504 3.504 0 0 1 3.48-3.52c1.87-.01 3.4 1.46 3.52 3.3z"/>
    <path d="m167.02 668.53 1 33.96-3.96-4 449.03 3-5.56 5.5 1.5-45.37a4.001 4.001 0 0 1 4.13-3.87c2.12.07 3.79 1.78 3.87 3.87l1.5 45.37c.1 2.94-2.21 5.4-5.15 5.5h-.41l-449-6h-.13a3.886 3.886 0 0 1-3.83-3.94v-.06l1-33.96a2.997 2.997 0 0 1 3.09-2.91c1.6.04 2.87 1.33 2.92 2.91zm499.76-325.75 16.39 268.43c.21 3.42-2.4 6.37-5.82 6.58l-.13.01h-.06l-73.27 2.6-73.27 2.48-146.55 4.64-146.57 4.28-73.29 2.05c-12.22.31-24.43.52-36.66.53-12.23.04-24.45-.04-36.7-.5-.86-.03-1.54-.76-1.51-1.62.03-.79.63-1.42 1.39-1.5 12.18-1.32 24.37-2.27 36.57-3.09 12.2-.85 24.4-1.5 36.61-2.06l73.25-3.14 146.5-6.11 146.51-5.74 73.26-2.71 73.27-2.59-6.01 6.59-13.89-268.57a4.998 4.998 0 0 1 4.73-5.25 5.003 5.003 0 0 1 5.25 4.69zM87.61 607.05c-3.62-34.31-5.35-68.7-7.21-103.09l-5.54-103.17-5.25-103.19-2.5-51.6-2.39-51.61v-.02a5.276 5.276 0 0 1 5.03-5.51c.05 0 .12 0 .17-.01l401.77-5.42c2.49-.03 4.53 1.95 4.56 4.44s-1.94 4.53-4.42 4.56l-401.74 6.99 5.2-5.54 2.53 51.6 2.42 51.6 4.6 103.22 4.3 103.23c1.41 34.41 2.96 68.82 2.63 103.31a2.079 2.079 0 0 1-2.1 2.06c-1.08.01-1.95-.81-2.06-1.85z"/>
    <path d="M560.22 593.7c6.48-25.43 13.38-50.75 20.26-76.06 6.98-25.29 13.86-50.6 21.16-75.8.13-.42.19-.73.27-1.04l.23-.95c.19-.63.22-1.28.31-1.93.03-.32.11-.64.12-.97l.02-.97.03-.97-.08-.97c-.18-2.58-.85-5.14-1.96-7.49-1.1-2.36-2.63-4.51-4.51-6.31s-4.1-3.22-6.51-4.19c-.58-.3-1.23-.43-1.84-.65-.33-.1-.58-.2-.97-.31l-1.19-.31-4.76-1.24-9.52-2.49-19.02-5.01-76.03-20.27-19.02-5.04-9.51-2.52-2.38-.63c-.42-.12-.75-.18-1.09-.25l-1.02-.21c-.34-.07-.68-.16-1.02-.21l-1.03-.11c-.69-.06-1.38-.19-2.07-.15-2.77-.12-5.56.3-8.2 1.14-2.65.84-5.16 2.11-7.41 3.76s-4.18 3.71-5.75 6c-1.56 2.29-2.82 4.82-3.51 7.54l-19.12 76.22L357 624a3.997 3.997 0 0 1-4.85 2.91 4 4 0 0 1-2.92-4.84l37.61-152.82 18.81-76.52c1.93-7.29 6.45-13.85 12.47-18.38 3.03-2.24 6.42-3.99 10.01-5.17 3.58-1.19 7.38-1.79 11.17-1.68.95-.04 1.89.09 2.83.18l1.41.14c.47.06.93.17 1.39.26l1.39.28c.47.09.94.19 1.31.29l2.38.6 9.53 2.42 19.07 4.83 76.31 19.2 19.06 4.86 9.53 2.44 4.76 1.22 1.19.31c.4.1.92.28 1.38.41.94.31 1.9.55 2.8.97 3.67 1.47 7.08 3.63 9.96 6.36 2.87 2.73 5.23 5.99 6.91 9.57s2.68 7.48 2.93 11.44l.09 1.48-.04 1.49-.05 1.49c-.02.49-.11.98-.17 1.47-.14.98-.23 1.97-.49 2.92l-.35 1.44c-.12.48-.24.98-.35 1.33-7.46 25.15-15.33 50.17-23.09 75.23-7.86 25.03-15.72 50.06-23.99 74.97a2.509 2.509 0 0 1-3.16 1.59c-1.23-.41-1.93-1.73-1.62-2.99zM145.09 377.46c16.79-1.43 33.6-2.39 50.41-3.45l25.21-1.58c8.4-.52 16.81-.95 25.22-1.4 16.82-.78 33.65-1.33 50.49-1.67 16.84-.32 33.68-.52 50.55-.17 1.38.03 2.48 1.17 2.45 2.56-.03 1.27-1 2.31-2.23 2.44-16.77 1.82-33.57 3.08-50.38 4.22-16.8 1.12-33.62 2.04-50.44 2.72-8.41.28-16.83.58-25.25.79l-25.25.61c-16.84.4-33.67.9-50.52.93-1.66 0-3.01-1.34-3.01-3 0-1.57 1.21-2.86 2.75-3zm4.82 39.43c11.71-1.99 23.46-3.22 35.22-4.26 11.76-1.03 23.55-1.66 35.34-2.21s23.59-.94 35.4-1.18c11.81-.2 23.62-.32 35.46.01a2.005 2.005 0 0 1 .23 3.99c-11.72 1.68-23.47 2.92-35.23 4.08-11.76 1.12-23.52 2.09-35.3 2.89-11.77.81-23.55 1.53-35.36 1.86-11.8.32-23.62.45-35.47-.19a2.518 2.518 0 0 1-2.38-2.65c.06-1.19.96-2.14 2.09-2.34zm133.47 45.07c-10.94 1.35-21.89 2.43-32.85 3.46-5.48.51-10.96.95-16.45 1.41l-16.46 1.25-16.46 1.25c-5.49.42-10.98.75-16.46 1.13-10.98.76-21.96 1.43-32.95 2.01l3.72-4.14 2.49 39.82-5.19-4.81c12.53-.61 25.07-1.05 37.61-1.57 12.54-.5 25.08-.86 37.62-1.29s25.08-.84 37.62-1.17c12.54-.37 25.08-.7 37.63-.99l-4.09 4.54-.57-11.09c-.18-3.7-.4-7.39-.54-11.1-.07-1.85-.11-3.7-.13-5.56-.04-1.85-.02-3.71 0-5.57.07-3.71.21-7.43.62-11.17a2.025 2.025 0 0 1 2.24-1.79c.87.1 1.55.73 1.75 1.54.89 3.65 1.51 7.32 2.06 11 .27 1.84.52 3.68.72 5.52.23 1.84.42 3.68.59 5.53.33 3.69.59 7.38.89 11.07l.87 11.07a4.203 4.203 0 0 1-3.87 4.52l-.09.01-.14.01c-12.53.66-25.06 1.3-37.59 1.89-12.53.63-25.07 1.17-37.6 1.71-12.54.52-25.07 1.12-37.61 1.59-12.54.44-25.07.96-37.62 1.31h-.18a4.874 4.874 0 0 1-5.01-4.74v-.08l-.49-39.9v-.04c-.03-2.14 1.62-3.92 3.72-4.1 10.96-.92 21.94-1.75 32.91-2.49 5.49-.37 10.97-.79 16.46-1.12l16.47-1.01 16.47-1c5.49-.29 10.99-.6 16.48-.84 10.99-.48 21.99-.9 33.01-1.05a2.51 2.51 0 0 1 2.54 2.47c.08 1.27-.89 2.35-2.14 2.51zm-90.96-202.31c1.48 2.96 2.31 6.33 2.42 9.76.1 3.43-.5 6.91-1.75 10.15-2.47 6.52-7.5 12.02-13.75 15.35a28.895 28.895 0 0 1-10.16 3.21c-3.58.45-7.31.22-10.84-.76s-6.85-2.68-9.72-4.89c-2.86-2.23-5.3-4.95-7.18-7.99-3.71-6.09-5.56-13.13-5.05-20.28.27-3.56 1.14-7.1 2.65-10.38 1.49-3.29 3.68-6.29 6.35-8.74 2.66-2.46 5.81-4.35 9.13-5.6l2.52-.83c.86-.2 1.7-.45 2.57-.58 1.72-.35 3.49-.48 5.26-.5 7.08-.03 14.06 3.08 18.45 8.15.8.92.7 2.32-.23 3.11-.7.61-1.68.69-2.46.29l-.1-.05c-1.28-.67-2.52-1.29-3.8-1.81-1.28-.51-2.57-.93-3.86-1.26-2.6-.63-5.22-.87-7.81-.71-2.57.17-5.2.71-7.56 1.75-2.37 1.01-4.5 2.42-6.27 4.19-3.54 3.53-5.58 8.44-5.82 13.55-.14 2.56.22 5.15.89 7.66.67 2.52 1.69 4.93 3.04 7.1 2.69 4.35 6.81 7.67 11.52 9.08 4.68 1.44 9.99.92 14.68-1.31 4.65-2.18 8.76-5.87 11.29-10.56 2.55-4.68 3.45-10.26 2.32-15.89l-.01-.05c-.19-.95.43-1.88 1.38-2.07a1.7 1.7 0 0 1 1.9.91zm277.9-.61c-4.86 1-9.74 1.53-14.63 2-4.89.42-9.78.67-14.68.79-4.9.11-9.81.09-14.72-.17-4.92-.26-9.84-.68-14.78-1.6a2.053 2.053 0 0 1-1.64-2.39c.15-.8.74-1.4 1.47-1.6 4.85-1.34 9.72-2.18 14.59-2.86 4.88-.68 9.76-1.12 14.65-1.43 4.89-.3 9.79-.47 14.69-.47 4.91.04 9.82.16 14.75.74 1.94.23 3.34 1.99 3.11 3.93a3.565 3.565 0 0 1-2.81 3.06zm-150.02.64c5.06-1.5 10.15-2.24 15.24-2.79 5.1-.54 10.21-.68 15.32-.74 5.11-.05 10.23.03 15.36.29 2.56.13 5.13.29 7.69.55 2.57.23 5.13.52 7.71.94a2.03 2.03 0 0 1 1.68 2.34c-.14.84-.76 1.47-1.54 1.65-2.54.61-5.08 1.08-7.62 1.5-2.54.45-5.09.79-7.63 1.11-5.09.63-10.19 1.09-15.29 1.41s-10.21.55-15.33.39c-5.12-.17-10.25-.53-15.41-1.66a2.583 2.583 0 0 1-1.97-3.07c.21-.95.92-1.66 1.79-1.92z"/>
    <path d="M736.2 225.88c.64 9.13.33 18.36-1.17 27.41-1.45 9.06-4.01 17.92-7.46 26.38-6.92 16.94-17.51 32.21-30.53 44.81-13.02 12.63-28.44 22.65-45.14 29.53-16.69 6.9-34.67 10.61-52.7 10.85-9.01.13-18.05-.6-26.92-2.23-8.88-1.63-17.59-4.18-25.96-7.55-16.76-6.75-32.01-17.08-44.65-29.93a135.413 135.413 0 0 1-16.96-21.01c-4.93-7.55-9.12-15.57-12.56-23.91-6.86-16.68-10.43-34.7-10.69-52.73a143.27 143.27 0 0 1 9.2-53.13c.74-2.14 1.68-4.21 2.55-6.3.84-2.1 1.88-4.12 2.85-6.17 2.01-4.06 4.25-8.01 6.66-11.85a136.17 136.17 0 0 1 16.66-21.45c6.26-6.56 13.16-12.54 20.65-17.66 7.49-5.13 15.5-9.48 23.87-12.95 16.74-6.98 34.89-10.32 52.9-10.14 17.97.15 35.99 3.7 52.57 10.76a130.62 130.62 0 0 1 23.56 13.08l2.73 1.98c.91.66 1.83 1.3 2.7 2.02l2.64 2.09 1.32 1.05 1.28 1.1c1.69 1.48 3.46 2.87 5.06 4.44 1.63 1.54 3.33 3.02 4.87 4.66 12.7 12.75 22.79 28.05 29.91 44.59 3.56 8.27 6.43 16.85 8.53 25.61 2.1 8.77 3.49 17.68 4.23 26.65zm-12.94.88c-.48-8.35-1.56-16.65-3.29-24.82-1.72-8.17-4.03-16.22-7.05-24-6.01-15.57-14.8-30.1-26.15-42.41-2.81-3.1-5.84-6-8.99-8.75-3.17-2.73-6.52-5.26-9.98-7.61-6.93-4.69-14.33-8.65-22.07-11.8-15.48-6.29-32.22-9.31-48.95-9.19-16.7.1-33.31 3.46-48.53 10.06-15.23 6.58-29.01 16.35-40.34 28.43a124.342 124.342 0 0 0-15.08 19.7c-2.18 3.52-4.2 7.15-6.01 10.87-.9 1.87-1.86 3.7-2.64 5.63-.81 1.91-1.68 3.79-2.36 5.75-5.96 15.49-8.83 32.13-8.9 48.8-.04 16.67 2.95 33.36 9.01 48.91 6.02 15.56 15.28 29.84 26.91 41.79 11.65 11.93 25.82 21.35 41.27 27.54 15.46 6.22 32.22 9 48.88 8.58 16.67-.41 33.23-4.07 48.54-10.62 15.31-6.54 29.39-15.96 41.14-27.66 11.75-11.69 21.17-25.68 27.12-41 5.98-15.31 8.43-31.83 7.47-48.2z"/>
    <path d="M696.98 185.7c5.01 11.56 8.18 23.92 9.57 36.47 1.62 12.58.54 25.68-2.95 38.02-.48 1.53-.9 3.08-1.42 4.6l-1.65 4.53-1.9 4.43c-.66 1.46-1.41 2.88-2.11 4.33-2.95 5.7-6.44 11.13-10.37 16.19-3.94 5.07-8.31 9.8-13.07 14.1-4.77 4.29-9.9 8.18-15.31 11.62s-11.11 6.44-17.02 8.97c-5.92 2.49-12.06 4.47-18.33 5.94a112.367 112.367 0 0 1-38.39 2.33c-12.84-1.39-25.42-5.29-36.92-11.22a105.232 105.232 0 0 1-30.39-23.77c-8.56-9.68-15.37-20.86-20.11-32.84-4.73-12-7.33-24.77-7.93-37.6-.5-12.83 1.05-25.74 4.68-38.07 3.67-12.31 9.41-24 16.99-34.37 7.56-10.38 17.06-19.33 27.79-26.33 5.37-3.51 11.08-6.47 17-8.9 5.92-2.44 12.07-4.3 18.32-5.58 6.25-1.27 12.61-2.03 18.96-2.16 1.59 0 3.18-.03 4.77-.01 1.58.06 3.17.09 4.75.21 3.16.18 6.32.53 9.45.99 3.14.44 6.24 1.08 9.33 1.79 3.08.74 6.11 1.66 9.11 2.66 2.99 1.03 5.92 2.2 8.81 3.47 2.88 1.29 5.68 2.75 8.42 4.29.96.54 1.3 1.76.76 2.72a2 2 0 0 1-2.62.82l-.01-.01c-21.73-10.65-47.01-13.02-70.17-7.71-23.2 5.37-44.02 19.49-57.69 38.81-6.85 9.64-11.97 20.48-15.18 31.85-3.2 11.39-4.38 23.29-3.86 35.1.6 11.8 3.03 23.49 7.38 34.44 4.38 10.93 10.62 21.1 18.43 29.87 15.58 17.61 37.7 29.1 61.05 31.73 5.83.66 11.73.85 17.62.57 5.89-.27 11.74-1.15 17.49-2.43 5.75-1.3 11.4-3.06 16.89-5.24 5.47-2.23 10.76-4.9 15.81-7.99 20.22-12.24 36.22-31.69 43.24-54.31 3.5-11.31 4.74-23.23 3.71-35.18-.92-12-3.43-23.9-7.59-35.24v-.01c-.48-1.3.19-2.73 1.49-3.21 1.27-.48 2.65.13 3.17 1.33z"/>
    <path d="M615.98 226.32c.66 9.74-7.92 17.69-17.69 17.69s-17.15-7.92-17.15-17.69 7.38-17.69 17.15-17.69c9.77.01 16.99 7.47 17.69 17.69z"/>
    <path d="M600.94 223.74c4.29 2.87 8.28 6.07 12.21 9.32 3.91 3.29 7.7 6.7 11.39 10.22 3.7 3.52 7.3 7.13 10.75 10.92s6.78 7.7 9.78 11.98c.65.93.42 2.2-.5 2.85-.67.47-1.53.48-2.2.1-4.52-2.61-8.71-5.59-12.79-8.69s-8-6.37-11.82-9.75c-3.83-3.38-7.56-6.85-11.18-10.45-3.59-3.63-7.13-7.32-10.36-11.34a3.551 3.551 0 0 1 .54-4.98c1.23-.99 2.93-1.01 4.18-.18z"/>
    <path d="M598.18 144.44c1.1 6.79 1.83 13.6 2.5 20.4.61 6.81 1.14 13.62 1.51 20.43s.71 13.63.67 20.45c-.04 6.83-.31 13.66-1.29 20.51a3.043 3.043 0 0 1-3.44 2.58 3.043 3.043 0 0 1-2.55-2.41c-1.37-6.78-2.04-13.59-2.48-20.4s-.5-13.63-.53-20.46c-.03-6.82.1-13.65.31-20.48.27-6.83.6-13.67 1.3-20.51a2.019 2.019 0 0 1 4-.11z"/>
</svg>
