<svg xmlns="http://www.w3.org/2000/svg" width="384" height="242" fill="none">
    <rect width="384" height="242" fill="#F5F0FD" rx="12"/>
    <path fill="#D7C6F9" d="M320.261 222.033s-90.261 1.701-90.083 0a2.69 2.69 0 0 0 .032-.357l66.98-.255-1.067-21.733-62.113 1.99c17.961-63.805 82.096-66.849 82.096-66.849l4.155 87.204Z"/>
    <path fill="#AF8EF3" d="M209.275 140.236c2.683-6.292 4.785-13.094 5.771-19.879 1.569-10.714-1.713-14.829-2.603-16.173-1.39-2.091-2.15-3.775-2.134-6.292-.711-2.618-.388-5.067 2.167-6.785.97-.646 2.877.238 2.473 1.497-1.196 3.826 1.73 7.55 4.155 5.424 1.423-1.241 1.795-5.697 1.795-7.618-2.118-4.166-4.624-.782-6.386-.238-1.294.408-2.425-2.347-1.552-3.588 4.025-5.748 7.016-4.354 9.829-.834.388-1.394.146 1.344.34 1.633.032-4.064-.065-8.129-.097-12.193-.016-1.65 2.279-2.568 3.346-1.7 1.876 1.53 1.197 3.996 1.649 6.036.065-2.16.178-3.384.162-5.578-.016-2.227 3.525-1.411 3.541.817 0 .935.566.017.566.952l.194-.102-.518-10.833c-.258-5.526-4.559-9.897-9.829-9.965l-95.968-1.377c-5.658-.068-10.25 4.795-10.104 10.747l.194 8.775 1.002 44.249.404 18.57c.13 5.68 4.527 10.22 9.927 10.254l97.762.578c4.155.034 7.695-2.618 9.215-6.377h-25.301Zm-35.956-33.756c-1.552 1.378-2.958 2.925-3.605 4.966-.517 1.615-.21 3.367-1.132 4.88-1.73 2.857-4.785 3.385-7.744 2.959-7.34-1.054-14.178-5.356-14.097-13.774.016-2.364 1.115-6.003.404-8.333-.776-2.534-3.201-3.401-5.206-4.88-2.506-1.871-4.899-4.048-5.109-7.483-.242-3.894 2.07-5.136 4.656-7.125 6.241-4.779 6.386-11.802 8.148-19.098 0-.578.243-1.156.777-1.428 6.984-3.503 17.379-4.218 24.299-.425 5.723 3.146 5.108 11.02 5.545 17.21.598 8.655 4.252 29.895-6.936 32.531Z"/>
    <path fill="#2E2E2E" d="M278.355 67.503a.678.678 0 0 1-.646-.51c-.033-.102-2.733-10-7.405-11.104a.693.693 0 0 1-.517-.579.726.726 0 0 1 .323-.714c4.996-2.993 7.873-11.887 7.906-11.989.097-.289.339-.476.63-.476s.55.204.631.493c.032.102 2.991 9.931 7.21 11.938.227.102.372.34.388.612a.709.709 0 0 1-.339.646c-.065.035-5.756 3.504-7.583 11.156-.016.306-.291.527-.598.527Zm-6.434-12.465c3.249 1.752 5.4 6.65 6.418 9.49 1.778-5.085 5.044-8.061 6.645-9.269-3.088-2.245-5.319-7.567-6.338-10.39-1.051 2.619-3.33 7.465-6.725 10.17ZM88.603 149.793a.69.69 0 0 1-.614-.425c-1.795-4.472-7.324-16.138-11.43-16.393-.323-.017-.582-.272-.63-.612a.706.706 0 0 1 .468-.749c6.887-2.21 10.363-7.312 10.654-11.087a.69.69 0 0 1 .566-.629.64.64 0 0 1 .711.425c.033.085 3.395 8.366 9.102 11.342.194.103.34.307.356.528a.717.717 0 0 1-.21.612c-.291.272-.63.578-1.002.884-2.296 1.973-6.144 5.255-7.34 15.492a.706.706 0 0 1-.566.612h-.065Zm-9.959-17.532c3.977 2.38 7.874 10.339 9.652 14.369 1.552-8.945 5.222-12.091 7.47-14.029.08-.068.145-.136.226-.187-3.994-2.483-6.71-7.092-8.003-9.693-1.083 3.469-4.155 7.329-9.345 9.54Z"/>
    <path fill="#fff" d="M214.366 66.602c-.501-1.173-1.083-2.313-1.568-3.503-.34-.833-1.488-.12-1.148.714.485 1.19 1.067 2.33 1.568 3.503.356.816 1.504.102 1.148-.714Zm-3.185 8.027c-1.552-1.174-3.104-2.33-4.575-3.606-.663-.56-1.601.426-.938.987 1.568 1.343 3.217 2.585 4.85 3.826.679.527 1.358-.697.663-1.207Z"/>
    <path fill="#000091" d="M75.88 146.732c-2.522 2.636-5.141 5.17-7.68 7.789-.614.629.324 1.616.938.986 2.522-2.636 5.157-5.152 7.68-7.788.614-.629-.324-1.616-.938-.987Zm3.831-29.011c-.711-.782-1.277-1.667-1.746-2.636-.388-.799-1.536-.085-1.148.714.534 1.072 1.164 2.058 1.957 2.925.582.629 1.52-.357.937-1.003Zm224.124-16.836a118.079 118.079 0 0 0-8.18-7.618c-.663-.561-1.601.425-.938.986a117.918 117.918 0 0 1 8.18 7.619c.615.629 1.552-.357.938-.987Z"/>
    <path fill="#2E2E2E" d="M244.89 58.983c-2.053-2.125-4.349-3.945-6.645-5.747-.679-.545-1.358.68-.679 1.207 2.215 1.735 4.414 3.486 6.386 5.544.615.612 1.552-.374.938-1.004Z"/>
    <path fill="#2E2E2E" d="m244.534 52.725-6.709 7.058c-.598.629.339 1.632.937.986l6.71-7.057c.598-.63-.34-1.616-.938-.987Z"/>
    <path fill="#2E2E2E" d="M242.756 140.321h-.081l-97.762-.578c-5.788-.051-10.444-4.846-10.589-10.934l-1.617-71.577c-.065-3.061 1.018-5.952 3.072-8.129 2.02-2.142 4.704-3.333 7.582-3.333h.129l95.968 1.378c5.594.068 10.201 4.744 10.476 10.628l3.411 70.794c.146 3.095-.889 6.054-2.942 8.299-1.989 2.228-4.721 3.452-7.647 3.452Zm-99.379-93.156c-2.522 0-4.866 1.037-6.628 2.907-1.795 1.905-2.749 4.439-2.684 7.126l1.617 71.577c.129 5.322 4.187 9.54 9.263 9.574l97.762.578h.065c2.554 0 4.947-1.071 6.709-3.027 1.795-1.973 2.7-4.541 2.571-7.262l-3.411-70.794c-.243-5.153-4.285-9.234-9.183-9.302l-95.968-1.377h-.113Z"/>
    <path fill="#2E2E2E" d="M111.561 161.527c-.356 0-.663-.306-.663-.697l-1.73-140.126c0-.187.065-.374.194-.493.129-.136.275-.238.469-.204l131.81.442c.371 0 .662.306.662.697v27.005c0 .391-.291.697-.662.697-.372 0-.663-.306-.663-.697V21.826l-130.468-.442 1.714 139.429c0 .391-.291.714-.663.714Zm129.417-21.852v19.046c0 .392.291.698.662.698.372 0 .663-.306.663-.698v-19.114c-.436.017-.889.017-1.325.068Z"/>
    <path fill="#2E2E2E" d="M146.982 208.888h-41.791l-1.827-47.225 170.255-2.772v41.715a8.871 8.871 0 0 1 1.326-.323v-42.106a.672.672 0 0 0-.194-.493.74.74 0 0 0-.469-.204l-171.613 2.789a.623.623 0 0 0-.469.221.658.658 0 0 0-.178.51l1.875 48.602c.017.374.308.663.663.663h42.503c-.016-.119-.048-.238-.064-.34a2.508 2.508 0 0 1-.017-1.037Z"/>
    <path fill="#2E2E2E" d="m119.499 183.856 50.182-1.361c.243 0 .469.119.598.323a.778.778 0 0 1 .114.323l.679 5.833a.804.804 0 0 1-.13.528.724.724 0 0 1-.566.289l-50.845-.544a.512.512 0 0 1-.275-.069.757.757 0 0 1-.42-.68v-3.928c0-.153.048-.289.113-.408.097-.17.307-.289.55-.306Zm59.413-.544.728 5.866a.77.77 0 0 0 .162.375.67.67 0 0 0 .533.272h11.851c.226 0 .42-.102.549-.272a.743.743 0 0 0 .13-.613l-1.229-5.867a.734.734 0 0 0-.243-.408.668.668 0 0 0-.436-.17h-11.349a.649.649 0 0 0-.518.255.63.63 0 0 0-.178.562Zm76.034 6.003c-4.575 0-8.294-3.98-8.294-8.877 0-4.813 3.719-8.724 8.294-8.724 4.575 0 8.294 3.911 8.294 8.724 0 5.901-2.797 8.877-8.294 8.877Zm0-16.207c-3.848 0-6.968 3.282-6.968 7.33 0 4.047 3.185 7.482 6.968 7.482 4.753 0 6.968-2.381 6.968-7.482-.016-4.048-3.136-7.33-6.968-7.33Z"/>
    <path fill="#2E2E2E" d="M254.946 182.903c-.372 0-.663-.306-.663-.697v-12.431c0-.391.291-.697.663-.697.372 0 .663.306.663.697v12.431c0 .391-.307.697-.663.697ZM127.113 153.45h-12.61c-.372 0-.663-.306-.663-.698 0-.391.291-.697.663-.697h12.61c.372 0 .663.306.663.697 0 .375-.291.698-.663.698Zm0 2.721h-12.61c-.372 0-.663-.307-.663-.698 0-.391.291-.697.663-.697h12.61c.372 0 .663.306.663.697 0 .391-.291.698-.663.698Zm41.258-69.706a.683.683 0 0 1-.662-.647c-.017-.39.258-.714.614-.748 1.148-.085 2.069-.46 2.474-1.02.226-.306.274-.68.177-1.123-.21-.986-2.457-1.411-3.427-1.462a.68.68 0 0 1-.631-.646l-.371-5.97c-.017-.39.258-.714.614-.748.356-.034.679.273.711.647l.324 5.373c1.196.136 3.67.664 4.074 2.483.194.85.048 1.633-.404 2.279-.647.918-1.876 1.48-3.444 1.599-.016-.017-.032-.017-.049-.017Zm2.781-13.061.081 1.31c.097 1.683 2.587 1.513 2.474-.17l-.081-1.31c-.097-1.683-2.571-1.513-2.474.17Zm-14.923 1.021.081 1.309c.097 1.684 2.587 1.514 2.474-.17l-.081-1.31c-.097-1.683-2.571-1.513-2.474.17Zm.082-6.343c-.986.289-1.923.646-2.845 1.122-.711.374-.016 1.462.695 1.088.809-.425 1.682-.714 2.555-.986.759-.221.355-1.446-.405-1.224Zm17.234-1.395c-.663-.408-1.39-.68-2.021-1.14-.646-.475-1.471.51-.824.987.727.527 1.52.867 2.279 1.326.696.425 1.245-.748.566-1.173Zm-12.514 26.155c-.937-.085-2.198-.46-2.328-1.599-.097-.833-1.341-.748-1.244.085.21 1.769 1.762 2.653 3.314 2.806.792.051 1.051-1.224.258-1.292Zm36.441 46.85a.664.664 0 0 1-.646-.561c-3.024-15.05-19.433-25.27-27.533-27.396-.355-.102-.566-.476-.485-.85a.67.67 0 0 1 .809-.511c9.7 2.534 25.479 13.35 28.518 28.451a.697.697 0 0 1-.517.833c-.049.034-.097.034-.146.034Z"/>
    <path fill="#2E2E2E" d="M162.698 120.442c-4.931 0-11.075-3.503-15.957-9.319-5.95 1.428-11.139 4.132-11.204 4.166a.651.651 0 0 1-.889-.306c-.162-.34-.033-.765.291-.935.226-.119 5.61-2.942 11.899-4.371a.665.665 0 0 1 .646.221c5.465 6.649 12.853 10.357 17.59 8.792 2.619-.867 4.204-3.282 4.575-6.972a.679.679 0 0 1 .728-.629c.372.034.63.391.598.765-.55 5.425-3.298 7.431-5.497 8.163a8.832 8.832 0 0 1-2.78.425Z"/>
    <path fill="#2E2E2E" d="M180.481 70.496c-.162-2.023-.324-4.132-.502-6.326-.792-10.305-7.42-15.1-19.642-14.267-6.807.459-11.77 2.142-14.987 5.118a.589.589 0 0 0-.307.153c-4.107 1.157-7.421 5.017-9.895 8.486a38.504 38.504 0 0 0-1.568 2.33l1.002 44.248c1.957.204 3.961.102 5.788-.136 2.102-.272 4.042-.986 5.707-2.108l.227 2.431a.68.68 0 0 0 .662.63h.065c.372-.034.631-.374.598-.766l-.307-3.248c1.584-1.411 2.829-3.282 3.557-5.577 1.245-3.929 1.148-10.952-3.169-12.925-.776-.357-1.6-.476-2.441-.51-.76-.085-4.236-.255-5.319-1.224a3.615 3.615 0 0 1-1.213-2.483c-.048-.901.211-1.7.793-2.364 1.212-1.377 3.799-2.143 7.469-2.194.323 0 .598-.272.792-.56 3.799-6.123 3.799-20.765 3.799-20.765 3.153 2.687 22.294 3.912 26.611 2.738.226.97.388 2.024.485 3.146.162 2.194.34 4.303.501 6.326 1.52 19.08 2.458 30.61-3.298 34.641-4.931 3.469-14.259 3.503-14.356 3.503a.67.67 0 0 0-.566.323.696.696 0 0 0-.048.663c1.859 4.32 8.212 5.544 8.471 5.595.032 0 .081.017.113.017a.67.67 0 0 0 .647-.578l1.035-5.765c.016-.068.016-.136.016-.204 1.94-.544 3.848-1.326 5.4-2.415 6.402-4.506 5.448-16.325 3.88-35.933Z"/>
    <path fill="#2E2E2E" d="M193.043 75.717c-3.864-3.35-10.088-2.33-13.338-6.513.501 5.17 1.407 10.186 1.261 15.339.275 3.197.21 6.36-.517 9.37a145.974 145.974 0 0 1-.194 6.513c4.397.034 8.552-.238 12.206-3.18 3.201-2.568 4.801-6.53 4.769-10.713 0-4.014-1.148-8.18-4.187-10.816Zm17.525 63.227a.491.491 0 0 1-.226-.051c-.34-.136-1.019.782-.89.425 5.336-15.016 7.114-27.43 4.01-31.784-1.714-2.397-7-10.611-3.217-15.577.808-1.071 1.519-1.598 2.101-1.802-.533-.63-.727-1.514-.485-2.432.372-1.445 1.795-4.218 4.026-5.442 1.212-.68 2.457-.782 3.702-.323 3.88 1.412 4.705 4.49 4.737 4.626.097.374-.113.765-.469.85a.647.647 0 0 1-.808-.493c-.032-.102-.695-2.5-3.88-3.657-.889-.323-1.779-.238-2.652.238-1.729.97-3.023 3.3-3.362 4.575-.194.731.145 1.19.501 1.378.436.22 1.164.153 1.811-.783.921-1.292 2.425-1.802 3.653-1.258.873.374 2.797 1.87 1.989 7.397-.437 2.993-1.584 4.03-2.474 4.37-1.051.409-2.312.052-3.395-.935-.97-.884-1.81-2.363-1.536-3.69.291-1.411-.064-2.84-.549-3.095-.291-.153-.938.136-1.876 1.36-2.522 3.317.016 9.337 3.234 13.86 3.427 4.813 2.247 16.105-3.315 31.801a.693.693 0 0 1-.63.442Zm3.912-48.024c.631.97.793 2.585.502 3.928-.13.63.355 1.633 1.115 2.347.695.646 1.471.901 2.053.68.776-.306 1.358-1.462 1.617-3.265.534-3.724-.259-5.493-1.196-5.9-.663-.307-1.536.033-2.086.816-.614.867-1.326 1.275-2.005 1.394Z"/>
    <path fill="#2E2E2E" d="M224.019 90.63c-.34 0-.631-.271-.663-.645-.922-12.312-1.002-15.85.178-17.278.355-.425.824-.663 1.422-.714 2.587-.187 3.234 4.115 3.654 6.683l.033.187c.064.374-.178.748-.55.816-.356.068-.712-.187-.776-.578l-.033-.187c-.242-1.513-.905-5.527-2.198-5.527h-.049c-.307.017-.42.12-.501.221-.905 1.106-.55 6.888.146 16.258a.681.681 0 0 1-.615.748c0 .017-.016.017-.048.017Z"/>
    <path fill="#2E2E2E" d="M228.675 90.257c-.34 0-.631-.272-.663-.646-.921-12.313-1.002-15.85.178-17.278.356-.425.824-.663 1.423-.714 2.376-.136 2.958 3.384 3.314 5.73l.097.647c.065.374-.178.748-.55.816-.372.068-.711-.187-.776-.578l-.097-.663c-.258-1.718-.695-4.558-1.859-4.558h-.048c-.308.017-.421.12-.502.221-.905 1.106-.549 6.888.146 16.258a.681.681 0 0 1-.615.748c0 .017-.016.017-.048.017Z"/>
    <path fill="#2E2E2E" d="M233.121 90.63a.691.691 0 0 0 .614-.747c-.695-9.37-1.051-15.135-.146-16.258.081-.102.211-.204.502-.22h.016c.275 0 1.471.407 2.263 7.023.517 4.421 2.7 41.867-3.734 59.026a.738.738 0 0 0-.033.374h.065c.42-.034.841-.034 1.261 0 6.58-17.737 4.316-54.894 3.767-59.57-.437-3.623-1.294-8.401-3.686-8.231-.598.05-1.067.272-1.423.714-1.164 1.428-1.083 4.966-.178 17.278.016.357.356.68.712.612Zm-6.758 16.003c-.857-2.874-2.555-4.897-4.963-6.479-.728-.476-1.391.731-.679 1.207 2.101 1.378 3.589 3.13 4.349 5.646.274.851 1.552.476 1.293-.374ZM146.966 222.68a.629.629 0 0 1-.469-.205.696.696 0 0 1-.194-.493v-17.498c0-.375.291-.681.646-.698l149.157-4.795c.405-.017.663.289.679.663l1.067 21.733a.657.657 0 0 1-.177.51.658.658 0 0 1-.485.221l-150.224.562Zm.662-17.516v16.104l148.866-.561-1.002-20.305-147.864 4.762Z"/>
    <path fill="#2E2E2E" d="M202.468 216.847a.684.684 0 0 1-.485-.221.742.742 0 0 1-.178-.545l.534-6.122c.032-.357.307-.629.63-.629l35.988-1.377h.032c.34 0 .615.255.663.612l.792 6.683a.723.723 0 0 1-.161.544.643.643 0 0 1-.485.238l-37.33.817Zm1.132-6.139-.404 4.727 35.826-.799-.631-5.272-34.791 1.344Zm-43.441 2.397h-7c-.372 0-.663-.306-.663-.697v-2.823c0-.391.291-.697.663-.697h7c.372 0 .663.306.663.697v2.823a.673.673 0 0 1-.663.697Zm-6.321-1.411h5.658v-1.412h-5.658v1.412Zm134.605 5.153h-23.814c-.355 0-.646-.289-.662-.664l-.34-6.802a.713.713 0 0 1 .194-.527.676.676 0 0 1 .501-.204l7.34.323-.032-4.779c0-.187.064-.374.194-.493a.631.631 0 0 1 .469-.204h8.73c.323 0 .598.238.646.561l.954 5.255 6.289-.425a.654.654 0 0 1 .518.204c.129.153.21.34.194.544l-.534 6.564a.637.637 0 0 1-.647.647Zm-23.167-1.395h22.569l.421-5.119-6.112.409c-.323.034-.63-.221-.695-.562l-.954-5.288h-7.501l.032 4.812a.686.686 0 0 1-.21.51c-.129.136-.307.187-.485.205l-7.324-.307.259 5.34Zm-72.218 1.395h-9.587c-.371 0-.662-.306-.662-.698v-4.472c0-.357.258-.663.614-.697l9.506-.834a.651.651 0 0 1 .501.17c.13.137.211.307.227.511l.081 5.322a.744.744 0 0 1-.194.511.76.76 0 0 1-.486.187Zm-8.924-1.395h8.245l-.064-3.86-8.181.714v3.146Zm-4.381 1.395h-8.035c-.372 0-.663-.306-.663-.698v-3.758c0-.391.291-.697.663-.697h7.97a.68.68 0 0 1 .663.68l.064 3.758a.74.74 0 0 1-.194.511.606.606 0 0 1-.468.204Zm-7.373-1.395h6.694l-.033-2.347h-6.661v2.347Zm143.725-28.603h-27.128a.673.673 0 0 1-.663-.646l-1.584-26.206c-.226-3.69.986-7.211 3.379-9.897 2.409-2.704 5.658-4.184 9.183-4.184h2.845c6.515 0 12.028 5.357 12.546 12.193l2.101 27.974a.696.696 0 0 1-.177.528.652.652 0 0 1-.502.238Zm-26.497-1.395h25.786l-2.037-27.226c-.453-6.122-5.384-10.9-11.22-10.9h-2.845c-3.137 0-6.063 1.326-8.213 3.741-2.15 2.415-3.217 5.561-3.023 8.86l1.552 25.525Z"/>
    <path fill="#2E2E2E" d="m314.214 161.527-26.837-.884a.686.686 0 0 1-.647-.714.693.693 0 0 1 .679-.68l26.821.884c.372.017.663.34.647.714-.016.391-.307.68-.663.68Zm-52.818-11.734H241.64c-.371 0-.662-.306-.662-.697 0-.391.291-.697.662-.697h19.756c1.65 0 3.234-.748 4.349-2.041 1.1-1.292 1.633-3.027 1.455-4.761-.226-2.126.421-4.269 1.779-5.867 1.358-1.599 3.298-2.5 5.335-2.5h.016l18.479.051c3.945.017 7.146 3.384 7.146 7.534v5.152c0 .391-.291.697-.663.697-.372 0-.663-.306-.663-.697v-5.152c0-3.368-2.603-6.123-5.82-6.14l-18.479-.051h-.016c-1.649 0-3.233.749-4.333 2.041-1.099 1.293-1.633 3.044-1.455 4.779.227 2.125-.42 4.268-1.778 5.85-1.374 1.598-3.314 2.499-5.352 2.499Z"/>
    <path fill="#2E2E2E" d="M304.885 161.085a.664.664 0 0 1-.646-.561l-2.749-13.775a.71.71 0 0 1 .518-.833c.355-.085.711.17.792.544l2.748 13.775a.71.71 0 0 1-.517.833.478.478 0 0 1-.146.017Z"/>
</svg>
