<svg viewBox="0 0 2248.2 1498.5" xmlns="http://www.w3.org/2000/svg">
    <linearGradient id="a" gradientTransform="matrix(1 0 0 -1 0 1551.091)" gradientUnits="userSpaceOnUse" x1="1199.55" x2="1199.55" y1="1668.321" y2="-43.352">
        <stop offset=".3" stop-color="#a680ff"/>
        <stop offset="1" stop-color="#fffdfd"/>
    </linearGradient>
    <linearGradient id="b" gradientTransform="matrix(1 0 0 -1 0 1551.091)" gradientUnits="userSpaceOnUse" x1="300.735" x2="135.86" y1="558.156" y2="405.345">
        <stop offset=".183" stop-color="#a680ff"/>
        <stop offset="1" stop-color="#fffdfd"/>
    </linearGradient>
    <path d="M1860 413.3v117.9c1.1-.5 2.5-.5 3.7.7l34.4 58.8 69.9 45.5h169.7v-223z" fill="#fff"/>
    <path d="M2137.6 409.6H1860c-2 0-3.6 1.6-3.6 3.6v78.6c2-1.9 4.6-3.1 7.3-3.6v-71.4h270.5v215.7h-165l-68.3-44.5-7.8-13.3c.7 5.4 1 10.9 1.1 16.3l.8 1.4c.3.5.7.9 1.2 1.2l69.9 45.5c.6.4 1.3.6 2 .6h169.7c2 0 3.6-1.6 3.6-3.6v-223c-.1-1.8-1.8-3.5-3.8-3.5z"/>
    <path d="M1895.7 446h277.7v223h-277.7z" fill="#fff"/>
    <path d="M2173.3 442.4h-277.7c-2 0-3.6 1.6-3.6 3.6v26.6c.4-.2.7-.4 1.1-.5 2.1-1 4.2-1.5 6.2-1.7v-20.8h270.5v215.7h-270.5V501.1c-2.3 1.4-4.7 2.7-7.3 3.5V669c0 2 1.6 3.6 3.6 3.6h277.7c2 0 3.6-1.6 3.6-3.6V446c.1-2-1.6-3.6-3.6-3.6z"/>
    <path d="M1963.3 612.4c-2 0-3.6-1.6-3.6-3.6v-119c0-2 1.6-3.6 3.6-3.6s3.6 1.6 3.6 3.6v119c.1 1.9-1.6 3.6-3.6 3.6zm44.7-41.7c-2 0-3.6-1.6-3.6-3.6v-77.3c0-2 1.6-3.6 3.6-3.6s3.6 1.6 3.6 3.6v77.3c.1 2-1.6 3.6-3.6 3.6z"/>
    <path d="M639.4 172.7h1120.4v1219.2H639.4z" fill="url(#a)"/>
    <path d="M1671 288.4c-19.2 0-34.9-15.6-34.9-34.9 0-19.2 15.6-34.9 34.9-34.9s34.9 15.6 34.9 34.9c-.1 19.2-15.7 34.9-34.9 34.9zm0-62.5c-15.2 0-27.6 12.4-27.6 27.6s12.4 27.6 27.6 27.6 27.6-12.4 27.6-27.6-12.4-27.6-27.6-27.6zm-757.2 49.6h-204c-2 0-3.6-1.6-3.6-3.6s1.6-3.6 3.6-3.6h204c2 0 3.6 1.6 3.6 3.6s-1.6 3.6-3.6 3.6zm684.9-25.4h-70.9c-2 0-3.6-1.6-3.6-3.6s1.6-3.6 3.6-3.6h70.9c2 0 3.6 1.6 3.6 3.6s-1.6 3.6-3.6 3.6zm0 42h-70.9c-2 0-3.6-1.6-3.6-3.6s1.6-3.6 3.6-3.6h70.9c2 0 3.6 1.6 3.6 3.6s-1.6 3.6-3.6 3.6zm-590.9-166H639.4c-2 0-3.6-1.6-3.6-3.6V47.3c0-2 1.6-3.6 3.6-3.6h368.5c2 0 3.6 1.6 3.6 3.6v75.2c0 2-1.7 3.6-3.7 3.6zm-364.7-7.3h361.1V50.9H643.1zm1067.1 1275.9h-118.5c-2 0-3.6-1.6-3.6-3.6V1236c0-2 1.6-3.6 3.6-3.6h118.5c2 0 3.6 1.6 3.6 3.6v155.1c0 1.9-1.6 3.6-3.6 3.6zm-115-7.3h111.2v-147.9h-111.2z"/>
    <path d="M1731.7 1360.2h-19.4c-2 0-3.6-1.6-3.6-3.6s1.6-3.6 3.6-3.6h19.4c22.9 0 41.6-18.7 41.6-41.6s-18.7-41.6-41.6-41.6h-21.5c-2 0-3.6-1.6-3.6-3.6s1.6-3.6 3.6-3.6h21.5c27 0 48.9 21.9 48.9 48.9 0 26.8-21.9 48.7-48.9 48.7z"/>
    <path d="M622.1 462.6h368.6v289.9H622.1z" fill="#fff"/>
    <path d="M990.8 756.1H622.1c-2 0-3.6-1.6-3.6-3.6V462.6c0-2 1.6-3.6 3.6-3.6h368.6c2 0 3.6 1.6 3.6 3.6v289.9c0 2-1.5 3.6-3.5 3.6zm-365-7.3H987V466.2H625.8z"/>
    <path d="m1143 368.1-152.2 94.4H622.1l241.8-150h264.2c4.2 9.2 1.7 19.9-13 22.7-34.9 6.6-41.1 16.7-29.3 24.1 9 5.8 22.2 2.8 57.2 8.8z" fill="#fff"/>
    <path d="M990.8 466.2H622.1c-1.6 0-3.1-1.1-3.5-2.6-.4-1.6.2-3.2 1.6-4.1L862 309.4c.6-.4 1.2-.5 1.9-.5h264.2c1.4 0 2.7.8 3.3 2.1 2.8 6.2 2.9 12.4.3 17.4-1.9 3.7-6.2 8.5-15.9 10.3-24 4.6-31.3 10.3-31.8 13-.2 1.2 1.2 2.9 3.7 4.5 4.4 2.8 10.5 3.3 20.6 4.1 8.3.7 19.8 1.6 35.3 4.2 1.5.3 2.7 1.4 3 2.9s-.4 3-1.6 3.8l-152.2 94.5c-.7.3-1.5.5-2 .5zm-355.9-7.3h354.8l143-88.7c-10.5-1.5-18.6-2.1-25-2.6-11.3-.9-18-1.4-24-5.2-6.8-4.3-7.6-8.9-7-12 1.5-8 14.2-14.4 37.6-18.8 5.4-1 9.2-3.3 10.8-6.5 1.3-2.5 1.4-5.6.4-8.9H864.9zm109.6 131.9h-84.7c-2 0-3.6-1.6-3.6-3.6v-84.7c0-2 1.6-3.6 3.6-3.6h84.7c2 0 3.6 1.6 3.6 3.6v84.7c0 2-1.6 3.6-3.6 3.6zm-81.1-7.3h77.4v-77.4h-77.4z"/>
    <path d="M659.7 590.8c-.9 0-1.9-.4-2.6-1.1-1.4-1.4-1.4-3.7 0-5.1l84.7-84.7c1.4-1.4 3.7-1.4 5.1 0s1.4 3.7 0 5.1l-84.7 84.7c-.6.8-1.5 1.1-2.5 1.1zm225.4 0h-84.7c-2 0-3.6-1.6-3.6-3.6v-84.7c0-2 1.6-3.6 3.6-3.6h84.7c2 0 3.6 1.6 3.6 3.6v84.7c.1 2-1.5 3.6-3.6 3.6zm-81-7.3h77.4v-77.4h-77.4z"/>
    <path d="M800.4 590.8c-.9 0-1.9-.4-2.6-1.1-1.4-1.4-1.4-3.7 0-5.1l84.7-84.7c1.4-1.4 3.7-1.4 5.1 0s1.4 3.7 0 5.1l-84.7 84.7c-.7.8-1.5 1.1-2.5 1.1zm-55.9 122.5h-84.7c-2 0-3.6-1.6-3.6-3.6V625c0-2 1.6-3.6 3.6-3.6h84.7c2 0 3.6 1.6 3.6 3.6v84.7c0 2-1.6 3.6-3.6 3.6zm-81.1-7.2h77.4v-77.4h-77.4z"/>
    <path d="M659.7 713.3c-.9 0-1.9-.4-2.6-1.1-1.4-1.4-1.4-3.7 0-5.1l84.7-84.7c1.4-1.4 3.7-1.4 5.1 0s1.4 3.7 0 5.1l-84.7 84.7c-.6.8-1.5 1.1-2.5 1.1zm225.4 0h-84.7c-2 0-3.6-1.6-3.6-3.6V625c0-2 1.6-3.6 3.6-3.6h84.7c2 0 3.6 1.6 3.6 3.6v84.7c.1 2-1.5 3.6-3.6 3.6zm-81-7.2h77.4v-77.4h-77.4z"/>
    <path d="M800.4 713.3c-.9 0-1.9-.4-2.6-1.1-1.4-1.4-1.4-3.7 0-5.1l84.7-84.7c1.4-1.4 3.7-1.4 5.1 0s1.4 3.7 0 5.1l-84.7 84.7c-.7.8-1.5 1.1-2.5 1.1zm1130.9 458.2H1887c-2 0-3.6-1.6-3.6-3.6s1.6-3.6 3.6-3.6h44.3c2 0 3.6 1.6 3.6 3.6.1 2-1.6 3.6-3.6 3.6zm246.8 133H1887c-2 0-3.6-1.6-3.6-3.6s1.6-3.6 3.6-3.6h291.2c2 0 3.6 1.6 3.6 3.6s-1.7 3.6-3.7 3.6zm-162.9-66.5H1887c-2 0-3.6-1.6-3.6-3.6s1.6-3.6 3.6-3.6h128.2c2 0 3.6 1.6 3.6 3.6s-1.6 3.6-3.6 3.6zm229.4 0h-191.5c-2 0-3.6-1.6-3.6-3.6s1.6-3.6 3.6-3.6h191.5c2 0 3.6 1.6 3.6 3.6s-1.6 3.6-3.6 3.6zM100 1104.6c-.9 0-1.9-.4-2.6-1.1l-58.5-58.1c-.7-.7-1.1-1.6-1.1-2.6s.4-1.9 1.1-2.6L145.4 933c1.4-1.4 3.7-1.4 5.1 0l35.5 35.3c1.4 1.4 1.4 3.7 0 5.1s-3.7 1.4-5.1 0l-33-32.7-101.4 102.1 53.3 52.9 104-104.7c1.4-1.4 3.7-1.4 5.1 0s1.4 3.7 0 5.1l-106.3 107.4c-.8.7-1.6 1.1-2.6 1.1z"/>
    <path d="m220.4 1007.5 58.5 58.1-91.3 91.9-58.5-58z" fill="url(#b)"/>
    <path d="M56.5 972.9c-.9 0-1.9-.4-2.6-1.1L1 919.3c-1.4-1.4-1.4-3.7 0-5.1s3.7-1.4 5.1 0L59 966.7c1.4 1.4 1.4 3.7 0 5.1-.7.8-1.5 1.1-2.5 1.1zm34.2-34.4c-.9 0-1.9-.4-2.6-1.1l-52.9-52.5c-1.4-1.4-1.4-3.7 0-5.1s3.7-1.4 5.1 0l52.9 52.5c1.4 1.4 1.4 3.7 0 5.1-.7.7-1.5 1.1-2.5 1.1zM1095.8 97.2c-.7 0-1.4-.2-2-.6-1.7-1.1-2.1-3.4-1-5l22.1-33.1c1.1-1.7 3.4-2.1 5-1 1.7 1.1 2.1 3.4 1 5l-22.1 33.1c-.7 1.1-1.8 1.6-3 1.6zm103.8-56.9c-.9 0-1.7-.3-2.4-.9l-37.7-33.1c-1.5-1.3-1.7-3.6-.3-5.1 1.3-1.5 3.6-1.7 5.1-.3L1202 34c1.5 1.3 1.7 3.6.3 5.1-.7.8-1.7 1.2-2.7 1.2zm791.9 839.2c-.8 0-1.5-.2-2.2-.7-1.6-1.2-1.9-3.5-.7-5.1l17.7-23.7c1.2-1.6 3.5-1.9 5.1-.7s1.9 3.5.7 5.1l-17.7 23.7c-.7.9-1.9 1.4-2.9 1.4zm145.4-130.1c-1 0-2-.4-2.7-1.2l-21.3-23.7c-1.3-1.5-1.2-3.8.3-5.1s3.8-1.2 5.1.3l21.3 23.7c1.3 1.5 1.2 3.8-.3 5.1-.5.6-1.5.9-2.4.9zM163.1 793.8c-1.9 0-3.4-1.4-3.6-3.3l-2.8-30.4c-.2-2 1.3-3.8 3.3-4 1.8-.2 3.8 1.3 4 3.3l2.8 30.4c.2 2-1.3 3.8-3.3 4h-.4zm-48.3 13.8c-.5 0-1.1-.1-1.6-.4l-37.3-18c-1.8-.9-2.6-3-1.7-4.9.9-1.8 3-2.6 4.9-1.7l37.3 18c1.8.9 2.6 3 1.7 4.9-.8 1.4-2.1 2.1-3.3 2.1z"/>
    <path d="M1007.8 1391.9h988.6v56.9h-988.6z" fill="#fff"/>
    <path d="M1996.3 1452.4h-988.6c-2 0-3.6-1.6-3.6-3.6v-56.9c0-2 1.6-3.6 3.6-3.6h988.6c2 0 3.6 1.6 3.6 3.6v56.9c.1 2-1.4 3.6-3.6 3.6zm-984.8-7.2h981.3v-49.7h-981.3zm151.6-561.7c-19.4-19-44.1-29.1-70-28.6-277.2 6.3-512.7-16.6-720-69.8-1-.3-2-.1-2.9.5s-1.4 1.5-1.6 2.5c-2.2 13.6-4.3 26.6-6.2 39.3-7.6 48.1-14.1 89.7-25.7 139.7-.4 1.9.7 3.9 2.7 4.3 227.2 57.8 459.5 86.9 691.5 86.9 20.8 0 41.7-.2 62.5-.7 55.8-1.3 101.2-46.7 101.2-101.3 0-26.8-11.5-53.3-31.5-72.8z"/>
    <path d="M372.9 785.1C301.7 771 209 795.2 189.1 833.2c-5.6 10.6-8.1 27.2 11.1 46.1.2-3.2.6-6.4 1.1-9.5-9.5-11.2-11.4-22.4-5.7-33.2 18.3-34.9 108.7-57.6 175.9-44.3 1.9.4 3.9-.9 4.3-2.9.3-2-.9-4-2.9-4.3z"/>
    <path d="M222 913.2c.3-2.1.7-4.1 1.1-6.2-5.6-4.1-15.1-12.9-17.3-26.1-2.4-14.4 4.5-30.4 20.4-47.5 1.4-1.5 1.3-3.8-.2-5.1-1.5-1.4-3.8-1.3-5.1.2-17.5 18.9-25 36.9-22.2 53.7 3.1 18.5 17.8 29.4 23.1 32.8.1-.6.1-1.2.2-1.8z"/>
    <path d="M228 954.1c.3-1.1.7-2.1 1.2-2.9-3.3-2.8-5.7-6.9-6.9-12.2-4.9-20.1 5.8-51.8 29.3-86.8 1.1-1.7.7-3.9-1-5.1-1.7-1.1-3.9-.7-5.1 1-24.7 36.7-35.7 70.4-30.4 92.5 2 8.2 6.3 14.5 12.4 18.2-.1-1.6.1-3.2.5-4.7zm43.4-57.9c-1.4-1.4-3.7-1.4-5.1 0-12.8 12.8-18.3 28.7-21.9 40.8 2.6-2 5.6-3 8.6-3 3.5-10.7 8.5-22.6 18.5-32.6 1.3-1.5 1.3-3.8-.1-5.2z"/>
    <path d="m312.4 882.5-21.7 26.7-20.9 25.8c-6 4.5-12.3 7.9-17.9 11.1-15 8.3-19.5 11.8-15.6 20.4.5 1.2 2.7 1.9 6 2.3l-5.1 6.2-7.4 9.1c-.3.4-.7.7-1.1.9l-20.8 11.5c-.5.3-1.2.5-1.8.5-.8 0-1.6-.3-2.3-.8-1.2-.9-1.6-2.5-1.2-3.9l6.7-23c.1-.5.4-.9.7-1.3l82.5-101.6c.6-.8 1.5-1.2 2.5-1.3s1.9.2 2.7.8l14.1 11.4c1.6 1.3 1.8 3.6.6 5.2z"/>
    <path d="M343.8 968.8c-.5 1.9-2.6 3-4.5 2.5-10.2-2.9-31.5-.4-52.1 1.9-15.2 1.8-27.7 3.1-37.2 3.1-5.1 0-9.4-.4-12.7-1.3-3.8-1.1-6.3-2.8-7.6-5.5-7-15.5 5.5-22.4 18.7-29.8 11.9-6.6 26.6-14.9 35.6-31.4 1-1.8 3.2-2.4 4.9-1.5 1 .5 1.6 1.4 1.8 2.4.2.8.1 1.7-.3 2.5-5.6 10.3-12.9 17.6-20.6 23.3-6 4.5-12.3 7.9-17.9 11.1-15 8.3-19.5 11.8-15.6 20.4.5 1.2 2.7 1.9 6 2.3 10.1 1.1 30.5-1.2 44-2.8 21.3-2.5 43.3-5 54.9-1.7 1.9.6 3 2.6 2.6 4.5zm1253.9-507.7c-65.3-141.8-194.6-228.6-384-258.2-1.9-.3-3.8 1-4.1 2.9-5.2 27.3-10.5 51-15.7 73.9-6.9 30.6-13.4 59.5-19.4 95.4-.2 1 .1 2 .7 2.7.6.8 1.5 1.3 2.4 1.5 30.3 4.2 60.6 12.8 90.1 25.6 205.5 88.5 174.3 277.1 159.8 332.8s-56.9 101.7-122.7 133.1c-21.2 10.1-37.1 29.5-44.8 54.6-8.7 28.3-5.6 60.6 8.2 84.2 18.6 31.7 50.4 48.9 85.7 48.9 17.1 0 35-4 52.6-12.4 99.1-47.2 177.9-139.8 216.3-254.3 34.5-103.2 25.7-220.6-25.1-330.7z"/>
    <path d="M1049.7 278.6c-2.8 0-5.4-1.3-7.9-3.8-6.9-7-9.2-17.7-6.3-29.4 4-16.2 20-38.7 51.9-48.9 23.4-7.5 55.8-3 90 1.8 11.7 1.6 23.9 3.3 36.1 4.6 2 .2 3.4 2 3.2 4s-2 3.5-4 3.2c-12.3-1.3-24.6-3-36.4-4.7-33.4-4.7-65-9.1-86.8-2-29.1 9.4-43.6 29.4-47.1 43.8-2.3 9.2-.6 17.4 4.4 22.5 1.2 1.2 2.2 1.7 3 1.6 3.7-.6 8.8-10.5 12.6-17.8 3.8-7.4 7.8-15.1 12.5-19.3 12.3-11.2 22.7-12.4 23.2-12.4 1.9-.2 3.8 1.2 4 3.2s-1.2 3.8-3.2 4c-.1 0-8.6 1.1-19.1 10.6-3.7 3.3-7.3 10.4-10.9 17.3-5.5 10.6-10.6 20.5-18 21.7h-1.2z"/>
    <path d="M1068 304.8c-6.8 0-13.6-4.2-16.5-10.7-2.5-5.5-3.7-9.2-4.5-17.2-.2-2 1.2-3.8 3.2-4 1.8-.2 3.8 1.2 4 3.2.8 7.3 1.8 10.3 3.9 14.9 2.1 4.8 8.1 7.2 12 6.1 2.9-.8 4.2-3.3 3.7-7.5-1.8-17.8 6.2-44.7 23.6-47.9 1.9-.4 3.9.9 4.2 2.9.4 2-.9 3.9-2.9 4.2-12.4 2.3-19.2 25.5-17.7 40 .8 7.8-2.6 13.6-9.1 15.3-1.2.5-2.6.7-3.9.7z"/>
    <path d="M1063.2 315.7c-1.6 0-3.1-1.1-3.5-2.7-.5-1.7-1-3.1-1.5-4.6-1.2-3.2-2.4-6.4-2.5-11 0-2 1.6-3.7 3.6-3.7 1.7-.2 3.7 1.6 3.7 3.6 0 3.3 1 5.7 2 8.5.6 1.6 1.2 3.3 1.8 5.2.5 1.9-.6 3.9-2.6 4.5-.4.1-.7.2-1 .2zm16.6-43c-1.5 0-2.8-.9-3.4-2.3-.7-1.9.2-4 2-4.7 5.3-2.1 11.7-3.8 19-5 1.9-.4 3.9 1 4.2 3s-1 3.9-3 4.2c-6.8 1.1-12.7 2.7-17.5 4.6-.4.1-.9.2-1.3.2zm98.3 106.5c-.3 0-.6 0-.9-.1-12.5-3.2-23.9-5.6-34.8-7.5-15.2-2.6-26.5-3.5-34.7-4.1-11.3-.9-18-1.4-24-5.2-6.8-4.3-7.6-8.9-7-12 1.5-8 14.2-14.4 37.6-18.8 5.4-1 9.2-3.3 10.8-6.5 1.6-3 1.4-7-.4-11.1-2.8-6.1-8.8-10.9-15-11.8-6.3-1-12.6 1.8-18.1 8-1.3 1.5-3.6 1.6-5.1.3s-1.6-3.6-.3-5.1c9.2-10.3 18.5-11.3 24.6-10.4 8.7 1.3 16.7 7.6 20.6 16 2.8 6.2 2.9 12.4.3 17.4-1.9 3.7-6.2 8.5-15.9 10.3-24 4.6-31.3 10.3-31.8 13-.2 1.2 1.2 2.9 3.7 4.5 4.4 2.8 10.5 3.3 20.6 4.1 8.3.7 19.8 1.6 35.3 4.2 11.1 1.9 22.7 4.4 35.4 7.6 1.9.5 3.1 2.5 2.6 4.4-.4 1.7-1.9 2.8-3.5 2.8z"/>
    <path d="M1129 329h-.5c-2-.3-3.4-2.2-3.1-4.1.3-2.1 8.1-51.5 33.4-55.6 1.9-.3 3.8 1 4.2 3 .3 2-1 3.9-3 4.2-16.8 2.7-25.5 36.6-27.4 49.5-.4 1.7-1.8 3-3.6 3zm799.3 384.8c-16-3.9-31.9-7.6-48.1-10.4-33.2-5.7-66.6-10.5-99-20-.1 0-.2-.1-.4-.1-.5.9-1 1.8-1.5 2.8-.2.4-.3.8-.4 1.3-6.4 53.6-25.9 121.9-50.8 178.3-19.6 44.4-51.2 82.3-86.7 104.2-40.4 24.9-72.5 29.9-114.6 17.8-43.2-12.4-81.1-40.4-123-90.8-14.8-17.8-37.4-28.3-63.5-29.6-30-1.3-60.6 9.8-80 29.3-38.3 38.3-38.4 97.1-.2 143 83.2 100.2 196.7 154.1 308.4 154.1 57.4 0 114.3-14.2 166.5-43.7 164.1-92.7 216.3-276.6 229.2-428.5-12-2.3-24-4.8-35.9-7.7z"/>
    <path d="M1959.3 669.4c.3 3.6.5 7.2.3 10.9-.5 11.6-1.3 23.7-2.2 36-22-4.8-44.1-9.6-66.1-14.3-32.9-7.1-72.2-15.4-105.3-22.7h-.9c-.6 0-1.3-.1-1.9-.1-.3.6-.6 1.2-1 1.8-.5 1-.6 2.2-.1 3.2s1.4 1.8 2.5 2c35 7.7 70.1 15.3 105.1 22.9 23.4 5 46.8 10.1 70.2 15.2.3.1.5.1.8.1.8 0 1.5-.2 2.2-.7.8-.6 1.4-1.6 1.5-2.6 1.2-13.8 2-27.4 2.6-40.4.1-3.5.1-6.9-.2-10.4-2.6-.3-5.1-.6-7.5-.9z"/>
    <path d="M1782.6 691.4c-.2 0-.5 0-.7-.1-2-.4-3.3-2.3-2.9-4.3 3.4-17.4 6.2-33.1 8.8-47.4 14.8-81.4 20.9-115.1 62.3-146.5 31.8-24.1 60.4-34.7 71.2-26.5 2.7 2.1 6.5 7.1 2.2 17.7-3.1 7.7-10.8 13.1-18.9 18.9-10.3 7.4-21.1 15-21.8 27.2-.7 10.7 3.2 20.1 7.3 30 4.7 11.5 9.6 23.3 8.9 38.8-.1 2-1.7 3.6-3.8 3.5-2-.1-3.6-1.8-3.5-3.8.6-13.8-4-24.9-8.4-35.7-4.2-10.3-8.6-20.9-7.8-33.3 1-15.7 13.7-24.7 24.9-32.7 7.2-5.2 14.1-10 16.4-15.8 1.1-2.6 2.5-7.3.1-9.1-5.5-4.2-29.1 1.3-62.3 26.5-39.1 29.7-45.1 62.6-59.5 142-2.6 14.3-5.4 30-8.8 47.5-.5 1.9-2.1 3.1-3.7 3.1zM1420 1142.9c-.8-19.3-1-38.2-1.2-56.5-1-79.4-1.8-147.9-47.6-191.5-39.1-37.1-107-52.5-213.7-48.4-60.2 2.3-117 4.6-160.9 16.2-86.7 23-119.4 82.1-116.7 210.8l.1 3.4c1.7 63 2.6 118.7 2.8 165.4 0 1.5 1 2.9 2.4 3.4 39.3 14.6 92.8 43 124.8 95.1.7 1.1 1.8 1.7 3.1 1.7l407.1-1.5c2 0 3.6-1.6 3.6-3.5 0-.4 1.8-58.2-3.8-194.6z"/>
    <path d="m985.3 1393.3-4-73.1 435.1 20.9v52.2h7.3v-55.7c0-1.9-1.5-3.5-3.5-3.6l-442.6-21.2c-1.2 0-2 .3-2.8 1.1-.7.7-1.1 1.7-1.1 2.8l4.2 76.8h7.4z"/>
    <path d="M1410.8 1152.3c-2 0-3.6-1.6-3.6-3.6v-91.4c0-2 1.6-3.6 3.6-3.6s3.6 1.6 3.6 3.6v91.4c.1 2-1.6 3.6-3.6 3.6zm71.4-176.1c-.5 0-.9-.1-1.4-.3-7.3-3.1-21.4-13.4-40.9-27.7-26.7-19.6-63.3-46.5-101.1-67.8-1.7-1-2.4-3.2-1.4-5s3.2-2.4 5-1.4c38.1 21.5 74.9 48.6 101.8 68.3 18.4 13.5 32.9 24.1 39.4 26.9 1.9.8 2.7 2.9 2 4.8-.5 1.3-1.9 2.2-3.4 2.2zm-464.5 326c70 60.9 106.6 146.5 91.4 156.6-15.3 10.2-33.1-26.6-51.9-49.7 0 0 5.7 63.7-13.2 70.9-18.8 7.2-22.7-38-22.7-38s-6.9 56.4-43.1 43.4-10.1-21.7-10.1-21.7-36-.3-98.1-23.1z" fill="#fff"/>
    <path d="M988.6 1491c-3.7 0-7.5-.7-11.6-2.2-14.8-5.3-21.7-10.7-21.6-17 0-2 .8-3.8 1.9-5.2-15.1-1.6-45.5-6.8-88.6-22.6-1.9-.7-2.9-2.8-2.2-4.7s2.8-2.9 4.7-2.2c60.7 22.3 96.5 22.9 96.9 22.9 1.8 0 3.3 1.3 3.6 3.1s-.7 3.5-2.4 4c-3 1-6.6 3.3-6.6 4.7 0 .2.2 4.1 16.8 10.1 7.3 2.6 13.6 2.3 19-1.1 15.3-9.4 19.2-39 19.2-39.3.2-1.8 1.8-3.2 3.6-3.2h.1c1.9 0 3.4 1.5 3.6 3.3.9 11 5.1 30.2 12.1 34.6 1.7 1.1 3.5 1.2 5.6.4 11.8-4.6 12.9-43.6 10.8-67.2-.1-1.6.8-3.1 2.3-3.7s3.2-.2 4.2 1.1c4.9 6.1 9.8 13.1 14.5 19.8 11.9 17.1 24.1 34.7 32.5 29.1 1-.6 1.6-2.4 1.7-5 1.6-24.4-34.9-95-93.5-145.9-1.5-1.3-1.7-3.6-.4-5.1s3.6-1.7 5.1-.4c61.1 53.2 97.7 125.4 96 151.8-.3 5-2 8.6-5 10.6-14.4 9.6-28.1-10.2-42.6-31-2.3-3.3-4.6-6.7-7-10 .7 19.8-.3 56.4-16.2 62.6-4.3 1.6-8.4 1.3-12.1-1-6.3-4-10.2-13.5-12.5-22.3-3.3 9.8-9 21.1-18.4 26.9-3.9 2.8-8.5 4.1-13.5 4.1z"/>
    <path d="M1035.2 865.7c-.3-1.8-1.8-3.1-3.6-3.1h-.1c-111 3-215.5 23.2-310.8 60-113.9 44-232 107-245.1 240.1-11.6 119.1 88 208.7 192.4 235.6 27.7 7.1 56.7 10 84.7 12.7 26.6 2.6 51.7 5.1 75.9 10.9 7.5 1.8 15.3 4 23 6.6 2.1 1.5 6.6 3.6 15.7 7.9 0 .9 0 2.1-.1 3-.2 3.8-.3 6.6 2 8.1.6.4 1.3.6 2 .6.3 0 .6 0 .9-.1 1.9-.5 3.5-1.9 44.6-42.8 32.2-32.1 76.3-76 103.1-100.3.7-.7 1.2-1.6 1.2-2.6s-.4-2-1.1-2.7c-25.5-25.2-59.5-46.1-98.4-60.6-21.8-8.1-44.7-14.2-68.1-17.9-9-1.4-21.5-2.8-36.1-4.5-49.5-5.6-141.6-15.9-140.7-38.7.5-27.7 75.3-58 115.3-66.5 58.5-12.4 122.4-7.6 155.2-3.7 1 .1 2.1-.2 2.9-.9s1.2-1.7 1.2-2.8c-3.1-143.4 8.3-215 81-234.3 2.1-.4 3.4-2.1 3-4z"/>
    <path d="M566.8 1018.2c-1.2 0-2.4-.6-3-1.7-1.1-1.7-.6-3.9 1.1-5 90-58.6 272-129.9 420.8-147.8 1.9-.3 3.8 1.2 4 3.2s-1.2 3.8-3.2 4c-147.7 17.8-328.4 88.5-417.7 146.7-.7.5-1.4.6-2 .6zm443.5 279.8c-.9 0-1.8-.3-2.5-1-.5-.5-49.4-47.6-119.1-62.9-2-.4-3.2-2.4-2.8-4.3.4-2 2.4-3.2 4.3-2.8 71.8 15.7 120.6 62.8 122.7 64.8 1.4 1.4 1.5 3.7.1 5.1-.8.8-1.7 1.1-2.7 1.1zm160.9-609c-.4-.4-1-.9-1.4-1.4-1.1-1-2.1-2-3-3.1-.7-.6-1.3-1.4-1.9-2.1-1-1.1-2-2.3-2.8-3.5-1.5-1.8-2.9-3.7-4.1-5.7-.9-1.2-1.7-2.5-2.4-3.9-.8-1.1-1.5-2.5-2.2-3.7-1.1-2.1-2.1-4.3-3.1-6.5-1.3-2.6-2.4-5.4-3.3-8.3-1-2.8-2-5.9-2.8-8.9-.9-3.1-1.7-6.4-2.4-9.7-2-9.4-3.3-19.7-3.9-31.1-1.5-26.9 6.9-47.7 20.9-62.7 31.7-34 91.7-37.8 128-13.5 3 2 5.9 4.2 8.4 6.5 49.1 43.9 61.9 82.6 61.9 82.6l-20.6 15.5s6.8 66-54.4 80.4l-48.7 176.7-34 116.3-66.8-149.5z" fill="#fff"/>
    <path d="M1199.2 1006.5c-1.4 0-2.7-.8-3.3-2.2l-66.8-149.5c-.3-.7-.4-1.5-.2-2.3l38.3-162.3c-1.1-1-2.2-2.1-3.2-3.3-.5-.5-1.3-1.4-2-2.2-.9-1-2-2.3-2.9-3.6-1.5-1.7-3-3.8-4.2-5.9-.8-1.1-1.7-2.5-2.5-4-.5-.7-1.1-1.9-1.8-3l-.4-.7c-1.2-2.3-2.2-4.5-3.3-6.8-1.3-2.7-2.4-5.6-3.4-8.6-1-2.8-2.1-5.9-2.9-9.1-.9-3.1-1.7-6.5-2.4-9.9-2-9.6-3.3-19.9-4-31.6-1.4-25.9 6.1-48.5 21.9-65.4 31.4-33.7 93.4-40.3 132.7-14 3 2 6 4.3 8.9 6.8 49.2 44.1 62.4 82.5 62.9 84.1.5 1.5 0 3.1-1.3 4.1l-19.1 14.4c.5 11.6-.1 67.3-55.2 81.7l-48.1 174.6-34.1 116.3c-.4 1.5-1.7 2.5-3.2 2.6-.3-.2-.4-.2-.4-.2zm-63-153.5 62.2 139.4 31.3-106.8 48.7-176.6c.4-1.3 1.4-2.3 2.7-2.6 57.4-13.5 51.9-73.9 51.6-76.5-.1-1.3.4-2.5 1.4-3.3l18.4-13.9c-3.7-9-19.2-42.1-60-78.6-2.6-2.3-5.2-4.4-8-6.2-36.6-24.4-94.3-18.4-123.4 12.9-14.6 15.6-21.3 35.8-19.9 60 .7 11.3 1.9 21.3 3.9 30.6.7 3.2 1.4 6.4 2.3 9.4.8 3 1.8 6 2.8 8.7.9 2.9 2 5.4 3.2 8 1 2.2 1.9 4.3 3 6.3l.4.7c.5 1 1.1 1.9 1.6 2.8.8 1.5 1.5 2.7 2.3 3.8 1.3 2.1 2.5 3.8 3.9 5.5 1 1.3 1.8 2.4 2.7 3.4.7.9 1.3 1.5 1.8 2 1.1 1.2 2 2.1 2.9 3l1.5 1.4c.9.9 1.3 2.2 1 3.4z"/>
    <path d="M1286.6 525c-36.3-24.4-96.3-20.6-127.9 13.4-13.5 21.3-22 43.6-20.9 62.7.1 2-.9 5.1-2.4 8.7 2.7 20.7 9.8 41.3 18.9 59 4 7.7 9.5 15.6 16.1 22.5 1.8-.2 3.7-.5 5.7-1 3.3-.8 6.5-1.8 9.7-3.3 9.2-4.2 41.1-41 24.5-44.8-18.5-4.3-27.1-34-5-40.8 5.2-1.6 11.5-3.8 18.1-6.6.3.6.7 1.1 1.1 1.7 1.3 1.4.7 6 1.2 7.8.6 2.6 1.7 5 3.3 7.1 3.7 4.6 10 6.3 15.1 2.8 5.2-3.5 5.5-9.9 4.6-15.5-.8-4.9-1.9-9.8-3.1-14.7 24.2-13.8 46.1-34 41-59zM1155 1498.5H917.1c-2 0-3.6-1.6-3.6-3.6s1.6-3.6 3.6-3.6H1155c2 0 3.6 1.6 3.6 3.6s-1.5 3.6-3.6 3.6z"/>
    <path d="M491.1 1494.9h426l-240.6-289.4h-426z" fill="#fff"/>
    <path d="M917.1 1498.5h-426c-1.1 0-2.1-.5-2.8-1.3l-240.6-289.4c-.9-1.1-1.1-2.6-.5-3.9s1.9-2.1 3.3-2.1h426c1.1 0 2.1.5 2.8 1.3L920 1492.5c.9 1.1 1.1 2.6.5 3.9-.7 1.3-1.9 2.1-3.4 2.1zm-424.2-7.3h416.5l-234.6-282.1H258.2z"/>
    <path d="M523.6 1340.7h56.6v29.1h-56.6z"/>
    <path d="M580.1 1373.4h-56.6c-2 0-3.6-1.6-3.6-3.6v-29.1c0-2 1.6-3.6 3.6-3.6h56.6c2 0 3.6 1.6 3.6 3.6v29.1c.1 2-1.6 3.6-3.6 3.6zm-52.9-7.2h49.3v-21.8h-49.3z"/>
</svg>
