<?xml version="1.0" encoding="utf-8"?>
<!-- Generator: Adobe Illustrator 25.2.0, SVG Export Plug-In . SVG Version: 6.00 Build 0)  -->
<svg version="1.1" id="Слой_1" xmlns="http://www.w3.org/2000/svg" xmlns:xlink="http://www.w3.org/1999/xlink" x="0px" y="0px"
	 viewBox="0 0 273.6 235.4" style="enable-background:new 0 0 273.6 235.4;" xml:space="preserve">
<style type="text/css">
	.st0{fill:#FFFFFF;stroke:#000000;stroke-linecap:round;stroke-linejoin:round;stroke-miterlimit:10;}
	.st1{fill:none;stroke:#000000;stroke-linecap:round;stroke-linejoin:round;stroke-miterlimit:10;}
	.st2{fill:none;stroke:#000000;stroke-width:1;stroke-linecap:round;stroke-linejoin:round;stroke-miterlimit:9.999;}
	.st3{fill:none;stroke:#FFFFFF;stroke-linecap:round;stroke-linejoin:round;stroke-miterlimit:10;}
	.st4{fill:url(#SVGID_1_);stroke:#000000;stroke-linecap:round;stroke-linejoin:round;stroke-miterlimit:10;}
	.st5{fill:url(#SVGID_2_);stroke:#000000;stroke-miterlimit:10;}
	.st6{fill:none;stroke:#000000;stroke-width:1;stroke-linecap:round;stroke-linejoin:round;stroke-miterlimit:10.0006;}
	.st7{fill:url(#SVGID_3_);}
	.st8{fill:#FFFFFF;stroke:#000000;stroke-width:1;stroke-linecap:round;stroke-linejoin:round;stroke-miterlimit:9.9998;}
</style>
<g id="Hat_1_">
	<polygon class="st0" points="231,114 113.2,114 141.9,67.1 270.7,32.4 	"/>
	<path d="M154,36l2.9-3.6h113.8l-52.4,65.2h-93.4c3.4-5.1-0.9-14.3-8.8-12.5c-0.6,0.1-1.2,0.2-1.8,0.2L154,36z"/>
</g>
<g id="Straightedge">
	<polygon class="st1" points="148.8,222.1 175.4,222.1 143.2,194.9 	"/>
	<polygon class="st1" points="144.1,229.4 192.9,229.4 133.8,179.5 	"/>
	<line class="st1" x1="144.1" y1="212.9" x2="141" y2="212.9"/>
	<line class="st1" x1="142" y1="204.4" x2="138.8" y2="204.4"/>
	<line class="st1" x1="145.8" y1="221.2" x2="142.7" y2="221.2"/>
</g>
<g id="Noise_18_">
	<line class="st1" x1="183.5" y1="158.7" x2="185.1" y2="156.2"/>
	<line class="st1" x1="217.6" y1="176.2" x2="213.5" y2="172.4"/>
	<line class="st1" x1="225.7" y1="200.5" x2="227.9" y2="198"/>
	<line class="st1" x1="156" y1="119.3" x2="158.8" y2="116.8"/>
	<line class="st1" x1="146.3" y1="125.8" x2="143.2" y2="122.4"/>
	<line class="st1" x1="147.6" y1="180.9" x2="151.9" y2="177.7"/>
	<circle class="st1" cx="170.1" cy="159" r="2.5"/>
	<rect x="244.2" y="187.7" transform="matrix(0.5812 -0.8137 0.8137 0.5812 -51.5092 280.391)" class="st2" width="5" height="5"/>
	<line class="st1" x1="180.4" y1="161.8" x2="184.6" y2="167.4"/>
	<line class="st1" x1="76.3" y1="214.3" x2="79.6" y2="212.4"/>
	<line class="st1" x1="54.2" y1="195.5" x2="52.4" y2="190.4"/>
</g>
<g id="Woman_10_">
	<g id="Legs_21_">
		<path class="st0" d="M116.3,184.7l-3,34.1c7.8,0,9.3,10.1,9.3,10.1l-33.1,0.4c0.4-3.3,5.9-36.3,5.9-36.3L116.3,184.7z"/>
		<line class="st1" x1="108.5" y1="219.7" x2="113.2" y2="218.8"/>
		<line class="st1" x1="108.2" y1="216.5" x2="113" y2="216"/>
		<path class="st0" d="M52.1,177.6l-32.6,10.5c3,7.3-5.7,12.6-5.7,12.6L0.5,170.4c3.1-0.8,35.7-8.7,35.7-8.7L52.1,177.6z"/>
		<line class="st1" x1="16.8" y1="184.2" x2="19.5" y2="188.1"/>
		<line class="st1" x1="19.6" y1="182.7" x2="22" y2="186.9"/>
		<path d="M116.5,211.8c7.9-43.1,10.7-110.5,7.4-154.5c-0.4-5.3-4.1-9.8-9.8-9.8c-5,0-10.2,4.5-9.8,9.8
			c3.3,44.1-4.8,110.1-12.7,153.3L116.5,211.8z"/>
		<path d="M29.8,187.4C83.2,175.5,111.9,115,110,65.8c-0.5-12.7-20.2-12.7-19.7,0c1.5,40.3-27.8,85.7-70,98.6
			C22.6,170.5,27.6,181.3,29.8,187.4z"/>
	</g>
	<line class="st3" x1="116" y1="83.3" x2="126.9" y2="68.9"/>
	<g id="Body_23_">
		
			<linearGradient id="SVGID_1_" gradientUnits="userSpaceOnUse" x1="-845.0322" y1="461.4488" x2="-866.8804" y2="521.4764" gradientTransform="matrix(-1 0 0 1 -744.4 -442)">
			<stop  offset="0.5041" style="stop-color:#BFA3FE"/>
			<stop  offset="1" style="stop-color:#FFFFFF"/>
		</linearGradient>
		<path class="st4" d="M109.1,35.2L92.8,70.6l33.1-3.8c0,0,1.1-6.6,2.4-14c4.4-4.1,3.1-16.8,3.9-19.3L109.1,35.2z"/>
		<path class="st0" d="M130.8,41.1c7.9-3.2,14.6-4.8,23-5.2l2.9-3.6h47.9c-11.8-6.9-25-10.8-38.6-12.1c-24.7-2.3-54.8,5.5-70.9,25.6
			C86.3,56.9,82.6,72,88.9,85.2c4,8.5,12.2,14.1,21.1,15.5c4.8,1,22.6,2.9,23.2,1.5c0.6-1.2-3.2-2.1-4.4-2.4
			c1.4,0.3,5.7,1.1,6.2-0.2c0.6-1.6-6.1-3-6.1-3s7.2,0.7,7.2-0.9c0-1.5-0.8-2.3-5.9-3.1c-7.8-1.3,2-4.7,1.3-6.6
			c-1-2.6-7.8,1.9-15.2,0.5c-15.6-3-15-16.9-13.3-22.2c2-6.1,5.6-10.7,10.1-14.4"/>
		
			<linearGradient id="SVGID_2_" gradientUnits="userSpaceOnUse" x1="-885.4803" y1="455.9595" x2="-878.6334" y2="528.8582" gradientTransform="matrix(-1 0 0 1 -744.4 -442)">
			<stop  offset="0.1831" style="stop-color:#A680FF"/>
			<stop  offset="1" style="stop-color:#FFFDFD"/>
		</linearGradient>
		<path class="st5" d="M131,41.2c7.9-3.2,14.6-4.8,23-5.2l2.9-3.6h31.4c0.7-2.3,1.2-4.6,1.6-6.9c-7.6-2.7-15.6-4.4-23.7-5.2
			c-24.7-2.3-54.8,5.5-70.9,25.6C86.5,57,82.8,72.1,89.1,85.3c1.9,4.1,4.8,7.5,8.3,10.1c2.3-5.1,5.1-9.9,8.4-14.5
			c-4.6-5.4-4-13-2.8-16.6c2-6.1,5.6-10.7,10.1-14.4"/>
		<path class="st1" d="M185.7,37.3c0,0,3.1-4,4.4-10.9"/>
		<path class="st1" d="M118.5,72c0,0,5-32.5,4.2-37"/>
	</g>
	<g id="Head_22_">
		<path class="st0" d="M122.7,34.9l10.9-8.9c4.2,1.5,6.2-2.7,6.2-2.7l1.8-0.1c0,0,0.7-2.8-0.6-7.2s-8.8-7.4-11.9-1.7
			c-1.4,2.5-1.8,4.6-1.3,6.4l-10.4,8.2C119.2,30.9,121,33,122.7,34.9z"/>
		<path d="M129.1,14.4c-1.5,2.6-1.8,4.8-1.2,6.6c0.3,0.1,0.6,0.2,0.9,0.2c0.7,0.1,3.9-0.9,3.1-1.7c-1-0.9-0.4-3,1.2-2.6
			c2,0.5,6.6,1.2,7.6-1.5C138.9,11.3,132.1,9,129.1,14.4z"/>
		<path d="M130.4,15.9c-2.8-4.2-6.1-2.9-9.6,1.4s-10.8-0.5-13-4.8S96.6,10.9,96.6,6s6.5-7.5,10.6-5.1s3.7,7.3,12,4.1
			c8.2-3.3,8,2.9,12.6,8C131.8,13,133.1,20.1,130.4,15.9z"/>
	</g>
</g>
<g id="Papers">
	
		<rect x="147.5" y="121.2" transform="matrix(0.9251 -0.3798 0.3798 0.9251 -39.4626 74.2732)" class="st6" width="42" height="31.9"/>
	<line class="st1" x1="169.2" y1="145.6" x2="162.3" y2="128.8"/>
	<path class="st1" d="M163.1,148.1c-0.6-1.4-1.1-2.7-1.7-4.1"/>
	<path class="st1" d="M159.5,139.4c-1.1-2.7-2.2-5.4-3.3-8.1"/>
	
		<linearGradient id="SVGID_3_" gradientUnits="userSpaceOnUse" x1="-933.85" y1="613.4399" x2="-933.85" y2="660.4745" gradientTransform="matrix(-1 0 0 1 -744.4 -442)">
		<stop  offset="0.1831" style="stop-color:#A680FF"/>
		<stop  offset="1" style="stop-color:#FFFDFD"/>
	</linearGradient>
	<polygon class="st7" points="173.5,167.7 214,179.1 205.3,209.8 164.9,198.4 	"/>
	<line class="st1" x1="184.8" y1="195.9" x2="189.7" y2="178.3"/>
	<line class="st1" x1="178.5" y1="194.1" x2="183.4" y2="176.5"/>
	<path class="st1" d="M191.6,197.5c0.2-1,0.5-2,0.8-3"/>
	<path class="st1" d="M193.6,190.3c1-3.4,1.9-6.9,2.9-10.3"/>
	<polygon class="st1" points="203.5,217.7 242.6,202.4 273.1,219.6 234,234.9 	"/>
	<line class="st1" x1="248.3" y1="220.9" x2="231.8" y2="212.8"/>
	<line class="st1" x1="242.2" y1="223.3" x2="225.7" y2="215.2"/>
	
		<rect x="194.4" y="108.9" transform="matrix(0.6154 -0.7882 0.7882 0.6154 -23.4673 219.6681)" class="st8" width="37.9" height="50"/>
	<line class="st1" x1="205" y1="139.6" x2="218.3" y2="122.6"/>
	<line class="st1" x1="212.6" y1="145.6" x2="225.9" y2="128.5"/>
	<line class="st1" x1="198.8" y1="134.8" x2="212.2" y2="117.7"/>
</g>
</svg>
