<svg viewBox="0 0 800 800" xmlns="http://www.w3.org/2000/svg">
    <path d="M147.49 555.66c-3.4-29.85-4.92-59.79-6.58-89.72l-4.9-89.8-4.61-89.82-2.18-44.91-2.07-44.92v-.01a5.28 5.28 0 0 1 5.04-5.52h.16l528.31-8.16a5.284 5.284 0 0 1 5.37 5.2v.08l.96 371.51a6.216 6.216 0 0 1-5.99 6.23h-.03l-63.77 2.27-63.78 2.14-127.57 3.97-127.58 3.6-63.79 1.72c-10.63.25-21.27.39-31.91.36-10.64-.02-21.29-.16-31.95-.67a1.566 1.566 0 0 1-.11-3.12c10.6-1.26 21.21-2.15 31.82-2.93s21.24-1.39 31.86-1.9l63.76-2.8 127.52-5.44L533 557.95l63.77-2.38 63.78-2.25-6.02 6.24.96-371.51 5.37 5.28-528.31 8.16 5.2-5.54 2.22 44.91 2.11 44.92 3.96 89.85 3.66 89.86c1.2 29.96 2.54 59.9 1.99 89.94a2.087 2.087 0 0 1-2.12 2.05 2.05 2.05 0 0 1-2.08-1.82z"/>
    <path d="M110.67 619.32c-3.06-31.59-5.22-63.24-7.15-94.9-1.91-31.66-3.92-63.32-5.68-94.99l-5.45-95-5.75-94.99c-.53-7.91-1.1-15.82-1.79-23.73l-1.03-11.85-.52-5.93c-.08-1.01-.19-1.94-.25-3l-.11-3.37c.07-4.49.57-9.06 2.02-13.38 1.38-4.32 3.29-8.51 5.97-12.2l.96-1.41 1.09-1.32c.74-.86 1.42-1.78 2.23-2.58l2.44-2.39c.82-.79 1.75-1.45 2.63-2.18l1.34-1.06 1.43-.94c.96-.6 1.89-1.28 2.89-1.81l3.04-1.57c1.01-.53 2.1-.88 3.15-1.32l1.59-.62c.54-.19 1.09-.32 1.64-.49 1.1-.3 2.19-.64 3.3-.9 2.24-.38 4.48-.87 6.75-.93l1.7-.11.85-.05.75-.01 2.97-.05 5.95-.09 23.79-.3 47.58-.48 95.16-.86 47.58-.6c15.86-.19 31.72-.39 47.58-.67l95.15-1.6 95.14-1.77 47.57-.89 23.79-.45 5.95-.11c.47-.02 1.04 0 1.6.02l1.66.05 1.66.06c.55.02 1.1.13 1.65.19 1.1.15 2.2.29 3.3.46l3.25.78c1.09.22 2.13.64 3.18 1 1.05.38 2.12.7 3.11 1.21 8.16 3.55 15.23 9.55 20.01 17.06 2.47 3.71 4.22 7.87 5.46 12.14.27 1.08.59 2.15.82 3.24l.52 3.3c.22 1.1.2 2.21.28 3.32.05 1.09.14 2.29.12 3.22l.06 47.58.16 190.32-.18 95.16c-.05 31.72-.25 63.44-1.54 95.16a3.507 3.507 0 0 1-3.64 3.36c-1.83-.07-3.28-1.56-3.36-3.36-1.3-31.72-1.49-63.44-1.54-95.16l-.18-95.16.16-190.32.06-47.58c.02-1.05-.06-1.83-.09-2.72-.06-.87-.02-1.75-.2-2.6l-.39-2.58c-.17-.85-.43-1.68-.63-2.52-.95-3.33-2.28-6.58-4.21-9.48-3.7-5.89-9.23-10.62-15.6-13.42-.77-.41-1.61-.65-2.43-.95-.82-.28-1.62-.63-2.48-.79l-2.53-.62-2.59-.37c-.43-.05-.86-.15-1.3-.16l-1.31-.04-1.31-.05c-.44-.02-.86-.04-1.38-.03l-5.95.09-23.79.35-47.57.69-95.15 1.39-95.15 1.57c-15.86.25-31.71.58-47.57.91l-47.57.99-95.13 2.31-47.57 1.1-23.78.5-5.95.11-2.97.05-.74.01-.63.05-1.27.09c-1.7.03-3.35.44-5.02.7-.82.2-1.62.46-2.44.68-.4.12-.82.21-1.21.35l-1.17.47c-.77.34-1.59.57-2.33.98l-2.24 1.17c-.75.39-1.42.91-2.14 1.36l-1.06.69-.98.8c-2.69 2.04-5.01 4.56-6.98 7.3-2.01 2.72-3.53 5.78-4.66 8.97-1.2 3.18-1.75 6.57-1.97 9.97l-.07 2.57c0 .92.05 1.96.07 2.94l.19 5.95.38 11.89c.25 7.93.61 15.85 1.03 23.77l5.51 95 5.81 94.98c1.99 31.66 3.73 63.33 5.57 95 1.82 31.67 3.42 63.35 4.11 95.08a3.005 3.005 0 0 1-2.94 3.07c-1.62.02-2.94-1.18-3.09-2.72z"/>
    <path d="M752.5 632.31c.57 4.25-.17 8.74-1.98 12.78-1.78 4.07-4.75 7.61-8.35 10.27-3.6 2.68-7.9 4.4-12.33 5.08-1.11.21-2.23.27-3.35.32l-.84.04h-2.17l-5.78-.01c-15.41-.07-30.82-.24-46.23-.41-15.41-.16-30.82-.15-46.23-.15l-46.23-.01-184.93.01-92.47.15-92.47.31-23.12.12c-7.71.04-15.41.14-23.12.27l-46.23.94-23.12.44-11.56.13-2.89.03-1.44.02c-.49 0-1.14-.03-1.7-.05l-1.75-.08c-.58-.05-1.16-.16-1.74-.24l-1.74-.27-1.71-.42a33.455 33.455 0 0 1-12.51-6.23c-3.69-2.9-6.69-6.65-8.82-10.83a33.374 33.374 0 0 1-3.6-13.51l-.08-1.75v-10.12c0-3.28 2.65-5.94 5.93-5.97l175-1.47 87.5-.62 43.75-.31 43.75-.2 175.01-.81 87.5-.4 21.88-.1 10.94-.05 10.94.02c14.59.11 29.17.43 43.77 1.48 1.11.08 1.94 1.04 1.86 2.14-.07 1-.86 1.77-1.82 1.86-14.57 1.31-29.15 1.9-43.73 2.28l-10.94.22-10.94.15-21.87.3-87.5 1.21-174.99 2.42-43.75.6-43.75.5-87.5 1-175 1.75 5.93-5.98v10.11l.06 1.14c.15 3.01.94 5.97 2.31 8.65 2.7 5.39 7.83 9.5 13.65 11.02l1.09.29 1.12.17c.37.05.74.14 1.12.17l1.13.06c.4.02.71.06 1.18.07l1.44.02 2.89.03 11.56.13 23.12.44 46.23.94c7.71.12 15.41.23 23.12.27l23.12.12 92.47.31 92.47.15 184.93.01 46.23-.01c15.41 0 30.82.01 46.23-.15 15.41-.17 30.82-.34 46.23-.41l5.78-.01h2.15l.6-.04 1.21-.06c.4-.01.79-.11 1.19-.15 3.17-.46 6.26-1.64 8.86-3.54 2.6-1.88 4.94-4.24 6.59-7.08 1.68-2.83 2.82-6.01 3.42-9.47l.02-.1a2.52 2.52 0 0 1 2.92-2.05 2.47 2.47 0 0 1 2.08 2.12z"/>
    <path d="M337.82 616.52c.74 2.52 1.76 4.67 3.08 6.53 1.37 1.83 3 3.36 4.86 4.51 1.87 1.12 3.96 1.89 6.15 2.06l.82.03.41.02h.56l2.25-.01 4.5-.02c12-.08 24.01-.1 36.01 0 12 .12 24.01.27 36.01.61l18 .45 1.99.04c.53-.01 1.06-.05 1.59-.12 1.06-.15 2.12-.44 3.15-.89 2.09-.9 4.06-2.38 5.86-4.57l.07-.09c.55-.67 1.53-.76 2.2-.21.39.32.58.79.57 1.26-.11 3.51-2.04 7.01-5 9.36a14.56 14.56 0 0 1-5.08 2.63c-.93.27-1.89.46-2.86.54l-.73.05c-.25.02-.49.03-.65.03l-1.13.03-18 .45c-12 .34-24.01.49-36.01.61-12 .1-24.01.08-36.01 0l-4.5-.02-2.25-.01h-.56l-.71-.03-1.43-.08c-3.79-.35-7.52-1.66-10.69-3.78-3.15-2.15-5.69-5.17-7.22-8.6-1.49-3.44-1.98-7.27-1.28-10.75a3.057 3.057 0 0 1 3.6-2.39c1.15.23 2.02 1.08 2.33 2.13zm133.22-237.98c-12.85 1.48-25.73 2.7-38.6 3.85L413.11 384l-19.33 1.45-19.33 1.44-19.34 1.33c-12.89.89-25.79 1.69-38.7 2.41l3.72-4.14 2.75 46.79-5.19-4.81c14.72-.69 29.45-1.22 44.18-1.82 14.73-.58 29.46-1.02 44.19-1.54 14.73-.51 29.46-1.01 44.2-1.42l44.2-1.24-4.09 4.54-.69-13.03c-.22-4.34-.48-8.69-.67-13.03-.09-2.17-.16-4.35-.19-6.53-.06-2.18-.07-4.35-.06-6.53.03-4.36.12-8.73.5-13.11a2.024 2.024 0 0 1 3.99-.26c.94 4.3 1.59 8.61 2.18 12.93.29 2.16.56 4.32.78 6.49.25 2.16.46 4.33.65 6.5.37 4.33.67 8.67 1.02 13.01l.99 13.01a4.205 4.205 0 0 1-3.88 4.52l-.1.01-.11.01-44.17 2.14c-14.72.71-29.45 1.34-44.17 1.96-14.73.61-29.45 1.29-44.18 1.84-14.73.53-29.46 1.13-44.19 1.56h-.15c-2.7.08-4.96-2.05-5.04-4.75v-.07l-.75-46.87v-.03a4.075 4.075 0 0 1 3.72-4.11c12.88-1.05 25.77-2.01 38.67-2.89l19.34-1.32 19.35-1.2 19.35-1.2 19.36-1.04c12.91-.61 25.83-1.16 38.77-1.44a2.51 2.51 0 0 1 2.56 2.45c.03 1.29-.95 2.38-2.21 2.53zm-252.36-98.92c14.76-1.73 29.58-2.47 44.38-3.47l44.41-2.89c29.6-1.97 59.21-3.88 88.83-5.4s59.26-2.86 88.91-3.78c7.41-.27 14.83-.46 22.24-.64l11.12-.28 11.13-.2c14.84-.27 29.68-.43 44.53-.32a2.51 2.51 0 0 1 2.49 2.52 2.501 2.501 0 0 1-2.24 2.47c-14.77 1.57-29.56 2.87-44.35 4.05l-11.09.89-11.1.81c-7.4.55-14.8 1.09-22.2 1.55-29.6 1.99-59.22 3.57-88.85 4.96s-59.28 2.4-88.93 3.34l-44.48 1.48c-14.83.46-29.64 1.17-44.5.91a3.005 3.005 0 0 1-2.95-3.06 2.992 2.992 0 0 1 2.65-2.94zm36.29 49.14c11.99-2.15 24.04-3.25 36.1-4.21l18.09-1.45 18.09-1.33c24.13-1.67 48.29-2.95 72.44-4.25 12.07-.68 24.16-1.21 36.24-1.82l36.25-1.56c24.18-.83 48.32-2.29 72.59-1.56a2.011 2.011 0 0 1 .23 4c-24.03 3.51-48.18 4.83-72.29 6.78l-36.19 2.61c-12.07.78-24.13 1.64-36.21 2.35-24.14 1.49-48.28 2.98-72.45 4.1l-18.13.76-18.13.63c-12.09.43-24.19.71-36.34-.04a2.525 2.525 0 0 1-2.36-2.67c.07-1.2.95-2.14 2.07-2.34zM147.33 529.63c4.72-2.92 9.57-5.63 14.58-7.98 2.48-1.22 5.03-2.29 7.55-3.43 2.56-1.03 5.09-2.14 7.68-3.09 10.32-3.91 20.88-7.11 31.56-9.74 21.38-5.27 43.22-8.4 65.14-9.89 10.96-.73 21.95-1.02 32.93-.92 10.98.11 21.95.72 32.89 1.66 10.94.91 21.83 2.34 32.66 4.02 10.84 1.67 21.59 3.91 32.29 6.25 10.68 2.47 21.3 5.22 31.81 8.34 10.39 2.95 20.78 5.76 31.38 7.76 21.15 4.13 42.63 6.33 64.13 7 21.5.64 43.05.03 64.5-2.06 10.72-1.05 21.43-2.38 32.08-4.12 10.63-1.75 21.31-3.75 31.74-6.37l.05-.01c.8-.2 1.62.29 1.82 1.09.18.74-.21 1.48-.89 1.76-5.15 2.08-10.33 3.8-15.59 5.39a263.89 263.89 0 0 1-15.89 4.27c-10.67 2.57-21.49 4.54-32.37 6.05-21.76 2.99-43.82 4.05-65.8 3.06-10.98-.58-21.94-1.6-32.84-3.05-10.9-1.41-21.71-3.5-32.44-5.8l-8.03-1.82-7.98-2.03c-1.33-.34-2.66-.66-3.99-1.02l-3.96-1.13-7.9-2.25c-10.37-3.01-20.82-5.72-31.38-7.97-42.26-8.92-85.67-11.6-128.66-9.17-21.5 1.25-42.91 4.02-63.94 8.55-10.5 2.3-20.9 5.04-31.08 8.44a181.43 181.43 0 0 0-29.5 12.52l-.05.03c-1.22.65-2.73.19-3.38-1.03-.63-1.18-.23-2.62.88-3.31zm437.94-68.28-.38-19.84 1.42 3.54-39.64-38.47 5.89-2.56.5 54.32-1.85-3.38L568.29 467l-2.28-.39 16.86-2.32c.82-.11 1.58.46 1.7 1.29.1.73-.35 1.42-1.03 1.64l-16.19 5.24c-.67.22-1.36.13-1.93-.2l-.35-.2-18.15-10.36a3.692 3.692 0 0 1-1.86-3.22v-.15l.5-54.32a3.517 3.517 0 0 1 5.87-2.58l.03.03 41.01 37.01.17.16c.98.88 1.4 2.17 1.24 3.38l-2.62 19.67a3.016 3.016 0 0 1-3.38 2.59 2.98 2.98 0 0 1-2.61-2.92zm-13.76 14.31 20.16-5.9c2.6-.76 5.35.62 6.29 3.16l1.37 3.71c.97 2.63-.33 5.55-2.94 6.59l-19.33 7.66c-2.63 1.04-5.62-.23-6.68-2.86l-2.21-5.46c-1.13-2.84.41-6.04 3.34-6.9z"/>
    <path d="m551.8 402.82 17.16 39.96a2.5 2.5 0 0 1-4.57 2.02l-18.07-39.55a3.009 3.009 0 0 1 1.48-3.98c1.51-.69 3.29-.02 3.98 1.48 0 .02.01.05.02.07z"/>
    <circle cx="567.8" cy="446.22" r="6.58"/>
</svg>
