<svg fill="none" height="281" viewBox="0 0 347 281" width="347" xmlns="http://www.w3.org/2000/svg"><path d="m127.345 195.46c0 28.781-15.677 49.911-38.1319 58.927-7.4272 2.969-15.569 4.616-24.1438 4.789-.4548.022-.9311.022-1.3859.022-35.1655 0-63.6834-28.542-63.6834-63.716 0-12.418 2.98821-24.013 8.61816-33.83 1.44404-2.558 3.09524-4.994 4.93704-7.282l2.187-2.601.0866-.108c11.0001-12.266 27.327-19.895 47.8546-19.895 35.1656-.065 63.6616 28.477 63.6616 63.694z" fill="#ffcb56"/><path d="m247.999 78.7346-9.722 9.7091-42.788-42.8673c1.641-2.8773 3.502-5.6234 5.565-8.2138l2.469-2.9474.108-.1083z" fill="#ff3857"/><path d="m59.1796 101.339c-2.1976-2.3732-4.258-4.8695-6.1713-7.4773-.628-.8669-2.1004-.0217-1.4508.8452 1.9811 2.7377 4.1289 5.3501 6.4311 7.8241.7362.823 1.9272-.391 1.191-1.192z" fill="#f674b4"/><path d="m74.3804 66.4032v4.5078c0 1.0836 1.689 1.0836 1.689 0v-4.5078c0-1.1052-1.689-1.1052-1.689 0z" fill="#f674b4"/><path d="m260.494 180.138 9.289-2.861-2.685 9.601z" fill="#ffcf58"/><path d="m236.155 108.837-7.124 5.526 7.124 5.96 6.409-5.96z" fill="#7baeed"/><path d="m246.224 208.442c-1.646-1.517-3.443-2.839-4.937-4.508-.737-.823-1.928.39-1.191 1.192 1.494 1.669 3.313 2.991 4.937 4.508.801.758 1.992-.455 1.191-1.192z" fill="#ffcf58"/><path d="m17.9292 31.2728v11.9847l12.3209-9.1457z" fill="#7baeed"/><g fill="#000200"><path d="m278.163 60.1183c-4.466-.0052-8.748-1.7832-11.907-4.9441-3.158-3.1609-4.934-7.4466-4.94-11.9168 0-9.9258 6.93-16.8608 16.847-16.8608 4.466.0051 8.748 1.7832 11.907 4.9441 3.158 3.1609 4.934 7.4465 4.94 11.9167 0 9.7741-7.081 16.8609-16.847 16.8609zm0-32.0313c-8.921 0-15.158 6.2415-15.158 15.1704.005 4.0221 1.603 7.8781 4.445 10.7221s6.694 4.4438 10.713 4.4484c8.791 0 15.158-6.3716 15.158-15.1705-.005-4.022-1.603-7.878-4.445-10.722s-6.694-4.4438-10.713-4.4484z"/><path d="m266.167 155.15c-.119 0-.236-.026-.344-.074-.108-.049-.205-.119-.284-.207-2.732-3.084-4.242-7.062-4.244-11.183 0-9.926 6.929-16.861 16.846-16.861 4.467.005 8.749 1.783 11.907 4.944s4.935 7.447 4.94 11.917c.012 1.858-.258 3.706-.801 5.483-.039.121-.104.232-.19.326-.086.093-.191.167-.308.216-8.553 3.424-17.821 5.244-27.522 5.439zm11.996-26.635c-8.921 0-15.157 6.242-15.157 15.171-.003 3.575 1.255 7.036 3.551 9.774 9.203-.217 17.994-1.951 26.157-5.18.414-1.496.618-3.042.607-4.594-.005-4.022-1.603-7.878-4.445-10.722s-6.694-4.444-10.713-4.449z"/><path d="m283.079 116.097c-4.483.014-8.882-1.218-12.705-3.56-3.824-2.342-6.922-5.702-8.949-9.703-.091-.2-.102-.427-.03-.634.072-.208.221-.38.416-.48.195-.101.421-.122.632-.06.21.062.388.203.498.394 1.889 3.718 4.772 6.838 8.327 9.015s7.643 3.325 11.811 3.316c13.1 0 22.606-9.514 22.606-22.6255-.005-5.9992-2.388-11.7515-6.626-15.9936-4.239-4.2422-9.986-6.6274-15.98-6.632-13.317 0-22.607 9.2973-22.607 22.6256 0 .2242-.089.4392-.247.5977-.159.1585-.373.2475-.597.2475s-.439-.089-.597-.2475c-.159-.1585-.248-.3735-.248-.5977 0-14.3252 9.983-24.316 24.296-24.316 6.442.0051 12.618 2.5687 17.173 7.1277 4.556 4.559 7.117 10.7409 7.122 17.1883 0 14.1085-10.22 24.3375-24.295 24.3375z"/><path d="m285.395 34.4803c-2.988 4.3561-6.366 8.8639-8.033 13.9351-1.797-2.1455-3.486-4.3777-5.284-6.5233-.714-.8235-1.905.3685-1.191 1.192 2.122 2.514 4.071 5.1796 6.237 7.6719.411.4768 1.256.2167 1.407-.3684 1.386-5.5697 5.154-10.4243 8.337-15.0621.606-.8886-.866-1.7338-1.473-.8452z"/><path d="m282.255 139.85c-1.992 2.969-3.767 6.09-6.019 8.885-1.343-1.148-2.339-2.622-3.66-3.814-.801-.737-1.992.455-1.191 1.192 1.603 1.452 2.794 3.273 4.548 4.551.16.092.347.129.53.106.184-.024.355-.106.487-.236 2.577-3.056 4.548-6.523 6.756-9.839.607-.91-.844-1.755-1.451-.845z"/><path d="m281.324 75.3538v21.7587c0 1.0836 1.689 1.0836 1.689 0v-21.7587c0-1.0836-1.689-1.0836-1.689 0z"/><path d="m282.797 104.633c.173-.802.325-1.626.433-2.428.152-1.061-1.494-1.43-1.645-.346-.109.823-.26 1.625-.434 2.427-.238 1.062 1.408 1.43 1.646.347z"/><path d="m244.275 130.878h-33.476c-.224 0-.439-.089-.598-.248-.158-.158-.247-.373-.247-.598 0-.224.089-.439.247-.597.159-.159.374-.248.598-.248h33.476c.224 0 .439.089.597.248.159.158.248.373.248.597 0 .225-.089.44-.248.598-.158.159-.373.248-.597.248z"/><path d="m244.275 45.0129h-22.541c-.224 0-.439-.0891-.597-.2476-.159-.1585-.248-.3735-.248-.5977 0-.2241.089-.4391.248-.5976.158-.1585.373-.2476.597-.2476h22.541c.112-.0017.222.0189.325.0608.104.0418.197.104.276.1829.079.0788.141.1727.183.276.042.1034.062.2141.061.3255 0 .111-.022.2209-.065.3235-.042.1025-.104.1957-.183.2742-.078.0785-.171.1407-.274.1832-.102.0425-.212.0644-.323.0644z"/><path d="m247.285 92.3447h-53.939c.13.5635.238 1.1269.325 1.6904h53.636c.111.0018.222-.0189.325-.0607.103-.0419.197-.1041.276-.1829.078-.0789.141-.1727.182-.2761.042-.1033.063-.214.061-.3255-.012-.2238-.108-.4349-.269-.5914-.16-.1565-.373-.2471-.597-.2538z"/><path d="m264.608 164.946c-17.199-.002-33.968-5.382-47.963-15.387-10.643-7.648-19.317-17.718-25.307-29.38s-9.124-24.5823-9.144-37.6951c0-48.5671 33.888-82.4839 82.414-82.4839 45.429 0 82.392 36.9942 82.392 82.4839 0 47.7871-34.668 82.4621-82.392 82.4621zm0-163.25558c-47.53 0-80.725 33.22328-80.725 80.79348.001 16.4187 5 32.4471 14.33 45.9521 9.331 13.504 22.55 23.843 37.898 29.64 9.105 3.447 18.762 5.202 28.497 5.18 46.772 0 80.703-33.96 80.703-80.7721 0-44.5578-36.205-80.79348-80.703-80.79348z"/><path d="m264.608 155.172c-40.059 0-72.648-32.616-72.648-72.6881 0-14.0435 3.4-27.3718 9.831-38.5546 1.657-2.9163 3.54-5.6988 5.63-8.3221l2.49-2.9691s.108-.13.13-.13c13.317-14.867 32.199-22.71232 54.567-22.71232 40.038 0 72.626 32.61642 72.626 72.70982 0 31.1644-16.262 56.2824-43.502 67.2054-8.575 3.445-17.842 5.266-27.522 5.461zm0-143.7075c-21.892 0-40.319 7.6503-53.311 22.1489l-2.555 3.0341c-2.033 2.5563-3.864 5.2662-5.479 8.1053-6.279 10.9444-9.614 23.991-9.614 37.7311 0 39.1401 31.831 70.9981 70.959 70.9981.52 0 1.039 0 1.537-.022 9.485-.173 18.558-1.972 26.938-5.331 26.569-10.663 42.441-35.196 42.441-65.6451 0-39.1614-31.81-71.0194-70.916-71.0194z"/><path d="m162.186 281c-.154 0-.305-.045-.433-.13l-13.036-7.997c-.186-.112-.321-.292-.377-.503-.057-.21-.03-.433.074-.624l13.122-23.666c.109-.195.292-.339.507-.4s.446-.034.641.075.339.292.4.507.034.446-.075.642l-12.733 22.95 11.607 7.131 15.894-26.18c.121-.184.31-.314.525-.361.215-.048.44-.011.628.105.188.115.324.298.38.512.055.213.026.44-.083.632l-16.326 26.917c-.117.193-.303.332-.52.39z"/><path d="m194.277 228.12c-.154.001-.305-.045-.433-.13-.189-.12-.325-.31-.377-.528-.053-.218-.018-.449.095-.642l41.532-68.419c.122-.184.31-.313.525-.361s.441-.01.629.105.324.299.379.512c.055.214.026.441-.082.633l-41.532 68.418c-.08.124-.188.226-.317.298-.128.072-.272.111-.419.114z"/><path d="m179.444 218.108c-.144-.006-.284-.043-.412-.109-.098-.052-.185-.124-.255-.211s-.121-.187-.151-.294c-.031-.107-.039-.219-.025-.33s.05-.217.106-.313l37.7-68.397c.054-.097.126-.182.213-.251s.187-.12.293-.15c.107-.03.218-.039.328-.026s.217.048.313.102c.097.054.182.126.251.213.068.087.119.187.149.294.03.106.039.218.026.328s-.047.216-.101.313l-37.699 68.397c-.073.131-.18.24-.31.317-.129.076-.276.116-.426.117z"/><path d="m194.277 228.12c-.154 0-.305-.045-.434-.13-.189-.12-.324-.31-.376-.528-.053-.218-.019-.449.095-.642l30.856-50.864c-5.586-2.861-11.194-5.635-16.695-8.258l-25.638 46.487c-.054.097-.126.182-.213.251-.087.068-.187.119-.293.149-.107.031-.218.04-.328.027s-.216-.048-.313-.102-.182-.127-.251-.214c-.068-.087-.119-.186-.149-.293s-.039-.218-.026-.328.047-.217.101-.314l26.028-47.18c.104-.188.277-.329.483-.394.205-.064.428-.047.621.048 6.02 2.839 12.17 5.873 18.276 9.037.103.053.195.127.269.216.075.089.13.193.164.304.059.227.028.467-.087.672l-31.354 51.644c-.08.124-.189.226-.317.298s-.272.111-.419.114z"/><path d="m166.17 274.455c-.144-.003-.285-.04-.411-.108l-13.512-7.802c-.191-.114-.331-.296-.392-.51-.06-.213-.036-.442.067-.639l9.636-17.316c.109-.195.291-.339.507-.4.215-.061.445-.034.641.075.195.109.339.292.4.507s.034.446-.076.642l-9.224 16.6 12.061 6.957 11.931-19.656c.122-.184.31-.314.525-.361.216-.048.441-.011.629.105.188.115.324.298.379.512.056.213.026.44-.082.632l-12.364 20.372c-.078.119-.184.216-.309.284-.124.068-.264.105-.406.106z"/><path d="m245.315 88.0319c-.225-.0038-.44-.0884-.607-.2384l-42.787-42.8673c-.13-.1325-.212-.3037-.236-.4875-.023-.1838.014-.3703.106-.5311 1.657-2.9163 3.54-5.6988 5.63-8.3221l2.49-2.969c.175-.1958.412-.3258.671-.3685.248-.0261.496.0437.693.1951l44.39 44.4277c.078.0805.139.1756.18.2797.04.1041.06.2153.058.3271-.003.2244-.088.4399-.238.6068l-9.722 9.7091c-.177.1473-.398.2312-.628.2384zm-41.749-43.8426 41.749 41.7838 8.531-8.5172-43.134-43.149-1.97 2.3622c-1.909 2.3754-3.638 4.8891-5.176 7.5202z"/><path d="m259.627 91.7812-5.088-13.5667-8.467 8.4738z"/><path d="m259.628 92.6264c-.103-.0038-.204-.0183-.304-.0434l-13.555-5.0929c-.131-.0483-.247-.1294-.338-.2357-.091-.1062-.154-.234-.181-.3711-.027-.1396-.019-.2836.023-.4195.041-.1359.115-.2597.215-.3607l8.466-8.4738c.103-.0968.227-.1687.362-.21.136-.0413.278-.051.418-.0284.137.0283.264.0908.37.1818s.187.2074.236.3384l5.089 13.5667c.044.1291.057.2669.039.4021-.019.1352-.07.2641-.148.376-.078.112-.182.2039-.302.2683-.12.0643-.254.0994-.39.1022zm-12.04-6.2632 10.589 3.9659-3.963-10.5976z"/><path d="m177.885 254.083c-4.352 0-10.329-1.755-18.362-7.195-8.813-5.96-11.823-5.765-24.491-4.984-7.557.476-17.907 1.105-34.559.823-54.3723-.975-81.6342-15.951-83.3015-45.793-1.9056-34.242 25.3131-51.905 45.9707-62.22 20.3977-10.186 56.6458-10.923 56.9928-10.923.223-.005.44.078.603.233.162.154.257.366.263.59 0 .223-.085.437-.238.599-.154.161-.363.257-.585.268-.368 0-36.2266.737-56.2779 10.75-20.2246 10.099-46.8802 27.371-45.0397 60.616 1.6024 28.781 28.323 43.236 81.6346 44.19 16.608.303 26.915-.347 34.429-.824 12.494-.78 16.262-1.018 25.551 5.266 14.941 10.1 21.979 6.914 24.837 4.118.162-.152.376-.234.598-.229s.432.098.586.258c.154.159.239.373.236.595s-.093.434-.251.59c-1.58 1.56-4.309 3.272-8.596 3.272z"/><path d="m183.039 209.309c-.161-.003-.318-.047-.455-.13-5.565-3.511-31.506-4.096-56.581-4.638-19.748-.433-40.146-.889-51.6008-2.774-10.004-1.647-15.3958-6.523-14.4214-13.068 1.1044-7.477 11.0217-15.366 21.6753-13.935.205.026.3932.126.5289.282s.2095.356.2074.563c0 .455-.1733 11.074-9.2678 18.919-.0835.075-.1812.133-.2872.17s-.2182.052-.3302.045c-.1119-.007-.2214-.037-.3218-.087-.1005-.05-.1901-.119-.2634-.204-.0734-.085-.1291-.184-.1639-.291-.0349-.106-.0481-.219-.0389-.331.0091-.112.0405-.221.0922-.32.0517-.1.1227-.188.2089-.26 7.1673-6.198 8.4232-14.39 8.6398-16.904-9.4627-.824-18.0159 6.046-18.9903 12.591-.8228 5.57 3.9193 9.644 13.0355 11.14 11.3249 1.863 31.6797 2.318 51.3627 2.752 26.461.585 51.471 1.127 57.447 4.898.094.059.175.137.239.228s.109.194.133.303.027.221.008.331c-.02.109-.06.214-.12.308-.078.126-.186.23-.315.302s-.274.11-.421.11z"/><path d="m62.0813 184.993c-.1693-.002-.3342-.054-.4733-.151-.139-.096-.2458-.233-.3062-.391-3.3564-8.756-19.8781-20.545-34.9707-18.291-.2187.026-.439-.034-.6137-.168-.1748-.134-.2901-.332-.3212-.55-.0312-.218.0243-.44.1545-.618.1303-.177.3249-.297.5422-.333 16.1103-2.406 33.1734 9.882 36.7896 19.353.0417.102.0624.212.0609.322-.0015.111-.0252.22-.0696.321s-.1088.192-.1891.268c-.0804.076-.1751.134-.2786.173-.1042.038-.2138.06-.3248.065z"/><path d="m194.45 225.693c-.563 1.279-1.386 1.387-1.711 1.409-3.876.433-11.714-7.607-13.576-12.158-.043-.103-.105-.196-.184-.274-.079-.079-.172-.141-.274-.183-.103-.042-.213-.064-.324-.064-.111.001-.22.023-.323.065-.102.043-.195.106-.273.184-.079.079-.141.172-.183.275-.042.102-.064.212-.063.323 0 .111.022.221.065.324 1.862 4.551 9.722 13.22 14.854 13.22.159.003.318-.004.476-.022 1.321-.152 3.01-.997 3.573-4.161-.709.306-1.396.661-2.057 1.062z"/><path d="m191.873 236.442c-3.313 0-7.384-1.083-12.148-4.096-.094-.06-.175-.137-.239-.228-.063-.092-.109-.194-.133-.303s-.026-.221-.007-.331c.019-.109.06-.214.119-.308.06-.094.138-.175.229-.239s.194-.109.302-.133c.109-.025.221-.027.331-.008.109.019.214.06.308.12 13.1 8.235 18.86.953 19.488.087 1.754-2.449.953-7.672-1.581-10.338-.078-.079-.14-.174-.181-.277-.042-.103-.063-.214-.062-.326.002-.111.025-.221.07-.324.044-.102.108-.195.188-.272.08-.078.175-.138.279-.179.104-.04.215-.06.326-.057s.221.027.323.073c.102.045.193.11.27.192 3.118 3.294 3.963 9.362 1.732 12.483-1.537 2.145-4.764 4.464-9.614 4.464z"/><path d="m189.405 243.811c-3.638 0-8.315-2.016-14.53-4.942-.101-.046-.193-.112-.269-.194-.076-.081-.134-.178-.173-.283-.038-.105-.055-.216-.05-.328.005-.111.033-.221.081-.321.098-.201.27-.356.48-.433s.441-.069.646.021c8.531 4.009 13.945 6.241 17.258 3.684 3.226-2.514 2.858-5.136 2.836-5.245-.031-.22.023-.444.152-.626s.323-.307.541-.349c.221-.036.447.017.63.147.182.13.306.326.345.547.021.151.584 3.706-3.465 6.87-1.285.981-2.866 1.493-4.482 1.452z"/><path d="m184.857 250.529c-3.637 0-8.315-2.015-14.529-4.941-.102-.046-.193-.112-.269-.194s-.135-.178-.173-.283-.055-.217-.05-.328c.005-.112.033-.221.08-.322.099-.201.271-.356.481-.432.21-.077.441-.07.645.02 8.532 4.009 13.945 6.242 17.258 3.684 3.227-2.514 2.859-5.136 2.837-5.244-.032-.221.022-.445.151-.627.129-.181.323-.306.542-.349.11-.019.222-.017.331.007.108.025.211.07.302.135s.168.147.226.241c.059.095.098.201.115.311.022.152.585 3.706-3.464 6.87-1.299 1.019-2.772 1.452-4.483 1.452z"/><path d="m71.847 201.225h-.0867c-.2221-.027-.4251-.139-.5664-.313s-.2099-.395-.1914-.619l2.685-24.359c.0235-.224.1347-.43.3092-.572.1744-.142.3981-.209.6219-.187.2222.028.4252.14.5665.314.1412.173.2099.395.1914.618l-2.685 24.36c-.0261.207-.1258.397-.2809.537-.1551.139-.3552.218-.5636.221z"/><path d="m82.0674 175.435-7.5571.564-1.126 16.861 5.8898-7.13z"/><path d="m142.351 147.153c-1.299-.007-2.596-.123-3.876-.346-8.51-1.431-16.933-8.973-19.835-15.171-1.386-2.947-1.537-5.526-.433-7.433.117-.183.3-.313.51-.363.211-.051.433-.018.62.091s.324.286.384.494.037.431-.063.623c-1.018 1.777-.282 4.161.52 5.851 2.728 5.808 10.61 12.873 18.6 14.217 4.374.737 7.384.282 8.943-1.365 1.364-1.431 1.711-3.858 1.039-7.217-.045-.218-.003-.446.119-.633s.313-.318.531-.364.446-.003.633.119c.186.122.317.313.363.531.801 3.945.303 6.892-1.472 8.734-1.429 1.495-3.638 2.232-6.583 2.232z"/><path d="m178.405 207.683c-.112.002-.222-.019-.326-.06-.103-.042-.197-.104-.275-.183-.079-.079-.141-.173-.183-.276-.042-.104-.063-.214-.061-.326 0-46.053-6.756-64.192-25.919-74.097-.105-.048-.199-.116-.277-.202-.078-.085-.137-.186-.175-.295s-.053-.224-.045-.34c.008-.115.04-.227.093-.33.052-.103.125-.193.214-.267s.192-.129.303-.161c.11-.033.226-.043.341-.029.115.013.225.05.325.107 19.857 10.251 26.829 28.759 26.829 75.593.002.112-.018.224-.06.329-.041.104-.103.2-.181.28-.079.081-.173.145-.276.189-.104.044-.215.068-.327.068z"/><path d="m165.521 206.015h-.065c-.224-.018-.432-.124-.578-.294-.146-.171-.219-.393-.202-.617l1.797-24.684c.009-.111.039-.219.09-.318.05-.1.119-.188.204-.261.084-.072.182-.127.288-.162.105-.034.217-.048.328-.039.111.008.219.039.318.089s.188.12.26.204c.072.085.127.183.162.289.035.105.048.217.039.328l-1.797 24.684c-.021.211-.119.407-.274.551-.156.144-.359.225-.57.23z"/><path d="m170.804 199.231c-1.658-.003-3.312-.17-4.937-.498-.221-.043-.416-.173-.542-.359-.126-.187-.172-.417-.129-.638s.172-.416.359-.542.416-.173.637-.13c7.795 1.495 11.541-1.127 11.585-1.149.088-.066.189-.115.297-.141.108-.027.22-.031.329-.013.11.019.214.059.308.119.093.06.173.138.235.231.066.088.114.188.141.294.027.107.032.218.016.327s-.053.213-.11.307c-.057.095-.132.177-.22.242-.13.086-2.707 1.95-7.969 1.95z"/><path d="m166.43 89.744c-.2.0004-.394-.0702-.547-.1992-.153-.1289-.255-.308-.289-.5053-.034-.1974.003-.4003.105-.5728.101-.1726.261-.3036.449-.3698 1.668-.5851 2.989-1.6037 3.357-2.579.084-.2177.118-.4515.099-.6842-.019-.2326-.09-.458-.208-.6594-.649-1.192-3.702-.9102-5.066-.5852-.214.0395-.435-.0047-.617-.1234-.182-.1188-.311-.303-.361-.5146-.05-.2115-.017-.4343.092-.6221.11-.1878.287-.3263.496-.3869.563-.1301 5.5-1.2137 6.951 1.4086.235.4148.377.8764.414 1.3521.038.4756-.03.9537-.198 1.4003-.563 1.4737-2.187 2.8174-4.374 3.5759-.093.0503-.198.0729-.303.065z"/><path d="m152.745 77.0659.563 1.582c.715 2.0589 3.919.9319 3.183-1.1269l-.563-1.5821c-.736-2.0588-3.919-.9319-3.183 1.127z"/><path d="m152.463 66.6199c-.844.6069-1.58 1.3654-2.468 1.8855-.931.5635-.238 2.1022.693 1.5387 1.017-.6068 1.862-1.4303 2.836-2.1238.91-.6285-.173-1.9288-1.061-1.3004z"/><path d="m148.89 125.481c-.213-.003-.418-.086-.573-.234-.154-.147-.248-.347-.262-.561-.013-.213.054-.424.189-.59.134-.166.327-.275.538-.305.13-.022 12.949-1.517 18.168-7.607 4.244-4.963 3.897-11.768-1.321-27.0034-.07-.2129-.055-.4446.041-.6466.097-.202.269-.3587.478-.437.213-.0737.446-.0603.649.0371.202.0974.359.271.434.483 4.742 13.8049 6.301 22.4519 1.018 28.6509-5.652 6.61-18.709 8.127-19.272 8.192-.025.017-.056.024-.087.021z"/><path d="m153.546 123.661-3.096 8.539c-3.682-1.366-5.544-5.418-6.172-9.059 3.065.476 6.169.651 9.268.52z"/><path d="m148.891 125.481c-6.864 0-12.841-14.802-17.648-26.6781-1.862-4.6161-3.963-9.8174-4.915-10.5759-4.613 1.387-7.687 3.2941-8.792 5.4613-.264.5034-.42 1.0567-.457 1.6241-.038.5675.045 1.1364.241 1.6701.209.5922.538 1.1348.966 1.5936.429.4587.948.8237 1.524 1.0721 1.776.8018 4.136.6498 6.864-.4335.103-.045.215-.0664.327-.0626.113.0037.223.0325.323.0843.104.0437.199.1087.277.1907.078.0821.139.1795.177.2861 2.252 5.9598 2.512 10.5328.78 13.2198-.953 1.495-2.533 2.362-4.417 2.492-6.063.369-9.181-3.445-15.093-18.5725l-4.504-12.7866c-3.291-9.3623-2.035-22.3438 22.693-31.0777 15.699-5.548 26.006-2.0155 30.662 10.4893 1.104 2.9691 2.1 5.5914 3.01 8.062 1.45 3.8576 2.75 7.2818 4.07 10.9877.037.1053.053.2169.047.3283-.006.1115-.034.2206-.082.3213-.048.1006-.116.1907-.199.2652s-.18.1318-.285.1688-.217.0529-.328.0468c-.112-.0061-.221-.0341-.321-.0824-.101-.0483-.191-.116-.265-.1991-.075-.0831-.132-.1801-.169-.2854-1.321-3.6842-2.598-7.1084-4.049-10.9444-.931-2.4489-1.927-5.0712-3.032-8.062-4.309-11.6379-13.641-14.737-28.518-9.4924-12.927 4.5728-27.175 13.285-21.675 28.9322l4.504 12.7649c5.977 15.279 8.597 17.771 13.425 17.489.953-.065 2.252-.411 3.119-1.712 1.342-2.08 1.126-5.938-.65-10.922-3.53 1.213-5.933.736-7.362.086-.779-.348-1.48-.85-2.061-1.4752-.58-.6256-1.028-1.3622-1.317-2.1655-.277-.7476-.392-1.545-.34-2.3404s.271-1.5708.643-2.2757c1.342-2.644 4.742-4.7896 10.069-6.3716 1.84-.2601 3.161 2.7957 6.734 11.6162 4.114 10.2072 10.351 25.6162 16.089 25.6382.111-.002.222.019.325.061.103.041.197.104.276.182.079.079.141.173.183.277.041.103.062.214.06.325-.043.213-.155.406-.32.547s-.372.223-.589.233z"/><path d="m147.786 142.515c-.095-.005-.189-.019-.281-.043-.209-.072-.381-.225-.479-.424-.097-.199-.112-.428-.041-.638l5.76-17.034c.033-.107.087-.206.159-.292s.161-.156.261-.207c.099-.051.208-.081.32-.089s.224.006.33.043c.106.036.203.093.287.168.083.075.151.166.198.267.048.101.075.211.079.323.005.112-.014.224-.053.329l-5.76 17.034c-.057.162-.162.304-.301.404-.14.101-.307.157-.479.159z"/><path d="m142.221 96.5707c-3.659 0-5.738-7.3251-8.379-16.6008-.91-3.2074-1.863-6.5016-2.88-9.514-.628-1.8205-.585-3.4242.13-4.7895 1.515-2.9258 5.694-4.1177 10.09-5.3747 4.244-1.2136 8.64-2.4706 9.744-5.2663.089-.202.252-.3616.456-.4453.204-.0838.433-.085.638-.0036.204.0814.37.2392.461.4402.09.201.1.4294.026.6372-1.407 3.5542-6.215 4.9412-10.848 6.2632-3.877 1.1053-7.861 2.2539-9.052 4.5295-.498.9535-.498 2.0805-.021 3.4675 1.039 3.0558 1.992 6.3716 2.901 9.6007 2.057 7.2168 4.374 15.3655 6.756 15.3655h.022c1.299-.0433 4.049-1.3436 6.951-2.7523 5.911-2.8391 13.273-6.3933 17.647-3.966.097.054.182.1267.251.2136.068.087.119.1867.149.2934.031.1066.04.2182.027.3283s-.048.2165-.102.3133-.126.1819-.213.2506-.187.1196-.293.1498c-.107.0302-.218.0391-.328.0262-.11-.013-.217-.0474-.313-.1015-3.617-2.0155-10.827 1.4737-16.089 4.0093-3.335 1.6037-5.955 2.8824-7.622 2.9257z"/><path d="m118.922 129.989c-.073.004-.146-.004-.216-.022-.108-.028-.208-.078-.296-.146-.088-.069-.161-.154-.216-.251-.054-.097-.089-.203-.101-.314-.013-.11-.003-.222.028-.329l3.963-14.563c.029-.107.08-.207.148-.294.069-.087.154-.16.25-.215.097-.054.203-.089.313-.102s.221-.005.328.025.206.081.293.149c.087.069.16.154.215.25.054.097.089.203.102.313s.004.222-.025.329l-3.963 14.563c-.058.174-.168.326-.315.434-.148.109-.325.169-.508.173z"/><path d="m161.082 95.9639c-.566-.3447-1.152-.6558-1.754-.9319-.975-.4551-1.559 1.127-.563 1.5821.468.2196.924.4656 1.364.7368.91.5635 1.884-.8018.953-1.387z"/></g></svg>