<svg width="384" height="242" fill="none" xmlns="http://www.w3.org/2000/svg">
    <rect width="384" height="242" rx="12" fill="#F5F0FD"/>
    <path d="M245.634 186.614c-1.278-1.425.771-3.595 2.049-2.154a9.276 9.276 0 0 0 1.972 1.684l-.185-9.101c-1.771.486-3.543 1.02-5.299 1.587-1.802.583-2.557-2.381-.77-2.948l.138-.048a14.318 14.318 0 0 1 5.87-1.83l-1.279-61.46L64 130.126l3.605 74.885 148.283-.809a35.18 35.18 0 0 1-1.586-2.656c-1.017-1.004-2.064-1.976-2.973-3.094-.493-.291-.986-.566-1.464-.858a49.629 49.629 0 0 0-2.033-1.117c-.539-.276-1.171-.583-1.494-1.134-.524-.874.046-1.636.908-1.781-.092-.26-.169-.535-.261-.794-.586-.146-1.125-.389-1.402-.955-.401-.81.061-1.636.755-2.073.107-.146.231-.292.385-.405.108-.097.215-.178.323-.259-.955-.794-.678-2.77.847-2.737.909.048 1.341.048 1.71.129.894.097 1.787.276 2.65.502-.277-.89.447-1.976 1.386-2.008 1.618-.065 3.127.454 4.421 1.36a.32.32 0 0 1 .262.049 27.284 27.284 0 0 1 6.948 5.247c.015.016.031.016.046.033-.493-2.3-1.001-4.6-1.787-6.835-.585-1.652 1.895-2.672 2.65-1.182 1.278 2.51 1.463 3.709 3.127 5.96 2.264 3.045 6.593 6.51 10.167 7.304 3.342.745 6.87.324 10.259.777.046 0 .077.016.123.016l-.169-8.065a12.923 12.923 0 0 1-4.052-3.012Z" fill="#AF8EF3"/>
    <path d="m237.64 165.058-3.22-32.454-46.86 12.227 3.697 36.843 46.383-16.616Z" fill="#fff"/>
    <path d="M229.228 57.993c-10.706 1.118-21.843-2.154-30.932-11.255-3.559-3.58-6.609-7.741-9.212-12.308h21.12c8.195 6.526 14.742 14.56 19.024 23.563Z" fill="#D7C6F9"/>
    <path d="M163.59 177.674c-1.355 2.462-2.711 4.907-4.051 7.369-.385.68.631 1.312 1.016.615 1.356-2.461 2.712-4.907 4.052-7.368.37-.68-.632-1.296-1.017-.616ZM247.961 45.28c-1.356-1.554-2.711-3.093-4.052-4.647-.508-.583-1.34.291-.831.874 1.355 1.555 2.711 3.093 4.051 4.648.508.583 1.34-.291.832-.874Z" fill="#000091"/>
    <path d="m92.714 161.771 2.619 5.798 7.271-1.766-4.945-5.15-4.945 1.118Z" fill="#D7C6F9"/>
    <path d="M160.139 191.991c-1.494.647-2.973 1.311-4.467 1.959-.693.308-.385 1.49.308 1.182 1.494-.647 2.973-1.311 4.467-1.959.694-.292.385-1.49-.308-1.182Z" fill="#000091"/>
    <path d="M318.929 226a.62.62 0 0 1-.323-.097l-29.716-20.017c-9.936 5.555-21.674 9.004-34.875 10.251-.478.033-.94.016-1.387-.016l-.231-.016c-9.335-.178-18.27-1.863-26.526-5.021-26.296-10.057-41.993-33.183-41.993-61.897 0-1.198.031-2.413.092-3.595a.599.599 0 0 1 .617-.583c.323.016.57.308.554.648a67.074 67.074 0 0 0-.092 3.53c0 28.163 15.404 50.869 41.222 60.731 8.134 3.11 16.93 4.778 26.157 4.94l.246.016c.416.016.817.049 1.233.016 13.186-1.231 24.878-4.696 34.737-10.284a.559.559 0 0 1 .678.098l.046.048 28.976 19.531c.277-7.595 1.71-53.621-2.188-80.715l-.169-1.215c-.462-3.028-1.001-5.765-1.571-8.081-.201-.81-.401-1.684-.632-2.64-2.08-8.875-5.237-22.252-15.096-32.649-.031-.016-.047-.049-.077-.065a41.77 41.77 0 0 0-7.995-6.607c-1.649-1.053-3.528-2.04-5.546-2.915-3.466-1.507-7.548-2.77-12.478-3.887l-.985-.21h-.047c-5.607-1.183-11.538-1.782-17.622-1.782-6.101 0-12.139.761-17.962 2.25-.308.082-.632-.129-.709-.453a.629.629 0 0 1 .432-.744c5.915-1.523 12.061-2.284 18.239-2.284 6.161 0 12.169.615 17.853 1.814l1.048.227c5.006 1.133 9.15 2.429 12.678 3.951 2.079.907 4.005 1.911 5.715 2.996a43.401 43.401 0 0 1 8.149 6.737c.031.017.046.033.077.065 10.136 10.64 13.479 24.827 15.466 33.297.216.939.431 1.814.632 2.623.585 2.365 1.124 5.134 1.602 8.211l.169 1.231c4.236 29.572 2.172 81.509 2.157 82.028-.016.226-.124.421-.308.518-.062-.016-.154.016-.247.016Z" fill="#2E2E2E"/>
    <path d="M255.678 182.84a.62.62 0 0 1-.108.049l-4.59 2.656a.7.7 0 0 0-.247.275c.57.114 1.156.179 1.726.292l3.681-2.138c.016 0 .016-.016.031-.016-.169-.389-.339-.745-.493-1.118Zm13.479-6.494c-.2 0-.4-.113-.508-.324a.65.65 0 0 1 .231-.842l4.821-2.785-25.787-5.717a.591.591 0 0 1-.462-.518l-5.73-44.617-25.88 7.206c-.308.081-.632-.113-.724-.437a.645.645 0 0 1 .416-.761l26.527-7.401a.56.56 0 0 1 .477.081.67.67 0 0 1 .262.437l5.761 44.876 26.927 5.976c.247.049.416.259.463.518a.607.607 0 0 1-.293.632l-6.193 3.595a.85.85 0 0 1-.308.081Z" fill="#2E2E2E"/>
    <path d="M194.723 186.096a.581.581 0 0 1-.555-.421c-.108-.324.062-.681.37-.778l53.3-19.418a.569.569 0 0 1 .739.389c.108.324-.062.68-.37.778l-53.299 19.417a.37.37 0 0 1-.185.033Zm-.138-8.503a.533.533 0 0 1-.308-.097.598.598 0 0 1-.262-.453l-3.389-33.718c-.031-.34.2-.648.524-.68a.605.605 0 0 1 .647.55l3.312 32.941 45.258-16.211-3.096-31.273-31.256 8.162a.582.582 0 0 1-.709-.453c-.077-.324.108-.664.432-.745l31.918-8.324a.51.51 0 0 1 .477.097.6.6 0 0 1 .247.437l3.219 32.455a.616.616 0 0 1-.4.648l-46.383 16.616a.833.833 0 0 1-.231.048Z" fill="#2E2E2E"/>
    <path d="M199.991 149.884a.597.597 0 0 1-.57-.486c-.077-.34.123-.664.447-.729l15.681-3.66a.575.575 0 0 1 .693.47c.078.34-.123.664-.446.729l-15.682 3.66c-.031.016-.077.016-.123.016Zm1.541 10.834a.581.581 0 0 1-.57-.469c-.077-.324.108-.664.431-.745l11.215-2.98a.581.581 0 0 1 .708.453c.077.324-.108.664-.431.745l-11.215 2.98c-.03.016-.077.016-.138.016Zm46.274 27.386a.587.587 0 0 0-.801-.259l-11.476 6.478a.612.612 0 0 0-.185.162c.308.291.631.55.955.793l11.245-6.348a.612.612 0 0 0 .262-.826Z" fill="#2E2E2E"/>
    <path d="M194.585 177.593a.533.533 0 0 1-.308-.097.598.598 0 0 1-.262-.453l-3.389-33.718c-.031-.34.2-.648.524-.68a.605.605 0 0 1 .647.55l3.312 32.941 45.258-16.211-3.096-31.273-31.256 8.162a.582.582 0 0 1-.709-.453c-.077-.324.108-.664.432-.745l31.918-8.324a.51.51 0 0 1 .477.097.6.6 0 0 1 .247.437l3.219 32.455a.616.616 0 0 1-.4.648l-46.383 16.616a.833.833 0 0 1-.231.048Zm52.821 20.455c-9.49 0-15.097-4.422-17.022-6.284-1.957-1.879-2.742-3.725-3.389-5.215-.447-1.02-.832-1.911-1.479-2.591-.709-.729-1.202-.826-1.371-.713-.247.178-.478 1.215.37 3.272 1.463 3.546.955 4.874.831 5.117a.598.598 0 0 1-.416.324.547.547 0 0 1-.492-.162c-2.003-1.992-7.857-7.045-10.907-6.607-.616.081-1.078.405-1.402.971-.169.292-.523.389-.801.211a.629.629 0 0 1-.2-.842c.508-.891 1.263-1.409 2.249-1.555 3.389-.486 8.811 4.097 10.968 6.073-.077-.648-.308-1.619-.878-3.028-.94-2.3-.924-4.081.046-4.778.355-.259 1.34-.696 2.85.842.817.843 1.263 1.863 1.725 2.964.632 1.458 1.341 3.093 3.112 4.81 2.727 2.64 13.109 10.575 32.072 2.283 14.973-6.558 17.176-21.539 19.133-34.77 1.448-9.814 2.695-18.284 8.734-21.944a.58.58 0 0 1 .801.226c.154.292.062.681-.216.843-5.561 3.352-6.762 11.563-8.164 21.053-1.987 13.539-4.252 28.908-19.841 35.726-6.362 2.769-11.784 3.774-16.313 3.774Z" fill="#2E2E2E"/>
    <path d="M222.281 193.626a.537.537 0 0 1-.308-.097c-1.833-1.214-3.188-2.316-4.375-3.271-2.587-2.089-4.143-3.353-7.871-3.563-1.294-.081-2.557.761-2.665 1.312-.062.291.539.534.724.599.308.113.462.47.37.777a.587.587 0 0 1-.74.389c-1.571-.567-1.571-1.587-1.494-2.008.231-1.28 2.11-2.413 3.882-2.316 4.097.21 5.946 1.733 8.518 3.822 1.171.955 2.496 2.024 4.283 3.207.277.178.354.566.185.858a.591.591 0 0 1-.509.291Z" fill="#2E2E2E"/>
    <path d="M220.309 194.809c-7.902-5.685-11.892-7.806-14.603-5.264-.77.713-.817 1.393-.709 1.846.231 1.053 1.51 1.782 2.511 2.203.601.065 1.186.146 1.787.243a.686.686 0 0 0 .139-.259.645.645 0 0 0-.416-.761c-1.109-.308-2.727-1.085-2.881-1.717-.046-.178.077-.389.339-.632 2.126-1.975 5.946.146 13.171 5.361a.65.65 0 0 0 .323.113c.185 0 .37-.097.478-.275a.64.64 0 0 0-.139-.858Z" fill="#2E2E2E"/>
    <path d="M217.83 206.89a.567.567 0 0 1-.339-.113c-1.941-1.409-3.05-3.11-4.036-4.6-1.016-1.554-1.894-2.899-3.496-3.66-3.343-1.619-4.622-2.623-4.714-3.708-.031-.389.077-.94.77-1.458 1.926-1.409 3.743-1.069 10.182 3.628a.643.643 0 0 1 .154.858.588.588 0 0 1-.816.162c-6.578-4.81-7.641-4.518-8.842-3.644-.17.13-.277.259-.277.34.03.356.754 1.118 4.036 2.705 1.894.907 2.896 2.461 3.974 4.097.97 1.474 1.956 2.996 3.728 4.292a.643.643 0 0 1 .154.858.612.612 0 0 1-.478.243Zm8.749-13.879a.66.66 0 0 1-.293-.081l-1.756-1.036c-.277-.162-.385-.535-.231-.843a.582.582 0 0 1 .801-.243l1.756 1.037a.644.644 0 0 1 .231.842.557.557 0 0 1-.508.324Zm78.949-21.798a.603.603 0 0 0-.617.566c-.754 9.636-8.21 25.718-14.418 34.139a.588.588 0 0 0-.108.502.642.642 0 0 0 .308.421l9.258 5.118a.577.577 0 0 0 .277.065.548.548 0 0 0 .493-.292c4.175-7.093 5.33-38.544 5.377-39.872 0-.356-.247-.631-.57-.647Zm-75.822 41.183a.614.614 0 0 1-.569-.437c-.786-2.769.2-8.486 2.849-12.243 1.88-2.656 4.344-4.065 7.148-4.082.323 0 .585.276.585.616 0 .34-.262.615-.585.615-2.449.017-4.544 1.215-6.208 3.579-2.573 3.644-3.297 8.956-2.665 11.159a.622.622 0 0 1-.4.761.379.379 0 0 1-.155.032Zm44.55-33.863c-3.651 0-6.639-1.847-8.981-3.304-.462-.292-.909-.551-1.324-.81-4.637-2.704-10.953-4.049-13.51-1.247-.231.243-.601.259-.832.016a.637.637 0 0 1-.015-.874c2.988-3.288 9.766-1.976 14.911 1.02.431.259.878.534 1.356.826 3.081 1.911 6.932 4.292 11.877 2.494a.568.568 0 0 1 .739.389c.108.324-.062.68-.37.777-1.34.502-2.634.713-3.851.713Z" fill="#2E2E2E"/>
    <path d="M263.458 194.323a.82.82 0 0 1-.2-.033c-2.357-.923-4.93-1.554-7.394-2.17-4.93-1.231-9.197-2.283-10.583-5.182-.77-1.603-.786-2.721-.077-3.32 1.155-.939 3.558.291 4.821 1.441 1.063.956 3.944-.178 5.33-.874-.323-1.296-1.401-4.972-3.574-6.316-.862-.535-1.771-.632-2.803-.292-4.452 1.441-5.9 1.652-6.732 1.004-.554-.421-.616-1.117-.616-1.587 0-.632.477-1.312 1.417-1.976 2.465-1.765 7.779-3.401 11.384-1.894a.612.612 0 0 1 .324.793c-.124.324-.463.47-.755.34-3.112-1.295-8.011.194-10.213 1.717-.786.55-.971.923-.971 1.004 0 .227.031.518.139.599.585.454 3.912-.615 5.699-1.182 1.341-.437 2.604-.292 3.744.421 3.081 1.911 4.174 7.352 4.221 7.595.046.276-.062.535-.293.664-.509.276-5.053 2.721-7.04.94-1.309-1.166-2.973-1.685-3.327-1.393-.093.081-.201.534.4 1.798 1.14 2.396 5.345 3.433 9.797 4.534 2.511.616 5.115 1.263 7.533 2.203.308.113.462.469.354.793a.69.69 0 0 1-.585.373Zm-5.638-20.957a.535.535 0 0 1-.369-.145c-1.017-.891-3.436-1.118-4.005-1.102a.764.764 0 0 1-.278 0 .632.632 0 0 1-.138-1.149c.369-.211 3.727.048 5.16 1.295.247.211.277.599.077.875a.517.517 0 0 1-.447.226Zm10.567 18.058a.596.596 0 0 1-.57-.454c-1.079-4.356-.108-10.543 6.208-13.603.292-.146.647 0 .785.307a.642.642 0 0 1-.292.826c-5.669 2.753-6.547 8.276-5.577 12.179.077.324-.108.664-.416.745h-.138Zm16.376-75.42c-.123.923-.509 2.154-1.556 2.235-.755.065-.74 1.295.015 1.231 1.602-.13 2.465-1.604 2.681-3.158.107-.778-1.032-1.102-1.14-.308Zm-11.078 1.83c-.754 0-1.432-.162-1.941-.502-.585-.389-.939-.972-1.032-1.701-.292-2.154 2.896-3.692 3.266-3.87a.564.564 0 0 1 .77.308c.124.307 0 .68-.292.809-.894.421-2.712 1.587-2.573 2.559.046.373.216.632.493.826.616.405 1.772.421 2.942.032.308-.113.632.081.74.405a.64.64 0 0 1-.385.778 6.057 6.057 0 0 1-1.988.356Zm2.389-12.924.354 1.166c.462 1.506-1.787 2.268-2.234.745l-.354-1.166c-.447-1.522 1.787-2.267 2.234-.745Zm-4.205-6.202c.724-.016 1.448.097 2.157.016.739-.081 1.001 1.117.262 1.198-.817.081-1.633-.016-2.465.017-.755.016-.709-1.215.046-1.231Z" fill="#2E2E2E"/>
    <path d="M294.374 132.053c-2.464.891-5.36 1.539-7.794.972-4.421-1.02-7.071-5.134-10.537-16.292-.108-.324-.431-.502-.739-.389a.617.617 0 0 0-.37.777c3.142 10.122 5.884 15.839 11.399 17.118 2.619.6 5.623-.016 8.18-.907-.046-.437-.092-.858-.139-1.279Zm-20.18-19.094a.577.577 0 0 1-.554-.437c-.832-2.802-1.556-5.409-2.403-8.421-.493-1.766-1.017-3.644-1.618-5.766-1.633-5.749-.739-10.3 2.727-13.895a.566.566 0 0 1 .832 0 .638.638 0 0 1 0 .874c-3.128 3.256-3.913 7.402-2.419 12.665.601 2.121 1.125 4.016 1.617 5.782a407.776 407.776 0 0 0 2.388 8.388.64.64 0 0 1-.385.778c-.062.016-.123.032-.185.032Z" fill="#2E2E2E"/>
    <path d="M299.073 98.465a16.59 16.59 0 0 0-1.972.858c-9.659-1.134-18.963-4.761-26.527-11.353a12.348 12.348 0 0 1 2.188-3.093c4.421 1.004 8.688 2.235 12.57 3.92 1.972.858 3.866 1.83 5.638 2.963a42.187 42.187 0 0 1 8.103 6.705Zm.293 28.114a.581.581 0 0 1-.555-.421l-4.929-15.822a.664.664 0 0 1 .046-.486.616.616 0 0 1 .354-.308c1.957-.567 3.328-1.522 3.975-2.769a3.525 3.525 0 0 0 .262-2.656c-.247-.826-.755-1.442-1.495-1.83-1.54-.778-4.066-.518-7.317.745a.586.586 0 0 1-.755-.357c-.107-.323.047-.68.339-.793 3.605-1.425 6.378-1.652 8.242-.713 1.294.664 1.864 1.766 2.095 2.559a4.88 4.88 0 0 1-.355 3.628c-.523 1.004-1.648 2.332-4.113 3.174l4.745 15.223a.618.618 0 0 1-.37.778c-.046.048-.108.048-.169.048Z" fill="#2E2E2E"/>
    <path d="M316.788 143.471c-5.361 4.502-12.632 6.688-19.317 4.728-3.328-.971-6.578-3.109-8.041-6.494-1.741-4-.463-8.453 1.139-12.243 1.156-2.753 2.573-5.409 3.266-8.357.601-2.51-.631-8.696.632-10.947.678-1.183 5.9-2.171 4.19-6.381-1.941-4.794-9.12-.632-9.12-.632-8.333-3.466-12.523-9.652-18.947-15.174 3.974-.486 9.32-.017 14.757.825 1.972.859 3.867 1.83 5.638 2.964 18.024 11.482 21.598 32.358 24.062 42.334.601 2.413 1.125 5.166 1.587 8.146.031.405.092.809.154 1.231Z" fill="#2E2E2E"/>
    <path d="M280.758 87.096c-2.187-1.312-5.469-1.7-7.902-2.43-.077-.016-.139-.016-.201-.016a.55.55 0 0 0-.292-.13c-2.665-.323-7.333-.096-7.241 3.904.077 3.45 4.745 4.356 7.21 4.664 2.711.34 8.426-.21 9.458-3.725.293-1.069-.154-1.733-1.032-2.267Z" fill="#2E2E2E"/>
    <path d="m172.078 137.786-1.617.583-1.803 1.118-1.971.858 2.757 2.316 5.684-2.316-3.05-2.559Zm27.205-4.696-4.637 2.008-2.912 1.085-5.93 2.623 4.113 1.847 11.63-6.009-2.264-1.554Z" fill="#fff"/>
    <path d="M157.213 149.884c-16.729 0-32.688-4.454-46.151-12.859l-21.86 12.794a.569.569 0 0 1-.616-.032.61.61 0 0 1-.246-.583l3.65-29.232c-8.549-10.981-13.062-23.79-13.062-37.022 0-12.956 3.681-25.248 10.629-35.564a56.355 56.355 0 0 1 6.085-7.66l2.803-2.867C112.802 23.207 133.121 16 157.213 16c7.071 0 14.095.81 20.873 2.413 5.793 1.377 11.354 3.304 16.53 5.733 15.866 7.385 28.344 19.304 35.122 33.588 2.326 4.891 3.974 10.025 4.883 15.24.57 3.287.863 6.64.863 9.992 0 28.714-17.546 51.856-46.922 61.913-9.228 3.159-19.194 4.843-29.639 5.021-.554-.016-1.14-.016-1.71-.016Zm-46.136-14.187c.108 0 .216.032.308.081 13.356 8.421 29.207 12.875 45.844 12.875.57-.049 1.124 0 1.694-.016 10.321-.178 20.18-1.83 29.3-4.956 28.883-9.879 46.121-32.584 46.121-60.747 0-3.272-.278-6.56-.848-9.766a57.742 57.742 0 0 0-4.775-14.9c-6.67-14.024-18.932-25.75-34.552-33.005a83.128 83.128 0 0 0-16.298-5.652 90.553 90.553 0 0 0-20.627-2.38c-23.8 0-43.856 7.11-57.982 20.551l-.124.114-2.68 2.704a55.272 55.272 0 0 0-5.946 7.498C83.703 58.204 80.099 70.253 80.099 82.95c0 13.037 4.482 25.637 12.955 36.439a.577.577 0 0 1 .123.469l-3.528 28.277 21.135-12.373a.597.597 0 0 1 .293-.065Z" fill="#2E2E2E"/>
    <path d="M172.14 125.98c-.308 0-.555-.243-.585-.567l-7.056-90.935a.646.646 0 0 1 .154-.47.548.548 0 0 1 .432-.194h45.12c.323 0 .585.276.585.616 0 .34-.262.615-.585.615h-44.489l6.963 89.656 48.648-3.304c.308-.016.6.243.616.583.015.34-.231.631-.555.648l-49.217 3.336c0 .016-.016.016-.031.016Z" fill="#2E2E2E"/>
    <path d="M221.896 121.769a.582.582 0 0 0-.57-.372l-12.369.842a.588.588 0 0 0-.447.275.658.658 0 0 0-.077.535l2.603 8.534a.603.603 0 0 0 .401.405.474.474 0 0 0 .154.017.557.557 0 0 0 .4-.162l9.751-9.377a.599.599 0 0 0 .154-.697Zm-45.119 3.887a.61.61 0 0 1-.586-.551l-8.796-90.61c-.03-.34.201-.648.524-.68a.6.6 0 0 1 .647.55l8.796 90.611c.031.34-.2.648-.524.68h-.061Zm-58.291-75.809c.662-6.542.785-11.66 3.743-14.154 5.607-4.729 22.598-2.024 25.032.923-.754-5.377-4.22-10.332-15.343-10.72-13.155-.47-17.73 5.15-18.023 14.364l-.292 9.215.107.194c1.926-.162 2.835.114 4.776.178Z" fill="#2E2E2E"/>
    <path d="M135.369 99.469a.578.578 0 0 1-.4-.162l-17.438-16.584c-1.772-1.684-2.789-4.08-2.804-6.575l-.123-17.685c-2.419-.113-3.774-1.02-4.483-1.781a4.454 4.454 0 0 1-1.186-3.19c.031-.794.262-1.944 1.294-2.883 1.448-1.36 4.021-1.879 7.61-1.555.323.032.554.324.539.664a.608.608 0 0 1-.632.567c-3.219-.292-5.545.146-6.731 1.247-.57.534-.863 1.198-.894 2.008a3.198 3.198 0 0 0 .863 2.283c.878.94 2.326 1.425 4.221 1.425.323 0 .585.276.585.616l.123 18.284c.016 2.154.894 4.227 2.419 5.668l16.513 15.693.463-14.43c.015-.34.323-.631.6-.599.324.016.57.292.57.632l-.508 15.758a.624.624 0 0 1-.354.55.738.738 0 0 1-.247.049ZM65.11 58.156h-.232c-.323-.017-.57-.292-.57-.632.015-.34.324-.616.6-.6 1.018.033 1.865-.21 2.25-.68.216-.259.308-.566.246-.971-.107-.89-2.033-1.458-2.896-1.587-.292-.049-.508-.324-.508-.632l.17-5.28c.015-.34.323-.599.6-.599.324.017.57.292.57.632l-.154 4.745c1.032.227 3.173.907 3.374 2.559.092.761-.093 1.441-.54 1.96-.585.696-1.617 1.085-2.91 1.085Zm75.927-8.956-.03 1.15c-.047 1.49 2.141 1.57 2.187.08l.031-1.15c.061-1.473-2.141-1.554-2.188-.08Zm-13.201-.454-.031 1.15c-.046 1.49 2.142 1.571 2.188.081l.031-1.15c.061-1.49-2.142-1.57-2.188-.08Zm.601-5.555a12.82 12.82 0 0 0-2.587.73c-.663.275-.124 1.279.523 1.02.74-.308 1.541-.47 2.326-.632.678-.13.432-1.263-.262-1.118Zm15.25.341c-.539-.422-1.155-.73-1.679-1.183-.539-.47-1.34.308-.801.794.586.518 1.263.89 1.895 1.376.57.422 1.155-.566.585-.987Zm-13.586 19.547c-.816-.162-1.894-.6-1.925-1.62-.015-.745-1.109-.777-1.094-.032.046 1.57 1.325 2.494 2.696 2.77.678.112 1.017-.973.323-1.118Z" fill="#2E2E2E"/>
    <path d="M135.878 83.727c-.047 0-.093 0-.139-.016-.277-.08-6.947-1.846-8.226-5.814a.654.654 0 0 1 .092-.583.597.597 0 0 1 .524-.226c.077 0 8.272.825 12.894-1.766 5.391-3.028 5.53-13.231 5.746-30.122.03-1.798.046-3.66.077-5.588.138-8.437-4.745-12.713-14.958-13.069-11.738-.405-17.099 3.838-17.423 13.766l-.292 9.215c-.016.34-.293.647-.601.599-.324-.016-.57-.292-.57-.632l.293-9.215c.339-10.64 6.254-15.417 18.624-14.964 10.829.389 16.236 5.199 16.082 14.317-.031 1.943-.062 3.805-.077 5.587-.231 17.36-.37 27.839-6.377 31.208-1.464.81-3.205 1.327-4.945 1.619v.016l-.17 5.085a.624.624 0 0 1-.231.47.525.525 0 0 1-.323.113Zm-6.825-5.344c1.371 2.138 4.791 3.433 6.27 3.92l.139-4.114c-2.619.324-5.068.259-6.409.194Z" fill="#2E2E2E"/>
    <path d="M128.067 77.687c1.187 3.708 7.81 5.425 7.81 5.425l.17-5.102-7.98-.323Zm41.715 62.528c-.878 0-1.617-.874-2.542-1.959-1.709-2.025-4.066-4.794-8.487-3.32-.308.113-.632-.081-.74-.405a.64.64 0 0 1 .385-.777c5.145-1.717 7.903 1.522 9.721 3.676.647.761 1.401 1.636 1.74 1.538.478-.145.539-.421.539-.68.031-1.814-3.928-6.559-11.584-9.166-.431-.146-.862-.308-1.325-.454-7.517-2.639-17.823-6.267-41.207 10.041-.277.195-.631.114-.816-.178a.629.629 0 0 1 .169-.858c23.877-16.633 34.476-12.908 42.224-10.187.447.162.878.308 1.31.454 7.471 2.542 12.431 7.401 12.385 10.348-.016.907-.524 1.571-1.387 1.846a.784.784 0 0 1-.385.081Z" fill="#2E2E2E"/>
    <path d="M164.068 147.568a.613.613 0 0 1-.463-.227.643.643 0 0 1 .093-.874c.924-.778 1.34-1.83 1.248-3.126-.216-2.818-2.896-6.219-6.655-8.454a.63.63 0 0 1-.216-.842c.154-.291.524-.405.801-.227 4.144 2.478 6.994 6.171 7.24 9.442.124 1.7-.446 3.142-1.679 4.178a.522.522 0 0 1-.369.13Z" fill="#2E2E2E"/>
    <path d="M160.772 148.815a.604.604 0 0 1-.586-.583c-.015-.34.231-.632.555-.648.909-.065 2.049-.291 2.295-1.02.755-2.219-5.068-8.001-7.564-10.462a.655.655 0 0 1-.03-.875.578.578 0 0 1 .831-.032c4.499 4.454 8.796 9.037 7.857 11.774-.37 1.085-1.494 1.7-3.328 1.83-.015.016-.015.016-.03.016Z" fill="#2E2E2E"/>
    <path d="M159.755 149.479c-1.248 0-3.035-1.296-5.284-3.806-4.945-5.571-15.497 1.733-15.605 1.814-.277.194-.631.113-.816-.178a.633.633 0 0 1 .169-.859c.463-.323 11.492-7.951 17.115-1.619 2.957 3.32 4.359 3.547 4.621 3.369.139-.098.216-.697-.216-1.685-1.216-2.737-5.191-6.17-7.101-7.822a.638.638 0 0 1-.077-.874c.2-.26.57-.308.832-.081 1.987 1.716 6.1 5.279 7.425 8.259.647 1.458.57 2.688-.185 3.223a1.69 1.69 0 0 1-.878.259Zm-48.678-12.551a.605.605 0 0 1-.539-.356c-3.944-8.859-1.679-18.787-1.587-19.208.077-.324.401-.534.709-.453a.628.628 0 0 1 .431.745c-.015.097-2.249 9.943 1.51 18.397.138.308.015.68-.278.826a.654.654 0 0 1-.246.049Zm12.662-35.5h-.046a.588.588 0 0 1-.432-.259l-14.28-21.07a.635.635 0 0 1 .047-.777l5.853-6.478c.231-.243.601-.259.832-.016a.639.639 0 0 1 .016.875l-5.515 6.089 13.602 20.05 5.268-5.766c.231-.243.601-.26.832-.016a.639.639 0 0 1 .016.874l-5.746 6.3a.654.654 0 0 1-.447.194Zm41.345 24.552c-.262 0-.493-.178-.57-.47-8.857-36.341-17.869-42.69-25.91-47.24l2.665 16.535a.683.683 0 0 1-.2.583.57.57 0 0 1-.57.113l-5.13-1.943c-.308-.114-.462-.47-.354-.794a.582.582 0 0 1 .755-.372l4.174 1.57-2.696-16.729a.664.664 0 0 1 .231-.599.54.54 0 0 1 .617-.049c8.102 4.535 18.177 10.17 27.558 48.618.077.324-.108.664-.416.745-.061.016-.107.032-.154.032Z" fill="#2E2E2E"/>
    <path d="M85.859 109.834a.6.6 0 0 1-.231-.049.64.64 0 0 1-.323-.81c6.731-17.085 19.933-27.094 23.83-29.75a.59.59 0 0 1 .817.178.645.645 0 0 1-.17.859c-3.82 2.607-16.79 12.437-23.368 29.199a.627.627 0 0 1-.555.373Zm53.083 17.49c-.292 0-.539-.227-.585-.534l-3.574-27.84a.615.615 0 0 1 .509-.696c.323-.048.616.195.662.535l3.574 27.839a.614.614 0 0 1-.509.696c-.015-.016-.046 0-.077 0Zm20.073 1.846a.577.577 0 0 1-.523-.34c-.139-.307-.031-.68.261-.826 8.904-4.631 13.063-4.923 13.233-4.923a.598.598 0 0 1 .616.583c.016.34-.231.632-.554.648-.047 0-4.144.291-12.771 4.794a.883.883 0 0 1-.262.064Zm34.214 9.442c-.77 0-1.617-.648-2.496-1.927-3.635-5.264-8.487-8.082-11.045-6.43-.416.26-.431.486-.446.567-.077.713 1.093 1.944 2.018 2.915 1.201 1.247 2.233 2.332 1.987 3.385-.077.356-.354 1.004-1.31 1.199-2.141.453-7.147-1.831-10.413-6.559-.185-.276-.139-.664.123-.859a.568.568 0 0 1 .817.13c2.911 4.21 7.471 6.445 9.227 6.073.354-.081.385-.227.401-.275.092-.389-1.017-1.539-1.68-2.235-1.232-1.296-2.511-2.624-2.356-3.936.061-.583.4-1.085 1.001-1.473 3.127-2.025 8.549.874 12.601 6.753.816 1.182 1.371 1.457 1.586 1.425.108-.016.185-.178.216-.275.308-.842.015-3.045-1.633-5.102-1.864-2.316-4.529-4.583-4.544-4.599a.656.656 0 0 1-.093-.875.583.583 0 0 1 .832-.097c.108.097 2.773 2.365 4.714 4.778 1.879 2.332 2.342 4.955 1.833 6.332-.231.615-.631.988-1.171 1.053a.53.53 0 0 1-.169.032Z" fill="#2E2E2E"/>
    <path d="M194.199 134.968a.577.577 0 0 1-.4-.162.622.622 0 0 1-.031-.874c.046-.049 1.017-1.215.801-2.915-.216-1.652-1.448-3.239-3.682-4.746-.277-.178-.354-.566-.184-.858a.577.577 0 0 1 .816-.194c2.542 1.716 3.959 3.611 4.221 5.636.277 2.283-1.048 3.822-1.094 3.886a.536.536 0 0 1-.447.227Z" fill="#2E2E2E"/>
    <path d="M195.185 131.324a.597.597 0 0 1-.354-.129.624.624 0 0 1-.108-.858c.108-.146 2.588-3.596-.37-6.025a.622.622 0 0 1-.092-.858c.2-.276.57-.308.816-.098 3.097 2.559 1.726 6.187.57 7.758a.601.601 0 0 1-.462.21ZM168.751 135a.594.594 0 0 1-.555-.404c-.107-.324.031-.681.339-.794l4.252-1.7a.561.561 0 0 1 .755.356c.108.324-.031.68-.339.793l-4.252 1.701a.41.41 0 0 1-.2.048Zm-6.686 2.576a.6.6 0 0 1-.554-.405c-.108-.324.046-.681.354-.794l3.512-1.312a.582.582 0 0 1 .755.373c.108.324-.046.68-.354.793l-3.512 1.312c-.062.033-.124.033-.201.033Z" fill="#2E2E2E"/>
</svg>
