<svg fill="none" height="281" width="347" xmlns="http://www.w3.org/2000/svg">
    <path d="M127.345 195.46c0 28.781-15.677 49.911-38.132 58.927-7.427 2.969-15.569 4.616-24.144 4.789-.455.022-.93.022-1.386.022C28.518 259.198 0 230.656 0 195.482c0-12.418 2.988-24.013 8.618-33.83a53.758 53.758 0 0 1 4.937-7.282l2.187-2.601.087-.108c11-12.266 27.327-19.895 47.854-19.895 35.166-.065 63.662 28.477 63.662 63.694z" fill="#ffcb56"/>
    <path d="m247.999 78.735-9.722 9.709-42.788-42.868a64.396 64.396 0 0 1 5.565-8.213l2.469-2.948.108-.108z" fill="#ff3857"/>
    <path d="M59.18 101.339a85.072 85.072 0 0 1-6.172-7.477c-.628-.867-2.1-.022-1.45.845a82.368 82.368 0 0 0 6.43 7.824c.737.823 1.928-.391 1.192-1.192zm15.2-34.936v4.508c0 1.084 1.69 1.084 1.69 0v-4.508c0-1.105-1.69-1.105-1.69 0z" fill="#f674b4"/>
    <path d="m260.494 180.138 9.289-2.861-2.685 9.601z" fill="#ffcf58"/>
    <path d="m236.155 108.837-7.124 5.526 7.124 5.96 6.409-5.96z" fill="#7baeed"/>
    <path d="M246.224 208.442c-1.646-1.517-3.443-2.839-4.937-4.508-.737-.823-1.928.39-1.191 1.192 1.494 1.669 3.313 2.991 4.937 4.508.801.758 1.992-.455 1.191-1.192z" fill="#ffcf58"/>
    <path d="M17.93 31.273v11.985l12.32-9.146z" fill="#7baeed"/>
    <g fill="#000200">
        <path d="M278.163 60.118a16.862 16.862 0 0 1-11.907-4.944 16.892 16.892 0 0 1-4.94-11.917c0-9.925 6.93-16.86 16.847-16.86a16.861 16.861 0 0 1 11.907 4.944 16.892 16.892 0 0 1 4.94 11.916c0 9.774-7.081 16.861-16.847 16.861zm0-32.031c-8.921 0-15.158 6.241-15.158 15.17.005 4.022 1.603 7.878 4.445 10.722s6.694 4.444 10.713 4.449c8.791 0 15.158-6.372 15.158-15.17-.005-4.023-1.603-7.879-4.445-10.723s-6.694-4.443-10.713-4.448zM266.167 155.15a.847.847 0 0 1-.628-.281 16.878 16.878 0 0 1-4.244-11.183c0-9.926 6.929-16.861 16.846-16.861 4.467.005 8.749 1.783 11.907 4.944s4.935 7.447 4.94 11.917a18.353 18.353 0 0 1-.801 5.483.886.886 0 0 1-.498.542c-8.553 3.424-17.821 5.244-27.522 5.439zm11.996-26.635c-8.921 0-15.157 6.242-15.157 15.171a15.192 15.192 0 0 0 3.551 9.774c9.203-.217 17.994-1.951 26.157-5.18.414-1.496.618-3.042.607-4.594-.005-4.022-1.603-7.878-4.445-10.722s-6.694-4.444-10.713-4.449zm4.916-12.418a24.177 24.177 0 0 1-12.705-3.56 24.205 24.205 0 0 1-8.949-9.703.854.854 0 0 1 1.516-.78 22.547 22.547 0 0 0 20.138 12.331c13.1 0 22.606-9.514 22.606-22.626a22.656 22.656 0 0 0-6.626-15.993 22.615 22.615 0 0 0-15.98-6.632c-13.317 0-22.607 9.297-22.607 22.625a.847.847 0 0 1-.844.846.843.843 0 0 1-.845-.846c0-14.325 9.983-24.316 24.296-24.316a24.302 24.302 0 0 1 17.173 7.128 24.342 24.342 0 0 1 7.122 17.188c0 14.109-10.22 24.338-24.295 24.338z"/>
        <path d="M285.395 34.48c-2.988 4.356-6.366 8.864-8.033 13.935-1.797-2.145-3.486-4.377-5.284-6.523-.714-.823-1.905.369-1.191 1.192 2.122 2.514 4.071 5.18 6.237 7.672.411.477 1.256.217 1.407-.368 1.386-5.57 5.154-10.425 8.337-15.062.606-.89-.866-1.734-1.473-.846zm-3.14 105.37c-1.992 2.969-3.767 6.09-6.019 8.885-1.343-1.148-2.339-2.622-3.66-3.814-.801-.737-1.992.455-1.191 1.192 1.603 1.452 2.794 3.273 4.548 4.551a.852.852 0 0 0 1.017-.13c2.577-3.056 4.548-6.523 6.756-9.839.607-.91-.844-1.755-1.451-.845zm-.931-64.496v21.759c0 1.083 1.689 1.083 1.689 0v-21.76c0-1.083-1.689-1.083-1.689 0zm1.473 29.279c.173-.802.325-1.626.433-2.428.152-1.061-1.494-1.43-1.645-.346a29.95 29.95 0 0 1-.434 2.427c-.238 1.062 1.408 1.43 1.646.347zm-38.522 26.245h-33.476a.846.846 0 0 1 0-1.691h33.476c.224 0 .439.089.597.248a.841.841 0 0 1 0 1.195.841.841 0 0 1-.597.248zm0-85.865h-22.541a.843.843 0 0 1-.845-.845.844.844 0 0 1 .845-.846h22.541a.827.827 0 0 1 .784.52.844.844 0 0 1 .061.326.837.837 0 0 1-.248.597.835.835 0 0 1-.597.248zm3.01 47.332h-53.939c.13.563.238 1.127.325 1.69h53.636a.83.83 0 0 0 .844-.845.891.891 0 0 0-.866-.845z"/>
        <path d="M264.608 164.946a82.488 82.488 0 0 1-47.963-15.387c-10.643-7.648-19.317-17.718-25.307-29.38s-9.124-24.582-9.144-37.695C182.194 33.917 216.082 0 264.608 0 310.037 0 347 36.994 347 82.484c0 47.787-34.668 82.462-82.392 82.462zm0-163.256c-47.53 0-80.725 33.224-80.725 80.794a80.854 80.854 0 0 0 14.33 45.952 80.748 80.748 0 0 0 37.898 29.64 79.974 79.974 0 0 0 28.497 5.18c46.772 0 80.703-33.96 80.703-80.772 0-44.558-36.205-80.794-80.703-80.794z"/>
        <path d="M264.608 155.172c-40.059 0-72.648-32.616-72.648-72.688 0-14.044 3.4-27.372 9.831-38.555a64.464 64.464 0 0 1 5.63-8.322l2.49-2.969s.108-.13.13-.13c13.317-14.867 32.199-22.712 54.567-22.712 40.038 0 72.626 32.616 72.626 72.71 0 31.164-16.262 56.282-43.502 67.205-8.575 3.445-17.842 5.266-27.522 5.461zm0-143.708c-21.892 0-40.319 7.65-53.311 22.15l-2.555 3.033a63.313 63.313 0 0 0-5.479 8.106c-6.279 10.944-9.614 23.99-9.614 37.73 0 39.141 31.831 70.999 70.959 70.999.52 0 1.039 0 1.537-.022 9.485-.173 18.558-1.972 26.938-5.331 26.569-10.663 42.441-35.196 42.441-65.645 0-39.162-31.81-71.02-70.916-71.02zM162.186 281a.783.783 0 0 1-.433-.13l-13.036-7.997a.842.842 0 0 1-.303-1.127l13.122-23.666a.846.846 0 0 1 1.148-.325.846.846 0 0 1 .325 1.149l-12.733 22.95 11.607 7.131 15.894-26.18a.846.846 0 0 1 .525-.361.852.852 0 0 1 .925 1.249l-16.326 26.917a.87.87 0 0 1-.52.39zm32.091-52.88a.775.775 0 0 1-.433-.13.865.865 0 0 1-.282-1.17l41.532-68.419a.852.852 0 0 1 1.451.889l-41.532 68.418a.897.897 0 0 1-.736.412zm-14.833-10.012a.987.987 0 0 1-.412-.109.823.823 0 0 1-.431-.835.825.825 0 0 1 .106-.313l37.7-68.397a.843.843 0 1 1 1.472.823l-37.699 68.397a.85.85 0 0 1-.736.434z"/>
        <path d="M194.277 228.12a.789.789 0 0 1-.434-.13.863.863 0 0 1-.376-.528.863.863 0 0 1 .095-.642l30.856-50.864a658.374 658.374 0 0 0-16.695-8.258l-25.638 46.487a.843.843 0 1 1-1.472-.824l26.028-47.18a.84.84 0 0 1 1.104-.346 547.223 547.223 0 0 1 18.276 9.037.867.867 0 0 1 .433.52.906.906 0 0 1-.087.672l-31.354 51.644a.905.905 0 0 1-.736.412zm-28.107 46.335a.905.905 0 0 1-.411-.108l-13.512-7.802a.87.87 0 0 1-.325-1.149l9.636-17.316a.843.843 0 1 1 1.472.824l-9.224 16.6 12.061 6.957 11.931-19.656a.848.848 0 0 1 1.154-.256.85.85 0 0 1 .297 1.144l-12.364 20.372a.86.86 0 0 1-.715.39zm79.145-186.423a.93.93 0 0 1-.607-.239l-42.787-42.867a.852.852 0 0 1-.13-1.018 64.464 64.464 0 0 1 5.63-8.323l2.49-2.969c.175-.195.412-.325.671-.368a.97.97 0 0 1 .693.195l44.39 44.428a.849.849 0 0 1 .238.607.927.927 0 0 1-.238.606l-9.722 9.71a1.032 1.032 0 0 1-.628.238zm-41.749-43.843 41.749 41.784 8.531-8.517-43.134-43.15-1.97 2.363a61.741 61.741 0 0 0-5.176 7.52z"/>
        <path d="m259.627 91.781-5.088-13.567-8.467 8.474z"/>
        <path d="M259.628 92.626a1.465 1.465 0 0 1-.304-.043l-13.555-5.093a.817.817 0 0 1-.519-.607.87.87 0 0 1 .238-.78l8.466-8.474a.923.923 0 0 1 .78-.238.823.823 0 0 1 .606.52l5.089 13.567a.87.87 0 0 1-.801 1.149zm-12.04-6.263 10.589 3.966-3.963-10.597zm-69.703 167.72c-4.352 0-10.329-1.755-18.362-7.195-8.813-5.96-11.823-5.765-24.491-4.984-7.557.476-17.907 1.105-34.559.823-54.372-.975-81.634-15.951-83.302-45.793-1.905-34.242 25.314-51.905 45.971-62.22 20.398-10.186 56.646-10.923 56.993-10.923a.847.847 0 0 1 .866.823.869.869 0 0 1-.823.867c-.368 0-36.227.737-56.278 10.75-20.225 10.099-46.88 27.371-45.04 60.616 1.603 28.781 28.323 43.236 81.635 44.19 16.608.303 26.915-.347 34.429-.824 12.494-.78 16.262-1.018 25.551 5.266 14.941 10.1 21.979 6.914 24.837 4.118a.845.845 0 0 1 1.184.029.839.839 0 0 1-.015 1.185c-1.58 1.56-4.309 3.272-8.596 3.272z"/>
        <path d="M183.039 209.309a.91.91 0 0 1-.455-.13c-5.565-3.511-31.506-4.096-56.581-4.638-19.748-.433-40.146-.889-51.6-2.774-10.005-1.647-15.397-6.523-14.422-13.068 1.104-7.477 11.021-15.366 21.675-13.935a.84.84 0 0 1 .736.845c0 .455-.173 11.074-9.267 18.919a.849.849 0 0 1-.618.215.84.84 0 0 1-.585-.291.845.845 0 0 1 .098-1.202c7.168-6.198 8.423-14.39 8.64-16.904-9.463-.824-18.016 6.046-18.99 12.591-.823 5.57 3.92 9.644 13.035 11.14 11.325 1.863 31.68 2.318 51.363 2.752 26.461.585 51.471 1.127 57.447 4.898a.837.837 0 0 1 .372.531.858.858 0 0 1-.427.941.864.864 0 0 1-.421.11z"/>
        <path d="M62.081 184.993a.844.844 0 0 1-.78-.542c-3.356-8.756-19.877-20.545-34.97-18.291a.844.844 0 0 1-.238-1.669c16.11-2.406 33.173 9.882 36.79 19.353a.823.823 0 0 1-.477 1.084c-.104.038-.214.06-.325.065zm132.369 40.7c-.563 1.279-1.386 1.387-1.711 1.409-3.876.433-11.714-7.607-13.576-12.158a.837.837 0 0 0-.458-.457.858.858 0 0 0-.647.001.86.86 0 0 0-.456.459.84.84 0 0 0 .002.647c1.862 4.551 9.722 13.22 14.854 13.22.159.003.318-.004.476-.022 1.321-.152 3.01-.997 3.573-4.161-.709.306-1.396.661-2.057 1.062z"/>
        <path d="M191.873 236.442c-3.313 0-7.384-1.083-12.148-4.096a.851.851 0 0 1-.372-.531.858.858 0 0 1 .112-.639.855.855 0 0 1 .862-.38c.109.019.214.06.308.12 13.1 8.235 18.86.953 19.488.087 1.754-2.449.953-7.672-1.581-10.338a.844.844 0 0 1 .015-1.199.839.839 0 0 1 1.198.029c3.118 3.294 3.963 9.362 1.732 12.483-1.537 2.145-4.764 4.464-9.614 4.464z"/>
        <path d="M189.405 243.811c-3.638 0-8.315-2.016-14.53-4.942a.845.845 0 0 1-.492-.805.831.831 0 0 1 .081-.321.865.865 0 0 1 1.126-.412c8.531 4.009 13.945 6.241 17.258 3.684 3.226-2.514 2.858-5.136 2.836-5.245a.872.872 0 0 1 .693-.975.851.851 0 0 1 .975.694c.021.151.584 3.706-3.465 6.87a7.089 7.089 0 0 1-4.482 1.452z"/>
        <path d="M184.857 250.529c-3.637 0-8.315-2.015-14.529-4.941a.834.834 0 0 1-.442-.477.853.853 0 0 1 .03-.65.865.865 0 0 1 1.126-.412c8.532 4.009 13.945 6.242 17.258 3.684 3.227-2.514 2.859-5.136 2.837-5.244a.868.868 0 0 1 .693-.976.848.848 0 0 1 .859.383.83.83 0 0 1 .115.311c.022.152.585 3.706-3.464 6.87-1.299 1.019-2.772 1.452-4.483 1.452zm-113.01-49.304h-.087a.864.864 0 0 1-.758-.932l2.686-24.359a.852.852 0 0 1 .93-.759.87.87 0 0 1 .759.932l-2.685 24.36a.87.87 0 0 1-.845.758z"/>
        <path d="m82.067 175.435-7.557.564-1.126 16.861 5.89-7.13zm60.284-28.282a23.32 23.32 0 0 1-3.876-.346c-8.51-1.431-16.933-8.973-19.835-15.171-1.386-2.947-1.537-5.526-.433-7.433a.835.835 0 0 1 1.13-.272.84.84 0 0 1 .321 1.117c-1.018 1.777-.282 4.161.52 5.851 2.728 5.808 10.61 12.873 18.6 14.217 4.374.737 7.384.282 8.943-1.365 1.364-1.431 1.711-3.858 1.039-7.217a.846.846 0 0 1 .65-.997.841.841 0 0 1 .996.65c.801 3.945.303 6.892-1.472 8.734-1.429 1.495-3.638 2.232-6.583 2.232zm36.054 60.53a.823.823 0 0 1-.784-.519.828.828 0 0 1-.061-.326c0-46.053-6.756-64.192-25.919-74.097a.85.85 0 0 1-.497-.837.85.85 0 0 1 .307-.597.837.837 0 0 1 .303-.161.848.848 0 0 1 .666.078c19.857 10.251 26.829 28.759 26.829 75.593a.845.845 0 0 1-.241.609.854.854 0 0 1-.603.257z"/>
        <path d="M165.521 206.015h-.065a.853.853 0 0 1-.78-.911l1.797-24.684a.842.842 0 0 1 .09-.318.836.836 0 0 1 .492-.423.846.846 0 0 1 1.107.871l-1.797 24.684a.87.87 0 0 1-.844.781z"/>
        <path d="M170.804 199.231a25.185 25.185 0 0 1-4.937-.498.853.853 0 0 1-.671-.997.849.849 0 0 1 .996-.672c7.795 1.495 11.541-1.127 11.585-1.149a.814.814 0 0 1 1.169.196.833.833 0 0 1-.173 1.17c-.13.086-2.707 1.95-7.969 1.95zM166.43 89.744a.846.846 0 0 1-.282-1.647c1.668-.585 2.989-1.604 3.357-2.58a1.55 1.55 0 0 0-.109-1.343c-.649-1.192-3.702-.91-5.066-.585a.848.848 0 0 1-.39-1.647c.563-.13 5.5-1.214 6.951 1.409a3.256 3.256 0 0 1 .216 2.752c-.563 1.474-2.187 2.818-4.374 3.576a.55.55 0 0 1-.303.065zm-13.685-12.678.563 1.582c.715 2.059 3.919.932 3.183-1.127l-.563-1.582c-.736-2.059-3.919-.932-3.183 1.127zm-.282-10.446c-.844.607-1.58 1.365-2.468 1.885-.931.564-.238 2.103.693 1.54 1.017-.608 1.862-1.431 2.836-2.125.91-.628-.173-1.929-1.061-1.3z"/>
        <path d="M148.89 125.481a.847.847 0 0 1-.835-.795.853.853 0 0 1 .727-.895c.13-.022 12.949-1.517 18.168-7.607 4.244-4.963 3.897-11.768-1.321-27.003a.87.87 0 0 1 .519-1.084.854.854 0 0 1 1.083.52c4.742 13.805 6.301 22.452 1.018 28.651-5.652 6.61-18.709 8.127-19.272 8.192a.132.132 0 0 1-.087.021z"/>
        <path d="m153.546 123.661-3.096 8.539c-3.682-1.366-5.544-5.418-6.172-9.059 3.065.476 6.169.651 9.268.52z"/>
        <path d="M148.891 125.481c-6.864 0-12.841-14.802-17.648-26.678-1.862-4.616-3.963-9.818-4.915-10.576-4.613 1.387-7.687 3.294-8.792 5.461a4.067 4.067 0 0 0-.216 3.294 4.559 4.559 0 0 0 2.49 2.666c1.776.802 4.136.65 6.864-.433a.754.754 0 0 1 .65.021.823.823 0 0 1 .454.477c2.252 5.96 2.512 10.533.78 13.22-.953 1.495-2.533 2.362-4.417 2.492-6.063.369-9.181-3.445-15.093-18.573l-4.504-12.786c-3.291-9.362-2.035-22.344 22.693-31.078 15.699-5.548 26.006-2.015 30.662 10.49 1.104 2.969 2.1 5.59 3.01 8.061 1.45 3.858 2.75 7.282 4.07 10.988a.852.852 0 0 1-.519 1.084.849.849 0 0 1-1.083-.52 655.366 655.366 0 0 0-4.049-10.945 884.414 884.414 0 0 1-3.032-8.062c-4.309-11.638-13.641-14.737-28.518-9.492-12.927 4.573-27.175 13.285-21.675 28.932l4.504 12.765c5.977 15.279 8.597 17.771 13.425 17.489.953-.065 2.252-.411 3.119-1.712 1.342-2.08 1.126-5.938-.65-10.922-3.53 1.213-5.933.736-7.362.086a6.344 6.344 0 0 1-3.378-3.64 5.67 5.67 0 0 1 .303-4.617c1.342-2.644 4.742-4.79 10.069-6.371 1.84-.26 3.161 2.795 6.734 11.616 4.114 10.207 10.351 25.616 16.089 25.638a.823.823 0 0 1 .601.243.831.831 0 0 1 .243.602.972.972 0 0 1-.909.78zm-1.105 17.034a1.404 1.404 0 0 1-.281-.043.84.84 0 0 1-.52-1.062l5.76-17.034a.84.84 0 0 1 .74-.588.822.822 0 0 1 .617.211.838.838 0 0 1 .224.919l-5.76 17.034a.842.842 0 0 1-.78.563z"/>
        <path d="M142.221 96.57c-3.659 0-5.738-7.324-8.379-16.6-.91-3.208-1.863-6.502-2.88-9.514-.628-1.82-.585-3.424.13-4.79 1.515-2.925 5.694-4.117 10.09-5.374 4.244-1.214 8.64-2.47 9.744-5.267a.852.852 0 0 1 1.581.629c-1.407 3.554-6.215 4.941-10.848 6.263-3.877 1.105-7.861 2.254-9.052 4.53-.498.953-.498 2.08-.021 3.467 1.039 3.056 1.992 6.372 2.901 9.6 2.057 7.218 4.374 15.366 6.756 15.366h.022c1.299-.043 4.049-1.343 6.951-2.752 5.911-2.84 13.273-6.393 17.647-3.966a.846.846 0 0 1 .427.835.848.848 0 0 1-.936.74.84.84 0 0 1-.313-.101c-3.617-2.016-10.827 1.473-16.089 4.009-3.335 1.604-5.955 2.882-7.622 2.926zm-23.299 33.419a.712.712 0 0 1-.216-.022.82.82 0 0 1-.512-.397.828.828 0 0 1-.073-.643l3.963-14.563a.832.832 0 0 1 .398-.509.848.848 0 0 1 .934.072.848.848 0 0 1 .292.892l-3.963 14.563a.886.886 0 0 1-.823.607zm42.16-34.025a16.988 16.988 0 0 0-1.754-.932c-.975-.455-1.559 1.127-.563 1.582.468.22.924.466 1.364.737.91.563 1.884-.802.953-1.387z"/>
    </g>
</svg>
