<svg viewBox="0 0 800 800" xmlns="http://www.w3.org/2000/svg">
    <path d="M212.88 547.44c13.04 1.91 26.23 1.2 38.62-2.32 1.56-.41 3.07-.96 4.61-1.43 1.51-.56 3.04-1.05 4.51-1.69l2.22-.92 2.19-1.01c1.44-.66 3.01-1.44 4.51-2.16l18.2-8.76 72.78-35.06c48.56-23.3 97.1-46.63 145.74-69.76l72.95-34.71 36.49-17.31 2.28-1.08 2.11-1.07c1.42-.68 2.78-1.49 4.15-2.27 1.38-.76 2.67-1.67 4.01-2.5 1.29-.9 2.58-1.8 3.84-2.74 5-3.82 9.55-8.23 13.55-13.09 3.95-4.9 7.34-10.25 10.1-15.92 2.73-5.68 4.75-11.69 6.12-17.84 2.71-12.32 2.45-25.27-.75-37.51-.35-1.54-.88-3.04-1.32-4.56-.48-1.51-1.06-2.98-1.59-4.48-.63-1.47-1.2-2.89-1.88-4.42-.7-1.44-1.36-2.87-2.09-4.29a82.644 82.644 0 0 0-10.71-15.7c-8.36-9.56-19.06-17.15-30.96-21.83-2.96-1.21-6.02-2.16-9.1-3.03-3.11-.76-6.24-1.45-9.42-1.85-6.34-.87-12.79-1.05-19.16-.35-6.37.68-12.67 2.09-18.71 4.25-1.49.59-3.01 1.11-4.48 1.76-1.48.67-2.91 1.26-4.45 2.02l-9.11 4.36-72.85 34.92-145.46 70.32-72.75 35.12-36.44 17.43-9.11 4.36-4.55 2.18c-1.39.73-2.82 1.4-4.2 2.16a81.847 81.847 0 0 0-15.33 10.93c-9.29 8.47-16.55 19.18-20.92 31-1.14 2.94-2.03 5.96-2.83 9.01-.71 3.07-1.37 6.16-1.74 9.29-.82 6.25-.97 12.61-.31 18.91l.25 2.36.37 2.35c.21 1.57.57 3.12.89 4.67.31 1.56.77 3.08 1.13 4.63.46 1.52.9 3.05 1.41 4.56 2.1 6.01 4.81 11.86 8.2 17.31 1.68 2.74 3.53 5.37 5.54 7.89 1.99 2.54 4.11 4.99 6.42 7.27 4.56 4.62 9.69 8.72 15.21 12.32l.02.01c.93.6 1.19 1.85.58 2.77-.55.85-1.64 1.14-2.53.72-12.52-5.84-23.65-15.07-31.87-26.53-8.26-11.42-13.78-24.97-15.65-39.13-.51-3.53-.73-7.1-.83-10.67-.01-3.57.12-7.15.54-10.71.76-7.12 2.42-14.14 4.9-20.86 4.93-13.46 13.15-25.69 23.72-35.4 5.3-4.84 11.17-9.05 17.44-12.53 1.56-.87 3.18-1.65 4.78-2.47l4.56-2.17 9.12-4.33 36.49-17.32 73.11-34.37 146.25-68.67 73.01-34.58 9.12-4.33c1.48-.72 3.15-1.44 4.74-2.16 1.61-.72 3.27-1.3 4.91-1.95a90.055 90.055 0 0 1 20.56-4.76c7.01-.81 14.12-.73 21.12.16 7.01.87 13.91 2.58 20.53 5.07 13.26 4.92 25.34 13.1 34.9 23.61a91.505 91.505 0 0 1 12.35 17.34c.85 1.56 1.63 3.17 2.43 4.74.72 1.54 1.45 3.23 2.17 4.84.63 1.67 1.32 3.31 1.89 5 .54 1.7 1.16 3.37 1.6 5.11 1.91 6.87 3.12 13.98 3.3 21.13.21 7.15-.38 14.33-1.84 21.34-1.5 7-3.79 13.83-6.86 20.3-3.1 6.45-6.93 12.57-11.45 18.13a93.047 93.047 0 0 1-15.44 14.9c-1.43 1.07-2.9 2.1-4.38 3.12-1.52.94-2.99 1.98-4.56 2.84-1.56.89-3.1 1.8-4.71 2.57l-2.4 1.21-2.28 1.08-36.51 17.27-73.06 34.47c-48.7 22.99-97.5 45.77-146.29 68.59l-73.23 34.11-18.31 8.53c-1.55.71-3 1.43-4.63 2.13l-2.42 1.05-2.46.95c-1.63.66-3.32 1.16-4.99 1.73-1.69.49-3.37 1-5.1 1.37-13.67 3.28-28.17 2.97-41.39-1.07a2.005 2.005 0 0 1-1.33-2.5c.28-.97 1.24-1.55 2.2-1.4z"/>
    <path d="M554.76 220.52 298.36 97.6l1.58.4-100.56-3.5 3.7-7.3 63.53 78.17-1.99-1.56c16.61 7.83 33.26 15.57 49.84 23.46l49.75 23.66 49.69 23.78c16.52 8.01 33.04 16.03 49.37 24.47a2.49 2.49 0 0 1 1.07 3.37 2.508 2.508 0 0 1-3.18 1.16c-16.99-7.01-33.79-14.43-50.58-21.86l-50.26-22.54-50.21-22.67c-16.74-7.54-33.41-15.24-50.12-22.86l-.02-.01c-.79-.36-1.47-.91-1.97-1.56L196.04 92.8l-.04-.05a4.48 4.48 0 0 1 .78-6.3 4.54 4.54 0 0 1 2.96-.95L300.26 90h.03c.55.02 1.08.17 1.55.39l255.53 124.72c1.49.73 2.11 2.52 1.38 4.01a2.997 2.997 0 0 1-3.99 1.4z"/>
    <path d="M303.52 93.26c.26.84.42 1.5.6 2.23.16.72.31 1.43.44 2.14.26 1.43.45 2.86.61 4.3.28 2.87.38 5.76.26 8.65-.18 5.78-1.23 11.53-2.91 17.09-.89 2.77-1.97 5.47-3.18 8.11-.66 1.3-1.3 2.6-2.04 3.85-.68 1.28-1.49 2.49-2.28 3.69-3.24 4.79-7.19 9.06-11.72 12.5-.89.67-2.16.5-2.83-.39-.54-.72-.54-1.67-.05-2.37l.02-.03c3.07-4.41 5.82-8.84 8.09-13.48 2.23-4.65 4.04-9.44 5.34-14.39 1.32-4.93 2.16-10 2.61-15.12.21-2.56.36-5.14.37-7.71.04-1.29 0-2.58-.02-3.86-.01-.64-.03-1.28-.07-1.92l-.08-1.81-.01-.3a3.507 3.507 0 0 1 3.34-3.66c1.63-.07 3.06.98 3.51 2.48zm-61.42-1.57s3.13 23.04-15.69 32.02L199.56 90zm13.7 453.12 315.88 160.3-7.38 2.34 48.67-90.48 2 6.13-31.32-15.24-31.28-15.32-62.48-30.81-62.37-31.03c-20.77-10.39-41.72-20.41-61.81-32.17a2.506 2.506 0 0 1 2.2-4.49c21.6 8.7 42.34 19.14 63.26 29.22l62.7 30.36 62.6 30.57 31.25 15.38 31.22 15.45a4.515 4.515 0 0 1 2.04 6.05l-.02.04-.02.05-46.9 91.41a5.445 5.445 0 0 1-7.33 2.36l-.02-.01-.03-.01-314.51-162.98a3.997 3.997 0 0 1-1.71-5.39 4.002 4.002 0 0 1 5.36-1.73zM432.71 250.3l-176.73-3.78 4.11-3.7-4.51 33.33a2.003 2.003 0 0 1-2.25 1.72 2 2 0 0 1-1.73-2.02l.52-33.63a3.765 3.765 0 0 1 3.82-3.71h.07l.22.01 176.64 6.77c1.38.05 2.46 1.21 2.4 2.59-.07 1.38-1.2 2.45-2.56 2.42z"/>
    <path d="m254.56 245.67-52.8-24.74 4.14-.09c-7.82 4.16-15.67 8.26-23.64 12.1-7.95 3.89-15.99 7.57-24.09 11.12-8.09 3.56-16.27 6.93-24.5 10.17-8.25 3.23-16.49 6.3-25 9.13l.36-7.47c4 1.78 8.03 3.49 12 5.32 3.96 1.86 7.96 3.66 11.87 5.62 7.89 3.8 15.62 7.92 23.31 12.13 7.66 4.25 15.21 8.72 22.64 13.39 3.72 2.32 7.39 4.74 11.05 7.2 3.66 2.49 7.22 4.96 10.87 7.72h.01l-4.74-.8 55.02-18.09h.01c.51-.17 1.04-.24 1.54-.22 8.4.4 16.79.86 25.18 1.41l12.58.8 12.58.9c8.38.63 16.77 1.17 25.15 1.9s16.75 1.6 25.1 2.76a2.005 2.005 0 0 1-.23 3.99c-8.43.2-16.84.1-25.25-.13-8.41-.24-16.8-.65-25.2-.99l-12.6-.54-12.59-.64c-8.4-.41-16.79-.92-25.17-1.47l1.54-.22h-.01l-54.36 19.98a4.87 4.87 0 0 1-4.61-.69l-.13-.1c-3.22-2.53-6.75-5.1-10.22-7.55-3.51-2.46-7.04-4.89-10.64-7.23-7.18-4.71-14.5-9.23-21.95-13.55-7.46-4.28-14.99-8.48-22.67-12.36-3.81-2.01-7.7-3.85-11.56-5.76-3.87-1.88-7.81-3.64-11.71-5.46l-.06-.03a4.005 4.005 0 0 1-1.93-5.33 4.034 4.034 0 0 1 2.35-2.1c8.15-2.79 16.36-5.94 24.44-9.2 8.1-3.27 16.14-6.68 24.1-10.27s15.87-7.29 23.67-11.2c7.83-3.86 15.53-7.97 23.18-12.14l.18-.09c1.28-.66 2.76-.61 3.96 0l51.92 26.53a3.5 3.5 0 0 1 1.52 4.71 3.527 3.527 0 0 1-4.61 1.58z"/>
    <path d="m107.62 256.56 86.99 4.92c1.61.09 2.94 1.15 3.46 2.58l.13.37c.1.12.26.46.41.71l.46.82c.32.55.65 1.09.99 1.62.7 1.04 1.4 2.06 2.21 2.93 1.55 1.79 3.25 3.16 5.1 3.94 1.83.79 3.87 1.15 6.21 1.03 2.23-.1 4.26-.79 5.94-1.95.87-.55 1.59-1.29 2.22-2.1s1.14-1.74 1.47-2.75c.34-.96.58-2.15.56-2.96-.01-.95-.25-2.03-.67-3.09s-1.01-2.09-1.74-3.04c-.75-.93-1.62-1.79-2.6-2.55-2.01-1.45-4.45-2.47-7.16-2.92l-.05-.01a2.017 2.017 0 0 1-1.65-2.32c.16-.94.94-1.61 1.85-1.67 3.29-.22 6.79.36 9.98 1.94 1.57.82 3.07 1.81 4.4 3.06 1.3 1.25 2.46 2.68 3.41 4.3.95 1.61 1.62 3.43 1.95 5.46.32 2.18.13 4.01-.25 5.95-.83 3.81-3.01 7.35-6.04 9.91-3.04 2.56-6.86 4.04-10.59 4.5-3.62.51-7.73.14-11.38-1.51-.47-.18-.9-.42-1.33-.67l-1.28-.74c-.82-.54-1.59-1.13-2.34-1.74-1.4-1.3-2.7-2.67-3.71-4.19-1.05-1.5-1.89-3.07-2.56-4.69-.35-.8-.63-1.63-.89-2.47-.12-.43-.25-.83-.35-1.28-.11-.45-.19-.83-.29-1.42l3.59 2.95-86.86-6.91c-1.65-.13-2.88-1.58-2.75-3.23s1.54-2.87 3.16-2.78zm451.85 334.49c-1 2.58-2.22 5.04-3.49 7.47s-2.64 4.81-4.06 7.15c-1.43 2.34-2.92 4.65-4.55 6.88-1.61 2.24-3.31 4.43-5.26 6.48-.78.83-2.09.86-2.92.08-.57-.54-.76-1.32-.57-2.03.73-2.73 1.7-5.33 2.77-7.88 1.05-2.55 2.24-5.03 3.48-7.48 1.25-2.44 2.56-4.85 3.96-7.21s2.86-4.68 4.54-6.89a3.528 3.528 0 0 1 4.95-.68c1.28.99 1.71 2.68 1.15 4.11zm-67-32.87c-.96 2.67-2.19 5.18-3.47 7.67-1.3 2.47-2.71 4.89-4.2 7.27-1.49 2.37-3.07 4.7-4.77 6.95-1.71 2.25-3.49 4.46-5.57 6.51-.82.81-2.14.8-2.95-.02a2.12 2.12 0 0 1-.55-1.92c.64-2.85 1.56-5.53 2.56-8.17 1.01-2.64 2.14-5.21 3.36-7.73s2.52-5 3.93-7.42c1.43-2.41 2.91-4.79 4.66-7.01a4.054 4.054 0 0 1 5.69-.68 4.06 4.06 0 0 1 1.31 4.55zm-70.78-34.78c-1.05 2.59-2.27 5.09-3.55 7.56-1.27 2.47-2.64 4.89-4.03 7.3l-2.15 3.57c-.76 1.17-1.48 2.36-2.26 3.51-1.54 2.33-3.15 4.61-4.93 6.8a2.542 2.542 0 0 1-3.58.36c-.84-.68-1.12-1.8-.81-2.77.89-2.68 1.96-5.27 3.09-7.81.55-1.28 1.17-2.53 1.75-3.79l1.86-3.73c1.28-2.47 2.59-4.92 4-7.32 1.4-2.4 2.85-4.78 4.48-7.05a3.532 3.532 0 0 1 4.92-.82c1.34.96 1.81 2.71 1.21 4.19zm105.26 53.1-12.06 16.3c-.66.89-1.92 1.08-2.82.42a2.022 2.022 0 0 1-.67-2.39l7.71-18.75c.95-2.32 3.6-3.42 5.92-2.47s3.42 3.6 2.47 5.92c-.15.34-.34.68-.55.97zm62.49 31.65-10.19 12.9c-.69.88-1.97 1.03-2.84.33-.71-.56-.94-1.5-.64-2.31l5.84-15.37a4.552 4.552 0 0 1 8.51 3.23c-.16.46-.41.87-.68 1.22zm-130.92-64.58-10.64 14.57a2.01 2.01 0 0 1-3.47-1.98l7.17-16.56a4.013 4.013 0 0 1 5.29-2.09c2.04.88 2.98 3.25 2.09 5.29-.11.27-.27.54-.44.77zm-72.75-35.43-10.41 14.5c-.65.91-1.91 1.11-2.82.46a2.01 2.01 0 0 1-.72-2.32l5.98-16.82c.84-2.36 3.44-3.6 5.81-2.76 2.36.84 3.6 3.44 2.76 5.81-.15.41-.36.8-.6 1.13zm266.5-58.36c5.49 4.38 9.94 10.14 13.18 16.52a58.473 58.473 0 0 1 6.03 20.64c.7 7.21-.13 14.6-2.38 21.48-.27.86-.53 1.73-.82 2.58l-1.04 2.51-1.05 2.49-1.22 2.41-1.24 2.4c-.41.8-.92 1.55-1.38 2.32-.94 1.53-1.85 3.08-2.97 4.5a57.345 57.345 0 0 1-15.58 14.84c-6.09 3.89-12.93 6.67-20.06 8.02-7.13 1.29-14.43 1.36-21.62.09-7.17-1.27-14.15-3.94-20.31-7.93-6.19-3.96-11.51-9.22-15.68-15.24-4.15-6.04-7.11-12.84-8.83-19.9-1.75-7.07-2.15-14.36-1.43-21.57.74-7.21 2.79-14.3 6.06-20.78s7.8-12.29 13.19-17.07c5.38-4.79 11.65-8.49 18.29-11.02l2.51-.89c.83-.3 1.67-.6 2.53-.79 1.72-.42 3.42-.92 5.14-1.26l5.21-.8c1.76-.21 3.55-.33 5.33-.35 7.13-.12 14.24 1.49 20.54 4.52a2 2 0 0 1-1.52 3.69h-.01a45.088 45.088 0 0 0-18.73-2.33c-1.57.14-3.12.36-4.66.67l-4.66 1.09c-1.53.43-3.03.96-4.54 1.42-.76.21-1.49.53-2.21.84l-2.18.92c-5.75 2.56-11.01 6.06-15.48 10.34s-8.08 9.39-10.66 14.96c-2.6 5.56-4.1 11.6-4.6 17.72l-.13 2.3c-.04.77-.13 1.53-.07 2.31.06 1.54.09 3.09.17 4.63l.58 4.58c.26 1.51.64 3 .94 4.5 2.93 11.9 10.17 22.58 20.27 29.28a47.614 47.614 0 0 0 16.69 6.99c5.97 1.24 12.26 1.38 18.35.46 6.07-.99 11.96-3.12 17.2-6.37 5.25-3.22 9.82-7.55 13.45-12.57l.7-.93.35-.47.29-.5 1.17-2.01c.37-.68.83-1.31 1.14-2.03l.93-2.14c.3-.72.65-1.41.91-2.14l.68-2.23.68-2.21c.17-.75.31-1.52.47-2.27 1.23-6.05 1.55-12.18 1.34-18.34-.29-6.15-1.45-12.3-3.49-18.22-2.05-5.92-4.96-11.6-8.68-16.96l-.01-.02a2.01 2.01 0 0 1 .51-2.81c.75-.47 1.73-.41 2.41.13z"/>
    <path d="m640.05 366.33 1.45 49.57-3.21-4.27c9.35 2.99 18.18 7.57 25.93 13.55 7.78 5.95 14.39 13.36 19.54 21.66 5.13 8.3 8.89 17.47 10.8 27.02 1.98 9.55 2.44 19.28 1.47 28.94-.99 9.65-3.59 19.21-7.91 28.01-2.17 4.39-4.73 8.59-7.68 12.52s-6.32 7.53-9.96 10.83c-7.3 6.59-15.87 11.7-24.95 15.29-4.55 1.79-9.21 3.27-13.96 4.35-4.77 1.06-9.49 1.87-14.48 2.28-4.95.38-9.95.25-14.91-.33-4.95-.59-9.84-1.73-14.59-3.29-4.75-1.55-9.31-3.66-13.63-6.13-4.32-2.48-8.42-5.35-12.18-8.6a84.575 84.575 0 0 1-18.72-22.89c-4.78-8.64-8.13-18.07-9.73-27.78-.83-4.85-1.18-9.77-1.13-14.66-.01-4.89.45-9.78 1.26-14.6 1.65-9.63 4.87-19 9.73-27.44 2.46-4.2 5.16-8.26 8.32-11.95l2.38-2.75c.79-.92 1.71-1.72 2.56-2.58.87-.84 1.72-1.7 2.6-2.53l2.79-2.32c7.5-6.11 16.18-10.71 25.36-13.37 1.06-.31 2.17.31 2.48 1.37.29.99-.23 2.02-1.16 2.41l-.02.01c-8.36 3.46-16.03 8.32-22.59 14.33-6.58 5.99-12.02 13.15-16.09 20.99-4.09 7.84-6.64 16.43-7.76 25.14-.54 4.36-.77 8.77-.58 13.15.12 4.4.67 8.74 1.5 13.03 1.65 8.58 4.9 16.8 9.27 24.29a74.167 74.167 0 0 0 16.59 19.82c6.61 5.53 14.13 9.97 22.24 12.78 4.05 1.42 8.24 2.42 12.48 3.07 4.25.64 8.56.9 12.88.71 4.27-.21 8.74-.82 13.07-1.64 4.34-.82 8.6-2.01 12.74-3.47 4.14-1.47 8.16-3.27 11.98-5.41 3.81-2.16 7.4-4.7 10.72-7.53 6.63-5.7 12.11-12.73 15.98-20.61 3.89-7.87 6.27-16.49 7.19-25.31.91-8.82.49-17.85-1.28-26.48l-.15-.82-.22-.8-.43-1.6-.85-3.2-1.1-3.12c-.39-1.03-.67-2.1-1.16-3.1l-1.32-3.03c-.23-.5-.42-1.02-.67-1.51l-.78-1.46-1.55-2.92c-.53-.96-1.16-1.87-1.74-2.81-9.27-15.02-24.39-26.04-41.2-30.89l-.36-.13a4.354 4.354 0 0 1-2.85-4.14l.55-49.59a3.504 3.504 0 0 1 3.54-3.46c1.93.03 3.45 1.54 3.5 3.4zm-269.04 5.75c18.13-3.61 36.01-7.73 53.16-13.76 2.13-.78 4.29-1.48 6.4-2.33 2.1-.86 4.23-1.64 6.3-2.55 2.06-.93 4.17-1.76 6.21-2.73 2.02-1 4.09-1.92 6.08-2.97 8.02-4.12 15.62-8.97 22.64-14.51 7.01-5.54 13.34-11.9 18.74-18.96a93.752 93.752 0 0 0 13.08-23.15c3.27-8.3 5.36-17.08 6.47-26.02 1.09-8.95 1.2-18.07.57-27.18v-.02c-.09-1.38.95-2.57 2.32-2.67 1.31-.09 2.46.86 2.65 2.14 1.32 9.34 1.8 18.86 1.07 28.38-.69 9.51-2.61 19-5.83 28.09-3.18 9.11-7.85 17.7-13.54 25.51-5.71 7.8-12.53 14.74-19.98 20.81-7.45 6.08-15.62 11.19-24.08 15.57-2.11 1.11-4.28 2.09-6.42 3.14-2.15 1.02-4.35 1.92-6.53 2.87-2.19.92-4.43 1.7-6.64 2.56-2.22.85-4.48 1.54-6.72 2.32-18.05 5.75-36.79 8.83-55.51 9.44-1.11.04-2.03-.83-2.07-1.94-.03-1 .67-1.84 1.61-2.03zM149.89 489.47c10.33-.63 20.49-1.64 30.28-3.97 9.79-2.27 19.11-5.93 27.67-10.93 8.57-4.99 16.43-11.25 23.75-18.3s14.03-14.94 20.6-23.02c6.59-8.07 13.09-16.36 20.31-24.18 7.21-7.8 15.35-15.05 24.6-20.7 9.22-5.68 19.42-9.75 29.88-12.18l3.94-.82c1.31-.26 2.62-.59 3.95-.72l7.95-.98c5.33-.23 10.65-.53 15.8-.44h.07c1.11.02 1.99.93 1.97 2.04-.02 1-.77 1.82-1.74 1.95l-3.91.52c-1.32.14-2.6.32-3.86.52l-7.6 1.11-7.48 1.55c-1.26.21-2.46.6-3.69.93l-3.66 1.02c-9.7 2.85-18.9 6.99-27.36 12.36-8.45 5.38-16.28 11.79-23.43 19.09-7.2 7.24-13.79 15.21-20.29 23.36-3.24 4.08-6.5 8.19-9.81 12.29l-5.06 6.11c-1.77 1.99-3.5 4-5.32 5.96-7.27 7.82-15.58 15.01-25.11 20.4-9.49 5.44-20.02 8.98-30.68 10.68-10.68 1.69-21.46 1.65-31.96.36a2.019 2.019 0 0 1-1.75-2.24c.12-.98.92-1.7 1.87-1.76z"/>
    <path d="M359.96 309.63c2.31 1.41 4.84 2.8 7.33 4.06 2.5 1.29 5.07 2.43 7.64 3.53 5.17 2.15 10.45 3.92 15.83 5.14 10.72 2.47 21.83 2.79 32.24-.05 1.31-.32 2.57-.8 3.86-1.19 1.22-.5 2.43-1.01 3.66-1.48l3.53-1.81 3.37-2.14c4.37-3.08 8.33-6.87 11.8-11.14 7-8.54 12.23-18.68 16.6-29.18l.01-.02c.43-1.02 1.6-1.5 2.62-1.08.94.39 1.43 1.42 1.16 2.38-3.13 11.28-7.84 22.33-14.97 32.1-3.59 4.84-7.8 9.38-12.81 13.06-1.27.89-2.57 1.74-3.87 2.61l-4.11 2.26c-1.44.63-2.89 1.23-4.34 1.83-1.47.47-2.91 1.02-4.4 1.4-5.93 1.66-12.1 2.51-18.22 2.37-6.13-.08-12.18-1.12-17.99-2.72a84.734 84.734 0 0 1-16.65-6.73c-5.27-2.83-10.21-6.02-14.77-10.05-.83-.73-.91-2-.17-2.83.65-.74 1.73-.88 2.54-.38zm-19.8 164.32c10.62-5.52 21.02-11.42 30.49-18.3 4.69-3.47 9.21-7.13 12.91-11.24 1.83-2.05 3.49-4.17 4.66-6.34 1.18-2.16 1.79-4.31 1.68-6.06-.02-.22-.03-.44-.07-.65l-.06-.35-.09-.47c-.11-.63-.26-1.25-.42-1.86-.32-1.22-.73-2.4-1.23-3.53-1-2.25-2.31-4.31-3.96-6.12-1.65-1.8-3.62-3.35-5.82-4.65-2.21-1.29-4.64-2.31-7.21-3.09-5.14-1.55-10.76-2.1-16.39-1.9-5.64.19-11.32 1.21-16.78 2.87-10.93 3.31-20.95 9.57-29.58 17.25-8.58 7.74-15.96 16.94-21.11 26.95-2.51 5-4.54 10.23-5.18 15.32-.35 2.52-.33 4.99.17 7.16.13.54.28 1.07.46 1.57.1.25.18.5.3.74l.16.36c.03.06.03.05.04.08.05.08.1.21.3.38.21.16.47.37.88.55.76.4 1.88.71 3.07.93 1.2.23 2.51.37 3.86.44 2.7.15 5.56.1 8.43-.09 5.77-.35 11.66-1.17 17.65-1.88h.01c1.11-.13 2.12.66 2.25 1.77.1.89-.39 1.71-1.16 2.07-5.6 2.6-11.47 4.59-17.63 5.94-3.09.65-6.25 1.17-9.58 1.3-3.34.08-6.81.05-10.8-1.51-.99-.39-2.02-.97-3.02-1.7-1.01-.74-1.97-1.76-2.74-2.94-.18-.29-.38-.63-.52-.9l-.31-.66c-.22-.44-.39-.89-.57-1.35-.35-.91-.63-1.83-.87-2.75-.91-3.7-.93-7.36-.53-10.81.44-3.45 1.33-6.71 2.44-9.82 1.1-3.12 2.5-6.06 4.03-8.89 3.07-5.66 6.82-10.81 10.92-15.6 4.11-4.78 8.62-9.17 13.46-13.17 9.64-7.99 20.62-14.55 32.74-18.47 6.04-1.94 12.28-3.26 18.67-3.81 6.39-.53 12.96-.27 19.46 1.36 3.25.81 6.46 2 9.52 3.66 3.06 1.64 5.94 3.79 8.38 6.42 2.46 2.61 4.46 5.69 5.83 8.98a33.96 33.96 0 0 1 1.67 5.02c.21.85.4 1.7.54 2.55l.11.64c.04.21.07.52.1.77.07.53.09 1.07.1 1.6.03 2.13-.34 4.18-.95 6.02-.6 1.86-1.42 3.53-2.32 5.07-1.84 3.07-4.01 5.66-6.35 7.95-4.67 4.58-9.77 8.29-15.08 11.56-10.6 6.51-21.85 11.49-33.44 15.29-1.05.35-2.19-.23-2.53-1.28-.31-.95.12-1.96.98-2.41zm66.33 1.33c11.85-7.88 22.6-17.24 30.88-28.52 4.16-5.62 7.71-11.67 10.96-17.96s6.2-12.81 9.39-19.35c3.17-6.54 6.57-13.09 10.6-19.34 4-6.26 8.66-12.15 13.85-17.5 5.17-5.36 10.82-10.23 16.81-14.56 1.46-1.14 3.02-2.12 4.53-3.18l2.28-1.56 2.34-1.47 4.65-2.92 4.55-2.82c12.11-7.56 23.65-16 34.32-25.35 10.59-9.4 20.36-19.74 28.07-31.29 3.82-5.78 7.15-11.84 9.57-18.17 2.45-6.31 4.02-12.9 4.21-19.5.02-.82.06-1.65.06-2.47l-.13-2.46c-.02-.83-.11-1.64-.22-2.45-.1-.81-.18-1.64-.3-2.45-.36-1.6-.57-3.25-1.1-4.81-.23-.79-.41-1.6-.68-2.39l-.85-2.34c-.25-.79-.63-1.54-.97-2.3-.35-.76-.64-1.55-1.04-2.29-.8-1.48-1.55-2.99-2.48-4.41-1.72-2.94-3.87-5.63-6.02-8.37l-.09-.12c-.85-1.09-.66-2.66.43-3.52.95-.75 2.28-.69 3.17.07 2.85 2.43 5.62 5.05 7.96 8.07 2.42 2.96 4.49 6.25 6.18 9.74 1.74 3.48 2.94 7.23 3.84 11.04.76 3.83 1.27 7.76 1.13 11.66-.02 7.84-1.91 15.47-4.64 22.57-2.79 7.11-6.51 13.72-10.82 19.83-4.3 6.11-9.1 11.79-14.21 17.11-5.11 5.33-10.59 10.22-16.19 14.94l-4.24 3.49c-1.42 1.16-2.88 2.24-4.32 3.37-2.87 2.27-5.84 4.37-8.77 6.54-5.95 4.21-11.96 8.31-18.11 12.19l-4.6 2.93-4.46 2.89-2.21 1.46-2.14 1.54c-1.41 1.04-2.89 2.01-4.24 3.13-5.59 4.26-10.8 8.95-15.53 14.05-4.72 5.12-9.01 10.6-12.81 16.46-3.81 5.85-7.2 12.04-10.45 18.39-3.24 6.36-6.41 12.89-9.98 19.3-3.52 6.43-7.58 12.68-12.25 18.45-4.66 5.77-9.89 11.09-15.63 15.73s-11.85 8.74-18.21 12.32c-.96.54-2.18.2-2.73-.76-.52-.92-.23-2.07.63-2.64zm261.52-189.81c-3.19 1.09-6.48 2.34-9.67 3.64-3.2 1.32-6.38 2.66-9.49 4.15-1.58.68-3.12 1.47-4.66 2.23l-2.31 1.14-2.27 1.22c-1.51.83-3.06 1.56-4.53 2.46-1.48.87-2.95 1.76-4.44 2.59-11.65 7.15-22.63 15.54-31.39 25.95-2.11 2.66-4.38 5.16-6.3 8.05l-2.99 4.21-2.79 4.34-1.4 2.17c-.45.73-.87 1.49-1.3 2.23l-2.59 4.47c-1.55 3.07-3.22 6.09-4.62 9.23-2.91 6.24-5.4 12.68-7.4 19.28-.96 3.31-1.86 6.64-2.52 10.02-.67 3.35-1.29 6.83-1.52 10.09l-.01.13a1.993 1.993 0 0 1-2.13 1.85 2.004 2.004 0 0 1-1.86-1.98c-.03-3.78.26-7.3.77-10.89.47-3.58 1.2-7.1 1.98-10.61 1.61-7.02 3.92-13.86 6.68-20.51 1.3-3.36 2.95-6.57 4.47-9.83l2.55-4.76c.43-.79.84-1.59 1.29-2.37l1.39-2.31 2.8-4.62 3.04-4.46c1.93-3.02 4.33-5.82 6.54-8.71l.85-1.08c.29-.35.61-.68.91-1.02l1.85-2.01c1.25-1.32 2.46-2.69 3.76-3.97l4-3.71 2.01-1.85 2.12-1.71 4.24-3.43 4.43-3.16 2.23-1.55 2.31-1.43c1.55-.94 3.06-1.93 4.63-2.83 6.3-3.56 12.87-6.59 19.61-9.1 3.39-1.21 6.8-2.36 10.28-3.26l2.61-.69 2.64-.59c1.77-.39 3.52-.69 5.37-.95a2 2 0 0 1 2.26 1.7c.14.97-.44 1.87-1.34 2.18zM147.94 445.36c11.03-2.35 21.72-5.5 31.75-10.08 10.03-4.56 19.42-10.37 27.86-17.36 4.22-3.5 8.19-7.28 11.91-11.32 1.86-2.02 3.62-4.13 5.32-6.28 1.72-2.14 3.34-4.36 4.91-6.62a112.42 112.42 0 0 0 14.48-29.65l.01-.03a2.508 2.508 0 0 1 3.15-1.63 2.5 2.5 0 0 1 1.71 2.8c-1.93 11.62-6.41 22.8-12.56 32.89-1.56 2.51-3.19 4.98-4.93 7.38-1.76 2.38-3.61 4.7-5.55 6.93-3.87 4.49-8.12 8.66-12.68 12.45-9.1 7.61-19.48 13.7-30.54 17.89-11.07 4.13-22.77 6.43-34.41 6.6a2.01 2.01 0 0 1-2.04-1.98c-.01-.98.67-1.8 1.59-1.99z"/>
</svg>
