<svg width="238" height="227" fill="none" xmlns="http://www.w3.org/2000/svg">
    <path d="M4.429 104.921c-.884-1.378-2.186-2.396-3.234-3.624-.6-.703-1.603.315-1.019 1.019.974 1.138 2.201 2.066 3.01 3.324.51.763 1.737.06 1.243-.719Z" fill="#D7C6F9"/>
    <path d="m181.955 201.021 21.562-.329-.45-19.601c-8.999 3.968-15.737 11.38-21.112 19.93Z" fill="#C3AAF6"/>
    <path d="M175.217.316a18.08 18.08 0 0 1-1.977 2.291c-.659.644.36 1.662 1.018 1.018.809-.793 1.528-1.662 2.202-2.575.539-.764-.704-1.483-1.243-.734Z" fill="#D7C6F9"/>
    <path d="m170.47 88.36 7.936-3.608-1.378 7.546-6.558-3.938Z" fill="#C3AAF6"/>
    <path d="M179.709 185.089H6.749L3.89 36.417l172.96-4.282 1.99 101.265.644 33.031.075 3.863.15 14.794Z" fill="#AF8EF3"/>
    <path d="M13.398 204.27a.725.725 0 0 1-.719-.704L8.397 16.308a.713.713 0 0 1 .719-.719h190.118c.39 0 .719.314.719.704l.21 26.054a.716.716 0 0 1-.704.718.716.716 0 0 1-.719-.703l-.195-25.35H9.835l4.252 185.821 188.696-2.83-.928-39.755a.719.719 0 0 1 .703-.734c.375-.015.719.3.734.704l.943 40.474a.768.768 0 0 1-.194.509.802.802 0 0 1-.509.224L13.398 204.27Z" fill="#2E2E2E"/>
    <path d="M74.924 68.55H32.01a2.543 2.543 0 0 1-2.545-2.545V59.85a2.543 2.543 0 0 1 2.545-2.546l42.914.914a2.543 2.543 0 0 1 2.546 2.545v5.24c.015 1.393-1.138 2.546-2.546 2.546Z" fill="#F5F0FD"/>
    <path d="M35.095 39.756c0 1.408-.554 2.59-2.546 2.59-1.407 0-2.545-1.182-2.545-2.59a2.543 2.543 0 0 1 2.545-2.545 2.553 2.553 0 0 1 2.546 2.545Z" fill="#2E2E2E"/>
    <path d="M32.564 43.065c-1.797 0-3.25-1.482-3.25-3.309a3.256 3.256 0 0 1 3.25-3.249 3.256 3.256 0 0 1 3.25 3.25c0 2.14-1.154 3.308-3.25 3.308Zm0-5.136a1.834 1.834 0 0 0-1.827 1.827c0 1.018.839 1.872 1.827 1.872 1.303 0 1.827-.54 1.827-1.872a1.834 1.834 0 0 0-1.827-1.827Zm10.017 5.136c-1.796 0-3.249-1.482-3.249-3.309a3.256 3.256 0 0 1 3.25-3.249 3.256 3.256 0 0 1 3.249 3.25c.015 2.14-1.138 3.308-3.25 3.308Zm0-5.136a1.834 1.834 0 0 0-1.826 1.827c0 1.018.838 1.872 1.826 1.872 1.303 0 1.827-.54 1.827-1.872a1.824 1.824 0 0 0-1.827-1.827ZM34.84 198.446c-4.238 0-7.666-3.504-7.666-7.817 0-4.237 3.444-7.666 7.666-7.666 4.237 0 7.666 3.444 7.666 7.666 0 5.121-2.65 7.817-7.666 7.817Zm0-14.046a6.25 6.25 0 0 0-6.244 6.244c0 3.459 2.86 6.379 6.244 6.379 4.252 0 6.244-2.021 6.244-6.379a6.25 6.25 0 0 0-6.244-6.244ZM51.985 43.065c-1.797 0-3.25-1.482-3.25-3.309a3.256 3.256 0 0 1 3.25-3.249 3.266 3.266 0 0 1 3.249 3.25c0 2.14-1.153 3.308-3.25 3.308Zm0-5.136a1.834 1.834 0 0 0-1.827 1.827c0 1.018.838 1.872 1.827 1.872 1.302 0 1.827-.54 1.827-1.872a1.834 1.834 0 0 0-1.827-1.827Zm-1.812 43.993H32.564a.719.719 0 0 1-.719-.72.71.71 0 0 1 .72-.718h17.623a.72.72 0 0 1 .719.719c0 .404-.33.719-.734.719Zm-6.363 9.523H32.55a.719.719 0 0 1-.72-.719.71.71 0 0 1 .72-.719h11.26a.72.72 0 0 1 .718.72.71.71 0 0 1-.719.718Z" fill="#2E2E2E"/>
    <path d="M34.84 192.89a.719.719 0 0 1-.719-.718v-10.781a.719.719 0 1 1 1.438 0v10.781c0 .404-.33.718-.719.718Zm75.616 25.006h-9.283a.718.718 0 0 1-.719-.719v-14.943a.72.72 0 0 1 .719-.719.71.71 0 0 1 .718.719v14.225h7.817l-.929-14.315a.72.72 0 0 1 .674-.764c.404-.03.734.27.764.674l.973 15.063a.732.732 0 0 1-.195.54.75.75 0 0 1-.539.239Z" fill="#2E2E2E"/>
    <path d="m109.947 209.137-.449-7.023-8.325.12v14.943h.03c2.875-2.725 5.764-5.435 8.744-8.04Z" fill="#2E2E2E"/>
    <path d="M134.594 227H77.53a.736.736 0 0 1-.644-.404.743.743 0 0 1 .09-.764c4.252-5.151 19.824-10.362 33.525-9.373 13.581.973 24.078 8.924 24.527 9.253.239.18.344.509.239.794a.691.691 0 0 1-.673.494Zm-55.328-1.422h53.022c-3.594-2.306-11.994-6.963-21.877-7.682-12.008-.883-25.904 3.279-31.145 7.682Zm115.207-113.664a.726.726 0 0 1-.719-.704l-.689-32.822a.719.719 0 0 1 .704-.734h.015c.389 0 .704.315.719.704l.688 32.822a.719.719 0 0 1-.703.734h-.015Z" fill="#2E2E2E"/>
    <path d="m151.424 178.486-128.742.763-.24-53.545S60.265 93.092 97.115 97.06c0-.794-.285-21.038-.3-23.12-.014-.913-1.976-.733-2.665-.913 0 0-3.025-1.452-4.312-2.92-.375-1.063-.375-3.324-.39-4.432 2.875-2.29 3.355-2.276 6.769-3.758 1.063-.464 2.8-20.918 10.586-22.895.269-.06 28.824 0 30.561 6.29-.15.254.134 25.948.419 36.295-1.617 10.796-6.499 12.533-12.593 15.034.15 1.018-.404 2.575-.254 3.593 2.545-.105 18.163 9.344 25.245 16.516 2.815 2.845 5.959 5.675 8.206 9.029 2.455 2.096 4.866 3.968 7.621 5.48 4.971 2.755 9.942 2.411 13.476 1.543v33.615c-28.105 0-44.411-19.091-44.411-19.091l-1.782 7.891c25.964 11.485 18.133 23.269 18.133 23.269Z" fill="#F5F0FD"/>
    <path d="M96.201 96.311c-5.18-.39-28-1.168-50.52 13.012-11.11 6.993-24.407 15.782-24.676 17.849a.848.848 0 0 0 .194.643c.135.15.33.225.524.225.18 0 .345-.06.494-.195a.682.682 0 0 0 .225-.449c.314-.509 2.92-3.578 24.017-16.86 25.036-15.767 50.416-12.728 50.67-12.698.18.016.36-.03.51-.134a41.4 41.4 0 0 0-1.438-1.393Zm37.225 58.921c-.045 0-.075 0-.12-.015a.704.704 0 0 1-.584-.824c.015-.089 1.467-8.744 5.645-17.818a.694.694 0 0 1 .943-.344c.36.164.509.584.345.943-4.088 8.894-5.586 17.714-5.6 17.803-.045.36-.285.255-.629.255Zm44.98 36.191h-7.936a.72.72 0 0 1 0-1.438h7.936a.72.72 0 0 1 0 1.438Z" fill="#2E2E2E"/>
    <path d="M99.66 62.067c-4.686-.24-7.995.524-9.822 2.246a4.86 4.86 0 0 0-1.542 3.593c0 1.453.598 2.83 1.677 3.864.958.913 2.74 1.976 5.914 2.006l.57 22.55c-.375-.03-.884-.06-1.498-.105.314.51.644 1.004.988 1.498.719.06 1.123.105 1.153.105a.71.71 0 0 0 .569-.18.757.757 0 0 0 .24-.554l-.614-24.063a.727.727 0 0 0-.225-.509.735.735 0 0 0-.524-.194c-2.47.104-4.402-.45-5.585-1.588a3.873 3.873 0 0 1-1.228-2.83 3.44 3.44 0 0 1 1.093-2.56c1.512-1.438 4.537-2.081 8.76-1.857.359.015.733-.284.748-.674a.697.697 0 0 0-.674-.748Zm25.47 10.346a.719.719 0 0 1-.718-.718.71.71 0 0 1 .718-.719c1.333 0 2.441-.36 2.95-.958.285-.345.389-.749.3-1.258-.195-1.123-2.696-1.752-3.893-1.887a.724.724 0 0 1-.644-.704v-6.543a.718.718 0 1 1 1.437 0v5.93c1.333.24 4.163.973 4.507 2.98.15.928-.06 1.751-.614 2.41-.808.943-2.231 1.468-4.043 1.468Zm-8.999-8.714a.696.696 0 0 1-.434-.15c-1.258-.958-4.327-1.767-5.39-1.991a.728.728 0 0 1-.554-.854.728.728 0 0 1 .853-.554c.165.03 4.193.913 5.959 2.261.315.24.375.689.135 1.003a.67.67 0 0 1-.569.285Zm13.746-2.486v1.423c0 1.842 2.86 1.842 2.86 0v-1.423c0-1.842-2.86-1.842-2.86 0Zm-16.666-6.903c-1.153.255-2.261.554-3.339 1.019-.838.36-.119 1.602.719 1.227.958-.419 1.977-.658 2.995-.883.898-.18.524-1.557-.375-1.363Zm19.885-.254c-.733-.494-1.542-.853-2.231-1.393-.718-.569-1.737.435-1.018 1.019.794.628 1.692 1.063 2.516 1.617.778.509 1.497-.719.733-1.243Zm-16.89 24.826c-1.063-.165-2.485-.659-2.56-1.932-.06-.913-1.483-.913-1.423 0 .12 1.947 1.827 3.025 3.609 3.31.883.134 1.273-1.243.374-1.378Z" fill="#2E2E2E"/>
    <path d="M114.17 116.331c-11.38 0-20.08-8.026-20.724-19.166a.707.707 0 0 1 .674-.749.717.717 0 0 1 .749.674c.614 10.631 8.655 17.983 19.585 17.818 5.57-.075 8.91-2.321 10.736-4.207 2.067-2.141 3.279-4.986 3.22-7.607a.719.719 0 0 1 .703-.734h.015c.39 0 .704.315.719.704.06 3.04-1.258 6.184-3.624 8.625-2.006 2.081-5.675 4.567-11.739 4.642h-.314Z" fill="#2E2E2E"/>
    <path d="M138.651 55.928a937.799 937.799 0 0 1-.119-6.933C138.352 37.72 131.12 32 117.03 32c-16.097 0-23.584 6.14-23.584 19.3v11.44c0 .39.315.72.72.72a.723.723 0 0 0 .688-.525c2.081-.165 2.98.33 5.301.315.883-.614.913-14.75 4.671-17.968 6.649-5.705 26.533-3.804 31.774-.63.315 1.333.479 2.786.509 4.358.045 2.396.09 4.717.12 6.933.404 20.963.659 33.63-6.259 37.613-5.929 3.429-16.651 2.77-16.755 2.77a.679.679 0 0 0-.614.285.682.682 0 0 0-.09.673c1.827 4.852 10.541 6.739 10.916 6.828.045.015.104.015.149.015a.728.728 0 0 0 .719-.718v-6.38c2.276-.448 4.537-1.152 6.409-2.23 7.621-4.402 7.367-17.37 6.947-38.871Zm-58.726 95.98c-.733-1.782-4.462-4.417-8.085-4.417-2.875 0-4.732.718-5.915 1.587v-.015c-.06-.105-1.377-2.531-6.543-4.073-1.273-.374-2.59-.494-3.923-.434l4.611-4.253a.71.71 0 0 0 .045-1.003.711.711 0 0 0-1.003-.045l-6.079 5.615c-6.11 1.228-11.74 5.451-12.054 5.69a.716.716 0 0 0-.135 1.003.73.73 0 0 0 .57.285c.15 0 .299-.045.434-.15.105-.075 9.942-7.472 17.16-5.345 4.521 1.332 5.674 3.354 5.69 3.354a.7.7 0 0 0 .269.284c-.869 1.003-1.063 1.947-1.078 2.037a.7.7 0 0 0 .569.823.717.717 0 0 0 .838-.554c.03-.135.779-3.399 6.589-3.399 3.054 0 6.258 2.321 6.768 3.534.12.269.374.434.658.434.09 0 .18-.015.27-.06.314-.12.494-.539.344-.898Z" fill="#2E2E2E"/>
    <path d="M74.206 179.249a.726.726 0 0 1-.674-.464c-4.088-10.915.958-20.963 2.605-23.793.913-1.557 2.965-4.222 4.911-4.267.554 0 1.273.165 1.857 1.048.554.854-.12 2.141-1.333 4.492-1.093 2.096-2.44 4.717-3.144 7.502-1.467 5.825-.524 12.293.794 14.374a.71.71 0 0 1-.225.989.711.711 0 0 1-.988-.225c-1.647-2.605-2.456-9.598-.974-15.483.75-2.949 2.202-5.764 3.265-7.816.629-1.213 1.422-2.74 1.362-3.129-.194-.285-.419-.33-.584-.315-1.018.03-2.71 1.872-3.698 3.564-1.572 2.68-6.379 12.248-2.5 22.565a.704.704 0 0 1-.674.958Z" fill="#2E2E2E"/>
    <path d="M151.753 171.703a.719.719 0 0 1-.718-.719c0-1.887 0-5.42-13.267-12.877-7.502-4.208-22.7-4.178-37.374-4.163-6.064.015-12.338.015-18.118-.254a.708.708 0 0 1-.674-.749.716.716 0 0 1 .75-.674c5.749.27 12.008.27 18.057.255 15.558-.015 30.247-.045 38.078 4.357 12.922 7.262 14 11.095 14 14.12-.03.389-.344.704-.734.704Z" fill="#2E2E2E"/>
    <path d="M151.963 177.542a.736.736 0 0 1-.389-.119.706.706 0 0 1-.195-.989c.524-.778.629-1.736.314-2.859-.524-1.857-3.069-6.828-15.587-12.713a.723.723 0 0 1-.344-.958.723.723 0 0 1 .958-.345c9.328 4.388 15.138 9.224 16.351 13.611.419 1.513.239 2.905-.509 4.028a.728.728 0 0 1-.599.344Z" fill="#2E2E2E"/>
    <path d="M151.469 179.249a.71.71 0 0 1-.674-.958c.764-2.051-1.602-6.124-17.25-13.895a.722.722 0 0 1-.329-.959.721.721 0 0 1 .958-.329c13.701 6.813 19.421 11.784 17.954 15.662-.09.3-.36.479-.659.479Z" fill="#2E2E2E"/>
    <path d="M146.722 179.249c-.06 0-.135-.015-.209-.029a.705.705 0 0 1-.48-.884c.779-2.665-5.061-4.582-9.762-6.139-1.737-.569-3.369-1.108-4.717-1.677a.709.709 0 0 1-.374-.943.72.72 0 0 1 .943-.375c1.288.539 2.89 1.078 4.597 1.632 5.555 1.827 11.859 3.908 10.691 7.906a.731.731 0 0 1-.689.509Z" fill="#2E2E2E"/>
    <path d="m222.862 36.911-80.288 19.675s-2.171 4.972-1.093 7.203c1.063 2.23 1.303 4.043 1.303 4.043l85.065-4.492s8.624-3.699 8.355-14.345c-.27-10.646-4.387-13.042-5.75-13.73-1.378-.675-4.537-1.513-7.592 1.646Z" fill="#F5F0FD"/>
    <path d="M230.993 38.05c-1.153-.645-2.456-.9-3.848-.9-4.462 0-8.071 5.302-8.071 11.86 0 2.35.479 4.552 1.288 6.394 3.324-5.915 6.678-11.83 10.631-17.355Zm-8.475 20.678c1.303 1.347 2.905 2.14 4.612 2.14 4.462 0 8.07-5.3 8.07-11.858 0-3.878-.643-6.573-1.721-8.415-4.073 5.75-7.487 11.964-10.961 18.133Z" fill="#2E2E2E"/>
    <path d="M227.145 64.103c-5.795 0-10.497-6.768-10.497-15.093s4.717-15.093 10.497-15.093c6.962 0 10.496 5.076 10.496 15.093 0 8.325-4.716 15.093-10.496 15.093Zm0-28.749c-5.001 0-9.074 6.124-9.074 13.656 0 7.532 4.073 13.656 9.074 13.656 5.001 0 9.074-6.124 9.074-13.656 0-9.194-2.98-13.656-9.074-13.656Z" fill="#2E2E2E"/>
    <path d="M142.754 67.847a.71.71 0 0 1-.599-.33c-2.455-3.788-2.441-7.382.03-10.661a.623.623 0 0 1 .389-.255l79.929-21.052a.703.703 0 0 1 .868.509.699.699 0 0 1-.509.868L143.188 57.92c-1.886 2.635-1.901 5.42-.045 8.49l41.028-1.812a.729.729 0 0 1 .749.69.72.72 0 0 1-.689.748l-41.447 1.797c0 .015-.015.015-.03.015Z" fill="#2E2E2E"/>
    <path d="m142.559 65.316-1.721-3.07 1.587-3.07a.681.681 0 0 0-.075-.763.696.696 0 0 0-.719-.254l-6.663 1.527a.704.704 0 0 0-.509.45c-.06.149-1.288 3.608.06 5.884a.695.695 0 0 0 .614.344h6.798a.691.691 0 0 0 .613-.36.668.668 0 0 0 .015-.688Zm57.469-.015a.72.72 0 0 1-.03-1.437l27.102-1.198c.359-.015.734.284.749.689a.72.72 0 0 1-.689.748l-27.102 1.198h-.03Z" fill="#2E2E2E"/>
    <path d="M178.316 132.607c5.031-2.186 8.865-2.785 10.227-7.307 1.378-4.522 4.028-10.796 6.633-14.12 0 0-.374-4.357 2.217-4.822 0 0 2.815-5.944.613-15.797-2.186-9.852-4.821-12.473-9.418-17.294-4.597-4.822-5.48-9.628-4.163-12.698 1.318-3.07 5.631-10.885 7.847-10.706 2.216.18 4.192 2.381 2.665 4.792-1.527 2.41-3.923 3.414-2.186 5.54s4.956 2.35 7.352 4.747c5.72.21 11.215-.21 11.215-.21s11.41 17.07 13.371 29.767c1.977 12.698 2.067 17.519 2.067 17.519s2.56 1.662 2.096 3.504c-.464 1.842-1.752 2.186-1.752 2.186s-1.752 18.388-6.349 24.078c-4.597 5.69-14.314 19.39-24.556 21.951-10.242 2.56-18.133 2.351-19.002 2.351-.868 0 1.123-33.481 1.123-33.481Z" fill="#F5F0FD"/>
    <path d="M174.034 134.089c-5.331 0-11.35-3.039-20.454-12.532-12.218-12.743-19.316-17.759-29.213-20.634a.703.703 0 0 1-.479-.883.697.697 0 0 1 .883-.48c10.182 2.965 17.429 8.071 29.857 21.008 12.877 13.432 19.002 12.937 24.167 11.275 7.682-2.47 9.733-6.498 9.763-6.543a.71.71 0 0 1 .958-.33c.36.165.51.599.33.944-.09.179-2.276 4.597-10.601 7.277-1.722.554-3.429.898-5.211.898Zm53.111-20.723c-.015 0-.015 0 0 0a.732.732 0 0 1-.719-.734c.33-16.081-4.447-30.935-15.512-48.17a.72.72 0 0 1 .209-.988.72.72 0 0 1 .989.21c11.215 17.489 16.081 32.597 15.737 48.963a.707.707 0 0 1-.704.719Z" fill="#2E2E2E"/>
    <path d="M178.706 167.645c-15.378 0-30.157-6.618-44.053-19.735a.71.71 0 0 1 .974-1.033c15.902 15.003 32.941 21.337 50.64 18.806 22.85-4.282 40.129-25.035 40.159-48.274 0-.389.33-.704.719-.719a.72.72 0 0 1 .719.719c-.045 23.913-17.819 45.28-41.357 49.682a55.198 55.198 0 0 1-7.801.554Z" fill="#2E2E2E"/>
    <path d="M190.28 134.104a.71.71 0 0 1-.704-.614l-.164-1.003c-.854-5.226-2.441-14.958 5.734-23.089a.698.698 0 0 1 1.004 0 .697.697 0 0 1 0 1.003c-7.652 7.607-6.139 16.875-5.331 21.847l.165 1.003a.71.71 0 0 1-.599.808c-.03.045-.06.045-.105.045Zm-44.217 22.94c-.105-.09-.209-.18-.344-.3-5.81-5.061-7.622-16.111-7.622-16.111s-.284-.21-1.901 3.294 0 4.762 0 4.762 7.142 6.109 9.822 8.385l.045-.03Zm52.258-50.431c-.045 0-.105 0-.15-.015-.389-.075-.629-.464-.554-.854 1.153-5.465-.434-22.804-4.357-26.892l-.165-.165c-5.076-5.285-11.41-11.874-9.703-17.683 1.363-4.642 5.69-10.063 8.895-11.14 1.362-.465 2.276-.105 2.8.284 1.826 1.347 1.108 4.357-2.157 8.984a1.177 1.177 0 0 0-.164 1.063c.12.36.389.644.763.764 4.223 1.437 11.815 4.686 15.243 10.361a.711.711 0 0 1-.239.989.714.714 0 0 1-.988-.24c-3.205-5.286-10.452-8.37-14.495-9.748a2.615 2.615 0 0 1-1.302-3.998c2.53-3.578 3.473-6.258 2.47-6.992-.374-.27-.868-.3-1.497-.09-2.785.943-6.738 5.99-7.981 10.197-1.467 5.001 4.791 11.53 9.358 16.291l.165.165c4.582 4.776 5.855 22.834 4.717 28.18-.03.314-.33.539-.659.539Z" fill="#2E2E2E"/>
    <path d="M216.514 120.404c-4.208 0-8.76-.734-12.623-2.231-5.346-2.082-8.445-5.256-8.954-9.194-.24-1.797.689-3.579 2.051-3.983.405-.12 1.827-.345 2.815 1.752 1.408 2.979 3.968 5.091 7.607 6.274 7.741 2.515 17.369.104 19.376-.989a.687.687 0 0 1 .733.03c.195.135 1.947 1.303 2.052 2.965.045.599-.135 1.482-1.168 2.351-2.366 1.991-6.903 3.025-11.889 3.025Zm-18.987-14.061c-.045 0-.09 0-.134.015-.54.15-1.198 1.183-1.034 2.426.554 4.268 4.687 6.738 8.056 8.041 7.876 3.069 19.091 2.8 23.089-.554.464-.389.674-.779.659-1.168-.045-.629-.644-1.258-1.093-1.617-3.174 1.437-12.742 3.264-20.079.898-4.043-1.302-6.888-3.668-8.46-7.022-.165-.33-.54-1.019-1.004-1.019Z" fill="#2E2E2E"/>
    <path d="M195.655 179.249H22.681a.725.725 0 0 1-.718-.703l-2.86-148.657a.719.719 0 0 1 .704-.734l172.959-4.282a.853.853 0 0 1 .509.194.8.8 0 0 1 .224.51l.345 18.432c0 .389-.3.718-.704.733-.374.015-.719-.314-.734-.703l-.329-17.714-171.522 4.238 2.83 147.249h171.537l-.135-14.06c0-.389.314-.719.704-.719.389 0 .718.315.718.704l.135 14.779a.717.717 0 0 1-.209.509c-.105.15-.285.224-.48.224Z" fill="#2E2E2E"/>
</svg>
