<svg viewBox="0 0 1879.6 1790.1" xmlns="http://www.w3.org/2000/svg" xmlns:xlink="http://www.w3.org/1999/xlink">
    <linearGradient id="a">
        <stop offset="0" stop-color="#9c6ff4"/>
        <stop offset="1" stop-color="#fff"/>
    </linearGradient>
    <linearGradient id="b" gradientTransform="matrix(-1 0 0 1 1968.9 745.082)" gradientUnits="userSpaceOnUse" x1="2094.983" x2="1800.359" xlink:href="#a" y1="-153.595" y2="49.774"/>
    <linearGradient id="c" gradientTransform="matrix(-1 0 0 1 1968.9 745.082)" gradientUnits="userSpaceOnUse" x1="2023.166" x2="1704.046" xlink:href="#a" y1="-329.798" y2="-109.52"/>
    <linearGradient id="d" gradientTransform="matrix(-1 0 0 1 1968.9 745.082)" gradientUnits="userSpaceOnUse" x1="1530.037" x2="174.12" y1="-236.715" y2="1253.355">
        <stop offset=".054" stop-color="#9c6ff4"/>
        <stop offset="1" stop-color="#fff"/>
    </linearGradient>
    <path d="M555.9 331.3h1192.2V1788H555.9z" fill="#fff"/>
    <path d="M56.1 174.6v1459.8c0 1.6 1 2.9 2.5 3.4l492.8 152.1c.3.1.7.2 1 .2.8 0 1.5-.3 2.1-.7.9-.6 1.4-1.7 1.4-2.8V326.7c0-1.6-1-2.9-2.5-3.4L60.6 171.2c-1-.4-2.2-.2-3.1.5s-1.4 1.8-1.4 2.9z" fill="#9c6ff4"/>
    <path d="m0 593.9 107.3 87.6v155.7L0 749.6z" fill="url(#b)"/>
    <path d="m40.8 432.2 61.7 50.4v89.6l-61.7-50.4z" fill="url(#c)"/>
    <path d="M548.9 1786.6V326.7c0-1.9 1.6-3.5 3.5-3.5h1195.7c1.9 0 3.5 1.6 3.5 3.5v1459.9c0 1.9-1.6 3.5-3.5 3.5H552.4c-1.9 0-3.5-1.6-3.5-3.5zM1744.6 330.2H555.9V1783h1188.7z" fill="#9c6ff4"/>
    <path d="M104.8 64.1v1348.7l447.6 373.8V326.7L165.4 3.5l-60.6 60.6z" fill="#fff"/>
    <path d="m550.2 1789.3-447.6-373.8c-.8-.7-1.3-1.7-1.3-2.7V64.1c0-1 .3-1.8 1-2.5L162.9 1c1.3-1.3 3.3-1.4 4.7-.2l387 323.2c.8.7 1.3 1.7 1.3 2.7v1459.9c0 1.4-.8 2.6-2 3.2-.5.2-1 .3-1.5.3-.8 0-1.6-.3-2.2-.8zM165.6 8.2l-57.3 57.3v1345.6l440.6 368V328.3z" fill="#44219b"/>
    <path d="M496.8 406.6 274.7 221c-1.4-1.2-1.6-3.4-.4-4.9s3.4-1.6 4.9-.4l222.1 185.5c1.4 1.2 1.6 3.4.4 4.9-.7.9-1.7 1.3-2.7 1.3-.8 0-1.6-.3-2.2-.8zm0 74.2-153.2-128c-1.4-1.2-1.6-3.4-.4-4.9 1.2-1.4 3.4-1.6 4.9-.4l153.2 127.9c1.4 1.2 1.6 3.4.4 4.9-.7.9-1.7 1.3-2.7 1.3-.8 0-1.6-.3-2.2-.8z" fill="#7b40f0"/>
    <path d="m305.5 1169-153.2-127.9c-1.4-1.2-1.6-3.4-.4-4.9s3.4-1.6 4.9-.4L310 1163.7c1.4 1.2 1.6 3.4.4 4.9-.7.9-1.7 1.3-2.7 1.3-.8 0-1.6-.2-2.2-.9zm-9 206.7-76.6-64c-1.4-1.2-1.6-3.4-.4-4.9s3.4-1.6 4.9-.4l76.6 64c1.4 1.2 1.6 3.4.4 4.9-.7.9-1.7 1.3-2.7 1.3-.8 0-1.6-.2-2.2-.9zm76.6 64-30-25c-1.4-1.2-1.6-3.4-.4-4.9s3.4-1.6 4.9-.4l30 25c1.4 1.2 1.6 3.4.4 4.9-.7.9-1.7 1.3-2.7 1.3-.8 0-1.6-.3-2.2-.9z"/>
    <path d="M1057.3 542.1c0-28.8 23.4-52.2 52.2-52.2h356.9c28.8 0 52.2 23.4 52.2 52.2s-23.4 52.2-52.2 52.2h-356.8c-28.8 0-52.2-23.4-52.3-52.2zm52.2-45.1c-24.9 0-45.2 20.3-45.2 45.2s20.3 45.2 45.2 45.2h356.9c24.8 0 45.1-20.3 45.1-45.2s-20.2-45.2-45.1-45.2z" fill="#008941"/>
    <path d="M1130.8 686.3c0-1.9 1.6-3.5 3.5-3.5h290.9c1.9 0 3.5 1.6 3.5 3.5s-1.6 3.5-3.5 3.5h-290.9c-2 0-3.5-1.6-3.5-3.5zm7.5 949c0-1.9 1.6-3.5 3.5-3.5h107.4c1.9 0 3.5 1.6 3.5 3.5s-1.6 3.5-3.5 3.5h-107.4c-1.9 0-3.5-1.6-3.5-3.5zm-131.7 34c0-1.9 1.6-3.5 3.5-3.5h239.1c1.9 0 3.5 1.6 3.5 3.5s-1.6 3.5-3.5 3.5h-239.1c-1.9 0-3.5-1.6-3.5-3.5z"/>
    <path d="M658.6 1669.3c0-1.9 1.6-3.5 3.5-3.5h112c1.9 0 3.5 1.6 3.5 3.5s-1.6 3.5-3.5 3.5h-112c-2 0-3.5-1.6-3.5-3.5z" fill="#9c6ff4"/>
    <path d="m1632.9 1298.6 24.8-19.5z" fill="#fff"/>
    <path d="M1442.4 682.6c0-10.2 8.3-18.5 18.5-18.5s18.5 8.3 18.5 18.5-8.3 18.5-18.5 18.5-18.5-8.3-18.5-18.5zm7 0c0 6.3 5.2 11.5 11.5 11.5s11.5-5.2 11.5-11.5-5.2-11.5-11.5-11.5-11.5 5.2-11.5 11.5z"/>
    <path d="M1796.7 1013.8V286.9H969.8c-1.9 0-3.5-1.6-3.5-3.5s1.6-3.5 3.5-3.5h830.4c1.9 0 3.5 1.6 3.5 3.5v730.4c0 1.9-1.6 3.5-3.5 3.5-2 0-3.5-1.6-3.5-3.5z" fill="#fff"/>
    <path d="m1748.1 1786.6-147.5.8L1747 1647zM693.7 1648.7c-1.4-1.4-1.4-3.6 0-5l48.7-48.7c1.4-1.4 3.6-1.4 5 0s1.4 3.6 0 5l-48.7 48.7c-.7.7-1.6 1-2.5 1s-1.8-.3-2.5-1z" fill="#9c6ff4"/>
    <path d="m742.4 1648.7-48.7-48.7c-1.4-1.4-1.4-3.6 0-5s3.6-1.4 5 0l48.7 48.7c1.4 1.4 1.4 3.6 0 5-.7.7-1.6 1-2.5 1s-1.8-.3-2.5-1z" fill="#9c6ff4"/>
    <path d="M525.1 665.9c0-1.9 1.6-3.5 3.5-3.5h44.9c1.9 0 3.5 1.6 3.5 3.5s-1.6 3.5-3.5 3.5h-44.9c-2 0-3.5-1.6-3.5-3.5zm0 33c0-1.9 1.6-3.5 3.5-3.5h44.9c1.9 0 3.5 1.6 3.5 3.5s-1.6 3.5-3.5 3.5h-44.9c-2 0-3.5-1.6-3.5-3.5zm0 650.1c0-1.9 1.6-3.5 3.5-3.5h44.9c1.9 0 3.5 1.6 3.5 3.5s-1.6 3.5-3.5 3.5h-44.9c-2 0-3.5-1.6-3.5-3.5zm0 32.9c0-1.9 1.6-3.5 3.5-3.5h44.9c1.9 0 3.5 1.6 3.5 3.5s-1.6 3.5-3.5 3.5h-44.9c-2 0-3.5-1.6-3.5-3.5z"/>
    <circle cx="193.9" cy="1291.7" fill="#fff" r="20.5"/>
    <path d="M169.9 1291.6c0-13.2 10.8-24 24-24s24 10.8 24 24-10.8 24-24 24c-13.3 0-24-10.8-24-24zm7 .1c0 9.4 7.6 17 17 17s17-7.6 17-17-7.7-17-17-17c-9.4 0-17 7.6-17 17z"/>
    <path d="M101.3 64.4c0-1.9 1.6-3.5 3.5-3.5h57.1V3.5c0-1.9 1.6-3.5 3.5-3.5s3.5 1.6 3.5 3.5v60.9c0 1.9-1.6 3.5-3.5 3.5h-60.6c-2 0-3.5-1.6-3.5-3.5z" fill="#44219b"/>
    <path d="m302.5 704.8 547.2 776.7 420.6-232.8 357.3 357.3 77.1-77.1 108 108 66.9-66.9-174.9-174.9-77.1 77.1-340.8-340.8-408.6 226.1L380 650.4s-50.8 37.6-77.5 54.4z" fill="url(#d)"/>
    <path d="m425.3 620.9-169 117.3L245 541.5z" fill="#9c6ff4"/>
    <path d="M1542 405.6v393.9c0 16.5 5.5 31.7 14.9 43.9 13.2 17.1 33.9 28.1 57.1 28.1 18.4 0 35.1-6.8 47.8-18.1 14.8-13.2 24.2-32.5 24.2-53.9V405.6z" fill="#5b12eb"/>
    <path d="M1693 444.8V244.5c0-43.7-35.4-117.3-79.1-117.3s-79.1 73.6-79.1 117.3v200.3z" fill="#5b12eb"/>
    <path d="M1531.3 446.3c0-1.9 1.6-3.5 3.5-3.5h160c1.9 0 3.5 1.6 3.5 3.5s-1.6 3.5-3.5 3.5h-160c-1.9 0-3.5-1.6-3.5-3.5z" fill="#fff"/>
    <path d="M1505.7 284.5v-55.1c0-1.9 1.6-3.5 3.5-3.5h78c1.9 0 3.5 1.6 3.5 3.5s-1.6 3.5-3.5 3.5h-74.5v51.7c0 1.9-1.6 3.5-3.5 3.5s-3.5-1.6-3.5-3.6z" fill="#5b12eb"/>
    <path d="M1538.4 799.6c0-1.9 1.6-3.5 3.5-3.5h144c1.9 0 3.5 1.6 3.5 3.5s-1.6 3.5-3.5 3.5h-144c-1.9 0-3.5-1.6-3.5-3.5zM1666 363.3v-85.7c0-1.9 1.6-3.5 3.5-3.5s3.5 1.6 3.5 3.5v85.7c0 1.9-1.6 3.5-3.5 3.5s-3.5-1.6-3.5-3.5z" fill="#fff"/>
    <path d="m953.7 707.6-2.1-30c-.1-2 1.4-3.7 3.3-3.8 1.8-.1 3.7 1.4 3.8 3.3l2.1 30c.1 2-1.4 3.7-3.3 3.8h-.3c-1.9 0-3.4-1.4-3.5-3.3zm30.1 50.1c-.6-1.8.4-3.8 2.2-4.4l19.3-6.4c1.8-.6 3.8.4 4.4 2.2s-.4 3.8-2.2 4.4l-19.3 6.4c-.4.1-.7.2-1.1.2-1.4 0-2.8-.9-3.3-2.4z" fill="#7b40f0"/>
    <path d="M109 1752.1c-1.8.8-3.9-.1-4.6-1.9l-11.6-28.8c-.8-1.8.1-3.9 1.9-4.6 1.8-.8 3.9.1 4.6 1.9l11.6 28.8c.1.4.2.7.2 1.1 0 1.5-.8 2.9-2.1 3.5z" fill="#9c6ff4"/>
    <path d="m1321.7 1066.3 100.8 125.6 44.2-12.4c-24.8-63.7-51.3-120.3-51.3-120.3z" fill="#fff"/>
    <path d="m1419.6 1194.1-100.8-125.6c-.8-1-1-2.4-.5-3.6.6-1.2 1.7-2 3-2.1l93.8-7.1c1.4-.1 2.8.7 3.4 2 .3.6 26.9 57.4 51.4 120.5.4.9.3 1.9-.1 2.8-.5.9-1.2 1.5-2.2 1.8l-44.2 12.4c-.3.1-.6.1-.9.1-1.1 0-2.1-.4-2.9-1.2zm-6.4-131.3-84.7 6.4 95.2 118.6 38.3-10.7c-21.3-54.4-43.8-103.5-48.8-114.3z"/>
    <path d="m1496.9 1312.1 84.9 102.6 145-118.5c-40.7-38.9-69-7.1-69-7.1L1610 1229z" fill="#fff"/>
    <path d="m1578.9 1416.9-84.9-102.6c-.6-.8-.9-1.7-.8-2.7s.6-1.8 1.4-2.4l113.2-83.1c1.5-1.2 3.6-.9 4.8.6l45.4 57.2c4.5-3.8 13.8-10.1 26.8-10.6 14.8-.6 29.6 6.3 44.3 20.3.7.7 1.1 1.7 1.1 2.7-.1 1-.5 2-1.3 2.6l-145 118.5c-.6.5-1.4.8-2.2.8-1 0-2-.4-2.8-1.3zm106.4-136.6c-15.3.6-24.8 11-24.9 11.1-.7.8-1.8 1.3-2.7 1.2-1 0-2-.5-2.6-1.3l-45.7-57.5-107.5 78.9 80.3 97 139.2-113.7c-12.3-10.8-24.3-16.1-36.1-15.7z"/>
    <path d="M696.3 1134c2 1.4 4.1 2.7 6.2 3.8-4.1-.7-8.3-.4-14.3 2.4 25.5 22.9 49.5 46.7 73.7 70.3 51.1 49.8 125.9 66.9 193.3 43.5l4.2-1.5c71.8-25.2 141.9-53.4 218.7-57.3 121.8-6.2 251.6 47.9 332.6 142.7 38.9-34 79-66.6 118.9-99.5-104.5-118.4-252.2-191.3-410.9-197.7-89.4-3.6-173.3 16.7-257.3 46.1-18.4 6.4-37 13.4-55.9 20.3-6.4-11.4-15.4-21.4-26.2-28.8-37.7-25.8-76.2-50.4-115.6-73.7-35-20.7-78.1-6.9-99.3 26-22.4 34.8-5.1 77.6 26 99.3 1.9 1.4 3.9 2.7 5.9 4.1z"/>
    <path d="M820.2 1149.2c7.7 0 14.8-1.1 21.2-2.9 19.5 34.8 55.5 51 86.6 12.9 50.1-61.4 151.1-173.9 237.9-173.2 71.2.6 102.1 65.3 123.7 125.8 47.8-14 95.7-27.4 143.7-40.6-41.6-112.5-109.4-222.2-242.1-232.4-139.6-10.7-247.5 75.2-332.5 175.9-10.3-6.6-23.1-10.6-38.5-10.6-93.6 0-93.4 145.1 0 145.1z"/>
    <path d="M1400.4 1081.4c-.8-.3-73.8-35.5-138.3-35.5-1.9 0-3.5-1.6-3.5-3.5s1.6-3.5 3.5-3.5c66.1 0 140.6 35.8 141.3 36.2 1.7.9 2.5 3 1.6 4.7-.6 1.3-1.9 2-3.2 2-.5 0-1.1-.1-1.4-.4zm84.9 227.5c-1.4-1.4-1.4-3.6-.1-5l99.6-104.3c1.4-1.4 3.6-1.4 5-.1 1.4 1.4 1.4 3.6.1 5l-99.6 104.4c-.7.7-1.6 1.1-2.5 1.1s-1.8-.4-2.5-1.1z" fill="#fff"/>
    <path d="m1354.6 1055.7 61.7-20.6c1.8-.6 2.8-2.6 2.2-4.4s-2.6-2.8-4.4-2.2l-68 22.7c-1.1.3-1.8 1.1-2.2 2.1 2.6.5 5.3 1 8 1.5.9.2 1.8.5 2.7.9z" fill="#fff"/>
    <path d="M1630.3 1310.7c-1.2-1.5-.9-3.7.6-4.9l24.8-19.5c1.5-1.2 3.7-.9 4.9.6s.9 3.7-.6 4.9l-24.8 19.5c-.7.6-1.4.8-2.2.8-1.1 0-2.1-.5-2.7-1.4zM707 744.1c2 .2 4 .3 6 .1 4.6-.5 24-12 17.3-16.1-7.5-4.5-6.9-18.8 3.8-18.6 10.1.2 33-5.5 46.2-15.6.7 2.1 2.1 4 4.4 5.3 4.5 2.6 12.1 1.4 14.4-3.8 4.4-10.1 1.4-21.5-8.8-26.6-9.9-5-20.7-1.6-29.6 3.9-6.9-3.1-14.2-4.9-21.6-5.2-10.8 6.1-21.6 12.5-31.7 19.7-1.1 4.5-2 8.8-2.9 12.2-5.3 19.5-4 34 2.5 44.7z"/>
    <path d="m696.4 883.7-41.5-30.3c-1.3-1-1.8-2.8-1.1-4.3L702.4 743c-5.7-11.7-6.1-26.7-1.2-44.6 4.8-17.8 17.7-29.2 35.4-31.4 19.8-2.5 41.5 7.5 50.4 23.2 15.3 27 15.4 46.3 15.4 47.1 0 1.5-1 2.8-2.4 3.3l-9.6 3.2c-2.2 6.9-11.1 29.1-36.4 28.2l-52.4 110.3c-.4.9-1.3 1.6-2.3 1.9-.3.1-.6.1-.9.1-.7 0-1.5-.2-2-.6zm55.8-118.8c25.4 2.4 31.8-23.5 32-24.6.3-1.2 1.1-2.2 2.3-2.6l8.7-2.9c-.6-5.8-3.1-21.2-14.4-41.1-7.6-13.4-26.2-21.8-43.4-19.7-8.6 1.1-23.9 5.9-29.5 26.3-4.6 16.9-4.1 30.7 1.5 40.9.5 1 .6 2.2.1 3.2l-48.2 105 35.7 26.1 51.6-108.6c.6-1.2 1.9-2 3.2-2zm171.7 187c-.6-.7-60.1-61.3-119-95-1.7-1-2.3-3.1-1.3-4.8s3.1-2.3 4.8-1.3c59.7 34.2 119.9 95.6 120.5 96.2 1.3 1.4 1.3 3.6-.1 5-.6.7-1.5 1-2.4 1s-1.9-.3-2.5-1.1z"/>
    <path d="M600.8 976.8c32.4 85.2 105.3 175.9 105.3 175.9l209.2-126.8s-16.8-25.6-40.4-66c-43.1-73.9-37.3-134.8-193.8-126.4-99.7 5.4-121.2 35.4-80.3 143.3z" fill="#fff"/>
    <path d="M703.4 1155c-.7-.9-73.6-92.1-105.8-176.9-22.2-58.6-25.6-93-11.2-115 13.2-20.3 41.5-30.2 94.5-33 130.7-7 150.4 33.8 177.5 90.2 5.8 12.2 11.8 24.8 19.5 37.9 23.2 39.9 40.1 65.5 40.3 65.8.5.8.7 1.8.5 2.7s-.8 1.7-1.6 2.2l-209.2 126.8c-.5.3-1.2.5-1.8.5-1 0-2-.5-2.7-1.2zm168.4-193.5c-7.8-13.4-13.9-26.1-19.8-38.4-25.9-54-44.5-93-170.7-86.2-50.5 2.8-77.1 11.7-89 29.9-12.8 19.6-9.2 53.1 11.9 108.6 28.9 76.1 91.1 157.7 102.8 172.6l203.4-123.3c-5.2-7.9-19.8-30.9-38.6-63.2z"/>
    <path d="m716.4 866.3 20.8 20.8 5.9-55.3-14.8-12.9z" fill="#fff"/>
    <path d="m734.6 889.7-20.8-20.8c-.8-.8-1.2-2.1-.9-3.3l11.9-47.4c.3-1.2 1.2-2.1 2.4-2.5 1.2-.3 2.5-.1 3.4.7l14.8 12.8c.9.7 1.3 1.9 1.2 3l-5.9 55.3c-.1 1.3-1 2.4-2.3 2.9-.4.1-.8.2-1.2.2-.9 0-1.8-.4-2.6-.9zm-4.3-64.5-10 40 14.2 14.2 4.9-46.2z"/>
    <path d="m654.2 836.7 38.5 58.3 23.7-28.7-45.4-49.4z" fill="#fff"/>
    <path d="M692.3 898.5c-1.1-.1-2.1-.7-2.7-1.6l-38.5-58.3c-.8-1.3-.7-3 .3-4.2l16.8-19.8c.6-.7 1.6-1.2 2.6-1.2 1.3-.1 2 .4 2.7 1.1l45.5 49.4c1.2 1.3 1.2 3.2.1 4.6l-23.7 28.7c-.7.8-1.7 1.3-2.7 1.3h-.4zm-21.2-76.2L658.6 837l34.5 52.1 18.7-22.6zM929.2 745l141.2 152.8v183.8L929.2 928.8z"/>
    <path d="M1067.8 1084 926.6 931.2c-.6-.7-.9-1.5-.9-2.4V745c0-1.5.9-2.8 2.2-3.3 1.4-.5 2.9-.2 3.9.9L1073 895.4c.6.7.9 1.5.9 2.4v183.8c0 1.5-.9 2.8-2.2 3.3-.4.1-.9.2-1.3.2-.9 0-1.9-.4-2.6-1.1zM932.7 753.9v173.5l134.2 145.2V899.2z" fill="#fff"/>
    <path d="m953.6 803.2 92.4 100v120.1l-92.4-99.9z" fill="#fff"/>
    <path d="m766.7 934.6 141.2 152.8 162.5-5.8-141.2-152.8z"/>
    <g fill="#fff">
        <path d="M905.3 1089.8 764.1 937c-1-1-1.2-2.4-.7-3.7s1.7-2.2 3.1-2.2l162.5-5.8c.9-.1 2 .4 2.7 1.1l141.2 152.8c1 1 1.2 2.4.7 3.7s-1.7 2.2-3.1 2.2l-162.5 5.8h-.1c-1 0-1.9-.4-2.6-1.1zm22.4-157.4-153.3 5.5 135 146 153.3-5.5z"/>
        <path d="m1002.8 1052.1-12-16.5c-1.1-1.6-.8-3.8.8-4.9s3.8-.8 4.9.8l12 16.5c1.1 1.6.8 3.8-.8 4.9-.7.5-1.4.7-2.1.7-1.1 0-2.1-.5-2.8-1.5zm-64.7-57.4L922 971c-1.1-1.6-.7-3.8.9-4.9s3.8-.7 4.9.9l16.1 23.7c1.1 1.6.7 3.8-.9 4.9-.6.4-1.3.6-2 .6-1.1 0-2.2-.5-2.9-1.5zm-1.9 34.4-33.1-52c-1-1.6-.5-3.8 1.1-4.8s3.8-.5 4.8 1.1l33.1 52c1 1.6.5 3.8-1.1 4.8-.6.3-1.2.5-1.9.5-1.2 0-2.3-.6-2.9-1.6zm-104.7 105.5c37.2-38.2 31.2-54.7 44.5-70.1 13.3-15.3 47.5-13.9 44.7-29.3s-43.5-.9-43.5-.9c11.9-13.3 46.4-4.4 40.1-20.5s-52.5-3.8-52.5-3.8c8.6-3.3 49.1-9.2 36.4-21-15.6-14.6-60.5 13.8-60.8 4.1-.2-6.4 24.5-22.9 10.5-27.9-12.4-4.4-28 15.5-84.7 61.3z"/>
    </g>
    <path d="M828.8 1136.9c-1.4-1.4-1.5-3.6-.1-5 23.2-23.9 29.1-38.8 33.9-50.8 2.9-7.1 5.3-13.2 10.5-19.2 6.6-7.6 17.3-11.3 26.8-14.6 12.4-4.3 18.1-6.8 17.2-11.8-.3-1.2-.9-2-2-2.7-6.7-3.9-26.2.7-36.9 4.5-1.5.5-3.2-.1-4.1-1.4s-.8-3.1.3-4.3c6.2-6.9 16.8-8.5 26.2-9.9 5.5-.8 12.4-1.8 13.6-3.9.5-.7.1-2-.3-3-3.9-9.9-34.2-5.4-48.3-1.6-1.8.5-3.6-.5-4.2-2.3s.4-3.7 2.1-4.4c2-.8 5.3-1.6 9.5-2.6 7.1-1.8 25.9-6.4 27-10.6.1-.3-.3-1.1-1.3-2-7.7-7.1-25.9-1.2-39.3 3.1-11.3 3.7-16.9 5.4-20.4 2.9-1.4-1-2.2-2.5-2.3-4.3-.1-3.8 3.2-7.6 7.4-12.4 2.8-3.2 7.9-9.1 7.4-11.2 0-.3-.7-.8-1.9-1.2-6.9-2.4-17.2 6.6-40.1 26.2-10.8 9.3-24.1 20.7-41.3 34.6-1.5 1.2-3.7 1-4.9-.5s-1-3.7.5-4.9c17.1-13.8 30.4-25.2 41.1-34.4 25.8-22.1 36.4-31.3 47-27.5 3.5 1.3 5.7 3.3 6.4 6.1 1.5 5.7-3.8 11.7-8.9 17.6-1.6 1.8-3.9 4.4-5 6.1 3-.4 8.5-2.2 12.8-3.6 15-4.8 35.5-11.5 46.2-1.5 3.7 3.5 3.8 6.8 3.3 8.9-.7 2.7-2.8 5-6 6.9 9.1.7 17 3.4 19.7 10.3 1.4 3.5 1.4 6.6-.1 9.1-1 1.8-2.7 3.1-4.7 4.1 1.2.3 2.2.8 3.1 1.3 3 1.7 4.8 4.3 5.4 7.5 2.1 11.4-10.1 15.6-21.8 19.7-8.6 3-18.4 6.4-23.7 12.6-4.4 5.1-6.5 10.5-9.2 17.2-4.7 12-11.2 28.3-35.4 53.1-.7.7-1.6 1.1-2.5 1.1s-1.8-.4-2.7-1.3z"/>
    <path d="M599.4 853.4c-51.7 41.7-98.6 102.9-115 168.6-15.6 62.6-4.3 130.6 41.2 178.3 49.8 52.3 122.3 57.2 185.6 28.5 47.8-21.7 79.9-63.2 120.3-94.2-22.9-35.4-45.3-71-65.3-108.1-26.6 20-49.8 43.6-75.1 65.6-16.7 14.5-47.4 39.6-70.1 25.2-26.3-16.7-18.5-58.3-8.7-81.7 10.1-24.1 26.6-45.1 44.1-64.7z" fill="#fff"/>
    <path d="M522.8 1202.7c-43.4-45.5-59.1-113.4-42.1-181.6 15.2-61 58.3-123.1 116.9-170.4 1.5-1.2 3.7-1 4.9.5s1 3.7-.5 4.9c-56.6 45.7-99.9 108-114.5 166.7-16.4 65.9-1.3 131.3 40.4 175 45.2 47.4 114.8 58 181.6 27.7 30.8-14 55.6-36.9 79.6-59 12-11.1 24.4-22.5 37.5-32.8-20.6-31.8-42.1-66.1-61.7-102-16.1 12.3-31.2 26.2-45.9 39.7-8.4 7.6-17 15.6-25.8 23.2-14.4 12.5-48.3 42-74.2 25.5-28.9-18.4-19.9-62.8-10.1-86.1 10.9-25.9 28.7-47.7 44.7-65.6 1.3-1.5 3.6-1.6 5-.3 1.5 1.3 1.6 3.6.3 5-15.6 17.5-33 38.7-43.5 63.7-8.3 19.8-17.5 61.6 7.4 77.4 19.1 12.1 45.2-6.9 65.9-24.9 8.7-7.6 17.3-15.5 25.6-23.1 15.7-14.5 32.1-29.4 49.6-42.6.8-.6 1.9-.8 2.9-.6 1 .3 1.8.9 2.3 1.8 20.5 38 43.5 74.3 65.2 107.9 1 1.5.6 3.6-.8 4.7-13.8 10.6-26.9 22.7-39.6 34.4-24.3 22.5-49.6 45.8-81.4 60.2-26.1 11.9-52.8 17.7-78.3 17.7-42.3 0-81.7-16-111.4-47z"/>
    <path d="M654.5 443.6h34.8c19 0 29.6 8.7 29.6 24.4s-10.6 24.4-29.6 24.4h-34.8zm32.3 36.8c9.4 0 14.8-4.4 14.8-12.3s-5.3-12.4-14.8-12.4h-15v24.8h15zm204.5-36.8H912l23.8 48.8h-18.5l-3.8-8.5h-24.4l-3.8 8.5H867zm18.8 30.3-8.6-19.3h-.1l-8.7 19.3zm-69.9 11.6-3.1-5.1c-2-2.9-5.1-4.2-8.3-4.2h-10.4v16.2h-17.8v-48.8h41.1c13.1 0 20.6 5.7 20.6 15.5 0 7.3-5.2 12.4-14.1 14.1v.1c1.6.6 3.1 1.9 4.3 3.7l3.5 5.3c.9 1.2 2 2 4 2 1.2 0 2.8-.6 3.6-1.6l3 7.2c-2.7 2.3-8 4-12.5 4-7.4-.1-11.1-4.3-13.9-8.4zm-3.8-19.3c5.1 0 8.1-2.3 8.1-6 0-3.8-3-6.1-8.1-6.1h-18v12.1z" fill="#7b40f0"/>
    <path d="M759.2 432.2c-19.8 0-35.8 16-35.8 35.8 0 29.5 35.8 45.3 35.8 45.3S795 497.4 795 468c0-19.8-16-35.8-35.8-35.8zm8.7 44.5c-4.8 4.8-12.6 4.8-17.4 0s-4.8-12.6 0-17.4 12.6-4.8 17.4 0 4.8 12.6 0 17.4z" fill="#9c6ff4"/>
</svg>
