<svg width="236" height="226" viewBox="0 0 236 226" fill="none" xmlns="http://www.w3.org/2000/svg">
<path d="M4.87962 104.496C4.00601 103.131 2.71779 102.121 1.6813 100.904C1.08901 100.207 0.0969371 101.216 0.674414 101.914C1.63687 103.042 2.85106 103.962 3.65064 105.208C4.15408 105.965 5.36826 105.268 4.87962 104.496Z" fill="#D7C6F9"/>
<path d="M180.434 199.749L201.756 199.423L201.312 179.995C192.413 183.928 185.749 191.275 180.434 199.749Z" fill="#C3AAF6"/>
<path d="M173.771 0.812754C173.179 1.62904 172.527 2.38596 171.816 3.08351C171.165 3.7217 172.172 4.73093 172.823 4.09275C173.623 3.30614 174.334 2.44533 175 1.53999C175.533 0.783069 174.304 0.0706743 173.771 0.812754Z" fill="#D7C6F9"/>
<path d="M169.074 88.0812L176.922 84.5044L175.56 91.9846L169.074 88.0812Z" fill="#C3AAF6"/>
<path d="M178.212 183.958H7.17581L4.34766 36.5958L175.384 32.3511L177.354 132.725L177.99 165.465L178.064 169.294L178.212 183.958Z" fill="#AF8EF3"/>
<path d="M13.7503 202.97C13.3653 202.97 13.0543 202.658 13.0395 202.272L8.80469 16.6636C8.80469 16.4706 8.87873 16.2925 9.01199 16.159C9.14525 16.0254 9.32294 15.9512 9.51543 15.9512H197.521C197.906 15.9512 198.232 16.2628 198.232 16.6487L198.439 42.4731C198.439 42.859 198.128 43.1855 197.743 43.1855C197.358 43.1855 197.032 42.8738 197.032 42.4879L196.84 17.3611H10.2262L14.4314 201.545L201.03 198.74L200.112 159.336C200.097 158.95 200.408 158.623 200.808 158.609C201.178 158.594 201.519 158.905 201.534 159.306L202.467 199.423C202.467 199.616 202.393 199.794 202.274 199.927C202.141 200.061 201.963 200.135 201.771 200.15L13.7503 202.97Z" fill="#2E2E2E"/>
<path d="M74.591 68.4458H32.1539C30.7621 68.4458 29.6367 67.3179 29.6367 65.9228V59.8229C29.6367 58.4278 30.7621 57.2998 32.1539 57.2998L74.591 58.2051C75.9829 58.2051 77.1082 59.3331 77.1082 60.7282V65.9228C77.123 67.303 75.9829 68.4458 74.591 68.4458Z" fill="#F5F0FD"/>
<path d="M35.2063 39.9054C35.2063 41.3005 34.6584 42.473 32.6891 42.473C31.2972 42.473 30.1719 41.3005 30.1719 39.9054C30.1719 38.5103 31.2972 37.3823 32.6891 37.3823C34.0809 37.3823 35.2063 38.5251 35.2063 39.9054Z" fill="#2E2E2E"/>
<path d="M32.7014 43.1854C30.9246 43.1854 29.4883 41.7161 29.4883 39.9054C29.4883 38.1244 30.9394 36.6848 32.7014 36.6848C34.4783 36.6848 35.9146 38.1393 35.9146 39.9054C35.9146 42.0278 34.7744 43.1854 32.7014 43.1854ZM32.7014 38.0948C31.7093 38.0948 30.895 38.9111 30.895 39.9054C30.895 40.9147 31.7242 41.7606 32.7014 41.7606C33.9896 41.7606 34.5079 41.2263 34.5079 39.9054C34.5079 38.9111 33.6935 38.0948 32.7014 38.0948Z" fill="#2E2E2E"/>
<path d="M42.6077 43.1854C40.8308 43.1854 39.3945 41.7161 39.3945 39.9054C39.3945 38.1244 40.8456 36.6848 42.6077 36.6848C44.3845 36.6848 45.8208 38.1393 45.8208 39.9054C45.8356 42.0278 44.6955 43.1854 42.6077 43.1854ZM42.6077 38.0948C41.6156 38.0948 40.8012 38.9111 40.8012 39.9054C40.8012 40.9147 41.6304 41.7606 42.6077 41.7606C43.8959 41.7606 44.4141 41.2263 44.4141 39.9054C44.4141 38.9111 43.6145 38.0948 42.6077 38.0948Z" fill="#2E2E2E"/>
<path d="M34.9523 197.197C30.7619 197.197 27.3711 193.724 27.3711 189.449C27.3711 185.249 30.7767 181.85 34.9523 181.85C39.1427 181.85 42.5335 185.264 42.5335 189.449C42.5335 194.525 39.9127 197.197 34.9523 197.197ZM34.9523 183.275C31.5467 183.275 28.7778 186.05 28.7778 189.464C28.7778 192.892 31.6059 195.787 34.9523 195.787C39.1575 195.787 41.1269 193.783 41.1269 189.464C41.1269 186.05 38.3579 183.275 34.9523 183.275Z" fill="#2E2E2E"/>
<path d="M51.9085 43.1854C50.1316 43.1854 48.6953 41.7161 48.6953 39.9054C48.6953 38.1244 50.1464 36.6848 51.9085 36.6848C53.6705 36.6848 55.1216 38.1393 55.1216 39.9054C55.1216 42.0278 53.9814 43.1854 51.9085 43.1854ZM51.9085 38.0948C50.9164 38.0948 50.102 38.9111 50.102 39.9054C50.102 40.9147 50.9312 41.7606 51.9085 41.7606C53.1967 41.7606 53.7149 41.2263 53.7149 39.9054C53.7149 38.9111 52.9005 38.0948 51.9085 38.0948Z" fill="#2E2E2E"/>
<path d="M50.1161 81.6994H32.7029C32.3179 81.6994 31.9922 81.3878 31.9922 80.9871C31.9922 80.5863 32.3031 80.2747 32.7029 80.2747H50.1309C50.5159 80.2747 50.8416 80.5863 50.8416 80.9871C50.8416 81.3878 50.5159 81.6994 50.1161 81.6994Z" fill="#2E2E2E"/>
<path d="M43.8222 91.1387H32.6873C32.3023 91.1387 31.9766 90.827 31.9766 90.4263C31.9766 90.0255 32.2875 89.7139 32.6873 89.7139H43.8222C44.2072 89.7139 44.533 90.0255 44.533 90.4263C44.533 90.827 44.222 91.1387 43.8222 91.1387Z" fill="#2E2E2E"/>
<path d="M34.9529 191.69C34.5679 191.69 34.2422 191.379 34.2422 190.978V180.292C34.2422 179.906 34.5531 179.58 34.9529 179.58C35.3379 179.58 35.6637 179.891 35.6637 180.292V190.978C35.6637 191.379 35.3379 191.69 34.9529 191.69Z" fill="#2E2E2E"/>
<path d="M109.731 216.476H100.551C100.166 216.476 99.8398 216.164 99.8398 215.763V200.952C99.8398 200.566 100.151 200.239 100.551 200.239C100.95 200.239 101.261 200.551 101.261 200.952V215.051H108.991L108.073 200.862C108.043 200.477 108.339 200.135 108.739 200.106C109.139 200.076 109.464 200.373 109.494 200.773L110.457 215.704C110.471 215.897 110.397 216.09 110.264 216.238C110.116 216.387 109.938 216.476 109.731 216.476Z" fill="#2E2E2E"/>
<path d="M109.228 207.793L108.784 200.833L100.551 200.951V215.763H100.58C103.423 213.062 106.281 210.376 109.228 207.793Z" fill="#2E2E2E"/>
<path d="M133.598 225.5H77.1685C76.9019 225.5 76.6502 225.336 76.5318 225.099C76.4133 224.847 76.4577 224.565 76.6206 224.342C80.8258 219.236 96.2252 214.072 109.774 215.051C123.204 216.016 133.583 223.897 134.028 224.223C134.265 224.401 134.368 224.728 134.265 225.01C134.176 225.307 133.909 225.5 133.598 225.5ZM78.8861 224.09H131.318C127.764 221.804 119.458 217.188 109.685 216.476C97.8096 215.6 84.0686 219.726 78.8861 224.09Z" fill="#2E2E2E"/>
<path d="M192.814 111.427C192.429 111.427 192.118 111.115 192.104 110.729L191.422 78.1967C191.408 77.8108 191.719 77.4843 192.118 77.4695H192.133C192.518 77.4695 192.829 77.7812 192.844 78.167L193.525 110.7C193.54 111.086 193.229 111.412 192.829 111.427H192.814Z" fill="#2E2E2E"/>
<path d="M150.244 177.413L22.9322 178.17L22.6953 125.096C22.6953 125.096 60.098 92.7713 96.5383 96.7043C96.5383 95.9177 96.2569 75.8519 96.2421 73.7889C96.2273 72.8835 94.2876 73.0616 93.6065 72.8835C93.6065 72.8835 90.6154 71.4439 89.342 69.9894C88.9718 68.9357 88.9718 66.6946 88.957 65.5963C91.8 63.3256 92.2738 63.3404 95.6498 61.8711C96.7011 61.411 98.4188 41.1374 106.118 39.1783C106.385 39.1189 134.622 39.1783 136.34 45.4118C136.192 45.6641 136.473 71.1322 136.754 81.3878C135.155 92.0886 130.328 93.8102 124.302 96.2887C124.45 97.298 123.902 98.8415 124.05 99.8507C126.567 99.7468 142.011 109.112 149.015 116.221C151.798 119.041 154.908 121.846 157.129 125.17C159.557 127.248 161.941 129.103 164.666 130.602C169.582 133.333 174.498 132.992 177.992 132.131V165.451C150.199 165.451 134.074 146.528 134.074 146.528L132.312 154.349C157.988 165.733 150.244 177.413 150.244 177.413Z" fill="#F5F0FD"/>
<path d="M95.6332 95.9622C90.51 95.5763 67.944 94.8045 45.6741 108.86C34.6873 115.791 21.5386 124.503 21.2721 126.551C21.2424 126.758 21.3165 127.026 21.4646 127.189C21.5978 127.337 21.7903 127.411 21.9828 127.411C22.1605 127.411 22.3234 127.352 22.4714 127.219C22.6047 127.1 22.6787 126.937 22.6935 126.773C23.0045 126.269 25.5809 123.226 46.4441 110.062C71.2016 94.4335 96.2996 97.4463 96.5513 97.476C96.729 97.4909 96.9067 97.4463 97.0547 97.3424C96.5809 96.8527 96.1071 96.4074 95.6332 95.9622Z" fill="#2E2E2E"/>
<path d="M132.443 154.364C132.398 154.364 132.369 154.364 132.324 154.349C131.939 154.29 131.673 153.919 131.747 153.533C131.762 153.444 133.198 144.865 137.329 135.871C137.492 135.515 137.906 135.352 138.262 135.53C138.617 135.693 138.765 136.109 138.602 136.465C134.56 145.281 133.079 154.022 133.065 154.112C133.02 154.468 132.783 154.364 132.443 154.364Z" fill="#2E2E2E"/>
<path d="M176.926 190.236H169.078C168.693 190.236 168.367 189.924 168.367 189.524C168.367 189.138 168.678 188.811 169.078 188.811H176.926C177.311 188.811 177.636 189.123 177.636 189.524C177.636 189.924 177.311 190.236 176.926 190.236Z" fill="#2E2E2E"/>
<path d="M99.055 62.0194C94.4204 61.7819 91.148 62.5389 89.3415 64.2457C88.0829 65.4478 87.8164 66.8429 87.8164 67.8076C87.8164 69.2473 88.4087 70.6127 89.4748 71.6368C90.4224 72.5421 92.1845 73.5959 95.3236 73.6255L95.8863 95.977C95.5161 95.9473 95.0127 95.9176 94.4056 95.8731C94.7165 96.3777 95.0423 96.8675 95.3828 97.3572C96.0936 97.4166 96.4934 97.4611 96.523 97.4611C96.7303 97.4908 96.9376 97.4166 97.0856 97.283C97.2337 97.1494 97.3225 96.9417 97.3225 96.7339L96.7155 72.8835C96.7155 72.6905 96.6266 72.5124 96.4934 72.3788C96.3601 72.2453 96.1676 72.1859 95.9751 72.1859C93.5319 72.2898 91.6218 71.7407 90.4521 70.6127C89.386 69.5886 89.2379 68.4161 89.2379 67.8076C89.2379 66.8132 89.6081 65.9524 90.3188 65.2697C91.8143 63.8449 94.8053 63.2067 98.9809 63.4294C99.3363 63.4442 99.7065 63.1474 99.7213 62.7615C99.7509 62.3756 99.4548 62.0343 99.055 62.0194Z" fill="#2E2E2E"/>
<path d="M124.242 72.275C123.857 72.275 123.531 71.9634 123.531 71.5626C123.531 71.1619 123.842 70.8503 124.242 70.8503C125.56 70.8503 126.656 70.4941 127.159 69.9004C127.44 69.559 127.544 69.1583 127.455 68.6537C127.263 67.5406 124.79 66.9172 123.605 66.7837C123.25 66.7391 122.969 66.4423 122.969 66.0861V59.6003C122.969 59.2145 123.28 58.8879 123.679 58.8879C124.064 58.8879 124.39 59.1996 124.39 59.6003V65.4776C125.708 65.7151 128.507 66.4423 128.847 68.4311C128.995 69.3513 128.788 70.1675 128.24 70.8206C127.44 71.7556 126.034 72.275 124.242 72.275Z" fill="#2E2E2E"/>
<path d="M115.341 63.6372C115.193 63.6372 115.045 63.5927 114.911 63.4888C113.668 62.5389 110.632 61.7375 109.581 61.5148C109.196 61.4258 108.959 61.0548 109.033 60.6689C109.122 60.283 109.492 60.0455 109.877 60.1197C110.04 60.1494 114.023 61.0251 115.77 62.3608C116.081 62.5983 116.14 63.0435 115.904 63.3552C115.77 63.5481 115.563 63.6372 115.341 63.6372Z" fill="#2E2E2E"/>
<path d="M128.938 61.1736V62.5835C128.938 64.409 131.766 64.409 131.766 62.5835V61.1736C131.766 59.3481 128.938 59.3481 128.938 61.1736Z" fill="#2E2E2E"/>
<path d="M112.457 54.3316C111.317 54.5839 110.221 54.8808 109.155 55.3408C108.326 55.697 109.036 56.9289 109.866 56.5579C110.813 56.1423 111.82 55.9048 112.827 55.6822C113.715 55.5041 113.345 54.1387 112.457 54.3316Z" fill="#2E2E2E"/>
<path d="M132.12 54.0792C131.394 53.5894 130.595 53.2332 129.914 52.6989C129.203 52.1349 128.196 53.1293 128.907 53.7081C129.692 54.3315 130.58 54.7619 131.394 55.311C132.164 55.8156 132.875 54.5986 132.12 54.0792Z" fill="#2E2E2E"/>
<path d="M115.417 78.6866C114.366 78.5233 112.959 78.0336 112.885 76.772C112.826 75.8667 111.419 75.8667 111.478 76.772C111.597 78.7014 113.285 79.77 115.047 80.052C115.921 80.1856 116.305 78.8202 115.417 78.6866Z" fill="#2E2E2E"/>
<path d="M113.401 115.805C102.148 115.805 93.5449 107.85 92.9082 96.808C92.8786 96.4222 93.1895 96.0808 93.5745 96.066C93.9595 96.0511 94.3001 96.348 94.3149 96.7338C94.922 107.271 102.873 114.559 113.683 114.395C119.191 114.321 122.493 112.095 124.299 110.225C126.343 108.102 127.542 105.283 127.483 102.685C127.468 102.299 127.779 101.973 128.179 101.958H128.193C128.578 101.958 128.889 102.27 128.904 102.656C128.963 105.668 127.66 108.785 125.321 111.204C123.337 113.267 119.709 115.731 113.712 115.805C113.594 115.805 113.505 115.805 113.401 115.805Z" fill="#2E2E2E"/>
<path d="M137.613 55.9344C137.568 53.7378 137.524 51.4374 137.494 49.0627C137.317 37.887 130.165 32.2175 116.231 32.2175C100.314 32.2175 92.9102 38.3026 92.9102 51.3483V62.6873C92.9102 63.0732 93.2211 63.3997 93.6209 63.3997C93.9467 63.3997 94.2132 63.1771 94.302 62.8802C96.3602 62.717 97.2486 63.2068 99.5437 63.1919C100.417 62.5834 100.447 48.573 104.164 45.382C110.738 39.7274 130.402 41.6123 135.584 44.7587C135.895 46.0796 136.058 47.5192 136.088 49.0776C136.132 51.4522 136.176 53.7527 136.206 55.9492C136.606 76.7274 136.858 89.2834 130.017 93.2313C124.153 96.63 113.551 95.977 113.448 95.977C113.196 95.9621 112.974 96.066 112.841 96.259C112.692 96.4519 112.663 96.7042 112.752 96.9268C114.558 101.736 123.176 103.606 123.546 103.695C123.59 103.709 123.65 103.709 123.694 103.709C123.857 103.709 124.005 103.65 124.138 103.546C124.301 103.413 124.405 103.205 124.405 102.997V96.7339C124.405 96.7191 124.405 96.6894 124.405 96.6745C126.656 96.2293 128.891 95.5317 130.742 94.4631C138.279 90.0997 138.027 77.2469 137.613 55.9344Z" fill="#2E2E2E"/>
<path d="M79.5377 151.069C78.8122 149.303 75.1252 146.691 71.5419 146.691C68.6989 146.691 66.8628 147.403 65.6931 148.264V148.249C65.6339 148.145 64.3308 145.741 59.2224 144.212C57.9638 143.841 56.6608 143.722 55.3429 143.782L59.9035 139.567C60.1849 139.3 60.2145 138.854 59.9479 138.572C59.6814 138.29 59.2372 138.261 58.9559 138.528L52.9442 144.093C46.9029 145.31 41.3354 149.496 41.0245 149.733C40.7135 149.971 40.6543 150.416 40.8912 150.728C41.0245 150.906 41.2466 151.01 41.4539 151.01C41.602 151.01 41.75 150.965 41.8833 150.861C41.9869 150.787 51.7152 143.455 58.8522 145.563C63.324 146.884 64.4641 148.887 64.4789 148.887C64.5381 149.006 64.627 149.095 64.7454 149.169C63.8866 150.164 63.6941 151.099 63.6793 151.188C63.6053 151.574 63.857 151.93 64.242 152.004C64.627 152.078 64.9972 151.826 65.0712 151.455C65.1008 151.321 65.8412 148.086 71.5863 148.086C74.607 148.086 77.7757 150.386 78.2791 151.588C78.3976 151.856 78.6493 152.019 78.9306 152.019C79.0195 152.019 79.1083 152.004 79.1972 151.959C79.5081 151.841 79.6858 151.425 79.5377 151.069Z" fill="#2E2E2E"/>
<path d="M73.8817 178.17C73.6003 178.17 73.319 177.992 73.2154 177.71C69.173 166.89 74.163 156.931 75.7918 154.126C76.695 152.583 78.7236 149.941 80.6485 149.896C81.1964 149.896 81.9071 150.06 82.4846 150.935C83.0325 151.781 82.3661 153.058 81.1668 155.388C80.0858 157.466 78.7532 160.063 78.0573 162.824C76.6062 168.597 77.539 175.008 78.8421 177.071C79.0493 177.398 78.9605 177.843 78.6199 178.051C78.2942 178.259 77.85 178.17 77.6427 177.828C76.0139 175.246 75.2143 168.315 76.6802 162.482C77.4206 159.558 78.8569 156.768 79.9082 154.735C80.5301 153.533 81.3148 152.019 81.2556 151.633C81.0631 151.351 80.841 151.306 80.6781 151.321C79.6713 151.351 77.998 153.176 77.0208 154.854C75.466 157.51 70.713 166.994 74.548 177.22C74.6813 177.591 74.5036 177.992 74.1334 178.125C74.0446 178.155 73.9557 178.17 73.8817 178.17Z" fill="#2E2E2E"/>
<path d="M150.568 170.69C150.183 170.69 149.858 170.378 149.858 169.977C149.858 168.107 149.858 164.605 136.739 157.214C129.32 153.043 114.291 153.073 99.7802 153.088C93.7833 153.102 87.5791 153.102 81.8636 152.835C81.4786 152.82 81.1677 152.479 81.1973 152.093C81.2121 151.707 81.5674 151.396 81.9376 151.425C87.6235 151.692 93.8129 151.692 99.795 151.678C115.18 151.663 129.705 151.633 137.449 155.996C150.228 163.195 151.294 166.994 151.294 169.992C151.264 170.378 150.953 170.69 150.568 170.69Z" fill="#2E2E2E"/>
<path d="M150.775 176.478C150.641 176.478 150.508 176.433 150.39 176.359C150.064 176.136 149.975 175.706 150.197 175.38C150.716 174.608 150.819 173.658 150.508 172.545C149.99 170.704 147.473 165.777 135.094 159.944C134.739 159.781 134.591 159.351 134.753 158.994C134.916 158.638 135.346 158.49 135.701 158.653C144.926 163.002 150.671 167.795 151.87 172.144C152.285 173.643 152.107 175.023 151.367 176.136C151.219 176.359 150.997 176.478 150.775 176.478Z" fill="#2E2E2E"/>
<path d="M150.287 178.17C150.198 178.17 150.124 178.155 150.035 178.125C149.665 177.992 149.487 177.576 149.62 177.22C150.375 175.187 148.036 171.15 132.563 163.447C132.207 163.269 132.074 162.853 132.237 162.497C132.414 162.141 132.829 162.007 133.184 162.171C146.733 168.923 152.389 173.851 150.938 177.695C150.849 177.992 150.583 178.17 150.287 178.17Z" fill="#2E2E2E"/>
<path d="M145.591 178.17C145.532 178.17 145.458 178.155 145.383 178.14C145.013 178.036 144.791 177.635 144.91 177.264C145.68 174.623 139.905 172.723 135.255 171.179C133.538 170.615 131.924 170.081 130.591 169.517C130.236 169.369 130.058 168.953 130.221 168.582C130.369 168.226 130.784 168.063 131.154 168.211C132.427 168.745 134.012 169.28 135.7 169.829C141.193 171.639 147.427 173.702 146.272 177.665C146.168 177.977 145.887 178.17 145.591 178.17Z" fill="#2E2E2E"/>
<path d="M220.887 37.0855L141.491 56.5873C141.491 56.5873 139.344 61.5147 140.41 63.7261C141.462 65.9375 141.698 67.7333 141.698 67.7333L225.818 63.2809C225.818 63.2809 234.346 59.615 234.08 49.0626C233.813 38.5103 229.741 36.1356 228.394 35.4529C227.032 34.785 223.907 33.9539 220.887 37.0855Z" fill="#F5F0FD"/>
<path d="M228.927 38.2135C227.787 37.5753 226.499 37.323 225.122 37.323C220.709 37.323 217.141 42.5769 217.141 49.0775C217.141 51.4077 217.614 53.5894 218.414 55.4149C221.701 49.5525 225.018 43.69 228.927 38.2135Z" fill="#2E2E2E"/>
<path d="M220.547 58.7097C221.835 60.0455 223.419 60.8321 225.107 60.8321C229.52 60.8321 233.088 55.5782 233.088 49.0775C233.088 45.2336 232.452 42.5621 231.386 40.7366C227.358 46.4357 223.982 52.595 220.547 58.7097Z" fill="#2E2E2E"/>
<path d="M225.122 64.0378C219.392 64.0378 214.742 57.3294 214.742 49.0775C214.742 40.8256 219.406 34.1172 225.122 34.1172C232.007 34.1172 235.502 39.1485 235.502 49.0775C235.502 57.3294 230.837 64.0378 225.122 64.0378ZM225.122 35.542C220.176 35.542 216.149 41.6122 216.149 49.0775C216.149 56.5428 220.176 62.613 225.122 62.613C230.068 62.613 234.095 56.5428 234.095 49.0775C234.095 39.9648 231.148 35.542 225.122 35.542Z" fill="#2E2E2E"/>
<path d="M141.67 67.7483C141.433 67.7483 141.211 67.6295 141.078 67.4217C138.649 63.6668 138.664 60.1048 141.107 56.8545C141.196 56.721 141.344 56.6319 141.492 56.6022L220.533 35.735C220.917 35.6311 221.302 35.8685 221.391 36.2396C221.495 36.6106 221.273 37.0113 220.888 37.1004L142.099 57.9083C140.234 60.5204 140.219 63.2809 142.055 66.3235L182.626 64.5276C182.997 64.5128 183.352 64.8096 183.367 65.2103C183.382 65.5962 183.085 65.9376 182.686 65.9524L141.7 67.7334C141.7 67.7483 141.685 67.7483 141.67 67.7483Z" fill="#2E2E2E"/>
<path d="M141.476 65.2399L139.773 62.1974L141.343 59.1548C141.476 58.9025 141.446 58.6205 141.268 58.3979C141.106 58.1753 140.824 58.0863 140.558 58.1456L133.969 59.6595C133.732 59.7188 133.539 59.8821 133.465 60.1047C133.406 60.2531 132.192 63.6815 133.524 65.9374C133.658 66.1601 133.88 66.2788 134.131 66.2788H140.854C141.106 66.2788 141.343 66.1452 141.461 65.9226C141.594 65.7297 141.594 65.4477 141.476 65.2399Z" fill="#2E2E2E"/>
<path d="M198.305 65.2252C197.935 65.2252 197.609 64.9284 197.594 64.5425C197.579 64.1566 197.876 63.8153 198.275 63.8004L225.076 62.6131C225.432 62.5982 225.802 62.8951 225.817 63.2958C225.831 63.6817 225.535 64.023 225.135 64.0379L198.335 65.2252C198.335 65.2252 198.32 65.2252 198.305 65.2252Z" fill="#2E2E2E"/>
<path d="M176.835 131.938C181.81 129.771 185.601 129.178 186.948 124.695C188.311 120.213 190.932 113.995 193.508 110.7C193.508 110.7 193.138 106.381 195.699 105.921C195.699 105.921 198.483 100.029 196.307 90.2629C194.145 80.4971 191.539 77.8998 186.993 73.1208C182.447 68.3418 181.573 63.5777 182.876 60.5352C184.18 57.4926 188.444 49.7453 190.635 49.9234C192.827 50.1015 194.781 52.2832 193.271 54.6727C191.761 57.0622 189.392 58.0566 191.109 60.1641C192.827 62.2716 196.01 62.4943 198.379 64.8689C204.036 65.0767 209.47 64.6611 209.47 64.6611C209.47 64.6611 220.753 81.5805 222.693 94.1662C224.647 106.752 224.736 111.531 224.736 111.531C224.736 111.531 227.268 113.178 226.809 115.004C226.35 116.829 225.077 117.171 225.077 117.171C225.077 117.171 223.344 135.396 218.798 141.036C214.253 146.676 204.643 160.256 194.515 162.794C184.387 165.332 176.583 165.124 175.725 165.124C174.866 165.124 176.835 131.938 176.835 131.938Z" fill="#F5F0FD"/>
<path d="M172.601 133.407C167.33 133.407 161.378 130.395 152.375 120.985C140.292 108.355 133.274 103.383 123.486 100.533C123.116 100.429 122.894 100.029 123.012 99.6576C123.116 99.2866 123.501 99.064 123.886 99.1827C133.955 102.121 141.122 107.182 153.411 120.005C166.146 133.318 172.202 132.829 177.31 131.181C184.906 128.732 186.935 124.74 186.964 124.695C187.142 124.339 187.557 124.191 187.912 124.369C188.267 124.532 188.415 124.963 188.238 125.304C188.149 125.482 185.987 129.86 177.754 132.517C176.051 133.066 174.363 133.407 172.601 133.407Z" fill="#2E2E2E"/>
<path d="M225.123 112.867C225.109 112.867 225.109 112.867 225.123 112.867C224.724 112.852 224.413 112.54 224.413 112.139C224.738 96.1996 220.015 81.4767 209.072 64.3941C208.865 64.0675 208.954 63.6223 209.28 63.4145C209.605 63.2067 210.05 63.2958 210.257 63.6223C221.348 80.9573 226.16 95.9324 225.819 112.154C225.819 112.555 225.508 112.867 225.123 112.867Z" fill="#2E2E2E"/>
<path d="M177.221 166.667C162.014 166.667 147.399 160.107 133.658 147.106C133.377 146.839 133.362 146.394 133.628 146.112C133.895 145.83 134.339 145.815 134.621 146.082C150.346 160.953 167.196 167.231 184.698 164.723C207.294 160.478 224.381 139.908 224.411 116.874C224.411 116.488 224.736 116.176 225.121 116.161C225.506 116.161 225.832 116.473 225.832 116.874C225.788 140.576 208.212 161.755 184.935 166.118C182.344 166.489 179.767 166.667 177.221 166.667Z" fill="#2E2E2E"/>
<path d="M188.666 133.422C188.325 133.422 188.014 133.17 187.97 132.814L187.807 131.819C186.963 126.64 185.394 116.993 193.478 108.934C193.76 108.652 194.204 108.652 194.47 108.934C194.752 109.216 194.752 109.661 194.47 109.928C186.904 117.468 188.399 126.655 189.199 131.582L189.362 132.576C189.421 132.962 189.155 133.318 188.77 133.378C188.74 133.422 188.71 133.422 188.666 133.422Z" fill="#2E2E2E"/>
<path d="M144.941 156.16C144.838 156.071 144.734 155.982 144.601 155.863C138.856 150.846 137.064 139.893 137.064 139.893C137.064 139.893 136.783 139.685 135.183 143.158C133.584 146.631 135.183 147.878 135.183 147.878C135.183 147.878 142.246 153.933 144.897 156.189L144.941 156.16Z" fill="#2E2E2E"/>
<path d="M196.618 106.173C196.573 106.173 196.514 106.173 196.47 106.158C196.085 106.084 195.848 105.698 195.922 105.312C197.062 99.8951 195.492 82.7085 191.613 78.6567L191.45 78.4935C186.431 73.2544 180.167 66.7241 181.855 60.9656C183.203 56.3647 187.482 50.992 190.651 49.9234C191.998 49.4634 192.901 49.8196 193.419 50.2054C195.226 51.5412 194.515 54.5243 191.287 59.1104C191.065 59.4221 191.006 59.8079 191.124 60.1641C191.243 60.5203 191.509 60.8023 191.88 60.9211C196.055 62.3458 203.562 65.5665 206.953 71.1914C207.16 71.5328 207.057 71.9632 206.716 72.171C206.39 72.3788 205.946 72.2749 205.739 71.9335C202.57 66.6944 195.404 63.6371 191.406 62.2716C190.621 62.0045 190.014 61.396 189.762 60.6094C189.51 59.8228 189.644 58.9768 190.117 58.3089C192.62 54.7618 193.553 52.1052 192.561 51.3779C192.19 51.1108 191.702 51.0811 191.08 51.2889C188.326 52.2239 184.417 57.2255 183.188 61.396C181.737 66.3531 187.926 72.824 192.442 77.5436L192.605 77.7069C197.136 82.4414 198.395 100.34 197.269 105.639C197.24 105.95 196.944 106.173 196.618 106.173Z" fill="#2E2E2E"/>
<path d="M214.609 119.842C210.448 119.842 205.947 119.115 202.126 117.631C196.84 115.568 193.775 112.421 193.272 108.518C193.035 106.737 193.953 104.971 195.3 104.57C195.7 104.451 197.107 104.229 198.084 106.307C199.476 109.26 202.008 111.353 205.606 112.525C213.261 115.019 222.782 112.629 224.766 111.546C224.988 111.412 225.27 111.427 225.492 111.575C225.684 111.709 227.417 112.867 227.52 114.514C227.565 115.108 227.387 115.983 226.365 116.844C224.026 118.818 219.539 119.842 214.609 119.842ZM195.833 105.906C195.789 105.906 195.744 105.906 195.7 105.921C195.167 106.069 194.515 107.093 194.678 108.325C195.226 112.555 199.313 115.004 202.645 116.295C210.433 119.337 221.524 119.07 225.477 115.746C225.936 115.36 226.143 114.974 226.129 114.588C226.084 113.965 225.492 113.341 225.048 112.985C221.909 114.41 212.447 116.221 205.191 113.876C201.193 112.585 198.38 110.24 196.825 106.915C196.662 106.589 196.292 105.906 195.833 105.906Z" fill="#2E2E2E"/>
<path d="M193.982 178.17H22.93C22.545 178.17 22.2341 177.858 22.2193 177.472L19.3911 30.1248C19.3763 29.7389 19.6873 29.4124 20.0871 29.3975L191.124 25.1528C191.316 25.1677 191.494 25.227 191.627 25.3458C191.76 25.4793 191.834 25.6574 191.849 25.8504L192.19 44.1204C192.19 44.5063 191.894 44.8328 191.494 44.8476C191.124 44.8625 190.783 44.5359 190.768 44.1501L190.443 26.5925L20.8274 30.7926L23.626 176.745H193.256L193.123 162.809C193.123 162.423 193.434 162.096 193.819 162.096C194.204 162.096 194.529 162.408 194.529 162.794L194.663 177.442C194.663 177.635 194.589 177.813 194.455 177.947C194.352 178.095 194.174 178.17 193.982 178.17Z" fill="#2E2E2E"/>
</svg>
