<svg viewBox="0 0 1955.4 1602.3" xmlns="http://www.w3.org/2000/svg" xmlns:xlink="http://www.w3.org/1999/xlink">
    <linearGradient id="a">
        <stop offset=".183" stop-color="#a680ff"/>
        <stop offset="1" stop-color="#fffdfd"/>
    </linearGradient>
    <linearGradient id="b" gradientTransform="matrix(1 0 0 -1 0 1465.2)" gradientUnits="userSpaceOnUse" x1="1602.6" x2="1889" xlink:href="#a" y1="539.1" y2="539.1"/>
    <linearGradient id="c" gradientTransform="matrix(1 0 0 -1 0 1465.2)" gradientUnits="userSpaceOnUse" x1="0" x2="360.9" xlink:href="#a" y1="549.8" y2="549.8"/>
    <linearGradient id="d" gradientTransform="matrix(1 0 0 -1 0 1465.2)" gradientUnits="userSpaceOnUse" x1="713.6" x2="713.6" y1="1053.425" y2="401.807">
        <stop offset=".3" stop-color="#a680ff"/>
        <stop offset="1" stop-color="#fffdfd"/>
    </linearGradient>
    <path d="M1711.5 1018.6h99.4l78.1-187.2-110.6 81.2-61.7-45.5-32.6 113-28.3-27.8-53.2 68.5z" fill="url(#b)"/>
    <path d="M273.7 1045H136.6L0 785.8l198.3 162.6 22.8-97.5 139.8 81.2z" fill="url(#c)"/>
    <path d="M1711.5 154H784.1c-1.6 0-2.8 1.3-2.8 2.8v861.8c0 1.6 1.3 2.8 2.8 2.8h460.1c-.3-1.9-.6-3.8-.8-5.7H786.9v-856h921.7v856.1h-112c1.1 1.9 2.3 3.8 3.4 5.7h111.4c1.6 0 2.8-1.3 2.8-2.8V156.8c.2-1.5-1.1-2.8-2.7-2.8z"/>
    <path d="M1711.5 211.7H784.1c-1.6 0-2.8-1.3-2.8-2.8s1.3-2.8 2.8-2.8h927.4c1.6 0 2.8 1.3 2.8 2.8s-1.2 2.8-2.8 2.8z"/>
    <path d="M1612.6 1021.5c-1.6 0-2.8-1.3-2.8-2.8V208.9c0-1.6 1.3-2.8 2.8-2.8s2.8 1.3 2.8 2.8v809.7c0 1.6-1.3 2.9-2.8 2.9zM909.5 387.7c-1.6 0-2.8-1.3-2.8-2.8v-176c0-1.6 1.3-2.8 2.8-2.8 1.6 0 2.8 1.3 2.8 2.8v175.9c0 1.6-1.2 2.9-2.8 2.9zm577.3-3.1h-272.9c-1.6 0-2.8-1.3-2.8-2.8s1.3-2.8 2.8-2.8h272.9c1.6 0 2.8 1.3 2.8 2.8s-1.2 2.8-2.8 2.8zm-69.9 57.5h-208.7c-1.6 0-2.8-1.3-2.8-2.8s1.3-2.8 2.8-2.8h208.7c1.6 0 2.8 1.3 2.8 2.8s-1.2 2.8-2.8 2.8zm146.7 0h-99.7c-1.6 0-2.8-1.3-2.8-2.8s1.3-2.8 2.8-2.8h99.7c1.6 0 2.8 1.3 2.8 2.8s-1.2 2.8-2.8 2.8zm101.8-2.1h26.1v186.1h-26.1zm-327.8 270.7h-89.8c-1.6 0-2.8-1.3-2.8-2.8 0-1.6 1.3-2.8 2.8-2.8h89.8c1.6 0 2.8 1.3 2.8 2.8s-1.2 2.8-2.8 2.8zm201 0h-89.8c-1.6 0-2.8-1.3-2.8-2.8 0-1.6 1.3-2.8 2.8-2.8h89.8c1.6 0 2.8 1.3 2.8 2.8s-1.3 2.8-2.8 2.8zm-53.7-414.8h-239.7c-11.3 0-20.5-9.2-20.5-20.5s9.2-20.5 20.5-20.5h239.7c11.3 0 20.5 9.2 20.5 20.5s-9.2 20.5-20.5 20.5zm-239.7-35.3c-8.2 0-14.8 6.6-14.8 14.8s6.6 14.8 14.8 14.8h239.7c8.2 0 14.8-6.6 14.8-14.8s-6.6-14.8-14.8-14.8zM832.9 128.8c-.7 0-1.5-.3-2-.8l-24.8-24.8c-1.1-1.1-1.1-2.9 0-4s2.9-1.1 4 0l24.8 24.8c1.1 1.1 1.1 2.9 0 4-.5.6-1.2.8-2 .8z"/>
    <path d="M808.1 128.8c-.7 0-1.5-.3-2-.8-1.1-1.1-1.1-2.9 0-4l24.8-24.8c1.1-1.1 2.9-1.1 4 0s1.1 2.9 0 4L810.1 128c-.5.6-1.3.8-2 .8zm68.3 3.9h-28.7c-1.6 0-2.8-1.3-2.8-2.8v-28.7c0-1.6 1.3-2.8 2.8-2.8h28.7c1.6 0 2.8 1.3 2.8 2.8v28.7c.1 1.5-1.2 2.8-2.8 2.8zm-25.8-5.7h23v-23h-23zM303.7 1172.7h57.9v22.1h-57.9zm639.5 0h57.9v22.1h-57.9z"/>
    <path d="M212.8 1123.1h905.3v62.6H212.8z" fill="#fff"/>
    <path d="M1118 1188.5H212.8c-1.6 0-2.8-1.3-2.8-2.8v-62.6c0-1.6 1.3-2.8 2.8-2.8h905.3c1.6 0 2.8 1.3 2.8 2.8v62.6c0 1.6-1.3 2.8-2.9 2.8zm-902.4-5.6h899.6V1126H215.6z"/>
    <path d="M379.8 1126h-93.2c-1.6 0-2.8-1.3-2.8-2.8v-18.3c0-1.6 1.3-2.8 2.8-2.8h93.2c1.6 0 2.8 1.3 2.8 2.8v18.3c0 1.5-1.2 2.8-2.8 2.8zm-90.3-5.7H377v-12.6h-87.5zM795 1126h-55.9c-1.6 0-2.8-1.3-2.8-2.8v-18.3c0-1.6 1.3-2.8 2.8-2.8H795c1.6 0 2.8 1.3 2.8 2.8v18.3c0 1.5-1.3 2.8-2.8 2.8zm-53.1-5.7h50.2v-12.6h-50.2zm150.5 5.7h-55.9c-1.6 0-2.8-1.3-2.8-2.8v-18.3c0-1.6 1.3-2.8 2.8-2.8h55.9c1.6 0 2.8 1.3 2.8 2.8v18.3c.1 1.5-1.2 2.8-2.8 2.8zm-53-5.7h50.2v-12.6h-50.2zm-223.9 5.7H416c-1.6 0-2.8-1.3-2.8-2.8v-18.3c0-1.6 1.3-2.8 2.8-2.8h199.5c1.6 0 2.8 1.3 2.8 2.8v18.3c.1 1.5-1.2 2.8-2.8 2.8zm-196.6-5.7h193.8v-12.6H418.9z"/>
    <path d="M273.7 384.8h883.5V1045H273.7z" fill="#fff"/>
    <path d="M715.8 384.4c-.7-.8-1.3-1.6-2-2.4H668l-.8 5.7h51.3c-.9-1.2-1.8-2.2-2.7-3.3zm441.5-2.4H273.7c-1.6 0-2.8 1.3-2.8 2.8V1045c0 1.6 1.3 2.8 2.8 2.8h883.5c1.6 0 2.8-1.3 2.8-2.8V384.8c.1-1.6-1.2-2.8-2.7-2.8zm-2.9 660.2H276.6V387.7h877.8z"/>
    <path d="M297.4 460.7h832.4v529.2H297.4z" fill="url(#d)"/>
    <path d="M555.2 709.7h276.9" fill="none"/>
    <path d="M832.1 712.6H555.2c-1.6 0-2.8-1.3-2.8-2.8 0-1.6 1.3-2.8 2.8-2.8h276.9c1.6 0 2.8 1.3 2.8 2.8s-1.3 2.8-2.8 2.8z"/>
    <path d="M555.2 655.1h276.9" fill="none"/>
    <path d="M832.1 657.9H555.2c-1.6 0-2.8-1.3-2.8-2.8 0-1.6 1.3-2.8 2.8-2.8h276.9c1.6 0 2.8 1.3 2.8 2.8s-1.3 2.8-2.8 2.8zm-319 12.8c8.6 0 15.6-7 15.6-15.6s-7-15.6-15.6-15.6-15.6 7-15.6 15.6 7 15.6 15.6 15.6zm0 21.5c-8.6 0-15.6 7-15.6 15.6s7 15.6 15.6 15.6 15.6-7 15.6-15.6-7-15.6-15.6-15.6zm-11.4-182.4h418.5v33.3H501.7zm343.8 384c-.7 0-1.4-.3-1.9-.7L786 840.6c-1.2-1.1-1.2-2.9-.2-4 1.1-1.2 2.9-1.2 4-.2l55 50.1 69.9-116.1c.8-1.3 2.5-1.8 3.9-1 1.3.8 1.8 2.6 1 3.9l-71.7 119c-.4.7-1.2 1.2-2 1.3-.2.2-.3.2-.4.2zm470.8 378.8c-107.2-113.2-214.5-226.3-321.7-339.5-1.4-1.5-3-3.3-4.6-5.3-1.1-1.4-2.3-2.9-3.5-4.5-26.4-35.2-67.6-117.8-49.9-135.5 21.7-21.8 96.9 30.3 129.6 59.9 1.5 1.3 2.9 2.6 4.2 3.9 1.9 1.8 3.5 3.4 5 4.9 4.8 5.1 9.7 10.2 14.5 15.3 24.3 25.6 48.5 51.1 72.7 76.7 78.2 82.5 156.3 165 234.5 247.5 49.3 52.1-31.4 128.6-80.8 76.6z"/>
    <path d="M1319.3 1288.4c-51.4-54.3-102.9-108.6-154.3-162.9l93.5-88.6c51.4 54.3 102.9 108.6 154.3 162.9 57.1 60.2-36.4 148.8-93.5 88.6z"/>
    <path d="M1361.7 1223.4c-.8 0-1.5-.3-2.1-.9-1.1-1.1-1-2.9.1-4l62.2-58.9-159.6-168.5c-1.1-1.1-1-2.9.1-4s2.9-1 4 .1l161.6 170.5c1.1 1.1 1 2.9-.1 4l-64.2 60.9c-.6.5-1.3.8-2 .8z"/>
    <path d="m1066.3 847.8-79.7 75.6c1.2 1.6 2.4 3.1 3.5 4.5l.2-.2 80-75.9.1-.1z" fill="#fff"/>
    <path d="M982.3 837.9c-.8 0-1.5-.3-2.1-.9l-63.7-67.3c-1.1-1.1-1-2.9.1-4s2.9-1 4 .1l63.7 67.3c1.1 1.1 1 2.9-.1 4-.5.6-1.2.8-1.9.8z"/>
    <path d="M1165 1128.3c-.8 0-1.5-.3-2.1-.9-1.1-1.1-1-2.9.1-4l93.5-88.6c1.1-1.1 2.9-1 4 .1s1 2.9-.1 4l-93.5 88.6c-.5.6-1.2.8-1.9.8z" fill="#fff"/>
    <circle cx="918.5" cy="767.8" r="7.9"/>
    <path d="M1164.6 851.5v97.3c-.7-.1-1.3-.1-2-.2-24.2-25.6-48.5-51.2-72.7-76.7 2.4-1.3 5.1-2.5 8.1-3.5 18.4-6.5 43.5-12.3 66.6-16.9z" fill="#fff"/>
    <path d="m1480.4 1547.3 255.6-406" fill="none"/>
    <path d="M1480.4 1550.1c-.5 0-1-.1-1.5-.4-1.3-.8-1.7-2.6-.9-3.9l255.6-406c.8-1.3 2.6-1.7 3.9-.9s1.7 2.6.9 3.9l-255.6 406c-.6.9-1.5 1.3-2.4 1.3z"/>
    <path d="m1836.5 1185.7-28.1 33.1" fill="none"/>
    <path d="M1814.4 1224.8c-.6.2-1.3.2-2-.1-1.4-.6-2.1-2.3-1.4-3.8l17.7-39.6c.6-1.4 2.3-2.1 3.8-1.4 1.4.6 2.1 2.3 1.4 3.7l-17.7 39.6c-.4.8-1 1.4-1.8 1.6z"/>
    <path d="M1085.2 1226c9.5-5.4 62.5-49.9 72-55-.9-2.2-35.3-104.7-36-107-31.9-111-49-132-57-143-18.5-15.7-33.2-21.6-49.3-8-11.4 9.7-33.2 57.6-15.3 137.6 5.4 23.9 52.6 143.4 85.6 175.4z" fill="#fff"/>
    <path d="M1705.6 1602.3c-313.4-3-581.5-318.7-611-354.7-102.5-124.8-125.7-293.3-86.1-333 11.1-11.1 23-15 35.1-11.5 30.6 8.7 62.9 75.8 83.5 164.7.4 1.5-.6 3.1-2.1 3.4-1.5.4-3.1-.6-3.4-2.1-19.8-85.6-51.5-152.5-79.6-160.5-10-2.9-20 .5-29.6 10.1-38.3 38.3-14.2 202.7 86.4 325.3 29.4 35.8 295.9 349.6 606.6 352.6 1.6 0 2.8 1.3 2.8 2.9.2 1.5-1 2.8-2.6 2.8z"/>
    <path d="M1055.6 984.2c-1.4 0-2.7-1.1-2.8-2.5-2.6-24-7.9-37.5-16.9-42.6-7.7-4.4-19.3-3-35.2 4.3-1.4.7-3.1 0-3.8-1.4s0-3.1 1.4-3.8c18-8.2 30.8-9.6 40.4-4.1 10.8 6.2 16.9 20.6 19.7 46.9.2 1.6-1 3-2.5 3.1 0 .1-.2.1-.3.1zm362.8-9.8c-.3-.3-33.6-32.3-94.3-93.2-61.7-61.9-114.3-47.7-209.7-22.1-8.6 2.3-17.7 4.8-27.1 7.2-18.5 4.9-32.7 23.8-31 41.4.3 2.5.9 5.8 2.6 9.4 1-.5 2.1-.4 3 .7 4.2 5.4 8.5 10.6 12.8 15.9 9.9 5.9 25.1 10.7 48.2 12.1 112.9 6.4 119.4 68.1 118.8 86.8-.1 1.6 1.2 2.9 2.7 2.9h.1c1.5 0 2.8-1.2 2.8-2.7.7-20-6.1-86-124.1-92.7-37.1-2.1-59.5-14.2-61.4-33-1.5-14.9 10.8-31.1 26.8-35.3 9.4-2.5 18.5-4.9 27.1-7.2 96.4-25.9 144.8-39 204.2 20.6 60.7 60.9 94 93 94.4 93.3 1.1 1.1 2.9 1.1 4-.1 1.3-1.1 1.2-2.9.1-4z"/>
    <path d="M1470.2 939.3c-10.5-10.4-19.8-20.5-28.9-30.4-18-19.6-33.6-36.4-50-46.3-52.4-31.7-91.5-25-114.9-21-4.9.8-9.1 1.6-12.6 1.8-.5 0-1 .2-1.4.5 2 1.5 4 3.1 5.9 4.8 2.7-.4 5.7-.9 9-1.4 22.6-3.9 60.4-10.4 111 20.2 15.7 9.5 31 26.1 48.8 45.3 9.1 9.9 18.5 20 29.1 30.5.6.5 1.3.8 2 .8s1.5-.3 2-.8c1.1-1.1 1.1-2.9 0-4z"/>
    <path d="M1952.6 1217.2h-.5c-209.5-37.3-344.1-158-400.2-258.6-53.7-96.3-81.6-96.8-149.2-98.1-8.7-.2-17.9-.4-28-.8-1.6-.1-2.8-1.4-2.7-3s1.3-2.8 3-2.7c10 .4 19.2.6 27.9.7 67.8 1.3 98.8 1.9 154 101 55.5 99.4 188.7 218.8 396.2 255.8 1.5.3 2.6 1.8 2.3 3.3-.2 1.4-1.4 2.4-2.8 2.4zM1448.1 1016c-.7 0-1.5-.3-2-.8l-16.5-16.5c-1.1-1.1-1.1-2.9 0-4s2.9-1.1 4 0l16.5 16.5c1.1 1.1 1.1 2.9 0 4-.6.6-1.3.8-2 .8zm54.4-27.8c-.7 0-1.3-.2-1.8-.7l-17.7-15.2c-1.2-1-1.3-2.8-.3-4s2.8-1.3 4-.3l17.7 15.2c1.2 1 1.3 2.8.3 4-.6.6-1.4 1-2.2 1zM1094 326.6h-41.4c-1.6 0-2.8-1.3-2.8-2.8s1.3-2.8 2.8-2.8h41.4c1.6 0 2.8 1.3 2.8 2.8s-1.2 2.8-2.8 2.8zm-66.3-46.4c-1.5 0-2.8-1.2-2.8-2.7-.2-5.6 3.4-17 19-20.1 10.3-2 43.2-.7 44.6-.6 1.6.1 2.8 1.4 2.7 3s-1.5 2.9-3 2.7c-.3 0-33.6-1.4-43.3.5-14.8 2.9-14.5 13.8-14.4 14.3.1 1.6-1.1 2.9-2.7 3l-.1-.1z"/>
    <path d="M1122.8 341.9c-20.6 0-37.3-16.7-37.3-37.3v-57.5c0-1.6 1.3-2.8 2.8-2.8h68.9c1.6 0 2.8 1.3 2.8 2.8v57.5c.1 20.6-16.6 37.3-37.2 37.3zm-31.6-91.9v54.6c0 17.4 14.2 31.6 31.6 31.6s31.6-14.2 31.6-31.6v-54.7h-63.2z"/>
    <path d="M1211.4 97.6c-1.3-14.4-12.6-24.5-26.8-26.2-30.1-3.7-79.3 26.5-85.3 57.3-3.1 16.2 5.4 25.4 13.3 37.9 9.4 14.9 4.3 18-.7 33.2-2.7 8.2-1.3 13.5-1.2 22.1.2 16.6 21.3 13.7 25.6-2.2 14.7-4.8 26.6-6.6 33.2-21.2 10-22.1 1.3-44.7 20.1-63.5 11.1-11.1 23.4-20.1 21.8-37.4z" fill="#fff"/>
    <path d="M1120.6 235.8c-.6 0-1.2 0-1.7-.1-5.3-.7-10.9-4.6-11-13.9 0-2.2-.1-4.1-.2-6-.3-5.6-.6-10.4 1.6-17 1-3.1 2.1-5.7 3-8.1 3.4-8.8 4.7-12-2-22.7-1.2-1.9-2.4-3.7-3.5-5.4-6.7-10.1-13.1-19.7-10.2-34.5 6.4-33.2 57.3-63.4 88.4-59.6 16.1 2 27.9 13.5 29.3 28.7 1.5 16.5-8.5 26.1-18.2 35.4-1.4 1.4-2.9 2.8-4.3 4.2-10.6 10.6-11.9 22.5-13.3 35.2-1 8.9-2 18.2-6.2 27.5-6.3 13.9-17 17.1-29.4 21-1.3.4-2.7.8-4.1 1.3-3.3 9.1-11.3 14-18.2 14zm58.7-161.9c-28.6 0-71.8 26.9-77.3 55.3-2.4 12.6 2.8 20.4 9.3 30.3 1.2 1.8 2.4 3.6 3.6 5.5 8.2 13.1 6.1 18.6 2.5 27.8-.9 2.2-1.9 4.8-2.9 7.8-1.8 5.6-1.6 9.7-1.3 14.9.1 1.9.2 4 .3 6.2.1 4.9 2.2 7.8 6 8.3 5.1.6 11.9-3.5 14-11.2.2-.9.9-1.7 1.9-2 1.9-.6 3.8-1.2 5.6-1.8 12-3.7 20.6-6.3 25.9-17.9 3.9-8.5 4.8-17.3 5.8-25.8 1.5-13.1 3-26.6 14.9-38.6 1.5-1.5 3-2.9 4.4-4.3 9.5-9.2 17.8-17.1 16.5-30.8-1.2-12.5-10.9-22-24.3-23.6-1.6 0-3.2-.1-4.9-.1zM638.5 59.1c11.4 5.8 42.6 11.9 61.3 5.6 37.2-9.1-.2-45.8-25.1-40.3-2.7-1.5-5.6-2.7-8.5-3.7-11.1-.8-18.4-2.4-30.4-1.9-1.7.2-5.6 1.4-8.9 2.4-3.1 2.1-6.2 4.3-9.3 6.5-1.8 2.3-3.5 4.4-5 6.1-15.4 17.7-21.2 33.5-19.8 47.9 1.9 1.2 4 2.3 6.2 3.1 5.1 1.8 31.1-.4 26.2-8.1-5.6-8.6 2.3-23.2 13.3-17.6z"/>
    <path d="M582.8 284.5c-1.1 0-2.1-.6-2.6-1.6l-45.3-94.7c-.4-.9-.4-1.9.1-2.7s1.4-1.3 2.4-1.3c4 0 8-.1 12 0l40.4-104.6c-.6-15.1 6.4-31.1 20.7-47.7 13.7-15.7 32.4-21 51.5-14.6 21.5 7.2 38.7 28 40.1 48.5 2.4 35.6-7 55.4-7.4 56.2-.5 1.1-1.7 1.7-2.9 1.6l-12-1.5c-4.6 6.1-23.8 28.5-49.5 15.6l-20.2 51.4 1.3.2c5.4.8 10.6 1.8 15.9 2.8.9.2 1.6.7 2 1.5s.4 1.7 0 2.5l-43.9 86.8c-.5 1-1.5 1.6-2.6 1.6zM542 189.8l40.9 85.5 39.6-78.3c-4-.8-7.9-1.5-11.9-2.1l-4.9-.7c-.9-.1-1.6-.6-2.1-1.4-.4-.8-.5-1.7-.2-2.5l22.7-57.8c.3-.8.9-1.4 1.7-1.6.8-.3 1.7-.2 2.4.2 26.3 15.7 45-12.5 45.8-13.7.6-.9 1.6-1.4 2.7-1.3l11.5 1.4c2.2-5.6 7.9-23.6 6.1-51.5-1.2-18.2-16.8-36.9-36.2-43.5-9.8-3.3-28.8-6-45.4 13-13.5 15.7-20 30.6-19.3 44.3 0 .4 0 .8-.2 1.2l-41.1 107c-.4 1.1-1.3 1.9-2.7 1.8H542zm135 123.7c-.5-.6-1.2-1-1.9-1.1l-304.6-33.6c-.8-.1-1.6.2-2.2.7-.6.6-.9 1.4-.9 2.2 1.4 43 4.1 124.9 4.1 127.4 0 .8.3 1.5.9 2.1.7.7 2.2 2.2 87.1 2.2 42.7 0 106.5-.4 201.9-1.4 1.4 0 2.6-1.1 2.8-2.4l13.5-93.9c-.1-.8-.3-1.6-.7-2.2z"/>
    <path d="M879 387.7H718.4c-.9-1.1-1.8-2.2-2.6-3.3-.7-.8-1.3-1.6-2-2.4-6.1-7.3-12.7-14.1-20.3-20.3-3-2.5-6.7-4.1-10.8-4.9-3.4-.7-7.1-1-10.9-1-6.3 0-13.1.8-19.8 1.7-.8.1-1.6.2-2.5.3-.6.1-1.1.2-1.7.2-1.4.2-2.8.4-4.3.6-5.6.7-11.2 1.3-16.5 1.3-1.7 0-3.3 0-4.9-.1-3.8-.2-7.4-.8-10.8-1.9-.8-.3-1.5-.9-1.8-1.8-2.5-7.3-4.9-14.6-7.3-22-.4-1.3-.8-2.5-1.3-3.8-.1-.2-.1-.4-.2-.6-.3-.8-.5-1.6-.8-2.3-.1-.3-.2-.5-.3-.8-.8-2.5-1.6-4.9-2.4-7.4-1.7-5.3-3.5-10.6-5.3-15.8-3.1-9-6.4-18.1-10.1-26.9-.3-.8-.3-1.6.1-2.4l.1-.3 42-80.2c.4-.8 1.3-1.4 2.2-1.5h.9c81.5 16.4 152.9 60.4 201.2 124.1 1.3 1.8 2.7 3.8 4.2 6 .9 1.3 1.7 2.7 2.6 4.1s1.8 2.9 2.7 4.4c1.5 2.5 3.1 5.2 4.7 7.9 3.1 5.2 6.4 10.8 9.8 16.2 6.3 10 13.1 19.7 20.4 27.2 2.2 2.1 4.2 4 6.3 5.7zm152.5-5.7c3.7 1.9 7.4 3.8 11 5.7H911.4c1.4-1.7 2.8-3.6 4.1-5.7 5.9-9.4 10.6-21.9 14.5-32.5 2.3-6 4.2-11.3 6.1-15.3v-.1c.5-1 .9-1.9 1.4-2.9s.9-1.9 1.4-2.8c6.4-12.8 14.3-26.4 23.8-37.6 5.6-6.5 11.7-12.2 18.5-16.4-1.7 1.9-3.4 3.8-5.2 5.7-5.4 5.7-11.2 11-14.1 18.5-.4.9-.2 1.7.2 2.4-6.1 8.2-12.1 18.2-18.1 30.1l-2.4 4.8c19.4 10.3 39.3 20.3 58.5 30.1 10.5 5.3 20.9 10.6 31.4 16zm27.7-35.7c-.1 1.4-.2 2.8-.3 4.1-.5 5.4-1.6 10.5-3.1 15.1-1.8 5.5-3.6 11-5.3 16.4l-1.8 5.7h-5.9c.1-.3.2-.7.3-1 .5-1.6 1-3.1 1.5-4.7 1.9-6.1 3.8-12.2 5.9-18.3 1.3-3.7 2.1-7.8 2.7-12.1.2-1.6.3-3.3.4-5 1.8.1 3.7 0 5.6-.2z"/>
    <path d="M622.2 359.8c-2.3-7.4-5.9-14.5-10.5-20.7-1.6-2.1-3.3-4.1-5.1-5.9-2-2.1-4.2-4-6.6-5.8-1-.8-2-1.5-3.1-2.2-6.7-4.5-14.6-7.8-23.6-9.4 8.2.8 16.2 1.9 24 3.4 4.8.9 9.5 1.9 14.1 3 1 .3 2.1-.1 2.8-.8.7-.8.9-1.8.6-2.8-1.5-4.4-2.9-8.8-4.3-13.2-.4-1.1-.7-2.3-1.1-3.4-4.4-13.5-8.9-27.4-13.9-40.9-.4-1.1-1.4-1.8-2.5-1.8-1.2-.1-2.2.5-2.7 1.5l-7.3 14.5-.7-1.5-42.1-88c-.5-1-1.7-1.5-2.6-1.6-65.5.7-134.1 14.6-209.8 42.5-7.3 2.7-14.9 5.3-22.8 8.1-38.1 13.2-81.3 28.1-108.3 55.9-19.9 20.5-28.5 48.3-23.6 76.1 4.8 27.1 21.9 49.6 47 61.7 16.3 7.9 33.6 10.7 51 11.9 1.9.1 3.8.3 5.7.3 6.3.3 12.7.5 19 .6l4 .1c29.4.8 58.9 1.5 88.3 2.1 56 1.1 113.7 1.7 176.6 1.9h.2c10.7 0 19.9-2.1 27.6-5.8 2.4-1.1 4.7-2.4 6.8-3.8 9-5.9 15.6-14.1 19.9-23.3 3.7-7.8 5.8-16.3 6.4-24.8.1-1.7.2-3.3.2-4.9v-.7c-.2-7.6-1.4-15.2-3.6-22.3z"/>
    <path d="M584.6 330.3c-.3 0-.6 0-.9-.2-30-10.2-202.1-7.8-203.8-7.7-1.7-.1-2.9-1.2-2.9-2.8s1.2-2.9 2.8-2.9c7.1-.1 174.8-2.5 205.7 8 1.5.5 2.3 2.1 1.8 3.6-.4 1.3-1.5 2-2.7 2z" fill="#fff"/>
    <path d="M938.7 338.2c-.4 0-.8-.1-1.2-.3-1.4-.7-2-2.4-1.3-3.8 30.7-64.2 82.7-100.7 105.1-97.6 13.8 1.9 21.2 5.6 21.8 10.9.6 4.7-4 8.9-13.9 13-1.5.6-3.1-.1-3.7-1.6s.1-3.1 1.6-3.7c10.5-4.3 10.4-7 10.4-7-.1-1-3.5-4.1-17-6-20.2-2.8-70 33.5-99.1 94.4-.6 1.1-1.6 1.7-2.7 1.7z"/>
    <path d="M1082.2 289.5c-.1-2.5-.1-4.8-.1-6.8 0-17.9-6.6-26-23.3-27.5-1.9-.2-4-.3-6.2-.3-1.6 0-2.8 1.3-2.8 2.8 0 .8.3 1.5.8 2s1.2.8 2 .8c18 0 23.8 5.4 23.8 22.1 0 2 0 4.4.1 6.9v.7c-.3-.1-.6-.1-1 0-17.4 2.4-47.6 4.1-54.2-1.7-1.6-1.4-1.3-2.1-1.2-2.5 1.7-4.7 19.1-12.2 42.6-13 1.6-.1 2.8-1.4 2.7-2.9-.1-1.6-1.4-2.8-2.9-2.7-20.8.8-44.4 7.2-47.8 16.8-.6 1.8-1.1 5.3 2.8 8.7 4 3.5 12.5 4.9 21.8 5.2-8.3 2.7-15.6 6-18.4 9.9-1.6 2.3-1.7 4.3-1.5 5.7 1 5.5 5.7 8.7 11.2 10.6-4.7 1.5-8.9 3.7-11 6.8-1.8 2.6-2.7 5.9-1.1 8.9 4.7 8.6 14.7 11.8 24.1 12.4 3.4 0 6.9-.3 10.2-.8 2-.3 4-.7 5.9-1.2 2.1-.5 4-1 5.9-1.6 18.5-6 18-38.1 17.6-59.3zm-19.2 53.9c-10.9 3.6-34.8 4.6-38.9-5.3-.6-1.5-.4-2.7.4-3.8 3.3-4.8 17.1-7.2 26.2-7.7 1 0 1.7-.1 2.1-.1 1.5-.1 2.7-1.4 2.7-3-.1-1.5-1.2-2.8-2.9-2.7-.3 0-1 0-1.8.1-7.7.2-24.2-.9-25.5-8.3 0-.2-.1-.6.5-1.4 4.9-6.7 33.7-13 50.7-15.5h.3c0 18.5-1 43.5-13.8 47.7z"/>
    <path d="M595.2 327.5c72.7 35.2 121.7 85.6 115.7 100.8s-36.3-24-36.3-24 15 44 5.2 50.2-26.5-33.8-26.5-33.8 20.9 40 0 40c-11.1 0-13.6-14.8-30.5-20.7s-36.2 2.5-58.3 2.4z" fill="#fff"/>
    <path d="M653.4 463.5c-6.7 0-10.8-4.3-15.1-9-4-4.3-8.6-9.2-16.4-11.9-9.6-3.4-20.1-1.8-32.3.1-8 1.2-16.1 2.6-25.1 2.5-1.6 0-2.8-1.3-2.8-2.9s1.3-2.8 2.8-2.8h.3c8.3 0 16.2-1.2 23.9-2.4 12.4-1.9 24.1-3.7 35.1.1 9.2 3.2 14.5 8.9 18.7 13.4 4.2 4.6 6.9 7.1 10.9 7.1 3.5 0 4.7-1.3 5.4-2.3 2.7-4.5 0-14.9-3.6-24-2.2-4.4-3.7-8.1-4.4-9.7-.6-1.4 0-3 1.4-3.7 1.4-.6 3-.1 3.7 1.3.5 1 2.4 4.7 4.4 9.6 5.2 10.4 12.1 21.8 16.8 23.3.7.2 1.1.1 1.4-.1 4.7-3 .5-26.6-6.4-46.9-.4-1.3.1-2.8 1.3-3.4 1.2-.7 2.7-.3 3.6.8 8.8 11.5 23.9 27.2 29.8 26.4.3 0 1-.1 1.6-1.7 4.7-12-40.3-61.4-114.3-97.2-1.4-.7-2-2.4-1.3-3.8s2.4-2 3.8-1.3c71.5 34.7 124.2 86.4 117.2 104.4-1.5 3.8-4.1 5-6.1 5.3-7.3 1.1-18.1-9.1-26-17.8 4 14.9 7.8 35.1-.1 40.1-1.8 1.1-3.9 1.4-6.1.7-3.3-1-6.7-4.4-9.9-8.7.2 3.6-.3 6.9-1.9 9.5-1.5 2.3-4.4 5-10.3 5zM280.2 57.2h127.3v28.7H280.2zm1131.3-22.4c-9.6 0-17.4-7.8-17.4-17.4S1401.9 0 1411.5 0s17.4 7.8 17.4 17.4c-.1 9.6-7.9 17.4-17.4 17.4zm0-29.1c-6.4 0-11.7 5.2-11.7 11.7s5.2 11.7 11.7 11.7 11.7-5.2 11.7-11.7-5.3-11.7-11.7-11.7zm56.7 68.2c-.7 0-1.4-.3-2-.8L1446.1 54c-1.1-1.1-1.2-2.9-.1-4s2.9-1.2 4-.1l20.1 19.1c1.1 1.1 1.2 2.9.1 4-.5.6-1.3.9-2 .9zm-82.3 44.4c-.6 0-1.2-.2-1.7-.6-1.2-1-1.5-2.7-.5-4l11.1-14.3c1-1.2 2.7-1.5 4-.5 1.2 1 1.5 2.7.5 4l-11.1 14.3c-.6.8-1.5 1.1-2.3 1.1zM711 907.6c-.7 0-1.5-.3-2-.8-1.1-1.1-1.1-2.9 0-4l17.3-17.1c1.1-1.1 2.9-1.1 4 0s1.1 2.9 0 4L713 906.8c-.6.5-1.3.8-2 .8zm-17.4-122.1c-.5 0-1-.1-1.4-.4l-18.9-10.8c-1.4-.8-1.8-2.5-1.1-3.9.8-1.4 2.5-1.8 3.9-1.1l18.9 10.8c1.4.8 1.8 2.5 1.1 3.9-.5 1-1.5 1.5-2.5 1.5zM988.3 651c-.4 0-.9-.1-1.3-.3-1.4-.7-2-2.4-1.2-3.8l11.2-22.1c.7-1.4 2.4-2 3.8-1.2 1.4.7 2 2.4 1.2 3.8l-11.2 22.1c-.4.9-1.4 1.5-2.5 1.5z"/>
</svg>
