<svg viewBox="0 0 800 800" xmlns="http://www.w3.org/2000/svg">
    <path d="M267.87 360.57c12.74-3.34 25.58-6 38.45-8.48 12.87-2.44 25.78-4.69 38.74-6.58 12.96-1.92 25.97-3.45 38.96-5.17 12.99-1.67 25.97-3.46 39.02-4.77a3.51 3.51 0 0 1 3.84 3.14c.18 1.8-1.04 3.41-2.77 3.78-12.84 2.69-25.75 4.9-38.64 7.23-12.9 2.28-25.77 4.75-38.7 6.84-12.93 2.11-25.91 3.86-38.92 5.42-13.02 1.52-26.06 2.86-39.21 3.53-1.39.07-2.57-1-2.64-2.38-.06-1.22.74-2.27 1.87-2.56zm100.4 41.55c7.41-1.39 14.87-2.53 22.33-3.61 3.73-.53 7.47-1.06 11.21-1.52 3.74-.5 7.48-.96 11.23-1.39 7.49-.92 14.99-1.7 22.52-2.35 7.53-.61 15.08-1.15 22.68-1.28.84-.01 1.52.65 1.54 1.49.01.7-.45 1.29-1.09 1.48-7.3 2.15-14.66 3.87-22.04 5.53-7.38 1.61-14.78 3.1-22.2 4.45-3.71.71-7.42 1.37-11.13 2.01-3.71.67-7.43 1.27-11.15 1.88-7.45 1.19-14.9 2.32-22.39 3.2a5.003 5.003 0 0 1-5.55-4.39c-.31-2.62 1.49-5.02 4.04-5.5zM141.72 679.36c1-3.71 2.08-7.4 3.13-11.09l3.27-11.04c2.25-7.33 4.49-14.68 6.81-21.98 2.36-7.3 4.63-14.62 7.07-21.89 2.4-7.28 4.83-14.55 7.38-21.78.53-1.5 1.7-2.6 3.09-3.09l.12-.04c.56-.19 1.32-.47 2-.73l2.1-.83c1.4-.58 2.81-1.18 4.2-1.82 2.79-1.27 5.54-2.65 8.25-4.1 5.41-2.94 10.68-6.17 15.7-9.76 10.04-7.17 19.21-15.53 27.13-24.93 3.95-4.71 7.57-9.69 10.84-14.88s6.23-10.59 8.72-16.2c.67-1.38 1.24-2.81 1.82-4.23.56-1.41 1.22-2.86 1.68-4.24.99-2.81 1.85-5.75 2.62-8.72 1.55-5.95 2.71-12.08 3.59-18.22.87-6.14 1.53-12.32 1.75-18.41.1-3.04.12-6.06-.06-8.96-.09-1.45-.25-2.85-.46-4.15-.21-1.29-.53-2.51-.85-3.23-.15-.35-.31-.54-.19-.39.07.07.21.19.48.33.11.05.3.14.42.16-.02.01-.03 0-.04-.01-.05-.02-.43-.09-1.24.31-.78.37-1.76 1.05-2.73 1.89s-1.95 1.84-2.91 2.9c-3.85 4.31-7.42 9.46-10.86 14.67-6.98 10.43-13.47 21.46-20.67 32.12-3.61 5.33-7.32 10.63-11.51 15.63-4.18 4.99-8.71 9.87-14.44 13.52-.93.59-2.16.32-2.75-.61-.55-.85-.36-1.97.41-2.6l.04-.03c4.62-3.84 8.42-8.81 11.96-13.9 3.5-5.15 6.78-10.51 9.91-15.99 3.12-5.48 6.19-11.03 9.25-16.61 3.07-5.58 6.13-11.2 9.4-16.79 1.64-2.79 3.37-5.55 5.2-8.31 1.84-2.74 3.75-5.5 6.04-8.14 1.14-1.33 2.36-2.64 3.77-3.92 1.41-1.27 2.99-2.53 5.06-3.59.49-.27 1.1-.5 1.66-.73.62-.2 1.22-.42 1.91-.55 1.33-.31 2.91-.35 4.41-.1.38.07.76.15 1.13.24.48.15 1.07.35 1.53.6.99.49 1.76 1.12 2.39 1.74 1.25 1.27 1.9 2.49 2.42 3.58.97 2.19 1.39 4.09 1.72 5.94.32 1.84.48 3.6.59 5.34.2 3.46.15 6.82-.04 10.14-.38 6.63-1.19 13.12-2.29 19.56-1.12 6.44-2.48 12.81-4.2 19.17-.87 3.18-1.84 6.35-3.01 9.53-.59 1.62-1.24 3.09-1.86 4.63-.62 1.53-1.24 3.06-1.96 4.54-2.68 6.03-5.86 11.83-9.38 17.41s-7.41 10.93-11.65 15.97c-8.5 10.08-18.3 19-29 26.62-5.36 3.8-10.93 7.3-16.69 10.47-2.89 1.57-5.82 3.06-8.82 4.46a116.099 116.099 0 0 1-6.88 2.95c-.81.31-1.54.59-2.48.91h-.01l3.21-3.13c-2.58 7.22-5.27 14.4-7.99 21.57-2.68 7.18-5.54 14.3-8.3 21.46-2.8 7.14-5.69 14.25-8.56 21.37L149.66 670c-1.51 3.53-2.99 7.07-4.55 10.59-.41.92-1.49 1.34-2.41.93-.8-.39-1.22-1.31-.98-2.16zm181.95-239.55c-.36-5.86-2.26-11.54-5.23-16.36-2.98-4.84-7.09-8.76-11.78-11.53a4.517 4.517 0 0 1-1.59-6.19 4.517 4.517 0 0 1 6.76-1.19l.06.05c5.28 4.39 9.44 10 11.96 16.14 2.53 6.14 3.56 12.75 2.93 19.17-.08.85-.84 1.48-1.7 1.39-.77-.08-1.35-.7-1.4-1.45z"/>
    <path d="M338.32 407.06c11.93 5.81 10.13 20.87 10.13 20.87l20.58-20.87zm315.79 281.09c-7.12-3.21-14.04-6.76-20.89-10.43l-5.13-2.78-5.08-2.86c-3.4-1.89-6.73-3.88-10.08-5.86-6.69-3.96-13.28-8.08-19.88-12.22-6.59-4.15-13.14-8.39-19.62-12.81-3.24-2.22-6.46-4.49-9.65-6.88l-2.38-1.85-2.37-1.93-2.36-2.07c-.75-.69-1.48-1.38-2.21-2.08-5.73-5.57-11.03-11.31-16.27-17.15-5.23-5.83-10.3-11.78-15.24-17.84-4.95-6.06-9.78-12.21-14.48-18.49s-9.26-12.68-13.56-19.32c-4.29-6.65-8.41-13.45-11.83-20.97-.85-1.89-1.65-3.83-2.35-5.88s-1.31-4.2-1.67-6.61c-.18-1.21-.28-2.5-.23-3.91.05-1.4.28-2.97.92-4.63.63-1.65 1.8-3.38 3.32-4.59.29-.25.97-.74 1.52-1.01.58-.31 1.16-.52 1.7-.68 1.1-.31 2.08-.4 2.93-.4 1.7.01 3.05.29 4.28.61 1.22.33 2.33.72 3.38 1.14 2.09.84 3.98 1.79 5.81 2.78 3.65 1.97 7.01 4.18 10.28 6.45 6.55 4.52 12.68 9.43 18.71 14.43 6.02 5 11.91 10.11 17.71 15.31 11.57 10.44 22.86 21.11 33.65 32.35.72.75.7 1.94-.06 2.66-.69.67-1.76.69-2.49.1l-.01-.01c-12.02-9.75-23.99-19.58-36.14-29.1-12.11-9.54-24.5-18.82-37.18-27.04-3.17-2.02-6.39-3.94-9.57-5.64-1.59-.83-3.18-1.6-4.7-2.18-.75-.29-1.49-.53-2.14-.69-.65-.17-1.22-.23-1.46-.22-.11 0-.11.03.06-.02.08-.02.2-.07.36-.14.12-.05.4-.26.32-.2 0 0 .04-.07-.03.08-.15.29-.27 1.53-.04 2.93.44 2.88 1.71 6.28 3.19 9.54 3.02 6.6 6.95 13.1 11.07 19.45 4.16 6.35 8.58 12.59 13.14 18.74 9.13 12.3 18.91 24.19 28.93 35.81 5.03 5.77 10.18 11.5 15.49 16.8l1.99 1.94 1.99 1.79 2.11 1.77 2.19 1.75c2.95 2.33 6.02 4.6 9.12 6.84 12.44 8.94 25.42 17.36 38.39 25.76 3.24 2.11 6.49 4.2 9.71 6.35l4.84 3.2 4.81 3.25c6.41 4.35 12.79 8.76 19.03 13.41h.01c.83.62 1 1.79.38 2.61-.51.77-1.46.99-2.24.64zM476.42 565.7c0 .39.05 1.08.12 1.65.06.6.17 1.2.28 1.81s.27 1.21.4 1.81c.18.59.34 1.19.53 1.79.77 2.37 1.87 4.63 3.27 6.69s3.06 3.97 5.05 5.54c.94.86 2.04 1.51 3.1 2.22.52.38 1.12.63 1.68.94l1.72.89.2.1c1 .52 1.4 1.76.88 2.76-.49.95-1.63 1.35-2.6.95l-2.03-.83c-.67-.29-1.38-.52-2.01-.91-1.3-.71-2.63-1.37-3.83-2.27-2.49-1.65-4.69-3.76-6.59-6.1a32.01 32.01 0 0 1-4.66-7.76c-.29-.7-.55-1.41-.83-2.12-.23-.72-.48-1.44-.68-2.18s-.39-1.48-.54-2.24c-.09-.37-.15-.77-.21-1.16-.03-.19-.06-.39-.09-.6-.03-.2-.05-.4-.08-.69v-.02c-.14-1.91 1.29-3.58 3.2-3.72s3.58 1.29 3.72 3.2c-.01.08 0 .17 0 .25zm-10.79 28.02s2.71 12.42 18.72 12.81l-24.93 13.91zM604.86 90.21c-.52 7.3-1.31 14.56-2.19 21.8-.87 7.25-1.9 14.47-2.98 21.68-2.23 14.41-4.54 28.82-7.03 43.2-1.24 7.2-2.54 14.38-3.98 21.59-.35 1.8-.72 3.61-1.13 5.44l-.61 2.75-.82 3c-.33 1.06-.72 1.95-1.07 2.82l-1.09 2.58-2.22 5.06c-6.01 13.38-12.31 26.55-18.79 39.67-6.47 13.12-13.1 26.15-20.05 39.06l-10.59 19.34c-3.55 6.48-7.19 12.93-11.46 19.21-2.18 3.13-4.42 6.23-7.27 9.2-1.42 1.5-2.95 2.96-5.02 4.39-.52.36-1.13.71-1.7 1.04-.34.17-.69.33-1.04.49-.36.16-.68.31-1.15.45-.44.14-.88.26-1.32.37-.5.1-1.08.16-1.62.2-.51.06-1.17 0-1.81-.09-.32-.04-.63-.1-.94-.16-.3-.07-.48-.14-.72-.22-1.84-.59-3.58-1.78-4.77-3.11-1.21-1.34-1.96-2.74-2.5-4.03-1.03-2.59-1.32-4.88-1.5-7.05-.28-4.3.13-8.2.67-12.03.58-3.81 1.37-7.5 2.3-11.13a159.3 159.3 0 0 1 3.1-10.73 190.8 190.8 0 0 1 3.71-10.46c1.34-3.45 2.75-6.84 4.34-10.22a1.999 1.999 0 0 1 3.77 1.23l-.01.03c-1.4 7.11-2.78 14.26-4.03 21.34-.59 3.55-1.18 7.08-1.65 10.6-.46 3.52-.86 7.03-1.06 10.46-.22 3.42-.24 6.83.14 9.79.2 1.45.55 2.79.93 3.57.19.37.36.57.4.57.05 0-.13-.16-.23-.2-.03-.01 0 .01-.07-.02-.08-.04-.17-.06-.26-.08-.18-.03-.39 0-.45-.03-.09-.02-.21.02-.26.03-.01-.02-.01-.03-.01-.02-.02.03.06-.03.12-.06.06-.04.12-.06.19-.09.2-.15.39-.24.62-.4.93-.65 2.07-1.69 3.17-2.82s2.22-2.37 3.31-3.67c1.11-1.28 2.2-2.63 3.28-4.01 4.33-5.5 8.47-11.38 12.46-17.38 3.94-6.03 7.63-12.27 11.13-18.6 7.06-12.65 13.75-25.55 20.2-38.56 6.41-13.03 12.66-26.17 18.58-39.39l2.18-4.95 1.04-2.46c.32-.81.67-1.6.87-2.28l.61-2.28.57-2.59c.39-1.72.75-3.48 1.09-5.26 1.42-7.08 2.67-14.25 4-21.4l7.67-43c1.3-7.17 2.64-14.33 4.12-21.47 1.47-7.14 3-14.27 4.79-21.36.28-1.11 1.4-1.78 2.51-1.5.95.25 1.6 1.17 1.53 2.15z"/>
    <path d="M535.13 250.77c-1.57 2.96-3.26 5.8-5 8.62-1.72 2.83-3.54 5.59-5.38 8.33-3.69 5.47-7.56 10.81-11.58 16.04-4.01 5.23-8.18 10.33-12.34 15.45-4.17 5.11-8.37 10.2-12.62 15.25s-8.54 10.07-12.9 15.05c-4.37 4.97-8.83 9.86-13.38 14.7s-9.23 9.59-14.1 14.21c-4.89 4.62-9.91 9.12-15.72 13.21a54.959 54.959 0 0 1-4.64 2.94c-1.67.93-3.43 1.82-5.66 2.5-1.12.33-2.36.62-3.89.67-1.51.04-3.43-.18-5.28-1.19-.96-.51-1.63-1.13-2.33-1.79-.34-.33-.61-.71-.89-1.08-.27-.38-.57-.77-.74-1.15-.39-.77-.76-1.58-.92-2.29-.1-.37-.2-.74-.28-1.1l-.13-1c-.28-2.65.06-4.74.45-6.7.4-1.96.97-3.7 1.56-5.44 1.22-3.4 2.63-6.57 4.16-9.64 3.06-6.13 6.44-11.91 9.96-17.59 3.52-5.67 7.18-11.21 10.93-16.68 3.75-5.46 7.55-10.87 11.48-16.18 1.96-2.66 3.92-5.32 5.93-7.94l6.08-7.81c4.1-5.17 8.27-10.28 12.55-15.3s8.63-9.97 13.2-14.77a2.228 2.228 0 0 1 3.47 2.77l-.01.01c-7.28 10.93-14.81 21.67-22.24 32.45-7.43 10.77-14.92 21.49-22.04 32.4-3.55 5.46-7.02 10.96-10.3 16.52s-6.41 11.2-9.09 16.9c-1.33 2.84-2.56 5.7-3.51 8.5-.44 1.38-.87 2.78-1.1 4.04-.25 1.25-.33 2.46-.23 3.08.01.07.02.15.02.22.02.04.04.06.04.09 0 .11.03.02-.01-.01-.03.01-.03-.08-.06-.12-.03-.06-.09-.07-.12-.13-.07-.13-.17-.14-.39-.29-.41-.22-.64-.2-.52-.21.11 0 .49-.07.94-.22.92-.29 2.11-.87 3.3-1.56 1.2-.69 2.42-1.52 3.64-2.39 2.44-1.76 4.86-3.75 7.24-5.83 2.39-2.06 4.74-4.23 7.06-6.45 4.65-4.43 9.16-9.08 13.64-13.78s8.86-9.52 13.23-14.36c4.38-4.84 8.7-9.73 12.99-14.66s8.53-9.91 12.75-14.91l12.61-15.06c8.51-9.96 17.24-19.76 26.85-28.9a2.129 2.129 0 0 1 3.35 2.54z"/>
    <path d="M472.01 272.57c-2.84 1.73-5.71 2.81-8.88 3.52-3.15.69-6.54.93-10.15.3-.9-.17-1.81-.34-2.73-.69-.46-.16-.91-.31-1.37-.48-.46-.21-.91-.43-1.36-.66-.91-.42-1.76-1.04-2.61-1.66l-.63-.47c-.21-.18-.43-.41-.64-.61-.41-.43-.85-.83-1.21-1.32-1.56-1.91-2.44-4.32-2.75-6.51-.19-1.13-.16-2.15-.15-3.19.09-.97.17-1.98.38-2.87.75-3.66 2.16-6.63 3.69-9.41 1.56-2.76 3.32-5.28 5.2-7.64s3.87-4.59 5.99-6.68c1.04-1.06 2.12-2.08 3.23-3.06 1.11-1 2.22-1.93 3.45-2.87 1.12-.86 2.72-.65 3.59.47.68.89.69 2.08.11 2.96l-.05.07c-3.08 4.68-6.19 9.44-8.87 14.18-1.35 2.37-2.6 4.76-3.62 7.12-1.02 2.34-1.85 4.72-2.09 6.73-.11.52-.08.95-.12 1.4.04.39.03.81.12 1.09.15.62.28 1 .57 1.3.05.09.19.15.26.24.05.04.07.09.13.14l.24.16c.32.22.59.49 1 .66.19.1.37.21.55.33l.65.26c.22.08.42.2.66.27l.73.23c4.02 1.25 9.56 1.22 14.94 1.33l.31.01c1.59.03 2.85 1.35 2.82 2.94a2.957 2.957 0 0 1-1.39 2.41z"/>
    <path d="M454.24 246.25c-.48.23-.78.38-1.16.54-.36.16-.72.31-1.08.44-.73.26-1.46.51-2.2.73-1.49.42-3.02.72-4.6.88-3.15.34-6.51.16-9.88-.86-3.35-1-6.66-2.98-9.15-5.68-.61-.68-1.21-1.38-1.71-2.12-.49-.65-1.12-1.66-1.57-2.66-.91-2.02-1.35-4.22-1.33-6.21.03-4.03 1.29-7.26 2.7-10.07 1.45-2.81 3.18-5.24 5.05-7.47s3.86-4.27 5.99-6.13c2.12-1.88 4.29-3.6 6.74-5.16a2.363 2.363 0 0 1 3.22 3.34l-.06.08c-3.01 4.29-6 8.7-8.44 13.06-1.2 2.19-2.29 4.38-3.03 6.5-.76 2.09-1.14 4.15-.97 5.53.08.7.25 1.19.48 1.6.16.26.85 1.19 1.41 1.76 1.18 1.25 2.6 2.16 4.34 2.9 1.74.72 3.81 1.19 6.04 1.43 1.12.12 2.27.2 3.45.23.59.02 1.18.03 1.78.02l.89-.01c.27 0 .62-.03.79.01l1.46.3c2.02.41 3.32 2.39 2.91 4.4a3.847 3.847 0 0 1-2.07 2.62z"/>
    <path d="M430.09 221.05c-1.48-.49-2.72-1.03-4.02-1.7-1.27-.67-2.52-1.42-3.7-2.29-2.38-1.72-4.59-3.89-6.33-6.61-.87-1.35-1.6-2.85-2.16-4.44-.54-1.6-.87-3.3-1-5.01-.26-3.44.41-6.85 1.58-9.85 1.16-3.03 2.82-5.66 4.62-8.04 1.86-2.33 3.84-4.46 5.95-6.38 1.08-.98 2.07-1.83 3.08-2.7l3.03-2.59c2.03-1.7 4.05-3.42 6.1-5.08 8.17-6.71 16.44-13.22 24.77-19.65 4.15-3.23 8.37-6.37 12.59-9.51 4.23-3.13 8.42-6.27 12.73-9.33l-1.82 3.08 2.16-12.73c.72-4.24 1.42-8.49 2.21-12.72.77-4.23 1.63-8.46 2.55-12.67.95-4.21 1.94-8.41 3.14-12.58a1.882 1.882 0 0 1 3.69.52c-.01 4.34-.23 8.66-.5 12.96-.29 4.3-.64 8.6-1.09 12.88-.42 4.28-.94 8.55-1.43 12.83l-1.48 12.82c-.14 1.2-.75 2.22-1.62 2.92l-.2.16-12.27 9.73-12.23 9.8c-8.16 6.52-16.24 13.13-24.15 19.87-1.99 1.68-3.93 3.39-5.89 5.09l-2.9 2.57c-.96.86-1.95 1.73-2.79 2.53-3.46 3.28-6.46 6.87-8.29 10.46-.9 1.81-1.48 3.6-1.66 5.41-.15 1.81.1 3.68.84 5.6 1.41 3.84 4.78 7.69 8.42 10.77l.17.14c.91.77 1.02 2.13.25 3.04-.61.73-1.54.97-2.35.7zM303.93 612.22c1.65-6 3.72-11.78 6.02-17.54 2.34-5.72 4.93-11.38 8.01-16.86 3.06-5.48 6.55-10.82 11.02-15.71 1.13-1.22 2.32-2.41 3.6-3.54 1.3-1.12 2.7-2.18 4.22-3.15 3.02-1.91 6.72-3.48 10.86-3.69 2.06-.1 4.14.12 6.14.71 2.03.59 4.06 1.62 5.76 3.02 1.71 1.39 3.07 3.09 4.09 4.82 1.02 1.74 1.74 3.51 2.26 5.25 2.01 6.98 1.89 13.44 1.68 19.73-.29 6.28-.95 12.38-1.51 18.41-.54 6.01-1.1 11.99-.82 17.66.14 2.8.48 5.58 1.3 7.79.4 1.1.91 2.03 1.48 2.69s1.19 1.05 1.99 1.33c1.89.59 3.67.36 5.63-.73 1.95-1.08 3.86-2.99 5.6-5.11 3.47-4.33 6.37-9.55 9.25-14.82 2.9-5.3 5.65-10.78 9.14-16.21 1.78-2.7 3.69-5.43 6.37-8 1.34-1.28 2.94-2.52 4.96-3.51 1.03-.47 2.15-.89 3.38-1.12.61-.1 1.24-.2 1.88-.21.31-.01.65-.02.94 0l.81.07c2.15.18 4.43.87 6.35 1.99 1.94 1.11 3.45 2.53 4.7 3.91 2.48 2.81 4.1 5.56 5.75 8.08 1.63 2.51 3.19 4.86 4.9 6.95 1.71 2.1 3.58 3.95 5.68 5.48s4.39 2.81 6.87 3.81 5.12 1.71 7.85 2.25l.08.02c2.44.49 4.02 2.86 3.53 5.29a4.515 4.515 0 0 1-5.02 3.58c-3.28-.44-6.57-1.19-9.79-2.34-3.22-1.14-6.36-2.73-9.2-4.75-5.77-4-10.02-9.68-13.3-14.88-1.66-2.58-3.22-5.06-4.79-6.8-.78-.87-1.54-1.54-2.26-1.93-.72-.41-1.42-.62-2.3-.7l-.32-.04h-.2c-.12-.01-.25.02-.38.03-.27.04-.59.15-.94.3-.72.35-1.6.93-2.46 1.74-1.75 1.62-3.49 3.81-5.1 6.15-3.26 4.71-6.25 9.99-9.38 15.25-3.17 5.28-6.38 10.66-10.69 15.71-2.18 2.51-4.64 5.01-8.05 6.87-1.69.92-3.64 1.66-5.75 1.89-2.11.25-4.25.03-6.22-.62-2.09-.66-4.13-1.97-5.55-3.61-1.44-1.64-2.37-3.44-3.03-5.19-1.28-3.51-1.71-6.85-1.99-10.1-.44-6.49-.17-12.69.11-18.82.3-6.12.66-12.15.71-18.04.03-2.94-.02-5.84-.26-8.65-.21-2.79-.6-5.51-1.34-7.85-.73-2.35-1.75-4.22-3.04-5.27-.64-.54-1.37-.94-2.25-1.21a9.27 9.27 0 0 0-2.88-.44c-1.97.01-4.13.73-6.28 1.98-2.14 1.25-4.24 2.97-6.23 4.89-3.97 3.9-7.48 8.62-10.76 13.51-3.24 4.94-6.26 10.1-9.07 15.4-2.83 5.28-5.51 10.73-8.02 16.17l-.02.04a2.001 2.001 0 0 1-2.66.98c-.87-.38-1.31-1.38-1.06-2.31zm-38.05-141.83 59.3-24.11-1.34.9 41.62-43.63 3.56 8.51H308.8l1.87-.36c-10.71 4.48-21.45 8.87-32.19 13.26s-21.47 8.82-32.24 13.12c-21.54 8.64-43.04 17.38-64.61 25.95l-32.35 12.85-32.39 12.75c-21.58 8.54-43.22 16.92-65.53 23.65-1.06.32-2.18-.28-2.5-1.34a2.01 2.01 0 0 1 1-2.36c20.72-10.67 42.11-19.67 63.56-28.53l32.15-13.34 32.19-13.24c21.46-8.83 43-17.48 64.49-26.23 10.74-4.39 21.53-8.66 32.31-12.97s21.55-8.61 32.36-12.83l.06-.02c.59-.23 1.22-.34 1.82-.34h60.3a4.97 4.97 0 0 1 4.97 4.97c0 1.38-.58 2.64-1.49 3.54l-43.05 42.23-.05.05c-.38.37-.83.66-1.29.85l-59.3 24.11c-2.05.83-4.38-.15-5.21-2.2-.83-2.07.15-4.4 2.2-5.24zM47.38 518.2c-.55 1.88-.96 4.02-1.21 6.05a35.18 35.18 0 0 0-.22 6.14c.21 4.03 1.25 7.88 3.26 10.91 1.01 1.51 2.26 2.8 3.68 3.89.68.57 1.49 1.01 2.25 1.49.84.39 1.61.85 2.51 1.15 3.46 1.35 7.36 2 11.36 2.14l-2.39.34 154.2-61.6c2.05-.82 4.38.18 5.2 2.23.81 2.04-.17 4.34-2.19 5.18L70.38 559.57l-.07.03c-.75.31-1.56.4-2.32.31-4.71-.73-9.51-2.03-13.99-4.42-4.49-2.29-8.53-6.12-10.87-10.73-2.34-4.64-2.96-9.71-2.67-14.42.15-2.37.51-4.69 1.05-6.94.55-2.28 1.2-4.41 2.15-6.65a2.002 2.002 0 0 1 3.76 1.35z"/>
    <path d="M105.7 483.71c4.05-7.77 8.26-15.45 12.51-23.12 4.32-7.64 8.72-15.25 13.38-22.78 2.32-3.77 4.73-7.51 7.34-11.2 1.3-1.85 2.64-3.69 4.1-5.53 1.48-1.84 3-3.69 5.12-5.59 4.17-3.62 8.67-5.76 13.12-7.52 4.46-1.72 8.94-2.96 13.42-3.95 8.97-1.92 17.94-2.92 26.9-3.32 4.48-.23 8.96-.24 13.42-.15 4.47.09 8.93.31 13.38.71 8.9.77 17.78 1.99 26.54 4.21 2.19.54 4.37 1.16 6.53 1.87 2.17.7 4.32 1.49 6.44 2.4 2.13.91 4.22 1.96 6.26 3.22 2.02 1.26 4.01 2.78 5.67 4.84.87 1.08.7 2.65-.37 3.52-.93.75-2.24.73-3.14.01l-.15-.12c-1.37-1.1-3.07-2.01-4.91-2.76-1.83-.77-3.78-1.38-5.77-1.94-3.99-1.08-8.12-1.86-12.3-2.48-8.37-1.2-16.89-1.89-25.41-2.12-4.26-.1-8.53-.11-12.79-.05-4.26.09-8.52.29-12.75.56-8.46.59-16.9 1.55-25 3.32-4.04.88-8.01 1.95-11.7 3.35-3.67 1.39-7.14 3.16-9.58 5.28-1.15 1-2.46 2.5-3.72 4.06-1.26 1.57-2.51 3.25-3.73 4.96-2.44 3.44-4.81 7.01-7.16 10.61-4.68 7.22-9.19 14.64-13.62 22.1-4.5 7.43-8.85 14.97-13.28 22.47a5.005 5.005 0 0 1-6.85 1.77c-2.3-1.36-3.11-4.29-1.9-6.63zM42.86 609.5l27.55-59.04c1.05-2.25 3.73-3.23 5.99-2.18s3.23 3.73 2.18 5.99l-.15.3-.04.06-31.95 56.67-.02.03a2.002 2.002 0 0 1-3.56-1.83zm482.01-108.99c-3.2-.85-6.55-1.45-9.97-1.89-3.42-.45-6.92-.67-10.44-.89-7.06-.39-14.24-.49-21.57-.77-3.67-.17-7.38-.37-11.19-.79-.95-.11-1.92-.24-2.89-.38-.99-.18-1.94-.31-2.96-.56-1.98-.41-4.05-1-6.23-1.97-.55-.26-1.08-.48-1.65-.85-.57-.36-1.11-.63-1.68-1.12-.56-.48-1.12-.86-1.64-1.5-.52-.6-1.04-1.18-1.43-1.94-.21-.36-.41-.73-.59-1.11-.16-.38-.28-.78-.41-1.18-.12-.4-.25-.81-.33-1.2-.05-.39-.1-.78-.13-1.17-.03-.41-.07-.74-.07-1.21.02-.53.06-1.05.17-1.54.19-1 .54-1.85.93-2.61.79-1.48 1.74-2.53 2.65-3.41.92-.87 1.85-1.57 2.77-2.19 1.85-1.22 3.68-2.15 5.51-2.95 7.32-3.16 14.68-4.74 22.06-5.93 7.38-1.17 14.78-1.72 22.16-1.89 14.77-.3 29.48 1.08 43.84 3.96 1.08.22 1.79 1.27 1.57 2.36a2.009 2.009 0 0 1-2.15 1.6h-.02c-14.31-1.37-28.68-1.59-42.86-.43-7.09.57-14.13 1.54-21.01 2.92-3.44.71-6.84 1.53-10.14 2.54-3.3.99-6.54 2.13-9.46 3.55-1.46.7-2.83 1.48-3.98 2.3-.56.41-1.07.83-1.45 1.22-.38.38-.62.74-.66.87-.01.05-.01.05.03-.05 0-.04.03-.12.03-.19.01-.02.04.1.04.14.01.06.01.12 0 .18.02.04.05.06.06.1.02.03 0 .07.02.11.04.02.06.05.08.08-.01.07.12.13.19.22.02.09.25.19.37.31.1.13.39.23.59.36.18.14.5.25.77.37 1.14.48 2.57.9 4.14 1.18 1.55.31 3.21.52 4.9.71 3.39.36 6.92.54 10.49.68 7.14.32 14.46.47 21.86 1.12 3.7.29 7.42.78 11.17 1.43 3.74.65 7.51 1.52 11.23 2.84 2.34.83 3.57 3.41 2.73 5.75a4.51 4.51 0 0 1-5.38 2.85zm38 64.47c-.63-2.68-1.37-5.44-2.15-8.14-.78-2.71-1.62-5.4-2.52-8.07-.89-2.67-1.84-5.32-2.85-7.93-.99-2.62-2.09-5.19-3.2-7.75l-.02-.05c-.89-2.03.04-4.39 2.07-5.27 2.03-.89 4.39.04 5.27 2.07.05.11.09.22.13.33.94 2.78 1.84 5.57 2.64 8.38.81 2.8 1.55 5.62 2.22 8.45.68 2.83 1.3 5.66 1.86 8.51.56 2.86 1.06 5.68 1.48 8.62.2 1.37-.75 2.63-2.12 2.83-1.29.19-2.49-.65-2.79-1.89z"/>
    <path d="M569.35 444.59c-4.33-.23-8.67-.44-13.01-.58s-8.69-.19-13.04-.24c-4.35-.02-8.69 0-13.03.08-4.34.1-8.67.27-12.97.53s-8.59.65-12.77 1.24c-2.09.28-4.15.64-6.13 1.09-1.96.44-3.91 1.01-5.35 1.71l-.52.26-.39.25-.2.12-.09.09a.36.36 0 0 1-.1.07l-.06.03h.01c.01 0 .01-.01.01-.02-.01.01 0-.09-.05.03l-.23.43c-.12.29-.24.58-.31.89-.32 1.17-.27 2.61.3 4.21 1.07 3.24 3.72 6.68 6.39 9.73l.11.13c.73.84.65 2.12-.19 2.85-.64.56-1.53.64-2.24.28-2.22-1.12-4.09-2.47-5.91-4.12-1.79-1.64-3.44-3.58-4.7-6a15.85 15.85 0 0 1-1.4-4.03c-.3-1.46-.31-3.06-.05-4.62.14-.78.36-1.53.62-2.27l.46-1.07c.05-.15.25-.45.39-.67.15-.24.31-.47.48-.7l.25-.34.24-.25.5-.49.51-.48.48-.35c.32-.23.65-.48.98-.68l.93-.52c2.48-1.31 4.77-2.01 7.07-2.64 2.29-.62 4.55-1.1 6.81-1.5 4.51-.81 8.99-1.3 13.46-1.71s8.93-.65 13.39-.81c4.46-.17 8.91-.23 13.36-.19 4.45.01 8.9.16 13.35.37s8.89.49 13.34.93a4.504 4.504 0 0 1-.68 8.98zm175.5 177.56c-16.55-7.75-32.06-17.24-47.4-27.04-7.67-4.91-15.3-9.89-22.82-15.16-3.75-2.65-7.46-5.37-11.13-8.31-1.83-1.51-3.64-2.99-5.45-4.8l-.68-.67c-.23-.24-.46-.51-.69-.76-.46-.52-.94-1.04-1.26-1.54l-2.16-3.01c-.76-1-1.32-2.04-1.94-3.07l-1.84-3.1c-1.06-2.1-2.17-4.19-3.17-6.31-.95-2.12-1.95-4.23-2.86-6.36-.88-2.13-1.79-4.26-2.65-6.39-3.42-8.53-6.5-17.08-9.69-25.53-3.2-8.45-6.36-16.86-9.94-25.01-3.58-8.14-7.52-16.08-12.38-23.17l-.02-.03c-1.41-2.05-.88-4.85 1.17-6.26 2.02-1.39 4.77-.89 6.2 1.09 5.59 7.78 9.79 16.15 13.57 24.57 3.76 8.43 7.11 16.96 10.26 25.5 3.18 8.53 6.21 17.06 9.51 25.38l2.54 6.19c.86 2.05 1.8 4.04 2.69 6.06.93 1.99 1.95 3.9 2.91 5.86l1.6 2.77c.54.91 1.03 1.89 1.65 2.7l1.77 2.54c.29.46.59.77.88 1.1l.44.51.53.53c1.38 1.42 3.05 2.85 4.7 4.24 3.37 2.78 6.94 5.47 10.57 8.11 7.25 5.28 14.69 10.38 22.21 15.38 15.06 9.98 30.38 19.62 44.92 30.56l.01.01c.89.67 1.06 1.93.4 2.81-.57.77-1.6 1.01-2.45.61z"/>
    <path d="M541.48 543.49 676.95 368.9l-1 3.86c-.03-.23-.13-.77-.22-1.18-.09-.44-.2-.89-.32-1.33-.23-.89-.51-1.79-.8-2.67-.6-1.77-1.33-3.49-2.18-5.14-1.7-3.29-3.89-6.25-6.57-8.59-1.34-1.17-2.8-2.18-4.36-3.04s-3.24-1.49-4.96-2.03c-3.49-.97-7.26-1.29-11.09-1.04l2.8-1.52-136.73 175.36c-1.36 1.74-3.87 2.05-5.61.69s-2.05-3.87-.69-5.61L641.95 341.3l.07-.09c.69-.88 1.7-1.37 2.74-1.44 4.54-.47 9.28-.31 13.95.79 2.32.6 4.62 1.38 6.8 2.46a34.49 34.49 0 0 1 6.13 3.92c3.78 3.06 6.81 6.87 9.14 10.95 1.16 2.05 2.16 4.17 3 6.35.41 1.09.81 2.19 1.14 3.32.17.56.33 1.13.48 1.72.15.61.28 1.1.43 1.91v.01c.23 1.42-.18 2.81-1 3.86L547.78 548.43a4.005 4.005 0 0 1-5.62.66 4.02 4.02 0 0 1-.68-5.6zm-55.56 7.66-10.98 16.52.65-1.36-11.79 55.14-6.58-4.95 47.99-26.2-1.2 1.03 12.28-15.68c1.36-1.74 3.88-2.04 5.62-.68s2.04 3.88.68 5.62l-12.28 15.68c-.33.42-.72.75-1.15 1l-.05.03-47.51 27.07-.03.02a4.469 4.469 0 0 1-6.09-1.67 4.471 4.471 0 0 1-.45-3.3l13.74-54.68.07-.28c.1-.41.31-.78.58-1.08l13.35-14.68c.75-.82 2.01-.88 2.83-.13.75.66.87 1.77.32 2.58zM226.51 407.33c-1.56-8.12-2.88-16.27-4.14-24.43-.62-4.08-1.24-8.16-1.8-12.25-.59-4.09-1.15-8.18-1.68-12.27-1.11-8.18-2.07-16.39-2.95-24.61-.81-8.23-1.57-16.47-1.94-24.76-.04-.83.61-1.54 1.44-1.57.72-.03 1.35.45 1.53 1.12 2.13 8.03 3.87 16.12 5.55 24.21 1.62 8.11 3.16 16.22 4.55 24.37.72 4.07 1.41 8.14 2.07 12.21.68 4.07 1.32 8.15 1.94 12.23 1.23 8.16 2.41 16.34 3.35 24.55.25 2.2-1.33 4.18-3.52 4.43-2.1.23-4-1.2-4.4-3.23z"/>
    <path d="m542.46 599.55 7.13 56.53c.34 2.67-1.5 5.11-4.13 5.56h-.03l-269.06 44.81h-.03a5.954 5.954 0 0 1-6.85-4.89.585.585 0 0 1-.02-.13l-24.56-170.47a4.509 4.509 0 0 1 3.81-5.1 4.501 4.501 0 0 1 5.08 3.73l27.52 170.02-6.89-5.01 269.38-42.84-4.16 5.56-7.13-56.53c-.35-2.74 1.6-5.24 4.33-5.59 2.76-.33 5.27 1.61 5.61 4.35zm-32.08-254.36 11.85 93.97c.35 2.74-1.6 5.24-4.33 5.59-2.74.35-5.24-1.6-5.59-4.33l-11.85-93.97c-.35-2.74 1.6-5.24 4.33-5.59s5.24 1.59 5.59 4.33zm-272.8-41.76c9.1-1.97 18.23-3.78 27.38-5.45 9.14-1.7 18.31-3.26 27.48-4.79l55.06-8.88c18.35-3 36.73-5.79 55.09-8.66l13.78-2.14 13.79-2.07 27.58-4.1c2.73-.41 5.27 1.48 5.68 4.21s-1.46 5.27-4.2 5.68l-27.57 4.19-13.79 2.07-13.8 2c-18.4 2.64-36.79 5.38-55.21 7.9l-55.24 7.68c-9.21 1.23-18.43 2.43-27.67 3.49-9.23 1.09-18.49 2.04-27.77 2.83-1.1.09-2.07-.72-2.17-1.83-.08-1.01.61-1.92 1.58-2.13z"/>
</svg>
