<svg viewBox="0 0 800 800" xmlns="http://www.w3.org/2000/svg">
    <path d="M450.55 634.74c18.37-8.1 37.22-14.77 56.15-21.17 18.93-6.41 37.85-12.83 56.82-19.13l28.45-9.44 28.48-9.34c9.49-3.11 19.01-6.15 28.53-9.19 9.52-3.05 19.03-6.1 28.58-9.06l-2.84 5.75-140.46-399.3 7.53 3.73-146.21 45.52a4 4 0 0 1-5.01-2.63c-.65-2.07.49-4.28 2.53-4.98l144.97-49.32c3.1-1.05 6.46.6 7.51 3.7l.01.04L683.21 560.2c.81 2.36-.44 4.93-2.8 5.74l-.04.01c-9.44 3.29-18.9 6.48-28.37 9.68-9.46 3.21-18.93 6.41-28.42 9.55l-28.46 9.4-28.5 9.3c-19 6.19-38.04 12.27-57.08 18.35-19.03 6.09-38.15 11.92-57.75 16.31-1.08.24-2.16-.44-2.4-1.52-.21-.95.3-1.9 1.16-2.28zM276.17 362c1.93 4.61 3.83 9.22 5.71 13.85l5.65 13.87 11.1 27.82a5322.47 5322.47 0 0 1 21.68 55.84l10.66 27.99 5.29 14.01 5.23 14.03 10.42 28.08c3.4 9.39 6.87 18.75 10.2 28.16a4 4 0 0 1-2.44 5.11c-2.02.71-4.23-.3-5.04-2.25-3.79-9.24-7.44-18.53-11.16-27.8l-10.95-27.88-5.46-13.95-5.39-13.97-10.71-27.97c-7.12-18.66-14.13-37.35-21.05-56.08l-10.27-28.14-5.04-14.11c-1.68-4.7-3.35-9.41-4.97-14.13-.63-1.83.34-3.82 2.17-4.45 1.75-.59 3.66.28 4.37 1.97z"/>
    <path d="m383.29 316.82-118.5 55.67c-2.4 1.13-5.25.16-6.48-2.15l-.02-.05-61.94-116.44-.01-.02a4.985 4.985 0 0 1 2.06-6.74c.14-.08.3-.15.44-.21l122.83-50.58c2.11-.87 4.49-.03 5.61 1.88l.06.1c2.16 3.67 4.19 7.41 6.17 11.17 1.99 3.76 3.92 7.55 5.8 11.37 1.9 3.81 3.72 7.66 5.49 11.54 1.74 3.9 3.45 7.81 4.96 11.84.39 1.05-.14 2.21-1.19 2.6-.86.32-1.79.02-2.32-.67-2.6-3.43-4.99-6.96-7.35-10.52-2.33-3.57-4.62-7.17-6.81-10.81-2.22-3.63-4.39-7.29-6.51-10.98-2.11-3.69-4.19-7.4-6.13-11.19l5.67 1.98-122.44 51.5 2.49-6.96 61.94 116.44-6.51-2.19 119.34-53.85c2.01-.91 4.38-.01 5.29 2 .91 2 .03 4.34-1.94 5.27z"/>
    <path d="m258.31 366.96 15.75-74.54.02-.1a5.232 5.232 0 0 1 3.11-3.72c5.51-2.23 10.98-4.56 16.47-6.84l16.41-6.98c10.93-4.68 21.81-9.46 32.71-14.19 10.86-4.84 21.74-9.61 32.57-14.51l16.24-7.37c5.39-2.5 10.8-4.96 16.17-7.51a4.946 4.946 0 0 1 6.59 2.35c.6 1.26.62 2.64.16 3.85l-.03.07-29.12 77.08a4.002 4.002 0 0 1-5.16 2.33 4.007 4.007 0 0 1-2.36-5.06l27.24-77.76 6.73 6.28c-5.49 2.28-10.95 4.64-16.42 6.96l-16.36 7.1c-10.9 4.74-21.74 9.62-32.61 14.42-10.83 4.91-21.67 9.77-32.47 14.73l-16.19 7.48c-5.37 2.54-10.77 5.04-16.12 7.63l3.13-3.82-17.7 74.1a4.497 4.497 0 0 1-5.42 3.33 4.52 4.52 0 0 1-3.34-5.31z"/>
    <path d="m196.01 249.95 22.59-70.71.01-.02a5.393 5.393 0 0 1 2.96-3.28l122.48-53.45.01-.01c1.89-.82 4.06-.09 5.08 1.63l64.97 109.12a5 5 0 0 1-1.74 6.85 5 5 0 0 1-6.89-1.81l-63.24-110.13 5.09 1.63-121.24 56.18 2.97-3.31-23.55 70.4a5.01 5.01 0 0 1-6.33 3.16c-2.59-.85-4-3.65-3.17-6.25zm68.23 121.69-110.47 47.14c-2.39 1.02-5.15-.01-6.34-2.27L86.38 299.6a4.017 4.017 0 0 1 1.71-5.43c.08-.04.16-.08.23-.11l.05-.02c8.17-3.59 16.38-7.1 24.62-10.53l12.36-5.15 12.4-5.04 12.4-5.04c4.15-1.65 8.29-3.31 12.46-4.9 8.33-3.22 16.71-6.3 25.19-9.16 1.31-.44 2.73.26 3.17 1.58.4 1.2-.15 2.49-1.25 3.04-8 4.01-16.09 7.8-24.24 11.45-4.07 1.85-8.16 3.61-12.25 5.4l-12.31 5.26-12.31 5.26-12.36 5.15c-8.23 3.44-16.5 6.8-24.81 10.08l1.99-5.57 62.82 115.97-6.34-2.27 111.24-45.29c2.05-.83 4.38.15 5.21 2.2.84 1.99-.12 4.3-2.12 5.16z"/>
    <path d="m90.31 298.26-16.83 30.8.12-4.01 47.51 86.98-3.8-2.36 34.26 1.69c2.21.11 3.91 1.99 3.8 4.19a4.003 4.003 0 0 1-4.08 3.8l-34.29-.69a4.363 4.363 0 0 1-3.78-2.32l-.02-.04-46.63-87.45-.11-.21c-.67-1.25-.53-2.72.24-3.81l20.22-28.68c.64-.9 1.89-1.12 2.79-.48.84.58 1.09 1.71.6 2.59zm132.66-113.4-66.96-13.83a4.987 4.987 0 0 1-3.87-5.88 4.975 4.975 0 0 1 2.86-3.54l.06-.03L275 109.23l.08-.03c.75-.33 1.55-.4 2.3-.24l68.88 14.24c1.62.34 2.67 1.92 2.33 3.55a3.009 3.009 0 0 1-3.46 2.35l-69.26-12.28 2.38-.27-119.13 54.18-.95-9.45 66.53 15.78c2.15.51 3.48 2.67 2.97 4.82-.5 2.09-2.59 3.41-4.7 2.98z"/>
    <path d="m152.15 163.58 8.87-29.97a4.667 4.667 0 0 1 2.62-2.96l.11-.05 86.03-36.87.3-.13a3.46 3.46 0 0 1 3.4.38l10.49 7.61a3.008 3.008 0 0 1-3.14 5.11l-11.54-5.91 3.71.25-85.23 38.7 2.73-3-10.77 29.35a4.002 4.002 0 0 1-5.14 2.38c-1.97-.73-3.03-2.89-2.44-4.89zm75.31 322.3c3.42 18.32 4.99 36.82 6.97 55.28l5.78 55.4 5.56 55.42 2.69 27.72 2.61 27.73-5.19-4.52 32.2-1.46 32.2-1.36 64.41-2.54 64.42-2.33 32.21-1.09 32.22-.99-2.25 7.19-34.97-26.22-34.92-26.28-69.7-52.73-69.54-52.94c-23.11-17.74-46.66-34.9-68.72-54.03a2.493 2.493 0 0 1-.25-3.53c.83-.96 2.24-1.13 3.27-.45 24.4 16.04 47.31 34.04 70.66 51.47l69.83 52.56 69.67 52.77 34.77 26.47 34.72 26.54c1.76 1.34 2.09 3.86.75 5.62-.74.97-1.83 1.5-2.95 1.57h-.04l-32.19 1.7-32.19 1.61-64.39 3.06-64.4 2.84-32.2 1.33-32.21 1.23h-.01c-2.66.1-4.92-1.91-5.17-4.52l-2.67-27.72-2.59-27.73-5-55.47-4.78-55.49c-1.54-18.5-3.49-36.97-3.59-55.61a2.499 2.499 0 0 1 2.5-2.52c1.23-.03 2.26.85 2.48 2.02z"/>
    <path d="M371.9 650.71c-4.42-2.4-8.68-5.02-12.88-7.72-2.11-1.34-4.18-2.73-6.26-4.11l-6.16-4.24c-8.16-5.73-16.34-11.43-24.46-17.22l-12.18-8.68-12.14-8.74c-4.04-2.91-8.06-5.86-12.07-8.82-4.02-2.95-8.04-5.9-12.02-8.9l7.93-4.57 7.67 80.1-3.98-3.57c16.69-.45 33.39-.4 50.08-.16 8.35.13 16.69.27 25.04.62s16.69.76 25.04 1.54c1.1.1 1.92 1.08 1.81 2.19-.09.98-.87 1.73-1.81 1.81-8.35.78-16.69 1.19-25.04 1.54s-16.69.48-25.04.62c-16.69.24-33.39.29-50.08-.16h-.06a4.054 4.054 0 0 1-3.92-3.57l-9.66-79.89a4.965 4.965 0 0 1 4.34-5.53c1.28-.16 2.51.19 3.48.89l.11.08c4.05 2.9 8.07 5.86 12.08 8.81 4.02 2.95 8.04 5.9 12.02 8.89l11.96 8.97 11.92 9.03c7.95 6.02 15.83 12.13 23.73 18.21l5.89 4.62c1.94 1.57 3.88 3.13 5.79 4.74 3.83 3.2 7.6 6.49 11.22 9.99.8.78.82 2.05.04 2.85-.62.68-1.61.81-2.39.38zM649.04 137.6c1.86 8.9 3.1 17.86 4.13 26.84.99 8.98 1.78 17.98 2.67 26.97l5.05 53.96c1.64 17.99 3.24 35.98 4.78 53.98s3.04 36 4.39 54.02l.01.1c.04.51-.05 1.01-.22 1.45l-15.28 40.96a3.657 3.657 0 0 1-4.71 2.15c-.87-.32-1.54-.94-1.95-1.7l-.02-.03-20.85-38.59c-.25-.46-.39-.95-.44-1.43l-.01-.08-20.92-224.62v-.01c-.12-1.29.34-2.52 1.14-3.41.48-.49.79-.75 1.18-1.1.37-.32.74-.63 1.11-.93.75-.6 1.51-1.16 2.29-1.69a38.65 38.65 0 0 1 4.91-2.84c3.42-1.64 7.17-2.77 11.04-3.05 1.93-.13 3.88-.06 5.79.22 1.91.27 3.76.81 5.53 1.46 3.53 1.38 6.67 3.4 9.4 5.73 1.05.9 1.17 2.47.27 3.52a2.49 2.49 0 0 1-3.31.43l-.03-.02c-2.58-1.8-5.37-3.18-8.22-3.98-1.44-.36-2.88-.63-4.32-.69s-2.88.03-4.3.27c-2.83.5-5.56 1.62-8.07 3.15-1.26.77-2.46 1.64-3.6 2.59-.56.48-1.12.97-1.64 1.48-.26.25-.52.51-.76.77-.22.24-.52.56-.61.69l1.14-3.42 19.93 224.71-.45-1.51 20.27 38.9-6.68.42 15.6-40.84-.21 1.55c-1.84-17.97-3.54-35.96-5.19-53.94-1.66-17.99-3.26-35.98-4.81-53.98l-4.53-54c-.7-9.01-1.52-18-2.12-27.01-.56-9.02-.92-18.05-.66-27.14.03-.91.79-1.62 1.69-1.6.8 0 1.43.56 1.59 1.29z"/>
    <path d="M663.22 355.99c.02 0-.07-.07-.14-.13s-.15-.12-.24-.19c-.17-.13-.35-.26-.54-.38-.37-.26-.79-.49-1.19-.73-.84-.45-1.71-.87-2.61-1.2-1.81-.68-3.74-1.16-5.72-1.29-1.97-.12-4.01-.1-6.02.34-1.02.13-2 .5-3.01.75-1 .31-1.96.75-2.96 1.12l-.25.09c-1.03.38-2.18-.15-2.56-1.18-.34-.93.05-1.96.9-2.43 1.05-.58 2.07-1.23 3.16-1.77 1.12-.48 2.2-1.07 3.39-1.41 2.32-.88 4.82-1.31 7.34-1.52 2.54-.2 5.12.03 7.64.56 1.27.27 2.51.64 3.75 1.09.61.24 1.23.48 1.84.77.3.13.62.29.93.46.15.08.31.16.48.26s.31.17.56.34a3.996 3.996 0 0 1 .85 5.59 4.002 4.002 0 0 1-5.6.86zm-4.2 17.7s-9.39-4.96-18.78.35l10.9 20.53zm-132.43-5.52c-14.22-.77-28.37-2.06-42.51-3.49a938.38 938.38 0 0 1-21.17-2.39c-7.05-.86-14.08-1.85-21.1-2.97l3.77-1.3-73.38 73.53.91-4.19 35.75 94.45-3.72-3.18 102.79 20.43-4.68 1.54 66.63-72.62-1.01 4.21-26.6-103.37c-.41-1.6.55-3.24 2.16-3.65 1.58-.41 3.18.52 3.63 2.08l29.49 102.58c.43 1.5.02 3.05-.95 4.14l-.06.07-65.89 73.29a4.95 4.95 0 0 1-4.64 1.55l-.03-.01-102.78-20.43-.05-.01a4.91 4.91 0 0 1-3.67-3.17l-33.87-95.14-.01-.02c-.53-1.5-.12-3.1.92-4.17l72.67-74.23c.97-1 2.3-1.44 3.59-1.32l.18.02c7.07.69 14.13 1.5 21.16 2.45 7.04.93 14.07 1.95 21.09 3.03 14.04 2.18 28.06 4.5 42.01 7.34 1.36.28 2.23 1.6 1.96 2.96a2.499 2.499 0 0 1-2.59 1.99z"/>
    <path d="m547.42 370.03-67.69 79.08a4.826 4.826 0 0 1-4.49 1.62l-.03-.01-106.4-18.52a3.504 3.504 0 0 1-2.85-4.05 3.507 3.507 0 0 1 3.95-2.86l106.87 15.57-4.52 1.61 70.68-76.42a3.002 3.002 0 0 1 4.24-.17c1.19 1.09 1.28 2.93.24 4.15z"/>
    <path d="M480.76 444.28c2.18 6.9 4.26 13.83 6.29 20.78 2.08 6.93 4 13.91 5.99 20.87 2 6.96 3.89 13.95 5.75 20.95 1.81 7.02 3.62 14.03 5.23 21.11.25 1.08-.43 2.16-1.51 2.4-.97.22-1.94-.3-2.3-1.2-2.74-6.72-5.28-13.51-7.83-20.29-2.5-6.8-4.96-13.61-7.32-20.46-2.37-6.84-4.8-13.66-7.07-20.53-2.32-6.86-4.59-13.73-6.77-20.63-.83-2.63.63-5.44 3.27-6.27 2.64-.82 5.44.64 6.27 3.27zM320.05 199.46c2.9-12.63 6.46-25.06 10.2-37.45 1.88-6.19 3.79-12.36 5.8-18.51 1.99-6.15 4.08-12.28 6.29-18.37a3.505 3.505 0 0 1 4.49-2.1c1.7.61 2.63 2.4 2.22 4.11-1.51 6.3-3.14 12.56-4.86 18.8-1.71 6.24-3.51 12.45-5.34 18.65-3.69 12.39-7.57 24.73-12.09 36.88a3.501 3.501 0 0 1-4.51 2.06 3.5 3.5 0 0 1-2.2-4.07zm122.16 47.37c5.53-3.41 11.46-5.56 17.36-7.76 5.9-2.23 11.81-4.39 17.81-6.29 6-1.88 12.05-3.62 18.17-5.12 6.14-1.45 12.31-2.78 18.67-3.5 1.4-.16 2.66.85 2.81 2.24.12 1.07-.45 2.06-1.34 2.54-5.67 2.98-11.52 5.35-17.41 7.59-5.91 2.2-11.89 4.16-17.91 5.97-6.03 1.8-12.14 3.34-18.27 4.8-6.12 1.5-12.23 3.04-18.72 3.33-1.14.05-2.11-.83-2.16-1.97-.02-.75.38-1.45.99-1.83zm-9.53 39.56c7.48-3.81 15.19-6.9 22.97-9.8s15.68-5.41 23.6-7.85 15.9-4.72 23.92-6.87c8.03-2.11 16.09-4.14 24.29-5.74 1.09-.21 2.15.5 2.36 1.59.18.93-.31 1.83-1.13 2.21-7.57 3.52-15.29 6.61-23.02 9.63-7.75 2.98-15.54 5.82-23.39 8.5s-15.72 5.29-23.71 7.52c-7.99 2.22-16.05 4.26-24.34 5.57a2.533 2.533 0 0 1-1.55-4.76z"/>
</svg>
