<svg width="56" height="45" fill="none" xmlns="http://www.w3.org/2000/svg">
    <path d="M2.565 36.414C.864 36.414 0 37.43 0 39.5V45h1.071v-2.43h1.494c1.701 0 2.565-1.035 2.565-3.087 0-2.052-.864-3.087-2.565-3.07Zm1.179 4.437c-.225.342-.63.513-1.206.513H1.044v-1.881c0-.63.099-1.071.288-1.36.225-.341.63-.512 1.206-.512s.972.17 1.206.513c.189.288.288.729.288 1.359 0 .612-.09 1.071-.288 1.368Zm2.89-4.977-.478-.648 2.205-1.242 2.223 1.242-.495.648-1.728-.981-1.728.98Zm1.79.522c-1.7 0-2.565 1.035-2.565 3.087 0 2.052.864 3.087 2.565 3.087s2.565-1.035 2.565-3.087c0-2.052-.846-3.087-2.565-3.087Zm1.224 4.446c-.234.342-.612.513-1.188.513s-.98-.171-1.206-.513c-.17-.27-.27-.729-.27-1.359s.081-1.071.27-1.36c.234-.341.63-.512 1.206-.512.558 0 .963.17 1.188.513.171.288.27.729.27 1.359s-.099 1.089-.27 1.359Zm4.96.477v1.224c-1.819-.008-2.737-.754-2.737-2.241v-6.354h1.071v6.354c0 .324.1.558.288.711.252.216.73.306 1.377.306Zm24.452-1.863v3.087h-1.053v-3.087c0-.63-.099-1.071-.288-1.36-.234-.341-.63-.521-1.224-.521-.576 0-.972.17-1.206.522-.189.288-.27.729-.27 1.359v3.087h-1.07v-3.087c0-.63-.1-1.071-.289-1.36-.234-.341-.63-.521-1.206-.521s-.98.17-1.206.522c-.189.288-.27.729-.27 1.359v3.087h-1.07v-3.087c0-2.052.845-3.087 2.546-3.087.918 0 1.593.306 2.034.936.441-.63 1.107-.936 2.007-.936 1.728 0 2.565 1.017 2.565 3.087Zm3.438-3.042c-1.7 0-2.565 1.017-2.565 3.087V45h1.08v-2.43h1.494c1.701 0 2.565-1.035 2.565-3.087 0-2.052-.864-3.087-2.574-3.07Zm1.233 4.437c-.225.342-.63.513-1.206.513h-1.494v-1.881c0-.63.117-1.071.288-1.36.225-.341.63-.512 1.206-.512s.972.17 1.206.513c.171.288.27.729.27 1.359 0 .612-.099 1.071-.27 1.368Zm4.851.468v1.224c-1.818-.008-2.736-.754-2.736-2.241v-6.354h1.071v6.354c0 .324.1.558.288.711.252.216.711.306 1.377.306Zm2.925-4.923c-1.7 0-2.565 1.035-2.565 3.087 0 2.052.864 3.087 2.566 3.087 1.7 0 2.546-1.035 2.546-3.087 0-2.052-.846-3.087-2.547-3.087Zm1.189 4.446c-.234.342-.63.513-1.206.513-.577 0-.973-.171-1.207-.513-.17-.27-.27-.729-.27-1.359s.081-1.071.27-1.36c.234-.341.63-.512 1.206-.512.577 0 .973.17 1.207.513.189.288.288.729.288 1.359s-.1 1.089-.288 1.359Zm2.16-4.446h1.07v6.147h-1.07v-6.147Zm1.08-2.43v1.206h-1.072v-1.206h1.072Zm-38.359 2.439c-1.566 0-2.583 1.134-2.583 3.105 0 2.322 1.206 3.123 2.736 3.123 1.071 0 1.665-.324 2.277-.954l-.783-.729c-.423.423-.783.612-1.476.612-.983 0-1.54-.659-1.547-1.683h3.941v-.54c0-1.746-.936-2.934-2.565-2.934Zm-1.377 2.6a1.841 1.841 0 0 1 .153-.827c.19-.46.63-.765 1.206-.765s1.017.306 1.206.765c.13.256.188.542.171.828H16.2Zm10.251-2.6c-1.566 0-2.583 1.134-2.583 3.105 0 2.322 1.206 3.123 2.736 3.123 1.053 0 1.647-.324 2.277-.954l-.783-.729c-.44.423-.783.612-1.476.612-.983 0-1.54-.659-1.547-1.683h3.96v-.54c0-1.746-.955-2.934-2.584-2.934Zm-1.386 3.474h.006s-.003.003-.006 0Zm.01-.873a1.841 1.841 0 0 1 .152-.828c.19-.46.63-.765 1.206-.765.594 0 1.017.306 1.206.765.108.263.166.544.171.828h-2.736Zm-12.097-24.49a14.55 14.55 0 0 1 26.06-8.864l-.09-.04a7.31 7.31 0 0 0-.53-.2l-.028-.01a6.14 6.14 0 0 0-.195-.063 10.313 10.313 0 0 0-3.06-.425 10.846 10.846 0 0 0-2.94.36h-.018a7.91 7.91 0 0 0-.194.056c-.101.03-.201.062-.3.09l-.03.01a7.815 7.815 0 0 0-3.349 2.111 8.355 8.355 0 0 0-1.8 3.06 11.55 11.55 0 0 0-.1.314c-.032.105-.064.192-.09.28v.026a12.277 12.277 0 0 0-.44 3.287c0 1.345.171 2.56.515 3.645a9.248 9.248 0 0 0 .46 1.174l.023.048a7.575 7.575 0 0 0 .233.445c.043.076.09.15.132.226.055.09.112.18.17.27.006.008.012.015.016.023.287.435.615.842.98 1.215 1.665 1.728 4.005 2.583 7.065 2.583 1.254 0 2.366-.152 3.343-.456a14.513 14.513 0 0 1-11.289 5.38c-8.028 0-14.544-6.516-14.544-14.544Zm25.236-5.471c.801.864 1.26 2.106 1.395 3.699.018.27-.27.495-.558.495h-8.217c-.288 0-.594-.252-.558-.531.19-1.575.675-2.8 1.458-3.636.828-.9 1.917-1.36 3.177-1.341 1.368-.01 2.475.432 3.303 1.314Zm1.863 6.426a8.212 8.212 0 0 0 1.97-.207 14.44 14.44 0 0 1-.422 2.826c-.18.05-.347.143-.486.27-.252.225-.999.936-1.377 1.26a11.35 11.35 0 0 1-1.287.954 5.67 5.67 0 0 1-1.476.693 6.44 6.44 0 0 1-1.665.207 4.761 4.761 0 0 1-4.347-2.7 5.84 5.84 0 0 1-.392-.965c-.023-.076-.043-.151-.064-.228l-.023-.085a7.425 7.425 0 0 1-.205-1.467c-.018-.342.252-.558.558-.558h9.216Zm1.99-.954a14.43 14.43 0 0 0-3.03-8.865l.023.009c.273.12.538.258.792.413 1.323.765 2.307 1.76 2.952 2.988.657 1.224.981 2.475.981 3.735 0 1.188-.324 1.836-.9 2.124a3.933 3.933 0 0 1-.834.303v.039c.01-.247.015-.495.015-.746Zm-3.254 9.174a14.47 14.47 0 0 0 2.812-5.601c.161-.048.328-.072.495-.071.081 0 .144.018.216.018.37.063 1.053.315.828 1.422-.36 1.7-2.412 3.546-4.23 4.176l-.09.026-.022.028-.01.002Z" fill="#555"/>
</svg>
