<svg width="49" height="45" fill="none" xmlns="http://www.w3.org/2000/svg">
    <path fill-rule="evenodd" clip-rule="evenodd" d="M22.354 1.727a.558.558 0 0 0 0-.084c.011-.102.035-.202.07-.298.02-.076.044-.15.074-.223 0-.028.023-.056.032-.08a.929.929 0 0 1 .089-.171 1.74 1.74 0 0 0 .07-.647c.054.03.114.051.176.06h.033a.865.865 0 0 0 .214 0c.251-.041.582-.116.716-.032.409.084.831.063 1.229-.06.698-.27 1.433.302 2.075 0h.065a.75.75 0 0 1 .135-.043 1.3 1.3 0 0 1 .13-.027c.164-.038.335-.038.498 0a.149.149 0 0 0 .052 0c.257.068.52.11.786.125.088 0 .293-.093.465-.153.172-.06 1.484.149 1.708 0 .437-.28.465.153.684.167h.046l.182-.032a5.72 5.72 0 0 1 1.396-.038h.116c.205 0 .568-.088.735-.097a.77.77 0 0 1 .196.042h.06c.36.128.752.128 1.112 0 .124-.037.253-.051.382-.042h.47c.11.007.218.024.325.05.08.02.16.032.242.033a.465.465 0 0 0 .112 0 .354.354 0 0 0 .153-.05.34.34 0 0 1 .103-.043h.251c.146.03.289.076.423.14-.103.254-.16.526-.167.8-.001.16.032.32.098.466.154.272.224.585.2.898v.097c0 .033 0 .065-.024.098a2.53 2.53 0 0 1-.144.423c0 .042-.028.093-.042.145-.014.05 0 .032 0 .05a1.19 1.19 0 0 0 0 .229v.12c.024.315.075.626.154.931.014.187-.02.374-.098.545a.242.242 0 0 1-.028.06.215.215 0 0 0 0 .163v.084c0 .032.047.2.075.316.133.383.118.801-.042 1.173l-.042.084v.041c0 .033-.028.066-.037.094-.01.027 0 .046-.023.074-.024.028 0 .056 0 .084a1.161 1.161 0 0 0-.028.177.227.227 0 0 1 0 .055v.112c0 .344.083.67.074.903 0 .395.196.563.19.819v.516a4.314 4.314 0 0 1-.05.521.663.663 0 0 1-.024.103v.05a.463.463 0 0 1-.05.117.544.544 0 0 0-.08.349v.075a.066.066 0 0 1 0 .027v.038c.009.024.02.047.033.07.01.027.023.053.037.079.042.08.067.17.074.26a.35.35 0 0 1-.074.205.66.66 0 0 0-.075.349v.633c.089.665.247 1.46.117 1.75a.078.078 0 0 0 0 .046v.065c.009.156.03.312.065.465v.051c.021.106.034.213.037.321a.417.417 0 0 1 0 .107.874.874 0 0 1 0 .154.555.555 0 0 1-.032.093.53.53 0 0 1-.107.177c-.145.163.088 1 .088 1.456a.521.521 0 0 1-.033.21v.027a2.188 2.188 0 0 0-.255 1.233.567.567 0 0 0 0 .089v.344c0 .042 0 .089.023.135.023.047.028.135.042.2.033.141.077.28.13.414a.066.066 0 0 1 0 .028c.024.06.042.12.056.182a.794.794 0 0 1 0 .14v.078a.355.355 0 0 0 0 .066 1.206 1.206 0 0 1-.117.302.574.574 0 0 0-.07.219c0 .256.27.442.256.61v.032a1.4 1.4 0 0 0-.041.34v.041a.354.354 0 0 1 0 .07v.312a.593.593 0 0 0 0 .088v.135a1.34 1.34 0 0 0-.13.62 2.7 2.7 0 0 0 .171.93.77.77 0 0 1 .042.265v.084a2.645 2.645 0 0 1-.027.34c-.033.2-.07.353-.07.353l-.387.028a2.286 2.286 0 0 0-.516-.154h-.06a.52.52 0 0 0-.154 0 1.396 1.396 0 0 1-.87-.214 7.22 7.22 0 0 1-.866-.507c-.32-.214-.297-.316-.465-.354-.167-.037-.423-.083-.726-.683a1.63 1.63 0 0 0-.558-.652l-.037-.023a2.326 2.326 0 0 0-.493-.219.856.856 0 0 1-.466-.293.744.744 0 0 1-.046-.084.483.483 0 0 1 0-.088 1.123 1.123 0 0 0-.093-.186l-.126-.182c-.14-.19-.32-.35-.526-.465-.465-.21-.642-.898-.93-.977a1.54 1.54 0 0 1-.829-.824.806.806 0 0 0-.465-.535 1.862 1.862 0 0 1-.698-.586.542.542 0 0 1-.037-.06c-.135-.187-.535-.066-.842-.894a.93.93 0 0 0-.559-.437c-.265-.103-.27-.186-.465-.382-.195-.195-.065-.265-.2-.414a.218.218 0 0 0-.033-.033l-.083-.074a5.78 5.78 0 0 0-.93-.707c-.322-.154-.55-.228-.648-.438a.322.322 0 0 0-.08-.112.99.99 0 0 0-.13-.106l-.106-.06a1.822 1.822 0 0 0-.465-.168 1.35 1.35 0 0 1-.498-.252c.241-.005.482-.026.721-.06h.042a.764.764 0 0 0 .195-.056.089.089 0 0 0 .056-.051.037.037 0 0 1 0-.023.44.44 0 0 1 .093-.038h.037c.144-.03.29-.044.438-.041h.26l.14-.024h.093a1.564 1.564 0 0 0 .568-.27l.056-.037c.307-.172.786-.13 1.032-.284a.294.294 0 0 1 .163-.037h.242a.768.768 0 0 0 .614-.246 1.862 1.862 0 0 1 1-.42 2 2 0 0 0 .466-.102l.08-.032a.93.93 0 0 0 .213-.121l.056-.042.088-.084.084-.093.13-.14c.07-.078.144-.151.224-.218l.13-.112.047-.042c.104-.094.216-.18.335-.256l.037-.023a.806.806 0 0 1 .251-.098c.438-.074.442-.54 1.103-.772a.684.684 0 0 0 .4-.293v-.037c.075-.145.098-.312.182-.466a.967.967 0 0 1 .348-.381c.466-.326.22-.582.466-.88.177-.204.34-.302.405-.563v-.037a.735.735 0 0 0 0-.107v-.363a.929.929 0 0 1 0-.158 1.45 1.45 0 0 1 .074-.428v-.065a.643.643 0 0 0 0-.168V6.39a.532.532 0 0 0 0-.084.213.213 0 0 0 0-.046 2.022 2.022 0 0 0-.12-.335 1.413 1.413 0 0 1-.066-.158 1.102 1.102 0 0 1-.065-.442v-.118a.565.565 0 0 0 .032-.135c.028-.274-.228-.344-.19-.549.037-.204-.396-.665-.489-.795v-.074a.931.931 0 0 0-.791-.648c-.247 0-.414-.2-.628-.372a1.42 1.42 0 0 0-.693-.205h-.135a.93.93 0 0 1-.493-.25.708.708 0 0 0-.433-.09c-.134.002-.268.01-.4.024h-.513a.75.75 0 0 1-.153-.028.415.415 0 0 1-.12-.051.763.763 0 0 0-.466-.126c-.172 0-.344.042-.517.047a.689.689 0 0 1-.409-.093 1.233 1.233 0 0 0-.847-.177h-.056a.465.465 0 0 1-.149.037 1.163 1.163 0 0 1-.186 0h-.214a9.04 9.04 0 0 0-.93-.051h-.14c-.33.065-.54.19-.814.051a1.396 1.396 0 0 0-.814.093h-.042l-.284.103-.707.07h-.438a.68.68 0 0 0 .13-.261ZM11.46 11.242a.36.36 0 0 1 0 .112c-.065.163-.265.312-.251.67a.998.998 0 0 0 .046.288c.082.285.141.576.177.87v.163a.49.49 0 0 1 0 .121 2.47 2.47 0 0 0 0 .363v.479l-.037.154a.621.621 0 0 1 0 .088v.098c0 .033-.033.172-.047.256-.014.084 0 .098 0 .149a.873.873 0 0 0 0 .312c.13.393.198.804.2 1.219v.279a2.635 2.635 0 0 1-.042.302.133.133 0 0 1 0 .042l-.027.121c0 .042 0 .08-.038.112a1.393 1.393 0 0 0-.079.302v.82a.65.65 0 0 1 0 .083l.037.34a1.449 1.449 0 0 0 .396-.368l.042-.07c.098-.194.187-.393.265-.595a2.214 2.214 0 0 1 .2-.368.415.415 0 0 1 .093-.088 1.56 1.56 0 0 1 .158-.08l.084-.05.033-.024v-.023l.046-.056v-.028l-.135-.07c.049-.104.082-.216.098-.33a1.528 1.528 0 0 1 .13-.396c.03-.051.062-.1.098-.148 0-.028.042-.052.06-.075l.052-.051a.496.496 0 0 1 .097-.08 1.251 1.251 0 0 1 .466-.92.894.894 0 0 0 .232-.261.595.595 0 0 0 .089-.242.694.694 0 0 0 0-.112c.012-.158.043-.314.093-.465v-.023a.162.162 0 0 1 0-.042.504.504 0 0 1 .079-.149.283.283 0 0 1 .125-.088.242.242 0 0 0 .163-.121.637.637 0 0 0 .084-.233.904.904 0 0 0 0-.14c.015-.19.05-.38.107-.563 0-.032.023-.07.037-.107.014-.037 0-.032 0-.05a1.63 1.63 0 0 1 .2-.364l.06-.07c.033-.036.067-.07.103-.102l.047-.037a.767.767 0 0 0 .247-.28c.176-.334.111-.744.288-.962a.786.786 0 0 0 .098-.424 1.198 1.198 0 0 1 0-.126.991.991 0 0 1 .083-.316c.08-.127.15-.261.21-.4l.028-.07v-.051c0-.019.046-.126.07-.186.014-.05.03-.1.05-.149l.043-.121v-.028a.565.565 0 0 0 .032-.079l.028-.06a1.819 1.819 0 0 1 .21-.33c.032-.047.068-.09.106-.131.265-.417.4-.902.391-1.396a.64.64 0 0 1 0-.205c.011-.063.027-.125.047-.186V6.45a4.06 4.06 0 0 1 .12-.321l.15-.629.14-.335c-.194.1-.375.223-.54.363l-.089.089-.037.037c-.149.135-.182.028-.317.051a.432.432 0 0 0-.13.051l-.079.038c-.316.12-.996.107-1.35.549a.958.958 0 0 1-.32.209c-.14.07-.265.116-.265.116a.377.377 0 0 0-.215.084l-.05.037-.057.056a.402.402 0 0 0-.06.065.488.488 0 0 1-.121.103h-.028a.656.656 0 0 1-.177.055h-.2a.895.895 0 0 0-.144.052.93.93 0 0 0-.382.288 1.471 1.471 0 0 1-.144.149 1.01 1.01 0 0 1-.684.284h-.139a.54.54 0 0 1-.098-.023l-.163.065-.154.07-.097.05a.363.363 0 0 0-.159.131.255.255 0 0 0 0 .07v.144c0 .042 0 .121-.032.19-.033.07-.028.098-.047.154V8.8a.776.776 0 0 0-.027.135v.056c-.033.372.2.545.158.81-.042.265.237 1.112.242 1.442h.023Zm19.952 15.755a3.9 3.9 0 0 1 1.01.051h.2l-.14-.083-.247-.14a9.904 9.904 0 0 0-1.568-.382.71.71 0 0 1-.204 0l-.117-.032a.501.501 0 0 1-.153-.093 1.862 1.862 0 0 1-.861-.312l-.047-.033-.093-.083a.894.894 0 0 1-.097-.126 2.206 2.206 0 0 0-1.043-.833 1.536 1.536 0 0 1-1.088-.884c-.042-.153-.712-.465-.712-.465a1.266 1.266 0 0 1-.93-.88.885.885 0 0 0-.16-.274 1.33 1.33 0 0 0-.18-.182c-.27-.223-.587-.344-.605-.465-.02-.12-.605-.465-.661-.786-.07-.4-.726-.238-.712-.833 0-.28-.93-1.024-.93-1.024a1.55 1.55 0 0 1-.708-.74 1.34 1.34 0 0 0-.66-.832 3.598 3.598 0 0 1-.708-.605.753.753 0 0 1-.465-.466c-.116-.363-.712-.651-.712-.651l-.614-.28v.033l-.084.196a3.198 3.198 0 0 1-.27.465.882.882 0 0 1-.163.177.545.545 0 0 0-.172.195v.042a.937.937 0 0 0-.051.121c0 .056-.037.112-.051.172a.402.402 0 0 0 0 .08c0 .046 0 .092-.024.134-.023.042 0 .042 0 .066v.274a1.4 1.4 0 0 0 0 .228.716.716 0 0 1 0 .237.575.575 0 0 1-.032.135.461.461 0 0 1-.047.08.642.642 0 0 1-.126.14v-.001a2.245 2.245 0 0 1-.185.135c-.238.158-.428.865-.508 1.219 0 .056 0 .098-.023.135v.023c0 .112-.042.223-.07.33-.028.108-.042.14-.065.21a3.98 3.98 0 0 1-.377.786l-.088.135a3.62 3.62 0 0 1-.168.242l-.083.112-.042.046a1.207 1.207 0 0 1-.089.107l-.093.103-.037.042v.027a.679.679 0 0 1-.042.075c0 .032-.032.07-.046.107l-.056.126-.028.07c0 .05-.033.097-.047.148a1.1 1.1 0 0 0-.046.298v.219a.558.558 0 0 0 0 .083.739.739 0 0 1-.06.122l-.038.05-.051.056-.042.038-.093.083a.615.615 0 0 0-.14.191.855.855 0 0 0-.06.224v.107c0 .14-.037.265-.06.381v.033c0 .046 0 .093-.024.14a1.584 1.584 0 0 1-.056.19.512.512 0 0 1-.056.135.466.466 0 0 1-.176.2.999.999 0 0 0-.224.168 1.163 1.163 0 0 0-.158.181 1.98 1.98 0 0 0-.098.149l-.065.126c-.032.063-.06.128-.083.195l-.289.642v.102l-.274.308c.17.05.35.05.52 0l.052-.038a.372.372 0 0 1 .26-.083c.121 0 .241.014.359.042h.135l1.396.134a.643.643 0 0 0 .233.065.875.875 0 0 0 .576-.162c.256-.172 1.191.097 1.191.097.197.059.4.096.605.112h.047a.805.805 0 0 0 .465-.088.327.327 0 0 1 .121-.051h.475c.595 0 1.428.093 1.74-.052a.978.978 0 0 1 .954.098 4.652 4.652 0 0 0 2.145.051c.493-.149 1.684.13 2.047-.098h.037a.558.558 0 0 1 .219-.046c.117.003.234.017.349.042h.084c.102.023.195.046.274.056h.037a.237.237 0 0 0 .177-.042.535.535 0 0 1 .284-.075h.982a.597.597 0 0 0 .465.089 1.19 1.19 0 0 0 .247-.06c.54-.173 1.6.176 1.866.07h.023ZM5.747 39.867c.693-.26 2.057-.968 2.033-2.545-.028-2.038-2.13-1.954-2.829-1.954-.363 0-.823 0-1.395.037-.336 0-1.82.033-2.239 0-.418-.033-.274.307-.228.75.047.441.103 3.62.103 3.62l-.042 3.303a7.133 7.133 0 0 1-.195 1.726c.59-.028.465-.042 1.167-.042.773 0 .391 0 1.159.042a6.57 6.57 0 0 1-.172-1.308c0-.125-.042-3.047-.042-3.722 0-.428 0-1.638.042-2.55.042-.912-.112-1.08-.112-1.08s2.792-.623 2.792 1.648A1.829 1.829 0 0 1 3.95 39.76c-.302 0-.223.317 0 .67.223.354.637.93 1.047 1.61 0 0 1.62 2.666 1.642 2.764a18.32 18.32 0 0 1 1.243-.042c.358 0 .586 0 1.28.042 0 0-1.476-1.931-2.006-2.727-.53-.795-1.322-2.01-1.433-2.21h.023Zm5.412-2.28c0 .07.162.163.623 0a5.584 5.584 0 0 0 1.73-1.065.628.628 0 0 0 .108-.81c-.163-.298-.465-.749-.93.098a5.049 5.049 0 0 1-1.555 1.777h.024Zm10.73 3.532c.036-1.684.12-2.815.12-2.815-.614.204-1.95.097-1.94.52.01.424.093 1.01.093 1.318 0 0 .084 1.86 0 2.615a1.506 1.506 0 0 1-1.052.968.959.959 0 0 1-1.223-.833c-.052-.545-.047-1.057-.042-2.038.004-.982.116-2.56.116-2.56-.614.205-1.94.117-1.912.53.028.415.107 1.108.107 2.327 0 1.22 0 1.396-.037 2.02a1.717 1.717 0 0 0 1.605 1.805c.424.06.857.008 1.256-.149.426-.345.83-.717 1.21-1.112.01.2.01.4 0 .6a4.975 4.975 0 0 1-.08.522l.96-.024h.962a28.667 28.667 0 0 1-.144-3.694Zm10.385-5.9a1.023 1.023 0 1 0 0 2.047.976.976 0 0 0 .725-.302 1.028 1.028 0 0 0-.331-1.673.972.972 0 0 0-.394-.072Zm7.76 3.913a4.095 4.095 0 0 1 0 4.876 3.258 3.258 0 0 1-2.48.973 3.21 3.21 0 0 1-2.48-.93 4.113 4.113 0 0 1 0-4.9 3.676 3.676 0 0 1 4.96 0v-.019Zm-1.023 2.452a4.904 4.904 0 0 0-.33-1.903 1.167 1.167 0 0 0-2.257 0 5.649 5.649 0 0 0 0 3.806 1.172 1.172 0 0 0 2.257 0 4.902 4.902 0 0 0 .32-1.903h.01Zm-9.455-1.55a1.722 1.722 0 0 0-1.61-1.81 2.47 2.47 0 0 0-1.251.154c-.44.338-.849.713-1.224 1.122a5.65 5.65 0 0 1 0-.605l.051-.587c-.614.205-1.903.13-1.861.55.056.753.149 2.051.121 3.257-.037 1.68-.102 2.754-.102 2.754h1.931c0-.423-.103-1.47-.103-1.782 0 0-.084-1.861 0-2.61a1.471 1.471 0 0 1 1.033-.977.953.953 0 0 1 1.22.837c.049.678.063 1.358.041 2.038 0 .982-.079 2.499-.079 2.499h1.917c-.028-.414-.149-1.573-.149-2.792 0-1.22.042-1.438.056-2.047h.01Zm18.286 0a1.726 1.726 0 0 0-1.61-1.81 2.49 2.49 0 0 0-1.256.154 9.822 9.822 0 0 0-1.219 1.122 5.65 5.65 0 0 1 0-.605c0-.256.051-.587.051-.587-.614.205-1.903.13-1.86.55.055.753.153 2.051.125 3.257a96.187 96.187 0 0 1-.103 2.754h1.931c0-.423-.107-1.47-.107-1.782 0 0-.083-1.861 0-2.61a1.606 1.606 0 0 1 1.057-.973.958.958 0 0 1 1.219.838c.05.544.046 1.051.041 2.038a66.88 66.88 0 0 1-.083 2.498h1.922c-.029-.414-.15-1.572-.15-2.791 0-1.22.015-1.443.033-2.052h.01ZM33.19 38.3c-.614.205-1.95.126-1.917.55.056.753.135 1.516.13 2.703 0 1.735-.111 3.29-.111 3.29h1.977c0-.424-.158-1.718-.158-3.29-.01-1.024 0-2.364.07-3.253h.01Zm-18.216 2.82c0 .126.023.465-.116.516-1.354.307-4.002-.265-3.993.554 0 .521.27 2.01 1.573 2.07a3.722 3.722 0 0 0 2.196-.693s.26-.056.168.191c-.092.226-.2.445-.321.656a4.188 4.188 0 0 1-2.23.577c-2.6-.116-3.317-1.861-3.289-3.56a3.49 3.49 0 0 1 .81-2.298 3.186 3.186 0 0 1 4.597.023 2.86 2.86 0 0 1 .596 1.964h.009Zm-1.777-.19c.023-1.043-.275-2.053-1.154-2.067-.992 0-1.247 1.35-1.275 2.545a.684.684 0 0 1 .335-.372c.572-.181 1.526-.023 2.084-.107h.01ZM.95 32.52v-1.99a2.596 2.596 0 0 0-.047-.466h1.34c.903 0 2.099.15 2.099 1.452 0 1-.707 1.508-2.099 1.508H.903c.034-.166.05-.334.047-.503Zm.786.037h.465c.931 0 1.336-.316 1.336-1.06 0-.745-.386-1.024-1.336-1.024h-.465v2.084Zm4.044-.037a2.864 2.864 0 0 1-.047.465h2.47v-.465h-1.67v-.893h1.424v-.424H6.533v-.763h1.55v-.428H5.7c.028.154.043.31.046.465l.033 2.043Zm20.891.465h2.476v-.465h-1.675v-.893H28.9v-.424h-1.428v-.763h1.55v-.428h-2.383c.028.154.044.31.046.465v2.043c.004.156-.006.311-.027.465h.013Zm12.066-2.53v-.429h-2.378c.025.154.04.31.042.465v2.03a3.167 3.167 0 0 1-.042.464h2.47v-.465h-1.642v-.893h1.429v-.424h-1.429v-.763l1.55.014ZM9.79 32.52v-1.99a2.867 2.867 0 0 0-.046-.466h1.289c.93 0 1.363.266 1.363.815 0 .786-.884.88-1.545.88h-.279v1.227h-.828c.028-.153.044-.309.046-.465Zm.782-1.21h.28c.54 0 .786-.14.786-.465 0-.326-.228-.386-.787-.386h-.279v.851Zm6.324 1.694h-.87s-.34-.735-.364-.777h-1.526l-.172.335c-.074.135-.223.437-.223.437h-.787s1.373-2.508 1.47-2.698c.099-.191.075-.26.075-.26h.8l1.36 2.475c.11.232.255.47.255.47l-.018.018Zm-1.452-1.233c-.056-.116-.466-.972-.521-1.093-.06.12-.493.977-.559 1.098.14-.028.982-.028 1.098-.024l-.018.019Zm2.88.75v-1.992a2.872 2.872 0 0 0-.047-.466h1.201c.619 0 1.438.028 1.438.787 0 .335-.405.563-.684.637a.827.827 0 0 1 .553.53s.377.792.466 1.015h-.889a8.948 8.948 0 0 0-.423-.977c-.15-.298-.261-.35-.615-.35h-.214v1.28h-.832a2.86 2.86 0 0 0 .065-.465h-.019Zm.786-1.262h.284c.345 0 .759-.12.759-.428 0-.307-.228-.358-.759-.358h-.284v.786Zm4.97 1.726v-2.53h.6c.181 0 .59.032.59.032v-.465h-3.15v.465s.42-.033.596-.033h.568v2.531h.796Zm20.859-2.959v.465s.419-.032.59-.032h.582v2.531h.787v-2.53h.581c.182 0 .596.032.596.032v-.465H44.94Zm-1.433 2.96v-2.96h-.721c.028.154.043.31.046.465v1.68l-1.619-2.163h-.93a2.9 2.9 0 0 1 .05.465v2.48h.652v-2.206l1.703 2.238h.819Zm-9.027-2.96h-.986a.57.57 0 0 1-.024.21l-.879 2.075-.93-2.285h-.973a.6.6 0 0 1 .042.214l-.214 2.745h.68l.134-2.196.93 2.196h.647l.931-2.191c0 .293.13 2.191.13 2.191h.754l-.242-2.959Zm-26.661-.698-.377-.367h-.028l-1.13.581.278.275 1.257-.489Zm9.306 7.059v-1.54a2.806 2.806 0 0 0-.042-.428h.93c.359 0 1.447 0 1.447 1.181 0 .815-.488 1.229-1.447 1.229h-.93a2.62 2.62 0 0 0 .037-.442h.005Zm.628-.023h.242c.59 0 .832-.228.832-.778 0-.549-.232-.744-.832-.744h-.242v1.522Zm4.039-1.522v-.437h-1.694c.023.141.037.284.042.428v1.554a3.15 3.15 0 0 1-.042.428h1.754v-.465h-1.089v-.573h.93v-.437h-.93v-.493l1.029-.005Zm4.164 1.973 1.01-2.178a.325.325 0 0 0 .046-.167v-.065h.628l1.117 2.41h-.693l-.191-.507H26.83l-.21.498-.665.009Zm.982-.93h.805l-.387-.931c-.041.088-.386.851-.423.944l.005-.014Zm-3.257.93h1.782v-.493l-.442.032h-.661v-1.973h-.67c.025.145.039.291.042.438v1.554a2.47 2.47 0 0 1-.051.437v.005Zm-12.53-31.7c-.057.171.055.525 0 .804h.032c.079 0 .19.047.246.042h.028c.074-.044.146-.092.214-.144l.098-.07.07-.051c.164-.154.357-.272.567-.35h.187a.88.88 0 0 0 .544-.255 2.791 2.791 0 0 1 1.047-.73l.153-.047h.103a.664.664 0 0 1 .135 0h.451a.55.55 0 0 0 .172-.089l.047-.032c.123-.097.262-.174.41-.228l.12-.037h.051a1.66 1.66 0 0 0 .717-.26c.502-.499 1.321-.466 1.447-.587a.899.899 0 0 1 .298-.154h.06a.465.465 0 0 0 .159-.107.508.508 0 0 0 .32-.516v-.247a.466.466 0 0 1 .07-.279V1.75a.358.358 0 0 1 .052-.065.835.835 0 0 1 .093-.084l.041-.056a.651.651 0 0 0 .093-.176.248.248 0 0 0 0-.056.55.55 0 0 0 0-.08v-.046a2.457 2.457 0 0 1 0-.321.125.125 0 0 1 0-.056.708.708 0 0 1 .15-.186.445.445 0 0 0 .041-.056.06.06 0 0 0 0-.032c-.623-.13-1.005.12-1.503-.038h-.717a1.15 1.15 0 0 1-.534 0 3.182 3.182 0 0 0-1.638-.102h-.037l-.07.028a.977.977 0 0 0-.14.074c-.16.062-.327.098-.498.107-.37.084-.756.058-1.112-.074a.703.703 0 0 0-.614-.084h-.028l-.172.042h-.037l-.098.028h-.084a.791.791 0 0 1-.73-.079l-.047-.033a.144.144 0 0 1-.088.038c.093.097 0 .53 0 .786-.002.22.012.442.042.66v-.078a.247.247 0 0 1 0 .07 1.542 1.542 0 0 0-.089.255v.26c0 .136.042.238.042.34a.628.628 0 0 1 0 .094c-.042.223.186.549.093.781a.373.373 0 0 1-.06.098.285.285 0 0 0-.042.056.693.693 0 0 0-.046.13v.102a.322.322 0 0 0 0 .066c-.084.395.027.92-.01 1.047v.004Zm8.04 7.397a.698.698 0 0 0-.103.103 1.032 1.032 0 0 0-.163.493v.074c0 .024 0 .107-.023.15a.46.46 0 0 1-.033.097v.149a.146.146 0 0 0 0 .046 1.223 1.223 0 0 0 .023.26l.345-.227s.526-.582.758-.54a.28.28 0 0 0 .205-.06l.065-.047.08-.056.032-.027c.14-.112.28-.214.395-.163a.58.58 0 0 0 .145.046h.042c.122.007.245-.007.363-.042l.111-.042a.549.549 0 0 0 .293-.209c.07-.163.698.121 1.396-.312a.522.522 0 0 1 .098-.056l.046-.023c.055-.026.11-.048.168-.065h.042c.302-.065.465.075.6-.023.135-.098.852.107 1.67-.466.143-.097.3-.17.466-.218.275-.037.534-.153.744-.335.222-.19.493-.309.782-.345a.931.931 0 0 0 .414-.27c.19-.2.363-.465.605-.674.1-.087.211-.16.33-.219a1.3 1.3 0 0 0 .535-.768s0-.041.024-.065l.028-.107c0-.023 0-.05.023-.074.023-.023 0-.07 0-.098v-.163a.93.93 0 0 1 .232-.595.401.401 0 0 0 .061-.07v-.033a.365.365 0 0 0 .037-.074v-.047a.51.51 0 0 0 0-.083v-.289a.532.532 0 0 1 0-.12.587.587 0 0 1 .042-.192.466.466 0 0 0 0-.297.646.646 0 0 0-.023-.075V6.33a.517.517 0 0 1-.023-.08 1.281 1.281 0 0 1-.038-.144.905.905 0 0 1 0-.111V5.92a.34.34 0 0 0 0-.07v-.144c0-.689-.595-.744-.674-.954a1.396 1.396 0 0 0-.652-.674l-.06-.024h-.06l-.14-.032h-.07a3 3 0 0 1-.61-.093h-.046l-.056-.042-.028-.033a.098.098 0 0 0-.037-.028c-.116-.083-.223 0-.465-.079-.577-.246-1.033-.037-1.326-.088h-.108a.78.78 0 0 0-.228 0h-.065c-.085.026-.168.06-.246.102-.684.289-1.773-.149-2.099.214a.688.688 0 0 1-.67.177.27.27 0 0 0-.274.098.35.35 0 0 0-.052.065.996.996 0 0 0-.102.2c0 .023 0 .051-.023.07-.023.018 0 .083-.028.116v.121a.42.42 0 0 1 0 .075v.037a.464.464 0 0 1-.093.107.369.369 0 0 0-.065.107.09.09 0 0 0 0 .032.402.402 0 0 0 0 .08v.307a.767.767 0 0 1-.168.395l-.028.037-.023.033c-.023.037-.046.074-.065.111l-.033.075a.306.306 0 0 0 0 .06.475.475 0 0 0 0 .08.66.66 0 0 0 0 .13 1.654 1.654 0 0 0 0 .265v.27a.3.3 0 0 1 0 .06.386.386 0 0 1-.163.191l-.074.06a.692.692 0 0 0-.046.061c-.238.33-.154.93-.298 1.22a.367.367 0 0 1-.065.078.298.298 0 0 0-.098.135v.033c0 .093.046.19.037.33a.588.588 0 0 1-.051.191s-.023.046-.042.074c-.029.05-.053.101-.074.154 0 .042-.033.084-.047.12a1.215 1.215 0 0 0-.037.122l-.028.088a.87.87 0 0 1-.382.577.581.581 0 0 0-.256.35v.069a1.258 1.258 0 0 0 0 .186c0 .163.024.321.024.438a.227.227 0 0 1 0 .055v.089a.233.233 0 0 0-.042.098v.204a.713.713 0 0 1-.023.191v.028a.618.618 0 0 1-.145.214l-.39.074Z" fill="#555"/>
</svg>
