<svg width="46" height="45" fill="none" xmlns="http://www.w3.org/2000/svg">
    <path d="M15.213 36.51c-.79 0-.96-.725-.824-1.41.227-1.177.772-1.744 1.505-1.744.732 0 .955.781.824 1.457-.17.88-.694 1.696-1.505 1.696Zm10.64 4.142h.96l-.227-1.225-.732 1.225Zm-14.33 0h.96l-.244-1.225-.715 1.225Zm11.474-6.541-.728 1.22h.96l-.232-1.22ZM5.593 35.336h.977l-.227-1.225-.75 1.225ZM45.33.013V45H.635V0L45.33.013Zm-9.55 9.158-3.093 1.744-2.677-1.744a1.186 1.186 0 0 0-.685-.2 1.583 1.583 0 0 0-1.513 1.308 1.156 1.156 0 0 0 .436 1.09l1.967 1.308s-.31 2.22-.467 3.367c-.048.335.362.54.68.38.541-.276 1.627-.873 1.627-.873s.92.593 1.387.872a.568.568 0 0 0 .785-.38c.165-1.146.48-3.366.48-3.366l2.332-1.308a1.57 1.57 0 0 0 .724-1.09 1.13 1.13 0 0 0-1.142-1.309 1.679 1.679 0 0 0-.833.175l-.009.026Zm-.11 11.565a1.577 1.577 0 0 0 .72-1.09 1.13 1.13 0 0 0-1.143-1.309 1.692 1.692 0 0 0-.82.236l-3.087 1.744-2.682-1.744a1.182 1.182 0 0 0-.68-.2 1.583 1.583 0 0 0-1.518 1.308 1.156 1.156 0 0 0 .436 1.09l1.962 1.308s-.305 2.22-.466 3.367c-.048.336.362.54.68.38a72.694 72.694 0 0 0 1.631-.873s.916.593 1.383.872a.57.57 0 0 0 .789-.38c.161-1.146.48-3.366.48-3.366l2.315-1.343Zm-3.598 12.341a2.39 2.39 0 0 0-2.442 1.893c-.23 1.195.436 1.875 1.583 1.875a2.424 2.424 0 0 0 2.442-1.897c.153-.837-.082-1.87-1.583-1.87Zm-5.944.436L25.5 36.75c.136 0 .267-.03.397-.03.131 0 .262 0 .393.03l.628-3.236c.31.005.621.03.929.075a1.076 1.076 0 0 1 0-.232c.018-.075.041-.15.07-.222H25.22c.007.074.007.148 0 .222-.016.08-.039.157-.07.232.324-.047.65-.072.977-.075ZM18.75 34.97c.148-.772.663-1.61 1.535-1.61a.872.872 0 0 1 .78.485h.075c.078-.183.144-.362.226-.54a2.067 2.067 0 0 0-1.024-.258 2.381 2.381 0 0 0-2.477 1.997c-.214 1.077.501 1.77 1.63 1.77.374.005.744-.071 1.086-.222l.201-.436-.061-.03a1.82 1.82 0 0 1-1.016.392c-.811-.009-1.134-.641-.955-1.54v-.008Zm2.228 1.744h.502c.17-.362.366-.689.58-1.094h1.225c.07.357.114.715.157 1.107.157 0 .305-.03.436-.03s.297 0 .436.03l-.737-3.628h-.2a1.282 1.282 0 0 1-.196 0l-2.203 3.615Zm3.729-10.073 2.333-1.309a1.579 1.579 0 0 0 .724-1.09 1.125 1.125 0 0 0-1.143-1.308c-.288.007-.57.086-.82.231l-3.091 1.744-2.678-1.744a1.187 1.187 0 0 0-.685-.2 1.579 1.579 0 0 0-1.513 1.308 1.16 1.16 0 0 0 .436 1.09l1.967 1.308s-.31 2.22-.467 3.367c-.048.336.362.54.68.38.541-.276 1.627-.873 1.627-.873s.92.593 1.387.872a.568.568 0 0 0 .785-.38c.144-1.146.458-3.366.458-3.366v-.03Zm-3.371-12.874c-.202-.131-.44-.2-.68-.196a1.583 1.583 0 0 0-1.518 1.308 1.151 1.151 0 0 0 .436 1.09l1.962 1.309s-.31 2.22-.466 3.37c-.048.332.362.537.68.376a68.882 68.882 0 0 0 1.627-.872s.92.588 1.387.872a.57.57 0 0 0 .789-.375c.161-1.152.48-3.371.48-3.371l2.333-1.308a1.571 1.571 0 0 0 .72-1.09 1.126 1.126 0 0 0-1.139-1.309c-.29.008-.573.087-.824.231l-3.092 1.745-2.695-1.78Zm2.79 1.051a1.696 1.696 0 0 0 1.632-1.365 1.203 1.203 0 0 0-1.221-1.417 1.687 1.687 0 0 0-1.614 1.417 1.204 1.204 0 0 0 1.204 1.396v-.03Zm-.906 6.502a1.683 1.683 0 0 0-1.614 1.413 1.198 1.198 0 0 0 1.217 1.418 1.684 1.684 0 0 0 1.613-1.418 1.2 1.2 0 0 0-1.216-1.382v-.03Zm-2.865-.31c-.436.25-2.333 1.235-2.333 1.235h3.052c0-.162.319-.502.319-.502a.985.985 0 0 1-1.038-.702v-.03Zm7.758 1.235s-1.714-1.025-1.963-1.234a1.173 1.173 0 0 1-1.264.728c.092.163.159.34.196.523l3.03-.017Zm3.336-2.686a1.692 1.692 0 0 0 1.618-1.418 1.203 1.203 0 0 0-1.221-1.413 1.683 1.683 0 0 0-1.614 1.413 1.204 1.204 0 0 0 1.217 1.418Zm1.352-9.376a1.688 1.688 0 0 0 1.613-1.418 1.2 1.2 0 0 0-1.217-1.417 1.683 1.683 0 0 0-1.613 1.417 1.199 1.199 0 0 0 1.217 1.396v.022Zm-7.362-4.666a1.688 1.688 0 0 0 1.614-1.418 1.199 1.199 0 0 0-1.217-1.417 1.683 1.683 0 0 0-1.613 1.417 1.204 1.204 0 0 0 1.216 1.418Zm-4.57 1.168 1.963 1.309s-.31 2.22-.467 3.366c-.048.336.362.54.68.38.545-.275 1.627-.873 1.627-.873s.92.593 1.387.872a.568.568 0 0 0 .785-.379c.165-1.147.48-3.366.48-3.366l2.337-1.309a1.57 1.57 0 0 0 .72-1.081 1.125 1.125 0 0 0-1.139-1.309c-.29.006-.574.087-.824.236l-3.092 1.744-2.678-1.744a1.182 1.182 0 0 0-.68-.2 1.583 1.583 0 0 0-1.517 1.308 1.143 1.143 0 0 0 .418 1.046Zm-4.13 3.489a1.692 1.692 0 0 0 1.605-1.43 1.204 1.204 0 0 0-1.203-1.396 1.683 1.683 0 0 0-1.618 1.417 1.205 1.205 0 0 0 1.216 1.396v.013Zm-4.57 1.169 1.963 1.308s-.306 2.22-.467 3.366c-.048.336.362.541.68.38.545-.275 1.631-.872 1.631-.872s.916.593 1.383.872a.571.571 0 0 0 .79-.38c.16-1.146.479-3.366.479-3.366l2.333-1.308a1.58 1.58 0 0 0 .72-1.09 1.126 1.126 0 0 0-1.139-1.309c-.29.007-.574.088-.824.236l-3.087 1.744-2.682-1.744a1.182 1.182 0 0 0-.68-.2 1.587 1.587 0 0 0-1.518 1.307 1.155 1.155 0 0 0 .418 1.043v.013Zm3.66 5.329a1.688 1.688 0 0 0-1.619 1.417 1.204 1.204 0 0 0 1.217 1.417 1.688 1.688 0 0 0 1.61-1.43 1.205 1.205 0 0 0-1.209-1.417v.013Zm-4.972 4.003 1.962 1.308s-.305 2.22-.467 3.371c-.043.332.362.537.68.375.546-.27 1.632-.872 1.632-.872s.915.593 1.386.872a.567.567 0 0 0 .785-.375c.162-1.151.48-3.37.48-3.37l2.333-1.309a1.574 1.574 0 0 0 .724-1.09 1.129 1.129 0 0 0-1.155-1.335 1.71 1.71 0 0 0-.82.231l-3.092 1.745-2.682-1.745a1.19 1.19 0 0 0-.68-.196 1.575 1.575 0 0 0-1.514 1.308 1.143 1.143 0 0 0 .428 1.069v.013Zm.81 15.7.624-3.21c-.13 0-.266.03-.396.03a3.788 3.788 0 0 1-.388-.03l-.698 3.584h1.993a2.012 2.012 0 0 1 0-.222c.017-.078.04-.153.07-.227-.35.013-.746.052-1.204.052v.022ZM3.383 22.296h8.709c-.436-.292-1.635-.998-1.928-1.277a1.697 1.697 0 0 1-.392-1.675H3.4l-.018 2.952Zm5.639 14.077.623-3.21c-.135 0-.27.031-.4.031a3.907 3.907 0 0 1-.389-.03l-.698 3.584h1.993a2.012 2.012 0 0 1 0-.222c.021-.077.046-.153.074-.227-.331.013-.728.052-1.186.052l-.017.022Zm-1.36.406-.76-3.66a1.526 1.526 0 0 1-.2 0 1.282 1.282 0 0 1-.196 0L4.29 36.766h.502c.17-.362.366-.69.58-1.095h1.243c.074.358.113.715.157 1.108.157 0 .305-.03.436-.03.13 0 .318-.005.47.008l-.017.022Zm1.944 3.576c.212.005.423.02.632.048a1.994 1.994 0 0 1 0-.227c.021-.077.046-.153.075-.227a5.788 5.788 0 0 1-.65.048h-.524l.223-1.134c.402-.003.804.022 1.204.074a1.301 1.301 0 0 1 0-.226c.017-.078.04-.154.07-.227H8.627l-.702 3.61c.135 0 .27-.026.401-.026s.258 0 .388.027l.34-1.745.55.005Zm3.986 1.744-.759-3.659a1.067 1.067 0 0 1-.2 0 .961.961 0 0 1-.197 0l-2.215 3.65h.502c.17-.366.366-.693.58-1.094h1.242c.074.353.114.715.157 1.103.157 0 .306-.026.436-.026.131 0 .319-.009.471 0l-.017.026Zm1.518-5.233a2.424 2.424 0 0 0 2.442-1.897c.152-.816-.083-1.87-1.583-1.87a2.382 2.382 0 0 0-2.42 1.848c-.232 1.182.435 1.875 1.578 1.875l-.017.044Zm3.292 1.64a1.436 1.436 0 0 1-.231.026 1.23 1.23 0 0 1-.218-.026 50.38 50.38 0 0 1-1.71 2.472 63.874 63.874 0 0 1-.732-2.472c-.075.015-.15.024-.227.026-.07-.002-.14-.01-.21-.026-.435 1.334-.841 2.555-1.238 3.61.087 0 .166-.026.249-.026.08.005.16.013.24.026.187-.809.417-1.608.689-2.394.24.829.497 1.644.693 2.368a.62.62 0 0 1 .2 0c.533-.815 1.086-1.618 1.64-2.424-.074.81-.126 1.613-.248 2.45.148 0 .283-.026.436-.026.152 0 .288 0 .436.026.035-1.09.135-2.237.248-3.654l-.017.044Zm1.906 0c-.131 0-.266.026-.397.026a3.849 3.849 0 0 1-.388-.026l-.702 3.61c.13 0 .266-.026.396-.026.131 0 .262 0 .389.026l.702-3.61Zm2.298 3.135c-.366.035-.763.074-1.221.074l.623-3.21c-.135 0-.27.027-.4.027a3.889 3.889 0 0 1-.389-.026l-.693 3.54h2.006a1.834 1.834 0 0 1 0-.222c.026-.077.057-.153.091-.227l-.017.044Zm1.409.432.702-3.611c-.136 0-.27.026-.402.026a3.594 3.594 0 0 1-.388-.026l-.702 3.61c.135 0 .27-.025.401-.025s.253.017.389.026Zm3.924 0-.758-3.659a1.067 1.067 0 0 1-.201 0 .976.976 0 0 1-.196 0l-2.216 3.65h.502c.17-.366.366-.693.58-1.094h1.22c.075.353.119.715.162 1.103.153 0 .306-.026.436-.026.131 0 .319.017.471.026Zm.284-5.347c.13.004.26.014.388.03l.702-3.614c-.13 0-.266.03-.397.03-.13 0-.261 0-.392-.03l-.698 3.615c.113-.013.266-.03.397-.03Zm2.294 4.872c-.367.034-.764.074-1.221.074l.623-3.21c-.13 0-.266.026-.397.026a3.594 3.594 0 0 1-.388-.026l-.698 3.585h1.993a1.834 1.834 0 0 1 0-.223c.023-.078.052-.153.088-.227Zm2.93-1.67c-.217.03-.435.046-.654.047h-.55l.223-1.134a6.79 6.79 0 0 1 1.203.075 1.301 1.301 0 0 1 0-.227c.021-.077.046-.153.075-.227h-2.006l-.698 3.585h2.006a1.995 1.995 0 0 1 0-.227 1.5 1.5 0 0 1 .07-.227 9.63 9.63 0 0 1-1.23.074l.257-1.334h.593c.213.001.426.017.637.048a1.994 1.994 0 0 1 0-.227c.022-.074.052-.153.074-.227Zm1.243-.725a.615.615 0 0 1 .663-.514.489.489 0 0 1 .514.436h.079c.087-.179.174-.353.27-.523a1.16 1.16 0 0 0-.78-.249 1.374 1.374 0 0 0-1.392 1.125c-.248 1.265 1.383.96 1.217 1.801a.698.698 0 0 1-.724.55.562.562 0 0 1-.61-.58h-.1c-.08.228-.175.45-.284.667.237.158.518.237.802.227a1.57 1.57 0 0 0 1.618-1.156c.214-1.204-1.413-1.073-1.273-1.784Zm2.45-2.446.703-3.615c-.07.006-.14.006-.21 0-.07.006-.14.006-.209 0l-.475 2.464c-.58-.846-1.212-1.644-1.801-2.464h-.52l-.697 3.602h.419l.493-2.547.436.597c.475.628.92 1.274 1.4 1.954l.462.009Zm1.858-2.87a.615.615 0 0 1 .68-.518.493.493 0 0 1 .515.457h.079a8.29 8.29 0 0 1 .27-.518 1.138 1.138 0 0 0-.78-.253 1.378 1.378 0 0 0-1.43 1.103c-.25 1.269 1.382.964 1.216 1.805a.698.698 0 0 1-.724.545.565.565 0 0 1-.615-.58h-.096a6.854 6.854 0 0 1-.283.672c.238.154.518.232.802.222a1.57 1.57 0 0 0 1.618-1.155c.236-1.204-1.409-1.073-1.252-1.78Zm3.624-14.574h-5.477c.183.628-.353 1.309-.706 1.636-.742.481-1.513.918-2.307 1.308h8.49v-2.944ZM31.981 33.37c-.733 0-1.278.553-1.509 1.744-.13.684.04 1.408.828 1.408.79 0 1.33-.828 1.5-1.7.136-.672-.03-1.453-.82-1.453Z" fill="#555"/>
</svg>
