<svg width="52" height="45" fill="none" xmlns="http://www.w3.org/2000/svg">
    <path d="M11.589 34.958c.003-.225.075-.444.207-.628a16.485 16.485 0 0 1-4.29-7.598.748.748 0 0 1-.295-1.439 16.14 16.14 0 0 1-.207-2.6c.011-1.486.222-2.965.628-4.396a1.137 1.137 0 0 1-.628-1.03 1.149 1.149 0 0 1 1.15-1.142c.087-.01.175-.01.263 0a16.587 16.587 0 0 1 4.396-5.954c-.2-.287-.308-.63-.308-.98a1.74 1.74 0 0 1 3.14-1.01 16.422 16.422 0 0 1 7.75-2.06.74.74 0 0 1 1.463.043 16.573 16.573 0 0 1 11.876 6.393.74.74 0 0 1 .351-.1.759.759 0 1 1-.753.76.748.748 0 0 1 .163-.452 16.235 16.235 0 0 0-11.662-6.28.735.735 0 0 1-1.425-.044 16.127 16.127 0 0 0-7.606 2.016 1.733 1.733 0 0 1-2.807 1.96A16.39 16.39 0 0 0 8.72 16.25a1.143 1.143 0 0 1-.553 2.142c-.065.003-.13.003-.195 0a16.328 16.328 0 0 0-.584 4.314c.001.841.068 1.681.201 2.512a.754.754 0 0 1 .295 1.45 16.258 16.258 0 0 0 4.195 7.424c.18-.146.398-.236.628-.258a1.142 1.142 0 0 1 .968 1.759 16.21 16.21 0 0 0 17.803 1.256 1.155 1.155 0 1 1 .201.245 16.504 16.504 0 0 1-18.212-1.257 1.143 1.143 0 0 1-1.884-.847l.007-.032Zm23.31-16.196a.754.754 0 0 0-.753-.753.588.588 0 0 0-.182.037 11.467 11.467 0 0 0-6.041-5.903 1.733 1.733 0 1 0-3.366-.829c-.327 0-.66-.044-.992-.044a11.18 11.18 0 0 0-2.984.415 1.149 1.149 0 0 0-2.197.452 1.2 1.2 0 0 0 .062.364 11.53 11.53 0 0 0-4.32 3.768.697.697 0 0 0-.258-.05.747.747 0 0 0-.477 1.325 11.304 11.304 0 0 0-.98 7.416 1.143 1.143 0 0 0 .597 2.123h.056a11.448 11.448 0 0 0 3.373 4.446.717.717 0 0 0-.1.346.754.754 0 0 0 1.312.502 11.303 11.303 0 0 0 10.236.817 1.143 1.143 0 1 0-.176-.27 10.985 10.985 0 0 1-9.903-.823.904.904 0 0 0 .044-.226.754.754 0 0 0-.754-.754.734.734 0 0 0-.458.17 11.136 11.136 0 0 1-3.253-4.27 1.143 1.143 0 0 0-.377-2.224 1.164 1.164 0 0 0-.302.044 10.964 10.964 0 0 1 .968-7.146.67.67 0 0 0 .194.037.753.753 0 0 0 .528-1.293 11.14 11.14 0 0 1 4.188-3.668 1.149 1.149 0 0 0 2.092-.628c.003-.05.003-.1 0-.15a11.05 11.05 0 0 1 2.901-.403c.32 0 .628 0 .942.044v.107a1.733 1.733 0 0 0 3.322.704 11.172 11.172 0 0 1 5.86 5.746.742.742 0 0 0-.29.578.753.753 0 1 0 1.508 0l-.02-.007Zm16.995-.628V28.29h-8.478V18.134h.98a21.146 21.146 0 0 0-2.563-6.418 1.138 1.138 0 0 1-1.237-1.834 21.478 21.478 0 0 0-9.37-7.09 1.143 1.143 0 0 1-2.11-.628v-.082a21.138 21.138 0 0 0-9.42-.37 1.733 1.733 0 0 1-3.247.854A21.408 21.408 0 0 0 8.85 7.251a1.143 1.143 0 0 1-1.526 1.62 21.401 21.401 0 0 0-3.259 5.181.735.735 0 0 1 .289.584.754.754 0 0 1-.754.754.285.285 0 0 1-.069 0 21.157 21.157 0 0 0-1.256 7.297v.999a1.137 1.137 0 0 1 .214 2.204c.29 1.896.836 3.744 1.62 5.495a1.04 1.04 0 0 1 .145-.031.753.753 0 0 1 .49 1.325 21.513 21.513 0 0 0 2.511 3.768 1.734 1.734 0 0 1 2.713 1.438c.002.352-.105.697-.307.986a21.263 21.263 0 0 0 5.545 3.46 1.143 1.143 0 0 1 2.129.572c.006.066.006.134 0 .2a21.28 21.28 0 0 0 6.23.93h.627a.748.748 0 0 1 1.413-.082 21.1 21.1 0 0 0 6.94-1.884 1.145 1.145 0 0 1 1.105-1.438 1.122 1.122 0 0 1 .854.396 21.565 21.565 0 0 0 3.605-2.726 1.752 1.752 0 1 1 .201.239 21.527 21.527 0 0 1-3.63 2.744 1.111 1.111 0 0 1 .032.935 1.142 1.142 0 0 1-1.062.704 1.124 1.124 0 0 1-.98-.565 21.402 21.402 0 0 1-7.014 1.916.748.748 0 0 1-1.229.55.735.735 0 0 1-.247-.45h-.628c-2.143 0-4.274-.318-6.324-.942a1.162 1.162 0 0 1-1.469.54 1.143 1.143 0 0 1-.666-1.338 21.782 21.782 0 0 1-5.652-3.51 1.74 1.74 0 1 1-2.45-2.468 21.548 21.548 0 0 1-2.574-3.806.804.804 0 0 1-.214.044.753.753 0 0 1-.753-.753.741.741 0 0 1 .32-.628 21.592 21.592 0 0 1-1.64-5.558h-.074a1.143 1.143 0 0 1-.145-2.274v-.998a21.522 21.522 0 0 1 1.3-7.392.74.74 0 0 1-.383-.628.76.76 0 0 1 .754-.76.857.857 0 0 1 .182.038 21.854 21.854 0 0 1 3.29-5.237 1.143 1.143 0 0 1 1.57-1.658A21.678 21.678 0 0 1 16.3 2.302a1.882 1.882 0 0 1-.1-.565 1.74 1.74 0 0 1 3.447-.326 21.352 21.352 0 0 1 9.527.383 1.144 1.144 0 1 1 2.166.71 21.667 21.667 0 0 1 9.483 7.165 1.11 1.11 0 0 1 .628-.182 1.143 1.143 0 0 1 .672 2.072 21.54 21.54 0 0 1 2.612 6.575h7.16Zm-7.863 2.299a.943.943 0 1 0 .904-1.256l.032.25a.69.69 0 0 1 .628.692.703.703 0 0 1-1.407 0 .717.717 0 0 1 .446-.628v-.239a.942.942 0 0 0-.603 1.15v.03Zm1.828 1.256h-1.885v5.934h1.885V21.69ZM51.34 24.2a2.619 2.619 0 1 0-5.231 0v3.441h1.884V24.2a.737.737 0 0 1 .731-.803.735.735 0 0 1 .732.803v3.441h1.884V24.2Zm-10.444-1.332h1.501l.685-3.209-1.432-.031-.754 3.24Zm-14.663 4.673 1.74-7.982s-1.3-.132-4.196 3.058l-.05.038c-1.72-3.29-2.845-3.14-2.845-3.14l-1.84 7.975h2.047l.747-3.61 1.256 1.463 1.84-1.464-.753 3.649 2.053.013Zm7.441-2.726a3.561 3.561 0 0 1-1.953 2.45 4.709 4.709 0 0 1-1.576.47 2.807 2.807 0 0 1-2.305-.571 2.135 2.135 0 0 1-.74-1.413 3.486 3.486 0 0 1 .508-2.255 3.687 3.687 0 0 1 1.507-1.363 4.931 4.931 0 0 1 1.664-.49 2.808 2.808 0 0 1 2.261.629c.325.302.545.7.628 1.136.1.447.103.91.006 1.357v.05Zm-1.884-.766a.866.866 0 0 0-.565-.685 1.432 1.432 0 0 0-1.256.183 1.721 1.721 0 0 0-.88 1.664.962.962 0 0 0 1.207.866 1.778 1.778 0 0 0 1.212-.76A1.65 1.65 0 0 0 31.766 24l.025.05Zm2.01 1.702c-.1-.936 1.124-6.167 1.124-6.167h1.884l-.427 2.31a4.574 4.574 0 0 1 1.08-.25 2.814 2.814 0 0 1 2.267.628c.325.302.545.7.628 1.136.11.463.11.945 0 1.407a3.536 3.536 0 0 1-1.947 2.45 4.709 4.709 0 0 1-1.576.47 2.807 2.807 0 0 1-2.305-.571 2.101 2.101 0 0 1-.753-1.463l.025.05Zm1.953-.54a.96.96 0 0 0 1.206.866 1.778 1.778 0 0 0 1.212-.76 1.62 1.62 0 0 0 .289-1.256.843.843 0 0 0-.566-.684 1.426 1.426 0 0 0-1.256.182 1.884 1.884 0 0 0-.684.697v.094a1.726 1.726 0 0 0-.226.81l.025.05Z" fill="#555"/>
</svg>
