<?xml version="1.0" encoding="UTF-8" standalone="no"?>
<!DOCTYPE svg PUBLIC "-//W3C//DTD SVG 1.1//EN" "http://www.w3.org/Graphics/SVG/1.1/DTD/svg11.dtd">
<svg width="100%" height="100%" viewBox="0 0 124 110" version="1.1" xmlns="http://www.w3.org/2000/svg" xmlns:xlink="http://www.w3.org/1999/xlink" xml:space="preserve" xmlns:serif="http://www.serif.com/" style="fill-rule:evenodd;clip-rule:evenodd;stroke-linejoin:round;stroke-miterlimit:2;">
    <g transform="matrix(1,0,0,1,-20,-20.123)">
        <path d="M69.5,124.326C69.94,124.326 70.32,124.666 70.12,125.446L68.1,125.986C68.42,125.026 69.02,124.326 69.5,124.326M70.62,127.606L70.22,127.606C69.72,128.206 69.16,128.686 68.62,128.686C68.06,128.686 67.78,128.346 67.78,127.606C67.78,127.306 67.82,126.986 67.88,126.706L71.14,125.626C71.78,124.106 71.02,123.446 70.12,123.446C68.58,123.446 66.82,126.146 66.82,128.306C66.82,129.326 67.3,129.886 68.06,129.886C68.94,129.866 69.86,129.006 70.62,127.606M70.1,122.726L71.96,121.026L71.96,120.786L70.72,120.786L69.62,122.726L70.1,122.726ZM63.14,124.366L64.22,124.366L62.5,129.086C62.34,129.486 62.56,129.886 62.98,129.886C64.2,129.886 65.66,128.846 66.22,127.366L65.92,127.366C65.48,127.986 64.52,128.666 63.8,128.786L65.38,124.366L67,124.366L67.2,123.686L65.62,123.686L66.22,121.986L65.6,121.986L64.48,123.686L63.14,123.866L63.14,124.366ZM62.02,124.146C62.16,123.706 61.86,123.466 61.64,123.466C60.7,123.466 59.58,124.306 59.12,125.506L59.42,125.506C59.72,125.066 60.24,124.586 60.74,124.506L58.94,129.206C58.78,129.646 59.1,129.886 59.32,129.886C60.22,129.886 61.26,129.026 61.72,127.846L61.4,127.846C61.1,128.286 60.58,128.766 60.08,128.846L62.02,124.146ZM62.2,122.266C62.6,122.266 62.94,121.946 62.94,121.526C62.94,121.126 62.6,120.786 62.2,120.786C61.78,120.786 61.46,121.126 61.46,121.526C61.46,121.926 61.8,122.266 62.2,122.266M53.46,124.766C53.74,124.766 53.9,125.206 53.46,126.166L52.18,129.006C51.94,129.546 52.2,129.886 52.72,129.886C53.04,129.886 53.18,129.806 53.32,129.466L54.58,126.146C55.16,125.446 56.24,124.686 56.7,124.686C57.04,124.686 57,124.966 56.78,125.386L54.86,129.086C54.68,129.446 54.92,129.886 55.34,129.886C56.28,129.886 57.4,129.046 57.86,127.846L57.56,127.846C57.26,128.286 56.74,128.766 56.24,128.846L57.9,125.506C58.12,125.086 58.22,124.686 58.22,124.366C58.22,123.826 57.92,123.466 57.34,123.466C56.52,123.466 55.82,124.386 54.84,125.526L54.84,124.646C54.84,124.026 54.64,123.466 54.08,123.466C53.42,123.466 52.82,124.486 52.36,125.506L52.66,125.506C52.94,125.026 53.22,124.766 53.46,124.766M52.16,124.886C52.38,124.126 52.26,123.446 51.68,123.446C50.94,123.446 50.72,123.946 49.98,125.506L49.98,124.626C49.98,124.006 49.78,123.446 49.22,123.446C48.56,123.446 47.96,124.466 47.5,125.486L47.8,125.486C48.12,125.026 48.42,124.746 48.66,124.746C48.94,124.746 49.1,125.186 48.66,126.146L47.38,128.986C47.14,129.526 47.4,129.866 47.92,129.866C48.24,129.866 48.38,129.786 48.52,129.446L49.78,126.126C50.14,125.686 50.46,125.306 50.86,124.886L52.16,124.886ZM45.22,124.326C45.66,124.326 46.04,124.666 45.84,125.446L43.82,125.986C44.14,125.026 44.74,124.326 45.22,124.326M46.34,127.606L45.94,127.606C45.44,128.206 44.88,128.686 44.34,128.686C43.78,128.686 43.5,128.346 43.5,127.606C43.5,127.306 43.54,126.986 43.6,126.706L46.86,125.626C47.5,124.106 46.74,123.446 45.84,123.446C44.3,123.446 42.54,126.146 42.54,128.306C42.54,129.326 43.02,129.886 43.78,129.886C44.66,129.866 45.58,129.006 46.34,127.606M38.86,124.366L39.94,124.366L38.22,129.086C38.06,129.486 38.28,129.886 38.7,129.886C39.92,129.886 41.38,128.846 41.94,127.366L41.64,127.366C41.2,127.986 40.24,128.666 39.52,128.786L41.1,124.366L42.72,124.366L42.92,123.686L41.34,123.686L41.94,121.986L41.32,121.986L40.2,123.686L38.86,123.866L38.86,124.366ZM33.14,128.026C33.14,126.566 34.76,124.606 35.66,124.606C35.86,124.606 36.06,124.626 36.22,124.686L35.28,127.206C34.74,127.866 33.9,128.666 33.5,128.666C33.28,128.666 33.14,128.466 33.14,128.026M38.1,123.186L37.6,123.146L37.04,123.706L36.94,123.706C34.56,123.706 32.02,126.666 32.02,128.986C32.02,129.526 32.32,129.886 32.9,129.886C33.6,129.886 34.28,128.886 35.04,127.826L35,128.206C34.9,129.286 35.24,129.886 35.8,129.886C36.46,129.886 37.06,128.866 37.52,127.846L37.22,127.846C36.9,128.306 36.6,128.586 36.36,128.586C36.12,128.586 35.94,128.146 36.36,127.186L38.1,123.186ZM33.02,124.886C33.24,124.126 33.12,123.446 32.54,123.446C31.8,123.446 31.58,123.946 30.84,125.506L30.84,124.626C30.84,124.006 30.64,123.446 30.08,123.446C29.42,123.446 28.82,124.466 28.36,125.486L28.66,125.486C28.98,125.026 29.28,124.746 29.5,124.746C29.78,124.746 29.94,125.186 29.5,126.146L28.22,129.006C27.98,129.546 28.24,129.886 28.76,129.886C29.08,129.886 29.22,129.806 29.36,129.466L30.62,126.146C30.98,125.706 31.3,125.326 31.7,124.906L33.02,124.906L33.02,124.886ZM24.66,129.646L24.78,129.286C23.2,128.986 23,128.986 23.64,127.286L24.22,125.686L25.48,125.686C26.26,125.686 26.26,126.026 26.16,126.886L26.6,126.886L27.64,124.046L27.2,124.046C26.82,124.726 26.5,125.246 25.66,125.246L24.4,125.246L25.26,122.906C25.56,122.066 25.7,121.906 26.78,121.906L27.06,121.906C28.16,121.906 28.28,122.206 28.28,123.366L28.72,123.366L29.08,121.426L23.02,121.426L22.9,121.786C24.16,122.046 24.28,122.166 23.7,123.786L22.4,127.266C21.8,128.886 21.56,129.006 20.12,129.266L20,129.646L24.66,129.646ZM54.8,110.606C55.24,110.606 55.62,110.946 55.42,111.706L53.4,112.246C53.74,111.306 54.34,110.606 54.8,110.606M55.92,113.866L55.52,113.866C55.02,114.466 54.46,114.946 53.92,114.946C53.36,114.946 53.08,114.606 53.08,113.866C53.08,113.566 53.12,113.246 53.18,112.966L56.46,111.886C57.1,110.366 56.32,109.706 55.44,109.706C53.9,109.706 52.14,112.406 52.14,114.566C52.14,115.586 52.62,116.146 53.38,116.146C54.26,116.146 55.18,115.286 55.92,113.866M55.4,109.006L57.26,107.306L57.26,107.066L56.02,107.066L54.92,109.006L55.4,109.006ZM48.46,110.646L49.54,110.646L47.82,115.366C47.66,115.766 47.88,116.166 48.3,116.166C49.52,116.166 50.98,115.126 51.54,113.646L51.24,113.646C50.8,114.266 49.84,114.946 49.12,115.066L50.7,110.646L52.32,110.646L52.52,109.966L50.94,109.966L51.54,108.266L50.92,108.266L49.8,109.966L48.46,110.146L48.46,110.646ZM47.34,110.406C47.46,109.966 47.18,109.726 46.94,109.726C46,109.726 44.88,110.586 44.42,111.766L44.72,111.766C45.02,111.326 45.54,110.846 46.04,110.766L44.24,115.466C44.08,115.906 44.4,116.146 44.62,116.146C45.52,116.146 46.56,115.286 47.02,114.106L46.72,114.106C46.42,114.546 45.9,115.026 45.4,115.106L47.34,110.406ZM47.52,108.546C47.92,108.546 48.26,108.206 48.26,107.806C48.26,107.406 47.92,107.066 47.52,107.066C47.1,107.066 46.78,107.406 46.78,107.806C46.78,108.206 47.12,108.546 47.52,108.546M41.74,115.106L44.72,107.186L44.62,107.066L42.56,107.306L42.56,107.546L42.96,107.846C43.32,108.126 43.2,108.386 42.88,109.266L40.6,115.346C40.42,115.706 40.66,116.146 41.08,116.146C42.02,116.146 43.02,115.286 43.48,114.106L43.18,114.106C42.86,114.546 42.22,115.026 41.74,115.106M35.64,114.306C35.64,112.846 37.26,110.886 38.16,110.886C38.36,110.886 38.54,110.906 38.72,110.966L37.78,113.486C37.24,114.146 36.4,114.946 36.02,114.946C35.78,114.946 35.64,114.746 35.64,114.306M40.6,109.466L40.1,109.426L39.54,109.986L39.44,109.986C37.06,109.986 34.52,112.946 34.52,115.266C34.52,115.806 34.82,116.166 35.4,116.166C36.1,116.166 36.78,115.166 37.54,114.106L37.5,114.486C37.4,115.566 37.74,116.166 38.3,116.166C38.96,116.166 39.56,115.146 40.02,114.126L39.72,114.126C39.4,114.586 39.1,114.866 38.86,114.866C38.62,114.866 38.44,114.426 38.86,113.466L40.6,109.466ZM29.06,117.306C29.06,116.686 29.66,116.286 30.52,115.946C30.8,116.086 31.22,116.246 31.8,116.426C32.7,116.726 33.04,116.846 33.04,117.106C33.04,117.686 32.22,118.126 30.72,118.126C29.6,118.126 29.06,117.886 29.06,117.306M31.52,113.486C31.12,113.486 30.98,113.146 30.98,112.786C30.98,111.626 31.54,110.186 32.44,110.186C32.84,110.186 32.98,110.526 32.98,110.886C32.96,112.066 32.4,113.486 31.52,113.486M34.06,116.726C34.06,115.966 33.38,115.706 32.28,115.366C31.34,115.086 30.92,115.006 30.92,114.686C30.92,114.446 31.12,114.146 31.52,113.926C33.08,113.846 34.06,112.446 34.06,111.226C34.06,111.006 34.02,110.806 33.96,110.626L35.02,110.626L35.22,109.946L33.42,109.946C33.18,109.786 32.88,109.706 32.54,109.706C30.9,109.706 29.86,111.146 29.86,112.406C29.86,113.226 30.34,113.786 31.08,113.886C30.32,114.246 29.88,114.626 29.88,115.106C29.88,115.386 29.98,115.586 30.22,115.746C28.46,116.266 27.74,116.906 27.74,117.686C27.74,118.506 28.82,118.846 30.08,118.846C32.26,118.866 34.06,117.706 34.06,116.726M25.94,111.946C26.72,111.946 26.74,112.286 26.62,113.146L27.06,113.146L28.1,110.306L27.66,110.306C27.28,110.986 26.96,111.506 26.12,111.506L24.4,111.506L25.24,109.166C25.54,108.326 25.68,108.166 26.76,108.166L27.52,108.166C28.62,108.166 28.74,108.466 28.74,109.626L29.18,109.626L29.54,107.686L23.02,107.686L22.9,108.046C24.16,108.306 24.28,108.426 23.7,110.046L22.4,113.546C21.8,115.166 21.56,115.286 20.1,115.546L20,115.926L27.24,115.926L28.54,113.866L28.04,113.866C27.2,114.686 26.36,115.446 24.72,115.446C22.8,115.446 22.96,115.346 23.6,113.566L24.2,111.966L25.94,111.966L25.94,111.946ZM26.88,107.066L28.74,105.726L28.74,105.486L27.5,105.486L26.4,107.086L26.88,107.086L26.88,107.066ZM54.58,96.886C55.02,96.886 55.4,97.226 55.2,97.986L53.18,98.526C53.5,97.586 54.1,96.886 54.58,96.886M55.7,100.146L55.3,100.146C54.8,100.746 54.24,101.226 53.7,101.226C53.14,101.226 52.86,100.886 52.86,100.146C52.86,99.846 52.9,99.526 52.96,99.246L56.22,98.166C56.86,96.646 56.08,95.986 55.2,95.986C53.66,95.986 51.9,98.686 51.9,100.846C51.9,101.866 52.38,102.406 53.14,102.406C54.02,102.426 54.94,101.566 55.7,100.146M55.18,95.286L57.04,93.586L57.04,93.346L55.8,93.346L54.7,95.286L55.18,95.286ZM48.22,96.926L49.3,96.926L47.58,101.646C47.42,102.046 47.64,102.446 48.06,102.446C49.28,102.446 50.74,101.406 51.3,99.926L51,99.926C50.56,100.546 49.6,101.226 48.88,101.346L50.46,96.926L52.08,96.926L52.28,96.246L50.7,96.246L51.3,94.546L50.68,94.546L49.56,96.246L48.22,96.426L48.22,96.926ZM47.66,97.446C47.88,96.686 47.76,96.006 47.18,96.006C46.44,96.006 46.22,96.506 45.48,98.066L45.48,97.186C45.48,96.566 45.28,96.006 44.72,96.006C44.06,96.006 43.46,97.026 43,98.046L43.3,98.046C43.62,97.586 43.92,97.306 44.14,97.306C44.42,97.306 44.58,97.746 44.14,98.706L42.86,101.546C42.62,102.086 42.88,102.426 43.4,102.426C43.72,102.426 43.86,102.346 44,102.006L45.26,98.686C45.62,98.246 45.94,97.866 46.34,97.446L47.66,97.446ZM40.7,96.886C41.14,96.886 41.52,97.226 41.32,97.986L39.3,98.526C39.64,97.586 40.22,96.886 40.7,96.886M41.82,100.146L41.42,100.146C40.92,100.746 40.36,101.226 39.82,101.226C39.26,101.226 38.98,100.886 38.98,100.146C38.98,99.846 39.02,99.526 39.08,99.246L42.34,98.166C42.98,96.646 42.22,95.986 41.32,95.986C39.78,95.986 38.02,98.686 38.02,100.846C38.02,101.866 38.5,102.406 39.26,102.406C40.14,102.426 41.06,101.566 41.82,100.146M34.2,101.466C33.88,101.466 33.42,101.166 33.42,100.906C33.42,100.826 33.56,100.466 33.74,100.006L34.26,98.606C34.82,97.926 35.7,97.206 36.18,97.206C36.48,97.206 36.7,97.386 36.7,97.826C36.72,99.126 35.5,101.466 34.2,101.466M37.84,97.326C37.84,96.366 37.6,96.006 36.92,96.006C36.08,96.006 35.3,96.906 34.52,97.986L36.2,93.486L36.1,93.346L34.04,93.586L34.04,93.826L34.44,94.126C34.8,94.406 34.68,94.686 34.36,95.546L32.54,100.306C32.38,100.706 32.2,101.186 32.2,101.306C32.2,101.866 32.96,102.406 33.66,102.406C35.22,102.426 37.84,99.546 37.84,97.326M31.72,96.686C31.84,96.246 31.56,96.006 31.32,96.006C30.38,96.006 29.26,96.866 28.8,98.046L29.1,98.046C29.4,97.606 29.92,97.126 30.42,97.046L28.62,101.746C28.46,102.186 28.78,102.426 29.02,102.426C29.92,102.426 30.96,101.566 31.42,100.386L31.12,100.386C30.82,100.826 30.3,101.306 29.8,101.386L31.72,96.686ZM31.92,94.806C32.32,94.806 32.66,94.466 32.66,94.066C32.66,93.666 32.32,93.326 31.92,93.326C31.5,93.326 31.18,93.666 31.18,94.066C31.18,94.486 31.5,94.806 31.92,94.806M27.32,93.926L23.02,93.926L22.9,94.286C24.16,94.546 24.28,94.666 23.7,96.286L22.4,99.826C21.8,101.446 21.56,101.566 20.12,101.826L20,102.186L26.54,102.186L27.96,99.666L27.46,99.666C26.64,100.566 25.72,101.706 24.26,101.706C23.16,101.706 23,101.506 23.62,99.826L24.9,96.306C25.5,94.686 25.74,94.566 27.2,94.306L27.32,93.926ZM22.9,64.766L22.9,59.106L24.36,59.106L28.1,64.766L31.44,64.766L27.06,58.566C28.5,57.906 29.32,56.646 29.32,54.946C29.32,52.346 27.42,50.766 24.34,50.766L20.06,50.766L20.06,64.766L22.9,64.766ZM24.5,56.746L22.9,56.746L22.9,53.126L24.5,53.126C25.7,53.126 26.4,53.846 26.4,54.906C26.4,56.046 25.7,56.746 24.5,56.746ZM38.88,49.566L43.48,46.866L40.56,46.866L36.3,49.566L38.88,49.566ZM41.7,64.766L41.7,62.406L36.38,62.406L36.38,58.806L40.9,58.806L40.9,56.446L36.38,56.446L36.38,53.126L41.7,53.126L41.7,50.766L33.54,50.766L33.54,64.766L41.7,64.766ZM48.14,64.766L48.14,59.106L49.92,59.106C53,59.106 54.88,57.526 54.88,54.946C54.88,52.346 53,50.766 49.92,50.766L45.3,50.766L45.3,64.766L48.14,64.766ZM50.04,56.746L48.14,56.746L48.14,53.126L50.04,53.126C51.24,53.126 51.96,53.846 51.96,54.906C51.96,56.046 51.24,56.746 50.04,56.746ZM62.94,65.166C66.46,65.166 68.62,62.966 68.62,59.286L68.62,50.766L65.78,50.766L65.78,59.526C65.78,61.406 64.7,62.506 62.96,62.506C61.18,62.506 60.12,61.406 60.12,59.526L60.12,50.766L57.28,50.766L57.28,59.286C57.28,62.966 59.44,65.166 62.94,65.166ZM76.86,64.766C80.08,64.766 82.06,63.206 82.06,60.646C82.06,59.186 81.24,57.986 79.76,57.326C80.74,56.686 81.26,55.706 81.26,54.566C81.26,52.206 79.48,50.766 76.56,50.766L72.44,50.766L72.44,64.766L76.86,64.766ZM76.62,56.286L75.28,56.286L75.28,53.126L76.62,53.126C77.7,53.126 78.34,53.706 78.34,54.686C78.34,55.706 77.7,56.286 76.62,56.286ZM77.02,62.406L75.28,62.406L75.28,58.646L77.02,58.646C78.34,58.646 79.14,59.326 79.14,60.526C79.14,61.706 78.34,62.406 77.02,62.406ZM93.44,64.766L93.44,62.186L88.12,62.186L88.12,50.766L85.28,50.766L85.28,64.766L93.44,64.766ZM99.08,64.766L99.08,50.766L96.24,50.766L96.24,64.766L99.08,64.766ZM117.5,68.246C118.12,68.246 118.52,68.166 118.98,67.986L118.98,65.586C118.68,65.706 118.28,65.746 117.98,65.746C117.08,65.746 116.12,65.386 115.04,64.406L114.2,63.606C115.92,62.246 116.96,60.106 116.96,57.766C116.96,53.766 113.94,50.366 109.54,50.366C105.12,50.366 102.1,53.766 102.1,57.766C102.1,61.766 105.12,65.166 109.54,65.166C110.22,65.166 110.86,65.086 111.46,64.926L113.12,66.406C114.5,67.606 115.94,68.246 117.5,68.246ZM109.54,62.506C106.9,62.506 105.02,60.446 105.02,57.766C105.02,55.086 106.9,53.026 109.54,53.026C112.16,53.026 114.04,55.086 114.04,57.766C114.04,60.446 112.16,62.506 109.54,62.506ZM125.4,65.166C128.92,65.166 131.08,62.966 131.08,59.286L131.08,50.766L128.24,50.766L128.24,59.526C128.24,61.406 127.16,62.506 125.42,62.506C123.64,62.506 122.58,61.406 122.58,59.526L122.58,50.766L119.74,50.766L119.74,59.286C119.74,62.966 121.9,65.166 125.4,65.166ZM143.06,64.766L143.06,62.406L137.74,62.406L137.74,58.806L142.26,58.806L142.26,56.446L137.74,56.446L137.74,53.126L143.06,53.126L143.06,50.766L134.9,50.766L134.9,64.766L143.06,64.766ZM22.9,85.766L22.9,79.806L27.42,79.806L27.42,77.446L22.9,77.446L22.9,74.126L28.22,74.126L28.22,71.766L20.06,71.766L20.06,85.766L22.9,85.766ZM33.86,85.766L33.86,80.106L35.32,80.106L39.06,85.766L42.4,85.766L38.02,79.566C39.46,78.906 40.28,77.646 40.28,75.946C40.28,73.346 38.38,71.766 35.3,71.766L31.02,71.766L31.02,85.766L33.86,85.766ZM35.46,77.746L33.86,77.746L33.86,74.126L35.46,74.126C36.66,74.126 37.36,74.846 37.36,75.906C37.36,77.046 36.66,77.746 35.46,77.746ZM46.36,85.766L47.7,82.126L53.3,82.126L54.64,85.766L57.66,85.766L52.36,71.766L48.64,71.766L43.34,85.766L46.36,85.766ZM52.42,79.706L48.58,79.706L50.5,74.446L52.42,79.706ZM62.96,85.766L62.96,75.646L69.22,85.766L72.86,85.766L72.86,71.766L70.02,71.766L70.02,81.886L63.76,71.766L60.12,71.766L60.12,85.766L62.96,85.766ZM84.68,88.986L84.42,86.086C86.46,85.826 88.14,84.786 89.22,83.306L86.98,81.586C86.18,82.726 84.92,83.506 83.32,83.506C80.68,83.506 78.8,81.446 78.8,78.766C78.8,76.086 80.68,74.026 83.32,74.026C84.92,74.026 86.18,74.806 86.98,75.946L89.22,74.206C87.94,72.506 85.86,71.366 83.32,71.366C78.9,71.366 75.88,74.766 75.88,78.766C75.88,82.326 78.28,85.406 81.92,86.046L82.16,88.986L84.68,88.986ZM93.14,85.766L94.48,82.126L100.08,82.126L101.42,85.766L104.44,85.766L99.14,71.766L95.42,71.766L90.12,85.766L93.14,85.766ZM99.2,79.706L95.36,79.706L97.28,74.446L99.2,79.706ZM109.74,85.766L109.74,71.766L106.9,71.766L106.9,85.766L109.74,85.766ZM117.88,86.166C120.46,86.166 122.5,84.586 122.54,81.946C122.54,77.146 116.18,77.866 116.18,75.326C116.18,74.486 116.84,73.846 117.84,73.846C118.9,73.846 119.82,74.546 120.64,75.606L122.72,73.726C121.52,72.306 119.92,71.366 117.82,71.366C115.14,71.366 113.3,73.206 113.3,75.426C113.3,80.166 119.66,79.466 119.66,82.046C119.66,83.046 118.98,83.646 117.86,83.646C116.72,83.646 115.6,83.006 114.76,81.926L112.7,83.826C113.94,85.306 115.52,86.166 117.88,86.166ZM133.98,85.766L133.98,83.406L128.66,83.406L128.66,79.806L133.18,79.806L133.18,77.446L128.66,77.446L128.66,74.126L133.98,74.126L133.98,71.766L125.82,71.766L125.82,85.766L133.98,85.766Z" style="fill:rgb(30,30,30);fill-rule:nonzero;"/>
    </g>
    <g transform="matrix(1,0,0,1,-20,-20.123)">
        <path d="M42.816,37.765C43.03,37.551 43.244,37.323 43.458,37.089L43.451,37.089C43.853,36.635 44.241,36.199 44.708,35.803C44.85,35.673 44.986,35.563 45.116,35.472C45.155,35.433 45.155,35.355 45.194,35.322C45.006,35.394 44.896,35.55 44.701,35.622C44.663,35.622 44.624,35.582 44.663,35.543C44.799,35.446 44.935,35.343 45.064,35.238L45.038,35.238C45,35.238 45,35.2 45,35.16C44.508,35.082 44.132,35.427 43.795,35.725C43.718,35.765 43.646,35.686 43.608,35.686C43.044,35.875 42.629,36.368 42.066,36.589L42.066,36.511C41.839,36.589 41.619,36.726 41.386,36.778C41.049,36.856 40.744,36.817 40.446,36.817C39.986,36.862 39.533,36.966 39.079,37.063C39.066,37.07 39.053,37.07 39.04,37.076C38.795,37.14 38.56,37.236 38.34,37.362L38.315,37.375C38.295,37.401 38.276,37.421 38.263,37.44C38.192,37.533 38.104,37.61 38.003,37.668C37.771,37.784 37.583,37.992 37.382,38.155C37.369,38.168 37.343,38.175 37.324,38.175C37.123,38.369 36.922,38.564 36.714,38.752C36.702,38.765 36.644,38.772 36.598,38.765C36.598,38.765 36.605,38.765 36.605,38.759L36.625,38.719L36.721,38.564C36.761,38.505 36.793,38.447 36.831,38.389C36.883,38.311 36.935,38.233 36.993,38.161C37.006,38.141 37.006,38.122 36.993,38.109C36.979,38.096 36.961,38.089 36.942,38.089C37.129,37.908 37.35,37.752 37.576,37.616L37.576,37.609C37.55,37.616 37.512,37.596 37.531,37.57C37.557,37.538 37.576,37.499 37.596,37.466C37.602,37.453 37.602,37.446 37.609,37.434C37.602,37.421 37.589,37.414 37.583,37.401C37.525,37.441 37.46,37.479 37.408,37.525C37.318,37.603 37.246,37.771 37.11,37.771C37.103,37.771 37.071,37.771 37.052,37.765C37.038,37.766 37.023,37.761 37.012,37.752C37.012,37.745 37.012,37.745 37.019,37.745C37.019,37.745 37.026,37.739 37.026,37.732C37.026,37.732 37.026,37.726 37.032,37.726L37.052,37.694C37.058,37.681 37.065,37.674 37.072,37.661C37.078,37.655 37.078,37.641 37.084,37.635C37.091,37.622 37.104,37.603 37.11,37.583C37.116,37.57 37.123,37.563 37.13,37.551C37.149,37.525 37.162,37.492 37.181,37.466C37.187,37.452 37.196,37.438 37.207,37.427C37.22,37.401 37.233,37.382 37.246,37.356C37.266,37.323 37.246,37.297 37.22,37.291C37.291,37.198 37.379,37.121 37.48,37.063L37.466,37.063C37.609,36.992 37.758,36.901 37.9,36.823C37.919,36.802 37.941,36.785 37.965,36.771C37.753,36.842 37.552,36.942 37.369,37.07C37.186,37.198 37.317,37.09 37.304,37.102C37.304,37.102 37.265,37.115 37.214,37.07C37.207,37.063 37.207,37.057 37.207,37.044C37.246,36.966 37.357,36.934 37.434,36.856C37.473,36.856 37.505,36.856 37.505,36.895C38.71,35.953 40.368,36.18 41.761,35.686C41.871,35.608 41.988,35.537 42.098,35.459C42.286,35.381 42.435,35.193 42.662,35.082C42.96,34.855 43.187,34.595 43.303,34.212C43.303,34.172 43.264,34.134 43.264,34.134C42.789,34.643 42.227,35.065 41.606,35.381C40.816,35.797 39.947,35.725 39.125,35.836C39.164,35.758 39.241,35.758 39.313,35.758C39.313,35.641 39.383,35.608 39.462,35.53L39.572,35.53C39.611,35.53 39.611,35.453 39.649,35.453C39.727,35.453 39.837,35.413 39.799,35.413C39.682,35.264 39.462,35.524 39.274,35.413C39.344,35.336 39.313,35.225 39.384,35.186L39.533,35.186C39.533,35.108 39.611,35.036 39.611,35.036C40.174,34.699 40.705,34.433 41.231,34.134C41.12,34.134 41.042,34.251 40.932,34.173C41.01,34.173 40.932,34.063 41.01,34.063C41.424,33.952 41.761,33.725 42.176,33.569C42.026,33.569 41.91,33.686 41.761,33.569C41.839,33.529 41.871,33.459 41.988,33.459L41.988,33.348C41.988,33.309 42.027,33.309 42.066,33.309C42.026,33.309 41.988,33.27 41.988,33.27C42.027,33.192 42.137,33.231 42.215,33.16C42.175,33.16 42.105,33.16 42.105,33.12C42.215,32.971 42.403,32.932 42.591,32.893C42.551,32.815 42.441,32.893 42.441,32.815C42.441,32.776 42.481,32.776 42.519,32.776L42.442,32.776C42.364,32.737 42.402,32.659 42.402,32.626C42.629,32.361 42.629,32.023 42.74,31.724C42.7,31.724 42.662,31.724 42.662,31.685C42.286,32.101 41.684,32.25 41.12,32.4L40.932,32.4C40.723,32.484 40.487,32.47 40.291,32.36C40.141,32.283 40.064,32.172 39.915,32.062C39.62,31.875 39.304,31.723 38.975,31.607C38.041,31.301 37.062,31.16 36.08,31.191C36.495,30.964 36.948,30.945 37.395,30.815C38.036,30.626 38.639,30.399 39.313,30.438C39.203,30.398 39.047,30.438 38.937,30.438C38.412,30.398 37.881,30.548 37.317,30.665C36.942,30.743 36.605,30.893 36.222,30.965C35.996,31.042 35.886,31.263 35.62,31.23L35.62,31.113C35.996,30.659 36.45,30.211 37.052,30.172C37.732,30.062 38.367,30.172 39.047,30.25C39.533,30.289 39.987,30.399 40.479,30.516C40.666,30.516 40.705,30.815 40.854,30.854C41.081,30.932 41.308,30.854 41.534,31.003C41.534,30.925 41.496,30.853 41.534,30.776C41.684,30.626 41.871,30.815 42.02,30.736C42.325,30.548 41.755,30.211 41.606,29.944C41.606,29.905 41.645,29.866 41.645,29.866C41.943,30.133 42.169,30.431 42.545,30.62C42.733,30.698 43.187,30.808 43.109,30.58C42.921,30.165 42.545,29.827 42.241,29.45L42.241,29.301C42.163,29.301 42.163,29.262 42.131,29.223L42.131,29.073C41.981,28.996 42.014,28.846 41.943,28.736C41.826,28.548 41.903,28.281 41.826,28.054C41.758,27.844 41.708,27.629 41.677,27.411C41.56,26.768 41.411,26.203 41.34,25.599C41.262,24.884 41.755,24.313 42.092,23.676C42.357,23.221 42.655,22.773 43.148,22.468C43.258,22.013 43.562,21.636 43.86,21.26C44.158,20.89 44.664,20.669 45.02,20.506C45.347,20.36 45.682,20.232 46.024,20.123L20,20.123L20,40.123L38.463,40.123C39.182,39.603 39.895,39.363 40.899,38.863C41.365,38.629 42.447,38.129 42.816,37.765M37.025,35.063C36.947,35.063 36.798,35.102 36.837,35.023C36.876,34.835 37.135,34.835 37.29,34.757C37.368,34.719 37.478,34.647 37.556,34.68C37.634,34.79 37.744,34.757 37.822,34.829C37.588,35.063 37.29,34.946 37.025,35.063M31.265,34.231C31.265,34.231 31.227,34.192 31.227,34.153C31.691,33.553 32.094,32.91 32.432,32.231C32.924,31.964 33.326,31.581 33.714,31.171C34.356,30.49 35.029,29.886 35.82,29.509C36.118,29.392 36.5,29.431 36.798,29.548C36.688,29.698 36.5,29.658 36.345,29.775C36.305,29.775 36.267,29.775 36.228,29.736C36.267,29.697 36.267,29.658 36.267,29.619C35.891,30.035 35.367,30.224 35.062,30.717C34.835,31.094 34.686,31.587 34.2,31.698C34.051,31.737 34.24,31.588 34.161,31.62C32.995,32.341 32.173,33.212 31.266,34.231M34.388,31.737C34.349,31.815 34.31,31.821 34.278,31.887C34.248,31.953 34.195,32.006 34.129,32.036C34.09,32.036 34.051,32.036 34.051,31.996C34.091,31.847 34.201,31.698 34.349,31.659C34.389,31.666 34.389,31.705 34.389,31.737M36.137,37.395C36.113,37.436 36.082,37.473 36.047,37.505C36.092,37.512 36.124,37.538 36.098,37.564C36.014,37.642 35.93,37.726 35.813,37.765C35.807,37.765 35.781,37.771 35.755,37.771C35.711,37.818 35.663,37.862 35.612,37.901C35.567,37.941 35.36,37.914 35.425,37.856C35.521,37.771 35.614,37.682 35.703,37.59C35.755,37.538 35.813,37.492 35.859,37.44C35.885,37.408 35.904,37.382 35.936,37.356C35.969,37.336 36.17,37.316 36.137,37.395M35.463,37.083C35.457,37.083 35.457,37.083 35.457,37.089C35.314,37.187 35.178,37.291 35.029,37.375C34.867,37.466 34.699,37.538 34.531,37.622C34.531,37.622 34.531,37.616 34.524,37.616C34.511,37.596 34.485,37.59 34.459,37.603C34.321,37.682 34.194,37.78 34.084,37.895C34.064,37.909 34.046,37.927 34.032,37.947L33.98,37.999L33.973,38.005L33.973,38.012C33.944,38.041 33.916,38.071 33.889,38.102C33.869,38.122 33.863,38.142 33.837,38.155C33.812,38.168 33.747,38.168 33.753,38.129L33.753,38.122C33.733,38.136 33.711,38.147 33.688,38.155C33.669,38.168 33.65,38.175 33.63,38.187C33.624,38.181 33.61,38.181 33.604,38.181C33.598,38.181 33.584,38.181 33.578,38.187C33.533,38.227 33.488,38.259 33.442,38.304C33.365,38.376 33.293,38.454 33.222,38.538C33.222,38.538 33.222,38.544 33.216,38.544C33.216,38.551 33.209,38.551 33.209,38.557L33.196,38.57C33.19,38.577 33.19,38.583 33.183,38.583L33.177,38.59C33.171,38.604 33.162,38.618 33.151,38.629C33.142,38.637 33.13,38.642 33.118,38.642C33.112,38.635 33.105,38.629 33.105,38.622C33.099,38.616 33.099,38.609 33.092,38.602C33.08,38.583 33.073,38.564 33.06,38.544L33.06,38.538C33.06,38.531 33.054,38.525 33.054,38.518L33.17,38.382L33.177,38.376C33.19,38.363 33.203,38.343 33.216,38.33C33.235,38.304 33.261,38.278 33.28,38.252L33.3,38.22C33.339,38.168 33.378,38.116 33.416,38.057L33.416,38.051C33.423,38.044 33.429,38.038 33.429,38.025C33.449,38.001 33.466,37.974 33.481,37.947L33.52,37.869L33.52,37.862L33.527,37.856C33.527,37.849 33.533,37.849 33.533,37.843C33.546,37.81 33.559,37.784 33.572,37.752L33.572,37.745L33.578,37.719C33.585,37.707 33.585,37.694 33.591,37.681L33.591,37.674C33.598,37.654 33.598,37.635 33.604,37.616C33.604,37.609 33.604,37.596 33.598,37.59C33.639,37.517 33.689,37.449 33.747,37.388C33.74,37.388 33.734,37.395 33.727,37.395C33.676,37.427 33.637,37.479 33.585,37.518C33.545,37.551 33.468,37.498 33.52,37.46C33.552,37.434 33.578,37.408 33.604,37.382C33.604,37.382 33.604,37.375 33.611,37.375C33.676,37.317 33.734,37.239 33.805,37.187C33.845,37.158 33.884,37.128 33.922,37.096C33.928,37.089 33.935,37.083 33.942,37.083C33.967,37.048 33.995,37.016 34.025,36.985C34.055,36.954 34.032,36.985 34.032,36.979C34.395,36.629 34.997,36.648 35.476,36.427C35.664,36.349 35.891,36.466 36.079,36.427C36.189,36.427 36.306,36.427 36.416,36.505C36.086,36.68 35.774,36.888 35.463,37.083M35.82,31.276C35.859,31.276 35.936,31.276 35.936,31.315C35.942,31.498 35.812,31.659 35.632,31.692C35.936,31.77 36.234,31.77 36.532,31.919C36.494,31.997 36.422,31.958 36.383,31.958C36.571,32.068 36.798,31.997 36.986,32.146C36.869,32.256 36.759,32.146 36.649,32.146C37.815,32.484 39.059,32.75 40.037,33.504C39.207,33.92 38.34,34.108 37.439,34.296C37.329,34.296 37.251,34.296 37.141,34.257C37.141,34.297 37.141,34.367 37.102,34.367C36.953,34.367 36.837,34.367 36.727,34.446C36.571,34.53 36.345,34.569 36.234,34.459C36.196,34.419 36.351,34.459 36.384,34.381L36.085,34.381C36.047,34.381 36.047,34.341 36.047,34.303C35.859,34.342 35.632,34.413 35.444,34.453C35.178,34.53 34.952,34.719 34.654,34.79C34.239,34.94 33.902,35.284 33.449,35.433C33.409,35.433 33.409,35.394 33.409,35.355C33.449,35.245 33.598,35.205 33.676,35.089C33.676,35.049 33.676,35.011 33.636,35.011C33.935,34.595 34.349,34.368 34.731,34.03L34.731,33.913C34.841,33.763 35.029,33.686 35.107,33.497C35.147,33.387 35.295,33.231 35.483,33.16C35.444,33.12 35.373,33.12 35.373,33.05C35.223,33.05 35.068,33.127 34.919,33.01C34.984,32.946 35.065,32.899 35.153,32.874C35.119,32.868 35.088,32.85 35.068,32.822C35.029,32.744 35.14,32.659 35.256,32.633C35.406,32.594 35.593,32.594 35.71,32.484C35.444,32.445 35.146,32.562 34.88,32.406C35.068,31.919 35.373,31.503 35.82,31.276Z" style="fill:rgb(0,0,145);fill-rule:nonzero;"/>
    </g>
    <g transform="matrix(1,0,0,1,-20,-20.123)">
        <path d="M74.948,20.149L53.518,20.149C53.518,20.149 53.558,20.155 53.719,20.239C53.894,20.331 54.121,20.454 54.257,20.526C54.535,20.669 54.801,20.851 54.976,21.131C55.054,21.241 55.164,21.469 55.092,21.618C55.015,21.807 54.976,22.112 54.788,22.184C54.561,22.301 54.263,22.301 53.998,22.262C53.848,22.262 53.7,22.222 53.544,22.184C54.108,22.411 54.639,22.678 55.014,23.204C55.054,23.283 55.203,23.315 55.352,23.315C55.39,23.315 55.39,23.393 55.39,23.425C55.313,23.504 55.241,23.543 55.28,23.653L55.39,23.653C55.578,23.575 55.54,23.198 55.805,23.315C55.993,23.425 56.071,23.692 55.955,23.881C55.815,24.02 55.663,24.146 55.501,24.258C55.462,24.343 55.462,24.44 55.501,24.525C55.611,24.675 55.65,24.824 55.688,24.98C55.805,25.246 55.838,25.545 55.954,25.812C56.104,26.378 56.252,26.943 56.22,27.515C56.22,27.815 56.07,28.081 56.18,28.387C56.259,28.686 56.446,28.913 56.595,29.18C56.745,29.408 56.893,29.557 57.01,29.785C57.237,30.162 57.651,30.539 57.463,30.994C57.353,31.261 56.939,31.222 56.673,31.371C56.446,31.56 56.634,31.865 56.751,32.054C56.939,32.392 56.524,32.62 56.259,32.737C56.336,32.854 56.485,32.815 56.524,32.887C56.563,33.075 56.751,33.185 56.634,33.38C56.485,33.608 56.032,33.718 56.259,34.063C56.408,34.33 56.31,34.623 56.219,34.895C56.109,35.233 55.805,35.383 55.539,35.461C55.308,35.532 55.064,35.545 54.827,35.5C54.749,35.46 54.677,35.422 54.6,35.422C53.959,35.344 53.317,35.162 52.683,35.162C52.495,35.201 52.307,35.233 52.158,35.312C51.989,35.435 51.834,35.572 51.704,35.714L51.698,35.721C51.672,35.753 51.64,35.779 51.614,35.812C51.601,35.832 51.581,35.851 51.568,35.87C51.555,35.883 51.548,35.896 51.536,35.91C51.427,36.048 51.328,36.194 51.238,36.345C51.233,36.355 51.226,36.364 51.218,36.371C51.212,36.391 51.199,36.404 51.186,36.423C51.068,36.645 50.972,36.878 50.901,37.119C50.641,37.984 50.759,38.725 50.94,38.907C50.992,38.959 52.184,39.33 53.013,39.7C53.402,39.876 53.673,40.006 53.9,40.149L74.942,40.149L74.942,20.149L74.948,20.149Z" style="fill:rgb(225,0,15);fill-rule:nonzero;"/>
    </g>
    <g transform="matrix(1,0,0,1,-20,-20.123)">
        <path d="M54.794,27.404C54.944,27.444 55.17,27.444 55.17,27.521C55.092,27.819 54.645,27.896 54.419,28.201L54.302,28.201C54.192,28.278 54.224,28.466 54.114,28.466C54.004,28.427 53.888,28.466 53.777,28.505C53.927,28.654 54.114,28.77 54.341,28.731C54.38,28.731 54.451,28.809 54.451,28.881C54.451,28.881 54.49,28.881 54.529,28.841C54.568,28.841 54.607,28.841 54.607,28.881L54.607,29.029C54.497,29.178 54.302,29.107 54.153,29.139C54.458,29.217 54.756,29.217 55.021,29.139C55.248,29.061 55.021,28.686 55.171,28.499C55.092,28.499 55.171,28.382 55.092,28.382C55.17,28.304 55.242,28.194 55.319,28.155C55.397,28.155 55.507,28.116 55.546,28.039C55.546,27.961 55.396,27.929 55.429,27.851C55.656,27.702 55.844,27.476 55.766,27.249C55.727,27.133 55.429,27.133 55.241,27.061C55.054,26.991 54.827,27.061 54.601,27.101C54.412,27.101 54.224,27.217 54.037,27.249C53.771,27.327 53.544,27.476 53.324,27.624C53.59,27.514 53.849,27.476 54.154,27.398C54.38,27.404 54.568,27.353 54.794,27.404" style="fill:rgb(128,128,128);fill-rule:nonzero;"/>
    </g>
</svg>
