<svg viewBox="0 0 114 89" xmlns="http://www.w3.org/2000/svg">
    <g fill="#000091">
        <path d="M10.6 10.8c.1 0 .1-.1.2-.1 0 0 .1 0 .1-.1-.1 0-.2.1-.3.2h-.1zm-.2.1c0-.1 0-.1 0 0z"/>
        <path d="M10.5 10.8c0-.1 0-.1 0 0-.1 0-.1 0 0 0zm4.6-1.7c-.1 0 0 0 0 0z"/>
        <path d="M14.9 9.3s-.1.1-.2.1c.1-.1.2-.1.2-.1-.3-.1-.5.1-.7.2h-.1c-.2.1-.3.2-.5.3-.1.1-.3.2-.4.3-.1 0-.1 0-.2.1-.1 0-.2.1-.2.1h-.5c-.2 0-.5.1-.7.1h-.1c-.1 0-.3.1-.4.2 0 .1-.1.1-.2.1s-.2.1-.3.2l-.1.1c-.1.1-.2.2-.4.3H10l.1-.1V11l.1-.1.3-.3v.1h.1c.4-.3 1-.4 1.5-.5.3 0 .7-.1 1-.2 0 0 .1 0 .1-.1 0 0 .1 0 .1-.1.1 0 .1-.1.2-.1s.1-.1.2-.1c.2-.1.3-.3.4-.5-.3.3-.6.6-1 .7-.3.2-.7.2-1.1.2h-.3c0-.1 0-.1.1-.1h-.1v-.2h.1v-.1l.6-.3c.1-.1.3-.1.4-.2h-.2c.1 0 .3-.1.4-.2.1 0 .2-.1.3-.1h-.2v-.9h.1c.1-.1.2-.1.3-.1h-.1v-.1c.1-.1.1-.2.2-.4 0-.1 0-.1.1-.2-.2.2-.6.3-.9.4h-.5c-.1 0-.1-.1-.1-.1l-.1-.1c-.4-.3-.6-.3-.8-.4-.6-.2-1.1-.3-1.7-.2.2-.1.3-.1.5-.2.1 0 .2 0 .3-.1.1 0 .1 0 .2-.1.3-.1.6-.2 1-.2h-.3c-.3 0-.5 0-.8.1h-.2c-.1 0-.2.1-.3.1s-.2.1-.3.1-.1 0-.1.1c-.1 0-.1.1-.2.1.2-.3.4-.5.8-.6.3-.1.7 0 1 0h.2c.3 0 .5.1.8.2.1 0 .1.1.1.1l.1.1h.2c.1 0 .2 0 .2.1v-.1c.1-.1.1 0 .2 0h.1c.1-.1 0-.2-.1-.3 0-.1-.1-.2-.1-.2.1 0 .1 0 .2.1s.2.2.4.3c.1 0 .4.1.3 0-.1-.2-.2-.3-.4-.5l-.2-.2v-.1h-.1v-.1c-.1 0-.1-.1-.1-.1v-.9c0-.1-.1-.3-.1-.4 0-.2-.1-.5-.1-.7 0-.3.1-.6.3-.9.1-.1.1-.2.1-.3.2-.3.3-.5.6-.7.1-.3.2-.5.4-.7s.5-.3.7-.4c.4-.2.7-.3.7-.3H0v12h11c.3-.2.6-.3.9-.5.2-.1.3-.2.5-.2 0 0 .1 0 .1-.1.5-.2 1-.4 1.1-.6l.4-.4c.2-.3.5-.5.8-.8.1-.1.2-.1.1-.1 0-.1 0 0 0 0zM10.3 9c0-.1-.1-.1-.2 0-.1-.1 0-.1.1-.2h.1s.1-.1.1 0c0 0 .1 0 .1.1h.1c-.1.1-.2.1-.3.1zm.4 1.6c0-.1 0-.1 0 0 .1-.1.1-.1 0 0zM9.5 6.8c0 .1-.1.2-.2.2h.2c.2 0 .3 0 .4.1h.1c.1 0 .1.1.2.1H10c.1 0 .2.1.3.1.6.1 1.2.3 1.7.7-.5.3-1 .4-1.6.5h-.2v.1H10c-.1.1-.3.1-.3 0l-.1-.1h-.4c-.1 0-.1.1-.2.1s-.2.1-.3.1c-.1.1-.2.1-.3.2s-.3.2-.4.2c0-.1.1-.1.1-.1l.1-.1c.1-.1.2-.3.4-.4.1 0 .1-.1.2-.1v-.1l.1-.1c.1-.1.1-.1.1-.2.1 0 .1-.1.2-.3h-.1c-.1 0-.1.1-.2 0 .1 0 .1 0 .2-.1H9l.1-.1h.1c.1 0 .1-.1.2-.1h-.2c-.1.1-.2.1-.3 0 .1-.3.3-.6.6-.6zm-1.1.3c0-.1.1-.2.2-.1-.1.1-.1.1-.2.1zm-1 .2c.3-.2.6-.4.8-.7.4-.4.8-.7 1.2-1 .2-.1.4-.1.6 0 0 .1 0 .1-.1.1 0 .1-.1.1-.1.1h-.1v-.1l-.3.3c-.1.1-.3.2-.4.4 0 0 0 .1-.1.1-.1.1-.2.3-.4.4-.7.4-1.2.9-1.8 1.5.3-.4.5-.7.7-1.1zm2.2 3.1c0 .1-.1.2-.2.2l-.1.1c0 .1-.1 0-.1 0l.2-.2c.1-.1.1-.1.2-.1-.1-.1-.1-.1 0 0-.1-.1.1-.1 0 0zm-.2-.3c-.1 0-.1 0-.2.1s-.2.1-.3.2c-.1 0-.1.1-.2.1 0 0-.1 0-.1.1-.1 0-.2.1-.2.2l-.1.1h-.2L8 11h-.1s0-.1.1-.1l.1-.1h.1l.1-.1.1-.1.1-.1c0-.5.2-.6.4-.6.1 0 .2-.1.4-.1h.6c-.2.1-.4.2-.5.3z"/>
    </g>
    <path d="M33 0H20.1l.1.1c.1.1.2.1.3.2.2.1.3.2.4.4 0 .1.1.2.1.3 0 0 0 .2-.1.2-.1.1-.3.1-.5 0h-.3c.3.1.7.3.9.6 0 0 .1.1.2.1V2l-.1.1h.1c.1 0 .1-.3.2-.2s.2.2.1.3-.2.2-.3.2v.2c.1.1.1.2.1.3.1.2.1.3.2.5.1.3.2.7.2 1 0 .2-.1.3 0 .5 0 .2.2.3.2.5.1.1.2.2.2.4.1.2.4.5.3.7s-.3.1-.5.2c-.1.1 0 .3 0 .4.1.2-.1.3-.3.4 0 .1.1 0 .2.1 0 .1.1.2.1.3-.1.1-.4.2-.2.4.1.2 0 .3 0 .5-.1.2-.2.3-.4.3h-.5c-.4 0-.8-.1-1.2-.1-.1 0-.2 0-.3.1s-.2.2-.3.2 0 0-.1.1-.1.2-.2.3c-.1.1-.1.3-.2.4-.2.5-.1 1 0 1.1 0 0 .7.3 1.2.5.2.1.4.2.5.3H33z" fill="#e1000f"/>
    <path d="M20.9 4.4c.1 0 .2 0 .2.1 0 .2-.3.2-.5.4h-.1c-.1 0 0 .2-.1.2h-.2c.1.1.2.2.3.1 0 0 .1 0 .1.1v.1c-.1.1-.2 0-.3.1h.5s0-.3.1-.4V5l.1-.1s.1 0 .1-.1l-.1-.1c.1-.1.2-.2.2-.4 0-.1-.2-.1-.3-.1h-.4c-.1 0-.2.1-.3.1-.2 0-.3.1-.4.2.2-.1.3-.1.5-.1.3 0 .4-.1.6 0" fill="gray"/>
    <path d="M0 26.7h1.7v-6l1.9 3.1h1.2l1.9-3.1v6h1.7v-8.4H6.2l-2.1 3.5L2 18.3H0zm10.9 0h1.7v-8.4h-1.7zm4.2 0h1.7v-6.1l3.8 6.1h2.2v-8.4H21v6.1l-3.8-6.1H15zm10.2 0H27v-8.4h-1.7zm3.5-1.1c.7.9 1.7 1.4 3.1 1.4 1.5 0 2.8-.9 2.8-2.5 0-2.9-3.8-2.4-3.8-4 0-.5.4-.9 1-.9s1.2.4 1.7 1.1l1.2-1.1c-.7-.9-1.7-1.4-2.9-1.4-1.6 0-2.7 1.1-2.7 2.4 0 2.8 3.8 2.4 3.8 4 0 .6-.4 1-1.1 1s-1.4-.4-1.9-1zm6.9-5.7h2.6v6.9H40v-6.9h2.6v-1.5h-6.9zM46 17.6h1.6L46.2 16h-1.8zm-1.7 9.1h4.9v-1.4H46v-2.2h2.7v-1.4H46v-2h3.2v-1.4h-4.9zm7 0H53v-3.4h.9l2.2 3.4h2L55.5 23c.9-.4 1.4-1.2 1.4-2.2 0-1.6-1.1-2.5-3-2.5h-2.6zm2.7-6.9c.7 0 1.1.4 1.1 1.1S54.7 22 54 22h-1v-2.2zm5.4 6.9h4.9v-1.4h-3.2v-2.2h2.7v-1.4h-2.7v-2h3.2v-1.4h-4.9zM0 38.7h3.3c2.7 0 4.5-1.9 4.5-4.2S6 30.3 3.3 30.3H0zm3.3-6.8C4.9 31.9 6 33 6 34.5s-1.1 2.7-2.7 2.7H1.7v-5.3zm11.2 3.7c0 1.1-.6 1.8-1.7 1.8s-1.7-.7-1.7-1.8v-5.3H9.4v5.1c0 2.2 1.3 3.5 3.4 3.5s3.4-1.3 3.4-3.5v-5.1h-1.7zm6.5-3.7h2.6v6.9h1.7v-6.9h2.6v-1.5H21zm8.5 6.8h1.7v-3.4h.9l2.2 3.4h2L33.7 35c.9-.4 1.4-1.2 1.4-2.2 0-1.6-1.1-2.5-3-2.5h-2.6zm2.7-6.9c.7 0 1.1.4 1.1 1.1s-.4 1.1-1.1 1.1h-1v-2.2zm4.7 6.9h1.8l.8-2.2h3.4l.8 2.2h1.8l-3.2-8.4h-2.2zm3.2-3.6 1.2-3.2 1.2 3.2zm5.1-4.8 3.2 8.4h2.2l3.2-8.4H52l-2.5 6.6-2.5-6.6zm8.3 8.4h1.8l.8-2.2h3.4l.8 2.2h1.8l-3.2-8.4h-2.2zm3.1-3.6 1.2-3.2 1.2 3.2zm7 3.6h1.7v-8.4h-1.7zm4.2 0h4.9v-1.5h-3.2v-6.9h-1.7zm7.6 2 1.4-3.6h-1.7L74 40.7zM0 50.7h3.3c2.7 0 4.5-1.9 4.5-4.2S6 42.3 3.3 42.3H0zm3.3-6.8C4.9 43.9 6 45 6 46.5s-1.1 2.7-2.7 2.7H1.7v-5.3zm6.3 6.8h4.9v-1.4h-3.2v-2.2H14v-1.4h-2.7v-2h3.2v-1.4H9.6zm10.3 0h4.9v-1.5h-3.2v-6.9h-1.7zm6.9-4.9.2-3.5h-1.7l.2 3.5zm2.3 4.9H34v-1.4h-3.2v-2.2h2.7v-1.4h-2.7v-2H34v-1.4h-4.9zm7 0h1.7v-6l1.9 3.1h1.2l1.9-3.1v6h1.7v-8.4h-2.1l-2.1 3.5-2.1-3.5h-2.1zm10.9 0h1.7v-3.4h1.1c1.8 0 3-.9 3-2.5s-1.1-2.5-3-2.5H47zm2.8-6.9c.7 0 1.2.4 1.2 1.1s-.4 1.1-1.2 1.1h-1.1v-2.2zm4.5 6.9h4.9v-1.5H56v-6.9h-1.7zm10.1-8.6c-2.7 0-4.5 2-4.5 4.4s1.8 4.4 4.5 4.4c2.6 0 4.5-2 4.5-4.4-.1-2.4-1.9-4.4-4.5-4.4zm0 7.3c-1.6 0-2.7-1.2-2.7-2.8s1.1-2.8 2.7-2.8 2.7 1.2 2.7 2.8c0 1.5-1.2 2.8-2.7 2.8zm6.2 1.3h1.7v-8.4h-1.7zM0 62.7h4.9v-1.4H1.7v-2.2h2.7v-1.4H1.7v-2h3.2v-1.4H0zm6.4-6.8H9v6.9h1.7v-6.9h2.6v-1.5H6.4zm11.8 6.8h3.3c2.7 0 4.5-1.9 4.5-4.2s-1.8-4.2-4.5-4.2h-3.3zm3.4-6.8c1.6 0 2.7 1.2 2.7 2.7s-1.1 2.7-2.7 2.7H20V56h1.6zm6.2 6.8h4.9v-1.4h-3.2v-2.2h2.7v-1.4h-2.7v-2h3.2v-1.4h-4.9zm10.4 0h4.9v-1.5h-3.2v-6.9h-1.7zm6.9-4.9.2-3.5h-1.7l.2 3.5zm2.2 4.9H49v-8.4h-1.7zm4.2 0h1.7v-6.1l3.8 6.1h2.2v-8.4h-1.7v6.1l-3.8-6.1h-2.2zm9.4-1.1c.7.9 1.7 1.4 3.1 1.4 1.5 0 2.8-.9 2.8-2.5 0-2.9-3.8-2.4-3.8-4 0-.5.4-.9 1-.9s1.2.4 1.7 1.1l1.2-1.1c-.7-.9-1.7-1.4-2.9-1.4-1.6 0-2.7 1.1-2.7 2.4 0 2.8 3.8 2.4 3.8 4 0 .6-.4 1-1.1 1s-1.4-.4-1.9-1zm7.9 1.1h4.9v-1.4h-3.2v-2.2h2.7v-1.4h-2.7v-2h3.2v-1.4h-4.9zm7.1 0h1.7v-3.4h.9l2.2 3.4h2L80.1 59c.9-.4 1.4-1.2 1.4-2.2 0-1.6-1.1-2.5-3-2.5h-2.6zm2.6-6.9c.7 0 1.1.4 1.1 1.1s-.4 1.1-1.1 1.1h-1v-2.2zm4.2.1h2.6v6.9H87v-6.9h2.6v-1.5h-6.9zm8.6 6.8H93v-8.4h-1.7zm8-8.6c-2.7 0-4.5 2-4.5 4.4s1.8 4.4 4.5 4.4c2.6 0 4.5-2 4.5-4.4-.1-2.4-1.9-4.4-4.5-4.4zm0 7.3c-1.6 0-2.7-1.2-2.7-2.8s1.1-2.8 2.7-2.8 2.7 1.2 2.7 2.8c0 1.5-1.2 2.8-2.7 2.8zm6.2 1.3h1.7v-6.1l3.8 6.1h2.2v-8.4h-1.7v6.1l-3.8-6.1h-2.2zM7.6 67.4c0 .2-.2.4-.4.4-.3 0-.4-.2-.4-.4s.2-.4.4-.4.4.2.4.4zm14.6-.3-1.1 1h-.3l.7-1.2h.7zm-.5 2.8c.4-.9-.1-1.3-.6-1.3-.9 0-2 1.6-2 2.9 0 .6.3.9.7.9.5 0 1.1-.5 1.5-1.4h-.2c-.3.4-.6.6-1 .6-.3 0-.5-.2-.5-.6 0-.2 0-.4.1-.5zm-1-.8c.3 0 .5.2.4.7l-1.2.3c.2-.6.6-1 .8-1zm-3.8 0h.6l-1 2.8c-.1.2 0 .5.3.5.7 0 1.6-.6 1.9-1.5h-.2c-.3.4-.8.8-1.3.9l.9-2.7h1l.1-.4h-.9l.4-1h-.4l-.7 1-.8.1v.3zm-.6-.5c.3 0 .4.4.3.9h-.8c-.2.3-.4.5-.6.7l-.8 2c-.1.2-.2.3-.4.3-.3 0-.5-.2-.3-.5l.8-1.7c.3-.6.2-.8 0-.8-.1 0-.3.2-.5.4h-.2c.3-.6.6-1.2 1-1.2.3 0 .5.3.5.7v.5-.1c.4-.9.6-1.2 1-1.2zm-2.9 1.3c.4-.9-.1-1.3-.6-1.3-.9 0-2 1.6-2 2.9 0 .6.3.9.7.9.5 0 1.1-.5 1.5-1.4h-.2c-.3.4-.6.6-1 .6-.3 0-.5-.2-.5-.6 0-.2 0-.4.1-.5zm-1-.8c.3 0 .5.2.4.7l-1.2.3c.2-.6.5-1 .8-1zm-2.2-.5c-.5 0-1 .5-1.4 1.2l1-2.7-.1-.1-1.2.1v.1l.2.2c.2.2.1.3 0 .8l-1.1 2.9c-.1.2-.2.5-.2.6 0 .3.5.7.9.7.9 0 2.5-1.7 2.5-3-.1-.6-.2-.8-.6-.8zm-1.7 3.3c-.2 0-.5-.2-.5-.3 0 0 .1-.3.2-.5l.3-.8c.3-.4.9-.8 1.2-.8.2 0 .3.1.3.4 0 .6-.7 2-1.5 2zM7 69c.1-.3-.1-.4-.2-.4-.6 0-1.2.5-1.5 1.2h.2c.2-.3.5-.6.8-.6L5.2 72c-.1.3.1.4.2.4.5 0 1.2-.5 1.4-1.2h-.1c-.2.3-.5.6-.8.6zm-2.6-1.7H1.8l-.1.2c.8.2.8.2.5 1.2l-.8 2.1c-.4 1-.5 1-1.4 1.2v.3h3.9l.9-1.5h-.3l-.1.1c-.5.5-1 1.1-1.8 1.1-.7 0-.8-.1-.4-1.1l.8-2.1c.4-1 .5-1 1.4-1.2zm.8 7.1-1.1.8h-.3l.7-1h.7zM13 80l1.8-4.8-.1-.1-1.2.1v.1l.2.2c.2.2.2.3 0 .8v.1L12.3 80c-.1.2 0 .5.3.5.6 0 1.2-.5 1.4-1.2h-.2c-.1.4-.5.7-.8.7zm8.2-3.6 1.1-1v-.1h-.7l-.6 1.1zm.7 1.7c.4-.9-.1-1.3-.6-1.3-.9 0-2 1.6-2 2.9 0 .6.3.9.7.9.5 0 1.1-.5 1.5-1.4h-.2c-.3.4-.6.6-1 .6-.3 0-.5-.2-.5-.6 0-.2 0-.4.1-.5zm-1-.8c.3 0 .5.2.4.7l-1.3.3c.2-.5.6-1 .9-1zm-3.2.1h-.6v-.3l.8-.1.7-1h.4l-.4 1h.9l-.1.4h-1l-.9 2.6c.4-.1 1-.5 1.3-.9h.2c-.3.9-1.2 1.5-1.9 1.5-.3 0-.4-.2-.3-.5zm-1.3-.2c.1-.3-.1-.4-.2-.4-.6 0-1.2.5-1.5 1.2h.2c.2-.3.5-.6.8-.6l-1.1 2.8c-.1.3.1.4.2.4.5 0 1.2-.5 1.4-1.2H16c-.2.3-.5.6-.8.6zm.6-1.5c0 .2-.2.4-.4.4s-.4-.2-.4-.4.2-.4.4-.4c.2-.1.4.1.4.4zm-5.7 4.2c-.1 0-.3-.3 0-.8l1-2.4H12l-.3.3h-.1c-1.4 0-3 1.8-3 3.2 0 .3.2.5.5.5.4 0 .8-.5 1.2-1.1l.1-.1v.2c-.1.6.1 1 .5 1s.8-.6 1-1.2h-.2c-.1.2-.2.4-.4.4zm-.6-.8c-.3.4-.8.9-1.1.9-.1 0-.2-.1-.2-.4 0-.9 1-2.1 1.5-2.1h.3zm-1.6-2.2h-1c-.1-.1-.3-.1-.5-.1-1 0-1.6.9-1.6 1.6 0 .5.3.8.7.9-.5.2-.7.4-.7.7 0 .2.1.3.2.4-1.1.3-1.5.7-1.5 1.2s.6.7 1.4.7c1.3 0 2.4-.7 2.4-1.3 0-.5-.4-.6-1.1-.8-.1 0-.1 0-.2-.1-.4-.1-.6-.1-.6-.3 0-.1.1-.3.4-.5.9 0 1.5-.9 1.5-1.6 0-.1 0-.3-.1-.4H9zm-2 3.9c.5.2.7.3.7.4 0 .3-.5.6-1.4.6-.7 0-1-.1-1-.5s.4-.6.9-.8c.2.1.4.2.8.3zm-.2-1.7c-.2 0-.3-.2-.3-.4 0-.7.3-1.6.9-1.6.2 0 .3.2.3.4 0 .7-.4 1.6-.9 1.6zm-3.3-1c.4 0 .4.3.4.8h.3l.6-1.7h-.3c-.2.4-.4.7-.9.7h-1l.5-1.4c.2-.5.3-.6.9-.6h.5c.7 0 .7.2.7.9h.3l.2-1.2h-4l-.1.2c.8.2.9.2.5 1.2l-.8 2.1c-.4 1-.5 1-1.4 1.2v.2h4.3l.8-1.2h-.3c-.5.5-1 .9-2 .9-1.1 0-1.1-.1-.7-.9 0-.1 0-.1.1-.2l.4-1zm27.6 5.5-1.1 1h-.3l.7-1.2h.7zm-.5 2.8c.4-.9-.1-1.3-.6-1.3-.9 0-2 1.6-2 2.9 0 .6.3.9.7.9.5 0 1.1-.5 1.5-1.4h-.2c-.3.4-.6.6-1 .6-.3 0-.5-.2-.5-.6 0-.2 0-.4.1-.5zm-1-.8c.3 0 .5.2.4.7l-1.2.3c.2-.6.5-1 .8-1zm-3.8 0h.6l-1 2.8c-.1.2 0 .5.3.5.7 0 1.6-.6 1.9-1.5h-.2c-.3.4-.8.8-1.3.9l.9-2.7h1l.1-.4h-.9l.4-1h-.4l-.7 1-.8.1v.3zm-.9-.5c.1 0 .3.1.2.4L24 88.3c.3 0 .6-.3.8-.6h.2c-.3.7-.9 1.2-1.4 1.2-.1 0-.3-.1-.2-.4l1.1-2.8c-.3 0-.6.3-.8.6h-.2c.3-.7.9-1.2 1.5-1.2zm.3-.8c.2 0 .4-.2.4-.4s-.2-.4-.4-.4c-.3 0-.4.2-.4.4s.2.4.4.4zm-5.2 2.4c.3-.6.2-.8 0-.8-.1 0-.3.2-.5.4h-.2c.3-.6.6-1.2 1-1.2.3 0 .5.3.5.7v.5l.2-.2c.5-.6.9-1 1.3-1 .3 0 .5.2.5.5 0 .2-.1.4-.2.7l-1 2c.3 0 .6-.3.8-.6h.2c-.3.7-.9 1.2-1.5 1.2-.3 0-.4-.3-.3-.5l1.2-2.2c.1-.3.2-.4 0-.4-.3 0-.9.5-1.3.9l-.8 2c-.1.2-.2.3-.4.3-.3 0-.5-.2-.3-.5zm-.8-.8c.1-.5.1-.9-.3-.9s-.6.3-1 1.2v.1-.5c0-.4-.1-.7-.5-.7s-.8.6-1 1.2h.2c.2-.3.4-.4.5-.4.2 0 .3.3 0 .8l-.8 1.7c-.1.3 0 .5.3.5.2 0 .3 0 .4-.3l.8-2c.2-.3.4-.5.6-.7zm-3.2.5c.4-.9-.1-1.3-.6-1.3-.9 0-2 1.6-2 2.9 0 .6.3.9.7.9.5 0 1.1-.5 1.5-1.4h-.2c-.3.4-.6.6-1 .6-.3 0-.5-.2-.5-.6 0-.2 0-.4.1-.5zm-1-.8c.3 0 .5.2.4.7l-1.2.3c.2-.6.5-1 .8-1zm-3.1 0h-.6v-.3l.8-.1.7-1h.4l-.4 1h.9l-.1.4h-1l-.9 2.7c.4-.1 1-.5 1.3-.9h.2c-.3.9-1.2 1.5-1.9 1.5-.3 0-.4-.2-.3-.5zm-2.2 2.5c-.1 0-.3-.3 0-.8l1-2.4h-.3l-.3.3h-.1c-1.4 0-3 1.8-3 3.2 0 .3.2.5.5.5.4 0 .8-.5 1.2-1.1l.2-.1v.2c-.1.6.1 1 .5 1s.8-.6 1-1.2h-.2c-.2.3-.3.4-.5.4zm-.6-.8c-.3.4-.8.9-1.1.9-.1 0-.2-.1-.2-.4 0-.9 1-2.1 1.5-2.1h.3zm-1.4-1.4c.1-.4.1-.9-.3-.9s-.6.3-1 1.2v.1-.5c0-.4-.1-.8-.5-.8s-.8.6-1 1.2h.2c.2-.3.4-.4.5-.4.2 0 .3.3 0 .8l-.8 1.7c-.1.3 0 .5.3.5.2 0 .3 0 .4-.3l.8-2c.2-.3.4-.5.6-.7zm-4.9 2.6-.1.2H0l.1-.2c.9-.2 1-.2 1.4-1.2l.8-2.1c.3-1 .3-1-.5-1.2l.1-.2h3.6L5.2 85H5c0-.7-.1-.9-.7-.9h-.2c-.6 0-.7.1-.9.6l-.5 1.4h.8c.5 0 .7-.3.9-.7h.3L4 87.1h-.3c.1-.5.1-.7-.4-.7h-.8l-.3 1c-.4.9-.3 1 .7 1.1z" fill="#161616"/>
</svg>
