<svg xmlns="http://www.w3.org/2000/svg" width="82" height="45" fill="none">
    <path fill="#555" fill-rule="evenodd" d="M43.565.066s4.051 5.475 9.975 7.278a3.64 3.64 0 0 0 0-1.796c-.08-.245.471.106.686 1.409.03.197.048.395.051.595a12.09 12.09 0 0 0 5.946 0l.142-.044c.11.888.406 1.742.87 2.507-5.344 1.267-6.603 8.633-6.603 8.633-1-4.585.467-7.38 2.168-9.027a7.476 7.476 0 0 1-3.037.336 3.117 3.117 0 0 1-.595.883 1.053 1.053 0 0 1-.73.413 1.006 1.006 0 0 1-1.157-.832.939.939 0 0 1 .106-.559 1.87 1.87 0 0 1 .314-.398c-2.537-1.029-5.395-3.679-8.136-9.398ZM32.863 11.35C41.466 7.855 43.948 2.686 42.897 0c0 0 1.095 4.015-10.73 9.296-9.71 4.347-7.527 13.607-7.527 13.607s-.38-8.066 8.223-11.552Zm12.673-.409c1.591-.854 3.263-.27 4.08-.708-1.054-.532-.507-1.12-.92-1.529-.791-.781-2.197 1.022-3.16 2.238Zm25.78 4.282c-24.598 10.22-60.4 9.344-60.4 9.344 44.668 4.558 60.4-9.344 60.4-9.344ZM6.181 34.397l-2.08 2.956h-2.11l2.369-3.285-3.467-.989h4.179l5.409-7.493h2.354l1.43 11.764H12.22l-.343-2.884v-.138H6.23l-.048.069Zm.898-1.31h4.683l-.566-5.37-.029-.434-3.898 5.544-.19.26Zm16.133-.73c-.414.268-.87.463-1.35.576l1.46 4.42h-2.004l-1.267-4.215h-1.7l-1.26 4.212h-1.88l2.85-9.72h2.96c1.808 0 3.461.73 3.461 2.518a2.704 2.704 0 0 1-1.27 2.209Zm-.456-2.055c.069-1.03-1.212-1.362-2.245-1.362h-.924l-1.24 4.198 3.01-1.117c1.249-.537 1.362-1.033 1.406-1.723l-.007.004Zm10.19 5.675c-1.533 1.267-3.219 1.376-4.858 1.376h-3.843l2.865-9.72h3.369c2.777 0 4.504 1.406 4.504 3.884a5.98 5.98 0 0 1-2.03 4.457l-.007.003Zm.073-4.434c0-1.825-1.029-2.555-3.033-2.555H28.65l-2.09 7.072h1.547c1.03 0 2.289-.065 3.413-1.018a4.674 4.674 0 0 0 1.508-3.504l-.008.004Zm5.11 1.42h3.778l.394-1.322h-3.785l.788-2.671h4.38l.413-1.336h-6.34l-2.865 9.716h4.38l3.284-1.343H37.23l.901-3.044Zm13.308 1.19-3.858-6.541h-1.686l-2.884 9.72h1.869l2.153-7.253 5.015 8.37L55.41 27.63h-1.825l-2.146 6.522Zm6.767-4.052 5.011 8.351 3.365-10.818h-1.825l-2.124 6.515-3.869-6.537h-1.686l-2.883 9.72h1.868l2.143-7.231Zm23.272-.854.427-1.46a6.07 6.07 0 0 0-2.734-.65c-2.365 0-3.668 1.42-3.668 2.836 0 1.252.956 1.968 1.788 2.588.577.456 1.197.949 1.197 1.763 0 .894-.478 1.613-3.237 1.683h-7.6l.91-3.055h3.777l.394-1.322h-3.79l.789-2.671h4.38l.408-1.336H68.18l-2.883 9.72h11.227c2.657 0 3.975-1.555 3.975-3.056 0-1.182-.76-1.825-1.395-2.354l-.365-.277c-.591-.427-1.288-.975-1.288-1.734 0-.76.653-1.485 1.85-1.485a3.489 3.489 0 0 1 2.183.806l-.007.004ZM8.92 39.507c.424 0 .842.1 1.223.288l.186-.69a4.815 4.815 0 0 0-1.37-.204c-2.087 0-3.116 1.478-3.116 2.763a2.015 2.015 0 0 0 1.489 2c.292.081.595.12.898.117a2.86 2.86 0 0 0 .836-.113l.759-.781c-.44.187-.912.288-1.39.295a1.825 1.825 0 0 1-1.23-.401 1.548 1.548 0 0 1-.49-1.175 2.139 2.139 0 0 1 2.205-2.1Zm4.606 2.223c0 .868-.595 2.004-1.825 2.004a1.278 1.278 0 0 1-1.383-1.373c0-1.047.73-2.026 1.854-2.026a1.307 1.307 0 0 1 1.354 1.395Zm-.763-.073a.999.999 0 0 0-.135-.54.592.592 0 0 0-.507-.263c-.61 0-1.073.803-1.073 1.547a.93.93 0 0 0 .178.606.628.628 0 0 0 .475.215c.694-.007 1.062-.934 1.062-1.565Zm3.694-1.322c-.172.004-.343.03-.508.08l-.536.519.139-.518h-.763l-.873 3.248h.76l.697-2.58c.206-.112.434-.18.668-.198a.481.481 0 0 1 .544.482 2.32 2.32 0 0 1-.106.537l-.471 1.766h.73l.536-1.989a2.27 2.27 0 0 0 .092-.525.77.77 0 0 0-.278-.617.934.934 0 0 0-.631-.205Zm1.788 1.026a.949.949 0 0 0 .544.81c.27.175.43.307.43.537a.549.549 0 0 1-.609.507 1.42 1.42 0 0 1-.843-.336l-.179.632c.322.142.67.218 1.022.222.873 0 1.376-.492 1.376-1.069 0-.456-.284-.653-.59-.861-.238-.165-.366-.263-.366-.49a.517.517 0 0 1 .577-.46c.27.008.529.112.73.293l.164-.599a2.273 2.273 0 0 0-.967-.212c-.905 0-1.289.533-1.289 1.026Zm5.625.164a2.562 2.562 0 0 1-.066.508h-2.237a1.302 1.302 0 0 0-.018.197.902.902 0 0 0 1.003.992 2.82 2.82 0 0 0 1.022-.211l-.642.657a2.72 2.72 0 0 1-.617.073c-.97 0-1.555-.533-1.555-1.438a1.891 1.891 0 0 1 1.862-1.968 1.133 1.133 0 0 1 1.248 1.19Zm-.73.066a.895.895 0 0 0-.102-.526.528.528 0 0 0-.475-.23.818.818 0 0 0-.438.124 1.14 1.14 0 0 0-.456.632h1.47Zm2.898-2.303a.386.386 0 0 0-.405-.365.364.364 0 1 0 .405.365Zm-1.953 4.38h.748l.88-3.249h-.73l-.898 3.249Zm1.781 0h.767l1.237-4.643h-.73l-1.274 4.643Zm8.852-2.814a2.98 2.98 0 0 1-.891 2.139c-.672.605-1.409.66-2.128.66h-1.686l1.255-4.66h1.46c1.241-.004 2 .663 2 1.857l-.01.004Zm-.858 0c0-.873-.453-1.238-1.329-1.238h-.558l-.916 3.395h.678a2.026 2.026 0 0 0 1.497-.49c.421-.447.65-1.042.639-1.656l-.011-.011Zm4.537-1.916-1.402.547-.153.544 1.409-.544.146-.547Zm-1.387 4.259c.35-.007.697-.079 1.022-.212l-.632.686c-.203.046-.411.07-.62.073-.975 0-1.563-.536-1.563-1.46a1.892 1.892 0 0 1 1.87-1.974 1.136 1.136 0 0 1 1.255 1.193 2.562 2.562 0 0 1-.066.508h-2.245a1.1 1.1 0 0 0-.021.2.908.908 0 0 0 1.01.997l-.01-.011Zm-.88-1.639h1.478a.912.912 0 0 0-.102-.53.532.532 0 0 0-.478-.23.862.862 0 0 0-.438.125c-.222.155-.38.384-.45.646l-.01-.01Zm5.968-.058a2.34 2.34 0 0 1-.81 1.708 2.04 2.04 0 0 1-1.413.51c-.19 0-.38-.022-.566-.065L38.944 45h-.76l1.267-4.614h.752l-.135.497.526-.497c.135-.044.277-.069.42-.073.737 0 1.095.552 1.095 1.198l-.011-.011Zm-.778.084a.807.807 0 0 0-.15-.522.658.658 0 0 0-.525-.23c-.218.011-.43.072-.62.179l-.563 2.098c.138.05.284.075.431.073 1.022.011 1.438-1.01 1.438-1.587l-.01-.011Zm4.745-1.008-.587 2.223a2.35 2.35 0 0 0-.106.624.73.73 0 0 0 .025.227h-.73a.9.9 0 0 1-.022-.22 1.5 1.5 0 0 1 .022-.255l-.551.496a1.32 1.32 0 0 1-.423.059 1.196 1.196 0 0 1-.438-.066 1.03 1.03 0 0 1-.661-1.095 2.288 2.288 0 0 1 2.267-2.263c.42.003.836.099 1.215.281l-.01-.01Zm-.836.336a1.27 1.27 0 0 0-.445-.08c-.93 0-1.416 1.025-1.416 1.69a.73.73 0 0 0 .139.474.685.685 0 0 0 .518.208c.224 0 .443-.064.631-.186.022-.099.03-.106.04-.16l.533-1.946Zm3.537-.602c-.123.002-.246.02-.365.055l-.606.594.154-.584h-.76l-.883 3.264h.767l.697-2.555c.181-.108.387-.167.598-.172.227.003.448.073.635.2l.194-.73a1.11 1.11 0 0 0-.435-.061l.004-.011Zm2.033-.73-.84.274-.145.525h-.084l-.475.555h.42l-.445 1.657a1.907 1.907 0 0 0-.08.456.668.668 0 0 0 .73.668c.123-.004.246-.023.364-.058l.519-.53a.582.582 0 0 1-.088 0c-.12.023-.242.037-.365.04-.197 0-.383-.072-.383-.302.01-.144.036-.286.08-.424l.413-1.518h.671l.15-.555h-.654l.212-.788Zm3.701 1.916c-.005.171-.027.34-.066.507h-2.248a1.338 1.338 0 0 0-.018.201.905.905 0 0 0 1.01.997 2.86 2.86 0 0 0 1.023-.212l-.635.682c-.203.047-.41.07-.617.073-.978 0-1.562-.536-1.562-1.46a1.892 1.892 0 0 1 1.868-1.974 1.14 1.14 0 0 1 1.256 1.193l-.01-.007Zm-.73.066a.938.938 0 0 0-.098-.53.537.537 0 0 0-.479-.23.839.839 0 0 0-.438.125c-.223.15-.386.375-.46.635h1.475Zm5.475-1.26a1.987 1.987 0 0 0-.515.084l-.595.577a.69.69 0 0 0-.452-.595 1.065 1.065 0 0 0-.398-.073c-.167.01-.333.04-.493.091l-.544.533.14-.532h-.756l-.884 3.284h.756l.697-2.554c.195-.121.417-.192.646-.205a.441.441 0 0 1 .496.449c-.01.161-.041.32-.09.475l-.5 1.85h.77l.496-1.869c.066-.215.106-.436.12-.66.199-.146.436-.228.683-.238a.463.463 0 0 1 .525.464 2.17 2.17 0 0 1-.091.489l-.486 1.825h.756l.518-1.902c.063-.207.101-.422.114-.638a.807.807 0 0 0-.902-.847l-.011-.008Zm4.657 1.194a2.48 2.48 0 0 1-.065.507h-2.249a1.325 1.325 0 0 0-.018.201.908.908 0 0 0 1.011.997c.35-.007.697-.08 1.022-.212l-.635.682c-.203.047-.41.071-.617.073-.974 0-1.562-.536-1.562-1.46a1.894 1.894 0 0 1 1.869-1.974 1.14 1.14 0 0 1 1.255 1.193l-.01-.007Zm-.73.066a.912.912 0 0 0-.102-.53.536.536 0 0 0-.478-.23.85.85 0 0 0-.438.125c-.224.15-.387.375-.46.635h1.478Zm3.508-1.26c-.173.005-.345.03-.511.077l-.54.522.142-.522h-.766l-.876 3.263h.762l.698-2.588c.207-.112.436-.18.671-.197a.482.482 0 0 1 .548.482 2.205 2.205 0 0 1-.11.54l-.47 1.763h.73l.54-1.993c.05-.172.08-.35.09-.529a.782.782 0 0 0-.277-.62.957.957 0 0 0-.613-.19l-.018-.008Zm2.72 2.877c-.202 0-.388-.073-.388-.303a1.77 1.77 0 0 1 .08-.424l.413-1.518h.672l.15-.555h-.65l.211-.8-.84.275-.145.525h-.066l-.475.555h.42l-.445 1.657a1.907 1.907 0 0 0-.08.456.668.668 0 0 0 .73.668c.123-.004.246-.023.365-.058l.518-.53a.534.534 0 0 1-.084 0 2.405 2.405 0 0 1-.369.059l-.018-.007Zm4.164-2.555-.603 2.19a2.513 2.513 0 0 0-.105.624.858.858 0 0 0 .025.226h-.73a.9.9 0 0 1-.022-.219c0-.086.008-.171.022-.255l-.522.481c-.136.044-.28.064-.423.059a1.212 1.212 0 0 1-.438-.066 1.022 1.022 0 0 1-.653-1.095 2.277 2.277 0 0 1 2.255-2.256c.421.008.835.11 1.212.3l-.018.01Zm-.836.332a1.306 1.306 0 0 0-.442-.077c-.927 0-1.409 1.019-1.409 1.683a.73.73 0 0 0 .139.474.675.675 0 0 0 .515.205c.222 0 .44-.065.627-.186.022-.099.03-.106.04-.157l.53-1.942ZM73.8 43.67h.766l1.238-4.642h-.73L73.8 43.67Z" clip-rule="evenodd"/>
</svg>
