<svg xmlns="http://www.w3.org/2000/svg" width="100" height="35" fill="none">
    <g clip-path="url(#a)">
        <path fill="#5B12EB" fill-rule="evenodd" d="M1.332.152H15.86c8.399 0 15.206 6.808 15.206 15.207v3.612c0 8.398-6.807 15.207-15.205 15.207H1.332A1.333 1.333 0 0 1 0 32.846V1.484C0 .75.597.152 1.332.152m4.46 15.86c0 7.196 8.73 11.04 8.73 11.04s8.733-3.844 8.733-11.04a8.72 8.72 0 0 0-8.733-8.733c-4.832 0-8.73 3.9-8.73 8.733m10.873 2.141c1.155-1.207 1.155-3.076 0-4.228-1.152-1.155-3.075-1.155-4.227 0-1.155 1.152-1.155 3.076 0 4.228 1.151 1.155 3.074 1.155 4.227 0" clip-rule="evenodd"/>
        <path fill="#000" d="M39.683 26.305h.33V24.64h.641c.688 0 1.111-.387 1.111-.971s-.423-.982-1.111-.982h-.971zm.977-3.328c.475 0 .759.258.759.681s-.284.693-.76.693h-.646v-1.375zm1.801 3.328h.305v-3.877h-.305zm2.015.072c.362 0 .714-.156.935-.45v.378h.3V24.52c0-.573-.392-.924-.992-.924-.45 0-.806.191-1.028.496l.232.181a.93.93 0 0 1 .786-.398c.408 0 .702.227.702.646v.243l-.93.155c-.548.094-.847.362-.847.755 0 .429.336.702.842.702Zm-.532-.708c0-.26.191-.45.604-.523l.863-.144v.594a1.01 1.01 0 0 1-.9.516c-.35 0-.568-.191-.568-.444Zm2.876-.186c0 .636.34.873.873.873.165 0 .294-.02.414-.062v-.279a1.1 1.1 0 0 1-.382.057c-.352 0-.594-.114-.594-.59v-1.509h.977V23.7h-.977v-.651h-.31v.65h-.492v.274h.492zm4.218.392-.233-.186a1.04 1.04 0 0 1-.863.439c-.64 0-1.09-.481-1.09-1.142v-.062h2.104a1 1 0 0 0 .02-.217c0-.614-.444-1.111-1.142-1.111-.78 0-1.298.6-1.298 1.406 0 .759.553 1.405 1.406 1.405.475 0 .858-.206 1.096-.532m-1.21-2.01c.506 0 .822.361.837.816h-1.783c.098-.512.46-.816.945-.816zm1.608-.165v.273h.49v2.33h.311v-2.33h.977V23.7h-.977v-.352c0-.408.233-.64.569-.64.165 0 .294.046.408.129l.135-.26a1.05 1.05 0 0 0-.553-.149c-.517 0-.87.367-.87.925v.346h-.49Zm3.34-.104c-.832 0-1.395.661-1.395 1.406s.563 1.405 1.396 1.405c.832 0 1.4-.661 1.4-1.405 0-.745-.563-1.406-1.4-1.406Zm.006 2.522c-.636 0-1.085-.522-1.085-1.116s.45-1.117 1.085-1.117c.636 0 1.07.517 1.07 1.117s-.455 1.116-1.07 1.116m2.168.186h.305v-1.866c.196-.326.428-.501.785-.501.094 0 .16.016.238.036v-.294a.8.8 0 0 0-.216-.03c-.351 0-.594.154-.806.423v-.371h-.305v2.604zm2.019 0h.304v-1.871c.176-.33.445-.548.837-.548.424 0 .708.274.708.78v1.639h.305v-1.649q0-.11-.016-.212c.216-.377.485-.559.847-.559.424 0 .713.274.713.78v1.639h.3v-1.649c0-.687-.403-1.06-.971-1.06-.45 0-.745.218-.967.56-.15-.368-.475-.56-.879-.56-.403 0-.667.176-.879.45v-.346h-.304v2.605zm7.223-.43-.232-.185a1.04 1.04 0 0 1-.863.439c-.64 0-1.09-.481-1.09-1.142v-.062h2.103a1 1 0 0 0 .02-.217c0-.614-.444-1.111-1.141-1.111-.78 0-1.298.6-1.298 1.406 0 .759.553 1.405 1.406 1.405.475 0 .857-.206 1.096-.532Zm-1.21-2.01c.507 0 .823.362.838.817h-1.783c.098-.512.46-.816.945-.816Zm3.115 1.138c0 .759.532 1.405 1.344 1.405.408 0 .755-.17.998-.475v.372h.304v-3.877h-.304v1.643a1.24 1.24 0 0 0-.998-.475c-.812 0-1.344.646-1.344 1.406Zm.32 0c0-.615.435-1.117 1.05-1.117.397 0 .754.186.97.543v1.147a1.11 1.11 0 0 1-.97.543c-.615 0-1.05-.502-1.05-1.116m5.598.873-.233-.186a1.04 1.04 0 0 1-.863.439c-.64 0-1.09-.481-1.09-1.142v-.062h2.104a1 1 0 0 0 .02-.217c0-.614-.444-1.111-1.142-1.111-.78 0-1.297.6-1.297 1.406 0 .759.553 1.405 1.405 1.405.476 0 .858-.206 1.096-.532m-1.21-2.01c.507 0 .822.361.837.816H71.86c.098-.512.46-.816.946-.816Zm3.357 2.439h.305v-3.877h-.305zm1.42-2.295.492-1.323h-.352l-.418 1.323h.28zm1.476-1.132a.23.23 0 1 0 0-.46c-.129 0-.238.104-.238.227 0 .135.108.233.238.233m-.155 3.426h.304v-2.605h-.304zm1.327 0h.305v-1.871c.201-.336.475-.547.889-.547.455 0 .76.294.76.832v1.587h.304v-1.598c0-.718-.429-1.111-1.023-1.111-.408 0-.702.175-.93.46v-.357h-.305zm4.387-.186c-.64 0-1.09-.502-1.09-1.116s.45-1.117 1.086-1.117c.361 0 .661.171.847.435l.243-.192a1.33 1.33 0 0 0-1.09-.532c-.843 0-1.4.646-1.4 1.406s.558 1.405 1.4 1.405c.47 0 .852-.212 1.09-.532l-.243-.191a1.01 1.01 0 0 1-.843.434m1.77.186h.305v-3.877h-.305zm3.198-1.106c0 .59-.33.92-.811.92s-.817-.33-.817-.92v-1.498h-.304v1.493c0 .775.45 1.214 1.122 1.214s1.111-.439 1.111-1.214V23.7h-.3v1.498Zm.949.765c.226.29.547.444.934.444.476 0 .833-.31.833-.759 0-.879-1.339-.672-1.339-1.349 0-.238.181-.439.507-.439.238 0 .449.119.594.336l.227-.18a1.01 1.01 0 0 0-.827-.42c-.481 0-.801.327-.801.703 0 .92 1.338.698 1.338 1.36 0 .268-.196.485-.537.485-.28 0-.506-.119-.703-.367l-.227.186Zm2.71-3.085a.23.23 0 1 0 0-.46.235.235 0 0 0-.237.227c0 .135.108.233.237.233m-.155 3.426h.305v-2.605h-.305zm2.48-2.708c-.832 0-1.395.661-1.395 1.406s.563 1.405 1.395 1.405 1.4-.66 1.4-1.405-.563-1.406-1.4-1.406m.005 2.522c-.636 0-1.085-.522-1.085-1.116s.45-1.117 1.085-1.117c.637 0 1.07.517 1.07 1.117s-.455 1.116-1.07 1.116m2.168.186h.305v-1.871c.202-.336.475-.547.89-.547.454 0 .758.294.758.832v1.587H100v-1.598c0-.718-.429-1.111-1.023-1.111-.408 0-.702.175-.93.46v-.357h-.305z"/>
        <path fill="#000" fill-rule="evenodd" d="M52.925 16.707c2.59 0 4.37-2.002 4.37-4.359 0-2.356-1.767-4.359-4.37-4.359s-4.383 2.003-4.383 4.36c0 2.356 1.791 4.358 4.383 4.358m-.002-7.15c1.544 0 2.651 1.213 2.651 2.791 0 1.579-1.096 2.792-2.65 2.792-1.555 0-2.663-1.213-2.663-2.792s1.12-2.792 2.662-2.792Zm-10-1.333h-3.24v8.248h3.24c2.615 0 4.382-1.897 4.382-4.124s-1.767-4.124-4.382-4.124m-1.568 6.727V9.745h1.591c1.531 0 2.639 1.142 2.639 2.603s-1.107 2.603-2.639 2.603zm17.66-6.727h2.521c1.814 0 2.934.93 2.934 2.463 0 1-.483 1.743-1.33 2.132l2.579 3.652h-1.967l-2.204-3.334h-.86v3.334h-1.673zm1.673 1.39v2.133h.943c.707 0 1.119-.412 1.119-1.084 0-.625-.413-1.049-1.12-1.049zm10.839-1.39h-2.192l-3.122 8.247h1.78l.789-2.145h3.299l.789 2.145h1.778zM70.43 9.803l1.131 3.098H69.3z" clip-rule="evenodd"/>
    </g>
    <defs>
        <clipPath id="a">
            <path fill="#fff" d="M0 .151h100v34.026H0z"/>
        </clipPath>
    </defs>
</svg>
