<svg xmlns="http://www.w3.org/2000/svg" width="101" height="35" fill="none">
    <path fill="#000" d="M37.66 2.188c0-.497.421-.918.919-.918a.92.92 0 0 1 .907.918c0 .497-.41.919-.907.919a.93.93 0 0 1-.919-.919m.21 1.892h1.406v5.571H37.87zm3.085 0h1.405v.421c.376-.366.853-.642 1.537-.642.708 0 1.326.31 1.692.905.397-.486.929-.905 1.868-.905 1.15 0 2.058.795 2.058 2.366V9.65H48.1V6.28c0-.674-.365-1.096-.994-1.096-.608 0-.94.422-1.16.795.01.077.01.155.01.242v3.43H44.54V6.28c0-.673-.366-1.095-.995-1.095-.642 0-.973.477-1.184.83V9.65h-1.405V4.08Zm10.163 0h1.405v.421c.377-.366.853-.642 1.537-.642.708 0 1.326.31 1.692.905.398-.486.93-.905 1.869-.905 1.15 0 2.057.795 2.057 2.366V9.65h-1.415V6.28c0-.674-.366-1.096-.995-1.096-.608 0-.94.422-1.16.795.01.077.01.155.01.242v3.43h-1.416V6.28c0-.673-.366-1.095-.995-1.095-.642 0-.973.477-1.184.83V9.65h-1.405zM63.98 9.872c-1.979 0-3.097-1.381-3.097-3.008 0-1.647 1.04-3.007 2.865-3.007 1.55 0 2.566 1.05 2.566 2.51 0 .31-.044.597-.09.784H62.32c.131 1.04.773 1.46 1.647 1.46.608 0 1.14-.265 1.437-.662l1.008.794c-.519.698-1.382 1.13-2.432 1.13Zm-1.616-3.737h2.566c-.021-.563-.431-1.128-1.216-1.128-.718.002-1.194.4-1.35 1.128m5.321-2.055h1.406v.553c.365-.376.84-.663 1.47-.663.188 0 .356.034.487.076v1.382a2.4 2.4 0 0 0-.618-.077c-.687 0-1.129.377-1.34.73v3.57h-1.405zm4.932 3.924c.342.431.753.74 1.284.74.453 0 .687-.266.687-.598 0-.974-2.666-.608-2.666-2.566 0-.984.83-1.723 1.992-1.723.853 0 1.627.407 2.024.95l-.929.818c-.287-.353-.653-.642-1.084-.642-.442 0-.653.242-.653.531 0 .95 2.666.619 2.666 2.543-.021 1.17-.963 1.813-2.013 1.813-.995 0-1.703-.398-2.234-1.03zm4.403-5.816a.93.93 0 0 1 .918-.918c.497 0 .908.42.908.918 0 .497-.41.919-.908.919a.93.93 0 0 1-.918-.919m.207 1.892h1.406v5.571h-1.406zm8.795 2.784c0 1.669-1.24 3.008-3.052 3.008-1.814 0-3.053-1.337-3.053-3.008 0-1.67 1.24-3.007 3.053-3.007 1.813.002 3.052 1.339 3.052 3.007m-1.46 0c0-.973-.674-1.679-1.571-1.679-.93 0-1.616.708-1.616 1.68 0 .97.687 1.678 1.616 1.678.897.003 1.57-.715 1.57-1.679Zm2.742-2.784h1.405v.442a2.26 2.26 0 0 1 1.647-.663c1.206 0 2.169.83 2.169 2.476v3.316H91.11v-3.26c0-.74-.421-1.206-1.105-1.206-.708 0-1.084.477-1.295.83V9.65h-1.405zM38.223 16.712v-.587c0-1.182.784-2.134 2.18-2.134.507 0 .939.12 1.294.31l-.598 1.171a1.1 1.1 0 0 0-.673-.22c-.477 0-.784.33-.784.839v.618h1.702v1.26h-1.702v4.314h-1.416v-4.31h-1.042v-1.261zm3.44 4.068c0-.84.652-1.47 1.847-1.668l1.703-.287v-.145c0-.587-.442-.96-1.084-.96-.543 0-.964.255-1.261.663l-1.029-.784c.497-.685 1.316-1.106 2.334-1.106 1.616 0 2.445.96 2.445 2.19v3.6h-1.405v-.542c-.356.431-1.019.708-1.671.708-1.116 0-1.88-.643-1.88-1.669Zm2.168.553c.642 0 1.105-.297 1.382-.74v-.784l-1.327.221c-.587.1-.829.342-.829.684 0 .374.298.619.774.619m8.329-.797 1.095.839c-.521.684-1.34 1.126-2.355 1.126-1.924 0-3.077-1.381-3.077-3.008 0-1.626 1.15-3.008 3.077-3.008 1.018 0 1.836.443 2.355 1.127l-1.095.84c-.266-.388-.708-.643-1.284-.643-.919 0-1.592.708-1.592 1.68 0 .983.673 1.678 1.616 1.678a1.46 1.46 0 0 0 1.26-.632Zm1.934-5.716c0-.498.421-.919.919-.919.497 0 .908.421.908.919a.92.92 0 0 1-.908.918.93.93 0 0 1-.919-.918m.21 1.892h1.406v5.57h-1.405zm3.085-2.721h1.405v8.292H57.39zm2.876.829c0-.498.421-.919.919-.919.497 0 .908.421.908.919 0 .497-.41.918-.908.918a.93.93 0 0 1-.919-.918m.21 1.892h1.406v5.57h-1.405zm3.44 1.26h-1.04v-1.26h1.04V15.32h1.416v1.392h1.703v1.26H65.33v2.277c0 .618.332.863.884.863.387 0 .642-.045.83-.121v1.226c-.277.121-.609.176-1.074.176-1.395 0-2.058-.784-2.058-2.144v-2.277zm6.966 4.532c-1.979 0-3.097-1.382-3.097-3.008 0-1.647 1.04-3.008 2.865-3.008 1.55 0 2.566 1.05 2.566 2.51 0 .311-.044.598-.09.785h-3.904c.131 1.04.773 1.46 1.647 1.46.608 0 1.14-.265 1.437-.663l1.008.795c-.516.697-1.38 1.129-2.432 1.129m-1.613-3.737h2.566c-.021-.563-.432-1.129-1.216-1.129-.721.003-1.195.4-1.35 1.129m.808-2.94 1.15-1.834h1.526l-1.326 1.835h-1.35Zm7.166 6.677c-1.98 0-3.098-1.382-3.098-3.008 0-1.647 1.04-3.008 2.866-3.008 1.55 0 2.566 1.05 2.566 2.51 0 .311-.045.598-.09.785h-3.905c.132 1.04.774 1.46 1.647 1.46.608 0 1.14-.265 1.437-.663l1.008.795c-.518.697-1.381 1.129-2.431 1.129m-1.616-3.737h2.566c-.021-.563-.432-1.129-1.216-1.129-.719.003-1.195.4-1.35 1.129M37.234 29.125h.99c.7 0 1.13.395 1.13 1 0 .595-.43.99-1.13.99h-.653v1.694h-.337zm.337.295v1.4h.657c.485 0 .774-.258.774-.706 0-.431-.29-.694-.774-.694zm2.497-.558h.31v3.947h-.31zm1.195 3.305c0-.4.305-.674.863-.768l.947-.158v-.248c0-.426-.3-.657-.716-.657a.95.95 0 0 0-.8.405l-.236-.184c.226-.311.589-.506 1.047-.506.61 0 1.01.358 1.01.942v1.816h-.305v-.384c-.226.3-.584.458-.952.458-.516 0-.858-.28-.858-.716m.897.447c.384 0 .716-.184.916-.526v-.605l-.88.147c-.42.074-.615.269-.615.532-.003.258.218.452.579.452m2.353-2.178h-.5v-.28h.5v-.663h.316v.664h.994v.279h-.995v1.536c0 .484.248.6.606.6.168 0 .284-.02.39-.058v.285a1.3 1.3 0 0 1-.422.063c-.542 0-.89-.242-.89-.89zm3.181 2.478c-.868 0-1.431-.657-1.431-1.431 0-.821.526-1.432 1.32-1.432.711 0 1.164.506 1.164 1.132a1 1 0 0 1-.021.22H46.58v.064c0 .674.458 1.163 1.11 1.163.374 0 .685-.174.88-.447l.236.19c-.24.33-.629.541-1.113.541Zm-1.081-1.758h1.818c-.016-.463-.337-.831-.852-.831-.495 0-.864.31-.966.832Zm3.102-1v-.352c0-.569.358-.942.884-.942.243 0 .437.074.564.152l-.137.264a.68.68 0 0 0-.416-.132c-.342 0-.579.237-.579.653v.358h.995v.279h-.995v2.373h-.316v-2.373h-.5v-.28zm4.334 1.327c0 .758-.573 1.431-1.426 1.431-.847 0-1.42-.673-1.42-1.431s.573-1.432 1.42-1.432c.853 0 1.427.674 1.427 1.432Zm-.331 0c0-.61-.463-1.137-1.09-1.137-.647 0-1.105.532-1.105 1.137s.458 1.137 1.105 1.137c.627 0 1.09-.537 1.09-1.137m1.121-1.326h.31v.378c.216-.273.464-.431.822-.431.073 0 .152.01.22.032v.3a1 1 0 0 0-.242-.037c-.363 0-.6.179-.8.51v1.9h-.31zm2.06 0h.311v.352c.216-.279.505-.458.895-.458.41 0 .742.195.895.569.226-.348.526-.569.984-.569.579 0 .99.38.99 1.08v1.678h-.306v-1.668c0-.516-.295-.795-.726-.795-.369 0-.642.184-.864.568q.016.104.016.216v1.68h-.31v-1.67c0-.515-.29-.794-.721-.794-.4 0-.674.221-.853.558v1.905h-.31v-2.652Zm6.245 2.757c-.868 0-1.431-.657-1.431-1.431 0-.821.526-1.432 1.32-1.432.711 0 1.164.506 1.164 1.132a1 1 0 0 1-.021.22H62.03v.064c0 .674.458 1.163 1.11 1.163.374 0 .685-.174.88-.447l.236.19c-.236.33-.626.541-1.113.541Zm-1.079-1.758h1.819c-.016-.463-.337-.831-.853-.831-.497 0-.866.31-.966.832Zm5.508-1.105c.416 0 .769.174 1.016.485v-1.674h.31v3.947h-.31v-.379c-.247.31-.6.484-1.016.484-.826 0-1.368-.657-1.368-1.431s.542-1.432 1.368-1.432m.027 2.569c.41 0 .773-.195.989-.553v-1.168a1.13 1.13 0 0 0-.99-.553c-.626 0-1.068.51-1.068 1.137 0 .626.442 1.137 1.069 1.137m3.518.294c-.868 0-1.432-.657-1.432-1.431 0-.821.527-1.432 1.321-1.432.71 0 1.164.506 1.164 1.132a1 1 0 0 1-.022.22h-2.144v.064c0 .674.458 1.163 1.11 1.163.374 0 .684-.174.88-.447l.236.19c-.237.33-.629.541-1.113.541m-1.079-1.758h1.818c-.015-.463-.336-.831-.852-.831-.498 0-.866.31-.966.832Zm4.387-2.294h.31v3.947h-.31zm1.163 1.61.426-1.347h.358l-.5 1.347zm1.55-1.39a.24.24 0 0 1 .242-.23.235.235 0 1 1 0 .468.237.237 0 0 1-.242-.237Zm.084 1.075h.31v2.652h-.31zm1.353 0h.31v.363c.232-.29.532-.469.948-.469.605 0 1.042.4 1.042 1.132v1.626h-.31v-1.616c0-.547-.311-.847-.774-.847-.421 0-.7.216-.906.558v1.905h-.31zm5.329 2.02.247.195a1.35 1.35 0 0 1-1.11.542c-.858 0-1.427-.657-1.427-1.431s.569-1.432 1.427-1.432c.479 0 .868.216 1.11.542l-.247.195a1.04 1.04 0 0 0-.863-.442c-.648 0-1.106.51-1.106 1.137 0 .626.458 1.137 1.11 1.137.37 0 .67-.174.859-.442Zm.942-3.315h.31v3.947h-.31zm3.26 1.295h.306v1.52c0 .79-.453 1.237-1.132 1.237-.684 0-1.142-.447-1.142-1.236v-1.521h.31v1.526c0 .6.332.937.832.937.49 0 .826-.337.826-.937zm1.195 2.115c.2.253.432.374.716.374.347 0 .547-.221.547-.495 0-.673-1.363-.447-1.363-1.384 0-.384.326-.716.816-.716.358 0 .658.174.842.427l-.231.184a.72.72 0 0 0-.606-.342c-.331 0-.516.205-.516.447 0 .69 1.364.479 1.364 1.374 0 .458-.364.773-.848.773-.394 0-.72-.157-.952-.452zm2.292-3.19a.24.24 0 0 1 .242-.23.235.235 0 1 1 0 .468.237.237 0 0 1-.242-.237Zm.085 1.075h.31v2.652h-.31zm3.955 1.326c0 .758-.574 1.431-1.427 1.431-.847 0-1.42-.673-1.42-1.431s.573-1.432 1.42-1.432c.853 0 1.427.674 1.427 1.432m-.332 0c0-.61-.463-1.137-1.09-1.137-.647 0-1.105.532-1.105 1.137s.458 1.137 1.106 1.137c.626 0 1.09-.537 1.09-1.137Zm1.121-1.326h.31v.363c.232-.29.532-.469.948-.469.605 0 1.042.4 1.042 1.132v1.626h-.31v-1.616c0-.547-.31-.847-.774-.847-.421 0-.7.216-.905.558v1.905h-.31z"/>
    <path fill="#80CEDF" d="M19.7 25.967a3.16 3.16 0 0 0 3.16-3.158 3.16 3.16 0 0 0-3.16-3.158 3.16 3.16 0 0 0-3.161 3.158 3.16 3.16 0 0 0 3.16 3.158Z"/>
    <path fill="#009EBF" d="M27.336 20.704a1.579 1.579 0 1 0 0-3.158 1.579 1.579 0 0 0 0 3.158M15.821 3.188c-2.643 2.14-3.558 5.99-2.285 9.021.845 2.021-.923 4.33-3.094 4.071-3.716-.463-5.908 3.984-3.287 6.698 2.718 2.618 7.163.431 6.702-3.285-.257-2.17 2.05-3.937 4.074-3.092 7.974 3.056 14.526-6.69 8.558-12.908q-.02-.016-.034-.034C23.628.796 18.892.583 15.82 3.19Z"/>
    <path fill="#80CEDF" d="M7.323 9.651a4.21 4.21 0 0 0 4.213-4.21 4.21 4.21 0 0 0-4.213-4.21A4.21 4.21 0 0 0 3.11 5.44a4.21 4.21 0 0 0 4.213 4.21Z"/>
    <path fill="#009EBF" d="M3.639 16.493a2.633 2.633 0 0 0 2.634-2.631A2.633 2.633 0 0 0 3.64 11.23a2.633 2.633 0 0 0-2.634 2.632 2.633 2.633 0 0 0 2.634 2.631Z"/>
    <path fill="#80CEDF" d="M8.642 32.81a2.633 2.633 0 1 0 0-5.264 2.633 2.633 0 0 0-2.635 2.632 2.633 2.633 0 0 0 2.635 2.631Z"/>
</svg>
