<svg xmlns="http://www.w3.org/2000/svg" width="82" height="35" fill="none">
    <g clip-path="url(#a)">
        <path fill="#E1000F" d="M10.97.283.868 6.115v11.666l9.563 16.502h1.079l9.563-16.502V6.115z"/>
        <path fill="#fff" d="M13.86 10.28h3.828V8.07L10.97 4.19 4.253 8.07v7.756l6.717 3.88 6.718-3.88v-2.21h-3.829V10.28Z"/>
        <path fill="#000091" d="M13.86 13.616V10.28l-2.89-1.668-2.888 1.668v3.336l2.888 1.668z"/>
        <path fill="#000" d="m33.132 5.935.982.753c-.561.763-1.473 1.254-2.586 1.254-1.938 0-3.262-1.49-3.262-3.244 0-1.753 1.324-3.243 3.262-3.243 1.113 0 2.025.5 2.586 1.245l-.982.762a1.92 1.92 0 0 0-1.604-.841c-1.158 0-1.982.903-1.982 2.077 0 1.175.824 2.078 1.982 2.078a1.92 1.92 0 0 0 1.604-.841m6.663-1.237c0-1.174-.824-2.077-1.973-2.077-1.157 0-1.981.903-1.981 2.077 0 1.175.824 2.078 1.981 2.078 1.149 0 1.973-.903 1.973-2.078m1.28 0c0 1.754-1.324 3.244-3.253 3.244-1.937 0-3.261-1.49-3.261-3.244 0-1.753 1.324-3.243 3.261-3.243 1.929 0 3.253 1.49 3.253 3.243m1.079-3.068h1.595l2.744 4.392V1.63h1.245v6.137h-1.596L43.4 3.357v4.41h-1.245zm7.548 4.454c.369.473.86.753 1.359.753.491 0 .789-.262.789-.71 0-1.095-2.805-.85-2.805-2.893 0-.973.798-1.78 1.963-1.78.921 0 1.631.413 2.148 1.035l-.911.816c-.36-.465-.763-.763-1.228-.763-.43 0-.71.28-.71.64 0 1.096 2.805.842 2.805 2.92-.017 1.139-.911 1.84-2.034 1.84-1.034 0-1.735-.377-2.279-1.026zm4.612-4.454h3.577v1.061h-2.332v1.42h1.981v1.061h-1.98v1.534h2.332v1.06h-3.577V1.63Zm4.909 0h1.245v6.137h-1.245zm2.859 0h1.245v5.006h2.331v1.13h-3.576zm4.568 0h1.244v5.006h2.332v1.13h-3.577V1.63Zm4.567 0h3.577v1.061h-2.332v1.42h1.981v1.061h-1.98v1.534h2.33v1.06h-3.576zm6.155 1.061v1.534h.7c.527 0 .834-.28.834-.78 0-.465-.307-.754-.833-.754zm-1.245-1.06h1.876c1.35 0 2.183.692 2.183 1.831 0 .737-.36 1.29-.982 1.587l1.928 2.718h-1.49l-1.63-2.481h-.64v2.48h-1.245V1.63Zm-47.773 8.846h1.595l2.744 4.392v-4.392h1.245v6.136h-1.595l-2.744-4.41v4.41h-1.245zm10.748 0h1.245v3.734c0 1.614-.947 2.578-2.49 2.578-1.534 0-2.48-.964-2.48-2.578v-3.734h1.244v3.84c0 .824.465 1.306 1.245 1.306.763 0 1.236-.482 1.236-1.306zm2.683 0h1.57l1.48 2.525 1.483-2.525h1.569v6.136h-1.245v-4.365l-1.368 2.262h-.877l-1.367-2.262v4.365h-1.245zm8.916-.527.99-1.183h1.28L51.833 9.95h-1.13Zm-1.21.527h3.577v1.06h-2.331v1.42h1.98v1.061h-1.98v1.535h2.331v1.06h-3.577zm6.164 1.06v1.535h.701c.526 0 .833-.28.833-.78 0-.465-.307-.755-.833-.755zm-1.245-1.06h1.876c1.35 0 2.183.692 2.183 1.832 0 .736-.36 1.289-.982 1.587l1.929 2.717h-1.49l-1.632-2.48h-.64v2.48H54.41zm5.672 0h1.245v6.136h-1.245zm7.566 3.068c0-1.175-.824-2.078-1.973-2.078-1.157 0-1.981.903-1.981 2.078s.824 2.078 1.981 2.078c1.149 0 1.973-.903 1.973-2.078m1.727 3.498c.132 0 .307-.017.438-.07v1.052a1.6 1.6 0 0 1-.648.114c-.684 0-1.316-.28-1.92-.806l-.728-.65q-.394.105-.842.106c-1.937 0-3.26-1.49-3.26-3.244 0-1.753 1.323-3.244 3.26-3.244 1.93 0 3.253 1.49 3.253 3.244 0 1.026-.456 1.964-1.21 2.56l.368.35c.474.43.895.588 1.29.588Zm4.182-6.566h1.245v3.734c0 1.614-.947 2.578-2.49 2.578-1.534 0-2.48-.964-2.48-2.578v-3.734h1.244v3.84c0 .824.465 1.306 1.245 1.306.763 0 1.236-.482 1.236-1.306zm2.683 0h3.577v1.06h-2.331v1.42h1.98v1.061h-1.98v1.535h2.331v1.06h-3.576v-6.136Z"/>
        <path fill="#000091" d="M28.383 19.643h3.578v1.06h-2.333v1.42h1.982v1.061h-1.982v2.595h-1.245zm4.332 1.717h1.113v.439c.29-.298.666-.526 1.166-.526.149 0 .28.027.386.061v1.167a2 2 0 0 0-.491-.062c-.544 0-.895.298-1.061.57v2.77h-1.113v-4.418Zm4.857 3.7c.5 0 .859-.262 1.087-.622v-.605l-1.044.184c-.473.079-.657.272-.657.552s.237.491.614.491m-1.719-.447c0-.675.518-1.192 1.473-1.35l1.333-.228v-.114c0-.465-.351-.762-.85-.762-.43 0-.79.184-.991.525l-.825-.622c.395-.544 1.053-.877 1.85-.877 1.28 0 1.938.763 1.938 1.736v2.858h-1.122v-.412c-.28.35-.798.587-1.315.587-.886 0-1.49-.508-1.49-1.34Zm5.007-3.253h1.113v.351a1.8 1.8 0 0 1 1.306-.526c.956 0 1.718.658 1.718 1.964v2.63h-1.13v-2.586c0-.588-.325-.956-.869-.956-.56 0-.859.377-1.025.658v2.884h-1.114v-4.418Zm8.31 3.025.886.675c-.412.544-1.06.895-1.867.895-1.526 0-2.437-1.096-2.437-2.385s.911-2.385 2.437-2.385c.806 0 1.455.35 1.867.895l-.885.675a1.17 1.17 0 0 0-1-.517c-.727 0-1.262.56-1.262 1.332 0 .78.535 1.332 1.28 1.332.43 0 .771-.21.982-.517Zm2.42-1.429h1.99c-.017-.438-.341-.841-.929-.841-.543 0-.912.263-1.06.841Zm1.245 2.998c-1.569 0-2.454-1.095-2.454-2.384 0-1.306.824-2.385 2.27-2.385 1.228 0 2.034.825 2.034 1.982 0 .245-.035.482-.07.631H51.52c.07.727.579 1.157 1.333 1.157.482 0 .877-.21 1.113-.526l.798.631c-.412.553-1.096.895-1.929.895Z"/>
        <path fill="#E1000F" d="M28.76 32.473c.272.342.596.587 1.017.587.351 0 .544-.193.544-.456 0-.771-2.06-.447-2.06-2.042 0-.78.657-1.36 1.569-1.36.683 0 1.297.325 1.622.755l-.745.666c-.229-.29-.518-.509-.868-.509-.334 0-.509.158-.509.404 0 .754 2.06.447 2.06 2.016-.017.93-.762 1.438-1.595 1.438-.79 0-1.35-.316-1.771-.815zm4.357-1.499h1.99c-.017-.438-.341-.842-.929-.842-.543 0-.912.263-1.06.842Zm1.245 2.998c-1.569 0-2.454-1.096-2.454-2.384 0-1.307.824-2.385 2.27-2.385 1.228 0 2.034.824 2.034 1.98 0 .247-.035.484-.07.633h-3.094c.07.727.578 1.157 1.332 1.157.482 0 .877-.21 1.113-.526l.798.63c-.412.553-1.096.895-1.928.895Zm2.745-4.594h1.113v.439c.29-.298.666-.526 1.166-.526.15 0 .28.026.386.06v1.167a2 2 0 0 0-.49-.062 1.22 1.22 0 0 0-1.062.57v2.77h-1.113zm4.033 0 1.148 3.156 1.14-3.156h1.2l-1.613 4.419h-1.463l-1.605-4.419zm3.997 0h1.114v4.419h-1.114zm-.166-1.499c0-.395.333-.727.728-.727a.73.73 0 0 1 .718.727.73.73 0 0 1-.718.727.737.737 0 0 1-.728-.727m5.523 4.524.885.675c-.411.543-1.06.894-1.867.894-1.525 0-2.437-1.096-2.437-2.384 0-1.29.912-2.385 2.437-2.385.807 0 1.456.35 1.867.894l-.885.675a1.17 1.17 0 0 0-1-.517c-.727 0-1.262.561-1.262 1.333 0 .78.535 1.332 1.28 1.332.43 0 .771-.21.982-.517m2.42-1.429h1.99c-.018-.438-.342-.842-.93-.842-.543 0-.911.263-1.06.842m1.245 2.998c-1.57 0-2.455-1.096-2.455-2.384 0-1.307.824-2.385 2.27-2.385 1.228 0 2.034.824 2.034 1.98 0 .247-.034.484-.07.633h-3.094c.07.727.579 1.157 1.332 1.157.482 0 .877-.21 1.114-.526l.797.63c-.411.553-1.096.895-1.928.895m3.086-1.499c.272.342.596.587 1.017.587.35 0 .543-.193.543-.456 0-.771-2.06-.447-2.06-2.042 0-.78.658-1.36 1.57-1.36.683 0 1.297.325 1.621.755l-.745.666c-.228-.29-.517-.509-.868-.509-.333 0-.508.158-.508.404 0 .754 2.06.447 2.06 2.016-.018.93-.763 1.438-1.595 1.438-.79 0-1.35-.316-1.771-.815z"/>
    </g>
    <defs>
        <clipPath id="a">
            <path fill="#fff" d="M.868.283h80.264v34H.868z"/>
        </clipPath>
    </defs>
</svg>
